<svg xmlns="http://www.w3.org/2000/svg" width="39" height="39" viewBox="0 0 39 39"><path d="M19.5.5A19.75,19.75,0,0,0,0,20.495,19.954,19.954,0,0,0,13.333,39.466c.975.188,1.332-.431,1.332-.961,0-.475-.016-1.733-.024-3.4-5.424,1.206-6.568-2.682-6.568-2.682A5.27,5.27,0,0,0,5.9,29.5c-1.766-1.24.137-1.214.137-1.214a4.1,4.1,0,0,1,2.987,2.06,4.1,4.1,0,0,0,5.679,1.663,4.3,4.3,0,0,1,1.235-2.674c-4.331-.5-8.882-2.22-8.882-9.88a7.822,7.822,0,0,1,2.007-5.365A7.277,7.277,0,0,1,9.236,8.8s1.633-.536,5.362,2.05a17.945,17.945,0,0,1,9.75,0c3.7-2.586,5.338-2.05,5.338-2.05a7.479,7.479,0,0,1,.2,5.292,7.855,7.855,0,0,1,2,5.365c0,7.681-4.558,9.372-8.9,9.863a4.854,4.854,0,0,1,1.316,3.7c0,2.676-.024,4.826-.024,5.475,0,.524.341,1.15,1.341.95A19.889,19.889,0,0,0,39,20.495,19.753,19.753,0,0,0,19.5.5Z" transform="translate(0 -0.5)" fill="#fff"/></svg>