<svg width="900" height="900" viewBox="0 0 900 900" fill="none" xmlns="http://www.w3.org/2000/svg">
<g filter="url(#filter0_i_506_58)">
<path d="M0 450C0 201.472 201.472 0 450 0V0C698.528 0 900 201.472 900 450V450C900 698.528 698.528 900 450 900V900C201.472 900 0 698.528 0 450V450Z" fill="url(#paint0_linear_506_58)"/>
</g>
<path d="M450 885.5C209.48 885.5 14.5 690.52 14.5 450C14.5 209.48 209.48 14.5 450 14.5C690.52 14.5 885.5 209.48 885.5 450C885.5 690.52 690.52 885.5 450 885.5Z" stroke="url(#paint1_radial_506_58)" stroke-width="29"/>
<rect x="241.742" y="519.724" width="423.132" height="162.158" fill="black" stroke="black" stroke-width="10"/>
<g filter="url(#filter1_d_506_58)">
<path d="M263.912 503.255L635.736 503.888C635.771 517.113 634.984 528.648 631.935 541.514H626.03H268.316C265.374 528.976 263.896 516.136 263.912 503.255Z" fill="white"/>
<path d="M263.912 503.255L635.736 503.888C635.771 517.113 634.984 528.648 631.935 541.514H626.03H268.316C265.374 528.976 263.896 516.136 263.912 503.255Z" stroke="black" stroke-width="10"/>
</g>
<g filter="url(#filter2_i_506_58)">
<path d="M304.451 613.591C308.781 618.741 314.015 624.67 318.866 629.333L318.868 629.334C337.865 647.15 360.285 660.919 384.766 669.805C409.248 678.69 435.28 682.507 461.282 681.024C487.284 679.54 512.713 672.787 536.025 661.175C559.336 649.563 580.045 633.333 596.892 613.472H590.317C549.888 613.496 509.725 619.997 471.353 632.728L450.618 639.652L426.217 631.594C390.205 619.654 352.509 613.576 314.57 613.591H304.451Z" fill="#113976"/>
</g>
<path d="M304.451 613.591C308.781 618.741 314.015 624.67 318.866 629.333L318.868 629.334C337.865 647.15 360.285 660.919 384.766 669.805C409.248 678.69 435.28 682.507 461.282 681.024C487.284 679.54 512.713 672.787 536.025 661.175C559.336 649.563 580.045 633.333 596.892 613.472H590.317C549.888 613.496 509.725 619.997 471.353 632.728L450.618 639.652L426.217 631.594C390.205 619.654 352.509 613.576 314.57 613.591H304.451Z" stroke="black" stroke-width="10"/>
<g filter="url(#filter3_d_506_58)">
<path d="M425.046 334.916C428.299 345.609 429.959 356.723 429.972 367.9C430.011 388.854 424.13 409.392 413.005 427.149C401.881 444.906 385.967 459.16 367.096 468.267C348.226 477.375 327.166 480.966 306.343 478.628C285.52 476.29 265.782 468.116 249.401 455.05C233.02 441.983 220.664 424.555 213.756 404.773C206.847 384.991 205.668 363.66 210.353 343.237C215.038 322.813 225.398 304.129 240.238 289.337C255.078 274.544 273.795 264.244 294.233 259.624C321.51 253.414 350.126 257.716 374.371 271.672C398.617 285.627 416.71 308.211 425.041 334.916H425.046ZM375.738 367.898C375.727 356.625 372.367 345.611 366.086 336.25C359.805 326.89 350.885 319.606 340.459 315.323C332.664 312.086 324.25 310.617 315.82 311.019C307.39 311.422 299.154 313.687 291.703 317.652C284.253 321.618 277.774 327.184 272.731 333.951C267.689 340.719 264.208 348.519 262.539 356.792C260.339 367.841 261.475 379.295 265.802 389.696C270.129 400.098 277.452 408.977 286.839 415.206C293.859 419.9 301.833 422.981 310.186 424.228C318.539 425.474 327.064 424.854 335.149 422.414C343.235 419.973 350.679 415.772 356.947 410.112C363.215 404.452 368.152 397.474 371.403 389.679C374.271 382.776 375.744 375.373 375.737 367.898H375.738Z" fill="#F5D769"/>
<path d="M375.738 367.898C375.727 356.625 372.367 345.611 366.086 336.25C359.805 326.89 350.885 319.606 340.459 315.323C332.664 312.086 324.25 310.617 315.82 311.019C307.39 311.422 299.154 313.687 291.703 317.652C284.253 321.618 277.774 327.184 272.731 333.951C267.689 340.719 264.208 348.519 262.539 356.792C260.339 367.841 261.475 379.295 265.802 389.696C270.129 400.098 277.452 408.977 286.839 415.206C293.859 419.9 301.833 422.981 310.186 424.228C318.539 425.474 327.064 424.854 335.149 422.414C343.235 419.973 350.679 415.772 356.947 410.112C363.215 404.452 368.152 397.474 371.403 389.679C374.271 382.776 375.744 375.373 375.737 367.898H375.738Z" fill="#F5D769"/>
<path d="M425.046 334.916C428.299 345.609 429.959 356.723 429.972 367.9C430.011 388.854 424.13 409.392 413.005 427.149C401.881 444.906 385.967 459.16 367.096 468.267C348.226 477.375 327.166 480.966 306.343 478.628C285.52 476.29 265.782 468.116 249.401 455.05C233.02 441.983 220.664 424.555 213.756 404.773C206.847 384.991 205.668 363.66 210.353 343.237C215.038 322.813 225.398 304.129 240.238 289.337C255.078 274.544 273.795 264.244 294.233 259.624C321.51 253.414 350.126 257.716 374.371 271.672C398.617 285.627 416.71 308.211 425.041 334.916H425.046ZM375.738 367.898C375.727 356.625 372.367 345.611 366.086 336.25C359.805 326.89 350.885 319.606 340.459 315.323C332.664 312.086 324.25 310.617 315.82 311.019C307.39 311.422 299.154 313.687 291.703 317.652C284.253 321.618 277.774 327.184 272.731 333.951C267.689 340.719 264.208 348.519 262.539 356.792C260.339 367.841 261.475 379.295 265.802 389.696C270.129 400.098 277.452 408.977 286.839 415.206C293.859 419.9 301.833 422.981 310.186 424.228C318.539 425.474 327.064 424.854 335.149 422.414C343.235 419.973 350.679 415.772 356.947 410.112C363.215 404.452 368.152 397.474 371.403 389.679C374.271 382.776 375.744 375.373 375.737 367.898H375.738Z" stroke="black" stroke-width="10"/>
<path d="M375.738 367.898C375.727 356.625 372.367 345.611 366.086 336.25C359.805 326.89 350.885 319.606 340.459 315.323C332.664 312.086 324.25 310.617 315.82 311.019C307.39 311.422 299.154 313.687 291.703 317.652C284.253 321.618 277.774 327.184 272.731 333.951C267.689 340.719 264.208 348.519 262.539 356.792C260.339 367.841 261.475 379.295 265.802 389.696C270.129 400.098 277.452 408.977 286.839 415.206C293.859 419.9 301.833 422.981 310.186 424.228C318.539 425.474 327.064 424.854 335.149 422.414C343.235 419.973 350.679 415.772 356.947 410.112C363.215 404.452 368.152 397.474 371.403 389.679C374.271 382.776 375.744 375.373 375.737 367.898H375.738Z" stroke="black" stroke-width="10"/>
</g>
<g filter="url(#filter4_d_506_58)">
<path d="M581.291 256.857C603.312 256.833 624.847 263.329 643.181 275.526C661.516 287.723 675.829 305.074 684.316 325.394C690.594 340.587 693.421 356.983 692.593 373.401C691.764 389.819 687.301 405.848 679.526 420.332C671.751 434.815 660.857 447.392 647.631 457.155C634.405 466.917 619.177 473.621 603.046 476.784C581.435 481.079 559.037 478.888 538.669 470.487C518.3 462.086 500.87 447.85 488.571 429.569C476.323 411.328 469.781 389.855 469.777 367.883C469.783 356.705 471.445 345.59 474.709 334.899C481.855 312.24 496.045 292.453 515.214 278.416C534.383 264.378 557.531 256.824 581.29 256.85L581.291 256.857ZM638.439 367.89C638.428 356.617 635.069 345.602 628.788 336.242C622.507 326.882 613.588 319.598 603.161 315.315C595.367 312.078 586.952 310.608 578.522 311.011C570.092 311.414 561.856 313.679 554.406 317.644C546.955 321.609 540.476 327.176 535.434 333.943C530.391 340.711 526.91 348.511 525.241 356.784C523.042 367.833 524.178 379.287 528.505 389.688C532.832 400.09 540.155 408.969 549.542 415.198C556.563 419.892 564.536 422.973 572.889 424.219C581.242 425.465 589.768 424.846 597.853 422.405C605.938 419.965 613.382 415.763 619.651 410.104C625.919 404.444 630.856 397.466 634.107 389.671C636.973 382.767 638.444 375.364 638.435 367.89H638.439Z" fill="#F5D769"/>
<path d="M638.439 367.89C638.428 356.617 635.069 345.602 628.788 336.242C622.507 326.882 613.588 319.598 603.161 315.315C595.367 312.078 586.952 310.608 578.522 311.011C570.092 311.414 561.856 313.679 554.406 317.644C546.955 321.609 540.476 327.176 535.434 333.943C530.391 340.711 526.91 348.511 525.241 356.784C523.042 367.833 524.178 379.287 528.505 389.688C532.832 400.09 540.155 408.969 549.542 415.198C556.563 419.892 564.536 422.973 572.889 424.219C581.242 425.465 589.768 424.846 597.853 422.405C605.938 419.965 613.382 415.763 619.651 410.104C625.919 404.444 630.856 397.466 634.107 389.671C636.973 382.767 638.444 375.364 638.435 367.89H638.439Z" fill="#F5D769"/>
<path d="M581.291 256.857C603.312 256.833 624.847 263.329 643.181 275.526C661.516 287.723 675.829 305.074 684.316 325.394C690.594 340.587 693.421 356.983 692.593 373.401C691.764 389.819 687.301 405.848 679.526 420.332C671.751 434.815 660.857 447.392 647.631 457.155C634.405 466.917 619.177 473.621 603.046 476.784C581.435 481.079 559.037 478.888 538.669 470.487C518.3 462.086 500.87 447.85 488.571 429.569C476.323 411.328 469.781 389.855 469.777 367.883C469.783 356.705 471.445 345.59 474.709 334.899C481.855 312.24 496.045 292.453 515.214 278.416C534.383 264.378 557.531 256.824 581.29 256.85L581.291 256.857ZM638.439 367.89C638.428 356.617 635.069 345.602 628.788 336.242C622.507 326.882 613.588 319.598 603.161 315.315C595.367 312.078 586.952 310.608 578.522 311.011C570.092 311.414 561.856 313.679 554.406 317.644C546.955 321.609 540.476 327.176 535.434 333.943C530.391 340.711 526.91 348.511 525.241 356.784C523.042 367.833 524.178 379.287 528.505 389.688C532.832 400.09 540.155 408.969 549.542 415.198C556.563 419.892 564.536 422.973 572.889 424.219C581.242 425.465 589.768 424.846 597.853 422.405C605.938 419.965 613.382 415.763 619.651 410.104C625.919 404.444 630.856 397.466 634.107 389.671C636.973 382.767 638.444 375.364 638.435 367.89H638.439Z" stroke="black" stroke-width="10"/>
<path d="M638.439 367.89C638.428 356.617 635.069 345.602 628.788 336.242C622.507 326.882 613.588 319.598 603.161 315.315C595.367 312.078 586.952 310.608 578.522 311.011C570.092 311.414 561.856 313.679 554.406 317.644C546.955 321.609 540.476 327.176 535.434 333.943C530.391 340.711 526.91 348.511 525.241 356.784C523.042 367.833 524.178 379.287 528.505 389.688C532.832 400.09 540.155 408.969 549.542 415.198C556.563 419.892 564.536 422.973 572.889 424.219C581.242 425.465 589.768 424.846 597.853 422.405C605.938 419.965 613.382 415.763 619.651 410.104C625.919 404.444 630.856 397.466 634.107 389.671C636.973 382.767 638.444 375.364 638.435 367.89H638.439Z" stroke="black" stroke-width="10"/>
</g>
<g filter="url(#filter5_d_506_58)">
<path fill-rule="evenodd" clip-rule="evenodd" d="M700.979 330.962C684.108 277.332 650.949 230.449 605.621 197.191C560.293 163.933 505.538 146 449.317 146C393.097 146 338.342 163.933 293.013 197.191C247.685 230.449 214.907 277.966 198.035 331.595C190.139 356.857 185.983 383.173 186 409.64V700.072C186.043 712.933 190.739 725.343 199.219 735.012C207.7 744.68 219.393 750.953 232.138 752.671C244.884 754.39 257.821 751.438 268.559 744.362C279.298 737.285 287.113 726.561 290.56 714.171C291.544 710.198 293.813 706.662 297.014 704.112C300.215 701.562 304.169 700.142 308.261 700.072H310.668C314.76 700.142 318.714 701.562 321.915 704.112C325.116 706.662 327.385 710.198 328.369 714.171C331.506 725.372 338.22 735.239 347.488 742.268C356.756 749.297 368.069 753.102 379.701 753.102C391.333 753.102 402.645 749.297 411.913 742.268C421.181 735.239 427.896 725.372 431.033 714.171C432.016 710.198 434.285 706.662 437.486 704.112C440.687 701.562 444.641 700.142 448.733 700.072H451.258C455.35 700.142 459.304 701.563 462.506 704.112C465.707 706.662 467.976 710.198 468.96 714.171C472.096 725.372 478.811 735.24 488.079 742.269C497.346 749.298 508.659 753.103 520.291 753.103C531.923 753.103 543.236 749.298 552.504 742.269C561.772 735.24 568.486 725.372 571.623 714.171C572.606 710.198 574.875 706.662 578.076 704.112C581.277 701.562 585.231 700.142 589.323 700.072H591.73C595.822 700.142 599.776 701.563 602.978 704.112C606.179 706.662 608.448 710.198 609.432 714.171C612.895 726.554 620.723 737.266 631.469 744.327C642.215 751.388 655.153 754.321 667.894 752.585C680.631 750.893 692.323 744.638 700.799 734.981C709.276 725.325 713.963 712.921 713.99 700.072V409.772C714.009 383.303 708.875 356.226 700.979 330.962ZM213.871 335.126C210.616 345.819 208.722 356.46 208.707 367.637C208.806 397.147 219.134 425.414 240.036 446.246C260.938 467.078 289.245 477.918 318.755 477.918C348.265 477.918 376.573 466.22 397.475 445.389C418.377 424.557 429.771 398.478 429.871 368.968C429.821 342.347 420.019 315.736 402.622 295.587C385.225 275.438 361.179 263.817 334.85 259.886C308.513 255.866 282.043 261.131 259.431 275.22C236.82 289.309 221.869 309.713 213.871 335.126ZM687.081 335.093L687.139 335.075C690.352 345.689 692.623 357.663 692.628 368.732C692.628 383.317 689.095 397.458 683.492 410.924C672.112 438.19 650.381 459.051 623.067 470.317C595.753 481.582 566.07 481.153 538.777 469.837C518.437 461.472 502.303 448.038 490.047 429.777C477.79 411.516 471.353 390.961 471.318 368.968C471.411 342.329 479.608 315.711 497.015 295.545C514.421 275.379 537.559 262.105 563.899 258.122C590.239 254.138 617.134 259.708 639.726 273.824C662.317 287.941 679.114 309.673 687.081 335.093ZM631.682 542.459C625.496 568.457 613.381 592.671 596.282 613.208C562.273 654.625 509.43 681.062 450.005 681.192C422.316 681.491 394.905 675.652 369.742 664.094C344.58 652.536 322.29 635.546 304.477 614.346C286.81 593.246 274.377 568.271 268.19 541.456C265.242 528.913 263.904 516.139 263.912 503.255L635.736 503.888C635.764 517.112 634.734 529.592 631.682 542.459Z" fill="url(#paint2_linear_506_58)"/>
<path d="M708.136 328.718L708.138 328.725C716.201 354.524 721.51 382.371 721.49 409.777V700.072V700.08V700.088C721.459 714.752 716.11 728.908 706.436 739.929C696.765 750.946 683.428 758.083 668.898 760.017C654.365 761.996 639.608 758.649 627.35 750.595C615.09 742.539 606.16 730.318 602.209 716.191L602.179 716.083L602.152 715.974C601.566 713.606 600.213 711.499 598.305 709.979C596.412 708.471 594.076 707.626 591.658 707.572H589.396C586.977 707.626 584.642 708.471 582.749 709.979C580.841 711.498 579.489 713.606 578.903 715.973L578.875 716.084L578.845 716.193C575.267 728.97 567.608 740.227 557.036 748.245C546.464 756.263 533.56 760.603 520.291 760.603C507.023 760.603 494.118 756.263 483.546 748.245C472.974 740.227 465.315 728.97 461.738 716.193L461.707 716.084L461.68 715.974C461.093 713.606 459.741 711.499 457.833 709.979C455.94 708.471 453.604 707.626 451.185 707.572H448.806C446.387 707.626 444.052 708.471 442.159 709.979C440.251 711.498 438.899 713.606 438.313 715.973L438.285 716.084L438.255 716.194C434.676 728.971 427.017 740.226 416.445 748.244C405.873 756.262 392.969 760.602 379.701 760.602C366.432 760.602 353.528 756.262 342.956 748.244C332.384 740.226 324.725 728.971 321.147 716.194L321.116 716.084L321.088 715.973C320.502 713.606 319.15 711.498 317.243 709.979C315.349 708.471 313.014 707.626 310.596 707.572H308.333C305.915 707.626 303.58 708.471 301.687 709.979C299.779 711.498 298.427 713.606 297.841 715.973L297.815 716.078L297.786 716.182C293.853 730.316 284.937 742.551 272.686 750.624C260.435 758.697 245.676 762.065 231.136 760.104C216.596 758.143 203.256 750.987 193.581 739.957C183.906 728.927 178.549 714.769 178.5 700.097L178.5 700.085V700.072V409.643L708.136 328.718ZM708.136 328.718L708.134 328.711M708.136 328.718L708.134 328.711M708.134 328.711C690.792 273.589 656.698 225.365 610.058 191.144C563.443 156.942 507.134 138.5 449.317 138.5C391.501 138.5 335.191 156.942 288.577 191.144C241.886 225.402 208.203 274.285 190.881 329.344L190.877 329.358M708.134 328.711L190.877 329.358M190.877 329.358C182.763 355.317 178.483 382.386 178.5 409.64L190.877 329.358ZM680.786 340.088L679.924 337.336C672.493 313.624 656.825 293.352 635.752 280.185C614.678 267.017 589.59 261.822 565.021 265.537C540.54 269.24 518.989 281.566 502.692 300.446C486.668 319.01 478.911 343.784 478.818 368.97C478.853 389.435 484.827 408.541 496.274 425.597C507.731 442.667 522.707 455.119 541.629 462.9L541.639 462.904L541.65 462.909C567.179 473.494 594.799 473.862 620.208 463.383C645.781 452.836 665.991 433.378 676.568 408.042C681.89 395.251 685.128 382.099 685.128 368.735L680.786 340.088ZM680.786 340.088C683.397 349.446 685.124 359.537 685.128 368.732L680.786 340.088ZM333.718 267.3L333.73 267.302L333.742 267.303C358.597 271.015 380.906 281.911 396.945 300.488C413.15 319.256 422.319 344.119 422.371 368.962C422.273 396.388 411.738 420.585 392.18 440.077C372.684 459.507 346.281 470.418 318.755 470.418C291.078 470.418 264.723 460.261 245.33 440.934C226.013 421.682 216.304 395.41 216.207 367.629C216.223 357.339 217.961 347.453 221.036 337.344C228.542 313.515 242.436 294.646 263.398 281.585C284.459 268.462 309.116 263.545 333.718 267.3ZM275.491 539.74C273.257 530.235 271.988 520.561 271.569 510.768L628.126 511.375C627.797 521.399 626.698 530.971 624.386 540.723C618.468 565.595 606.877 588.762 590.518 608.41L590.502 608.429L590.486 608.449C557.898 648.135 507.174 673.566 449.989 673.692L449.956 673.692L449.924 673.692C423.343 673.98 397.029 668.374 372.873 657.279C348.72 646.184 327.324 629.876 310.224 609.527C293.318 589.334 281.419 565.432 275.498 539.77L275.495 539.755L275.491 539.74Z" stroke="black" stroke-width="15"/>
</g>
<g filter="url(#filter6_d_506_58)">
<path d="M590.909 327.814C595.428 327.808 599.847 329.141 603.61 331.643C607.373 334.146 610.31 337.706 612.052 341.876C613.34 344.994 613.92 348.358 613.75 351.728C613.58 355.097 612.665 358.386 611.069 361.358C609.473 364.331 607.238 366.912 604.524 368.915C601.809 370.918 598.684 372.294 595.374 372.943C590.939 373.824 586.343 373.374 582.163 371.65C577.983 369.926 574.407 367.005 571.882 363.254C570.007 360.451 568.779 357.267 568.285 353.931C567.791 350.595 568.045 347.191 569.027 343.965C570.01 340.739 571.697 337.772 573.967 335.277C576.237 332.783 579.032 330.825 582.152 329.543C584.929 328.399 587.905 327.811 590.909 327.814Z" fill="white"/>
</g>
<g filter="url(#filter7_d_506_58)">
<path d="M550.958 378.923C553.199 378.945 555.384 379.629 557.238 380.889C559.092 382.149 560.532 383.929 561.379 386.004C562.22 388.077 562.427 390.353 561.974 392.543C561.521 394.733 560.427 396.74 558.832 398.308C557.781 399.372 556.528 400.216 555.148 400.793C553.768 401.37 552.288 401.668 550.792 401.67C549.296 401.671 547.815 401.377 546.434 400.803C545.052 400.229 543.799 399.387 542.744 398.325C541.69 397.264 540.857 396.005 540.292 394.62C539.728 393.235 539.443 391.751 539.454 390.256C539.466 388.76 539.774 387.281 540.36 385.905C540.946 384.529 541.799 383.283 542.87 382.238C545.028 380.116 547.932 378.926 550.958 378.923Z" fill="white"/>
</g>
<g filter="url(#filter8_d_506_58)">
<path d="M581.365 310.692C570.079 310.68 559.043 314.01 549.647 320.261C540.251 326.513 532.916 335.406 528.566 345.82C525.349 353.606 523.9 362.009 524.324 370.423C524.749 378.836 527.036 387.051 531.02 394.474C535.005 401.896 540.588 408.342 547.366 413.345C554.144 418.348 561.948 421.784 570.215 423.405C581.291 425.605 592.769 424.482 603.208 420.177C613.646 415.871 622.579 408.576 628.883 399.208C633.57 392.208 636.643 384.255 637.879 375.922C639.115 367.589 638.483 359.086 636.029 351.028C633.575 342.969 629.361 335.557 623.691 329.327C618.021 323.097 611.036 318.206 603.244 315.007C596.304 312.15 588.87 310.684 581.365 310.692ZM552.791 401.711C550.544 401.714 548.346 401.051 546.474 399.806C544.603 398.561 543.142 396.791 542.276 394.717C541.635 393.166 541.347 391.493 541.432 389.818C541.516 388.143 541.971 386.507 542.765 385.029C543.558 383.551 544.67 382.268 546.019 381.272C547.369 380.275 548.923 379.591 550.569 379.269C552.774 378.83 555.059 379.053 557.137 379.91C559.215 380.766 560.994 382.218 562.249 384.083C563.714 386.258 564.373 388.876 564.111 391.486C563.849 394.095 562.684 396.531 560.817 398.372C558.682 400.494 555.798 401.692 552.787 401.707L552.791 401.711ZM592.744 373.261C588.225 373.266 583.806 371.934 580.044 369.431C576.281 366.929 573.344 363.368 571.601 359.199C570.313 356.081 569.733 352.716 569.904 349.347C570.074 345.978 570.99 342.689 572.585 339.717C574.181 336.745 576.416 334.164 579.13 332.161C581.844 330.158 584.969 328.782 588.28 328.133C592.714 327.252 597.31 327.702 601.49 329.425C605.67 331.149 609.247 334.07 611.771 337.821C613.646 340.624 614.875 343.808 615.369 347.144C615.863 350.481 615.609 353.885 614.627 357.111C613.644 360.337 611.957 363.304 609.687 365.799C607.417 368.293 604.621 370.251 601.502 371.533C598.723 372.675 595.748 373.262 592.744 373.26V373.261Z" fill="black"/>
</g>
<g filter="url(#filter9_d_506_58)">
<path d="M330.87 328C335.389 327.995 339.808 329.327 343.57 331.83C347.333 334.332 350.27 337.893 352.012 342.062C353.301 345.18 353.881 348.545 353.711 351.914C353.541 355.283 352.625 358.572 351.03 361.544C349.434 364.517 347.199 367.098 344.485 369.101C341.771 371.104 338.646 372.48 335.335 373.129C330.901 374.011 326.304 373.561 322.124 371.837C317.944 370.113 314.367 367.192 311.843 363.44C309.968 360.637 308.739 357.453 308.245 354.117C307.752 350.781 308.005 347.377 308.988 344.151C309.971 340.925 311.658 337.958 313.927 335.464C316.197 332.97 318.993 331.011 322.112 329.729C324.89 328.585 327.865 327.998 330.87 328Z" fill="white"/>
</g>
<g filter="url(#filter10_d_506_58)">
<path d="M290.508 379.001C292.75 379.024 294.935 379.708 296.789 380.968C298.643 382.228 300.083 384.007 300.929 386.083C301.771 388.156 301.978 390.431 301.525 392.622C301.071 394.812 299.978 396.818 298.383 398.387C296.79 399.966 294.765 401.039 292.563 401.471C290.362 401.902 288.082 401.673 286.01 400.812C283.938 399.951 282.167 398.497 280.92 396.632C279.673 394.767 279.005 392.576 279 390.332C278.994 388.069 279.668 385.857 280.935 383.982C282.201 382.107 284.002 380.656 286.103 379.817C287.503 379.256 289 378.979 290.508 379.001Z" fill="white"/>
</g>
<g filter="url(#filter11_d_506_58)">
<path d="M319.14 424.501C330.426 424.513 341.462 421.184 350.858 414.933C360.254 408.682 367.589 399.789 371.938 389.375C375.156 381.589 376.605 373.186 376.18 364.772C375.756 356.358 373.469 348.143 369.484 340.721C365.499 333.298 359.916 326.852 353.138 321.849C346.36 316.846 338.556 313.41 330.289 311.79C319.214 309.589 307.736 310.713 297.297 315.018C286.859 319.323 277.927 326.619 271.623 335.987C266.936 342.986 263.863 350.94 262.627 359.272C261.391 367.605 262.023 376.108 264.476 384.167C266.93 392.225 271.145 399.637 276.815 405.867C282.485 412.097 289.469 416.988 297.262 420.187C304.202 423.044 311.635 424.51 319.14 424.501ZM330.646 327.819C335.165 327.814 339.584 329.147 343.346 331.649C347.109 334.152 350.046 337.712 351.789 341.881C353.077 344.999 353.657 348.364 353.487 351.733C353.317 355.102 352.401 358.392 350.806 361.364C349.21 364.336 346.974 366.917 344.26 368.921C341.546 370.924 338.421 372.3 335.111 372.949C330.676 373.83 326.08 373.38 321.9 371.656C317.72 369.932 314.143 367.011 311.619 363.26C309.744 360.457 308.515 357.272 308.022 353.936C307.528 350.6 307.782 347.196 308.764 343.97C309.747 340.744 311.434 337.777 313.704 335.283C315.974 332.789 318.769 330.83 321.888 329.548C324.666 328.404 327.642 327.816 330.646 327.818V327.819ZM290.692 378.931C292.933 378.953 295.118 379.637 296.972 380.897C298.826 382.157 300.266 383.936 301.113 386.011C301.739 387.563 302.014 389.234 301.918 390.905C301.822 392.576 301.356 394.204 300.556 395.674C299.755 397.143 298.639 398.417 297.287 399.404C295.936 400.391 294.383 401.066 292.739 401.381C291.095 401.706 289.399 401.663 287.773 401.255C286.147 400.847 284.632 400.084 283.336 399.02C282.04 397.957 280.996 396.621 280.278 395.106C279.56 393.591 279.186 391.936 279.184 390.26C279.182 388.757 279.481 387.269 280.06 385.883C280.64 384.496 281.49 383.239 282.561 382.184C283.632 381.13 284.902 380.299 286.298 379.74C287.693 379.182 289.185 378.907 290.688 378.931H290.692Z" fill="black"/>
</g>
<defs>
<filter id="filter0_i_506_58" x="0" y="0" width="900" height="900" filterUnits="userSpaceOnUse" color-interpolation-filters="sRGB">
<feFlood flood-opacity="0" result="BackgroundImageFix"/>
<feBlend mode="normal" in="SourceGraphic" in2="BackgroundImageFix" result="shape"/>
<feColorMatrix in="SourceAlpha" type="matrix" values="0 0 0 0 0 0 0 0 0 0 0 0 0 0 0 0 0 0 127 0" result="hardAlpha"/>
<feOffset/>
<feGaussianBlur stdDeviation="33.5"/>
<feComposite in2="hardAlpha" operator="arithmetic" k2="-1" k3="1"/>
<feColorMatrix type="matrix" values="0 0 0 0 0.766667 0 0 0 0 0.696389 0 0 0 0 0.696389 0 0 0 1 0"/>
<feBlend mode="normal" in2="shape" result="effect1_innerShadow_506_58"/>
</filter>
<filter id="filter1_d_506_58" x="255.912" y="496.246" width="403.825" height="70.2678" filterUnits="userSpaceOnUse" color-interpolation-filters="sRGB">
<feFlood flood-opacity="0" result="BackgroundImageFix"/>
<feColorMatrix in="SourceAlpha" type="matrix" values="0 0 0 0 0 0 0 0 0 0 0 0 0 0 0 0 0 0 127 0" result="hardAlpha"/>
<feOffset dx="8" dy="9"/>
<feGaussianBlur stdDeviation="5.5"/>
<feComposite in2="hardAlpha" operator="out"/>
<feColorMatrix type="matrix" values="0 0 0 0 0 0 0 0 0 0 0 0 0 0 0 0 0 0 0.25 0"/>
<feBlend mode="normal" in2="BackgroundImageFix" result="effect1_dropShadow_506_58"/>
<feBlend mode="normal" in="SourceGraphic" in2="effect1_dropShadow_506_58" result="shape"/>
</filter>
<filter id="filter2_i_506_58" x="293.714" y="608.472" width="313.976" height="85.8641" filterUnits="userSpaceOnUse" color-interpolation-filters="sRGB">
<feFlood flood-opacity="0" result="BackgroundImageFix"/>
<feBlend mode="normal" in="SourceGraphic" in2="BackgroundImageFix" result="shape"/>
<feColorMatrix in="SourceAlpha" type="matrix" values="0 0 0 0 0 0 0 0 0 0 0 0 0 0 0 0 0 0 127 0" result="hardAlpha"/>
<feOffset dy="8"/>
<feGaussianBlur stdDeviation="5.5"/>
<feComposite in2="hardAlpha" operator="arithmetic" k2="-1" k3="1"/>
<feColorMatrix type="matrix" values="0 0 0 0 0 0 0 0 0 0 0 0 0 0 0 0 0 0 0.25 0"/>
<feBlend mode="normal" in2="shape" result="effect1_innerShadow_506_58"/>
</filter>
<filter id="filter3_d_506_58" x="199.537" y="249.85" width="254.436" height="254.473" filterUnits="userSpaceOnUse" color-interpolation-filters="sRGB">
<feFlood flood-opacity="0" result="BackgroundImageFix"/>
<feColorMatrix in="SourceAlpha" type="matrix" values="0 0 0 0 0 0 0 0 0 0 0 0 0 0 0 0 0 0 127 0" result="hardAlpha"/>
<feOffset dx="8" dy="9"/>
<feGaussianBlur stdDeviation="5.5"/>
<feComposite in2="hardAlpha" operator="out"/>
<feColorMatrix type="matrix" values="0 0 0 0 1 0 0 0 0 0.948333 0 0 0 0 0.483333 0 0 0 0.25 0"/>
<feBlend mode="normal" in2="BackgroundImageFix" result="effect1_dropShadow_506_58"/>
<feBlend mode="normal" in="SourceGraphic" in2="effect1_dropShadow_506_58" result="shape"/>
</filter>
<filter id="filter4_d_506_58" x="461.777" y="249.85" width="254.957" height="254.077" filterUnits="userSpaceOnUse" color-interpolation-filters="sRGB">
<feFlood flood-opacity="0" result="BackgroundImageFix"/>
<feColorMatrix in="SourceAlpha" type="matrix" values="0 0 0 0 0 0 0 0 0 0 0 0 0 0 0 0 0 0 127 0" result="hardAlpha"/>
<feOffset dx="8" dy="9"/>
<feGaussianBlur stdDeviation="5.5"/>
<feComposite in2="hardAlpha" operator="out"/>
<feColorMatrix type="matrix" values="0 0 0 0 1 0 0 0 0 0.948333 0 0 0 0 0.483333 0 0 0 0.25 0"/>
<feBlend mode="normal" in2="BackgroundImageFix" result="effect1_dropShadow_506_58"/>
<feBlend mode="normal" in="SourceGraphic" in2="effect1_dropShadow_506_58" result="shape"/>
</filter>
<filter id="filter5_d_506_58" x="137" y="103" width="605.99" height="685.149" filterUnits="userSpaceOnUse" color-interpolation-filters="sRGB">
<feFlood flood-opacity="0" result="BackgroundImageFix"/>
<feColorMatrix in="SourceAlpha" type="matrix" values="0 0 0 0 0 0 0 0 0 0 0 0 0 0 0 0 0 0 127 0" result="hardAlpha"/>
<feOffset dx="-10" dy="-4"/>
<feGaussianBlur stdDeviation="12"/>
<feComposite in2="hardAlpha" operator="out"/>
<feColorMatrix type="matrix" values="0 0 0 0 0 0 0 0 0 0 0 0 0 0 0 0 0 0 0.25 0"/>
<feBlend mode="normal" in2="BackgroundImageFix" result="effect1_dropShadow_506_58"/>
<feBlend mode="normal" in="SourceGraphic" in2="effect1_dropShadow_506_58" result="shape"/>
</filter>
<filter id="filter6_d_506_58" x="565.04" y="325.814" width="67.7397" height="67.5688" filterUnits="userSpaceOnUse" color-interpolation-filters="sRGB">
<feFlood flood-opacity="0" result="BackgroundImageFix"/>
<feColorMatrix in="SourceAlpha" type="matrix" values="0 0 0 0 0 0 0 0 0 0 0 0 0 0 0 0 0 0 127 0" result="hardAlpha"/>
<feOffset dx="8" dy="9"/>
<feGaussianBlur stdDeviation="5.5"/>
<feComposite in2="hardAlpha" operator="out"/>
<feColorMatrix type="matrix" values="0 0 0 0 0 0 0 0 0 0 0 0 0 0 0 0 0 0 0.25 0"/>
<feBlend mode="normal" in2="BackgroundImageFix" result="effect1_dropShadow_506_58"/>
<feBlend mode="normal" in="SourceGraphic" in2="effect1_dropShadow_506_58" result="shape"/>
</filter>
<filter id="filter7_d_506_58" x="536.454" y="376.923" width="44.7544" height="44.747" filterUnits="userSpaceOnUse" color-interpolation-filters="sRGB">
<feFlood flood-opacity="0" result="BackgroundImageFix"/>
<feColorMatrix in="SourceAlpha" type="matrix" values="0 0 0 0 0 0 0 0 0 0 0 0 0 0 0 0 0 0 127 0" result="hardAlpha"/>
<feOffset dx="8" dy="9"/>
<feGaussianBlur stdDeviation="5.5"/>
<feComposite in2="hardAlpha" operator="out"/>
<feColorMatrix type="matrix" values="0 0 0 0 0 0 0 0 0 0 0 0 0 0 0 0 0 0 0.25 0"/>
<feBlend mode="normal" in2="BackgroundImageFix" result="effect1_dropShadow_506_58"/>
<feBlend mode="normal" in="SourceGraphic" in2="effect1_dropShadow_506_58" result="shape"/>
</filter>
<filter id="filter8_d_506_58" x="521.252" y="308.692" width="136.242" height="135.81" filterUnits="userSpaceOnUse" color-interpolation-filters="sRGB">
<feFlood flood-opacity="0" result="BackgroundImageFix"/>
<feColorMatrix in="SourceAlpha" type="matrix" values="0 0 0 0 0 0 0 0 0 0 0 0 0 0 0 0 0 0 127 0" result="hardAlpha"/>
<feOffset dx="8" dy="9"/>
<feGaussianBlur stdDeviation="5.5"/>
<feComposite in2="hardAlpha" operator="out"/>
<feColorMatrix type="matrix" values="0 0 0 0 0 0 0 0 0 0 0 0 0 0 0 0 0 0 0.25 0"/>
<feBlend mode="normal" in2="BackgroundImageFix" result="effect1_dropShadow_506_58"/>
<feBlend mode="normal" in="SourceGraphic" in2="effect1_dropShadow_506_58" result="shape"/>
</filter>
<filter id="filter9_d_506_58" x="305" y="326" width="67.7397" height="67.5691" filterUnits="userSpaceOnUse" color-interpolation-filters="sRGB">
<feFlood flood-opacity="0" result="BackgroundImageFix"/>
<feColorMatrix in="SourceAlpha" type="matrix" values="0 0 0 0 0 0 0 0 0 0 0 0 0 0 0 0 0 0 127 0" result="hardAlpha"/>
<feOffset dx="8" dy="9"/>
<feGaussianBlur stdDeviation="5.5"/>
<feComposite in2="hardAlpha" operator="out"/>
<feColorMatrix type="matrix" values="0 0 0 0 0 0 0 0 0 0 0 0 0 0 0 0 0 0 0.25 0"/>
<feBlend mode="normal" in2="BackgroundImageFix" result="effect1_dropShadow_506_58"/>
<feBlend mode="normal" in="SourceGraphic" in2="effect1_dropShadow_506_58" result="shape"/>
</filter>
<filter id="filter10_d_506_58" x="276" y="377" width="44.7588" height="44.683" filterUnits="userSpaceOnUse" color-interpolation-filters="sRGB">
<feFlood flood-opacity="0" result="BackgroundImageFix"/>
<feColorMatrix in="SourceAlpha" type="matrix" values="0 0 0 0 0 0 0 0 0 0 0 0 0 0 0 0 0 0 127 0" result="hardAlpha"/>
<feOffset dx="8" dy="9"/>
<feGaussianBlur stdDeviation="5.5"/>
<feComposite in2="hardAlpha" operator="out"/>
<feColorMatrix type="matrix" values="0 0 0 0 0 0 0 0 0 0 0 0 0 0 0 0 0 0 0.25 0"/>
<feBlend mode="normal" in2="BackgroundImageFix" result="effect1_dropShadow_506_58"/>
<feBlend mode="normal" in="SourceGraphic" in2="effect1_dropShadow_506_58" result="shape"/>
</filter>
<filter id="filter11_d_506_58" x="259.012" y="308.692" width="136.241" height="135.809" filterUnits="userSpaceOnUse" color-interpolation-filters="sRGB">
<feFlood flood-opacity="0" result="BackgroundImageFix"/>
<feColorMatrix in="SourceAlpha" type="matrix" values="0 0 0 0 0 0 0 0 0 0 0 0 0 0 0 0 0 0 127 0" result="hardAlpha"/>
<feOffset dx="8" dy="9"/>
<feGaussianBlur stdDeviation="5.5"/>
<feComposite in2="hardAlpha" operator="out"/>
<feColorMatrix type="matrix" values="0 0 0 0 0 0 0 0 0 0 0 0 0 0 0 0 0 0 0.25 0"/>
<feBlend mode="normal" in2="BackgroundImageFix" result="effect1_dropShadow_506_58"/>
<feBlend mode="normal" in="SourceGraphic" in2="effect1_dropShadow_506_58" result="shape"/>
</filter>
<linearGradient id="paint0_linear_506_58" x1="-50" y1="6.78096e-06" x2="961" y2="944.5" gradientUnits="userSpaceOnUse">
<stop stop-color="#4737FF"/>
<stop offset="1" stop-color="#3AAFF2"/>
</linearGradient>
<radialGradient id="paint1_radial_506_58" cx="0" cy="0" r="1" gradientUnits="userSpaceOnUse" gradientTransform="translate(450 411) rotate(90) scale(489)">
<stop stop-color="white"/>
<stop offset="1" stop-color="white" stop-opacity="0"/>
</radialGradient>
<linearGradient id="paint2_linear_506_58" x1="171.5" y1="200.5" x2="750.5" y2="832.5" gradientUnits="userSpaceOnUse">
<stop offset="0.0933229" stop-color="#FD7529"/>
<stop offset="1" stop-color="#FFAA2B"/>
</linearGradient>
</defs>
</svg>
