<svg width="40" height="40" viewBox="0 0 40 40" fill="none" xmlns="http://www.w3.org/2000/svg">
<path d="M23.19 24.2999C22.9228 24.3651 22.6538 24.4229 22.3833 24.4732C20.9157 24.7495 19.4089 24.7438 17.9433 24.4566C17.6867 24.4066 17.3233 24.3182 16.855 24.1932L15.32 26.1882C11.5317 26.0666 10.0917 23.5282 10.0917 23.5282C10.0917 17.8932 12.56 13.3249 12.56 13.3249C15.0283 11.4366 17.3767 11.4883 17.3767 11.4883L18.0483 12.3633C18.1102 12.3546 18.1725 12.349 18.235 12.3466C19.5153 12.1769 20.8128 12.1825 22.0917 12.3633L22.8283 11.4883C22.8283 11.4883 25.1783 11.4366 27.645 13.3266C27.645 13.3266 30.115 17.8932 30.115 23.5282C30.115 23.5282 28.6567 26.0649 24.8683 26.1882L23.19 24.2983V24.2999ZM16.7933 18.3333C15.7917 18.3333 15 19.0833 15 19.9999C15 20.9166 15.8083 21.6666 16.7933 21.6666C17.7933 21.6666 18.585 20.9166 18.585 19.9999C18.6017 19.0833 17.795 18.3333 16.7933 18.3333ZM23.2067 18.3333C22.2067 18.3333 21.415 19.0833 21.415 19.9999C21.415 20.9166 22.2233 21.6666 23.2067 21.6666C24.2083 21.6666 25 20.9166 25 19.9999C25 19.0833 24.2083 18.3333 23.2067 18.3333ZM35 38.3332L26.6833 29.9999H31.6667V6.66658H8.33333V29.9999H26.6717L27.6217 33.3332H8.33333C7.44928 33.3332 6.60143 32.9821 5.97631 32.3569C5.35119 31.7318 5 30.884 5 29.9999V6.66658C5 5.78253 5.35119 4.93468 5.97631 4.30956C6.60143 3.68444 7.44928 3.33325 8.33333 3.33325H31.6667C32.5507 3.33325 33.3986 3.68444 34.0237 4.30956C34.6488 4.93468 35 5.78253 35 6.66658V38.3332Z" fill="#4A51FF"/>
</svg>
