<svg width="40" height="40" viewBox="0 0 40 40" fill="none" xmlns="http://www.w3.org/2000/svg">
<path d="M20 3.33325C10.7917 3.33325 3.33338 10.7916 3.33338 19.9999C3.33149 23.4987 4.4314 26.9093 6.47707 29.7477C8.52274 32.5862 11.4103 34.7084 14.73 35.8133C15.5634 35.9583 15.875 35.4583 15.875 35.0199C15.875 34.6249 15.8534 33.3133 15.8534 31.9166C11.6667 32.6883 10.5834 30.8966 10.25 29.9583C10.0617 29.4783 9.25004 27.9999 8.54171 27.6033C7.95838 27.2916 7.12504 26.5199 8.52004 26.4999C9.83338 26.4783 10.77 27.7083 11.0834 28.2083C12.5834 30.7283 14.98 30.0199 15.9367 29.5833C16.0834 28.4999 16.52 27.7716 17 27.3549C13.2917 26.9383 9.41671 25.4999 9.41671 19.1249C9.41671 17.3116 10.0617 15.8133 11.125 14.6449C10.9584 14.2283 10.375 12.5199 11.2917 10.2283C11.2917 10.2283 12.6867 9.79159 15.875 11.9383C17.2318 11.5617 18.6337 11.3722 20.0417 11.3749C21.4584 11.3749 22.875 11.5616 24.2084 11.9366C27.395 9.76992 28.7917 10.2299 28.7917 10.2299C29.7084 12.5216 29.125 14.2299 28.9584 14.6466C30.02 15.8133 30.6667 17.2916 30.6667 19.1249C30.6667 25.5216 26.7717 26.9383 23.0634 27.3549C23.6667 27.8749 24.1884 28.8749 24.1884 30.4383C24.1884 32.6666 24.1667 34.4583 24.1667 35.0216C24.1667 35.4583 24.48 35.9783 25.3134 35.8116C28.6218 34.6946 31.4966 32.5682 33.5332 29.7318C35.5699 26.8954 36.6658 23.4918 36.6667 19.9999C36.6667 10.7916 29.2084 3.33325 20 3.33325Z" fill="black"/>
</svg>
