<svg width="40" height="40" viewBox="0 0 40 40" fill="none" xmlns="http://www.w3.org/2000/svg">
<path d="M20 3.33325C29.205 3.33325 36.6667 10.7949 36.6667 19.9999C36.6667 27.3333 31.9317 33.5599 25.3517 35.7882L24.975 35.9116L20.135 23.3283C21.9167 23.2499 23.3334 21.7566 23.3334 19.9999C23.3334 18.1583 21.8417 16.6666 20 16.6666C18.1584 16.6666 16.6667 18.1583 16.6667 19.9999C16.6667 21.7949 18.085 23.2583 19.8617 23.3299L15.0234 35.9116L14.6484 35.7882C8.06671 33.5599 3.33337 27.3333 3.33337 19.9999C3.33337 10.7949 10.795 3.33325 20 3.33325ZM20 6.66659C12.6367 6.66659 6.66671 12.6366 6.66671 19.9999C6.66671 24.8666 9.27337 29.1249 13.1684 31.4533L15.635 25.0383C14.2234 23.8166 13.3334 22.0116 13.3334 19.9999C13.3334 16.3166 16.3167 13.3333 20 13.3333C23.6834 13.3333 26.6667 16.3166 26.6667 19.9999C26.6667 22.0116 25.775 23.8166 24.3667 25.0383C25.3084 27.4949 26.1317 29.6332 26.8317 31.4549C30.725 29.1249 33.3334 24.8666 33.3334 19.9999C33.3334 12.6366 27.3634 6.66659 20 6.66659Z" fill="#289A00"/>
</svg>
