<svg width="40" height="40" viewBox="0 0 40 40" fill="none" xmlns="http://www.w3.org/2000/svg">
<path d="M25.5001 9.25003C24.2334 9.24982 23.0172 9.7469 22.1132 10.6343C21.2093 11.5217 20.6899 12.7285 20.6667 13.995L20.6201 16.62C20.6173 16.761 20.5848 16.8997 20.5247 17.0272C20.4646 17.1547 20.3782 17.2681 20.2711 17.3598C20.1641 17.4516 20.0389 17.5197 19.9037 17.5596C19.7685 17.5996 19.6264 17.6105 19.4867 17.5917L16.8851 17.2384C13.4617 16.7717 10.1817 15.195 7.03507 12.5734C6.03841 18.09 7.98507 21.9117 12.6734 24.86L15.5851 26.69C15.7234 26.777 15.8384 26.8965 15.9198 27.0381C16.0013 27.1798 16.0468 27.3392 16.0524 27.5025C16.058 27.6658 16.0235 27.828 15.9519 27.9749C15.8803 28.1217 15.7738 28.2488 15.6417 28.345L12.9884 30.2834C14.5667 30.3817 16.0651 30.3117 17.3084 30.065C25.1717 28.495 30.4001 22.5784 30.4001 12.8184C30.4001 12.0217 28.7134 9.25003 25.5001 9.25003ZM17.3334 13.9334C17.3625 12.3268 17.8649 10.7645 18.7777 9.44206C19.6905 8.11965 20.9731 7.09589 22.4649 6.49897C23.9568 5.90205 25.5916 5.75849 27.1646 6.08627C28.7377 6.41405 30.1791 7.1986 31.3084 8.34169C32.4934 8.33336 33.5017 8.63336 35.7567 7.2667C35.1984 10 34.9234 11.1867 33.7334 12.8184C33.7334 25.555 25.9051 31.7484 17.9617 33.3334C12.5151 34.42 4.59507 32.635 2.32507 30.265C3.48174 30.175 8.18174 29.67 10.8984 27.6817C8.60007 26.1667 -0.54826 20.7834 5.46341 6.31003C8.28507 9.60503 11.1467 11.8484 14.0467 13.0384C15.9767 13.83 16.4501 13.8134 17.3351 13.935L17.3334 13.9334Z" fill="#00A3FF"/>
</svg>
