<svg xmlns="http://www.w3.org/2000/svg" xmlns:xlink="http://www.w3.org/1999/xlink" width="731.564" height="388.166" viewBox="0 0 731.564 388.166">
  <defs>
    <linearGradient id="linear-gradient" x1="0.5" y1="1" x2="0.5" gradientUnits="objectBoundingBox">
      <stop offset="0" stop-color="gray" stop-opacity="0.251"/>
      <stop offset="0.54" stop-color="gray" stop-opacity="0.122"/>
      <stop offset="1" stop-color="gray" stop-opacity="0.102"/>
    </linearGradient>
  </defs>
  <g id="undraw_community_8nwl_1_" data-name="undraw_community_8nwl (1)" transform="translate(-0.001 -0.051)">
    <path id="Path_417" data-name="Path 417" d="M75.511,208.347c1.185,7.52,4.214,14.783,4.241,22.388.1,24.851-30.053,40.114-34.669,64.53-2.739,14.486,4.359,29.289,14.368,40.095s22.77,18.6,34.524,27.485A221.069,221.069,0,0,1,166.4,458.653c2.97,7.638,5.525,15.514,6.367,23.666.612,5.926.323,11.991,1.712,17.779,5.5,22.974,33.378,31.89,56.951,33.378a249.759,249.759,0,0,0,111.111-18.556c7.9-3.292,16.06-7.032,24.541-6.1,6.782.744,12.834,4.412,18.786,7.75a249.188,249.188,0,0,0,55.562,22.875c10.733,2.963,22,5.215,32.963,3.292,32.924-5.808,50.419-45.738,82.724-54.469,22.349-6.038,45.606,4.511,65.65,16.093s40.733,24.923,63.872,24.956c30.869.039,56.247-23.323,77.186-46,4.392-4.761,8.856-9.739,10.951-15.869,4.247-12.445-2.634-26.425-12.807-34.787s-23-12.511-35.255-17.292A305.7,305.7,0,0,1,667.6,384.5c-11.984-8.033-23.593-17.12-31.791-28.973-7.052-10.22-11.286-22.065-16.014-33.549-10.364-25.147-25.022-50.7-49.5-62.5-19.985-9.64-43.2-8.56-65.38-8.817-32.687-.362-66.2-4.293-95.182-19.412-24.475-12.768-44.579-32.924-69.416-44.994-39.508-19.181-84.673-15.421-127.244-14.7-20.459.349-44.776,2.39-64.425-4.313-14.533-4.958-22.013-15.092-38.705-11.01C87.12,161.793,71.863,185.149,75.511,208.347Z" transform="translate(-44.49 -155.23)" fill="#ed664c" opacity="0.1"/>
    <path id="Path_418" data-name="Path 418" d="M697.74,412.508a16.462,16.462,0,0,1,.309-10.443c1.975-5.11,6.789-8.8,8.481-14.019,3.148-9.7-5.334-18.78-10.536-27.57a46.3,46.3,0,0,1-6.2-27c.81-10.114,4.952-19.787,5.268-29.928.283-9.449-2.779-18.641-5.8-27.6-2.5-7.4-5.037-14.888-9.258-21.46-7.981-12.425-22.158-20.235-36.736-21.526-6.881-.612-13.611,1.626-20.373.751-9.39-1.212-18.266-3.648-27.84-3.951-9.094-.27-19.148.882-25.345,7.546-4.734,5.1-6.249,12.472-10.582,17.924-6.15,7.737-16.9,10.391-23.705,17.555a24.87,24.87,0,0,0-5.617,23.988c.942,3.055,2.482,5.893,3.483,8.929,4.208,12.682-1.317,26.247-4.655,39.179a5.927,5.927,0,0,0-.2,3.292c.527,1.58,2.186,2.41,3.562,3.345,4.5,3.068,6.8,8.626,7.243,14.058s-.817,10.845-2.054,16.152c-3.154,13.492-7.1,27.946-17.5,36.921a94.979,94.979,0,0,0-6.677-13.011c-6.361-10.312-11.069-23.047-11.148-35.235a.455.455,0,0,1,0-.112c0-.658.033-1.317.072-1.975.823-14.381,7.039-28.255,6.9-42.57q0-1.738-.1-3.483c-.81-12.254-6.7-23.587-13.446-33.846-5.037-7.658-10.713-15.053-17.983-20.63-11.24-8.554-25.522-12.267-39.554-14.23s-26.8-3.806-40.944-4.754c-15.211-1.021-31.949-1.594-43.973,7.77-15.678,12.208-16.547,35.788-28.5,51.657-7.112,9.443-18.437,16.738-22.184,27.465a66.318,66.318,0,0,1-2.529-8.066c-.04-.184-.079-.362-.119-.547a78.517,78.517,0,0,0,3.049-40.318,49.614,49.614,0,0,0,.454-6.585,25.93,25.93,0,0,0-.77-7.118c-1.692-6.414-6.361-11.543-10.871-16.409a48.15,48.15,0,0,0-5.334-5.169,78.174,78.174,0,0,0-133.3,77.7,20.466,20.466,0,0,1-5.511,12.024c-1.455,1.442-3.338,3.246-3.022,5.09a2.482,2.482,0,0,0,.211,1.547,4.333,4.333,0,0,0,1.317,1.442A23.7,23.7,0,0,0,161.86,354.1a67.428,67.428,0,0,0,27.155,34.86q0,.658-.046,1.277c0,.731-.059,1.455-.092,2.193v.3c0-.066-22.928,29.888-44.118,31-11.313.593-21.183,8.224-28.663,16.949-8.982,10.47-14.526,22.507-15,25.839-.876,6.111-6.986,35.808-6.986,35.808H270.146c-2.081,10.694-4.886,24.318-4.886,24.318H550.242c-.659-9.159-1.389-17.627-2.068-24.8H584l-.04.217H749.239l10.483-15.731C757.121,440.5,730.084,415.3,697.74,412.508Zm-411.48-51.2a42.7,42.7,0,0,0,11.853,4.267c1.8.369,3.806.6,5.34-.408a6.137,6.137,0,0,0,2.153-3.049l.079.2c4.445,11.194,8.56,22.744,9.357,34.767.072,1.133.118,2.265.125,3.4a49.241,49.241,0,0,1-4.155,19.925,384.077,384.077,0,0,1-42.979-26.339l-.928-.4c0,.072.323.9.7,2.285.092.336.191.7.29,1.1-.942-3.042-1.8-6.15-2.548-9.317l-.257-1.126a67.514,67.514,0,0,0,20.966-25.312Z" transform="translate(-61.436 -178.384)" fill="url(#linear-gradient)"/>
    <path id="Path_419" data-name="Path 419" d="M238,480.488v0Z" transform="translate(-110.578 -266.15)" fill="#fff"/>
    <path id="Path_420" data-name="Path 420" d="M237.93,479.828v0Z" transform="translate(-110.555 -265.918)" fill="#fff"/>
    <path id="Path_421" data-name="Path 421" d="M237.88,479.07Z" transform="translate(-110.537 -265.812)" fill="#fff"/>
    <path id="Path_422" data-name="Path 422" d="M237.89,479.38Z" transform="translate(-110.541 -265.918)" fill="#fff"/>
    <path id="Path_423" data-name="Path 423" d="M237.88,479.22Z" transform="translate(-110.537 -265.863)" fill="#fff"/>
    <path id="Path_424" data-name="Path 424" d="M805.189,236.761c-8.949-.27-18.852.869-24.943,7.428-4.662,5.018-6.15,12.274-10.417,17.641-6.051,7.619-16.633,10.226-23.336,17.278a24.482,24.482,0,0,0-5.531,23.613c.928,3,2.443,5.8,3.431,8.784,4.142,12.511-1.264,25.832-4.609,38.56a5.8,5.8,0,0,0-.191,3.253c.514,1.554,2.153,2.371,3.5,3.292,4.432,3.022,6.7,8.488,7.1,13.828s-.8,10.674-2.021,15.9c-3.233,13.828-7.316,28.716-18.543,37.428-4.741,3.72-11.076,6.736-12.314,12.662-1.449,6.94,5.176,12.84,11.53,15.981,18.655,9.219,40.312,9.35,60.718,13.459,17.97,3.622,35.893,10.483,54.081,8.139,8.106-1.04,15.856-3.892,23.527-6.716l47.766-17.6a12.425,12.425,0,0,0,3.753-1.89c2.878-2.4,2.976-6.953,1.409-10.358s-4.412-6.012-6.914-8.8c-5.452-6.1-9.6-14.723-6.624-22.349,1.975-5.031,6.683-8.659,8.349-13.828,3.095-9.548-5.268-18.49-10.338-27.142a45.574,45.574,0,0,1-6.1-26.543c.8-9.956,4.873-19.478,5.169-29.46.277-9.3-2.733-18.345-5.709-27.162-2.456-7.283-4.958-14.651-9.113-21.124-7.856-12.228-21.809-19.912-36.163-21.19-6.776-.6-13.393,1.6-20.051.744C823.356,239.441,814.612,237.045,805.189,236.761Z" transform="translate(-274.208 -183.045)" fill="#f7d6c8"/>
    <path id="Path_425" data-name="Path 425" d="M849.535,553.347S795.382,519.4,816.44,480.256a60.39,60.39,0,0,0,7.467-25.424,54.931,54.931,0,0,0,0-6.183v-.3q-.105-1.593-.283-3.134A63.814,63.814,0,0,0,807.84,411.09s89.823-26.214,74.783-2.581c-6.98,10.97-4.892,21.73-.217,32.864.494,1.172,1.021,2.357,1.567,3.536,5.4,11.741,12.893,23.9,14.987,37.092C903.253,509.078,849.535,553.347,849.535,553.347Z" transform="translate(-305.193 -238.342)" fill="#efb7b9"/>
    <path id="Path_426" data-name="Path 426" d="M882.623,408.507c-6.98,10.97-4.892,21.73-.217,32.864a60.692,60.692,0,0,1-58.8,3.872,63.723,63.723,0,0,0-15.764-34.155S897.669,384.868,882.623,408.507Z" transform="translate(-305.193 -238.34)" opacity="0.1"/>
    <circle id="Ellipse_29" data-name="Ellipse 29" cx="60.599" cy="60.599" r="60.599" transform="translate(483.735 90.229)" fill="#efb7b9"/>
    <path id="Path_427" data-name="Path 427" d="M832.24,474.415v-.3l.072-.118A1.96,1.96,0,0,0,832.24,474.415Z" transform="translate(-313.527 -264.081)" opacity="0.1"/>
    <path id="Path_428" data-name="Path 428" d="M851.473,577.334s-54.153-33.951-33.095-73.091a60.391,60.391,0,0,0,7.467-25.424c1.231,9.666,7.9,21.684,20.044,38.317,5.268,7.243,7.533,17.371,8.251,27.491l1.205.876,5.926-3.582c.659-11.194,2.924-22.507,8.284-30.527,14.085-21.071,17.43-31.607,16.389-42.524,5.4,11.741,12.893,23.9,14.987,37.092C905.191,533.065,851.473,577.334,851.473,577.334Z" transform="translate(-307.132 -262.329)" opacity="0.1"/>
    <path id="Path_429" data-name="Path 429" d="M887.294,495.533c-32.265-2.344-52.678-27.393-52.678-27.393,1.719,11.734-1.073,22.237-16.119,44.776-5.327,7.994-7.586,19.287-8.244,30.507l-5.926,3.582-1.205-.876c-.718-10.114-2.976-20.255-8.251-27.491-15.04-20.63-21.73-34.168-19.985-44.914,0,0-16.547,26.859-48.78,29.012s-59.309,24.93-61.9,66.618l10.312,14.184H776.236l-.039.217H938.84l10.351-15.494C946.6,522.747,919.56,497.877,887.294,495.533Z" transform="translate(-256.14 -262.079)" fill="#ed664c"/>
    <path id="Path_430" data-name="Path 430" d="M887.294,495.533c-32.265-2.344-52.678-27.393-52.678-27.393,1.719,11.734-1.073,22.237-16.119,44.776-5.327,7.994-7.586,19.287-8.244,30.507l-5.926,3.582-1.205-.876c-.718-10.114-2.976-20.255-8.251-27.491-15.04-20.63-21.73-34.168-19.985-44.914,0,0-16.547,26.859-48.78,29.012s-59.309,24.93-61.9,66.618l10.312,14.184H776.236l-.039.217H938.84l10.351-15.494C946.6,522.747,919.56,497.877,887.294,495.533Z" transform="translate(-256.14 -262.079)" opacity="0.05"/>
    <path id="Path_431" data-name="Path 431" d="M878.238,317.547c-2.634,6.519-7.309,12.024-12.419,16.857-7.059,6.684-15.935,12.57-25.641,12.116a39.331,39.331,0,0,0,11.069-18.187c-6.124,3.569-10.753,9.219-16.6,13.242s-14.111,6.1-19.827,1.9a59.434,59.434,0,0,0,24.8-23.435c-13.881,3.6-21.005,19.234-33.51,26.253a38.015,38.015,0,0,1-19.432,4.385c-4.774-.1-10.094-1.212-12.755-5.176-1.554-2.3-1.916-5.2-1.975-7.987-.29-12.63,4.853-25.022,12.774-34.853s18.437-17.3,29.684-23.106c4-2.068,8.178-3.951,12.636-4.609,5.544-.8,11.194.375,16.633,1.626,7.072,1.62,14.184,3.4,20.7,6.585C878.278,290.036,884.349,302.507,878.238,317.547Z" transform="translate(-292.933 -196.008)" opacity="0.1"/>
    <path id="Path_432" data-name="Path 432" d="M878.238,316.237c-2.634,6.519-7.309,12.024-12.419,16.857-7.059,6.684-15.935,12.57-25.641,12.116a39.331,39.331,0,0,0,11.069-18.187c-6.124,3.569-10.753,9.219-16.6,13.242s-14.111,6.1-19.827,1.9a59.433,59.433,0,0,0,24.8-23.435c-13.881,3.6-21.005,19.234-33.51,26.253a38.014,38.014,0,0,1-19.432,4.385c-4.774-.1-10.094-1.212-12.755-5.176-1.554-2.3-1.916-5.2-1.975-7.987-.29-12.63,4.853-25.022,12.774-34.853s18.437-17.3,29.684-23.106c4-2.068,8.178-3.951,12.636-4.609,5.544-.8,11.194.375,16.633,1.626,7.072,1.62,14.184,3.4,20.7,6.585C878.278,288.713,884.349,301.2,878.238,316.237Z" transform="translate(-292.933 -195.561)" fill="#f7d6c8"/>
    <circle id="Ellipse_30" data-name="Ellipse 30" cx="76.93" cy="76.93" r="76.93" transform="translate(90.534 47.085)" fill="#c3705a"/>
    <path id="Path_433" data-name="Path 433" d="M342.468,503.014s-70.457,18.049-72.2,19.754-59.309,4.728-42.551-30.514c6.157-12.939,8.718-30.514,9.5-47.575.033-.724.066-1.442.092-2.16a351.418,351.418,0,0,0-2.706-55.134s81.651-32.265,75.639,16.765a102.44,102.44,0,0,0,2.469,35.972c.909,3.845,1.975,7.605,3.161,11.253A191.882,191.882,0,0,0,342.468,503.014Z" transform="translate(-106.023 -230.942)" fill="#ecb4b6"/>
    <path id="Path_434" data-name="Path 434" d="M317.848,440.143a66.2,66.2,0,0,1-75.4,2.4,351.419,351.419,0,0,0-2.706-55.134s81.651-32.265,75.639,16.765A102.731,102.731,0,0,0,317.848,440.143Z" transform="translate(-111.173 -230.948)" opacity="0.1"/>
    <circle id="Ellipse_31" data-name="Ellipse 31" cx="66.183" cy="66.183" r="66.183" transform="translate(101.063 88.556)" fill="#ecb4b6"/>
    <path id="Path_435" data-name="Path 435" d="M342.468,538.134s-70.457,18.049-72.2,19.754-59.309,4.728-42.551-30.514c6.157-12.939,8.718-30.514,9.5-47.575.658,8.916,5.755,30.507,6.407,37.691a6.259,6.259,0,0,0,.25,1.238c.955,3.194,4.359,6.875,8.461,10.364l.244.2a31.39,31.39,0,0,0,36.967,2.469,166.7,166.7,0,0,0,16.831-12.129c7.665-6.328,10.055-14.855,10.351-22.388a47.929,47.929,0,0,0-.856-10.786A191.768,191.768,0,0,0,342.468,538.134Z" transform="translate(-106.023 -266.061)" opacity="0.1"/>
    <path id="Path_436" data-name="Path 436" d="M389.543,588.158H102s6.018-29.223,6.874-35.242c.468-3.292,5.926-15.145,14.77-25.437,7.362-8.56,17.074-16.1,28.209-16.686,20.841-1.093,43.407-30.514,43.407-30.514h0c.5,8.56,5.781,30.915,6.446,38.251a6.262,6.262,0,0,0,.25,1.238c.955,3.194,4.359,6.874,8.461,10.364l.244.2a31.383,31.383,0,0,0,36.967,2.476,167.43,167.43,0,0,0,16.831-12.129c7.665-6.328,10.055-14.855,10.351-22.388a49.59,49.59,0,0,0-1.8-14.809,23.428,23.428,0,0,0-.7-2.245l.915.389s38.936,28.314,74.605,39.89a42.656,42.656,0,0,1,11.695,5.926,50.552,50.552,0,0,1,7.941,7.131,73.922,73.922,0,0,1,11.853,18.233A125.15,125.15,0,0,1,389.543,588.158Z" transform="translate(-64.131 -266.225)" fill="#ed664c"/>
    <path id="Path_437" data-name="Path 437" d="M389.543,588.158H102s6.018-29.223,6.874-35.242c.468-3.292,5.926-15.145,14.77-25.437,7.362-8.56,17.074-16.1,28.209-16.686,20.841-1.093,43.407-30.514,43.407-30.514h0c.5,8.56,5.781,30.915,6.446,38.251a6.262,6.262,0,0,0,.25,1.238c.955,3.194,4.359,6.874,8.461,10.364l.244.2a31.383,31.383,0,0,0,36.967,2.476,167.43,167.43,0,0,0,16.831-12.129c7.665-6.328,10.055-14.855,10.351-22.388a49.59,49.59,0,0,0-1.8-14.809,23.428,23.428,0,0,0-.7-2.245l.915.389s38.936,28.314,74.605,39.89a42.656,42.656,0,0,1,11.695,5.926,50.552,50.552,0,0,1,7.941,7.131,73.922,73.922,0,0,1,11.853,18.233A125.15,125.15,0,0,1,389.543,588.158Z" transform="translate(-64.131 -266.225)" opacity="0.05"/>
    <path id="Path_438" data-name="Path 438" d="M288.751,319.164c1.712,6.585,3.951,13.9,9.831,17.331a8.633,8.633,0,0,1,2.153,1.468c1.449,1.574,1.007,4.03.79,6.163-.751,7.322,2.4,14.743,7.559,19.991s12.149,8.455,19.359,9.93c1.765.362,3.747.593,5.268-.4a6.143,6.143,0,0,0,2.16-3.1c2.008-5.34,1.159-11.339-.52-16.791s-4.155-10.654-5.426-16.218c-3.022-13.2.981-26.846,2.785-40.272.6-4.464.948-9.067-.2-13.42-1.666-6.308-6.262-11.365-10.7-16.152-2.39-2.575-4.833-5.2-7.9-6.881-9.047-4.945-20.7-.553-30.356-4.155-3.865-1.442-7.151-4.076-10.832-5.926-7.816-3.951-17.081-4.168-25.648-2.371s-16.594,5.492-24.541,9.153l-6.078,2.752c-8.56,3.951-17.733,8.415-22.342,16.679-4.906,8.8-3.543,20.057-8.448,28.854-1.488,2.634-3.562,5.162-3.951,8.191a16.335,16.335,0,0,0,1.034,6.486c1.528,5.143,2.858,10.43,2.739,15.8s-1.831,10.878-5.637,14.658c-1.607,1.594-3.753,3.635-2.766,5.669a4.267,4.267,0,0,0,1.317,1.422,23.316,23.316,0,0,0,22.21,3.292,14.425,14.425,0,0,0,7.243-5.465,21.394,21.394,0,0,0,2.331-6.111c2.081-7.75,4.175-15.632,4.01-23.659-.092-4.609-.935-9.258-.263-13.828s3.338-9.278,7.783-10.536c3.292-.942,6.815.2,10.252.165,4.952-.04,11.023-5.531,15.612-3.918,3.951,1.4,7.079,8.955,10.345,11.853C266.2,317.215,277.767,321.081,288.751,319.164Z" transform="translate(-89.687 -186.649)" opacity="0.1"/>
    <path id="Path_439" data-name="Path 439" d="M288.778,317.837c1.712,6.585,3.951,13.9,9.831,17.331a8.631,8.631,0,0,1,2.127,1.435c1.449,1.574,1.007,4.03.79,6.163-.751,7.322,2.4,14.743,7.559,19.991s12.149,8.455,19.359,9.93c1.765.362,3.747.593,5.268-.4a6.143,6.143,0,0,0,2.16-3.1c2.008-5.34,1.159-11.339-.52-16.791s-4.155-10.654-5.426-16.218c-3.022-13.2.981-26.846,2.785-40.272.6-4.464.948-9.067-.2-13.42-1.666-6.308-6.262-11.365-10.7-16.152-2.39-2.575-4.833-5.2-7.9-6.881-9.047-4.945-20.7-.553-30.356-4.155-3.865-1.442-7.151-4.076-10.832-5.926-7.816-3.951-17.081-4.168-25.648-2.37s-16.594,5.492-24.541,9.153l-6,2.766c-8.56,3.951-17.733,8.415-22.342,16.679-4.906,8.8-3.543,20.057-8.448,28.854-1.488,2.634-3.562,5.162-3.951,8.191a16.335,16.335,0,0,0,1.034,6.486c1.528,5.143,2.858,10.43,2.739,15.8s-1.831,10.878-5.637,14.658c-1.607,1.594-3.753,3.635-2.766,5.669a4.267,4.267,0,0,0,1.317,1.422,23.317,23.317,0,0,0,22.21,3.292,14.425,14.425,0,0,0,7.243-5.465,21.394,21.394,0,0,0,2.331-6.111c2.081-7.75,4.175-15.632,4.01-23.659-.092-4.609-.935-9.258-.263-13.828s3.338-9.278,7.783-10.536c3.292-.942,6.815.2,10.252.165,4.952-.04,11.023-5.531,15.612-3.918,3.951,1.4,7.079,8.955,10.345,11.853C266.232,315.895,277.795,319.76,288.778,317.837Z" transform="translate(-89.715 -186.184)" fill="#c3705a"/>
    <rect id="Rectangle_46" data-name="Rectangle 46" width="150.856" height="129.364" transform="translate(268.677 159.763)" fill="#463a3e"/>
    <rect id="Rectangle_47" data-name="Rectangle 47" width="150.856" height="129.364" transform="translate(268.677 159.763)" opacity="0.05"/>
    <path id="Path_440" data-name="Path 440" d="M581.831,583.964H452.77c1.666-9.4,6.539-19.695,16.034-30.8a113.918,113.918,0,0,0,18.187-29.1q1.837-4.234,3.292-8.488a124.285,124.285,0,0,0,5.788-25.957,7.285,7.285,0,0,1,.086-.751,141.809,141.809,0,0,0,.8-18.385c0-.441,0-.869,0-1.317a167.533,167.533,0,0,0-7.408-44.394l-.165-.514c-1.4-4.418-2.43-6.9-2.43-6.9s2.561-1.389,6.789-3.437l.356-.171c15.547-7.467,52.349-23.047,68.574-11.945l.263.178c5.676,4.043,8.731,11.464,7.3,23.824v.145a6.508,6.508,0,0,1-.072.658,239.184,239.184,0,0,0-1.231,25.641c0,.428,0,.856,0,1.317q0,3.009.066,6.1v.83c.132,6.651.428,13.518.843,20.485.573,9.66,1.389,19.5,2.331,29.151.4,4.129.836,8.231,1.317,12.267.053.474.105.961.158,1.429.553,4.919,1.126,9.739,1.712,14.414l.039.3C577.636,557.112,580.112,573.323,581.831,583.964Z" transform="translate(-183.928 -238.103)" fill="#c17174"/>
    <path id="Path_441" data-name="Path 441" d="M587.9,425.847v.145a236.834,236.834,0,0,0-1.317,26.339c0,.428,0,.856,0,1.317a62.825,62.825,0,0,1-71.938,16.91V469.24a167.192,167.192,0,0,0-7.572-44.908c-1.4-4.418-2.43-6.9-2.43-6.9s2.561-1.389,6.789-3.437c15.4-7.441,52.961-23.508,69.173-11.971C586.271,406.066,589.326,413.487,587.9,425.847Z" transform="translate(-201.643 -238.118)" opacity="0.1"/>
    <circle id="Ellipse_32" data-name="Ellipse 32" cx="62.766" cy="62.766" r="62.766" transform="translate(274.604 110.477)" fill="#c17174"/>
    <path id="Path_442" data-name="Path 442" d="M492.441,640.969H358.54s6.018-29.223,6.874-35.242c.468-3.292,5.926-15.145,14.77-25.437a64.965,64.965,0,0,1,39.956-14.177c25.608-.382,33.062,8.435,35.083,14.954a14.6,14.6,0,0,1,.527,6.776l4.846,7.019Z" transform="translate(-151.746 -295.536)" opacity="0.1"/>
    <path id="Path_443" data-name="Path 443" d="M491.791,641.619H357.89s6.018-29.223,6.874-35.242c.467-3.292,5.926-15.145,14.77-25.437a64.965,64.965,0,0,1,39.956-14.177c25.608-.382,33.062,8.435,35.084,14.954a14.6,14.6,0,0,1,.527,6.776l4.846,7.019Z" transform="translate(-151.524 -295.758)" fill="#ed664c"/>
    <path id="Path_444" data-name="Path 444" d="M710.454,639.822H570.16c6.69-14.236,24.225-52.191,25.2-60.968.375-3.4,4-6.585,8.791-9.291a49.964,49.964,0,0,1,4.669-2.357l.29-.132q1.317-.58,2.667-1.073a53.442,53.442,0,0,1,37.533.3c11.517,4.379,26.339,10.279,37.876,15.8l.092.046c2.963,1.422,5.722,2.812,8.152,4.148,4.86,2.667,8.409,5.1,9.772,7.052.626.9,1.317,4.932,2.074,11.194C708.282,613.009,709.381,625.573,710.454,639.822Z" transform="translate(-224.02 -294.389)" opacity="0.1"/>
    <path id="Path_445" data-name="Path 445" d="M711.1,640.472H570.81c6.69-14.236,24.225-52.191,25.2-60.968.375-3.4,4-6.585,8.791-9.291a49.933,49.933,0,0,1,4.669-2.357l.29-.132q1.317-.58,2.667-1.073a53.442,53.442,0,0,1,37.533.3c11.517,4.379,26.339,10.279,37.875,15.8l.092.046c2.963,1.422,5.722,2.812,8.152,4.148,4.859,2.667,8.409,5.1,9.772,7.052.626.9,1.317,4.932,2.074,11.194C708.938,613.659,710.031,626.229,711.1,640.472Z" transform="translate(-224.242 -294.611)" fill="#ed664c"/>
    <path id="Path_446" data-name="Path 446" d="M615.91,469.931q0,3.036-.165,6.078-.092,1.482-.224,2.963c-.059.711-.132,1.416-.2,2.12l-.092.816c-1.073,9.574-3.055,19.1-3.292,28.716v1.363a119.847,119.847,0,0,0,3.4,26.787H534.536c-.132-1.64-.2-3.292-.178-4.919a43.172,43.172,0,0,1,.244-4.412c1.245-12.122,7.441-23.468,8.376-35.512l.04-.553c.059-.9.092-1.811.079-2.719v-.244a46.552,46.552,0,0,0-1.824-11.76l-.158-.573a118.445,118.445,0,0,0-3.951-11.194l-.29-.731c-2.193-5.479-4.5-10.911-6.058-16.357a43.523,43.523,0,0,1-1.9-12.511c0-.757.046-1.514.105-2.272.053-.619.125-1.238.217-1.863a29.222,29.222,0,0,1,.58-2.9c1.317-5.189,4.129-10.055,6.822-14.875h0c3-5.367,5.854-10.674,6.367-16.317a18.848,18.848,0,0,0,.072-2.147h0a18.917,18.917,0,0,0-.263-2.752c-.691-4-2.752-7.605-4.445-11.3-.171-.375-.342-.751-.507-1.133,0-.059-.053-.118-.072-.178-3.292-7.605-5.2-15.718-7.21-23.791-.086-.349-.171-.7-.263-1.04-.494-1.975-1-3.951-1.541-5.926-2.95-10.773-7.151-21.657-15.145-29.434s-20.742-11.714-30.751-6.763c-8.659,4.313-13.347,13.966-15.461,23.4s-2.285,19.274-5.031,28.545q-.3,1.014-.659,2.022c-.119.342-.237.658-.356,1.034a103.458,103.458,0,0,1-4.2,9.989l-.165.349c-5,10.648-10.819,21.111-11,31.811v1a27.593,27.593,0,0,0,1.146,7.507,37.4,37.4,0,0,0,6.479,11.853q.823,1.073,1.686,2.127c2.766,3.4,5.768,6.69,8.4,10.193l.086.112a41.658,41.658,0,0,1,5.024,8.382,30.6,30.6,0,0,1,.132,23.639,44.425,44.425,0,0,1-2.561,5.044c-1.692,2.924-3.556,5.768-5.024,8.81a32.908,32.908,0,0,0-1.317,3.115c-3.292,8.481-4,17.864-6.69,26.615a60.426,60.426,0,0,1-9.568,18.628h-85.6c.994-4.866,5.926-28.973,6.7-34.386.468-3.292,5.926-15.145,14.77-25.437q-1.116.879-2.153,1.771a73.25,73.25,0,0,0-14.335,16.5c.191-.593.388-1.192.586-1.784,1.205-3.6,2.509-7.158,3.832-10.674,3.832-10.127,8.1-20.459,15.738-28.137,4.313-4.333,9.561-7.671,13.67-12.195,7.243-7.961,10.239-18.99,10.154-29.8,0-1.119-.046-2.232-.119-3.345-.784-11.853-4.833-23.2-9.219-34.241-2.357-5.926-4.86-12.155-4.748-18.437a20.533,20.533,0,0,1,.191-2.634c1.811-13.018,14.98-20.814,22.889-31.317,11.76-15.626,12.616-38.85,28.044-50.847,11.853-9.219,28.314-8.652,43.281-7.651,13.92.935,26.484,2.746,40.3,4.682s27.834,5.571,38.916,14.085c7.158,5.492,12.741,12.768,17.7,20.307,6.637,10.1,12.439,21.256,13.235,33.312.059.863.092,1.719.092,2.568.138,14.091-5.979,27.748-6.789,41.9-.033.658-.059,1.317-.066,1.975a.447.447,0,0,0,0,.105c-.145,12.267,4.563,25.147,10.97,35.558A95.367,95.367,0,0,1,615.91,469.931Z" transform="translate(-151.626 -192.913)" opacity="0.1"/>
    <path id="Path_447" data-name="Path 447" d="M615.808,469.5c0,1.738-.066,3.483-.165,5.215q-.092,1.482-.224,2.963t-.3,2.937c-1.073,9.574-3.055,19.1-3.292,28.716v2.219a123.689,123.689,0,0,0,3.589,26.787H534.506c-.151-1.64-.244-3.292-.257-4.919a47.094,47.094,0,0,1,.244-5.268c1.244-12.122,7.441-23.468,8.376-35.512.066-.882.112-1.765.119-2.634v-.619a47.11,47.11,0,0,0-1.969-12.577,118.442,118.442,0,0,0-3.951-11.194c-2.278-5.722-4.721-11.4-6.354-17.12a44.526,44.526,0,0,1-1.9-11.675,30.627,30.627,0,0,1,.105-3.134c.053-.619.125-1.238.217-1.863a29.189,29.189,0,0,1,.58-2.9c1.317-5.189,4.129-10.055,6.822-14.875,3-5.373,5.874-10.694,6.381-16.343.04-.428.059-.863.072-1.317h0a18.44,18.44,0,0,0-.263-3.615c-.691-4-2.753-7.605-4.445-11.3-.171-.375-.342-.751-.507-1.133-3.338-7.651-5.268-15.8-7.283-23.968-.579-2.331-1.172-4.662-1.8-6.973-2.95-10.773-7.151-21.657-15.145-29.434s-20.722-11.635-30.724-6.657c-8.659,4.313-13.347,13.966-15.461,23.4s-2.285,19.274-5.031,28.545c-.3,1.021-.659,2.041-.994,3.055-1.225,3.47-2.752,6.914-4.359,10.338-5.143,10.924-11.128,21.67-11,32.673v.138a27.6,27.6,0,0,0,1.146,7.507,37.4,37.4,0,0,0,6.479,11.853q.823,1.073,1.686,2.127c2.8,3.437,5.834,6.763,8.481,10.305a41.654,41.654,0,0,1,5.024,8.382,30.6,30.6,0,0,1,.132,23.639,44.426,44.426,0,0,1-2.561,5.044c-1.692,2.924-3.556,5.768-5.024,8.81a32.906,32.906,0,0,0-1.317,3.115c-3.292,8.481-4,17.864-6.69,26.616A60.579,60.579,0,0,1,443.1,538.328H357.89s6.018-29.223,6.874-35.242c.428-3.009,5.044-13.169,12.616-22.8.659-.882,1.409-1.765,2.153-2.634a73.781,73.781,0,0,0-15.9,17.344l-.586.922c1.37-4.208,2.878-8.363,4.425-12.458,3.832-10.127,8.1-20.459,15.738-28.137,4.313-4.333,9.561-7.671,13.67-12.195,7.033-7.75,10.075-18.437,10.154-28.973,0-1.409,0-2.812-.119-4.208-.784-11.853-4.833-23.2-9.219-34.241-2.245-5.676-4.609-11.589-4.748-17.608a21.392,21.392,0,0,1,.191-3.47c1.817-12.946,14.987-20.709,22.9-31.245,11.76-15.626,12.616-38.85,28.044-50.847,11.852-9.219,28.314-8.652,43.281-7.651,13.92.935,26.484,2.746,40.3,4.682s27.853,5.564,38.922,14.052c7.158,5.525,12.741,12.768,17.7,20.314,6.637,10.1,12.439,21.256,13.235,33.312q.119,1.719.092,3.431c-.112,13.782-6,27.175-6.789,41.043-.053.935-.079,1.863-.066,2.805a.447.447,0,0,0,0,.105c.079,12.011,4.715,24.535,10.97,34.682A95.374,95.374,0,0,1,615.808,469.5Z" transform="translate(-151.524 -192.48)" fill="#463a3e"/>
  </g>
</svg>
