<svg xmlns="http://www.w3.org/2000/svg" xmlns:xlink="http://www.w3.org/1999/xlink" width="721.005" height="470.968" viewBox="0 0 721.005 470.968"><defs><linearGradient id="linear-gradient" x1="-.03" x2=".97" y1=".503" y2=".503" gradientUnits="objectBoundingBox"><stop offset="0" stop-color="gray" stop-opacity=".251"/><stop offset=".54" stop-color="gray" stop-opacity=".122"/><stop offset="1" stop-color="gray" stop-opacity=".102"/></linearGradient></defs><g id="undraw_pair_programming_njlp" transform="translate(-0.038 0.024)"><path id="Path_448" fill="#ed664c" d="M407.887,165.619c-45.536,7.695-91.008,4.4-134.751-.4s-87.378-11.063-132.933-9.175c-29.3,1.212-61.94,7.018-82.4,23.894-19.7,16.231-22.765,38.135-22.8,57.907-.051,14.872,1.238,30.262,11.778,42.11,7.325,8.218,18.6,14.107,27.091,21.693,29.547,26.35,20.564,67.841,1.174,103.118-9.1,16.55-20.225,32.826-26.421,49.766s-7.018,35.091,4.071,48.9c10.987,13.7,32.239,21.419,54.4,25.419,45.006,8.128,95.149,3.082,143.664-3.758,107.374-15.191,213.637-38.875,319.67-62.5,39.232-8.747,78.637-17.533,116.434-30.14,20.991-7.018,42.365-15.753,55.923-29.349,17.227-17.227,17.661-40.789,1.059-54.87-27.856-23.607-90.906-18.369-112.452-45.357-11.854-14.86-6.693-35.04,2.744-52.867,20.232-38.231,59.336-76,54.271-114.117-3.5-26.159-30.172-47.807-65.927-53.447-37.478-5.908-85.61,5.3-107.189,31.621C493.1,141.189,448.1,158.805,407.887,165.619Z" data-name="Path 448" opacity=".1" transform="translate(-34.96 -80.93)"/><rect id="Rectangle_48" width="180.836" height="41.874" fill="#565661" data-name="Rectangle 48" transform="translate(229.703 229.196)"/><rect id="Rectangle_49" width="180.836" height="41.874" data-name="Rectangle 49" opacity=".1" transform="translate(229.703 229.196)"/><path id="Path_449" fill="#bcbec9" d="M384,427.03l1.27,111.789-17.393,43.909-1.346-155.7Z" data-name="Path 449" transform="translate(-132.66 -154.582)"/><path id="Path_450" fill="#565661" d="M362.99,371.84,539.053,372.9v31.187H362.99Z" data-name="Path 450" transform="translate(-131.379 -134.605)"/><path id="Path_451" fill="#bcbec9" d="M615.33,427.03l15.064,2.125V581.03L615.33,534.576Z" data-name="Path 451" transform="translate(-222.719 -154.582)"/><rect id="Rectangle_50" width="84.851" height="180.306" fill="#efeff0" data-name="Rectangle 50" transform="translate(413.397 230.874)"/><rect id="Rectangle_51" width="71.274" height="138.599" fill="#565661" data-name="Rectangle 51" transform="translate(420.186 235.882)"/><rect id="Rectangle_52" width="71.274" height="138.599" data-name="Rectangle 52" opacity=".1" transform="translate(420.186 235.882)"/><rect id="Rectangle_53" width="71.274" height="30.759" fill="#565661" data-name="Rectangle 53" transform="translate(420.186 238.722)"/><rect id="Rectangle_54" width="71.274" height="65.334" fill="#565661" data-name="Rectangle 54" transform="translate(420.186 272.448)"/><rect id="Rectangle_55" width="71.274" height="65.334" fill="#565661" data-name="Rectangle 55" transform="translate(420.186 341.814)"/><rect id="Rectangle_56" width="71.274" height="65.334" data-name="Rectangle 56" opacity=".1" transform="translate(420.186 341.814)"/><ellipse id="Ellipse_33" cx="4.594" cy="5.87" fill="#565661" data-name="Ellipse 33" rx="4.594" ry="5.87" transform="translate(418.565 411.18)"/><ellipse id="Ellipse_34" cx="4.594" cy="5.87" fill="#565661" data-name="Ellipse 34" rx="4.594" ry="5.87" transform="translate(482.272 411.461)"/><path id="Path_452" fill="#efeff0" d="M356.231,560.028h6.151L360.691,364.32H351.35Z" data-name="Path 452" transform="translate(-127.166 -131.883)"/><path id="Path_453" fill="#efeff0" d="M638.94,361.87V557.444h5.723V363.433Z" data-name="Path 453" transform="translate(-231.266 -130.996)"/><path id="Path_454" fill="#efeff0" d="M366.46,419.38v7.006H540.31v-5.091Z" data-name="Path 454" transform="translate(-132.635 -151.813)"/><path id="Path_455" fill="#fff" d="M372.174,341.26h220.4l32.029,10.6v6.151L349.69,355.9v-6.259Z" data-name="Path 455" transform="translate(-126.565 -123.536)"/><path id="Path_456" fill="#bcbec9" d="M349.69,354.39,624.6,356.617v6.151L349.69,360.649Z" data-name="Path 456" transform="translate(-126.565 -128.289)"/><path id="Path_457" fill="url(#linear-gradient)" d="M422.884,548.934l-1.276-.191v-.16c-.038-.3-.083-.593-.128-.893.523.415,1.021.829,1.48,1.244Z" data-name="Path 457" transform="translate(-174.856 -249.893)"/><path id="Path_458" fill="#a26565" d="M375.065,703.391c.829-.191,1.672-.351,2.514-.466a30.255,30.255,0,0,1,16.984,2.5c-.536,3.943-1.066,8.02.07,11.829.791,2.68,2.38,5.1,2.718,7.9a4.658,4.658,0,0,1,3.669,3.241,7.049,7.049,0,0,1,.364,2.271,12.121,12.121,0,0,1-.357,2.833,2.858,2.858,0,0,1-3.063,2.552c-4.938.562-9.781-1.385-14.375-3.292l-8.932-3.713c-1.046-.434-2.1-.874-3.1-1.41a16.992,16.992,0,0,1-4.97-4.064,2.265,2.265,0,0,1-.593-1.072c-.166-1.123,1.148-1.793,1.984-2.552a3.976,3.976,0,0,0,.638-.778c.989-1.493,1.085-3.554,1.678-5.315,1.4-4.179,5.742-6.871,7.273-10.948.083-.223.16-.447.223-.676" data-name="Path 458" transform="translate(-154.766 -305.833)"/><path id="Path_459" d="M401.383,740.277a12.122,12.122,0,0,1-.357,2.833,2.858,2.858,0,0,1-3.063,2.552c-4.938.561-9.781-1.385-14.375-3.292l-8.932-3.713c-1.046-.434-2.1-.874-3.1-1.41a16.989,16.989,0,0,1-4.97-4.064,2.265,2.265,0,0,1-.593-1.072c-.166-1.123,1.148-1.793,1.984-2.552a3.975,3.975,0,0,0,.638-.778c2.463.53,5.519,2.08,7.4,2.68a22.473,22.473,0,0,1,5.385,2.252c2.348,1.506,4.039,3.828,6.029,5.742s4.562,3.656,7.337,3.42a12.124,12.124,0,0,0,4.173-1.442Z" data-name="Path 459" opacity=".1" transform="translate(-154.766 -315.443)"/><path id="Path_460" fill="#454b69" d="M395.244,601.143a2.954,2.954,0,0,1-1.085,3.19c-.836.517-1.914.447-2.744,1.008-1.027.721-1.174,2.15-1.353,3.388-.638,4.256-2.75,8.116-4.556,12.027s-3.33,8.179-2.667,12.429c.453,2.884,1.869,5.959.542,8.556-.325.638-.81,1.206-1.18,1.825-1.818,3.037-.785,6.884-.855,10.419a2.06,2.06,0,0,1-.249,1.129,3.121,3.121,0,0,1-1.008.778,5.347,5.347,0,0,0-2.176,4.1,15.677,15.677,0,0,0,.574,4.76,2.833,2.833,0,0,0,.785,1.659,2.935,2.935,0,0,0,1.716.485,38.179,38.179,0,0,1,11.65,2.833c2.418,1.008,4.766,2.271,7.337,2.756a1.914,1.914,0,0,0,1.506-.159,2.073,2.073,0,0,0,.638-1.1c.989-3.254,1.991-6.61,1.652-9.992-.147-1.455-.536-2.877-.638-4.332-.447-5.742,3.439-10.923,4.67-16.589.555-2.552.555-5.194.951-7.771,1.072-7.063,4.964-13.4,6.463-20.385a22.162,22.162,0,0,1,.97-3.828c1.117-2.705,3.7-4.9,3.758-7.829a3.05,3.05,0,0,0-.485-1.825,4.135,4.135,0,0,0-2.278-1.276,77.764,77.764,0,0,0-10.559-2.131,20.008,20.008,0,0,0-4.964-.345,14.613,14.613,0,0,0-6.074,2.144C393.126,598.585,394.708,598.949,395.244,601.143Z" data-name="Path 460" transform="translate(-159.084 -266.979)"/><path id="Path_461" d="M395.244,601.143a2.954,2.954,0,0,1-1.085,3.19c-.836.517-1.914.447-2.744,1.008-1.027.721-1.174,2.15-1.353,3.388-.638,4.256-2.75,8.116-4.556,12.027s-3.33,8.179-2.667,12.429c.453,2.884,1.869,5.959.542,8.556-.325.638-.81,1.206-1.18,1.825-1.818,3.037-.785,6.884-.855,10.419a2.06,2.06,0,0,1-.249,1.129,3.121,3.121,0,0,1-1.008.778,5.347,5.347,0,0,0-2.176,4.1,15.677,15.677,0,0,0,.574,4.76,2.833,2.833,0,0,0,.785,1.659,2.935,2.935,0,0,0,1.716.485,38.179,38.179,0,0,1,11.65,2.833c2.418,1.008,4.766,2.271,7.337,2.756a1.914,1.914,0,0,0,1.506-.159,2.073,2.073,0,0,0,.638-1.1c.989-3.254,1.991-6.61,1.652-9.992-.147-1.455-.536-2.877-.638-4.332-.447-5.742,3.439-10.923,4.67-16.589.555-2.552.555-5.194.951-7.771,1.072-7.063,4.964-13.4,6.463-20.385a22.162,22.162,0,0,1,.97-3.828c1.117-2.705,3.7-4.9,3.758-7.829a3.05,3.05,0,0,0-.485-1.825,4.135,4.135,0,0,0-2.278-1.276,77.764,77.764,0,0,0-10.559-2.131,20.008,20.008,0,0,0-4.964-.345,14.613,14.613,0,0,0-6.074,2.144C393.126,598.585,394.708,598.949,395.244,601.143Z" data-name="Path 461" opacity=".05" transform="translate(-159.084 -266.979)"/><path id="Path_462" fill="#565661" d="M345.3,629.69h-5.442l-3.56-73.143-.249-4.16,4.626-1.627.313,4.422Z" data-name="Path 462" transform="translate(-121.627 -199.369)"/><path id="Path_463" d="M340.988,555.182l-4.69,1.365-.249-4.16,4.626-1.627Z" data-name="Path 463" opacity=".1" transform="translate(-121.627 -199.369)"/><path id="Path_464" fill="#565661" d="M367.749,634.111l-8.977,1.085-41.357-93.86-11.153-.817-19.587,5.717-3.809,111.75h-8.977l3.535-115.834-21.5.549L217.57,638.188h-8.16l40.342-111.6,1.557-4.3,60.121-2.061,14.987,8.4.191.485Z" data-name="Path 464" transform="translate(-75.787 -188.318)"/><path id="Path_465" d="M384.457,610.048c-12.92,3.892-26.331,8.141-26.331,8.141s-12.231,4.268-17.412,0A7.829,7.829,0,0,0,338.551,617a10.651,10.651,0,0,0,2.163,1.193L307.6,607.515l1.55-4.294,60.128-2.061,14.987,8.4Z" data-name="Path 465" opacity=".1" transform="translate(-133.635 -269.248)"/><path id="Path_466" fill="#fff" d="M332.206,582.972l24.481-5.442s58.494,10.885,62.846,15.236c0,0-46.793,9.519-51.961,12.761S331.657,612.353,332.206,582.972Z" data-name="Path 466" transform="translate(-142.539 -260.695)"/><path id="Path_467" fill="#ed664c" d="M306.047,458.318c-1.914,6.068-7.14,11.536-13.5,11.8a2.354,2.354,0,0,1-1.346-.242,2.131,2.131,0,0,1-.491-2.552,11.04,11.04,0,0,0,.983-2.616,1.71,1.71,0,0,0-.038-.568c-.166-.759-.785-1.436-1.512-1.276a2.552,2.552,0,0,0,.542-3.388,7.652,7.652,0,0,1-.778-1.046c-.53-1.085.293-2.3.638-3.464.708-2.552-1.091-5.1-1.238-7.765-.128-2.38,1.078-4.619,1.378-6.98.478-3.828-1.423-7.5-1.646-11.319a23.968,23.968,0,0,1,1.238-7.88,28.486,28.486,0,0,0,1.4-7.018c0-1.742-.3-3.464-.383-5.2a9.053,9.053,0,0,1,.836-4.619,3.694,3.694,0,0,1,2.1-1.793c2.093-.7,3.464.389,3.771,2.373.51,3.375.217,6.821.887,10.208a47.851,47.851,0,0,0,2.8,9.245c1.129,2.692,2.5,5.3,3.369,8.084a44.537,44.537,0,0,1,1.4,7.018C307.31,445.692,307.98,452.251,306.047,458.318Z" data-name="Path 467" transform="translate(-126.908 -197.221)"/><path id="Path_468" fill="#a26565" d="M524.128,722.468a9.9,9.9,0,0,1-6.974,4.109c-2.769.345-5.647-.351-8.333.408a2.552,2.552,0,0,0-1.914,1.474,15.653,15.653,0,0,0-.121,1.563c-.313,1.7-2.552,2.086-4.294,2.074l-7.184-.045c-1.493,0-3.146-.083-4.217-1.117a3.139,3.139,0,0,1-.064-4.134,2.6,2.6,0,0,1,.8-.638,2.552,2.552,0,0,1-1.723-2.048,7.619,7.619,0,0,1,.134-2.814c0-2.667.638-7.133,2.514-9.219,2.3-2.6,6.3-5.953,9.775-6.648a7.656,7.656,0,0,1,6.623,1.882c1.646,1.531,2.846,3.93,5.1,4.2,1.231.153,2.418-.427,3.637-.638a6.77,6.77,0,0,1,6.9,3.643,7.183,7.183,0,0,1,.638,2A8.294,8.294,0,0,1,524.128,722.468Z" data-name="Path 468" transform="translate(-199.672 -306.942)"/><path id="Path_469" d="M524.268,728.836a9.9,9.9,0,0,1-6.974,4.109c-2.769.344-5.646-.351-8.333.408a2.552,2.552,0,0,0-1.914,1.474,15.673,15.673,0,0,0-.121,1.563c-.313,1.7-2.552,2.086-4.294,2.074l-7.184-.045c-1.493,0-3.145-.083-4.217-1.117a3.139,3.139,0,0,1-.064-4.134c4.147-.172,8.224,0,12.359-.855,1.678-.338,3.331-.785,5.028-1.021,3.675-.523,7.586-.077,10.961-1.633a12.39,12.39,0,0,0,6.023-6.769A8.294,8.294,0,0,1,524.268,728.836Z" data-name="Path 469" opacity=".1" transform="translate(-199.811 -313.311)"/><path id="Path_470" fill="#454b69" d="M432.346,652.019a15.983,15.983,0,0,1-8.76,3.688c-3.216.166-6.629-1.276-8.2-4.071-2.3-4.1-.262-9.806-3.082-13.571-.88-1.18-2.15-2.016-3.082-3.158s-1.467-2.858-.638-4.071c-1,.383-2.061-.587-2.354-1.621a29.606,29.606,0,0,1-.287-3.19c-.466-2.775-3.19-4.555-4.5-7.018s-1.129-5.659-1.276-8.575a32.539,32.539,0,0,0-7.529-19.364c-.868-1.034-1.978-2.086-3.331-2.035a6.283,6.283,0,0,0-3.337-5.742,16.541,16.541,0,0,0-6.75-1.8c-23.562-2.322-48.114,6.438-70.61-.932-6.259-2.048-12.295-5.474-16.123-10.846a18.963,18.963,0,0,1-3.375-14.343v-.089c.887-4.53,3.279-5.647,7.242-7.714a86.911,86.911,0,0,1,14.285-5.991c9.57-2.992,19.875-4.071,29.751-1.876,4.613,1.034,9.06,2.744,13.679,3.745,1.818.4,3.65.676,5.493.912,2.865.357,5.742.593,8.626.925a130.493,130.493,0,0,1,27.091,6.093,35.478,35.478,0,0,1,9.36,4.39,20.736,20.736,0,0,1,8.32,13.692c.268,1.876.274,3.828.683,5.646a28.711,28.711,0,0,0,1.531,4.466A297.08,297.08,0,0,1,428.5,621.043a10.073,10.073,0,0,0,1.066,3c.817,1.321,2.22,2.208,3.043,3.528,1.914,3.114.07,7.458,1.767,10.7.587,1.123,1.563,2.01,2.15,3.133C438.439,645.084,435.612,649.486,432.346,652.019Z" data-name="Path 470" transform="translate(-126.845 -246.581)"/><path id="Path_471" d="M459.022,598.181a10.529,10.529,0,0,0,2.316-2.552,4.76,4.76,0,0,0,.7-3.3,9.437,9.437,0,0,1-2.482,8.116c-1.6,1.64-4.607,3.247-6.948,2.686C452.942,601.256,457.536,599.444,459.022,598.181Z" data-name="Path 471" opacity=".1" transform="translate(-186.124 -266.052)"/><path id="Path_472" d="M360.041,546.911a4.281,4.281,0,0,1-2.833,2.922,11.8,11.8,0,0,1-4.2.491h-1.276c-16.742-.37-33.662-4.083-50.015-.542a36.2,36.2,0,0,0-5.781,1.7,26.1,26.1,0,0,0-6.642,3.828v-.089c.887-4.53,3.279-5.647,7.242-7.714a86.925,86.925,0,0,1,14.266-5.934c9.57-2.992,19.874-4.071,29.751-1.876,4.613,1.034,9.06,2.744,13.679,3.745,1.818.4,3.65.676,5.493.912a4.409,4.409,0,0,1,.319,2.552Z" data-name="Path 472" opacity=".1" transform="translate(-127.007 -246.581)"/><path id="Path_473" fill="#a26565" d="M358.988,540.133a4.275,4.275,0,0,1-2.833,2.929,11.659,11.659,0,0,1-4.2.485h-1.276c-16.742-.37-33.662-4.083-50.015-.542a36.868,36.868,0,0,0-5.781,1.7,26.287,26.287,0,0,0-6.923,4.083q-.734-2.016-1.461-4.039c-.587-1.608,1.276-1.965,1.633-3.407a7.765,7.765,0,0,0-.37-3.126,5.454,5.454,0,0,1-.1-.772,4.912,4.912,0,0,1,2.6-4.875c5.6-3.7,12.435-6.24,18.828-8.148a46.578,46.578,0,0,1,10.464-2.029,51.34,51.34,0,0,1,14.943,1.818,64.078,64.078,0,0,1,17.3,6.6c2.616,1.525,5.168,3.439,6.578,6.157A4.849,4.849,0,0,1,358.988,540.133Z" data-name="Path 473" transform="translate(-125.954 -240.715)"/><path id="Path_474" d="M306.9,458.344c-1.914,6.068-7.14,11.536-13.5,11.8a2.354,2.354,0,0,1-1.346-.242,2.131,2.131,0,0,1-.491-2.552,11.037,11.037,0,0,0,.983-2.616,1.711,1.711,0,0,0-.038-.568c3.375-4.76,6.648-9.57,7.943-15.2a8.128,8.128,0,0,0,.236-2.98,26.515,26.515,0,0,0-1.072-3.3,17.2,17.2,0,0,1-.14-6.08,56.147,56.147,0,0,0-4.364-26.216,24.6,24.6,0,0,1-2.144-6.131,3.694,3.694,0,0,1,2.1-1.793c2.093-.7,3.464.389,3.771,2.373.51,3.375.217,6.821.887,10.208a47.855,47.855,0,0,0,2.8,9.245c1.129,2.692,2.5,5.3,3.369,8.084a44.537,44.537,0,0,1,1.4,7.018C308.159,445.717,308.829,452.276,306.9,458.344Z" data-name="Path 474" opacity=".1" transform="translate(-127.756 -197.246)"/><path id="Path_475" d="M359.716,540.118a4.275,4.275,0,0,1-2.833,2.929,11.657,11.657,0,0,1-4.2.485H351.4a27.8,27.8,0,0,0-18.5-4.466,29.889,29.889,0,0,1-6.24.542c-4.2-.383-7.612-3.407-11.357-5.34a23.849,23.849,0,0,0-26.433,3.586l-.364.319a5.457,5.457,0,0,1-.1-.772,4.912,4.912,0,0,1,2.6-4.875c5.6-3.7,12.435-6.24,18.828-8.148a46.573,46.573,0,0,1,10.464-2.029,51.338,51.338,0,0,1,14.943,1.818,64.077,64.077,0,0,1,17.3,6.6c2.6,1.55,5.149,3.465,6.559,6.182A4.849,4.849,0,0,1,359.716,540.118Z" data-name="Path 475" opacity=".1" transform="translate(-126.683 -240.701)"/><path id="Path_476" fill="#ed664c" d="M370.8,411.8l-.089.23c-1.429,3.707-4.058,6.84-5.742,10.451-2.125,4.575-2.648,9.7-3.12,14.732a76.53,76.53,0,0,0-.485,12.958c.817,10.642,6.017,20.736,7.407,31.174a34.653,34.653,0,0,1,.262,7.28,7.188,7.188,0,0,1-1.416,4.326c-1.021,1.136-3.005,1.582-4.1.491.491-.938.989-1.869,1.487-2.807-2.916-2.265-7.305-.638-10.712-2.054a17.248,17.248,0,0,1-3.956-2.814,27.741,27.741,0,0,0-20.666-6.036,29.48,29.48,0,0,1-6.24.549c-4.2-.389-7.612-3.407-11.357-5.34a23.862,23.862,0,0,0-26.433,3.579c-.893.829-2.093,1.8-3.19,1.276a2.654,2.654,0,0,1-.989-1.078c-4.179-7.14-1.1-16.346,3.362-23.3s10.381-13.367,12.218-21.425a8,8,0,0,0,.236-2.98,26.508,26.508,0,0,0-1.072-3.3,17.2,17.2,0,0,1-.14-6.08,56.147,56.147,0,0,0-4.351-26.223c-1.021-2.38-2.233-4.792-2.233-7.376,0-4.071,2.916-7.446,5.328-10.719,2.775-3.764,5.1-7.931,8.62-11.025,3.331-2.941,8.154-4.741,12.276-3.248a76.526,76.526,0,0,1,21.412-2.086,16.4,16.4,0,0,1,7.242,1.582c2.335,1.276,4.013,3.547,6.31,4.906a34.388,34.388,0,0,0,5.436,2.176A22.465,22.465,0,0,1,367.815,380.1c2.552,4.945,3.19,10.63,3.752,16.168C372.1,401.479,372.613,406.9,370.8,411.8Z" data-name="Path 476" transform="translate(-123.456 -182.275)"/><path id="Path_477" d="M399.928,460.477c.817,10.642,6.017,20.736,7.407,31.174-2.782-2.354-6.655-4.721-7.171-7.459-.574-2.96-2.412-6.84-2.718-9.832s1.793-6.648-.408-8.7c-1.072-1,1.78-.721.734-1.748-2.354-2.291-2.935-5.819-3.082-9.092-.249-5.793.485-11.65-.581-17.348a87.325,87.325,0,0,0-3.037-10.279c-1.238-3.975-2.131-8.046-3.024-12.122a84.932,84.932,0,0,1-1.914-11.012,18.064,18.064,0,0,1,1.276-9.481c1.423-2.909,4.3-5.27,7.529-5.225,10.8.14,8.932,14.777,11.306,21.54.951,2.693,2.233,5.3,2.75,8.1a21.483,21.483,0,0,1,.306,3.331c-1.429,3.707-4.058,6.84-5.742,10.451-2.125,4.575-2.648,9.7-3.12,14.732A74.183,74.183,0,0,0,399.928,460.477Z" data-name="Path 477" opacity=".1" transform="translate(-162.02 -192.578)"/><path id="Path_478" fill="#ed664c" d="M407.362,410.6c.951,2.693,2.233,5.3,2.75,8.1.861,4.7-.472,9.7.976,14.253a24.849,24.849,0,0,1,.944,2.98,26.037,26.037,0,0,1-.038,4.4,25.159,25.159,0,0,0,1.41,6.948,124.176,124.176,0,0,1,4.434,23.709,29.726,29.726,0,0,0,1.014,6.38,21.2,21.2,0,0,1,.689,2.156,11.154,11.154,0,0,1,.121,2.954,56.192,56.192,0,0,0-.172,9.379,13.008,13.008,0,0,0,3.828,8.358c-2.093.453-4.307.906-6.348.236-2.871-.938-4.594-3.828-6.055-6.457-1.85-3.356-8.881-6.38-9.609-10.151-.568-2.954-2.405-6.833-2.712-9.832s1.786-6.642-.415-8.7c-1.066-1,1.786-.727.734-1.748-2.348-2.291-2.929-5.819-3.075-9.1-.249-5.787.479-11.644-.581-17.342a87.781,87.781,0,0,0-3.037-10.285c-1.238-3.969-2.131-8.039-3.024-12.122a84.046,84.046,0,0,1-1.914-11.012c-.274-3.19-.153-6.578,1.276-9.487s4.307-5.264,7.529-5.225C406.839,389.191,404.988,403.834,407.362,410.6Z" data-name="Path 478" transform="translate(-162.435 -192.452)"/><path id="Path_479" d="M368.846,424.322c1.008,1.18,2.3,2.476,3.828,2.246a.829.829,0,0,1-1.129.268,2.425,2.425,0,0,1-.849-.976l-2.182-3.681c-.287-.479-2.265-3.267-2.75-1.659C365.573,421.2,368.355,423.748,368.846,424.322Z" data-name="Path 479" opacity=".1" transform="translate(-154.685 -203.682)"/><path id="Path_480" d="M362.02,437.5a4.862,4.862,0,0,0-1.423-3.19,7.976,7.976,0,0,0-2.635-1.589,19.087,19.087,0,0,0-7.822-1.646c.944,1.378,3.975,2.2,5.493,2.98Q358.862,435.717,362.02,437.5Z" data-name="Path 480" opacity=".1" transform="translate(-149.033 -207.676)"/><path id="Path_481" d="M366.649,476.722c-.44,3.267-3.114,5.742-5.819,7.656s-5.742,3.56-7.51,6.329c-1.225,1.914-1.774,4.134-2.814,6.131-1.148,2.2-2.865,4.051-4.237,6.119s-2.444,4.536-2.023,6.986a.823.823,0,0,0,.293.587.836.836,0,0,0,.81-.089c2.782-1.455,3.879-4.779,5.047-7.656a88.471,88.471,0,0,1,4.134-8.5,7.829,7.829,0,0,1,2.731-3.375,23.957,23.957,0,0,1,2.693-.938,9.054,9.054,0,0,0,3.324-2.61,21.91,21.91,0,0,0,5.1-14.872c-.038-1.142-.1-6.642-1.818-4.945S366.942,474.5,366.649,476.722Z" data-name="Path 481" opacity=".1" transform="translate(-146.867 -220.767)"/><path id="Path_482" fill="#a26565" d="M350.28,283.119c5.487,2.393,10.208,7.656,10.036,13.622-.147,6.265-5.391,12.167-3.586,18.171,1.046,3.484,4.2,5.819,6.693,8.467,9.5,10.055,9.481,27.607-.051,37.644-3.65,3.828-8.339,6.553-12.2,10.208-13.609,12.824-14.19,35.009-6.9,52.229a84.946,84.946,0,0,1-16.984,1.914c-2.673,0-5.946-.453-6.916-2.948-.893-2.3.638-5.417-1.123-7.12a5.759,5.759,0,0,0-3.19-1.091c-7.184-1.161-13.08-6.9-15.772-13.654s-2.552-14.362-1.008-21.47c1.1-5.136,2.814-10.789.268-15.383-3.19-5.781-12.365-8.218-12.225-14.828.115-5.417,6.5-8.052,10.125-12.078,6.686-7.414,3.5-18.917,3.49-28.909,0-8.792,3.075-17.865,9.621-23.722C320.292,275.386,339.044,278.238,350.28,283.119Z" data-name="Path 482" transform="translate(-126.293 -152.453)"/><g id="Group_12" data-name="Group 12" opacity=".1" transform="translate(161.05 142.941)"><path id="Path_483" d="M300.6,394.674c-2.8-5.053-10.157-7.554-11.867-12.524a7.075,7.075,0,0,0-1.378,3.994c-.14,6.61,9.022,9.047,12.225,14.834a12.052,12.052,0,0,1,1.276,6.648C301.868,403.186,302.755,398.554,300.6,394.674Z" data-name="Path 483" transform="translate(-287.357 -332.914)"/><path id="Path_484" d="M397.232,316.318c1.148-3.35,2.814-6.731,2.9-10.208a9.559,9.559,0,0,0-.032-1.129C398.815,308.821,396.85,312.547,397.232,316.318Z" data-name="Path 484" transform="translate(-327.112 -304.98)"/><path id="Path_485" d="M309.424,335.951c2.195-6.935.3-15.536.293-23.231,0-.932.038-1.869.108-2.8a36.84,36.84,0,0,0-1.136,9.1C308.7,324.512,309.666,330.471,309.424,335.951Z" data-name="Path 485" transform="translate(-295.079 -306.768)"/><path id="Path_486" d="M394.848,391.388c-3.65,3.828-8.339,6.553-12.2,10.208-6.891,6.489-10.432,15.376-11.319,24.8a36.474,36.474,0,0,1,10.3-18.5c3.828-3.637,8.55-6.348,12.2-10.208a27.11,27.11,0,0,0,7.114-17.265A25.911,25.911,0,0,1,394.848,391.388Z" data-name="Path 486" transform="translate(-317.753 -332.287)"/><path id="Path_487" d="M334.532,475.4c-2.673,0-5.946-.459-6.916-2.954-.893-2.3.638-5.41-1.123-7.12a5.776,5.776,0,0,0-3.19-1.091c-7.178-1.155-13.073-6.9-15.766-13.647a34.127,34.127,0,0,1-1.914-15.8c-.051.211-.1.421-.14.638-1.518,7.108-1.678,14.719,1.008,21.476s8.588,12.493,15.766,13.647a5.689,5.689,0,0,1,3.19,1.091c1.78,1.71.23,4.823,1.123,7.12.97,2.495,4.243,2.986,6.916,2.954a85.006,85.006,0,0,0,16.984-1.914,57.032,57.032,0,0,1-2.061-5.7A84.687,84.687,0,0,1,334.532,475.4Z" data-name="Path 487" transform="translate(-293.524 -351.964)"/></g><path id="Path_488" d="M384.37,452.3c1.576,1.187,3.286-3.337,2.31-4.466C386.418,448.123,384.127,452.13,384.37,452.3Z" data-name="Path 488" opacity=".1" transform="translate(-161.417 -213.747)"/><path id="Path_489" d="M394.91,579.079c1.857-.638,3.828-1.276,5.04-2.807,1-1.231,1.825-6.119-.293-3.777C397.858,574.5,397.009,577.152,394.91,579.079Z" data-name="Path 489" opacity=".1" transform="translate(-165.239 -258.645)"/><path id="Path_490" d="M423.179,571.22a7.33,7.33,0,0,1-1.7,4.154c-.2.2-.638.332-.7.057a16.134,16.134,0,0,0,3.292-2.322c2.156-2.137,2.45-7.4-.836-8.8A50,50,0,0,1,423.179,571.22Z" data-name="Path 490" opacity=".1" transform="translate(-174.603 -255.909)"/><path id="Path_491" fill="#454b69" d="M445.132,556.62s-18.107-7.114-24.653-6.38,7.414,11.051,7.414,11.051l8.345,5.627s5.1-1.914,5.442-2.061S445.132,556.62,445.132,556.62Z" data-name="Path 491" transform="translate(-173.862 -250.797)"/><path id="Path_492" fill="#565661" d="M264.84,438.948s13.6-7.886,31.557,1.914,20.946,67.471,20.946,67.471S310,567.089,338.315,554.016c0,0,51.68-16.046,56.855-12.512,0,0,4.9,0-4.894,2.176s-47.629,14.164-47.629,14.164-12.231,4.275-17.412,0-19.862.549-21.769-28.839a511.048,511.048,0,0,0-6.8-55.228l-5.047-14.962Z" data-name="Path 492" transform="translate(-118.157 -209.446)"/><path id="Path_493" fill="#fff" d="M259.315,530.436s5.985-59.579-3.828-81.074c-8.537-18.732,24.475-9.972,33.088-7.42a6.272,6.272,0,0,1,3.3,2.361c5.1,7.178,23.416,35.946,18.018,74.439,0,0-2.176,34.281,11.427,39.717l-41.912-13.5c-3.4-1.1-6.852-2.01-10.336-2.8C264.636,541.149,257.4,538.284,259.315,530.436Z" data-name="Path 493" transform="translate(-114.265 -210.067)"/><path id="Path_494" fill="#565661" d="M694.53,631.69h5.442l3.567-73.143.242-4.16-4.626-1.627-.306,4.422Z" data-name="Path 494" transform="translate(-251.388 -200.093)"/><path id="Path_495" d="M701.3,557.182l4.69,1.365.242-4.16-4.626-1.627Z" data-name="Path 495" opacity=".1" transform="translate(-253.838 -200.093)"/><path id="Path_496" fill="#a26565" d="M638.8,696.352a12.266,12.266,0,0,1-.766,2.922,5.162,5.162,0,0,1-2.329,2.909,6.153,6.153,0,0,1-2.354.466c-3.005.179-6.182.134-8.766-1.4a15.956,15.956,0,0,1-3.005-2.508,137.114,137.114,0,0,1-15.772-18.758c-.785-1.129-1.6-2.463-1.244-3.828a59.47,59.47,0,0,0,17.08-7.816,8.244,8.244,0,0,1,2.4-1.276,13.039,13.039,0,0,1,4.5-.166c1.448.236,1.512.281,2.067,1.914.919,2.763.766,5.742,1.8,8.5a26.36,26.36,0,0,0,2.386,4.364C637.465,686.144,639.513,691.407,638.8,696.352Z" data-name="Path 496" transform="translate(-241.097 -293)"/><path id="Path_497" d="M638.8,700.566a12.267,12.267,0,0,1-.766,2.922A5.162,5.162,0,0,1,635.7,706.4a6.151,6.151,0,0,1-2.354.466c-3.005.179-6.182.134-8.766-1.4a15.955,15.955,0,0,1-3.005-2.507A137.122,137.122,0,0,1,605.806,684.2c-.785-1.129-1.6-2.463-1.244-3.828a59.193,59.193,0,0,0,5.844-1.952l.1.07a21.44,21.44,0,0,1,4.766,5.366l4.466,6.284a18.5,18.5,0,0,0,2.8,3.382,18.746,18.746,0,0,0,4.332,2.6c2.1,1.014,4.2,2.029,6.38,2.846C634.658,699.539,637.044,699.762,638.8,700.566Z" data-name="Path 497" opacity=".1" transform="translate(-241.097 -297.214)"/><path id="Path_498" fill="#454b69" d="M653.422,602.432a19.2,19.2,0,0,1-1.6,3.043,130.258,130.258,0,0,0-13.6,31.831c-.88-.2-1.378,1-1.372,1.914s0,2.061-.842,2.393c-.249.1-.53.1-.772.2-.536.242-.689.925-.766,1.512l-.753,5.525c-.262,1.914-.491,3.988.447,5.678a9.079,9.079,0,0,0,2.469,2.552l12.454,9.826c.51.4,1.142.829,1.755.606,1.4-.51.159-3.011,1.276-4.026.74-.7,1.914-.172,2.941-.255a3.328,3.328,0,0,0,2.692-2.629,12.5,12.5,0,0,0,.07-3.994,3.624,3.624,0,0,1,.2-1.793,4.353,4.353,0,0,1,1.525-1.461,16.372,16.372,0,0,0,6.706-13.807,7.654,7.654,0,0,1,.089-2.444,6.437,6.437,0,0,1,1.155-2.016,186.763,186.763,0,0,0,12.04-19.39c2.156-3.828,4.351-7.714,5.1-12.027a1.117,1.117,0,0,0-.919-1.531,43.4,43.4,0,0,0-5.7-1.365C672.16,599.593,666.5,597.762,660.8,596S655.138,597.826,653.422,602.432Z" data-name="Path 498" transform="translate(-251.598 -267.215)"/><path id="Path_499" fill="#565661" d="M587.5,636.111l8.984,1.085,41.35-93.86,11.153-.817,19.594,5.717,3.8,111.75h8.977l-3.535-115.834,21.5.549,38.358,95.487h8.16L705.5,528.591l-1.55-4.3-60.128-2.061-14.987,8.4-.191.485Z" data-name="Path 499" transform="translate(-212.646 -189.042)"/><path id="Path_500" d="M686.94,612.048c12.92,3.892,26.331,8.141,26.331,8.141s12.231,4.268,17.412,0A7.828,7.828,0,0,1,732.846,619a10.652,10.652,0,0,1-2.163,1.193L763.8,609.515l-1.531-4.294-60.128-2.061-14.987,8.4Z" data-name="Path 500" opacity=".1" transform="translate(-270.946 -269.972)"/><path id="Path_501" fill="#fff" d="M733.247,584.972l-24.481-5.442s-58.494,10.885-62.846,15.236c0,0,46.793,9.519,51.961,12.761S733.8,614.353,733.247,584.972Z" data-name="Path 501" transform="translate(-256.098 -261.419)"/><path id="Path_502" fill="#a26565" d="M614.583,710.382c-1.474,2.807-5.1,3.6-8.294,3.643a35.021,35.021,0,0,1-12.965-2.316,75.439,75.439,0,0,0-7.063-2.737c-3.63-1-7.656-.912-10.846-2.909a12.76,12.76,0,0,1-4.077-4.422c-.185-.312-.364-.638-.53-.97a13.664,13.664,0,0,1-1.385-9.621c.849-3.2,3.93-6.731,7.5-6.68,4.243.064,9.3,2.074,13.4,3.114,5.1,1.276,10.208,2.75,14.719,5.449a22.016,22.016,0,0,1,8.894,9.513,16.127,16.127,0,0,1,.842,2.374A7.441,7.441,0,0,1,614.583,710.382Z" data-name="Path 502" transform="translate(-228.276 -299.368)"/><path id="Path_503" d="M615.575,719.631c-1.474,2.807-5.1,3.6-8.294,3.643a35.023,35.023,0,0,1-12.965-2.316,75.442,75.442,0,0,0-7.063-2.737c-3.63-1-7.656-.912-10.846-2.909a12.761,12.761,0,0,1-4.077-4.422c-.185-.313-.364-.638-.53-.97.638.051,1.225.115,1.544.147,3.917.377,7.656,1.806,11.4,2.884a64,64,0,0,0,15.951,2.488c3.828.108,7.822-.172,11.165-2.042a29.3,29.3,0,0,1,3.1-1.7,16.116,16.116,0,0,1,.842,2.373A7.565,7.565,0,0,1,615.575,719.631Z" data-name="Path 503" opacity=".1" transform="translate(-229.268 -308.616)"/><path id="Path_504" fill="#454b69" d="M634.111,533.6c-8.294-1.359-16.742-1.691-25.151-2.023l-10.285-.408a4.665,4.665,0,0,0-2.163.261,14.113,14.113,0,0,0-1.691,1.276,6.994,6.994,0,0,1-3.6.849,179.132,179.132,0,0,0-26.261,3.407c-4.466.912-9.1,2.105-12.461,5.187-3.547,3.26-5.1,8.231-5.225,13.041s1.142,9.539,2.476,14.158a64.5,64.5,0,0,1,2.788,17.137,32.072,32.072,0,0,0,.185,4.83,23.108,23.108,0,0,0,1.346,4.466l4.7,12.537c.415,1.1.823,2.188,1.276,3.26s.887,1.914,1.276,2.922c.574,1.378,1.027,2.807,1.48,4.23l3.126,9.819.408,1.276c1.129,3.535,2.284,7.133,4.415,10.17s5.43,5.487,9.137,5.672a27.992,27.992,0,0,1,3.586.1,14.5,14.5,0,0,1,2.941,1.065,22.438,22.438,0,0,0,8.786,1.716c2.776,0,5.857-.772,7.363-3.107a10.826,10.826,0,0,0,1.276-4.351c.4-3.024.791-6.182-.236-9.054-.638-1.716-1.71-3.19-2.45-4.881-1.034-2.3-1.372-4.849-2.042-7.28a27.8,27.8,0,0,0-8.486-13.5,133.047,133.047,0,0,1-3.19-17.469,15.379,15.379,0,0,0-.772-3.828c-.746-1.914-2.259-3.464-2.89-5.417-.593-1.812-.415-3.9-1.493-5.468,8.977,2.469,17.865,1.914,27.186,1.767a74.294,74.294,0,0,0,8.932-.51,28.076,28.076,0,0,1,4.186-.447c2.884,0,5.589,1.276,8.237,2.4,7.484,3.19,15.37,5.7,23.5,6.042,8.39.351,16.684-1.62,24.883-3.573,3.6-.861,7.35-1.793,10.209-4.16s4.466-6.635,2.705-9.883c-1.34-2.444-4.115-3.643-6.706-4.664-7.171-2.833-14.381-5.6-21.291-9.022C653.564,547,645.672,535.517,634.111,533.6Z" data-name="Path 504" transform="translate(-220.388 -243.903)"/><path id="Path_505" fill="#a1616a" d="M656.681,481.907c-1,2.169-2.686,3.943-3.93,5.985a15.166,15.166,0,0,0-1.914,11.261,12.812,12.812,0,0,0,7.178,8.735,18.013,18.013,0,0,0,4.977,1.2c2.246.274,4.639.332,6.623-.753a9.673,9.673,0,0,0,3.528-3.688,37.4,37.4,0,0,0,3.586-9.328c1.652-5.946,3.063-12.046,2.858-18.216-.07-2.125-.491-4.517-2.252-5.742a7.573,7.573,0,0,0-2.96-.97l-8.416-1.506c-1.627-.294-4.466-1.487-5.876-.313s-1.519,4.645-1.761,6.272A26.479,26.479,0,0,1,656.681,481.907Z" data-name="Path 505" transform="translate(-257.748 -221.072)"/><path id="Path_506" fill="#a1616a" d="M809.932,446.98l-2.2,18.452a84.863,84.863,0,0,0-.785,9.928c0,1.85.057,3.9-1.168,5.289a4.823,4.823,0,0,1-2.195,1.321c-2.673.829-5.589.089-8.141-1.053a6.732,6.732,0,0,1-3.694-3.05,7.577,7.577,0,0,1-.479-3.235c0-11.006,1.04-22.484,6.789-31.863a6.949,6.949,0,0,1,2.023-2.335c1.6-1.021,3.682-.734,5.487-.179,1.11.338,4.109.715,4.817,1.7S810.085,445.71,809.932,446.98Z" data-name="Path 506" transform="translate(-308.703 -210.823)"/><circle id="Ellipse_35" cx="22.969" cy="22.969" r="22.969" fill="#a1616a" data-name="Ellipse 35" transform="translate(419.861 123.494)"/><path id="Path_507" fill="#a1616a" d="M715.121,348.129a11.848,11.848,0,0,1-1.423,5.1q17.59-2.68,35.091-5.972a16.48,16.48,0,0,1-8.141-9.57,27.025,27.025,0,0,1-1.034-6.82,78.837,78.837,0,0,1,.211-10.98c-4.083.427-7.95,1.959-11.842,3.273a116.75,116.75,0,0,1-11.925,3.337c-1.946.434-3.9.8-5.87,1.148-2.3.408-3.4.4-1.806,2.418C712.665,335.451,715.721,340.926,715.121,348.129Z" data-name="Path 507" transform="translate(-278.436 -167.436)"/><path id="Path_508" fill="#ed664c" d="M705.012,356.084c-3.031.453-6.208.963-8.626,2.839a32.55,32.55,0,0,0-2.622,2.52c-4.8,4.664-11.587,6.54-17.418,9.832a7.657,7.657,0,0,0-2.476,1.946c-.638.887-.963,2.016-1.633,2.9-.778,1.021-2.01,1.659-2.616,2.788a7.868,7.868,0,0,0-.536,3.528c-.147,2.635-1.142,5.136-1.914,7.656-3.541,12.065-1.6,25.521-6.961,36.916a5.187,5.187,0,0,0,2.82,2.948,16.016,16.016,0,0,0,4.186.9l11.874,1.474a9.374,9.374,0,0,0,5.047-.3,59.292,59.292,0,0,0-2.992,12.078,60.149,60.149,0,0,1-1.34,7.478c-1.633,5.615-5.742,10.291-10.61,13.488a3.923,3.923,0,0,0-1.5,1.384c-.638,1.276.306,2.705.976,3.956,1.946,3.624,1.678,7.975,1.653,12.084s.389,8.62,3.26,11.567a17.444,17.444,0,0,0,6.278,3.586l18.573,7.42a64.715,64.715,0,0,0,9.456,3.19,56.464,56.464,0,0,0,15,.855q4.976-.211,9.94-.638a7.734,7.734,0,0,0,3.758-.989,7.018,7.018,0,0,0,2.2-2.986c2.584-5.621,3.452-12.18,7.458-16.889,2.75-3.235,7.018-5.819,7.331-10.049.147-2.105-.791-4.154-.8-6.265,0-2.6,1.359-5.066,1.276-7.656-.172-4.217-4.147-7.433-4.779-11.606-1.608-10.578,3.764-21.144,7.063-31.321.593-1.818,1.359-3.828,3.107-4.607s4.211-.37,4.836-2.093a37.186,37.186,0,0,0,1.748-14c-.115-2.661-1.059-5.264-.951-7.931.077-1.876.676-3.7.836-5.57a23.65,23.65,0,0,0-1.276-8.365,13.1,13.1,0,0,0-1-2.82,13.4,13.4,0,0,0-1.659-2.278l-3.107-3.694c-1.455-1.729-2.992-3.522-5.1-4.4-.683-1.691-2.865-2.858-4.428-3.79a45.373,45.373,0,0,0-4.875-2.393L726.9,351.024a7.2,7.2,0,0,0-2.086-.676,6.756,6.756,0,0,0-3.1.638C716.35,353.111,710.755,355.229,705.012,356.084Z" data-name="Path 508" transform="translate(-261.27 -178.459)"/><path id="Path_509" fill="#464353" d="M699.32,295.159c-.676-2.38-2.405-4.434-2.667-6.9-.236-2.188.727-4.307,1.276-6.438s.53-4.734-1.161-6.151c-.281-.242-.638-.459-.74-.817-.2-.638.44-1.219.638-1.863.364-1.276-1.212-2.686-.638-3.911.325-.67,1.142-.906,1.857-1.117,2.731-.81,5.5-2.609,6.093-5.4,2.137.893,4.415-.785,6.055-2.412s3.656-3.484,5.915-2.992l-.5,1.027a16.334,16.334,0,0,1,10.8-.121h-1.072a14.815,14.815,0,0,1,8.543,2.89c-.274,0-.3.408-.191.638.893,2.086,3.19,3.19,5.4,3.707,1.333.319,2.782.549,3.758,1.506s1,2.954-.294,3.413a33.562,33.562,0,0,1,7.407,4.02c.638.466,1.359,1.1,1.276,1.914a6.231,6.231,0,0,1-.4,1.193,4.129,4.129,0,0,0,.134,2.042l.708,2.922c.778,3.248,1.391,7.159-.976,9.513a8.735,8.735,0,0,1-1.538,10.311,4.249,4.249,0,0,1-3.19,5.493,2.862,2.862,0,0,1-1.174,3.739,6.822,6.822,0,0,1-4.237.638,18.083,18.083,0,0,0-4.345-.242c-2.1.325-4.154,1.755-6.176,1.117a13.862,13.862,0,0,1-2.163-1.161,17.55,17.55,0,0,0-4.632-1.276,21.4,21.4,0,0,1-7.484-3.19,8.773,8.773,0,0,1-3.439-3.828c-1.4-3.547.957-8.2-1.525-11.089a4.384,4.384,0,0,0-5.966-.268c-.81.721-.919,2.24-1.761,2.782A11.133,11.133,0,0,1,699.32,295.159Z" data-name="Path 509" transform="translate(-274.189 -144.702)"/><path id="Path_510" d="M650.551,600.181a10.525,10.525,0,0,1-2.316-2.552,4.759,4.759,0,0,1-.7-3.3,9.436,9.436,0,0,0,2.482,8.116c1.6,1.64,4.607,3.248,6.948,2.686C656.631,603.256,652.038,601.444,650.551,600.181Z" data-name="Path 510" opacity=".1" transform="translate(-256.632 -266.776)"/><path id="Path_511" fill="#565661" d="M775.524,440.948s-13.6-7.886-31.557,1.914-20.946,67.471-20.946,67.471,7.344,58.756-20.972,45.683c0,0-51.68-16.046-56.854-12.512,0,0-4.9,0,4.894,2.176s47.629,14.164,47.629,14.164,12.231,4.275,17.412,0,19.862.549,21.769-28.839a511.039,511.039,0,0,1,6.8-55.228l5.047-14.962Z" data-name="Path 511" transform="translate(-255.391 -210.17)"/><path id="Path_512" fill="#fff" d="M817.54,532.436s-5.985-59.579,3.828-81.074c8.537-18.732-24.475-9.972-33.088-7.42a6.272,6.272,0,0,0-3.3,2.361c-5.1,7.178-23.416,35.946-18.018,74.439,0,0,2.176,34.281-11.427,39.717l41.912-13.5c3.4-1.1,6.852-2.01,10.336-2.8C812.219,543.149,819.454,540.284,817.54,532.436Z" data-name="Path 512" transform="translate(-295.774 -210.79)"/><ellipse id="Ellipse_36" cx="62.169" cy="9.985" fill="#ed664c" data-name="Ellipse 36" opacity=".1" rx="62.169" ry="9.985" transform="translate(569.472 417.529)"/><rect id="Rectangle_57" width="4" height="90.07" fill="#535461" data-name="Rectangle 57" transform="translate(629.637 236.227)"/><path id="Path_513" fill="#565661" d="M1036.664,588.462l-.249,4.058-.357,5.742-.147,2.386-.351,5.742-.153,2.386-.357,5.742-4.032,65.123a11.038,11.038,0,0,1-11.012,10.311H999.034a11.025,11.025,0,0,1-11-10.349l-4.045-65.13-.351-5.742-.147-2.386-.364-5.742-.147-2.386-.351-5.742-.255-4.058a5.742,5.742,0,0,1,5.7-6.068h42.888a5.742,5.742,0,0,1,5.7,6.112Z" data-name="Path 513" transform="translate(-377.882 -262.439)"/><path id="Path_514" fill="#9d9cb5" d="M1001.606,517.36l-.357,5.723H948.177l-.357-5.723Z" data-name="Path 514" transform="translate(-343.072 -187.279)"/><path id="Path_515" fill="#9d9cb5" d="M1001.388,530.08l-.351,5.729H948.967l-.357-5.729Z" data-name="Path 515" transform="translate(-343.358 -191.884)"/><path id="Path_516" fill="#9d9cb5" d="M1001.17,542.8l-.357,5.723H949.757L949.4,542.8Z" data-name="Path 516" transform="translate(-343.644 -196.488)"/><path id="Path_517" fill="#ed664c" d="M944.054,493.994c23.3,16.857,33.005,43.22,33.005,43.22s-28.073-.963-51.38-17.82-33-43.214-33-43.214S920.76,477.143,944.054,493.994Z" data-name="Path 517" transform="translate(-345.418 -224.009)"/><path id="Path_518" fill="none" stroke="#535461" stroke-miterlimit="10" stroke-width="2" d="M892.68,476.18s29.139,16.174,38.492,29.566,45.887,31.467,45.887,31.467" data-name="Path 518" transform="translate(-345.418 -224.009)"/><path id="Path_519" fill="#ed664c" d="M980.926,445.378c12.684,9.168,17.967,23.524,17.967,23.524s-15.313-.53-27.965-9.7S953,435.68,953,435.68,968.249,436.2,980.926,445.378Z" data-name="Path 519" transform="translate(-367.252 -209.349)"/><path id="Path_520" fill="none" stroke="#535461" stroke-miterlimit="10" stroke-width="2" d="M953,435.68s15.861,8.8,20.946,16.091S998.925,468.9,998.925,468.9" data-name="Path 520" transform="translate(-367.252 -209.349)"/><path id="Path_521" fill="#ed664c" d="M1043.8,474.655c-14.566,16.008-17.648,36.929-17.648,36.929s20.538-5.04,35.091-21.055,17.648-36.929,17.648-36.929S1058.364,458.647,1043.8,474.655Z" data-name="Path 521" transform="translate(-393.731 -215.835)"/><path id="Path_522" fill="none" stroke="#535461" stroke-miterlimit="10" stroke-width="2" d="M1078.9,453.61s-18.975,16.41-23.8,27.716-28.954,30.262-28.954,30.262" data-name="Path 522" transform="translate(-393.731 -215.839)"/><path id="Path_523" fill="#dfe6f5" d="M567.467,411.5v1.455H524.33v-1.18A14.5,14.5,0,0,0,527.66,410a14.17,14.17,0,0,0,5.921-11.523,13.983,13.983,0,0,0-.44-3.49,14.183,14.183,0,0,0-7.835-9.4h41.867a14.183,14.183,0,0,0-7.835,9.4,13.986,13.986,0,0,0-.434,3.49A14.164,14.164,0,0,0,564.819,410a14.591,14.591,0,0,0,2.648,1.5Z" data-name="Path 523" transform="translate(-212.085 -191.218)"/><path id="Path_524" d="M567.727,385.59a14.183,14.183,0,0,0-7.835,9.4H533.7a14.184,14.184,0,0,0-7.835-9.4Z" data-name="Path 524" opacity=".1" transform="translate(-212.639 -191.218)"/><path id="Path_525" fill="#dfe6f5" d="M446.92,373.94v8.192c0,4.517,3.3,8.186,7.388,8.186h126.91c4.083,0,7.395-3.669,7.395-8.186V373.94Z" data-name="Path 525" transform="translate(-184.065 -187.001)"/><path id="Path_526" d="M567.467,425.349V426.8H524.33v-1.18a14.5,14.5,0,0,0,3.33-1.774h37.159a14.593,14.593,0,0,0,2.648,1.5Z" data-name="Path 526" opacity=".1" transform="translate(-212.085 -205.067)"/><rect id="Rectangle_58" width="71.644" height="4.319" fill="#dfe6f5" data-name="Rectangle 58" rx="2.16" transform="translate(297.991 219.236)"/><path id="Path_527" fill="#474157" d="M588.613,229.118a7.388,7.388,0,0,0-7.395-7.388H454.308a7.382,7.382,0,0,0-7.388,7.388v91.321H588.613Z" data-name="Path 527" transform="translate(-184.065 -131.905)"/><path id="Path_528" fill="#4c4c78" d="M586.94,236.417v78.477a3.637,3.637,0,0,1-3.637,3.643H456.617a3.637,3.637,0,0,1-3.637-3.643V236.417a3.585,3.585,0,0,1,.485-1.818,3.637,3.637,0,0,1,3.152-1.818H583.3A3.637,3.637,0,0,1,586.94,236.417Z" data-name="Path 528" transform="translate(-186.258 -135.904)"/><circle id="Ellipse_37" cx="1.704" cy="1.704" r="1.704" fill="#fff" data-name="Ellipse 37" transform="translate(331.998 91.644)"/><circle id="Ellipse_38" cx="4.205" cy="4.205" r="4.205" fill="#fff" data-name="Ellipse 38" transform="translate(329.497 191.265)"/><path id="Path_529" fill="#c8cad7" d="M586.947,236.417H453a3.637,3.637,0,0,1,3.637-3.637H583.31a3.637,3.637,0,0,1,3.637,3.637Z" data-name="Path 529" transform="translate(-186.266 -135.904)"/><circle id="Ellipse_39" cx=".912" cy=".912" r=".912" fill="#ededf4" data-name="Ellipse 39" transform="translate(269.446 97.782)"/><circle id="Ellipse_40" cx=".912" cy=".912" r=".912" fill="#ededf4" data-name="Ellipse 40" transform="translate(272.177 97.782)"/><circle id="Ellipse_41" cx=".912" cy=".912" r=".912" fill="#ededf4" data-name="Ellipse 41" transform="translate(274.907 97.782)"/></g></svg>