<svg width="209" height="71" viewBox="0 0 209 71" fill="none" xmlns="http://www.w3.org/2000/svg">
<rect x="2" y="2" width="205" height="67" fill="white" stroke="white" stroke-width="3"/>
<path d="M34.0908 29H32.0166V20.8438C32.0166 20.1758 32.0576 19.3584 32.1396 18.3916H32.1045C31.9756 18.9424 31.8613 19.3379 31.7617 19.5781L28 29H26.5586L22.7881 19.6484C22.6826 19.373 22.5713 18.9541 22.4541 18.3916H22.4189C22.4658 18.8955 22.4893 19.7188 22.4893 20.8613V29H20.5557V16.3965H23.5L26.8135 24.79C27.0654 25.4346 27.2295 25.915 27.3057 26.2314H27.3496C27.5664 25.5693 27.7422 25.0771 27.877 24.7549L31.252 16.3965H34.0908V29ZM38.002 18.1104C37.668 18.1104 37.3809 18.002 37.1406 17.7852C36.9062 17.5684 36.7891 17.293 36.7891 16.959C36.7891 16.625 36.9062 16.3467 37.1406 16.124C37.3809 15.9014 37.668 15.79 38.002 15.79C38.3477 15.79 38.6406 15.9014 38.8809 16.124C39.1211 16.3467 39.2412 16.625 39.2412 16.959C39.2412 17.2754 39.1211 17.5479 38.8809 17.7764C38.6406 17.999 38.3477 18.1104 38.002 18.1104ZM39.0127 29H36.9736V20H39.0127V29ZM48.127 28.5869C47.4062 29.0029 46.5537 29.2109 45.5693 29.2109C44.2334 29.2109 43.1553 28.7949 42.335 27.9629C41.5146 27.125 41.1045 26.041 41.1045 24.7109C41.1045 23.2285 41.5439 22.0391 42.4229 21.1426C43.3076 20.2402 44.4883 19.7891 45.9648 19.7891C46.7852 19.7891 47.5088 19.9326 48.1357 20.2197V22.1182C47.5088 21.6494 46.8408 21.415 46.1318 21.415C45.2705 21.415 44.5645 21.708 44.0137 22.2939C43.4629 22.874 43.1875 23.6357 43.1875 24.5791C43.1875 25.5107 43.4453 26.2461 43.9609 26.7852C44.4824 27.3242 45.1797 27.5938 46.0527 27.5938C46.7852 27.5938 47.4766 27.333 48.127 26.8115V28.5869ZM55.3779 21.9424C55.1318 21.749 54.7773 21.6523 54.3145 21.6523C53.7109 21.6523 53.207 21.9248 52.8027 22.4697C52.3984 23.0146 52.1963 23.7559 52.1963 24.6934V29H50.1572V20H52.1963V21.8545H52.2314C52.4307 21.2217 52.7354 20.7295 53.1455 20.3779C53.5615 20.0205 54.0244 19.8418 54.5342 19.8418C54.9033 19.8418 55.1846 19.8975 55.3779 20.0088V21.9424ZM60.6514 29.2109C59.2627 29.2109 58.1523 28.792 57.3203 27.9541C56.4941 27.1104 56.0811 25.9941 56.0811 24.6055C56.0811 23.0938 56.5117 21.9131 57.373 21.0635C58.2402 20.2139 59.4062 19.7891 60.8711 19.7891C62.2773 19.7891 63.373 20.2021 64.1582 21.0283C64.9434 21.8545 65.3359 23 65.3359 24.4648C65.3359 25.9004 64.9111 27.0518 64.0615 27.9189C63.2178 28.7803 62.0811 29.2109 60.6514 29.2109ZM60.748 21.415C59.9512 21.415 59.3213 21.6934 58.8584 22.25C58.3955 22.8066 58.1641 23.5742 58.1641 24.5527C58.1641 25.4961 58.3984 26.2402 58.8672 26.7852C59.3359 27.3242 59.9629 27.5938 60.748 27.5938C61.5508 27.5938 62.166 27.3271 62.5938 26.7939C63.0273 26.2607 63.2441 25.502 63.2441 24.5176C63.2441 23.5273 63.0273 22.7627 62.5938 22.2236C62.166 21.6846 61.5508 21.415 60.748 21.415ZM66.8564 28.7188V26.8291C67.6182 27.4092 68.459 27.6992 69.3789 27.6992C70.6094 27.6992 71.2246 27.3359 71.2246 26.6094C71.2246 26.4043 71.1719 26.2314 71.0664 26.0908C70.9609 25.9443 70.8174 25.8154 70.6357 25.7041C70.46 25.5928 70.249 25.4932 70.0029 25.4053C69.7627 25.3174 69.4932 25.2178 69.1943 25.1064C68.8252 24.96 68.4912 24.8047 68.1924 24.6406C67.8994 24.4766 67.6533 24.292 67.4541 24.0869C67.2607 23.876 67.1143 23.6387 67.0146 23.375C66.915 23.1113 66.8652 22.8037 66.8652 22.4521C66.8652 22.0186 66.9678 21.6377 67.1729 21.3096C67.3779 20.9756 67.6533 20.6973 67.999 20.4746C68.3447 20.2461 68.7373 20.0762 69.1768 19.9648C69.6162 19.8477 70.0703 19.7891 70.5391 19.7891C71.3711 19.7891 72.1152 19.915 72.7715 20.167V21.9512C72.1387 21.5176 71.4121 21.3008 70.5918 21.3008C70.334 21.3008 70.0996 21.3271 69.8887 21.3799C69.6836 21.4326 69.5078 21.5059 69.3613 21.5996C69.2148 21.6934 69.1006 21.8076 69.0186 21.9424C68.9365 22.0713 68.8955 22.2148 68.8955 22.373C68.8955 22.5664 68.9365 22.7305 69.0186 22.8652C69.1006 23 69.2207 23.1201 69.3789 23.2256C69.543 23.3252 69.7363 23.4189 69.959 23.5068C70.1875 23.5889 70.4482 23.6797 70.7412 23.7793C71.1279 23.9375 71.4736 24.0986 71.7783 24.2627C72.0889 24.4268 72.3525 24.6143 72.5693 24.8252C72.7861 25.0303 72.9531 25.2705 73.0703 25.5459C73.1875 25.8154 73.2461 26.1377 73.2461 26.5127C73.2461 26.9697 73.1406 27.3682 72.9297 27.708C72.7188 28.0479 72.4375 28.3291 72.0859 28.5518C71.7344 28.7744 71.3271 28.9385 70.8643 29.0439C70.4072 29.1553 69.9238 29.2109 69.4141 29.2109C68.4297 29.2109 67.5771 29.0469 66.8564 28.7188ZM79.1787 29.2109C77.79 29.2109 76.6797 28.792 75.8477 27.9541C75.0215 27.1104 74.6084 25.9941 74.6084 24.6055C74.6084 23.0938 75.0391 21.9131 75.9004 21.0635C76.7676 20.2139 77.9336 19.7891 79.3984 19.7891C80.8047 19.7891 81.9004 20.2021 82.6855 21.0283C83.4707 21.8545 83.8633 23 83.8633 24.4648C83.8633 25.9004 83.4385 27.0518 82.5889 27.9189C81.7451 28.7803 80.6084 29.2109 79.1787 29.2109ZM79.2754 21.415C78.4785 21.415 77.8486 21.6934 77.3857 22.25C76.9229 22.8066 76.6914 23.5742 76.6914 24.5527C76.6914 25.4961 76.9258 26.2402 77.3945 26.7852C77.8633 27.3242 78.4902 27.5938 79.2754 27.5938C80.0781 27.5938 80.6934 27.3271 81.1211 26.7939C81.5547 26.2607 81.7715 25.502 81.7715 24.5176C81.7715 23.5273 81.5547 22.7627 81.1211 22.2236C80.6934 21.6846 80.0781 21.415 79.2754 21.415ZM90.7363 17.3369C90.4609 17.1787 90.1475 17.0996 89.7959 17.0996C88.8057 17.0996 88.3105 17.6592 88.3105 18.7783V20H90.4023V21.5996H88.3193V29H86.2803V21.5996H84.7422V20H86.2803V18.541C86.2803 17.5918 86.5908 16.8447 87.2119 16.2998C87.833 15.749 88.6094 15.4736 89.541 15.4736C90.0449 15.4736 90.4434 15.5293 90.7363 15.6406V17.3369ZM96.9326 28.9033C96.5342 29.1025 96.0098 29.2021 95.3594 29.2021C93.6133 29.2021 92.7402 28.3643 92.7402 26.6885V21.5996H91.2373V20H92.7402V17.917L94.7793 17.3369V20H96.9326V21.5996H94.7793V26.0996C94.7793 26.6328 94.876 27.0137 95.0693 27.2422C95.2627 27.4707 95.585 27.585 96.0361 27.585C96.3818 27.585 96.6807 27.4854 96.9326 27.2861V28.9033ZM110.854 29H103.876V16.3965H105.968V27.2334H110.854V29ZM120.074 25.0537H113.939C113.963 25.8857 114.218 26.5273 114.704 26.9785C115.196 27.4297 115.87 27.6553 116.726 27.6553C117.687 27.6553 118.568 27.3682 119.371 26.7939V28.4375C118.551 28.9531 117.467 29.2109 116.119 29.2109C114.795 29.2109 113.755 28.8037 112.999 27.9893C112.249 27.1689 111.874 26.0176 111.874 24.5352C111.874 23.1348 112.287 21.9951 113.113 21.1162C113.945 20.2314 114.977 19.7891 116.207 19.7891C117.438 19.7891 118.39 20.1846 119.063 20.9756C119.737 21.7666 120.074 22.8652 120.074 24.2715V25.0537ZM118.105 23.6123C118.1 22.8799 117.927 22.3115 117.587 21.9072C117.247 21.4971 116.778 21.292 116.181 21.292C115.595 21.292 115.097 21.5059 114.687 21.9336C114.282 22.3613 114.033 22.9209 113.939 23.6123H118.105ZM128.925 29H126.947V27.5938H126.912C126.291 28.6719 125.38 29.2109 124.179 29.2109C123.294 29.2109 122.6 28.9707 122.096 28.4902C121.598 28.0098 121.349 27.374 121.349 26.583C121.349 24.8838 122.327 23.8936 124.284 23.6123L126.956 23.2344C126.956 21.9512 126.347 21.3096 125.128 21.3096C124.056 21.3096 123.089 21.6787 122.228 22.417V20.6328C123.177 20.0703 124.272 19.7891 125.515 19.7891C127.788 19.7891 128.925 20.9082 128.925 23.1465V29ZM126.956 24.5791L125.066 24.8428C124.48 24.9189 124.038 25.0625 123.739 25.2734C123.446 25.4785 123.3 25.8418 123.3 26.3633C123.3 26.7441 123.435 27.0576 123.704 27.3037C123.979 27.5439 124.346 27.6641 124.803 27.6641C125.424 27.6641 125.937 27.4473 126.341 27.0137C126.751 26.5742 126.956 26.0234 126.956 25.3613V24.5791ZM136.642 21.9424C136.396 21.749 136.041 21.6523 135.578 21.6523C134.975 21.6523 134.471 21.9248 134.066 22.4697C133.662 23.0146 133.46 23.7559 133.46 24.6934V29H131.421V20H133.46V21.8545H133.495C133.694 21.2217 133.999 20.7295 134.409 20.3779C134.825 20.0205 135.288 19.8418 135.798 19.8418C136.167 19.8418 136.448 19.8975 136.642 20.0088V21.9424ZM146.099 29H144.06V23.9287C144.06 22.2471 143.465 21.4062 142.275 21.4062C141.654 21.4062 141.142 21.6406 140.737 22.1094C140.333 22.5723 140.131 23.1582 140.131 23.8672V29H138.083V20H140.131V21.4941H140.166C140.84 20.3574 141.812 19.7891 143.084 19.7891C144.062 19.7891 144.81 20.1084 145.325 20.7471C145.841 21.3799 146.099 22.2969 146.099 23.498V29ZM19.9756 52.499V50.3457C20.1689 50.5215 20.3975 50.6797 20.6611 50.8203C20.9307 50.9609 21.2148 51.0811 21.5137 51.1807C21.8125 51.2744 22.1113 51.3477 22.4102 51.4004C22.709 51.4531 22.9844 51.4795 23.2363 51.4795C24.1152 51.4795 24.7686 51.333 25.1963 51.04C25.6299 50.7471 25.8467 50.3223 25.8467 49.7656C25.8467 49.4668 25.7734 49.209 25.627 48.9922C25.4863 48.7695 25.2871 48.5674 25.0293 48.3857C24.7715 48.2041 24.4668 48.0312 24.1152 47.8672C23.7695 47.6973 23.3975 47.5215 22.999 47.3398C22.5713 47.1113 22.1729 46.8799 21.8037 46.6455C21.4346 46.4111 21.1123 46.1533 20.8369 45.8721C20.5674 45.585 20.3535 45.2627 20.1953 44.9053C20.043 44.5479 19.9668 44.1289 19.9668 43.6484C19.9668 43.0566 20.0986 42.5439 20.3623 42.1104C20.6318 41.6709 20.9834 41.3105 21.417 41.0293C21.8564 40.7422 22.3545 40.5312 22.9111 40.3965C23.4678 40.2559 24.0361 40.1855 24.6162 40.1855C25.9346 40.1855 26.8955 40.335 27.499 40.6338V42.6992C26.7842 42.1836 25.8643 41.9258 24.7393 41.9258C24.4287 41.9258 24.1182 41.9551 23.8076 42.0137C23.5029 42.0723 23.2275 42.1689 22.9814 42.3037C22.7412 42.4385 22.5449 42.6113 22.3926 42.8223C22.2402 43.0332 22.1641 43.2881 22.1641 43.5869C22.1641 43.8682 22.2227 44.1113 22.3398 44.3164C22.457 44.5215 22.627 44.709 22.8496 44.8789C23.0781 45.0488 23.3535 45.2158 23.6758 45.3799C24.0039 45.5381 24.3818 45.7109 24.8096 45.8984C25.249 46.127 25.6621 46.3672 26.0488 46.6191C26.4414 46.8711 26.7842 47.1494 27.0771 47.4541C27.376 47.7588 27.6104 48.0986 27.7803 48.4736C27.9561 48.8428 28.0439 49.2646 28.0439 49.7393C28.0439 50.3779 27.915 50.917 27.6572 51.3564C27.3994 51.7959 27.0508 52.1533 26.6113 52.4287C26.1777 52.7041 25.6768 52.9033 25.1084 53.0264C24.54 53.1494 23.9395 53.2109 23.3066 53.2109C23.0957 53.2109 22.835 53.1934 22.5244 53.1582C22.2197 53.1289 21.9062 53.082 21.584 53.0176C21.2617 52.959 20.957 52.8857 20.6699 52.7979C20.3828 52.71 20.1514 52.6104 19.9756 52.499ZM34.3545 52.9033C33.9561 53.1025 33.4316 53.2021 32.7812 53.2021C31.0352 53.2021 30.1621 52.3643 30.1621 50.6885V45.5996H28.6592V44H30.1621V41.917L32.2012 41.3369V44H34.3545V45.5996H32.2012V50.0996C32.2012 50.6328 32.2979 51.0137 32.4912 51.2422C32.6846 51.4707 33.0068 51.585 33.458 51.585C33.8037 51.585 34.1025 51.4854 34.3545 51.2861V52.9033ZM43.9609 53H41.9219V51.5762H41.8867C41.2949 52.666 40.375 53.2109 39.127 53.2109C37 53.2109 35.9365 51.9336 35.9365 49.3789V44H37.9756V49.168C37.9756 50.7852 38.5996 51.5938 39.8477 51.5938C40.4512 51.5938 40.9463 51.3711 41.333 50.9258C41.7256 50.4805 41.9219 49.8975 41.9219 49.1768V44H43.9609V53ZM54.8066 53H52.7676V51.4707H52.7324C52.0762 52.6309 51.0654 53.2109 49.7002 53.2109C48.5928 53.2109 47.7051 52.8096 47.0371 52.0068C46.375 51.1982 46.0439 50.0996 46.0439 48.7109C46.0439 47.2227 46.4102 46.0303 47.1426 45.1338C47.8809 44.2373 48.8623 43.7891 50.0869 43.7891C51.2998 43.7891 52.1816 44.2754 52.7324 45.248H52.7676V39.6758H54.8066V53ZM52.7939 48.8867V47.709C52.7939 47.0703 52.5859 46.5283 52.1699 46.083C51.7539 45.6377 51.2236 45.415 50.5791 45.415C49.8174 45.415 49.2168 45.6992 48.7773 46.2676C48.3438 46.8359 48.127 47.624 48.127 48.6318C48.127 49.5459 48.335 50.2695 48.751 50.8027C49.1729 51.3301 49.7383 51.5938 50.4473 51.5938C51.1445 51.5938 51.71 51.3389 52.1436 50.8291C52.5771 50.3135 52.7939 49.666 52.7939 48.8867ZM65.0898 49.0537H58.9551C58.9785 49.8857 59.2334 50.5273 59.7197 50.9785C60.2119 51.4297 60.8857 51.6553 61.7412 51.6553C62.7021 51.6553 63.584 51.3682 64.3867 50.7939V52.4375C63.5664 52.9531 62.4824 53.2109 61.1348 53.2109C59.8105 53.2109 58.7705 52.8037 58.0146 51.9893C57.2646 51.1689 56.8896 50.0176 56.8896 48.5352C56.8896 47.1348 57.3027 45.9951 58.1289 45.1162C58.9609 44.2314 59.9922 43.7891 61.2227 43.7891C62.4531 43.7891 63.4053 44.1846 64.0791 44.9756C64.7529 45.7666 65.0898 46.8652 65.0898 48.2715V49.0537ZM63.1211 47.6123C63.1152 46.8799 62.9424 46.3115 62.6025 45.9072C62.2627 45.4971 61.7939 45.292 61.1963 45.292C60.6104 45.292 60.1123 45.5059 59.7021 45.9336C59.2979 46.3613 59.0488 46.9209 58.9551 47.6123H63.1211ZM75.0479 53H73.0088V47.9287C73.0088 46.2471 72.4141 45.4062 71.2246 45.4062C70.6035 45.4062 70.0908 45.6406 69.6865 46.1094C69.2822 46.5723 69.0801 47.1582 69.0801 47.8672V53H67.0322V44H69.0801V45.4941H69.1152C69.7891 44.3574 70.7617 43.7891 72.0332 43.7891C73.0117 43.7891 73.7588 44.1084 74.2744 44.7471C74.79 45.3799 75.0479 46.2969 75.0479 47.498V53ZM82.29 52.9033C81.8916 53.1025 81.3672 53.2021 80.7168 53.2021C78.9707 53.2021 78.0977 52.3643 78.0977 50.6885V45.5996H76.5947V44H78.0977V41.917L80.1367 41.3369V44H82.29V45.5996H80.1367V50.0996C80.1367 50.6328 80.2334 51.0137 80.4268 51.2422C80.6201 51.4707 80.9424 51.585 81.3936 51.585C81.7393 51.585 82.0381 51.4854 82.29 51.2861V52.9033ZM99.5869 53H97.293L96.1592 49.792H91.2021L90.1123 53H87.8271L92.5469 40.3965H94.9023L99.5869 53ZM95.6055 48.0869L93.8564 43.0596C93.8037 42.8955 93.748 42.6318 93.6895 42.2686H93.6543C93.6016 42.6025 93.543 42.8662 93.4785 43.0596L91.7471 48.0869H95.6055ZM114.555 53H112.516V48.0957C112.516 47.1523 112.381 46.4697 112.111 46.0479C111.848 45.626 111.399 45.415 110.767 45.415C110.233 45.415 109.779 45.6816 109.404 46.2148C109.035 46.748 108.851 47.3867 108.851 48.1309V53H106.803V47.9287C106.803 46.2529 106.211 45.415 105.027 45.415C104.477 45.415 104.022 45.667 103.665 46.1709C103.313 46.6748 103.138 47.3281 103.138 48.1309V53H101.099V44H103.138V45.4238H103.173C103.823 44.334 104.77 43.7891 106.012 43.7891C106.633 43.7891 107.175 43.9619 107.638 44.3076C108.106 44.6475 108.426 45.0957 108.596 45.6523C109.264 44.4102 110.26 43.7891 111.584 43.7891C113.564 43.7891 114.555 45.0107 114.555 47.4541V53ZM119.116 51.6992H119.081V53H117.042V39.6758H119.081V45.582H119.116C119.813 44.3867 120.833 43.7891 122.175 43.7891C123.312 43.7891 124.199 44.1934 124.838 45.002C125.482 45.8047 125.805 46.8828 125.805 48.2363C125.805 49.7422 125.444 50.9492 124.724 51.8574C124.003 52.7598 123.019 53.2109 121.771 53.2109C120.599 53.2109 119.714 52.707 119.116 51.6992ZM119.063 48.1221V49.2383C119.063 49.8945 119.271 50.4512 119.688 50.9082C120.109 51.3652 120.643 51.5938 121.287 51.5938C122.043 51.5938 122.635 51.3008 123.062 50.7148C123.496 50.123 123.713 49.2998 123.713 48.2451C123.713 47.3604 123.511 46.6689 123.106 46.1709C122.708 45.667 122.166 45.415 121.48 45.415C120.754 45.415 120.168 45.6729 119.723 46.1885C119.283 46.7041 119.063 47.3486 119.063 48.1221ZM134.585 53H132.607V51.5938H132.572C131.951 52.6719 131.04 53.2109 129.839 53.2109C128.954 53.2109 128.26 52.9707 127.756 52.4902C127.258 52.0098 127.009 51.374 127.009 50.583C127.009 48.8838 127.987 47.8936 129.944 47.6123L132.616 47.2344C132.616 45.9512 132.007 45.3096 130.788 45.3096C129.716 45.3096 128.749 45.6787 127.888 46.417V44.6328C128.837 44.0703 129.933 43.7891 131.175 43.7891C133.448 43.7891 134.585 44.9082 134.585 47.1465V53ZM132.616 48.5791L130.727 48.8428C130.141 48.9189 129.698 49.0625 129.399 49.2734C129.106 49.4785 128.96 49.8418 128.96 50.3633C128.96 50.7441 129.095 51.0576 129.364 51.3037C129.64 51.5439 130.006 51.6641 130.463 51.6641C131.084 51.6641 131.597 51.4473 132.001 51.0137C132.411 50.5742 132.616 50.0234 132.616 49.3613V48.5791ZM136.519 52.7188V50.8291C137.28 51.4092 138.121 51.6992 139.041 51.6992C140.271 51.6992 140.887 51.3359 140.887 50.6094C140.887 50.4043 140.834 50.2314 140.729 50.0908C140.623 49.9443 140.479 49.8154 140.298 49.7041C140.122 49.5928 139.911 49.4932 139.665 49.4053C139.425 49.3174 139.155 49.2178 138.856 49.1064C138.487 48.96 138.153 48.8047 137.854 48.6406C137.562 48.4766 137.315 48.292 137.116 48.0869C136.923 47.876 136.776 47.6387 136.677 47.375C136.577 47.1113 136.527 46.8037 136.527 46.4521C136.527 46.0186 136.63 45.6377 136.835 45.3096C137.04 44.9756 137.315 44.6973 137.661 44.4746C138.007 44.2461 138.399 44.0762 138.839 43.9648C139.278 43.8477 139.732 43.7891 140.201 43.7891C141.033 43.7891 141.777 43.915 142.434 44.167V45.9512C141.801 45.5176 141.074 45.3008 140.254 45.3008C139.996 45.3008 139.762 45.3271 139.551 45.3799C139.346 45.4326 139.17 45.5059 139.023 45.5996C138.877 45.6934 138.763 45.8076 138.681 45.9424C138.599 46.0713 138.558 46.2148 138.558 46.373C138.558 46.5664 138.599 46.7305 138.681 46.8652C138.763 47 138.883 47.1201 139.041 47.2256C139.205 47.3252 139.398 47.4189 139.621 47.5068C139.85 47.5889 140.11 47.6797 140.403 47.7793C140.79 47.9375 141.136 48.0986 141.44 48.2627C141.751 48.4268 142.015 48.6143 142.231 48.8252C142.448 49.0303 142.615 49.2705 142.732 49.5459C142.85 49.8154 142.908 50.1377 142.908 50.5127C142.908 50.9697 142.803 51.3682 142.592 51.708C142.381 52.0479 142.1 52.3291 141.748 52.5518C141.396 52.7744 140.989 52.9385 140.526 53.0439C140.069 53.1553 139.586 53.2109 139.076 53.2109C138.092 53.2109 137.239 53.0469 136.519 52.7188ZM144.288 52.7188V50.8291C145.05 51.4092 145.891 51.6992 146.811 51.6992C148.041 51.6992 148.656 51.3359 148.656 50.6094C148.656 50.4043 148.604 50.2314 148.498 50.0908C148.393 49.9443 148.249 49.8154 148.067 49.7041C147.892 49.5928 147.681 49.4932 147.435 49.4053C147.194 49.3174 146.925 49.2178 146.626 49.1064C146.257 48.96 145.923 48.8047 145.624 48.6406C145.331 48.4766 145.085 48.292 144.886 48.0869C144.692 47.876 144.546 47.6387 144.446 47.375C144.347 47.1113 144.297 46.8037 144.297 46.4521C144.297 46.0186 144.399 45.6377 144.604 45.3096C144.81 44.9756 145.085 44.6973 145.431 44.4746C145.776 44.2461 146.169 44.0762 146.608 43.9648C147.048 43.8477 147.502 43.7891 147.971 43.7891C148.803 43.7891 149.547 43.915 150.203 44.167V45.9512C149.57 45.5176 148.844 45.3008 148.023 45.3008C147.766 45.3008 147.531 45.3271 147.32 45.3799C147.115 45.4326 146.939 45.5059 146.793 45.5996C146.646 45.6934 146.532 45.8076 146.45 45.9424C146.368 46.0713 146.327 46.2148 146.327 46.373C146.327 46.5664 146.368 46.7305 146.45 46.8652C146.532 47 146.652 47.1201 146.811 47.2256C146.975 47.3252 147.168 47.4189 147.391 47.5068C147.619 47.5889 147.88 47.6797 148.173 47.7793C148.56 47.9375 148.905 48.0986 149.21 48.2627C149.521 48.4268 149.784 48.6143 150.001 48.8252C150.218 49.0303 150.385 49.2705 150.502 49.5459C150.619 49.8154 150.678 50.1377 150.678 50.5127C150.678 50.9697 150.572 51.3682 150.361 51.708C150.15 52.0479 149.869 52.3291 149.518 52.5518C149.166 52.7744 148.759 52.9385 148.296 53.0439C147.839 53.1553 147.355 53.2109 146.846 53.2109C145.861 53.2109 145.009 53.0469 144.288 52.7188ZM159.528 53H157.551V51.5938H157.516C156.895 52.6719 155.983 53.2109 154.782 53.2109C153.897 53.2109 153.203 52.9707 152.699 52.4902C152.201 52.0098 151.952 51.374 151.952 50.583C151.952 48.8838 152.931 47.8936 154.888 47.6123L157.56 47.2344C157.56 45.9512 156.95 45.3096 155.731 45.3096C154.659 45.3096 153.692 45.6787 152.831 46.417V44.6328C153.78 44.0703 154.876 43.7891 156.118 43.7891C158.392 43.7891 159.528 44.9082 159.528 47.1465V53ZM157.56 48.5791L155.67 48.8428C155.084 48.9189 154.642 49.0625 154.343 49.2734C154.05 49.4785 153.903 49.8418 153.903 50.3633C153.903 50.7441 154.038 51.0576 154.308 51.3037C154.583 51.5439 154.949 51.6641 155.406 51.6641C156.027 51.6641 156.54 51.4473 156.944 51.0137C157.354 50.5742 157.56 50.0234 157.56 49.3613V48.5791ZM170.207 53H168.168V51.4707H168.133C167.477 52.6309 166.466 53.2109 165.101 53.2109C163.993 53.2109 163.105 52.8096 162.438 52.0068C161.775 51.1982 161.444 50.0996 161.444 48.7109C161.444 47.2227 161.811 46.0303 162.543 45.1338C163.281 44.2373 164.263 43.7891 165.487 43.7891C166.7 43.7891 167.582 44.2754 168.133 45.248H168.168V39.6758H170.207V53ZM168.194 48.8867V47.709C168.194 47.0703 167.986 46.5283 167.57 46.083C167.154 45.6377 166.624 45.415 165.979 45.415C165.218 45.415 164.617 45.6992 164.178 46.2676C163.744 46.8359 163.527 47.624 163.527 48.6318C163.527 49.5459 163.735 50.2695 164.151 50.8027C164.573 51.3301 165.139 51.5938 165.848 51.5938C166.545 51.5938 167.11 51.3389 167.544 50.8291C167.978 50.3135 168.194 49.666 168.194 48.8867ZM176.86 53.2109C175.472 53.2109 174.361 52.792 173.529 51.9541C172.703 51.1104 172.29 49.9941 172.29 48.6055C172.29 47.0938 172.721 45.9131 173.582 45.0635C174.449 44.2139 175.615 43.7891 177.08 43.7891C178.486 43.7891 179.582 44.2021 180.367 45.0283C181.152 45.8545 181.545 47 181.545 48.4648C181.545 49.9004 181.12 51.0518 180.271 51.9189C179.427 52.7803 178.29 53.2109 176.86 53.2109ZM176.957 45.415C176.16 45.415 175.53 45.6934 175.067 46.25C174.604 46.8066 174.373 47.5742 174.373 48.5527C174.373 49.4961 174.607 50.2402 175.076 50.7852C175.545 51.3242 176.172 51.5938 176.957 51.5938C177.76 51.5938 178.375 51.3271 178.803 50.7939C179.236 50.2607 179.453 49.502 179.453 48.5176C179.453 47.5273 179.236 46.7627 178.803 46.2236C178.375 45.6846 177.76 45.415 176.957 45.415ZM188.849 45.9424C188.603 45.749 188.248 45.6523 187.785 45.6523C187.182 45.6523 186.678 45.9248 186.273 46.4697C185.869 47.0146 185.667 47.7559 185.667 48.6934V53H183.628V44H185.667V45.8545H185.702C185.901 45.2217 186.206 44.7295 186.616 44.3779C187.032 44.0205 187.495 43.8418 188.005 43.8418C188.374 43.8418 188.655 43.8975 188.849 44.0088V45.9424ZM189.851 52.7188V50.8291C190.612 51.4092 191.453 51.6992 192.373 51.6992C193.604 51.6992 194.219 51.3359 194.219 50.6094C194.219 50.4043 194.166 50.2314 194.061 50.0908C193.955 49.9443 193.812 49.8154 193.63 49.7041C193.454 49.5928 193.243 49.4932 192.997 49.4053C192.757 49.3174 192.487 49.2178 192.188 49.1064C191.819 48.96 191.485 48.8047 191.187 48.6406C190.894 48.4766 190.647 48.292 190.448 48.0869C190.255 47.876 190.108 47.6387 190.009 47.375C189.909 47.1113 189.859 46.8037 189.859 46.4521C189.859 46.0186 189.962 45.6377 190.167 45.3096C190.372 44.9756 190.647 44.6973 190.993 44.4746C191.339 44.2461 191.731 44.0762 192.171 43.9648C192.61 43.8477 193.064 43.7891 193.533 43.7891C194.365 43.7891 195.109 43.915 195.766 44.167V45.9512C195.133 45.5176 194.406 45.3008 193.586 45.3008C193.328 45.3008 193.094 45.3271 192.883 45.3799C192.678 45.4326 192.502 45.5059 192.355 45.5996C192.209 45.6934 192.095 45.8076 192.013 45.9424C191.931 46.0713 191.89 46.2148 191.89 46.373C191.89 46.5664 191.931 46.7305 192.013 46.8652C192.095 47 192.215 47.1201 192.373 47.2256C192.537 47.3252 192.73 47.4189 192.953 47.5068C193.182 47.5889 193.442 47.6797 193.735 47.7793C194.122 47.9375 194.468 48.0986 194.772 48.2627C195.083 48.4268 195.347 48.6143 195.563 48.8252C195.78 49.0303 195.947 49.2705 196.064 49.5459C196.182 49.8154 196.24 50.1377 196.24 50.5127C196.24 50.9697 196.135 51.3682 195.924 51.708C195.713 52.0479 195.432 52.3291 195.08 52.5518C194.729 52.7744 194.321 52.9385 193.858 53.0439C193.401 53.1553 192.918 53.2109 192.408 53.2109C191.424 53.2109 190.571 53.0469 189.851 52.7188Z" fill="black"/>
</svg>
