<svg width="572" height="238" viewBox="0 0 572 238" fill="none" xmlns="http://www.w3.org/2000/svg">
<ellipse cx="448.5" cy="176" rx="25.5" ry="26" fill="#ED654B"/>
<path fill-rule="evenodd" clip-rule="evenodd" d="M436.951 184.66C438.396 184.66 439.568 183.64 439.568 182.382C439.568 181.125 438.396 180.105 436.951 180.105C435.506 180.105 434.334 181.125 434.334 182.382C434.334 183.64 435.506 184.66 436.951 184.66ZM436.951 183.694C437.783 183.694 438.458 183.107 438.458 182.382C438.458 181.658 437.783 181.071 436.951 181.071C436.119 181.071 435.444 181.658 435.444 182.382C435.444 183.107 436.119 183.694 436.951 183.694Z" fill="black"/>
<path d="M437.42 180.441C438.982 174.44 432.691 168.912 437.42 164.029C442.982 158.286 453.845 158.286 459.407 164.029C464.136 168.912 456.979 174.268 459.407 180.441" stroke="black"/>
<path fill-rule="evenodd" clip-rule="evenodd" d="M460.326 184.66C461.771 184.66 462.943 183.64 462.943 182.382C462.943 181.125 461.771 180.105 460.326 180.105C458.881 180.105 457.709 181.125 457.709 182.382C457.709 183.64 458.881 184.66 460.326 184.66ZM460.326 183.694C461.158 183.694 461.833 183.107 461.833 182.382C461.833 181.658 461.158 181.071 460.326 181.071C459.494 181.071 458.82 181.658 458.82 182.382C458.82 183.107 459.494 183.694 460.326 183.694Z" fill="black"/>
<path fill-rule="evenodd" clip-rule="evenodd" d="M442.618 174.396C444.063 174.396 445.235 173.377 445.235 172.119C445.235 170.862 444.063 169.842 442.618 169.842C441.173 169.842 440.001 170.862 440.001 172.119C440.001 173.377 441.173 174.396 442.618 174.396ZM442.618 173.43C443.45 173.43 444.125 172.843 444.125 172.119C444.125 171.395 443.45 170.808 442.618 170.808C441.786 170.808 441.111 171.395 441.111 172.119C441.111 172.843 441.786 173.43 442.618 173.43Z" fill="black"/>
<path fill-rule="evenodd" clip-rule="evenodd" d="M453.95 174.396C455.395 174.396 456.567 173.377 456.567 172.119C456.567 170.862 455.395 169.842 453.95 169.842C452.505 169.842 451.333 170.862 451.333 172.119C451.333 173.377 452.505 174.396 453.95 174.396ZM453.95 173.43C454.782 173.43 455.456 172.843 455.456 172.119C455.456 171.395 454.782 170.808 453.95 170.808C453.117 170.808 452.443 171.395 452.443 172.119C452.443 172.843 453.117 173.43 453.95 173.43Z" fill="black"/>
<path fill-rule="evenodd" clip-rule="evenodd" d="M448.549 191.718C449.994 191.718 451.166 190.699 451.166 189.441C451.166 188.183 449.994 187.164 448.549 187.164C447.103 187.164 445.932 188.183 445.932 189.441C445.932 190.699 447.103 191.718 448.549 191.718ZM448.548 190.752C449.38 190.752 450.055 190.165 450.055 189.441C450.055 188.717 449.38 188.13 448.548 188.13C447.716 188.13 447.041 188.717 447.041 189.441C447.041 190.165 447.716 190.752 448.548 190.752Z" fill="black"/>
<path d="M448.477 177.586V187.715M448.477 177.586L444.397 173.388M448.477 177.586L452.668 173.388" stroke="black"/>
<path d="M166.049 179.164C172.568 171.414 177.184 162.288 179.538 152.494C180.701 147.643 181.283 142.674 181.272 137.689H39.3527C39.3496 142.545 39.9154 147.386 41.0387 152.115C43.3928 162.216 48.1294 171.629 54.8647 179.591C61.6355 187.575 70.1224 193.977 79.712 198.334C89.3016 202.692 99.7542 204.897 110.314 204.789C132.955 204.741 153.091 194.776 166.049 179.164ZM206.371 73.0548C209.379 82.5808 210.906 92.5006 210.899 102.477V211.907C210.897 216.741 209.116 221.411 205.887 225.051C202.658 228.691 198.198 231.054 193.335 231.703C188.472 232.351 183.535 231.242 179.439 228.579C175.344 225.917 172.366 221.882 171.059 217.222C170.688 215.727 169.825 214.395 168.605 213.434C167.385 212.473 165.877 211.936 164.315 211.907H163.399C161.837 211.936 160.329 212.473 159.109 213.434C157.889 214.395 157.026 215.727 156.655 217.222C155.472 221.437 152.918 225.154 149.385 227.802C145.852 230.451 141.535 231.885 137.096 231.885C132.657 231.885 128.34 230.451 124.807 227.802C121.274 225.154 118.72 221.437 117.537 217.222C117.166 215.727 116.303 214.395 115.083 213.434C113.863 212.473 112.355 211.936 110.793 211.907H109.831C108.269 211.936 106.76 212.473 105.54 213.434C104.32 214.395 103.457 215.727 103.086 217.222C101.903 221.437 99.3494 225.154 95.8166 227.802C92.2839 230.451 87.9669 231.885 83.5274 231.885C79.0879 231.885 74.771 230.451 71.2382 227.802C67.7054 225.154 65.1518 221.437 63.9689 217.222C63.5975 215.727 62.7346 214.395 61.5147 213.434C60.2947 212.473 58.7862 211.936 57.2242 211.907H56.3087C54.7467 211.936 53.2382 212.473 52.0183 213.434C50.7983 214.395 49.9355 215.727 49.5641 217.222C48.2572 221.882 45.2799 225.917 41.184 228.579C37.088 231.242 32.1512 232.351 27.2882 231.703C22.4253 231.054 17.9659 228.691 14.7364 225.051C11.507 221.411 9.7264 216.741 9.72463 211.907V102.428C9.71802 92.4518 11.2451 82.5327 14.254 73.0074L19.6976 74.5735C18.4573 78.6051 17.8241 82.7942 17.8184 87.0069C17.8184 98.1075 22.295 108.753 30.2632 116.603C38.2315 124.452 49.0387 128.862 60.3075 128.862C71.5763 128.862 82.3836 124.452 90.3518 116.603C98.3201 108.753 102.797 98.1075 102.797 87.0069H117.78C117.78 92.5034 118.879 97.946 121.014 103.024C123.15 108.102 126.279 112.716 130.225 116.603C134.17 120.489 138.854 123.572 144.009 125.676C149.164 127.779 154.689 128.862 160.269 128.862C165.849 128.862 171.374 127.779 176.529 125.676C181.684 123.572 186.368 120.489 190.313 116.603C194.259 112.716 197.389 108.102 199.524 103.024C201.659 97.946 202.758 92.5034 202.758 87.0069C202.756 82.794 202.123 78.6044 200.88 74.5735L206.371 73.0548Z" fill="#EF644D"/>
<path d="M206.374 73.0548L200.93 74.6208C197.905 65.0635 191.504 56.89 182.888 51.5816C174.271 46.2731 164.009 44.181 153.962 45.6844C143.914 47.1878 134.746 52.1872 128.118 59.7766C121.49 67.3659 117.842 77.0431 117.834 87.0542H102.85C102.849 77.039 99.2031 67.356 92.5751 59.7614C85.9471 52.1669 76.7756 47.1638 66.7239 45.6595C56.6722 44.1552 46.4061 46.2494 37.7874 51.5622C29.1688 56.875 22.7685 65.0546 19.7472 74.6174L14.3037 73.0514C20.6746 52.8685 33.4313 35.2218 50.7095 22.6901C67.9877 10.1584 88.8817 3.39856 110.338 3.39856C131.794 3.39856 152.688 10.1584 169.967 22.6901C187.245 35.2218 200.001 52.8685 206.372 73.0514L206.374 73.0548Z" fill="#ED654B"/>
<path d="M200.878 74.6206C202.118 78.6523 202.751 82.8413 202.757 87.054C202.72 97.5697 198.652 107.683 191.367 115.37C184.082 123.057 174.118 127.749 163.471 128.507C152.824 129.265 142.279 126.033 133.947 119.458C125.616 112.884 120.114 103.451 118.542 93.0502C116.97 82.6491 119.444 72.047 125.47 63.3668C131.496 54.6865 140.628 48.5689 151.038 46.2388C161.447 43.9088 172.366 45.5383 181.608 50.8012C190.85 56.064 197.733 64.5717 200.878 74.6206ZM182.09 87.0534C182.09 82.811 180.813 78.6639 178.421 75.1365C176.028 71.6091 172.627 68.8598 168.648 67.2364C164.669 65.6129 160.291 65.1881 156.067 66.0157C151.843 66.8434 147.964 68.8863 144.918 71.8861C141.873 74.8859 139.799 78.7079 138.959 82.8687C138.119 87.0296 138.55 91.3424 140.198 95.2618C141.846 99.1813 144.637 102.531 148.218 104.888C151.799 107.245 156.009 108.503 160.315 108.503C163.176 108.506 166.009 107.953 168.652 106.876C171.295 105.799 173.697 104.22 175.719 102.227C177.742 100.235 179.346 97.8691 180.439 95.2653C181.532 92.6616 182.093 89.871 182.09 87.0534Z" fill="#FEC761"/>
<path d="M39.3516 137.64H181.271C181.285 142.625 180.703 147.595 179.537 152.446L177.803 152.066H41.0355C39.9102 147.338 39.3451 142.497 39.3516 137.64V137.64Z" fill="white"/>
<path d="M164.65 72.0582C166.374 72.0582 168.06 72.562 169.494 73.5058C170.928 74.4495 172.046 75.791 172.705 77.3604C173.365 78.9299 173.538 80.6569 173.202 82.323C172.865 83.9891 172.035 85.5196 170.815 86.7208C169.596 87.922 168.042 88.74 166.351 89.0714C164.66 89.4028 162.906 89.2328 161.313 88.5827C159.72 87.9326 158.358 86.8317 157.4 85.4192C156.442 84.0067 155.931 82.3461 155.931 80.6474C155.93 79.5193 156.156 78.4023 156.594 77.3601C157.032 76.3179 157.674 75.371 158.484 74.5733C159.294 73.7757 160.255 73.143 161.313 72.7115C162.371 72.2799 163.505 72.058 164.65 72.0582Z" fill="white"/>
<path d="M149.427 91.3242C150.282 91.3336 151.115 91.592 151.822 92.0669C152.529 92.5419 153.077 93.2121 153.398 93.9933C153.719 94.7744 153.798 95.6316 153.625 96.457C153.452 97.2823 153.035 98.0388 152.427 98.6314C151.819 99.2239 151.046 99.626 150.207 99.787C149.367 99.948 148.498 99.8607 147.708 99.5361C146.919 99.2115 146.245 98.6641 145.77 97.9628C145.296 97.2616 145.043 96.4377 145.043 95.5951C145.057 94.4585 145.525 93.3732 146.346 92.574C147.166 91.7747 148.273 91.3257 149.427 91.3242V91.3242Z" fill="white"/>
<path d="M60.3065 45.1987C68.71 45.1987 76.9248 47.6535 83.9121 52.2525C90.8994 56.8516 96.3454 63.3884 99.5613 71.0364C102.777 78.6844 103.619 87.1 101.979 95.2191C100.34 103.338 96.293 110.796 90.3508 116.649C84.4086 122.503 76.8377 126.489 68.5957 128.104C60.3536 129.719 51.8105 128.89 44.0466 125.722C36.2827 122.555 29.6468 117.19 24.9781 110.307C20.3093 103.424 17.8174 95.3317 17.8174 87.0536C17.8195 82.8406 18.4527 78.651 19.6965 74.6201C22.3996 66.0934 27.7973 58.6403 35.1025 53.3478C42.4077 48.0553 51.2383 45.2001 60.3065 45.1987ZM82.0813 87.0536C82.0813 82.8112 80.8042 78.6641 78.4115 75.1367C76.0189 71.6093 72.6181 68.8601 68.6393 67.2366C64.6605 65.6131 60.2823 65.1883 56.0584 66.016C51.8345 66.8436 47.9546 68.8865 44.9094 71.8863C41.8641 74.8861 39.7902 78.7081 38.9501 82.8689C38.1099 87.0298 38.5411 91.3426 40.1892 95.2621C41.8373 99.1815 44.6282 102.531 48.209 104.888C51.7899 107.245 55.9998 108.503 60.3065 108.503C63.1668 108.506 65.9997 107.953 68.6428 106.877C71.286 105.8 73.6877 104.22 75.7102 102.227C77.7328 100.235 79.3366 97.8693 80.4298 95.2655C81.5231 92.6618 82.0843 89.8712 82.0813 87.0536Z" fill="#FEC758"/>
<path d="M64.69 72.0581C66.4145 72.0581 68.1002 72.5619 69.5341 73.5056C70.968 74.4494 72.0856 75.7909 72.7455 77.3603C73.4055 78.9298 73.5781 80.6568 73.2417 82.3229C72.9053 83.989 72.0748 85.5194 70.8554 86.7206C69.636 87.9219 68.0824 88.7399 66.391 89.0713C64.6996 89.4027 62.9465 89.2326 61.3533 88.5825C59.76 87.9324 58.3983 86.8315 57.4402 85.4191C56.4821 84.0066 55.9707 82.346 55.9707 80.6472C55.9704 79.5192 56.1958 78.4022 56.6339 77.36C57.072 76.3178 57.7142 75.3708 58.5239 74.5732C59.3336 73.7756 60.2949 73.1429 61.3529 72.7114C62.4109 72.2798 63.5449 72.0578 64.69 72.0581Z" fill="white"/>
<path d="M60.1144 185.094C58.2656 183.337 56.5128 181.483 54.8633 179.543L55.297 179.163H58.4765C72.9346 179.157 87.2991 181.449 101.016 185.949L110.314 188.986L118.214 186.376C132.831 181.577 148.136 179.125 163.543 179.115H166.048C159.648 186.597 151.765 192.714 142.883 197.092C134 201.469 124.304 204.016 114.388 204.576C104.472 205.135 94.5446 203.696 85.2126 200.347C75.8805 196.997 67.3403 191.807 60.1144 185.094V185.094Z" fill="#7FB8E3"/>
<path d="M49.4677 91.3242C50.3231 91.3336 51.1566 91.592 51.8632 92.0669C52.5698 92.5419 53.118 93.2121 53.4388 93.9933C53.7596 94.7744 53.8386 95.6316 53.6659 96.457C53.4932 97.2823 53.0766 98.0388 52.4684 98.6314C51.8601 99.224 51.0876 99.626 50.2479 99.787C49.4082 99.948 48.5389 99.8607 47.7495 99.5361C46.9601 99.2115 46.2858 98.6641 45.8115 97.9629C45.3372 97.2616 45.0841 96.4378 45.084 95.5951C45.0816 95.0296 45.1937 94.4692 45.4137 93.9469C45.6337 93.4245 45.9573 92.9506 46.3655 92.5529C46.7737 92.1552 47.2583 91.8417 47.791 91.6308C48.3236 91.4198 48.8937 91.3156 49.4677 91.3242V91.3242Z" fill="white"/>
<path d="M160.316 65.6045C156.009 65.6045 151.799 66.8625 148.218 69.2194C144.638 71.5764 141.847 74.9264 140.199 78.8458C138.55 82.7652 138.119 87.0781 138.959 91.2389C139.8 95.3998 141.873 99.2218 144.919 102.222C147.964 105.221 151.844 107.264 156.068 108.092C160.292 108.92 164.67 108.495 168.649 106.871C172.628 105.248 176.028 102.499 178.421 98.9711C180.814 95.4437 182.091 91.2966 182.091 87.0543C182.094 84.2366 181.532 81.4461 180.439 78.8423C179.346 76.2386 177.742 73.8728 175.72 71.8804C173.697 69.8881 171.295 68.3082 168.652 67.2313C166.009 66.1544 163.176 65.6016 160.316 65.6045ZM149.429 99.9143C148.571 99.9143 147.733 99.6638 147.02 99.1945C146.307 98.7252 145.751 98.0582 145.423 97.2778C145.095 96.4974 145.009 95.6387 145.177 94.8102C145.344 93.9817 145.757 93.2207 146.363 92.6234C146.969 92.0262 147.742 91.6194 148.583 91.4546C149.424 91.2898 150.296 91.3744 151.088 91.6976C151.88 92.0209 152.557 92.5683 153.034 93.2706C153.51 93.973 153.764 94.7987 153.764 95.6434C153.758 96.7743 153.299 97.8573 152.487 98.6569C151.676 99.4566 150.576 99.9084 149.428 99.9143H149.429ZM164.651 89.1897C162.927 89.1897 161.241 88.686 159.807 87.7422C158.373 86.7984 157.256 85.457 156.596 83.8875C155.936 82.3181 155.763 80.5911 156.1 78.9249C156.436 77.2588 157.267 75.7284 158.486 74.5272C159.705 73.326 161.259 72.5079 162.95 72.1765C164.642 71.8451 166.395 72.0152 167.988 72.6653C169.581 73.3154 170.943 74.4163 171.901 75.8287C172.859 77.2412 173.371 78.9018 173.371 80.6006C173.371 81.7286 173.146 82.8456 172.708 83.8878C172.269 84.93 171.627 85.877 170.817 86.6746C170.008 87.4722 169.046 88.1049 167.988 88.5364C166.93 88.968 165.797 89.19 164.651 89.1897Z" fill="black"/>
<path d="M60.307 108.503C64.6137 108.503 68.8236 107.245 72.4045 104.888C75.9853 102.531 78.7762 99.1814 80.4243 95.262C82.0724 91.3426 82.5036 87.0297 81.6634 82.8689C80.8232 78.708 78.7494 74.8861 75.7041 71.8863C72.6589 68.8864 68.779 66.8436 64.5551 66.0159C60.3312 65.1883 55.953 65.6131 51.9742 67.2365C47.9954 68.86 44.5946 71.6093 42.202 75.1367C39.8093 78.6641 38.5322 82.8112 38.5322 87.0535C38.5293 89.8712 39.0904 92.6618 40.1837 95.2655C41.2769 97.8692 42.8807 100.235 44.9033 102.227C46.9258 104.22 49.3275 105.8 51.9706 106.877C54.6138 107.953 57.4467 108.506 60.307 108.503ZM64.6907 72.0581C66.4152 72.0581 68.101 72.5619 69.5349 73.5057C70.9688 74.4494 72.0863 75.7909 72.7463 77.3603C73.4062 78.9298 73.5789 80.6568 73.2424 82.3229C72.906 83.989 72.0756 85.5195 70.8562 86.7207C69.6368 87.9219 68.0831 88.7399 66.3918 89.0713C64.7004 89.4027 62.9472 89.2326 61.354 88.5825C59.7608 87.9325 58.399 86.8316 57.4409 85.4191C56.4828 84.0066 55.9715 82.346 55.9715 80.6472C55.9712 79.5192 56.1965 78.4022 56.6346 77.36C57.0727 76.3178 57.715 75.3709 58.5247 74.5732C59.3344 73.7756 60.2957 73.1429 61.3537 72.7114C62.4117 72.2798 63.5456 72.0579 64.6907 72.0581ZM49.4674 91.3251C50.3228 91.3344 51.1562 91.5928 51.8629 92.0678C52.5695 92.5427 53.1177 93.2129 53.4385 93.9941C53.7593 94.7753 53.8383 95.6325 53.6656 96.4578C53.4929 97.2831 53.0763 98.0397 52.468 98.6322C51.8598 99.2248 51.0873 99.6269 50.2476 99.7879C49.4079 99.9489 48.5386 99.8616 47.7492 99.537C46.9598 99.2124 46.2855 98.665 45.8112 97.9637C45.3369 97.2624 45.0838 96.4386 45.0837 95.5959C45.0813 95.0304 45.1933 94.4701 45.4134 93.9477C45.6334 93.4253 45.957 92.9515 46.3652 92.5538C46.7734 92.1561 47.258 91.8426 47.7907 91.6316C48.3233 91.4206 48.8934 91.3164 49.4674 91.3251Z" fill="black"/>
<path d="M180.025 30.3705C162.103 12.7391 138.336 2.05294 113.072 0.266637C87.8085 -1.51967 62.7361 5.71333 42.4417 20.6425C24.6427 33.7764 11.4817 52.0862 4.81739 72.9863C1.62107 82.9489 -0.00365476 93.3359 6.17296e-06 103.784V213.213C0.0106478 219.197 2.21889 224.975 6.21693 229.48C10.215 233.984 15.7327 236.912 21.7512 237.722C27.7697 238.532 33.8824 237.169 38.9604 233.885C44.0384 230.602 47.7388 225.619 49.378 219.857C49.487 219.38 49.755 218.953 50.1391 218.643C50.5232 218.334 51.0015 218.16 51.4977 218.149H52.4132C52.9135 218.171 53.3925 218.355 53.7758 218.672C54.1591 218.989 54.4253 219.423 54.5329 219.904C56.0077 225.105 59.1699 229.688 63.5365 232.952C67.9031 236.217 73.2343 237.984 78.716 237.984C84.1978 237.984 89.529 236.217 93.8956 232.952C98.2623 229.688 101.424 225.105 102.899 219.904C103.006 219.422 103.272 218.989 103.655 218.671C104.039 218.353 104.518 218.17 105.019 218.149H105.981C106.482 218.168 106.962 218.351 107.346 218.669C107.73 218.987 107.995 219.422 108.101 219.904C109.576 225.105 112.738 229.688 117.104 232.952C121.471 236.217 126.802 237.984 132.284 237.984C137.766 237.984 143.097 236.217 147.464 232.952C151.83 229.688 154.992 225.105 156.467 219.904C156.568 219.419 156.832 218.982 157.216 218.663C157.601 218.344 158.084 218.163 158.587 218.149H159.502C160.004 218.169 160.484 218.352 160.868 218.67C161.252 218.989 161.517 219.424 161.622 219.907C163.262 225.673 166.967 230.658 172.05 233.942C177.133 237.225 183.251 238.585 189.273 237.769C195.294 236.953 200.813 234.016 204.807 229.503C208.801 224.989 211.001 219.204 211 213.216V103.783C211.004 93.3345 209.379 82.9476 206.183 72.985C201.084 56.9082 192.109 42.2868 180.025 30.3705ZM193.176 88.4076C193.166 97.7565 189.571 106.757 183.111 113.605C176.651 120.454 167.802 124.645 158.338 125.34C148.873 126.034 139.492 123.18 132.073 117.35C124.654 111.52 119.745 103.144 118.329 93.8998C116.913 84.6554 119.096 75.2255 124.439 67.4989C129.782 59.7724 137.891 54.3196 147.142 52.233C156.393 50.1463 166.103 51.5799 174.327 56.2464C182.551 60.913 188.681 68.4679 191.49 77.398C192.61 80.9636 193.179 84.6751 193.177 88.4076H193.176ZM170.823 148.865H40.1735C39.8842 146.969 39.6924 145.543 39.5474 143.644H171.451C171.306 145.543 171.113 146.967 170.824 148.865H170.823ZM63.9745 134.154C84.4964 130.833 100.442 113.748 102.562 93.3433H108.391C110.511 113.749 126.456 130.833 146.978 134.154H63.9745ZM48.222 28.233C66.6566 14.6708 89.4336 8.10342 112.382 9.73348C135.331 11.3636 156.916 21.0819 173.185 37.1092C178.023 41.9004 182.334 47.1814 186.047 52.8643C185.325 52.2475 184.554 51.6307 183.783 51.0613C175.608 45.0459 165.66 41.8293 155.457 41.9021C143.724 41.8878 132.406 46.1752 123.706 53.9295C115.005 61.6839 109.546 72.3502 108.391 83.8517H102.562C101.714 75.6461 98.6742 67.8084 93.7517 61.1364C88.8291 54.4645 82.1997 49.1967 74.5383 45.8693C66.877 42.5419 58.4574 41.2738 50.1368 42.1942C41.8161 43.1145 33.8917 46.1904 27.1702 51.1086C26.4176 51.64 25.694 52.2102 25.0024 52.8169C31.1953 43.3262 39.0585 35.001 48.222 28.233ZM19.5101 77.398C22.3217 68.4507 28.4615 60.8804 36.6995 56.2036C44.9374 51.5268 54.6651 50.0891 63.9336 52.1783C73.2021 54.2676 81.3269 59.7296 86.6804 67.4701C92.0338 75.2106 94.2204 84.6579 92.8021 93.9193C91.3838 103.181 86.4655 111.572 79.0323 117.413C71.5991 123.253 62.2002 126.111 52.7185 125.414C43.2367 124.717 34.3725 120.516 27.9017 113.654C21.4308 106.791 17.8313 97.7738 17.8241 88.4076C17.8271 84.6756 18.3954 80.9648 19.5101 77.398ZM93.6466 217.294C92.7434 220.493 90.804 223.314 88.1235 225.327C85.4429 227.34 82.1681 228.435 78.7975 228.446C75.4269 228.457 72.145 227.383 69.4513 225.387C66.7576 223.391 64.7997 220.582 63.8756 217.389C63.237 214.886 61.7656 212.666 59.6962 211.083C57.6268 209.499 55.0787 208.645 52.4586 208.655H51.5431C48.9354 208.671 46.4063 209.537 44.3499 211.117C42.2936 212.696 40.8254 214.902 40.1742 217.389C39.1446 220.938 36.8486 224.001 33.7088 226.014C30.5691 228.028 26.7967 228.857 23.0858 228.349C19.3749 227.841 15.9751 226.03 13.512 223.249C11.0489 220.468 9.68813 216.904 9.68014 213.213V103.783C9.68014 102.691 9.77636 101.553 9.82448 100.414C12.201 108.913 16.9593 116.581 23.5544 122.54C30.1495 128.498 38.3148 132.507 47.1154 134.107H29.8679V138.947C29.8413 144.168 30.4231 149.374 31.602 154.464C34.1169 165.28 39.1834 175.361 46.391 183.888C48.1384 185.967 50.004 187.948 51.9788 189.82C64.5987 201.741 80.9941 209.029 98.4186 210.462C96.086 212.139 94.4029 214.549 93.6466 217.294ZM105.497 201.35C89.3495 201.448 73.7044 195.823 61.4184 185.5C72.7452 186.174 83.935 188.295 94.7064 191.811L105.497 195.371L114.94 192.239C126.112 188.552 137.722 186.303 149.48 185.547C137.216 195.836 121.609 201.444 105.501 201.35H105.497ZM201.363 213.213C201.35 216.895 199.988 220.448 197.529 223.221C195.071 225.993 191.679 227.799 187.977 228.307C184.276 228.814 180.512 227.99 177.378 225.984C174.244 223.979 171.949 220.927 170.915 217.389C170.24 214.906 168.759 212.708 166.698 211.131C164.636 209.554 162.108 208.684 159.498 208.655H158.583C155.97 208.653 153.432 209.512 151.372 211.094C149.312 212.677 147.848 214.893 147.214 217.389C146.301 220.589 144.35 223.406 141.658 225.411C138.967 227.416 135.684 228.499 132.31 228.494C128.936 228.488 125.656 227.395 122.972 225.382C120.287 223.368 118.345 220.544 117.443 217.342C116.694 214.594 114.989 212.192 112.625 210.556C122.747 209.718 132.596 206.899 141.596 202.262C150.597 197.625 158.567 191.265 165.039 183.554C171.983 175.223 176.894 165.433 179.395 154.939C180.616 149.727 181.214 144.391 181.177 139.042V134.154H164.032C172.831 132.554 180.996 128.545 187.59 122.586C194.184 116.627 198.942 108.96 201.318 100.461C201.366 101.553 201.462 102.691 201.462 103.83V213.213H201.363Z" fill="black"/>
<path d="M364.695 55.6875H350.211V99H341.844V55.6875H327.395V48.5859H364.695V55.6875ZM394.613 83.2148H370.074C370.168 86.543 371.188 89.1094 373.133 90.9141C375.102 92.7188 377.797 93.6211 381.219 93.6211C385.062 93.6211 388.59 92.4727 391.801 90.1758V96.75C388.52 98.8125 384.184 99.8438 378.793 99.8438C373.496 99.8438 369.336 98.2148 366.312 94.957C363.312 91.6758 361.812 87.0703 361.812 81.1406C361.812 75.5391 363.465 70.9805 366.77 67.4648C370.098 63.9258 374.223 62.1562 379.145 62.1562C384.066 62.1562 387.875 63.7383 390.57 66.9023C393.266 70.0664 394.613 74.4609 394.613 80.0859V83.2148ZM386.738 77.4492C386.715 74.5195 386.023 72.2461 384.664 70.6289C383.305 68.9883 381.43 68.168 379.039 68.168C376.695 68.168 374.703 69.0234 373.062 70.7344C371.445 72.4453 370.449 74.6836 370.074 77.4492H386.738ZM428.152 97.3477C425.27 99.0117 421.859 99.8438 417.922 99.8438C412.578 99.8438 408.266 98.1797 404.984 94.8516C401.703 91.5 400.062 87.1641 400.062 81.8438C400.062 75.9141 401.82 71.1562 405.336 67.5703C408.875 63.9609 413.598 62.1562 419.504 62.1562C422.785 62.1562 425.68 62.7305 428.188 63.8789V71.4727C425.68 69.5977 423.008 68.6602 420.172 68.6602C416.727 68.6602 413.902 69.832 411.699 72.1758C409.496 74.4961 408.395 77.543 408.395 81.3164C408.395 85.043 409.426 87.9844 411.488 90.1406C413.574 92.2969 416.363 93.375 419.855 93.375C422.785 93.375 425.551 92.332 428.152 90.2461V97.3477ZM468.266 99H460.109V79.3125C460.109 72.1875 457.73 68.625 452.973 68.625C450.582 68.625 448.566 69.6562 446.926 71.7188C445.285 73.7812 444.465 76.418 444.465 79.6289V99H436.273V45.7031H444.465V68.9766H444.605C447.324 64.4297 451.215 62.1562 456.277 62.1562C464.27 62.1562 468.266 67.043 468.266 76.8164V99ZM242.035 176.719V195H233.703V144.586H248.996C254.785 144.586 259.273 145.934 262.461 148.629C265.648 151.324 267.242 155.121 267.242 160.02C267.242 164.918 265.578 168.926 262.25 172.043C258.922 175.16 254.422 176.719 248.75 176.719H242.035ZM242.035 151.477V169.898H247.449C251.035 169.898 253.766 169.066 255.641 167.402C257.516 165.738 258.453 163.395 258.453 160.371C258.453 154.441 255.008 151.477 248.117 151.477H242.035ZM306.898 195H298.742V175.312C298.742 168.188 296.363 164.625 291.605 164.625C289.215 164.625 287.199 165.656 285.559 167.719C283.918 169.781 283.098 172.418 283.098 175.629V195H274.906V141.703H283.098V164.977H283.238C285.957 160.43 289.848 158.156 294.91 158.156C302.902 158.156 306.898 163.043 306.898 172.816V195ZM344.445 195H336.535V189.375H336.395C333.91 193.688 330.266 195.844 325.461 195.844C321.922 195.844 319.145 194.883 317.129 192.961C315.137 191.039 314.141 188.496 314.141 185.332C314.141 178.535 318.055 174.574 325.883 173.449L336.57 171.938C336.57 166.805 334.133 164.238 329.258 164.238C324.969 164.238 321.102 165.715 317.656 168.668V161.531C321.453 159.281 325.836 158.156 330.805 158.156C339.898 158.156 344.445 162.633 344.445 171.586V195ZM336.57 177.316L329.012 178.371C326.668 178.676 324.898 179.25 323.703 180.094C322.531 180.914 321.945 182.367 321.945 184.453C321.945 185.977 322.484 187.23 323.562 188.215C324.664 189.176 326.129 189.656 327.957 189.656C330.441 189.656 332.492 188.789 334.109 187.055C335.75 185.297 336.57 183.094 336.57 180.445V177.316ZM386.492 195H378.336V174.715C378.336 167.988 375.957 164.625 371.199 164.625C368.715 164.625 366.664 165.562 365.047 167.438C363.43 169.289 362.621 171.633 362.621 174.469V195H354.43V159H362.621V164.977H362.762C365.457 160.43 369.348 158.156 374.434 158.156C378.348 158.156 381.336 159.434 383.398 161.988C385.461 164.52 386.492 168.188 386.492 172.992V195ZM415.461 194.613C413.867 195.41 411.77 195.809 409.168 195.809C402.184 195.809 398.691 192.457 398.691 185.754V165.398H392.68V159H398.691V150.668L406.848 148.348V159H415.461V165.398H406.848V183.398C406.848 185.531 407.234 187.055 408.008 187.969C408.781 188.883 410.07 189.34 411.875 189.34C413.258 189.34 414.453 188.941 415.461 188.145V194.613ZM535.801 195H527.645V175.383C527.645 171.609 527.105 168.879 526.027 167.191C524.973 165.504 523.18 164.66 520.648 164.66C518.516 164.66 516.699 165.727 515.199 167.859C513.723 169.992 512.984 172.547 512.984 175.523V195H504.793V174.715C504.793 168.012 502.426 164.66 497.691 164.66C495.488 164.66 493.672 165.668 492.242 167.684C490.836 169.699 490.133 172.312 490.133 175.523V195H481.977V159H490.133V164.695H490.273C492.875 160.336 496.66 158.156 501.629 158.156C504.113 158.156 506.281 158.848 508.133 160.23C510.008 161.59 511.285 163.383 511.965 165.609C514.637 160.641 518.621 158.156 523.918 158.156C531.84 158.156 535.801 163.043 535.801 172.816V195ZM543.5 193.875V186.316C546.547 188.637 549.91 189.797 553.59 189.797C558.512 189.797 560.973 188.344 560.973 185.438C560.973 184.617 560.762 183.926 560.34 183.363C559.918 182.777 559.344 182.262 558.617 181.816C557.914 181.371 557.07 180.973 556.086 180.621C555.125 180.27 554.047 179.871 552.852 179.426C551.375 178.84 550.039 178.219 548.844 177.562C547.672 176.906 546.688 176.168 545.891 175.348C545.117 174.504 544.531 173.555 544.133 172.5C543.734 171.445 543.535 170.215 543.535 168.809C543.535 167.074 543.945 165.551 544.766 164.238C545.586 162.902 546.688 161.789 548.07 160.898C549.453 159.984 551.023 159.305 552.781 158.859C554.539 158.391 556.355 158.156 558.23 158.156C561.559 158.156 564.535 158.66 567.16 159.668V166.805C564.629 165.07 561.723 164.203 558.441 164.203C557.41 164.203 556.473 164.309 555.629 164.52C554.809 164.73 554.105 165.023 553.52 165.398C552.934 165.773 552.477 166.23 552.148 166.77C551.82 167.285 551.656 167.859 551.656 168.492C551.656 169.266 551.82 169.922 552.148 170.461C552.477 171 552.957 171.48 553.59 171.902C554.246 172.301 555.02 172.676 555.91 173.027C556.824 173.355 557.867 173.719 559.039 174.117C560.586 174.75 561.969 175.395 563.188 176.051C564.43 176.707 565.484 177.457 566.352 178.301C567.219 179.121 567.887 180.082 568.355 181.184C568.824 182.262 569.059 183.551 569.059 185.051C569.059 186.879 568.637 188.473 567.793 189.832C566.949 191.191 565.824 192.316 564.418 193.207C563.012 194.098 561.383 194.754 559.531 195.176C557.703 195.621 555.77 195.844 553.73 195.844C549.793 195.844 546.383 195.188 543.5 193.875Z" fill="#ED654B"/>
</svg>
