<svg width="309" height="119" viewBox="0 0 309 119" fill="none" xmlns="http://www.w3.org/2000/svg">
<path d="M78.7082 90.2583C81.8903 86.3836 84.1436 81.8204 85.2926 76.9238C85.8604 74.498 86.1445 72.0134 86.1391 69.5209H16.8609C16.8594 71.9491 17.1356 74.3695 17.684 76.7338C18.8331 81.7845 21.1453 86.4909 24.4331 90.4719C27.7383 94.4637 31.8812 97.6648 36.5624 99.8436C41.2436 102.022 46.3461 103.125 51.501 103.071C62.5529 103.047 72.3824 98.0643 78.7082 90.2583ZM98.3911 37.2042C99.8597 41.9672 100.605 46.9271 100.601 51.9152V106.63C100.601 109.047 99.7314 111.382 98.1549 113.202C96.5784 115.022 94.4016 116.203 92.0277 116.528C89.6539 116.852 87.2439 116.297 85.2445 114.966C83.2451 113.635 81.7917 111.617 81.1537 109.287C80.9725 108.54 80.5512 107.874 79.9557 107.393C79.3602 106.913 78.6238 106.644 77.8613 106.63H77.4144C76.6519 106.644 75.9156 106.913 75.32 107.393C74.7245 107.874 74.3033 108.54 74.122 109.287C73.5446 111.395 72.298 113.253 70.5735 114.578C68.849 115.902 66.7416 116.619 64.5745 116.619C62.4074 116.619 60.3 115.902 58.5755 114.578C56.851 113.253 55.6044 111.395 55.027 109.287C54.8457 108.54 54.4245 107.874 53.8289 107.393C53.2334 106.913 52.4971 106.644 51.7346 106.63H51.2648C50.5023 106.644 49.766 106.913 49.1704 107.393C48.5749 107.874 48.1537 108.54 47.9724 109.287C47.395 111.395 46.1484 113.253 44.4239 114.578C42.6994 115.902 40.592 116.619 38.4249 116.619C36.2578 116.619 34.1504 115.902 32.4259 114.578C30.7014 113.253 29.4548 111.395 28.8774 109.287C28.6961 108.54 28.2749 107.874 27.6794 107.393C27.0838 106.913 26.3475 106.644 25.585 106.63H25.1381C24.3756 106.644 23.6392 106.913 23.0437 107.393C22.4481 107.874 22.0269 108.54 21.8457 109.287C21.2077 111.617 19.7543 113.635 17.7549 114.966C15.7555 116.297 13.3455 116.852 10.9717 116.528C8.5978 116.203 6.42095 115.022 4.84448 113.202C3.26802 111.382 2.39882 109.047 2.39796 106.63V51.8905C2.39473 46.9027 3.1402 41.9431 4.60899 37.1805L7.26626 37.9636C6.6608 39.9794 6.35175 42.0739 6.34897 44.1802C6.34897 49.7305 8.53419 55.0534 12.4239 58.9781C16.3136 62.9027 21.5892 65.1075 27.0901 65.1075C32.591 65.1075 37.8665 62.9027 41.7563 58.9781C45.646 55.0534 47.8312 49.7305 47.8312 44.1802H55.1454C55.1454 46.9284 55.6819 49.6497 56.7242 52.1888C57.7666 54.7278 59.2943 57.0348 61.2203 58.9781C63.1463 60.9213 65.4328 62.4628 67.9492 63.5145C70.4657 64.5662 73.1627 65.1075 75.8865 65.1075C78.6103 65.1075 81.3074 64.5662 83.8238 63.5145C86.3402 62.4628 88.6267 60.9213 90.5527 58.9781C92.4787 57.0348 94.0064 54.7278 95.0488 52.1888C96.0911 49.6497 96.6276 46.9284 96.6276 44.1802C96.6267 42.0738 96.3177 39.979 95.7107 37.9636L98.3911 37.2042Z" fill="#ED654B"/>
<path d="M98.3921 37.2044L95.7348 37.9874C94.258 33.2088 91.1334 29.122 86.9273 26.4678C82.7212 23.8136 77.7118 22.7675 72.807 23.5192C67.9023 24.2709 63.4267 26.7706 60.1914 30.5653C56.956 34.36 55.1751 39.1986 55.1712 44.2042H47.857C47.8562 39.1965 46.0766 34.355 42.8411 30.5577C39.6057 26.7605 35.1286 24.2589 30.2218 23.5068C25.3151 22.7546 20.3036 23.8017 16.0964 26.4581C11.8892 29.1145 8.7649 33.2043 7.29008 37.9857L4.63281 37.2027C7.74278 27.1113 13.97 18.2879 22.4044 12.022C30.8387 5.75613 41.0382 2.37622 51.5121 2.37622C61.9861 2.37622 72.1855 5.75613 80.6199 12.022C89.0543 18.2879 95.2815 27.1113 98.3914 37.2027L98.3921 37.2044Z" fill="#ED654B"/>
<path d="M95.7103 37.9873C96.3158 40.0031 96.6248 42.0976 96.6276 44.2039C96.6095 49.4617 94.6235 54.5185 91.0674 58.3618C87.5113 62.2051 82.6475 64.5511 77.4501 64.9301C72.2526 65.3092 67.105 63.6933 63.0381 60.4059C58.9712 57.1186 56.2851 52.4025 55.5178 47.202C54.7504 42.0015 55.9584 36.7005 58.8999 32.3604C61.8413 28.0203 66.2991 24.9615 71.3806 23.7965C76.4621 22.6315 81.7923 23.4462 86.3037 26.0776C90.8152 28.709 94.175 32.9628 95.7103 37.9873ZM86.5391 44.2036C86.5391 42.0824 85.9156 40.0089 84.7477 38.2452C83.5797 36.4815 81.9196 35.1069 79.9774 34.2952C78.0351 33.4834 75.8979 33.271 73.836 33.6849C71.7741 34.0987 69.8801 35.1201 68.3935 36.62C66.907 38.1199 65.8946 40.0309 65.4845 42.1113C65.0744 44.1917 65.2849 46.3481 66.0894 48.3078C66.8939 50.2675 68.2563 51.9425 70.0043 53.121C71.7523 54.2994 73.8074 54.9284 75.9097 54.9284C77.3059 54.9299 78.6888 54.6535 79.9791 54.115C81.2693 53.5766 82.4417 52.7866 83.429 51.7905C84.4163 50.7943 85.1992 49.6114 85.7329 48.3095C86.2666 47.0077 86.5405 45.6124 86.5391 44.2036Z" fill="#FEC758"/>
<path d="M16.861 69.4967H86.1392C86.1458 71.9894 85.8617 74.4742 85.2927 76.8999L84.4462 76.71H17.683C17.1337 74.3457 16.8578 71.9251 16.861 69.4967Z" fill="white"/>
<path d="M78.0261 36.7061C78.8679 36.7061 79.6908 36.9579 80.3908 37.4298C81.0907 37.9017 81.6363 38.5724 81.9584 39.3572C82.2806 40.1419 82.3649 41.0054 82.2006 41.8384C82.0364 42.6715 81.631 43.4367 81.0358 44.0373C80.4405 44.6379 79.6821 45.0469 78.8565 45.2126C78.0308 45.3783 77.175 45.2933 76.3973 44.9683C75.6195 44.6432 74.9548 44.0928 74.4871 43.3865C74.0194 42.6803 73.7698 41.85 73.7698 41.0006C73.7696 40.4366 73.8796 39.8781 74.0935 39.357C74.3073 38.8359 74.6209 38.3624 75.0161 37.9636C75.4114 37.5648 75.8807 37.2485 76.3971 37.0327C76.9136 36.8169 77.4671 36.7059 78.0261 36.7061Z" fill="white"/>
<path d="M70.595 46.339C71.0126 46.3437 71.4195 46.4728 71.7644 46.7102C72.1093 46.9476 72.3769 47.2826 72.5335 47.6731C72.6901 48.0636 72.7287 48.492 72.6444 48.9046C72.5601 49.3171 72.3567 49.6953 72.0598 49.9914C71.7629 50.2876 71.3858 50.4886 70.9759 50.5691C70.566 50.6495 70.1417 50.6059 69.7563 50.4437C69.371 50.2814 69.0418 50.0078 68.8103 49.6573C68.5787 49.3067 68.4552 48.895 68.4551 48.4738C68.4621 47.9057 68.6905 47.3632 69.091 46.9637C69.4915 46.5642 70.0318 46.3397 70.595 46.339Z" fill="white"/>
<path d="M27.0905 23.2762C31.1927 23.2762 35.2028 24.5036 38.6136 26.8032C42.0245 29.1027 44.6829 32.3711 46.2528 36.1951C47.8226 40.0191 48.2334 44.2269 47.4331 48.2864C46.6328 52.3459 44.6574 56.0748 41.7567 59.0016C38.856 61.9284 35.1602 63.9215 31.1369 64.729C27.1135 65.5365 22.9431 65.122 19.1532 63.5381C15.3633 61.9541 12.1239 59.2718 9.84487 55.8303C7.56581 52.3888 6.34937 48.3427 6.34937 44.2037C6.35039 42.0972 6.65949 40.0024 7.26666 37.987C8.58617 33.7236 11.2211 29.997 14.7871 27.3508C18.3532 24.7045 22.6638 23.2769 27.0905 23.2762ZM37.7199 44.2037C37.7199 42.0825 37.0965 40.0089 35.9285 38.2452C34.7605 36.4815 33.1004 35.1069 31.1582 34.2952C29.2159 33.4834 27.0787 33.271 25.0168 33.6849C22.9549 34.0987 21.0609 35.1201 19.5744 36.62C18.0878 38.1199 17.0755 40.0309 16.6653 42.1113C16.2552 44.1918 16.4657 46.3482 17.2702 48.3079C18.0747 50.2676 19.4371 51.9426 21.1851 53.1211C22.9331 54.2996 24.9882 54.9286 27.0905 54.9286C28.4868 54.93 29.8696 54.6536 31.1599 54.1152C32.4502 53.5767 33.6225 52.7868 34.6098 51.7906C35.5972 50.7944 36.3801 49.6115 36.9137 48.3096C37.4474 47.0078 37.7213 45.6125 37.7199 44.2037Z" fill="#FEC758"/>
<path d="M29.2303 36.7061C30.0721 36.7061 30.8951 36.9579 31.595 37.4298C32.295 37.9017 32.8405 38.5724 33.1627 39.3572C33.4848 40.1419 33.5691 41.0054 33.4049 41.8384C33.2406 42.6715 32.8353 43.4367 32.24 44.0373C31.6447 44.6379 30.8863 45.0469 30.0607 45.2126C29.235 45.3783 28.3792 45.2933 27.6015 44.9683C26.8238 44.6432 26.159 44.0928 25.6913 43.3865C25.2236 42.6803 24.974 41.85 24.974 41.0006C24.9739 40.4366 25.0839 39.8781 25.2977 39.357C25.5116 38.8359 25.8251 38.3624 26.2204 37.9636C26.6156 37.5648 27.0849 37.2485 27.6013 37.0327C28.1178 36.8169 28.6713 36.7059 29.2303 36.7061Z" fill="white"/>
<path d="M26.9964 93.2239C26.094 92.345 25.2383 91.4184 24.4331 90.448L24.6448 90.2581H26.1969C33.2547 90.2553 40.2667 91.401 46.9628 93.6511L51.5013 95.1698L55.3581 93.8647C62.4931 91.4652 69.9642 90.2394 77.4852 90.2344H78.7081C75.5838 93.9752 71.7359 97.0336 67.3999 99.2225C63.0638 101.411 58.3308 102.685 53.4903 102.964C48.6498 103.244 43.8036 102.525 39.2481 100.85C34.6927 99.1752 30.5238 96.5802 26.9964 93.2239Z" fill="#7FB8E3"/>
<path d="M21.7993 46.3392C22.2168 46.3439 22.6237 46.4731 22.9686 46.7105C23.3136 46.9479 23.5812 47.2829 23.7378 47.6734C23.8944 48.0638 23.9329 48.4923 23.8487 48.9048C23.7644 49.3174 23.561 49.6955 23.2641 49.9917C22.9672 50.2879 22.59 50.4889 22.1801 50.5694C21.7702 50.6498 21.3459 50.6062 20.9606 50.444C20.5752 50.2817 20.246 50.0081 20.0145 49.6576C19.783 49.307 19.6594 48.8952 19.6594 48.474C19.6582 48.1913 19.7129 47.9113 19.8203 47.6502C19.9277 47.3891 20.0857 47.1522 20.2849 46.9534C20.4842 46.7546 20.7208 46.5979 20.9808 46.4925C21.2408 46.387 21.5191 46.3349 21.7993 46.3392Z" fill="white"/>
<path d="M75.9099 33.479C73.8076 33.479 71.7525 34.108 70.0046 35.2865C68.2566 36.465 66.8942 38.14 66.0896 40.0997C65.2851 42.0595 65.0746 44.2159 65.4848 46.2963C65.8949 48.3768 66.9073 50.2878 68.3938 51.7877C69.8804 53.2876 71.7743 54.3091 73.8362 54.7229C75.8981 55.1367 78.0354 54.9243 79.9776 54.1126C81.9199 53.3008 83.58 51.9262 84.748 50.1625C85.9159 48.3988 86.5393 46.3252 86.5393 44.204C86.5408 42.7952 86.2668 41.3999 85.7332 40.098C85.1995 38.7961 84.4166 37.6132 83.4293 36.617C82.442 35.6208 81.2696 34.8309 79.9794 34.2924C78.6891 33.7539 77.3062 33.4775 75.9099 33.479ZM70.5954 50.634C70.1768 50.634 69.7676 50.5088 69.4196 50.2742C69.0715 50.0395 68.8003 49.706 68.6401 49.3158C68.4799 48.9256 68.438 48.4962 68.5196 48.082C68.6013 47.6677 68.8029 47.2872 69.0989 46.9886C69.3948 46.69 69.772 46.4866 70.1825 46.4042C70.593 46.3218 71.0186 46.3641 71.4053 46.5257C71.792 46.6873 72.1226 46.961 72.3551 47.3122C72.5877 47.6634 72.7118 48.0762 72.7118 48.4986C72.7088 49.0641 72.4848 49.6055 72.0885 50.0054C71.6922 50.4052 71.1555 50.6311 70.5951 50.634H70.5954ZM78.0263 45.2717C77.1845 45.2717 76.3616 45.0198 75.6617 44.5479C74.9617 44.0761 74.4162 43.4053 74.094 42.6206C73.7719 41.8359 73.6876 40.9724 73.8518 40.1393C74.016 39.3062 74.4214 38.541 75.0167 37.9404C75.6119 37.3398 76.3703 36.9308 77.196 36.765C78.0216 36.5993 78.8774 36.6844 79.6552 37.0094C80.4329 37.3345 81.0977 37.8849 81.5654 38.5912C82.033 39.2974 82.2827 40.1277 82.2827 40.9771C82.2828 41.5411 82.1728 42.0996 81.959 42.6207C81.7451 43.1419 81.4316 43.6153 81.0363 44.0142C80.6411 44.413 80.1718 44.7293 79.6553 44.9451C79.1389 45.1609 78.5853 45.2719 78.0263 45.2717Z" fill="black"/>
<path d="M27.0907 54.9284C29.193 54.9284 31.2481 54.2994 32.9961 53.1209C34.7441 51.9425 36.1065 50.2675 36.911 48.3079C37.7155 46.3482 37.926 44.1918 37.5159 42.1114C37.1057 40.031 36.0934 38.1201 34.6068 36.6202C33.1203 35.1203 31.2263 34.0989 29.1644 33.6851C27.1025 33.2713 24.9653 33.4836 23.023 34.2954C21.0807 35.1071 19.4207 36.4817 18.2527 38.2454C17.0847 40.009 16.4613 42.0826 16.4613 44.2037C16.4599 45.6125 16.7338 47.0078 17.2675 48.3096C17.8011 49.6114 18.584 50.7943 19.5713 51.7905C20.5587 52.7866 21.731 53.5766 23.0213 54.115C24.3116 54.6535 25.6944 54.9299 27.0907 54.9284ZM29.2306 36.7061C30.0724 36.7061 30.8954 36.958 31.5953 37.4299C32.2953 37.9018 32.8408 38.5725 33.163 39.3572C33.4851 40.1419 33.5694 41.0054 33.4052 41.8384C33.2409 42.6715 32.8356 43.4367 32.2403 44.0373C31.645 44.6379 30.8866 45.0469 30.061 45.2126C29.2353 45.3783 28.3795 45.2932 27.6018 44.9682C26.8241 44.6431 26.1593 44.0927 25.6916 43.3865C25.2239 42.6803 24.9743 41.85 24.9743 41.0006C24.9742 40.4366 25.0842 39.8781 25.298 39.357C25.5119 38.8359 25.8254 38.3625 26.2207 37.9637C26.6159 37.5649 27.0852 37.2485 27.6016 37.0328C28.1181 36.817 28.6716 36.706 29.2306 36.7061ZM21.7993 46.3394C22.2169 46.3441 22.6237 46.4733 22.9687 46.7108C23.3136 46.9482 23.5812 47.2833 23.7378 47.6739C23.8944 48.0645 23.933 48.4931 23.8487 48.9057C23.7644 49.3184 23.561 49.6967 23.2641 49.9929C22.9672 50.2892 22.5901 50.4903 22.1802 50.5707C21.7703 50.6512 21.346 50.6076 20.9606 50.4453C20.5752 50.283 20.2461 50.0093 20.0145 49.6587C19.783 49.308 19.6595 48.8961 19.6594 48.4748C19.6582 48.1921 19.7129 47.9119 19.8204 47.6507C19.9278 47.3895 20.0857 47.1526 20.285 46.9538C20.4842 46.7549 20.7208 46.5982 20.9808 46.4927C21.2408 46.3872 21.5191 46.3351 21.7993 46.3394Z" fill="black"/>
<path d="M87.8794 15.1852C79.1308 6.36956 67.5291 1.02647 55.1964 0.133318C42.8638 -0.759833 30.6247 2.85666 20.718 10.3213C12.0294 16.8882 5.60483 26.0431 2.35162 36.4932C0.791325 41.4745 -0.00178408 46.6679 3.01334e-06 51.8921V106.607C0.00519773 109.598 1.08316 112.487 3.0348 114.74C4.98645 116.992 7.67996 118.456 10.6179 118.861C13.5558 119.266 16.5398 118.585 19.0186 116.943C21.4974 115.301 23.3038 112.809 24.104 109.929C24.1572 109.69 24.288 109.476 24.4755 109.322C24.663 109.167 24.8965 109.08 25.1387 109.074H25.5856C25.8298 109.085 26.0636 109.177 26.2508 109.336C26.4379 109.495 26.5678 109.711 26.6203 109.952C27.3403 112.553 28.8839 114.844 31.0154 116.476C33.147 118.108 35.7494 118.992 38.4254 118.992C41.1013 118.992 43.7037 118.108 45.8353 116.476C47.9669 114.844 49.5105 112.553 50.2304 109.952C50.2826 109.711 50.4124 109.494 50.5996 109.336C50.7868 109.177 51.0208 109.085 51.2651 109.074H51.7349C51.9794 109.084 52.2138 109.176 52.4012 109.335C52.5885 109.494 52.7181 109.711 52.7696 109.952C53.4895 112.553 55.0331 114.844 57.1647 116.476C59.2963 118.108 61.8987 118.992 64.5746 118.992C67.2506 118.992 69.853 118.108 71.9846 116.476C74.1161 114.844 75.6597 112.553 76.3797 109.952C76.4287 109.71 76.5576 109.491 76.7455 109.331C76.9333 109.172 77.1691 109.082 77.4144 109.074H77.8613C78.106 109.084 78.3406 109.176 78.528 109.335C78.7153 109.494 78.8448 109.712 78.896 109.954C79.6968 112.836 81.505 115.329 83.9863 116.971C86.4676 118.613 89.4542 119.292 92.3937 118.884C95.3333 118.476 98.027 117.008 99.9767 114.751C101.927 112.495 103 109.602 103 106.608V51.8914C103.002 46.6673 102.209 41.4738 100.648 36.4925C98.1593 28.4541 93.7781 21.1434 87.8794 15.1852ZM94.2991 44.2038C94.2944 48.8783 92.5395 53.3783 89.3859 56.8026C86.2322 60.2269 81.9128 62.3226 77.2928 62.6698C72.6727 63.0171 68.0932 61.5903 64.4716 58.6752C60.85 55.7601 58.4536 51.572 57.7626 46.9499C57.0715 42.3277 58.1368 37.6128 60.745 33.7495C63.3532 29.8862 67.3118 27.1598 71.8277 26.1165C76.3437 25.0732 81.0836 25.7899 85.0981 28.1232C89.1125 30.4565 92.105 34.234 93.4761 38.699C94.023 40.4818 94.3005 42.3376 94.2995 44.2038H94.2991ZM83.3875 74.4323H19.6108C19.4695 73.4844 19.3759 72.7715 19.3051 71.8222H83.6939C83.6231 72.7715 83.5291 73.4834 83.3879 74.4323H83.3875ZM31.2293 67.0771C41.247 65.4163 49.031 56.8742 50.0657 46.6717H52.9112C53.9459 56.8745 61.7298 65.4163 71.7476 67.0771H31.2293ZM23.5396 14.1165C32.5385 7.33538 43.6571 4.05171 54.8596 4.86674C66.0621 5.68178 76.5988 10.541 84.5404 18.5546C86.9022 20.9502 89.0068 23.5907 90.8192 26.4321C90.4666 26.1237 90.0901 25.8153 89.714 25.5306C85.7234 22.5229 80.8674 20.9147 75.8865 20.951C70.1591 20.9439 64.634 23.0876 60.3871 26.9648C56.1401 30.842 53.4752 36.1751 52.9112 41.9259H50.0657C49.6519 37.8231 48.168 33.9042 45.765 30.5682C43.3621 27.2323 40.1259 24.5983 36.386 22.9346C32.6461 21.271 28.5361 20.6369 24.4743 21.0971C20.4126 21.5573 16.5443 23.0952 13.2632 25.5543C12.8958 25.82 12.5426 26.1051 12.205 26.4084C15.228 21.6631 19.0665 17.5005 23.5396 14.1165ZM9.52389 38.699C10.8964 34.2254 13.8935 30.4402 17.9149 28.1018C21.9363 25.7634 26.6848 25.0445 31.2093 26.0892C35.7337 27.1338 39.6999 29.8648 42.3132 33.7351C44.9264 37.6053 45.9938 42.3289 45.3015 46.9596C44.6092 51.5903 42.2083 55.7861 38.5797 58.7063C34.9512 61.6265 30.3631 63.0555 25.7346 62.707C21.1061 62.3584 16.779 60.2582 13.6202 56.8269C10.4615 53.3957 8.70436 48.8869 8.70088 44.2038C8.70233 42.3378 8.97972 40.4824 9.52389 38.699ZM45.7137 108.647C45.2728 110.247 44.3261 111.657 43.0176 112.664C41.7091 113.67 40.1105 114.218 38.4651 114.223C36.8197 114.228 35.2177 113.691 33.9028 112.693C32.5878 111.695 31.6321 110.291 31.181 108.695C30.8693 107.443 30.151 106.333 29.1408 105.541C28.1306 104.75 26.8868 104.322 25.6077 104.328H25.1608C23.8879 104.336 22.6533 104.768 21.6495 105.558C20.6457 106.348 19.929 107.451 19.6111 108.695C19.1085 110.469 17.9877 112 16.455 113.007C14.9223 114.014 13.0808 114.429 11.2694 114.174C9.45786 113.92 7.79826 113.015 6.59589 111.624C5.39352 110.234 4.72928 108.452 4.72538 106.607V51.8914C4.72538 51.3457 4.77235 50.7763 4.79583 50.2069C5.95595 54.4564 8.2787 58.2904 11.4981 61.2698C14.7175 64.2492 18.7035 66.2536 22.9995 67.0534H14.5801V69.4735C14.5671 72.0839 14.8511 74.6872 15.4266 77.2322C16.6542 82.6402 19.1275 87.6803 22.6458 91.944C23.4988 92.9837 24.4095 93.9739 25.3736 94.9098C31.534 100.871 39.5374 104.515 48.0432 105.231C46.9045 106.07 46.0829 107.275 45.7137 108.647ZM51.4987 100.675C43.6161 100.724 35.9789 97.9114 29.9815 92.75C35.5107 93.0869 40.973 94.1477 46.2311 95.9057L51.4987 97.6854L56.1079 96.1193C61.5619 94.2759 67.2292 93.1514 72.9688 92.7737C66.9823 97.9181 59.3637 100.722 51.5003 100.675H51.4987ZM98.2958 106.607C98.2891 108.447 97.6247 110.224 96.4243 111.61C95.224 112.997 93.5684 113.899 91.7615 114.153C89.9545 114.407 88.1174 113.995 86.5874 112.992C85.0575 111.989 83.9373 110.464 83.4325 108.695C83.1031 107.453 82.3801 106.354 81.3738 105.565C80.3676 104.777 79.1333 104.342 77.8593 104.328H77.4124C76.1371 104.327 74.8981 104.756 73.8924 105.547C72.8868 106.338 72.1723 107.446 71.8627 108.695C71.4169 110.294 70.4644 111.703 69.1508 112.706C67.8372 113.708 66.2345 114.249 64.5874 114.247C62.9403 114.244 61.3393 113.698 60.0289 112.691C58.7184 111.684 57.7705 110.272 57.3299 108.671C56.9643 107.297 56.132 106.096 54.9783 105.278C59.9189 104.859 64.727 103.449 69.1206 101.131C73.5141 98.8127 77.4046 95.6325 80.5639 91.7771C83.9536 87.6114 86.351 82.7167 87.5717 77.4695C88.1679 74.8633 88.4599 72.1956 88.4417 69.5209V67.0771H80.0723C84.3679 66.2768 88.3533 64.2723 91.5723 61.2929C94.7913 58.3135 97.1137 54.4798 98.2736 50.2306C98.2971 50.7763 98.3441 51.3457 98.3441 51.9151V106.607H98.2958Z" fill="black"/>
<ellipse cx="242.5" cy="83" rx="15.5" ry="16" fill="#ED654B"/>
<path fill-rule="evenodd" clip-rule="evenodd" d="M235.979 88.2954C236.857 88.2954 237.57 87.668 237.57 86.8941C237.57 86.1202 236.857 85.4928 235.979 85.4928C235.1 85.4928 234.388 86.1202 234.388 86.8941C234.388 87.668 235.1 88.2954 235.979 88.2954ZM235.979 87.701C236.485 87.701 236.895 87.3397 236.895 86.8941C236.895 86.4485 236.485 86.0873 235.979 86.0873C235.473 86.0873 235.063 86.4485 235.063 86.8941C235.063 87.3397 235.473 87.701 235.979 87.701Z" fill="black"/>
<path d="M235.765 85.7328C236.715 82.0397 232.891 78.638 235.765 75.6331C239.146 72.099 245.749 72.099 249.13 75.6331C252.004 78.638 247.654 81.9341 249.13 85.7328" stroke="black"/>
<path fill-rule="evenodd" clip-rule="evenodd" d="M248.908 88.2954C249.786 88.2954 250.498 87.668 250.498 86.8941C250.498 86.1202 249.786 85.4928 248.908 85.4928C248.029 85.4928 247.317 86.1202 247.317 86.8941C247.317 87.668 248.029 88.2954 248.908 88.2954ZM248.908 87.701C249.413 87.701 249.823 87.3397 249.823 86.8941C249.823 86.4485 249.413 86.0873 248.908 86.0873C248.402 86.0873 247.992 86.4485 247.992 86.8941C247.992 87.3397 248.402 87.701 248.908 87.701Z" fill="black"/>
<path fill-rule="evenodd" clip-rule="evenodd" d="M239.16 81.7257C240.039 81.7257 240.751 81.0983 240.751 80.3244C240.751 79.5505 240.039 78.9231 239.16 78.9231C238.282 78.9231 237.57 79.5505 237.57 80.3244C237.57 81.0983 238.282 81.7257 239.16 81.7257ZM239.16 81.1313C239.666 81.1313 240.076 80.77 240.076 80.3245C240.076 79.8789 239.666 79.5176 239.16 79.5176C238.654 79.5176 238.244 79.8789 238.244 80.3245C238.244 80.77 238.654 81.1313 239.16 81.1313Z" fill="black"/>
<path fill-rule="evenodd" clip-rule="evenodd" d="M245.726 81.7257C246.605 81.7257 247.317 81.0983 247.317 80.3244C247.317 79.5505 246.605 78.9231 245.726 78.9231C244.848 78.9231 244.135 79.5505 244.135 80.3244C244.135 81.0983 244.848 81.7257 245.726 81.7257ZM245.726 81.1313C246.232 81.1313 246.642 80.77 246.642 80.3245C246.642 79.8789 246.232 79.5176 245.726 79.5176C245.22 79.5176 244.81 79.8789 244.81 80.3245C244.81 80.77 245.22 81.1313 245.726 81.1313Z" fill="black"/>
<path fill-rule="evenodd" clip-rule="evenodd" d="M242.529 92.6726C243.408 92.6726 244.12 92.0452 244.12 91.2713C244.12 90.4974 243.408 89.87 242.529 89.87C241.651 89.87 240.939 90.4974 240.939 91.2713C240.939 92.0452 241.651 92.6726 242.529 92.6726ZM242.529 92.0782C243.035 92.0782 243.445 91.7169 243.445 91.2713C243.445 90.8258 243.035 90.4645 242.529 90.4645C242.023 90.4645 241.613 90.8258 241.613 91.2713C241.613 91.7169 242.023 92.0782 242.529 92.0782Z" fill="black"/>
<path d="M242.486 83.9759V90.2092M242.486 83.9759L240.006 81.3925M242.486 83.9759L245.033 81.3925" stroke="black"/>
<path d="M200.598 24.3438H193.355V46H189.172V24.3438H181.947V20.793H200.598V24.3438ZM215.557 38.1074H203.287C203.334 39.7715 203.844 41.0547 204.816 41.957C205.801 42.8594 207.148 43.3105 208.859 43.3105C210.781 43.3105 212.545 42.7363 214.15 41.5879V44.875C212.51 45.9062 210.342 46.4219 207.646 46.4219C204.998 46.4219 202.918 45.6074 201.406 43.9785C199.906 42.3379 199.156 40.0352 199.156 37.0703C199.156 34.2695 199.982 31.9902 201.635 30.2324C203.299 28.4629 205.361 27.5781 207.822 27.5781C210.283 27.5781 212.188 28.3691 213.535 29.9512C214.883 31.5332 215.557 33.7305 215.557 36.543V38.1074ZM211.619 35.2246C211.607 33.7598 211.262 32.623 210.582 31.8145C209.902 30.9941 208.965 30.584 207.77 30.584C206.598 30.584 205.602 31.0117 204.781 31.8672C203.973 32.7227 203.475 33.8418 203.287 35.2246H211.619ZM232.326 45.1738C230.885 46.0059 229.18 46.4219 227.211 46.4219C224.539 46.4219 222.383 45.5898 220.742 43.9258C219.102 42.25 218.281 40.082 218.281 37.4219C218.281 34.457 219.16 32.0781 220.918 30.2852C222.688 28.4805 225.049 27.5781 228.002 27.5781C229.643 27.5781 231.09 27.8652 232.344 28.4395V32.2363C231.09 31.2988 229.754 30.8301 228.336 30.8301C226.613 30.8301 225.201 31.416 224.1 32.5879C222.998 33.748 222.447 35.2715 222.447 37.1582C222.447 39.0215 222.963 40.4922 223.994 41.5703C225.037 42.6484 226.432 43.1875 228.178 43.1875C229.643 43.1875 231.025 42.666 232.326 41.623V45.1738ZM252.383 46H248.305V36.1562C248.305 32.5938 247.115 30.8125 244.736 30.8125C243.541 30.8125 242.533 31.3281 241.713 32.3594C240.893 33.3906 240.482 34.709 240.482 36.3145V46H236.387V19.3516H240.482V30.9883H240.553C241.912 28.7148 243.857 27.5781 246.389 27.5781C250.385 27.5781 252.383 30.0215 252.383 34.9082V46ZM134.311 84.8594V94H130.145V68.793H137.791C140.686 68.793 142.93 69.4668 144.523 70.8145C146.117 72.1621 146.914 74.0605 146.914 76.5098C146.914 78.959 146.082 80.9629 144.418 82.5215C142.754 84.0801 140.504 84.8594 137.668 84.8594H134.311ZM134.311 72.2383V81.4492H137.018C138.811 81.4492 140.176 81.0332 141.113 80.2012C142.051 79.3691 142.52 78.1973 142.52 76.6855C142.52 73.7207 140.797 72.2383 137.352 72.2383H134.311ZM166.742 94H162.664V84.1562C162.664 80.5938 161.475 78.8125 159.096 78.8125C157.9 78.8125 156.893 79.3281 156.072 80.3594C155.252 81.3906 154.842 82.709 154.842 84.3145V94H150.746V67.3516H154.842V78.9883H154.912C156.271 76.7148 158.217 75.5781 160.748 75.5781C164.744 75.5781 166.742 78.0215 166.742 82.9082V94ZM185.516 94H181.561V91.1875H181.49C180.248 93.3438 178.426 94.4219 176.023 94.4219C174.254 94.4219 172.865 93.9414 171.857 92.9805C170.861 92.0195 170.363 90.748 170.363 89.166C170.363 85.7676 172.32 83.7871 176.234 83.2246L181.578 82.4688C181.578 79.9023 180.359 78.6191 177.922 78.6191C175.777 78.6191 173.844 79.3574 172.121 80.834V77.2656C174.02 76.1406 176.211 75.5781 178.695 75.5781C183.242 75.5781 185.516 77.8164 185.516 82.293V94ZM181.578 85.1582L177.799 85.6855C176.627 85.8379 175.742 86.125 175.145 86.5469C174.559 86.957 174.266 87.6836 174.266 88.7266C174.266 89.4883 174.535 90.1152 175.074 90.6074C175.625 91.0879 176.357 91.3281 177.271 91.3281C178.514 91.3281 179.539 90.8945 180.348 90.0273C181.168 89.1484 181.578 88.0469 181.578 86.7227V85.1582ZM206.539 94H202.461V83.8574C202.461 80.4941 201.271 78.8125 198.893 78.8125C197.65 78.8125 196.625 79.2812 195.816 80.2188C195.008 81.1445 194.604 82.3164 194.604 83.7344V94H190.508V76H194.604V78.9883H194.674C196.021 76.7148 197.967 75.5781 200.51 75.5781C202.467 75.5781 203.961 76.2168 204.992 77.4941C206.023 78.7598 206.539 80.5938 206.539 82.9961V94ZM221.023 93.8066C220.227 94.2051 219.178 94.4043 217.877 94.4043C214.385 94.4043 212.639 92.7285 212.639 89.377V79.1992H209.633V76H212.639V71.834L216.717 70.6738V76H221.023V79.1992H216.717V88.1992C216.717 89.2656 216.91 90.0273 217.297 90.4844C217.684 90.9414 218.328 91.1699 219.23 91.1699C219.922 91.1699 220.52 90.9707 221.023 90.5723V93.8066ZM291.107 94H287.029V84.1914C287.029 82.3047 286.76 80.9395 286.221 80.0957C285.693 79.252 284.797 78.8301 283.531 78.8301C282.465 78.8301 281.557 79.3633 280.807 80.4297C280.068 81.4961 279.699 82.7734 279.699 84.2617V94H275.604V83.8574C275.604 80.5059 274.42 78.8301 272.053 78.8301C270.951 78.8301 270.043 79.334 269.328 80.3418C268.625 81.3496 268.273 82.6562 268.273 84.2617V94H264.195V76H268.273V78.8477H268.344C269.645 76.668 271.537 75.5781 274.021 75.5781C275.264 75.5781 276.348 75.9238 277.273 76.6152C278.211 77.2949 278.85 78.1914 279.189 79.3047C280.525 76.8203 282.518 75.5781 285.166 75.5781C289.127 75.5781 291.107 78.0215 291.107 82.9082V94ZM294.957 93.4375V89.6582C296.48 90.8184 298.162 91.3984 300.002 91.3984C302.463 91.3984 303.693 90.6719 303.693 89.2188C303.693 88.8086 303.588 88.4629 303.377 88.1816C303.166 87.8887 302.879 87.6309 302.516 87.4082C302.164 87.1855 301.742 86.9863 301.25 86.8105C300.77 86.6348 300.23 86.4355 299.633 86.2129C298.895 85.9199 298.227 85.6094 297.629 85.2812C297.043 84.9531 296.551 84.584 296.152 84.1738C295.766 83.752 295.473 83.2773 295.273 82.75C295.074 82.2227 294.975 81.6074 294.975 80.9043C294.975 80.0371 295.18 79.2754 295.59 78.6191C296 77.9512 296.551 77.3945 297.242 76.9492C297.934 76.4922 298.719 76.1523 299.598 75.9297C300.477 75.6953 301.385 75.5781 302.322 75.5781C303.986 75.5781 305.475 75.8301 306.787 76.334V79.9023C305.521 79.0352 304.068 78.6016 302.428 78.6016C301.912 78.6016 301.443 78.6543 301.021 78.7598C300.611 78.8652 300.26 79.0117 299.967 79.1992C299.674 79.3867 299.445 79.6152 299.281 79.8848C299.117 80.1426 299.035 80.4297 299.035 80.7461C299.035 81.1328 299.117 81.4609 299.281 81.7305C299.445 82 299.686 82.2402 300.002 82.4512C300.33 82.6504 300.717 82.8379 301.162 83.0137C301.619 83.1777 302.141 83.3594 302.727 83.5586C303.5 83.875 304.191 84.1973 304.801 84.5254C305.422 84.8535 305.949 85.2285 306.383 85.6504C306.816 86.0605 307.15 86.541 307.385 87.0918C307.619 87.6309 307.736 88.2754 307.736 89.0254C307.736 89.9395 307.525 90.7363 307.104 91.416C306.682 92.0957 306.119 92.6582 305.416 93.1035C304.713 93.5488 303.898 93.877 302.973 94.0879C302.059 94.3105 301.092 94.4219 300.072 94.4219C298.104 94.4219 296.398 94.0938 294.957 93.4375Z" fill="#ED654B"/>
</svg>
