<svg width="405" height="283" viewBox="0 0 405 283" fill="none" xmlns="http://www.w3.org/2000/svg">
<path d="M247.471 41.9648L263.501 57.4086L279.612 144.467H128.49L247.471 41.9648Z" fill="#FFCF2D"/>
<path d="M263.639 57.2873L247.56 41.795L250.249 39.0055C254.21 34.8979 261.347 35.3669 265.461 39.3127C269.576 43.2666 270.297 50.3901 266.336 54.4977L263.639 57.2873Z" fill="white" stroke="#FFCF2D" stroke-width="6" stroke-miterlimit="10" stroke-linecap="round"/>
<path d="M266.328 54.4977L250.241 39.0055" stroke="#FFCF2D" stroke-width="6" stroke-miterlimit="10" stroke-linecap="round"/>
<path d="M266.344 40.0162L268.142 38.6416C270.556 36.7981 274.023 37.2832 275.829 39.7332L320.023 93.4385L297.4 143.804" stroke="#3FB1B5" stroke-width="6" stroke-miterlimit="10" stroke-linecap="round"/>
<path d="M319.302 96.1795C320.671 96.1795 321.781 95.0718 321.781 93.7053C321.781 92.3388 320.671 91.2311 319.302 91.2311C317.933 91.2311 316.823 92.3388 316.823 93.7053C316.823 95.0718 317.933 96.1795 319.302 96.1795Z" fill="white" stroke="#FFCF2D" stroke-width="6" stroke-miterlimit="10" stroke-linecap="round"/>
<path d="M291.114 138.177H303.191C306.666 138.177 309.477 140.991 309.477 144.451V144.629H284.82V144.451C284.828 140.991 287.639 138.177 291.114 138.177Z" fill="white" stroke="#FFCF2D" stroke-width="6" stroke-miterlimit="10" stroke-linecap="round"/>
<path d="M232.608 126.267H156.152C153.276 126.267 150.952 123.946 150.952 121.075V67.6936C150.952 64.8232 153.276 62.5026 156.152 62.5026H232.608C235.483 62.5026 237.808 64.8232 237.808 67.6936V121.067C237.816 123.938 235.483 126.267 232.608 126.267Z" fill="white" stroke="#3FB1B5" stroke-width="6" stroke-miterlimit="10" stroke-linecap="round"/>
<path d="M232.656 121.302H156.938C155.812 121.302 154.904 120.388 154.904 119.272V68.203C154.904 67.0791 155.82 66.1735 156.938 66.1735H232.656C233.782 66.1735 234.689 67.0871 234.689 68.203V119.264C234.698 120.388 233.782 121.302 232.656 121.302Z" fill="#66B0F0" stroke="#66B0F0" stroke-width="6" stroke-miterlimit="10" stroke-linejoin="round"/>
<path d="M159.651 70.9441H158.452C158.063 70.9441 157.739 70.6288 157.739 70.2326V69.0359C157.739 68.6478 158.055 68.3243 158.452 68.3243H159.651C160.04 68.3243 160.364 68.6397 160.364 69.0359V70.2326C160.356 70.6288 160.04 70.9441 159.651 70.9441Z" stroke="white" stroke-width="6" stroke-miterlimit="10" stroke-linecap="round"/>
<path d="M165.102 70.9441H163.903C163.515 70.9441 163.191 70.6288 163.191 70.2326V69.0359C163.191 68.6478 163.507 68.3243 163.903 68.3243H165.102C165.491 68.3243 165.815 68.6397 165.815 69.0359V70.2326C165.815 70.6288 165.491 70.9441 165.102 70.9441Z" stroke="white" stroke-width="6" stroke-miterlimit="10" stroke-linecap="round"/>
<path d="M170.554 70.9441H169.355C168.966 70.9441 168.642 70.6288 168.642 70.2326V69.0359C168.642 68.6478 168.958 68.3243 169.355 68.3243H170.554C170.942 68.3243 171.266 68.6397 171.266 69.0359V70.2326C171.266 70.6288 170.951 70.9441 170.554 70.9441Z" stroke="white" stroke-width="6" stroke-miterlimit="10" stroke-linecap="round"/>
<path d="M210.519 144.467H180.841L186.664 126.266H204.687L210.519 144.467Z" fill="white" stroke="#3FB1B5" stroke-width="6" stroke-miterlimit="10" stroke-linecap="round"/>
<path d="M183.173 137.182L186.665 126.266H204.687L183.173 137.182Z" fill="#3FB1B5"/>
<path d="M228.25 82.919H213.824C212.471 82.919 211.378 81.8275 211.378 80.4772V71.1786C211.378 69.8283 212.471 68.7367 213.824 68.7367H228.25C229.603 68.7367 230.696 69.8283 230.696 71.1786V80.4772C230.696 81.8275 229.603 82.919 228.25 82.919Z" stroke="white" stroke-width="6" stroke-miterlimit="10" stroke-linecap="round"/>
<path d="M215.501 72.0519H226.508" stroke="white" stroke-width="6" stroke-miterlimit="10" stroke-linecap="round"/>
<path d="M215.501 74.5583H226.508" stroke="white" stroke-width="6" stroke-miterlimit="10" stroke-linecap="round"/>
<path d="M215.501 77.0649H226.508" stroke="white" stroke-width="6" stroke-miterlimit="10" stroke-linecap="round"/>
<path d="M215.501 79.5715H226.508" stroke="white" stroke-width="6" stroke-miterlimit="10" stroke-linecap="round"/>
<path d="M232.235 121.302H174.895L171.534 126.113C167.735 131.546 159.708 131.627 155.803 126.267L135.327 98.1525C136.185 99.2198 140.114 98.0312 143.856 95.5732C147.655 93.0747 150.109 89.9294 149.34 88.765L163.539 106.828L167.889 99.1632C169.079 97.1337 171.056 95.6783 173.356 95.1446L188.155 92.0155H200.912L214.974 95.1123C217.42 95.6702 219.494 97.2631 220.668 99.4705L232.235 121.302Z" fill="white" stroke="#3FB1B5" stroke-width="6" stroke-miterlimit="10"/>
<path d="M216.497 120.97L212.422 112.941" stroke="#3FB1B5" stroke-width="6" stroke-miterlimit="10" stroke-linecap="round"/>
<path d="M174.571 121.722L178.605 113.774" stroke="#3FB1B5" stroke-width="6" stroke-miterlimit="10" stroke-linecap="round"/>
<path d="M158.015 99.8181L167.257 111.615" stroke="#3FB1B5" stroke-width="6" stroke-miterlimit="10" stroke-linecap="round"/>
<path d="M196.125 95.8966L199.527 100.028L207.141 93.576" stroke="#3FB1B5" stroke-width="6" stroke-miterlimit="10" stroke-linecap="round"/>
<path d="M193.525 95.9775L190.22 100.19L181.853 93.576" stroke="#3FB1B5" stroke-width="6" stroke-miterlimit="10" stroke-linecap="round"/>
<path d="M152.158 92.3793C152.928 93.5517 150.466 96.7375 146.642 99.2683C142.884 101.759 138.899 102.955 138.032 101.88" stroke="#3FB1B5" stroke-width="6" stroke-miterlimit="10" stroke-linecap="round"/>
<path d="M149.615 94.425C150.121 94.425 150.53 94.016 150.53 93.5113C150.53 93.0067 150.121 92.5977 149.615 92.5977C149.11 92.5977 148.7 93.0067 148.7 93.5113C148.7 94.016 149.11 94.425 149.615 94.425Z" stroke="#3FB1B5" stroke-width="6" stroke-miterlimit="10" stroke-linecap="round"/>
<path d="M194.813 100.166C195.319 100.166 195.728 99.7568 195.728 99.2522C195.728 98.7476 195.319 98.3385 194.813 98.3385C194.308 98.3385 193.898 98.7476 193.898 99.2522C193.898 99.7568 194.308 100.166 194.813 100.166Z" stroke="#3FB1B5" stroke-width="6" stroke-miterlimit="10" stroke-linecap="round"/>
<path d="M194.813 107.524C195.319 107.524 195.728 107.115 195.728 106.61C195.728 106.106 195.319 105.697 194.813 105.697C194.308 105.697 193.898 106.106 193.898 106.61C193.898 107.115 194.308 107.524 194.813 107.524Z" stroke="#3FB1B5" stroke-width="6" stroke-miterlimit="10" stroke-linecap="round"/>
<path d="M171.242 126.501L174.895 121.302V126.501H171.242Z" fill="#3FB1B5"/>
<path d="M143.767 95.3306C140.025 97.7886 136.096 98.9772 135.238 97.9099C135.221 97.8937 135.213 97.8776 135.197 97.8533C135.019 97.5865 135.035 97.2226 135.197 96.7779C135.756 95.3144 138.065 93.0504 140.997 91.126C143.33 89.5897 145.63 88.5224 147.226 88.1909C148.149 88.0049 148.838 88.0615 149.17 88.4173L149.251 88.5143C150.012 89.6786 147.566 92.8321 143.767 95.3306Z" fill="#FE5244"/>
<path d="M143.767 95.3306C141.637 96.7294 139.441 97.724 137.789 98.1121L130.394 87.6977C129.365 86.2422 129.705 84.2289 131.171 83.202L137.83 78.5285L134.055 72.1165C133.504 71.1867 133.82 69.9819 134.76 69.4401C135.067 69.2623 135.4 69.1814 135.732 69.1814C136.372 69.1814 137.003 69.4967 137.376 70.0789L149.178 88.4011L149.259 88.5305C150.012 89.6787 147.566 92.8321 143.767 95.3306Z" fill="#E57281"/>
<path d="M137.813 78.6012L141.936 84.9808C142.317 85.5792 142.147 86.3716 141.548 86.7597L140.632 87.358C140.033 87.7542 139.223 87.5844 138.834 86.9861L134.938 81.1644" stroke="#9A3B82" stroke-width="6" stroke-miterlimit="10" stroke-linecap="round"/>
<path d="M138.818 86.97C139.215 87.5764 139.036 88.3931 138.429 88.7812L137.595 89.3067C136.995 89.6868 136.201 89.517 135.813 88.9267" stroke="#9A3B82" stroke-width="6" stroke-miterlimit="10" stroke-linecap="round"/>
<path d="M131.981 83.2181L135.797 88.8781C136.193 89.4846 136.023 90.3012 135.4 90.6893L134.622 91.1179C134.039 91.4898 133.269 91.3362 132.864 90.7702L130.653 87.6572" stroke="#9A3B82" stroke-width="6" stroke-miterlimit="10" stroke-linecap="round"/>
<path d="M146.424 84.1319L144.488 81.1321C143.848 80.1375 142.511 79.8626 141.531 80.5256L136.728 83.7761C136.728 83.7761 138.121 86.2746 141.507 84.2936L142.641 86.0967C140.324 87.5602 139.66 90.6409 141.167 92.9291L146.424 84.1319Z" fill="#E57281"/>
<path d="M146.173 84.2127L144.237 81.2129C143.597 80.2183 142.26 79.9434 141.28 80.6064L136.728 83.776C136.728 83.776 138.121 86.2745 141.507 84.2935L142.641 86.0966C140.324 87.5602 139.66 90.6408 141.167 92.9291" stroke="#9A3B82" stroke-width="6" stroke-miterlimit="10" stroke-linecap="round"/>
<path d="M143.767 95.3306C141.637 96.7294 139.441 97.724 137.789 98.1121L135.95 95.5247C136.979 94.1825 138.818 92.5653 140.997 91.1341C143.329 89.5979 145.63 88.5306 147.226 88.199C148.149 88.0131 148.837 88.0697 149.17 88.4254L149.251 88.5225C149.259 88.5386 149.267 88.5467 149.275 88.5629C149.283 88.571 149.283 88.5791 149.291 88.5952C149.299 88.6114 149.307 88.6195 149.315 88.6357C149.866 89.8728 147.444 92.9049 143.767 95.3306Z" fill="#9A3B82"/>
<path d="M200.904 84.9V92.0074C200.904 94.0692 198.037 95.7349 194.513 95.7349C190.982 95.7349 188.122 94.0692 188.122 92.0074V84.9H200.904Z" fill="#E57281"/>
<path d="M189.994 94.6433C188.835 93.9722 188.114 93.0343 188.114 92.0074V84.9H200.904V86.8729C200.904 88.9186 199.657 90.7541 197.762 91.5222L189.994 94.6433Z" fill="#9A3B82"/>
<path d="M204.468 84.4795V84.6008C204.468 85.8298 203.472 86.8244 202.241 86.8244H200.775C200.281 88.8134 198.482 90.2931 196.328 90.2931H192.699C190.552 90.2931 188.746 88.8215 188.26 86.8244H186.794C185.563 86.8244 184.567 85.8298 184.567 84.6008V84.4795C184.567 83.2505 185.563 82.2559 186.794 82.2559H188.122V80.5013C188.122 78.6254 189.508 77.073 191.314 76.8142C191.711 77.4772 192.91 79.062 195.356 78.9731C196.506 78.9327 197.575 78.7144 198.458 78.4556C199.519 78.1484 200.58 78.7952 200.848 79.8059C200.888 80.0323 200.912 80.2587 200.912 80.4932V82.2478H202.241C203.464 82.2478 204.468 83.2505 204.468 84.4795Z" fill="#E57281"/>
<path d="M201.925 82.2479H200.904V80.2992C200.904 80.1294 200.88 79.9596 200.84 79.806C200.572 78.7953 199.511 78.1484 198.45 78.4557C197.567 78.7144 196.506 78.9327 195.348 78.9732C192.902 79.0621 191.703 77.4773 191.306 76.8143C189.5 77.073 188.114 78.6255 188.114 80.5014V82.256H186.843C186.843 82.256 185.385 76.9922 186.478 75.5044C187.556 74.0409 188.852 74.6797 188.852 74.6797C188.852 74.6797 188.074 70.2972 192.416 70.3781C196.749 70.4589 202.387 75.4801 202.8 76.4019C203.448 77.8169 201.925 82.2479 201.925 82.2479Z" fill="#9A3B82"/>
<path d="M201.398 84.8919C201.398 84.0268 202.103 83.3314 202.962 83.3314" stroke="#9A3B82" stroke-width="5" stroke-miterlimit="10" stroke-linecap="round"/>
<path d="M187.645 84.8919C187.645 84.0268 186.94 83.3314 186.081 83.3314" stroke="#9A3B82" stroke-width="5" stroke-miterlimit="10" stroke-linecap="round"/>
<path d="M198.863 80.5014C198.863 80.5014 197.713 79.6605 196.247 80.2669" stroke="#9A3B82" stroke-width="5" stroke-miterlimit="10" stroke-linecap="round"/>
<path d="M190.083 80.5014C190.083 80.5014 191.233 79.6605 192.699 80.2669" stroke="#9A3B82" stroke-width="5" stroke-miterlimit="10" stroke-linecap="round"/>
<path d="M196.53 86.4686C196.53 86.4686 195.907 87.8108 193.995 87.1074" stroke="#9A3B82" stroke-width="5" stroke-miterlimit="10" stroke-linecap="round"/>
<path d="M193.906 85.7733C194.4 85.8062 195.153 85.7733 195.153 85.7733" stroke="#9A3B82" stroke-width="5" stroke-miterlimit="10" stroke-linecap="round"/>
<path d="M197.559 83.8732C197.783 83.8732 197.964 83.5691 197.964 83.194C197.964 82.8189 197.783 82.5148 197.559 82.5148C197.335 82.5148 197.154 82.8189 197.154 83.194C197.154 83.5691 197.335 83.8732 197.559 83.8732Z" fill="#9A3B82"/>
<path d="M191.751 83.8732C191.975 83.8732 192.156 83.5691 192.156 83.194C192.156 82.8189 191.975 82.5148 191.751 82.5148C191.528 82.5148 191.346 82.8189 191.346 83.194C191.346 83.5691 191.528 83.8732 191.751 83.8732Z" fill="#9A3B82"/>
<path d="M192.715 85.4821H190.164C189.67 85.4821 189.273 85.0859 189.273 84.5927V82.0457C189.273 81.5525 189.67 81.1562 190.164 81.1562H192.715C193.209 81.1562 193.606 81.5525 193.606 82.0457V84.5927C193.614 85.0778 193.209 85.4821 192.715 85.4821Z" stroke="white" stroke-width="5" stroke-miterlimit="10"/>
<path d="M198.96 85.4821H196.409C195.915 85.4821 195.518 85.0859 195.518 84.5927V82.0457C195.518 81.5525 195.915 81.1562 196.409 81.1562H198.96C199.454 81.1562 199.851 81.5525 199.851 82.0457V84.5927C199.851 85.0778 199.454 85.4821 198.96 85.4821Z" stroke="white" stroke-width="5" stroke-miterlimit="10"/>
<path d="M193.614 82.8381H195.518" stroke="white" stroke-width="5" stroke-miterlimit="10"/>
<path d="M199.633 118.165H190.779C189.977 118.165 189.321 117.518 189.321 116.709V112.011C189.321 111.211 189.969 110.556 190.779 110.556H199.633C200.434 110.556 201.091 111.203 201.091 112.011V116.709C201.091 117.51 200.443 118.165 199.633 118.165Z" stroke="#66B0F0" stroke-width="6" stroke-miterlimit="10" stroke-linejoin="round"/>
<path d="M195.429 116.272H192.432C191.954 116.272 191.565 115.884 191.565 115.407V113.313C191.565 112.836 191.954 112.448 192.432 112.448H195.429C195.907 112.448 196.295 112.836 196.295 113.313V115.407C196.295 115.884 195.907 116.272 195.429 116.272Z" fill="#66B0F0"/>
<path d="M198.345 116.216L197.421 115.602C197.17 115.432 197.016 115.141 197.016 114.825V113.904C197.016 113.588 197.17 113.297 197.421 113.127L198.345 112.513C198.563 112.367 198.847 112.529 198.847 112.804V115.933C198.855 116.2 198.563 116.362 198.345 116.216Z" fill="#66B0F0"/>
<path d="M318.038 144.629H103.008" stroke="#3FB1B5" stroke-width="6" stroke-miterlimit="10" stroke-linecap="round"/>
<path d="M172.238 146.044V245.87H166.593V226.869C166.593 225.098 165.151 223.659 163.377 223.659H122.966C121.192 223.659 119.75 225.098 119.75 226.869V245.87H114.105V146.044H172.238Z" fill="white" stroke="#3FB1B5" stroke-width="6" stroke-miterlimit="10" stroke-linecap="round"/>
<path d="M172.408 146.044V172.533L114.105 220.457L114.113 146.044H172.408Z" fill="#D0F0E4"/>
<path d="M166.593 153.645V171.749C166.593 173.43 165.232 174.789 163.547 174.789H122.804C121.119 174.789 119.758 173.43 119.758 171.749V153.645C119.758 151.963 121.119 150.604 122.804 150.604H163.547C165.232 150.604 166.593 151.963 166.593 153.645Z" stroke="#3FB1B5" stroke-width="6" stroke-miterlimit="10" stroke-linecap="round"/>
<path d="M153.536 188.502H133.48L132.646 182.77H152.709L153.536 188.502Z" fill="#FFCF2D"/>
<path d="M164.236 179.462C161.733 179.462 159.708 181.484 159.708 183.982V188.502H142.641V183.982C142.641 181.484 144.666 179.462 147.169 179.462H164.236Z" fill="white" stroke="#3FB1B5" stroke-width="6" stroke-miterlimit="10" stroke-linecap="round"/>
<path d="M168.488 182.769H151.421C150.895 180.861 149.137 179.462 147.055 179.462H164.122C166.204 179.462 167.953 180.861 168.488 182.769Z" fill="white" stroke="#3FB1B5" stroke-width="6" stroke-miterlimit="10" stroke-linecap="round"/>
<path d="M166.593 191.542V209.646C166.593 211.328 165.232 212.687 163.547 212.687H122.804C121.119 212.687 119.758 211.328 119.758 209.646V191.542C119.758 189.861 121.119 188.502 122.804 188.502H163.547C165.232 188.502 166.593 189.861 166.593 191.542Z" stroke="#3FB1B5" stroke-width="6" stroke-miterlimit="10" stroke-linecap="round"/>
<path d="M134.833 162.337C134.833 160.898 135.999 159.725 137.449 159.725H148.91C150.352 159.725 151.527 160.89 151.527 162.337" stroke="#3FB1B5" stroke-width="6" stroke-miterlimit="10" stroke-linecap="round"/>
<path d="M134.833 200.235C134.833 198.795 135.999 197.623 137.449 197.623H148.91C150.352 197.623 151.527 198.787 151.527 200.235" stroke="#3FB1B5" stroke-width="6" stroke-miterlimit="10" stroke-linecap="round"/>
<path d="M309.477 146.044H303.458V246.089H309.477V146.044Z" fill="white" stroke="#3FB1B5" stroke-width="6" stroke-miterlimit="10" stroke-linecap="round"/>
<path d="M207.198 246.089H332.797" stroke="#3FB1B5" stroke-width="6" stroke-miterlimit="10" stroke-linecap="round"/>
<path d="M131.196 130.908H127.559C127.559 130.908 122.367 109.311 117.806 108.607C113.246 107.904 113.011 116.216 113.011 116.216C113.011 116.216 113.092 103.578 124.489 105.308C135.894 107.039 131.196 130.908 131.196 130.908Z" fill="white" stroke="#3FB1B5" stroke-width="6" stroke-miterlimit="10" stroke-linecap="round"/>
<path d="M118.738 105.858C118.738 105.858 129.13 102.026 129.6 130.584" stroke="#3FB1B5" stroke-width="6" stroke-miterlimit="10" stroke-linecap="round"/>
<path d="M141.102 130.584H124.019V144.468H141.102V130.584Z" fill="#FE5244"/>
<path d="M144.698 137.53C143.613 137.999 142.317 137.942 141.11 137.417C140.219 137.029 139.377 136.39 138.696 135.517C137.757 134.304 137.125 132.646 137.125 130.584C137.125 125.587 133.14 122.45 131.503 129.064C131.39 129.525 131.285 130.026 131.196 130.584V130.568V130.536C131.196 130.52 131.196 130.495 131.204 130.471V130.439C131.236 130.026 131.358 128.806 131.73 127.334C132.006 126.242 132.419 125.03 133.034 123.906C133.342 123.348 133.699 122.814 134.12 122.337C135.205 121.092 136.696 120.219 138.729 120.219C142.471 120.219 145.209 124.617 146.254 129C147.169 132.808 146.796 136.616 144.698 137.53Z" fill="white" stroke="#3FB1B5" stroke-width="6" stroke-miterlimit="10" stroke-linecap="round"/>
<path d="M134.128 122.337C134.128 122.337 141.628 117.008 143.832 137.684" stroke="#3FB1B5" stroke-width="6" stroke-miterlimit="10" stroke-linecap="round"/>
<path d="M112.768 116.216C112.768 117.55 112.614 122.652 117.49 122.887C122.367 123.121 122.853 115.771 122.853 115.771C122.853 115.771 120.455 109.27 117.806 108.607C113.327 107.483 112.768 116.216 112.768 116.216Z" fill="#3FB1B5"/>
<path d="M137.125 130.584H131.196C132.565 122.022 137.125 125.24 137.125 130.584Z" fill="#3FB1B5"/>
<path opacity="0.4" d="M237.816 67.6936V121.067C237.816 123.938 235.483 126.258 232.616 126.258H171.42C167.581 131.538 159.667 131.563 155.795 126.258L155.787 126.25C154.248 126.145 152.887 125.361 152.013 124.205L153.422 122.992L189.386 92.0073L223.633 62.5026H232.616C235.483 62.5026 237.816 64.8313 237.816 67.6936Z" fill="white"/>
<path opacity="0.4" d="M144.698 137.773C143.621 138.258 142.317 138.185 141.11 137.659V144.467H128.498L138.704 135.678L141.118 133.6L142.957 132.015L146.513 129C147.55 133.414 146.974 136.729 144.698 137.773Z" fill="white"/>
<path d="M78.3182 70.1032C78.221 70.1032 78.1238 70.0385 78.0914 69.9415C78.0509 69.8121 78.1157 69.6747 78.2372 69.6343L78.9986 69.3674C79.1282 69.327 79.2659 69.3917 79.3064 69.513C79.3469 69.6423 79.2821 69.7798 79.1606 69.8202L78.3992 70.0871C78.3668 70.0951 78.3425 70.1032 78.3182 70.1032ZM80.2298 69.4402C80.1326 69.4402 80.0354 69.3755 80.003 69.2785C79.9625 69.1491 80.0273 69.0117 80.1488 68.9712L80.9102 68.7044C81.0398 68.664 81.1775 68.7287 81.218 68.8499C81.2585 68.9793 81.1937 69.1168 81.0722 69.1572L80.3108 69.424C80.2865 69.4321 80.2541 69.4402 80.2298 69.4402ZM82.1414 68.7691C82.0442 68.7691 81.947 68.7044 81.9146 68.6074C81.8741 68.478 81.9389 68.3405 82.0604 68.3001L82.8218 68.0333C82.9514 67.9929 83.0891 68.0575 83.1296 68.1788C83.1701 68.3082 83.1053 68.4457 82.9838 68.4861L82.2224 68.7529C82.1981 68.7691 82.1657 68.7691 82.1414 68.7691ZM84.053 68.1061C83.9558 68.1061 83.8586 68.0414 83.8262 67.9443C83.7857 67.815 83.8505 67.6775 83.972 67.6371L84.7334 67.3703C84.863 67.3298 85.0007 67.3945 85.0412 67.5158C85.0817 67.6452 85.0169 67.7826 84.8954 67.8231L84.134 68.0899C84.1097 68.1061 84.0854 68.1061 84.053 68.1061ZM85.9646 67.443C85.8674 67.443 85.7702 67.3783 85.7378 67.2813C85.6973 67.1519 85.7621 67.0145 85.8836 66.9741L86.645 66.7072C86.7746 66.6668 86.9123 66.7315 86.9528 66.8528C86.9933 66.9821 86.9285 67.1196 86.807 67.16L86.0456 67.4269C86.0213 67.443 85.997 67.443 85.9646 67.443ZM87.8843 66.78C87.7871 66.78 87.6899 66.7153 87.6575 66.6183C87.617 66.4889 87.6818 66.3515 87.8033 66.311L88.5647 66.0442C88.6943 66.0038 88.832 66.0685 88.8725 66.1897C88.913 66.3191 88.8482 66.4566 88.7267 66.497L87.9653 66.7638C87.9329 66.78 87.9086 66.78 87.8843 66.78ZM89.7959 66.117C89.6987 66.117 89.6015 66.0523 89.5691 65.9553C89.5286 65.8259 89.5934 65.6884 89.7149 65.648L90.4763 65.3812C90.6059 65.3407 90.7436 65.4054 90.7841 65.5267C90.8246 65.6561 90.7598 65.7935 90.6383 65.834L89.8769 66.1008C89.8445 66.1089 89.8202 66.117 89.7959 66.117ZM91.7075 65.4539C91.6103 65.4539 91.5131 65.3893 91.4807 65.2922C91.4402 65.1629 91.505 65.0254 91.6265 64.985L92.3879 64.7181C92.5175 64.6777 92.6552 64.7424 92.6957 64.8637C92.7362 64.9931 92.6714 65.1305 92.5499 65.1709L91.7885 65.4378C91.7561 65.4459 91.7318 65.4539 91.7075 65.4539ZM93.6191 64.7909C93.5219 64.7909 93.4247 64.7262 93.3923 64.6292C93.3518 64.4998 93.4166 64.3624 93.5381 64.3219L94.2995 64.0551C94.4291 64.0147 94.5668 64.0794 94.6073 64.2007C94.6478 64.33 94.583 64.4675 94.4615 64.5079L93.7001 64.7747C93.6758 64.7828 93.6434 64.7909 93.6191 64.7909ZM95.5307 64.1279C95.4335 64.1279 95.3363 64.0632 95.3039 63.9662C95.2634 63.8368 95.3282 63.6993 95.4497 63.6589L96.2111 63.3921C96.3407 63.3517 96.4784 63.4163 96.5189 63.5376C96.5594 63.667 96.4946 63.8045 96.3731 63.8449L95.6117 64.1117C95.5874 64.1198 95.555 64.1279 95.5307 64.1279ZM97.4423 63.4649C97.3451 63.4649 97.2479 63.4002 97.2155 63.3032C97.175 63.1738 97.2398 63.0363 97.3613 62.9959L98.1227 62.7291C98.2523 62.6886 98.39 62.7533 98.4305 62.8746C98.471 63.004 98.4062 63.1414 98.2847 63.1819L97.5233 63.4487C97.499 63.4568 97.4666 63.4649 97.4423 63.4649ZM99.3539 62.7937C99.2567 62.7937 99.1595 62.7291 99.1271 62.632C99.0866 62.5027 99.1514 62.3652 99.2729 62.3248L100.034 62.058C100.164 62.0175 100.302 62.0822 100.342 62.2035C100.383 62.3329 100.318 62.4703 100.196 62.5107L99.4349 62.7776C99.4106 62.7938 99.3863 62.7937 99.3539 62.7937ZM101.265 62.1307C101.168 62.1307 101.071 62.066 101.039 61.969C100.998 61.8396 101.063 61.7022 101.184 61.6617L101.946 61.3949C102.075 61.3545 102.213 61.4192 102.254 61.5405C102.294 61.6698 102.229 61.8073 102.108 61.8477L101.346 62.1146C101.322 62.1307 101.298 62.1307 101.265 62.1307ZM103.185 61.4677C103.088 61.4677 102.991 61.403 102.958 61.306C102.918 61.1766 102.983 61.0392 103.104 60.9987L103.866 60.7319C103.995 60.6915 104.133 60.7562 104.173 60.8774C104.214 61.0068 104.149 61.1443 104.028 61.1847L103.266 61.4515C103.234 61.4677 103.209 61.4677 103.185 61.4677ZM105.097 60.8047C105 60.8047 104.902 60.74 104.87 60.643C104.829 60.5136 104.894 60.3761 105.016 60.3357L105.777 60.0689C105.907 60.0284 106.044 60.0931 106.085 60.2144C106.125 60.3438 106.061 60.4812 105.939 60.5217L105.178 60.7885C105.145 60.8047 105.121 60.8047 105.097 60.8047ZM107.008 60.1416C106.911 60.1416 106.814 60.077 106.782 59.9799C106.741 59.8506 106.806 59.7131 106.927 59.6727L107.689 59.4058C107.818 59.3654 107.956 59.4301 107.997 59.5514C108.037 59.6808 107.972 59.8182 107.851 59.8586L107.089 60.1255C107.057 60.1416 107.033 60.1416 107.008 60.1416ZM108.92 59.4786C108.823 59.4786 108.726 59.4139 108.693 59.3169C108.653 59.1875 108.717 59.0501 108.839 59.0096L109.6 58.7428C109.73 58.7024 109.868 58.7671 109.908 58.8884C109.949 59.0177 109.884 59.1552 109.762 59.1956L109.001 59.4624C108.977 59.4705 108.944 59.4786 108.92 59.4786ZM110.832 58.8156C110.734 58.8156 110.637 58.7509 110.605 58.6539C110.564 58.5245 110.629 58.387 110.751 58.3466L111.512 58.0798C111.642 58.0394 111.779 58.104 111.82 58.2253C111.86 58.3547 111.795 58.4922 111.674 58.5326L110.913 58.7994C110.888 58.8075 110.856 58.8156 110.832 58.8156Z" fill="#FFCF2D"/>
<path d="M86.9372 70.1033C86.7995 70.1033 86.6942 69.9982 86.6942 69.8607C86.6942 67.6695 86.0138 66.0766 84.6611 65.1386C83.6486 64.4352 82.62 64.3705 82.6119 64.3705C82.4742 64.3624 82.377 64.2492 82.3851 64.1118C82.3932 63.9743 82.5066 63.8773 82.6362 63.8854C82.6848 63.8854 83.7945 63.95 84.9203 64.7263C86.7914 66.02 87.1802 68.2355 87.1802 69.8607C87.1802 69.9901 87.0749 70.1033 86.9372 70.1033Z" fill="#3FB1B5"/>
<path d="M125.639 70.1032H78.3188C78.2297 70.1032 78.1406 70.0547 78.1001 69.9658C78.0596 69.8849 78.0677 69.7879 78.1244 69.7151L97.3538 44.1238C97.3943 44.0672 97.4591 44.0349 97.5239 44.0268C97.5887 44.0187 97.6616 44.043 97.7102 44.0915L125.809 69.6828C125.882 69.7475 125.906 69.8526 125.874 69.9496C125.833 70.0385 125.744 70.1032 125.639 70.1032ZM78.8048 69.6181H125.015L97.5806 44.6251L78.8048 69.6181Z" fill="#3FB1B5"/>
<path d="M74.0664 71.7851C72.9081 71.7851 71.9685 70.8471 71.9685 69.6909C71.9685 68.5346 72.9081 67.5967 74.0664 67.5967C75.2247 67.5967 76.1643 68.5346 76.1643 69.6909C76.1643 70.8471 75.2247 71.7851 74.0664 71.7851ZM74.0664 68.0737C73.1754 68.0737 72.4545 68.7934 72.4545 69.6828C72.4545 70.5722 73.1754 71.2918 74.0664 71.2918C74.9574 71.2918 75.6783 70.5722 75.6783 69.6828C75.6783 68.7934 74.9574 68.0737 74.0664 68.0737Z" fill="#FFCF2D"/>
<path d="M76.1643 69.6909H75.6783V71.5425H76.1643V69.6909Z" fill="#FFCF2D"/>
<path d="M98.9819 42.5309C97.8236 42.5309 96.884 41.593 96.884 40.4367C96.884 39.2805 97.8236 38.3425 98.9819 38.3425C100.14 38.3425 101.08 39.2805 101.08 40.4367C101.08 41.5849 100.14 42.5309 98.9819 42.5309ZM98.9819 38.8196C98.0909 38.8196 97.37 39.5392 97.37 40.4286C97.37 41.3181 98.0909 42.0458 98.9819 42.0458C99.8729 42.0458 100.594 41.3261 100.594 40.4367C100.594 39.5473 99.8729 38.8196 98.9819 38.8196Z" fill="#FFCF2D"/>
<path d="M97.3539 37.1943H96.8679V42.2803H97.3539V37.1943Z" fill="#FFCF2D"/>
<path d="M129.422 71.7365C128.264 71.7365 127.324 70.7985 127.324 69.6423C127.324 68.486 128.264 67.5481 129.422 67.5481V68.0332C128.531 68.0332 127.81 68.7529 127.81 69.6423C127.81 70.5317 128.531 71.2513 129.422 71.2513V71.7365Z" fill="#FFCF2D"/>
<path d="M252.096 173.697V218.702H241.68L235.046 200.21L225.544 173.697H252.096Z" fill="#A0505A"/>
<path d="M225.544 173.697H252.096V188.146L228.703 182.503L225.544 173.697Z" fill="#73325A"/>
<path d="M252.096 200.21V218.702H241.68L235.046 200.21C235.046 200.21 240.416 203.17 252.096 200.21Z" stroke="white" stroke-width="6" stroke-miterlimit="10" stroke-linecap="round"/>
<path d="M240.465 204.552C241.118 204.552 241.647 204.024 241.647 203.372C241.647 202.72 241.118 202.191 240.465 202.191C239.812 202.191 239.282 202.72 239.282 203.372C239.282 204.024 239.812 204.552 240.465 204.552Z" stroke="white" stroke-width="6" stroke-miterlimit="10" stroke-linecap="round"/>
<path d="M246.102 208.361C246.755 208.361 247.285 207.832 247.285 207.18C247.285 206.528 246.755 206 246.102 206C245.449 206 244.92 206.528 244.92 207.18C244.92 207.832 245.449 208.361 246.102 208.361Z" stroke="white" stroke-width="6" stroke-miterlimit="10" stroke-linecap="round"/>
<path d="M250.298 204.132C250.951 204.132 251.481 203.603 251.481 202.951C251.481 202.299 250.951 201.771 250.298 201.771C249.645 201.771 249.115 202.299 249.115 202.951C249.115 203.603 249.645 204.132 250.298 204.132Z" stroke="white" stroke-width="6" stroke-miterlimit="10" stroke-linecap="round"/>
<path d="M248.638 212.792C249.291 212.792 249.82 212.263 249.82 211.611C249.82 210.959 249.291 210.431 248.638 210.431C247.984 210.431 247.455 210.959 247.455 211.611C247.455 212.263 247.984 212.792 248.638 212.792Z" stroke="white" stroke-width="6" stroke-miterlimit="10" stroke-linecap="round"/>
<path d="M241.647 210.641C242.3 210.641 242.83 210.112 242.83 209.46C242.83 208.808 242.3 208.28 241.647 208.28C240.994 208.28 240.465 208.808 240.465 209.46C240.465 210.112 240.994 210.641 241.647 210.641Z" stroke="white" stroke-width="6" stroke-miterlimit="10" stroke-linecap="round"/>
<path d="M243.575 217.109C244.228 217.109 244.758 216.581 244.758 215.929C244.758 215.277 244.228 214.748 243.575 214.748C242.922 214.748 242.392 215.277 242.392 215.929C242.392 216.581 242.922 217.109 243.575 217.109Z" stroke="white" stroke-width="6" stroke-miterlimit="10" stroke-linecap="round"/>
<path d="M257.021 227.095L249.877 241.9C248.864 244.286 246.523 245.838 243.923 245.838H234.811C232.478 245.838 231.061 243.477 231.952 241.326L241.113 219.268C241.623 217.926 242.522 216.81 243.648 216.026C244.782 215.242 246.143 214.797 247.576 214.797C249.569 214.797 251.545 216.147 252.858 217.643L256.033 221.063C257.499 222.729 257.88 225.066 257.021 227.095Z" fill="#66B0F0"/>
<path d="M257.021 227.095L249.877 241.9C248.864 244.286 246.523 245.838 243.923 245.838H234.236C233.337 245.838 232.826 245.28 232.527 244.512H234.681C237.281 244.512 239.622 242.959 240.635 240.574L248.872 223.424C249.642 221.823 251.27 220.797 253.052 220.797C255.377 220.797 257.143 222.495 257.467 224.645C257.499 225.47 257.353 226.303 257.021 227.095Z" fill="white" stroke="#66B0F0" stroke-width="6" stroke-miterlimit="10" stroke-linejoin="round"/>
<path d="M255.377 220.352C254.518 219.883 253.481 219.543 252.574 219.543C250.833 219.543 249.221 220.554 248.467 222.123L239.938 239.879C238.853 242.442 236.342 244.1 233.547 244.1H231.976C231.895 243.946 231.838 243.784 231.781 243.614H233.547C236.147 243.614 238.48 242.07 239.493 239.685L239.501 239.677L248.038 221.912C248.872 220.174 250.654 219.058 252.582 219.058C253.198 219.058 253.935 219.26 254.567 219.479L255.377 220.352Z" fill="white"/>
<path d="M225.544 173.697L223.511 200.21L222.604 212.088C222.604 212.088 216.683 218.67 209.944 214.611L206.825 200.218L199.689 167.285C197.762 158.383 203.853 149.723 212.9 148.518L225.544 173.697Z" fill="#A0505A"/>
<path d="M223.511 200.21L222.604 212.412C222.604 212.412 216.683 218.993 209.944 214.934L206.825 200.218C214.658 202.563 223.511 200.21 223.511 200.21Z" stroke="white" stroke-width="6" stroke-miterlimit="10" stroke-linecap="round"/>
<path d="M214.205 207.544C214.858 207.544 215.387 207.016 215.387 206.364C215.387 205.712 214.858 205.183 214.205 205.183C213.551 205.183 213.022 205.712 213.022 206.364C213.022 207.016 213.551 207.544 214.205 207.544Z" stroke="white" stroke-width="6" stroke-miterlimit="10" stroke-linecap="round"/>
<path d="M221.721 205.733C222.374 205.733 222.904 205.204 222.904 204.552C222.904 203.9 222.374 203.372 221.721 203.372C221.068 203.372 220.539 203.9 220.539 204.552C220.539 205.204 221.068 205.733 221.721 205.733Z" stroke="white" stroke-width="6" stroke-miterlimit="10" stroke-linecap="round"/>
<path d="M209.669 204.132C210.322 204.132 210.851 203.603 210.851 202.951C210.851 202.299 210.322 201.771 209.669 201.771C209.015 201.771 208.486 202.299 208.486 202.951C208.486 203.603 209.015 204.132 209.669 204.132Z" stroke="white" stroke-width="6" stroke-miterlimit="10" stroke-linecap="round"/>
<path d="M213.022 213.972C213.675 213.972 214.204 213.444 214.204 212.792C214.204 212.14 213.675 211.611 213.022 211.611C212.369 211.611 211.839 212.14 211.839 212.792C211.839 213.444 212.369 213.972 213.022 213.972Z" stroke="white" stroke-width="6" stroke-miterlimit="10" stroke-linecap="round"/>
<path d="M218.538 211.611C219.191 211.611 219.721 211.083 219.721 210.431C219.721 209.779 219.191 209.25 218.538 209.25C217.885 209.25 217.355 209.779 217.355 210.431C217.355 211.083 217.885 211.611 218.538 211.611Z" stroke="white" stroke-width="6" stroke-miterlimit="10" stroke-linecap="round"/>
<path d="M230.413 214.918L222.604 246.089H220.142C220.028 246.089 219.923 246.081 219.81 246.073C217.947 245.903 216.375 244.334 215.978 242.482L209.936 214.595C216.675 218.662 222.604 212.08 222.604 212.08L230.413 214.918Z" fill="#66B0F0"/>
<path d="M230.809 230.912C232.454 222.244 232.907 215.622 230.072 215.088C227.237 214.554 222.191 220.303 220.547 228.971C218.902 237.639 219.761 245.304 222.596 245.838C225.431 246.38 229.165 239.588 230.809 230.912Z" fill="white" stroke="#66B0F0" stroke-width="6" stroke-miterlimit="10" stroke-linejoin="round"/>
<path d="M219.413 228.834C218.562 233.329 218.311 237.671 218.716 241.067C219.008 243.509 219.623 245.248 220.466 246.089H220.142C220.028 246.089 219.923 246.081 219.81 246.073C219.048 245.07 218.506 243.388 218.23 241.124C217.817 237.688 218.068 233.289 218.935 228.745C219.753 224.443 221.405 220.408 223.601 217.376C224.913 215.565 226.29 214.296 227.545 213.722L228.274 213.964C225.383 214.821 220.992 220.514 219.413 228.834Z" fill="white"/>
<path d="M212.901 148.51L249.853 144.71L286.789 155.052L286.473 159.952C285.971 167.681 279.297 173.697 271.537 173.697H225.553L212.901 148.51Z" fill="#FE5244"/>
<path d="M284.683 154.696C284.683 161.714 277.668 170.301 269.908 170.301H223.924" stroke="white" stroke-width="6" stroke-miterlimit="10" stroke-linecap="round" stroke-linejoin="round"/>
<path d="M280.301 153.297C279.15 159.563 273.011 166.258 266.287 166.258H222.061" stroke="white" stroke-width="6" stroke-miterlimit="10" stroke-linecap="round" stroke-linejoin="round"/>
<path d="M275.319 151.809C273.375 157.13 268.102 162.135 262.391 162.135H219.713" stroke="white" stroke-width="6" stroke-miterlimit="10" stroke-linecap="round" stroke-linejoin="round"/>
<path d="M271.488 150.766C268.936 154.639 264.748 157.688 260.285 157.688H217.606" stroke="white" stroke-width="6" stroke-miterlimit="10" stroke-linecap="round" stroke-linejoin="round"/>
<path d="M267.211 149.569C264.757 152.036 261.581 153.645 258.26 153.645H215.582" stroke="white" stroke-width="6" stroke-miterlimit="10" stroke-linecap="round" stroke-linejoin="round"/>
<path d="M261.646 147.96C259.913 148.939 258.017 149.521 256.073 149.521H213.395" stroke="white" stroke-width="6" stroke-miterlimit="10" stroke-linecap="round" stroke-linejoin="round"/>
<path d="M225.464 173.697L212.819 148.51" stroke="white" stroke-width="6" stroke-miterlimit="10" stroke-linecap="round" stroke-linejoin="round"/>
<path d="M288.814 121.302C285.331 122.288 281.904 121.997 281.54 120.938C281.2 119.927 282.739 118.197 285.857 117.049C286.011 116.992 286.173 116.936 286.335 116.879C287.275 116.564 288.214 116.361 289.097 116.256C291.713 115.925 293.844 116.394 294.111 117.186C294.475 118.245 292.499 120.259 288.814 121.302Z" fill="white" stroke="#3FB1B5" stroke-width="6" stroke-miterlimit="10" stroke-linejoin="round"/>
<path d="M286.61 144.88H285.274L281.767 121.245V121.229L281.677 120.639C281.848 119.563 283.532 118.043 286.505 117.057C287.987 116.564 289.462 116.345 290.717 116.321L291.997 119.822L292.118 120.154L296.168 131.239C298.598 137.861 293.682 144.88 286.61 144.88Z" fill="#A0505A"/>
<path d="M292.078 120.073C291.227 120.606 290.126 121.1 288.814 121.472C285.8 122.321 282.747 121.973 281.767 121.245V121.229L281.677 120.639C281.848 119.563 283.532 118.043 286.505 117.057C287.987 116.564 289.462 116.345 290.717 116.321L292.078 120.073Z" fill="#73325A"/>
<path d="M243.227 125.434L238.974 135.994C236.876 141.209 231.806 144.629 226.168 144.629H169.006V139.406C169.006 138.144 169.784 137.012 170.967 136.568L176.839 134.344C177.374 134.142 177.933 134.037 178.5 134.037H185.166L222.896 130.237L229.408 115.351L243.227 125.434Z" fill="#A0505A"/>
<path d="M175.163 137.554L170.732 139.228C169.841 139.567 169.25 140.416 169.25 141.371" stroke="#73325A" stroke-width="6" stroke-miterlimit="10" stroke-linecap="round"/>
<path d="M175.163 140.222L170.732 141.896C169.841 142.236 169.25 143.085 169.25 144.039" stroke="#73325A" stroke-width="6" stroke-miterlimit="10" stroke-linecap="round"/>
<path d="M175.162 142.794L170.732 144.387" stroke="#73325A" stroke-width="6" stroke-miterlimit="10" stroke-linecap="round"/>
<path d="M174.701 135.242C174.701 135.242 178.848 124.674 180.176 124.851C181.505 125.029 176.499 134.562 176.499 134.562L174.701 135.242Z" fill="#FE5244"/>
<path d="M229.408 115.359L228.452 117.534L240.692 131.724L243.227 125.434L229.408 115.359Z" fill="#73325A"/>
<path d="M281.767 121.253L286.789 155.052L249.861 144.71L243.227 125.426L226.103 112.933L232.114 105.785C237.476 99.4057 245.389 95.7186 253.732 95.7186H265.599C275.918 95.7186 285.42 101.346 290.369 110.386L294.216 117.033C294.216 117.033 293.058 115.335 286.813 117.041C281.313 118.553 281.767 121.253 281.767 121.253Z" fill="#3FB1B5"/>
<path d="M243.227 125.272L245.146 116.96" stroke="white" stroke-width="6" stroke-miterlimit="10" stroke-linecap="round" stroke-linejoin="round"/>
<path d="M285.857 147.16L279.612 108.405" stroke="white" stroke-width="6" stroke-miterlimit="10" stroke-linecap="round" stroke-linejoin="round"/>
<path d="M249.853 144.556L286.708 155.052" stroke="white" stroke-width="6" stroke-miterlimit="10" stroke-linecap="round" stroke-linejoin="round"/>
<path d="M251.845 90.3174V95.751L261.452 95.6701V86.0804L251.845 90.3174Z" fill="#A0505A"/>
<path d="M262.229 84.4067V84.5522C262.229 86.0077 261.128 87.1882 259.67 87.1882H259.103C258.738 88.6274 255.498 90.3093 253.198 90.3093H250.517C247.585 90.3093 245.341 87.6814 245.819 84.7867L245.948 84.0024L245.155 83.5577C244.701 83.299 244.571 82.7087 244.887 82.2882L246.604 80.0242L246.977 77.7926C247.277 75.9571 248.484 74.4613 250.087 73.7255C250.719 80.8328 257.005 81.6737 258.665 81.7708H259.589C261.047 81.7708 262.229 82.9513 262.229 84.4067Z" fill="#A0505A"/>
<path d="M257.977 85.1021C257.977 83.9539 258.908 83.024 260.059 83.024" stroke="#73325A" stroke-width="6" stroke-miterlimit="10" stroke-linecap="round"/>
<path d="M249.197 81.8436C249.425 81.8436 249.61 81.4164 249.61 80.8894C249.61 80.3625 249.425 79.9353 249.197 79.9353C248.968 79.9353 248.783 80.3625 248.783 80.8894C248.783 81.4164 248.968 81.8436 249.197 81.8436Z" fill="#73325A"/>
<path d="M248.565 77.9381C248.565 77.9381 249.707 77.8249 250.881 79.442" stroke="#73325A" stroke-width="6" stroke-miterlimit="10" stroke-linecap="round"/>
<path d="M258.665 81.7708H259.589C261.047 81.7708 262.229 82.9513 262.229 84.4067V84.5523C262.229 86.0077 261.128 87.1882 259.67 87.1882L259.046 87.6248C256.422 89.3067 252.793 95.9208 253.684 100.602C254.688 105.866 259.281 107.039 263.525 106.23C267.77 105.422 270.864 102.955 269.86 97.6835C269.746 97.0609 269.56 96.4383 269.325 95.8238C269.398 95.848 269.463 95.8723 269.536 95.8965C274.639 97.2873 280.633 97.449 282.285 93.4708C283.937 89.4926 283.565 85.5549 278.599 83.5011C275.716 82.3044 271.795 82.3125 268.758 83.1373C270.289 77.8249 267.567 71.9143 262.57 71.324C254.721 70.3942 250.217 73.6285 250.096 73.7174C250.088 74.6553 250.727 81.3099 258.665 81.7708Z" fill="#73325A"/>
<path d="M268.96 82.9513C268.321 85.0293 267 87.2529 264.854 88.7649C264.854 88.7649 268.645 91.2634 269.536 95.9046" stroke="white" stroke-width="6" stroke-miterlimit="10" stroke-linecap="round" stroke-linejoin="round"/>
<path d="M271.164 82.7734H269.018V80.6307C269.018 79.5068 269.925 78.6012 271.051 78.6012H271.164C272.29 78.6012 273.197 79.5068 273.197 80.6307V80.7439C273.206 81.8598 272.29 82.7734 271.164 82.7734Z" stroke="#FE5244" stroke-width="6" stroke-miterlimit="10" stroke-linejoin="round"/>
<path d="M270.378 84.9727L269.001 82.7896L271.188 81.415C272.282 80.7277 273.731 81.0512 274.42 82.1427L274.55 82.3449C275.238 83.4364 274.914 84.8838 273.821 85.5711L273.618 85.7004C272.508 86.3877 271.067 86.0643 270.378 84.9727Z" stroke="#FE5244" stroke-width="6" stroke-miterlimit="10" stroke-linejoin="round"/>
<path d="M257.693 88.87L259.224 87.4065L260.723 89.0964C261.46 89.9454 261.363 91.2311 260.512 91.9588L260.423 92.0315C259.573 92.7674 258.285 92.6703 257.556 91.8213L257.483 91.7324C256.746 90.8915 256.843 89.6058 257.693 88.87Z" stroke="#FE5244" stroke-width="6" stroke-miterlimit="10" stroke-linejoin="round"/>
<path d="M259.929 89.9212L259.24 87.4389L261.727 86.7516C262.975 86.4039 264.262 87.1316 264.611 88.3768L264.676 88.6113C265.024 89.8565 264.295 91.1422 263.047 91.4899L262.813 91.5545C261.565 91.8941 260.277 91.1583 259.929 89.9212Z" stroke="#FE5244" stroke-width="6" stroke-miterlimit="10" stroke-linejoin="round"/>
<path d="M237.824 179.915L223.714 245.838" stroke="#FFCF2D" stroke-width="6" stroke-miterlimit="10" stroke-linecap="round"/>
<path d="M273.934 179.915L288.044 245.838" stroke="#FFCF2D" stroke-width="6" stroke-miterlimit="10" stroke-linecap="round"/>
<path d="M226.841 231.203H284.723" stroke="#FFCF2D" stroke-width="6" stroke-miterlimit="10" stroke-linecap="round"/>
<path d="M285.039 179.915H226.711C225.974 179.915 225.374 179.317 225.374 178.581V175.031C225.374 174.296 225.974 173.697 226.711 173.697H285.039C285.776 173.697 286.376 174.296 286.376 175.031V178.581C286.376 179.317 285.776 179.915 285.039 179.915Z" fill="white" stroke="#66B0F0" stroke-width="6" stroke-miterlimit="10" stroke-linejoin="round"/>
</svg>
