<svg width="393" height="174" viewBox="0 0 393 174" fill="none" xmlns="http://www.w3.org/2000/svg">
<path d="M15.6472 1.24751H19.0552V17.9995H16.8712V3.55151H16.8232L10.9192 17.9995H8.66322L2.73522 3.55151H2.71122V17.9995H0.527219V1.24751H3.93522L9.76722 15.5755H9.81522L15.6472 1.24751ZM34.0269 11.8795V12.6475H24.7629C24.8909 13.7675 25.3069 14.6395 26.0109 15.2635C26.7149 15.8875 27.7789 16.1995 29.2029 16.1995C30.6429 16.1995 31.9709 15.7995 33.1869 14.9995H33.3069V17.1115C31.9629 17.8635 30.3789 18.2395 28.5549 18.2395C26.7469 18.2395 25.2909 17.6875 24.1869 16.5835C23.0989 15.4635 22.5549 13.9595 22.5549 12.0715C22.5549 10.1675 23.0429 8.59951 24.0189 7.36751C24.9949 6.13551 26.4189 5.51951 28.2909 5.51951C30.1629 5.51951 31.5869 6.13551 32.5629 7.36751C33.5389 8.59951 34.0269 10.1035 34.0269 11.8795ZM24.7629 10.8715H31.8429C31.7789 9.71951 31.3869 8.84751 30.6669 8.25551C29.9629 7.66351 29.1709 7.36751 28.2909 7.36751C27.4109 7.36751 26.6189 7.66351 25.9149 8.25551C25.2109 8.84751 24.8269 9.71951 24.7629 10.8715ZM37.1784 6.43151C38.5704 5.82351 40.0584 5.51951 41.6424 5.51951C43.2424 5.51951 44.4664 5.98351 45.3144 6.91151C46.1624 7.83951 46.5864 8.95151 46.5864 10.2475V17.9995H44.6664L44.4024 16.4635H44.3304C43.1784 17.6475 41.6984 18.2395 39.8904 18.2395C38.8024 18.2395 37.8744 17.9115 37.1064 17.2555C36.3544 16.5995 35.9784 15.7035 35.9784 14.5675C35.9784 13.4315 36.4424 12.5115 37.3704 11.8075C38.3144 11.1035 39.6904 10.7515 41.4984 10.7515H44.4024V10.5595C44.4024 9.50351 44.1384 8.74351 43.6104 8.27951C43.0984 7.81551 42.2024 7.58351 40.9224 7.58351C39.6424 7.58351 38.4424 7.85551 37.3224 8.39951H37.1784V6.43151ZM44.4024 14.5195V12.5035H41.7864C39.3704 12.5035 38.1624 13.1435 38.1624 14.4235C38.1624 15.6875 39.0104 16.3195 40.7064 16.3195C41.4104 16.3195 42.0904 16.1515 42.7464 15.8155C43.4024 15.4635 43.9544 15.0315 44.4024 14.5195ZM56.9229 5.51951C58.2509 5.51951 59.2989 5.96751 60.0669 6.86351C60.8349 7.75951 61.2189 8.87951 61.2189 10.2235V17.9995H59.0349V10.4635C59.0349 8.51151 58.1549 7.53551 56.3949 7.53551C55.0029 7.53551 53.6909 8.30351 52.4589 9.83951V17.9995H50.2749V5.75951H52.1949L52.4589 7.29551V7.65551H52.5069C53.8029 6.23151 55.2749 5.51951 56.9229 5.51951ZM79.2759 5.75951H81.5799L77.3799 17.9995H75.2439L72.4599 9.23951H72.3879L69.6039 17.9995H67.4679L63.2679 5.75951H65.5719L68.4759 15.3595H68.5479L71.5239 5.75951H73.3239L76.2999 15.3595H76.3719L79.2759 5.75951ZM90.3917 5.51951C91.7197 5.51951 92.7677 5.96751 93.5357 6.86351C94.3037 7.75951 94.6877 8.87951 94.6877 10.2235V17.9995H92.5037V10.4635C92.5037 8.51151 91.6237 7.53551 89.8637 7.53551C88.4717 7.53551 87.1597 8.30351 85.9277 9.83951V17.9995H83.7437V0.479511H85.9277V7.65551H85.9997C87.2957 6.23151 88.7597 5.51951 90.3917 5.51951ZM98.4647 17.9995V5.75951H100.649V17.9995H98.4647ZM100.745 0.815511V3.16751H98.3927V0.815511H100.745ZM106.909 0.479511V17.9995H104.725V0.479511H106.909ZM121.636 11.8795V12.6475H112.372C112.5 13.7675 112.916 14.6395 113.62 15.2635C114.324 15.8875 115.388 16.1995 116.812 16.1995C118.252 16.1995 119.58 15.7995 120.796 14.9995H120.916V17.1115C119.572 17.8635 117.988 18.2395 116.164 18.2395C114.356 18.2395 112.9 17.6875 111.796 16.5835C110.708 15.4635 110.164 13.9595 110.164 12.0715C110.164 10.1675 110.652 8.59951 111.628 7.36751C112.604 6.13551 114.028 5.51951 115.9 5.51951C117.772 5.51951 119.196 6.13551 120.172 7.36751C121.148 8.59951 121.636 10.1035 121.636 11.8795ZM112.372 10.8715H119.452C119.388 9.71951 118.996 8.84751 118.276 8.25551C117.572 7.66351 116.78 7.36751 115.9 7.36751C115.02 7.36751 114.228 7.66351 113.524 8.25551C112.82 8.84751 112.436 9.71951 112.372 10.8715ZM124.452 15.3115H127.14V17.9995C127.14 19.8555 126.244 21.1595 124.452 21.9115V20.3515C125.332 19.8715 125.772 19.0875 125.772 17.9995H124.452V15.3115ZM143.497 7.63151H140.017V14.8795C140.017 15.5515 140.201 15.9675 140.569 16.1275C140.873 16.2555 141.265 16.3195 141.745 16.3195C142.225 16.3195 142.753 16.1915 143.329 15.9355H143.497V17.7115C142.825 18.0635 142.105 18.2395 141.337 18.2395C139.001 18.2395 137.833 17.1835 137.833 15.0715V7.63151H135.553V7.48751L140.017 3.11951V5.75951H143.497V7.63151ZM152.899 5.51951C154.227 5.51951 155.275 5.96751 156.043 6.86351C156.811 7.75951 157.195 8.87951 157.195 10.2235V17.9995H155.011V10.4635C155.011 8.51151 154.131 7.53551 152.371 7.53551C150.979 7.53551 149.667 8.30351 148.435 9.83951V17.9995H146.251V0.479511H148.435V7.65551H148.507C149.803 6.23151 151.267 5.51951 152.899 5.51951ZM171.628 11.8795V12.6475H162.364C162.492 13.7675 162.908 14.6395 163.612 15.2635C164.316 15.8875 165.38 16.1995 166.804 16.1995C168.244 16.1995 169.572 15.7995 170.788 14.9995H170.908V17.1115C169.564 17.8635 167.98 18.2395 166.156 18.2395C164.348 18.2395 162.892 17.6875 161.788 16.5835C160.7 15.4635 160.156 13.9595 160.156 12.0715C160.156 10.1675 160.644 8.59951 161.62 7.36751C162.596 6.13551 164.02 5.51951 165.892 5.51951C167.764 5.51951 169.188 6.13551 170.164 7.36751C171.14 8.59951 171.628 10.1035 171.628 11.8795ZM162.364 10.8715H169.444C169.38 9.71951 168.988 8.84751 168.268 8.25551C167.564 7.66351 166.772 7.36751 165.892 7.36751C165.012 7.36751 164.22 7.66351 163.516 8.25551C162.812 8.84751 162.428 9.71951 162.364 10.8715ZM185.238 7.51151C184.214 7.51151 183.454 7.67151 182.958 7.99151C182.478 8.29551 182.238 8.68751 182.238 9.16751C182.238 9.63151 182.486 9.99151 182.982 10.2475C183.478 10.5035 184.078 10.7115 184.782 10.8715C185.502 11.0155 186.214 11.1995 186.918 11.4235C187.622 11.6475 188.222 12.0315 188.718 12.5755C189.214 13.1195 189.462 13.8635 189.462 14.8075C189.462 15.7515 189.054 16.5595 188.238 17.2315C187.438 17.9035 186.238 18.2395 184.638 18.2395C183.054 18.2395 181.606 17.8795 180.294 17.1595V15.0715H180.414C181.71 15.8395 183.134 16.2235 184.686 16.2235C186.462 16.2235 187.35 15.6555 187.35 14.5195C187.35 14.1515 187.102 13.8555 186.606 13.6315C186.11 13.3915 185.51 13.1915 184.806 13.0315C184.102 12.8715 183.398 12.6795 182.694 12.4555C181.99 12.2315 181.39 11.8555 180.894 11.3275C180.398 10.7995 180.15 10.1275 180.15 9.31151C180.15 8.19151 180.55 7.27951 181.35 6.57551C182.166 5.87151 183.27 5.51951 184.662 5.51951C186.054 5.51951 187.35 5.74351 188.55 6.19151V8.18351H188.382C187.31 7.73551 186.262 7.51151 185.238 7.51151ZM198.786 7.63151H195.306V14.8795C195.306 15.5515 195.49 15.9675 195.858 16.1275C196.162 16.2555 196.554 16.3195 197.034 16.3195C197.514 16.3195 198.042 16.1915 198.618 15.9355H198.786V17.7115C198.114 18.0635 197.394 18.2395 196.626 18.2395C194.29 18.2395 193.122 17.1835 193.122 15.0715V7.63151H190.842V7.48751L195.306 3.11951V5.75951H198.786V7.63151ZM201.757 6.43151C203.149 5.82351 204.637 5.51951 206.221 5.51951C207.821 5.51951 209.045 5.98351 209.893 6.91151C210.741 7.83951 211.165 8.95151 211.165 10.2475V17.9995H209.245L208.981 16.4635H208.909C207.757 17.6475 206.277 18.2395 204.469 18.2395C203.381 18.2395 202.453 17.9115 201.685 17.2555C200.933 16.5995 200.557 15.7035 200.557 14.5675C200.557 13.4315 201.021 12.5115 201.949 11.8075C202.893 11.1035 204.269 10.7515 206.077 10.7515H208.981V10.5595C208.981 9.50351 208.717 8.74351 208.189 8.27951C207.677 7.81551 206.781 7.58351 205.501 7.58351C204.221 7.58351 203.021 7.85551 201.901 8.39951H201.757V6.43151ZM208.981 14.5195V12.5035H206.365C203.949 12.5035 202.741 13.1435 202.741 14.4235C202.741 15.6875 203.589 16.3195 205.285 16.3195C205.989 16.3195 206.669 16.1515 207.325 15.8155C207.981 15.4635 208.533 15.0315 208.981 14.5195ZM221.309 7.63151H217.829V14.8795C217.829 15.5515 218.013 15.9675 218.381 16.1275C218.685 16.2555 219.077 16.3195 219.557 16.3195C220.037 16.3195 220.565 16.1915 221.141 15.9355H221.309V17.7115C220.637 18.0635 219.917 18.2395 219.149 18.2395C216.813 18.2395 215.645 17.1835 215.645 15.0715V7.63151H213.365V7.48751L217.829 3.11951V5.75951H221.309V7.63151ZM234.816 11.8795V12.6475H225.552C225.68 13.7675 226.096 14.6395 226.8 15.2635C227.504 15.8875 228.568 16.1995 229.992 16.1995C231.432 16.1995 232.76 15.7995 233.976 14.9995H234.096V17.1115C232.752 17.8635 231.168 18.2395 229.344 18.2395C227.536 18.2395 226.08 17.6875 224.976 16.5835C223.888 15.4635 223.344 13.9595 223.344 12.0715C223.344 10.1675 223.832 8.59951 224.808 7.36751C225.784 6.13551 227.208 5.51951 229.08 5.51951C230.952 5.51951 232.376 6.13551 233.352 7.36751C234.328 8.59951 234.816 10.1035 234.816 11.8795ZM225.552 10.8715H232.632C232.568 9.71951 232.176 8.84751 231.456 8.25551C230.752 7.66351 229.96 7.36751 229.08 7.36751C228.2 7.36751 227.408 7.66351 226.704 8.25551C226 8.84751 225.616 9.71951 225.552 10.8715ZM258.338 5.51951C259.65 5.51951 260.642 5.98351 261.314 6.91151C262.002 7.83951 262.346 8.91151 262.346 10.1275V17.9995H260.162V10.5595C260.162 9.51951 259.97 8.75951 259.586 8.27951C259.218 7.78351 258.594 7.53551 257.714 7.53551C256.338 7.53551 255.186 8.30351 254.258 9.83951V17.9995H252.074V10.5595C252.074 9.51951 251.89 8.75951 251.522 8.27951C251.154 7.78351 250.522 7.53551 249.626 7.53551C248.25 7.53551 247.098 8.30351 246.17 9.83951V17.9995H243.986V5.75951H245.906L246.17 7.29551V7.65551H246.218C247.242 6.23151 248.586 5.51951 250.25 5.51951C251.146 5.51951 251.906 5.75151 252.53 6.21551C253.17 6.67951 253.626 7.25551 253.898 7.94351H253.97C254.946 6.32751 256.402 5.51951 258.338 5.51951ZM266.257 6.43151C267.649 5.82351 269.137 5.51951 270.721 5.51951C272.321 5.51951 273.545 5.98351 274.393 6.91151C275.241 7.83951 275.665 8.95151 275.665 10.2475V17.9995H273.745L273.481 16.4635H273.409C272.257 17.6475 270.777 18.2395 268.969 18.2395C267.881 18.2395 266.953 17.9115 266.185 17.2555C265.433 16.5995 265.057 15.7035 265.057 14.5675C265.057 13.4315 265.521 12.5115 266.449 11.8075C267.393 11.1035 268.769 10.7515 270.577 10.7515H273.481V10.5595C273.481 9.50351 273.217 8.74351 272.689 8.27951C272.177 7.81551 271.281 7.58351 270.001 7.58351C268.721 7.58351 267.521 7.85551 266.401 8.39951H266.257V6.43151ZM273.481 14.5195V12.5035H270.865C268.449 12.5035 267.241 13.1435 267.241 14.4235C267.241 15.6875 268.089 16.3195 269.785 16.3195C270.489 16.3195 271.169 16.1515 271.825 15.8155C272.481 15.4635 273.033 15.0315 273.481 14.5195ZM286.001 5.51951C287.329 5.51951 288.377 5.96751 289.145 6.86351C289.913 7.75951 290.297 8.87951 290.297 10.2235V17.9995H288.113V10.4635C288.113 8.51151 287.233 7.53551 285.473 7.53551C284.081 7.53551 282.769 8.30351 281.537 9.83951V17.9995H279.353V5.75951H281.273L281.537 7.29551V7.65551H281.585C282.881 6.23151 284.353 5.51951 286.001 5.51951ZM294.194 6.43151C295.586 5.82351 297.074 5.51951 298.658 5.51951C300.258 5.51951 301.482 5.98351 302.33 6.91151C303.178 7.83951 303.602 8.95151 303.602 10.2475V17.9995H301.682L301.418 16.4635H301.346C300.194 17.6475 298.714 18.2395 296.906 18.2395C295.818 18.2395 294.89 17.9115 294.122 17.2555C293.37 16.5995 292.994 15.7035 292.994 14.5675C292.994 13.4315 293.458 12.5115 294.386 11.8075C295.33 11.1035 296.706 10.7515 298.514 10.7515H301.418V10.5595C301.418 9.50351 301.154 8.74351 300.626 8.27951C300.114 7.81551 299.218 7.58351 297.938 7.58351C296.658 7.58351 295.458 7.85551 294.338 8.39951H294.194V6.43151ZM301.418 14.5195V12.5035H298.802C296.386 12.5035 295.178 13.1435 295.178 14.4235C295.178 15.6875 296.026 16.3195 297.722 16.3195C298.426 16.3195 299.106 16.1515 299.762 15.8155C300.418 15.4635 300.97 15.0315 301.418 14.5195ZM316.723 5.75951H318.643V17.4715C318.643 19.4875 318.155 21.0395 317.179 22.1275C316.203 23.2155 314.787 23.7595 312.931 23.7595C311.091 23.7595 309.411 23.3515 307.891 22.5355V20.3755H308.011C309.371 21.2555 310.963 21.6955 312.787 21.6955C315.235 21.6955 316.459 20.3915 316.459 17.7835V16.2235H316.387C315.283 17.4075 313.963 17.9995 312.427 17.9995C310.891 17.9995 309.523 17.4555 308.323 16.3675C307.139 15.2635 306.547 13.7275 306.547 11.7595C306.547 9.79151 307.139 8.26351 308.323 7.17551C309.523 6.07151 310.891 5.51951 312.427 5.51951C313.963 5.51951 315.283 6.11151 316.387 7.29551H316.459L316.723 5.75951ZM316.459 14.2315V9.28751C315.307 8.10351 314.107 7.51151 312.859 7.51151C311.627 7.51151 310.627 7.87951 309.859 8.61551C309.107 9.33551 308.731 10.3835 308.731 11.7595C308.731 13.1355 309.107 14.1915 309.859 14.9275C310.627 15.6475 311.627 16.0075 312.859 16.0075C314.107 16.0075 315.307 15.4155 316.459 14.2315ZM333.183 11.8795V12.6475H323.919C324.047 13.7675 324.463 14.6395 325.167 15.2635C325.871 15.8875 326.935 16.1995 328.359 16.1995C329.799 16.1995 331.127 15.7995 332.343 14.9995H332.463V17.1115C331.119 17.8635 329.535 18.2395 327.711 18.2395C325.903 18.2395 324.447 17.6875 323.343 16.5835C322.255 15.4635 321.711 13.9595 321.711 12.0715C321.711 10.1675 322.199 8.59951 323.175 7.36751C324.151 6.13551 325.575 5.51951 327.447 5.51951C329.319 5.51951 330.743 6.13551 331.719 7.36751C332.695 8.59951 333.183 10.1035 333.183 11.8795ZM323.919 10.8715H330.999C330.935 9.71951 330.543 8.84751 329.823 8.25551C329.119 7.66351 328.327 7.36751 327.447 7.36751C326.567 7.36751 325.775 7.66351 325.071 8.25551C324.367 8.84751 323.983 9.71951 323.919 10.8715ZM350.471 5.51951C351.783 5.51951 352.775 5.98351 353.447 6.91151C354.135 7.83951 354.479 8.91151 354.479 10.1275V17.9995H352.295V10.5595C352.295 9.51951 352.103 8.75951 351.719 8.27951C351.351 7.78351 350.727 7.53551 349.847 7.53551C348.471 7.53551 347.319 8.30351 346.391 9.83951V17.9995H344.207V10.5595C344.207 9.51951 344.023 8.75951 343.655 8.27951C343.287 7.78351 342.655 7.53551 341.759 7.53551C340.383 7.53551 339.231 8.30351 338.303 9.83951V17.9995H336.119V5.75951H338.039L338.303 7.29551V7.65551H338.351C339.375 6.23151 340.719 5.51951 342.383 5.51951C343.279 5.51951 344.039 5.75151 344.663 6.21551C345.303 6.67951 345.759 7.25551 346.031 7.94351H346.103C347.079 6.32751 348.535 5.51951 350.471 5.51951ZM368.925 11.8795V12.6475H359.661C359.789 13.7675 360.205 14.6395 360.909 15.2635C361.613 15.8875 362.677 16.1995 364.101 16.1995C365.541 16.1995 366.869 15.7995 368.085 14.9995H368.205V17.1115C366.861 17.8635 365.277 18.2395 363.453 18.2395C361.645 18.2395 360.189 17.6875 359.085 16.5835C357.997 15.4635 357.453 13.9595 357.453 12.0715C357.453 10.1675 357.941 8.59951 358.917 7.36751C359.893 6.13551 361.317 5.51951 363.189 5.51951C365.061 5.51951 366.485 6.13551 367.461 7.36751C368.437 8.59951 368.925 10.1035 368.925 11.8795ZM359.661 10.8715H366.741C366.677 9.71951 366.285 8.84751 365.565 8.25551C364.861 7.66351 364.069 7.36751 363.189 7.36751C362.309 7.36751 361.517 7.66351 360.813 8.25551C360.109 8.84751 359.725 9.71951 359.661 10.8715ZM378.509 5.51951C379.837 5.51951 380.885 5.96751 381.653 6.86351C382.421 7.75951 382.805 8.87951 382.805 10.2235V17.9995H380.621V10.4635C380.621 8.51151 379.741 7.53551 377.981 7.53551C376.589 7.53551 375.277 8.30351 374.045 9.83951V17.9995H371.861V5.75951H373.781L374.045 7.29551V7.65551H374.093C375.389 6.23151 376.861 5.51951 378.509 5.51951ZM392.942 7.63151H389.462V14.8795C389.462 15.5515 389.646 15.9675 390.014 16.1275C390.318 16.2555 390.71 16.3195 391.19 16.3195C391.67 16.3195 392.198 16.1915 392.774 15.9355H392.942V17.7115C392.27 18.0635 391.55 18.2395 390.782 18.2395C388.446 18.2395 387.278 17.1835 387.278 15.0715V7.63151H384.998V7.48751L389.462 3.11951V5.75951H392.942V7.63151ZM18.1743 31.4795V48.9995H15.9903V31.4795H18.1743ZM22.2459 48.9995V36.7595H24.4299V48.9995H22.2459ZM24.5259 31.8155V34.1675H22.1739V31.8155H24.5259ZM30.57 38.2955C31.706 37.1115 33.05 36.5195 34.602 36.5195C36.154 36.5195 37.506 37.0955 38.658 38.2475C39.826 39.3995 40.41 40.9435 40.41 42.8795C40.41 44.8155 39.826 46.3595 38.658 47.5115C37.506 48.6635 36.154 49.2395 34.602 49.2395C33.05 49.2395 31.706 48.6475 30.57 47.4635H30.498L30.234 48.9995H28.314V31.4795H30.498V38.2955H30.57ZM34.29 47.1995C35.474 47.1995 36.426 46.8235 37.146 46.0715C37.866 45.3195 38.226 44.2555 38.226 42.8795C38.226 41.5035 37.866 40.4395 37.146 39.6875C36.426 38.9355 35.474 38.5595 34.29 38.5595C32.85 38.5595 31.586 39.1595 30.498 40.3595V45.3995C31.586 46.5995 32.85 47.1995 34.29 47.1995ZM50.1986 36.5195H50.3906V38.6075H50.1986C49.2546 38.6075 48.3746 38.7915 47.5586 39.1595C46.7426 39.5275 46.1026 40.0395 45.6386 40.6955V48.9995H43.4546V36.7595H45.3746L45.6386 38.2955V38.6555H45.6866C46.8386 37.2315 48.3426 36.5195 50.1986 36.5195ZM52.9518 37.4315C54.3438 36.8235 55.8318 36.5195 57.4158 36.5195C59.0158 36.5195 60.2398 36.9835 61.0878 37.9115C61.9358 38.8395 62.3598 39.9515 62.3598 41.2475V48.9995H60.4398L60.1758 47.4635H60.1038C58.9518 48.6475 57.4718 49.2395 55.6638 49.2395C54.5758 49.2395 53.6478 48.9115 52.8798 48.2555C52.1278 47.5995 51.7518 46.7035 51.7518 45.5675C51.7518 44.4315 52.2158 43.5115 53.1438 42.8075C54.0878 42.1035 55.4638 41.7515 57.2718 41.7515H60.1758V41.5595C60.1758 40.5035 59.9118 39.7435 59.3838 39.2795C58.8718 38.8155 57.9758 38.5835 56.6958 38.5835C55.4158 38.5835 54.2158 38.8555 53.0958 39.3995H52.9518V37.4315ZM60.1758 45.5195V43.5035H57.5598C55.1438 43.5035 53.9358 44.1435 53.9358 45.4235C53.9358 46.6875 54.7838 47.3195 56.4798 47.3195C57.1838 47.3195 57.8638 47.1515 58.5198 46.8155C59.1758 46.4635 59.7278 46.0315 60.1758 45.5195ZM72.7923 36.5195H72.9843V38.6075H72.7923C71.8483 38.6075 70.9683 38.7915 70.1523 39.1595C69.3363 39.5275 68.6963 40.0395 68.2323 40.6955V48.9995H66.0483V36.7595H67.9683L68.2323 38.2955V38.6555H68.2803C69.4323 37.2315 70.9363 36.5195 72.7923 36.5195ZM86.1296 36.7595L78.7616 54.5195H76.5536L78.6176 49.1915L73.5536 36.7595H75.9056L79.7456 46.4315H79.8416L83.7776 36.7595H86.1296ZM101.033 33.6395C100.441 33.4315 99.8568 33.3275 99.2808 33.3275C98.7208 33.3275 98.2728 33.4795 97.9368 33.7835C97.6168 34.0875 97.4568 34.6395 97.4568 35.4395V36.7595H101.201V38.6315H97.4568V48.9995H95.2728V38.6315H93.0408V36.7595H95.2728V35.3675C95.2728 33.9755 95.6248 32.9435 96.3288 32.2715C97.0488 31.5835 97.8568 31.2395 98.7528 31.2395C99.6648 31.2395 100.481 31.4395 101.201 31.8395V33.6395H101.033ZM102.734 42.8795C102.734 40.9755 103.294 39.4395 104.414 38.2715C105.534 37.1035 107.014 36.5195 108.854 36.5195C110.71 36.5195 112.198 37.1035 113.318 38.2715C114.454 39.4395 115.022 40.9755 115.022 42.8795C115.022 44.7835 114.454 46.3195 113.318 47.4875C112.198 48.6555 110.71 49.2395 108.854 49.2395C107.014 49.2395 105.534 48.6555 104.414 47.4875C103.294 46.3195 102.734 44.7835 102.734 42.8795ZM106.094 46.1675C106.894 46.8875 107.822 47.2475 108.878 47.2475C109.934 47.2475 110.854 46.8875 111.638 46.1675C112.438 45.4315 112.838 44.3355 112.838 42.8795C112.838 41.4075 112.438 40.3115 111.638 39.5915C110.854 38.8715 109.934 38.5115 108.878 38.5115C107.822 38.5115 106.894 38.8715 106.094 39.5915C105.31 40.3115 104.918 41.4075 104.918 42.8795C104.918 44.3355 105.31 45.4315 106.094 46.1675ZM124.824 36.5195H125.016V38.6075H124.824C123.88 38.6075 123 38.7915 122.184 39.1595C121.368 39.5275 120.728 40.0395 120.264 40.6955V48.9995H118.08V36.7595H120L120.264 38.2955V38.6555H120.312C121.464 37.2315 122.968 36.5195 124.824 36.5195ZM146.963 46.9355V47.5115C146.963 48.0235 147.099 48.4875 147.371 48.9035V48.9995H145.115C144.891 48.6315 144.779 48.1995 144.779 47.7035V47.3195C144.779 45.8475 144.627 44.8395 144.323 44.2955C144.179 44.0075 143.987 43.7035 143.747 43.3835C143.251 42.7755 142.395 42.4715 141.179 42.4715H136.211V48.9995H134.027V32.2475H140.699C142.875 32.2475 144.507 32.6955 145.595 33.5915C146.683 34.4875 147.227 35.6635 147.227 37.1195C147.227 38.0955 146.963 38.9755 146.435 39.7595C145.907 40.5275 145.139 41.0875 144.131 41.4395V41.4875C146.019 41.9835 146.963 43.7995 146.963 46.9355ZM140.555 40.4075C141.931 40.4075 143.019 40.1355 143.819 39.5915C144.635 39.0475 145.043 38.2875 145.043 37.3115C145.043 36.3355 144.691 35.5915 143.987 35.0795C143.299 34.5675 142.115 34.3115 140.435 34.3115H136.211V40.4075H140.555ZM161.433 42.8795V43.6475H152.169C152.297 44.7675 152.713 45.6395 153.417 46.2635C154.121 46.8875 155.185 47.1995 156.609 47.1995C158.049 47.1995 159.377 46.7995 160.593 45.9995H160.713V48.1115C159.369 48.8635 157.785 49.2395 155.961 49.2395C154.153 49.2395 152.697 48.6875 151.593 47.5835C150.505 46.4635 149.961 44.9595 149.961 43.0715C149.961 41.1675 150.449 39.5995 151.425 38.3675C152.401 37.1355 153.825 36.5195 155.697 36.5195C157.569 36.5195 158.993 37.1355 159.969 38.3675C160.945 39.5995 161.433 41.1035 161.433 42.8795ZM152.169 41.8715H159.249C159.185 40.7195 158.793 39.8475 158.073 39.2555C157.369 38.6635 156.577 38.3675 155.697 38.3675C154.817 38.3675 154.025 38.6635 153.321 39.2555C152.617 39.8475 152.233 40.7195 152.169 41.8715ZM164.585 37.4315C165.977 36.8235 167.465 36.5195 169.049 36.5195C170.649 36.5195 171.873 36.9835 172.721 37.9115C173.569 38.8395 173.993 39.9515 173.993 41.2475V48.9995H172.073L171.809 47.4635H171.737C170.585 48.6475 169.105 49.2395 167.297 49.2395C166.209 49.2395 165.281 48.9115 164.513 48.2555C163.761 47.5995 163.385 46.7035 163.385 45.5675C163.385 44.4315 163.849 43.5115 164.777 42.8075C165.721 42.1035 167.097 41.7515 168.905 41.7515H171.809V41.5595C171.809 40.5035 171.545 39.7435 171.017 39.2795C170.505 38.8155 169.609 38.5835 168.329 38.5835C167.049 38.5835 165.849 38.8555 164.729 39.3995H164.585V37.4315ZM171.809 45.5195V43.5035H169.193C166.777 43.5035 165.569 44.1435 165.569 45.4235C165.569 46.6875 166.417 47.3195 168.113 47.3195C168.817 47.3195 169.497 47.1515 170.153 46.8155C170.809 46.4635 171.361 46.0315 171.809 45.5195ZM187.353 39.7595C186.169 38.9595 184.881 38.5595 183.489 38.5595C182.113 38.5595 181.033 38.9595 180.249 39.7595C179.465 40.5435 179.073 41.5835 179.073 42.8795C179.073 44.1755 179.465 45.2235 180.249 46.0235C181.033 46.8075 182.113 47.1995 183.489 47.1995C184.881 47.1995 186.169 46.7995 187.353 45.9995H187.449V48.0635C186.121 48.8475 184.737 49.2395 183.297 49.2395C181.521 49.2395 180.009 48.6635 178.761 47.5115C177.513 46.3595 176.889 44.8155 176.889 42.8795C176.889 40.9435 177.513 39.3995 178.761 38.2475C180.009 37.0955 181.521 36.5195 183.297 36.5195C184.737 36.5195 186.121 36.9115 187.449 37.6955V39.7595H187.353ZM197.004 38.6315H193.524V45.8795C193.524 46.5515 193.708 46.9675 194.076 47.1275C194.38 47.2555 194.772 47.3195 195.252 47.3195C195.732 47.3195 196.26 47.1915 196.836 46.9355H197.004V48.7115C196.332 49.0635 195.612 49.2395 194.844 49.2395C192.508 49.2395 191.34 48.1835 191.34 46.0715V38.6315H189.06V38.4875L193.524 34.1195V36.7595H197.004V38.6315ZM206.09 48.9995V36.7595H208.274V48.9995H206.09ZM208.37 31.8155V34.1675H206.018V31.8155H208.37ZM216.598 38.5115C215.574 38.5115 214.814 38.6715 214.318 38.9915C213.838 39.2955 213.598 39.6875 213.598 40.1675C213.598 40.6315 213.846 40.9915 214.342 41.2475C214.838 41.5035 215.438 41.7115 216.142 41.8715C216.862 42.0155 217.574 42.1995 218.278 42.4235C218.982 42.6475 219.582 43.0315 220.078 43.5755C220.574 44.1195 220.822 44.8635 220.822 45.8075C220.822 46.7515 220.414 47.5595 219.598 48.2315C218.798 48.9035 217.598 49.2395 215.998 49.2395C214.414 49.2395 212.966 48.8795 211.654 48.1595V46.0715H211.774C213.07 46.8395 214.494 47.2235 216.046 47.2235C217.822 47.2235 218.71 46.6555 218.71 45.5195C218.71 45.1515 218.462 44.8555 217.966 44.6315C217.47 44.3915 216.87 44.1915 216.166 44.0315C215.462 43.8715 214.758 43.6795 214.054 43.4555C213.35 43.2315 212.75 42.8555 212.254 42.3275C211.758 41.7995 211.51 41.1275 211.51 40.3115C211.51 39.1915 211.91 38.2795 212.71 37.5755C213.526 36.8715 214.63 36.5195 216.022 36.5195C217.414 36.5195 218.71 36.7435 219.91 37.1915V39.1835H219.742C218.67 38.7355 217.622 38.5115 216.598 38.5115ZM232.179 38.2955C233.315 37.1115 234.659 36.5195 236.211 36.5195C237.763 36.5195 239.115 37.0955 240.267 38.2475C241.435 39.3995 242.019 40.9435 242.019 42.8795C242.019 44.8155 241.435 46.3595 240.267 47.5115C239.115 48.6635 237.763 49.2395 236.211 49.2395C234.659 49.2395 233.315 48.6475 232.179 47.4635H232.107L231.843 48.9995H229.923V31.4795H232.107V38.2955H232.179ZM235.899 47.1995C237.083 47.1995 238.035 46.8235 238.755 46.0715C239.475 45.3195 239.835 44.2555 239.835 42.8795C239.835 41.5035 239.475 40.4395 238.755 39.6875C238.035 38.9355 237.083 38.5595 235.899 38.5595C234.459 38.5595 233.195 39.1595 232.107 40.3595V45.3995C233.195 46.5995 234.459 47.1995 235.899 47.1995ZM244.32 42.8795C244.32 40.9755 244.88 39.4395 246 38.2715C247.12 37.1035 248.6 36.5195 250.44 36.5195C252.296 36.5195 253.784 37.1035 254.904 38.2715C256.04 39.4395 256.608 40.9755 256.608 42.8795C256.608 44.7835 256.04 46.3195 254.904 47.4875C253.784 48.6555 252.296 49.2395 250.44 49.2395C248.6 49.2395 247.12 48.6555 246 47.4875C244.88 46.3195 244.32 44.7835 244.32 42.8795ZM247.68 46.1675C248.48 46.8875 249.408 47.2475 250.464 47.2475C251.52 47.2475 252.44 46.8875 253.224 46.1675C254.024 45.4315 254.424 44.3355 254.424 42.8795C254.424 41.4075 254.024 40.3115 253.224 39.5915C252.44 38.8715 251.52 38.5115 250.464 38.5115C249.408 38.5115 248.48 38.8715 247.68 39.5915C246.896 40.3115 246.504 41.4075 246.504 42.8795C246.504 44.3355 246.896 45.4315 247.68 46.1675ZM266.41 36.5195H266.602V38.6075H266.41C265.466 38.6075 264.586 38.7915 263.77 39.1595C262.954 39.5275 262.314 40.0395 261.85 40.6955V48.9995H259.666V36.7595H261.586L261.85 38.2955V38.6555H261.898C263.05 37.2315 264.554 36.5195 266.41 36.5195ZM275.595 36.5195C276.923 36.5195 277.971 36.9675 278.739 37.8635C279.507 38.7595 279.891 39.8795 279.891 41.2235V48.9995H277.707V41.4635C277.707 39.5115 276.827 38.5355 275.067 38.5355C273.675 38.5355 272.363 39.3035 271.131 40.8395V48.9995H268.947V36.7595H270.867L271.131 38.2955V38.6555H271.179C272.475 37.2315 273.947 36.5195 275.595 36.5195ZM283.452 46.3115H286.14V48.9995C286.14 50.8555 285.244 52.1595 283.452 52.9115V51.3515C284.332 50.8715 284.772 50.0875 284.772 48.9995H283.452V46.3115ZM302.833 39.3035L310.297 48.9995H307.633L301.441 40.8395H301.321L298.657 43.5995V48.9995H296.473V32.2475H298.657V40.8155H298.729L306.817 32.2475H309.673L302.833 39.3035ZM323.567 46.8155V48.9995H312.551V32.2475H314.735V46.8155H323.567ZM338.283 48.9995L336.483 44.7035H328.347L326.547 48.9995H324.171L331.275 32.2475H333.555L340.659 48.9995H338.283ZM329.211 42.5915V42.7115H335.619V42.5915L332.451 34.9355H332.403L329.211 42.5915ZM349.017 32.2475C350.393 32.2475 351.633 32.4955 352.737 32.9915C353.857 33.4715 354.753 34.1195 355.425 34.9355C356.801 36.5835 357.489 38.4795 357.489 40.6235C357.489 42.3355 357.041 43.8955 356.145 45.3035C355.169 46.8555 353.817 47.9275 352.089 48.5195C351.145 48.8395 350.121 48.9995 349.017 48.9995H343.113V32.2475H349.017ZM348.753 46.9595C350.737 46.9595 352.329 46.3755 353.529 45.2075C354.729 44.0395 355.329 42.5115 355.329 40.6235C355.329 38.7355 354.729 37.2075 353.529 36.0395C352.329 34.8715 350.737 34.2875 348.753 34.2875H345.297V46.9595H348.753ZM363.297 32.2475V48.9995H361.113V32.2475H363.297ZM367.405 48.9995V46.3115H370.093V48.9995H367.405ZM25.5328 79.9995L23.7328 75.7035H15.5968L13.7968 79.9995H11.4208L18.5248 63.2475H20.8048L27.9088 79.9995H25.5328ZM16.4608 73.5915V73.7115H22.8688V73.5915L19.7008 65.9355H19.6528L16.4608 73.5915ZM36.5792 67.5195C37.9072 67.5195 38.9552 67.9675 39.7232 68.8635C40.4912 69.7595 40.8752 70.8795 40.8752 72.2235V79.9995H38.6912V72.4635C38.6912 70.5115 37.8112 69.5355 36.0512 69.5355C34.6592 69.5355 33.3472 70.3035 32.1152 71.8395V79.9995H29.9312V67.7595H31.8512L32.1152 69.2955V69.6555H32.1632C33.4592 68.2315 34.9312 67.5195 36.5792 67.5195ZM45.5402 69.2475C46.7082 68.0955 48.0682 67.5195 49.6202 67.5195C51.1722 67.5195 52.5162 68.1115 53.6522 69.2955H53.7242V62.4795H55.9082V79.9995H53.9882L53.7242 78.4635H53.6522C52.5162 79.6475 51.1722 80.2395 49.6202 80.2395C48.0682 80.2395 46.7082 79.6635 45.5402 78.5115C44.3882 77.3595 43.8122 75.8155 43.8122 73.8795C43.8122 71.9435 44.3882 70.3995 45.5402 69.2475ZM49.9322 78.1995C51.3722 78.1995 52.6362 77.5995 53.7242 76.3995V71.3595C52.6362 70.1595 51.3722 69.5595 49.9322 69.5595C48.7482 69.5595 47.7962 69.9355 47.0762 70.6875C46.3562 71.4395 45.9962 72.5035 45.9962 73.8795C45.9962 75.2555 46.3562 76.3195 47.0762 77.0715C47.7962 77.8235 48.7482 78.1995 49.9322 78.1995ZM75.6032 70.7595C74.4192 69.9595 73.1312 69.5595 71.7392 69.5595C70.3632 69.5595 69.2832 69.9595 68.4992 70.7595C67.7152 71.5435 67.3232 72.5835 67.3232 73.8795C67.3232 75.1755 67.7152 76.2235 68.4992 77.0235C69.2832 77.8075 70.3632 78.1995 71.7392 78.1995C73.1312 78.1995 74.4192 77.7995 75.6032 76.9995H75.6992V79.0635C74.3712 79.8475 72.9872 80.2395 71.5472 80.2395C69.7712 80.2395 68.2592 79.6635 67.0112 78.5115C65.7632 77.3595 65.1392 75.8155 65.1392 73.8795C65.1392 71.9435 65.7632 70.3995 67.0112 69.2475C68.2592 68.0955 69.7712 67.5195 71.5472 67.5195C72.9872 67.5195 74.3712 67.9115 75.6992 68.6955V70.7595H75.6032ZM78.0543 73.8795C78.0543 71.9755 78.6143 70.4395 79.7343 69.2715C80.8543 68.1035 82.3343 67.5195 84.1743 67.5195C86.0303 67.5195 87.5183 68.1035 88.6383 69.2715C89.7743 70.4395 90.3423 71.9755 90.3423 73.8795C90.3423 75.7835 89.7743 77.3195 88.6383 78.4875C87.5183 79.6555 86.0303 80.2395 84.1743 80.2395C82.3343 80.2395 80.8543 79.6555 79.7343 78.4875C78.6143 77.3195 78.0543 75.7835 78.0543 73.8795ZM81.4143 77.1675C82.2143 77.8875 83.1423 78.2475 84.1983 78.2475C85.2543 78.2475 86.1743 77.8875 86.9583 77.1675C87.7583 76.4315 88.1583 75.3355 88.1583 73.8795C88.1583 72.4075 87.7583 71.3115 86.9583 70.5915C86.1743 69.8715 85.2543 69.5115 84.1983 69.5115C83.1423 69.5115 82.2143 69.8715 81.4143 70.5915C80.6303 71.3115 80.2383 72.4075 80.2383 73.8795C80.2383 75.3355 80.6303 76.4315 81.4143 77.1675ZM107.752 67.5195C109.064 67.5195 110.056 67.9835 110.728 68.9115C111.416 69.8395 111.76 70.9115 111.76 72.1275V79.9995H109.576V72.5595C109.576 71.5195 109.384 70.7595 109 70.2795C108.632 69.7835 108.008 69.5355 107.128 69.5355C105.752 69.5355 104.6 70.3035 103.672 71.8395V79.9995H101.488V72.5595C101.488 71.5195 101.304 70.7595 100.936 70.2795C100.568 69.7835 99.9359 69.5355 99.0399 69.5355C97.6639 69.5355 96.5119 70.3035 95.5839 71.8395V79.9995H93.3999V67.7595H95.3199L95.5839 69.2955V69.6555H95.6319C96.6559 68.2315 97.9999 67.5195 99.6639 67.5195C100.56 67.5195 101.32 67.7515 101.944 68.2155C102.584 68.6795 103.04 69.2555 103.312 69.9435H103.384C104.36 68.3275 105.816 67.5195 107.752 67.5195ZM129.807 67.5195C131.119 67.5195 132.111 67.9835 132.783 68.9115C133.471 69.8395 133.815 70.9115 133.815 72.1275V79.9995H131.631V72.5595C131.631 71.5195 131.439 70.7595 131.055 70.2795C130.687 69.7835 130.063 69.5355 129.183 69.5355C127.807 69.5355 126.655 70.3035 125.727 71.8395V79.9995H123.543V72.5595C123.543 71.5195 123.359 70.7595 122.991 70.2795C122.623 69.7835 121.991 69.5355 121.095 69.5355C119.719 69.5355 118.567 70.3035 117.639 71.8395V79.9995H115.455V67.7595H117.375L117.639 69.2955V69.6555H117.687C118.711 68.2315 120.055 67.5195 121.719 67.5195C122.615 67.5195 123.375 67.7515 123.999 68.2155C124.639 68.6795 125.095 69.2555 125.367 69.9435H125.439C126.415 68.3275 127.871 67.5195 129.807 67.5195ZM141.709 80.2395C140.381 80.2395 139.333 79.7915 138.565 78.8955C137.797 77.9995 137.413 76.8795 137.413 75.5355V67.7595H139.597V75.2955C139.597 77.2475 140.477 78.2235 142.237 78.2235C143.629 78.2235 144.941 77.4555 146.173 75.9195V67.7595H148.357V79.9995H146.437L146.173 78.4635V78.1035H146.125C144.829 79.5275 143.357 80.2395 141.709 80.2395ZM158.806 67.5195C160.134 67.5195 161.182 67.9675 161.95 68.8635C162.718 69.7595 163.102 70.8795 163.102 72.2235V79.9995H160.918V72.4635C160.918 70.5115 160.038 69.5355 158.278 69.5355C156.886 69.5355 155.574 70.3035 154.342 71.8395V79.9995H152.158V67.7595H154.078L154.342 69.2955V69.6555H154.39C155.686 68.2315 157.158 67.5195 158.806 67.5195ZM166.879 79.9995V67.7595H169.063V79.9995H166.879ZM169.159 62.8155V65.1675H166.807V62.8155H169.159ZM179.403 69.6315H175.923V76.8795C175.923 77.5515 176.107 77.9675 176.475 78.1275C176.779 78.2555 177.171 78.3195 177.651 78.3195C178.131 78.3195 178.659 78.1915 179.235 77.9355H179.403V79.7115C178.731 80.0635 178.011 80.2395 177.243 80.2395C174.907 80.2395 173.739 79.1835 173.739 77.0715V69.6315H171.459V69.4875L175.923 65.1195V67.7595H179.403V69.6315ZM192.958 67.7595L185.59 85.5195H183.382L185.446 80.1915L180.382 67.7595H182.734L186.574 77.4315H186.67L190.606 67.7595H192.958ZM205.629 69.5115C204.605 69.5115 203.845 69.6715 203.349 69.9915C202.869 70.2955 202.629 70.6875 202.629 71.1675C202.629 71.6315 202.877 71.9915 203.373 72.2475C203.869 72.5035 204.469 72.7115 205.173 72.8715C205.893 73.0155 206.605 73.1995 207.309 73.4235C208.013 73.6475 208.613 74.0315 209.109 74.5755C209.605 75.1195 209.853 75.8635 209.853 76.8075C209.853 77.7515 209.445 78.5595 208.629 79.2315C207.829 79.9035 206.629 80.2395 205.029 80.2395C203.445 80.2395 201.997 79.8795 200.685 79.1595V77.0715H200.805C202.101 77.8395 203.525 78.2235 205.077 78.2235C206.853 78.2235 207.741 77.6555 207.741 76.5195C207.741 76.1515 207.493 75.8555 206.997 75.6315C206.501 75.3915 205.901 75.1915 205.197 75.0315C204.493 74.8715 203.789 74.6795 203.085 74.4555C202.381 74.2315 201.781 73.8555 201.285 73.3275C200.789 72.7995 200.541 72.1275 200.541 71.3115C200.541 70.1915 200.941 69.2795 201.741 68.5755C202.557 67.8715 203.661 67.5195 205.053 67.5195C206.445 67.5195 207.741 67.7435 208.941 68.1915V70.1835H208.773C207.701 69.7355 206.653 69.5115 205.629 69.5115ZM219.176 69.6315H215.696V76.8795C215.696 77.5515 215.88 77.9675 216.248 78.1275C216.552 78.2555 216.944 78.3195 217.424 78.3195C217.904 78.3195 218.432 78.1915 219.008 77.9355H219.176V79.7115C218.504 80.0635 217.784 80.2395 217.016 80.2395C214.68 80.2395 213.512 79.1835 213.512 77.0715V69.6315H211.232V69.4875L215.696 65.1195V67.7595H219.176V69.6315ZM222.147 68.4315C223.539 67.8235 225.027 67.5195 226.611 67.5195C228.211 67.5195 229.435 67.9835 230.283 68.9115C231.131 69.8395 231.555 70.9515 231.555 72.2475V79.9995H229.635L229.371 78.4635H229.299C228.147 79.6475 226.667 80.2395 224.859 80.2395C223.771 80.2395 222.843 79.9115 222.075 79.2555C221.323 78.5995 220.947 77.7035 220.947 76.5675C220.947 75.4315 221.411 74.5115 222.339 73.8075C223.283 73.1035 224.659 72.7515 226.467 72.7515H229.371V72.5595C229.371 71.5035 229.107 70.7435 228.579 70.2795C228.067 69.8155 227.171 69.5835 225.891 69.5835C224.611 69.5835 223.411 69.8555 222.291 70.3995H222.147V68.4315ZM229.371 76.5195V74.5035H226.755C224.339 74.5035 223.131 75.1435 223.131 76.4235C223.131 77.6875 223.979 78.3195 225.675 78.3195C226.379 78.3195 227.059 78.1515 227.715 77.8155C228.371 77.4635 228.923 77.0315 229.371 76.5195ZM241.988 67.5195H242.18V69.6075H241.988C241.044 69.6075 240.164 69.7915 239.348 70.1595C238.532 70.5275 237.892 71.0395 237.428 71.6955V79.9995H235.244V67.7595H237.164L237.428 69.2955V69.6555H237.476C238.628 68.2315 240.132 67.5195 241.988 67.5195ZM250.981 69.6315H247.501V76.8795C247.501 77.5515 247.685 77.9675 248.053 78.1275C248.357 78.2555 248.749 78.3195 249.229 78.3195C249.709 78.3195 250.237 78.1915 250.813 77.9355H250.981V79.7115C250.309 80.0635 249.589 80.2395 248.821 80.2395C246.485 80.2395 245.317 79.1835 245.317 77.0715V69.6315H243.037V69.4875L247.501 65.1195V67.7595H250.981V69.6315ZM264.488 73.8795V74.6475H255.224C255.352 75.7675 255.768 76.6395 256.472 77.2635C257.176 77.8875 258.24 78.1995 259.664 78.1995C261.104 78.1995 262.432 77.7995 263.648 76.9995H263.768V79.1115C262.424 79.8635 260.84 80.2395 259.016 80.2395C257.208 80.2395 255.752 79.6875 254.648 78.5835C253.56 77.4635 253.016 75.9595 253.016 74.0715C253.016 72.1675 253.504 70.5995 254.48 69.3675C255.456 68.1355 256.88 67.5195 258.752 67.5195C260.624 67.5195 262.048 68.1355 263.024 69.3675C264 70.5995 264.488 72.1035 264.488 73.8795ZM255.224 72.8715H262.304C262.24 71.7195 261.848 70.8475 261.128 70.2555C260.424 69.6635 259.632 69.3675 258.752 69.3675C257.872 69.3675 257.08 69.6635 256.376 70.2555C255.672 70.8475 255.288 71.7195 255.224 72.8715ZM268.407 69.2475C269.575 68.0955 270.935 67.5195 272.487 67.5195C274.039 67.5195 275.383 68.1115 276.519 69.2955H276.591V62.4795H278.775V79.9995H276.855L276.591 78.4635H276.519C275.383 79.6475 274.039 80.2395 272.487 80.2395C270.935 80.2395 269.575 79.6635 268.407 78.5115C267.255 77.3595 266.679 75.8155 266.679 73.8795C266.679 71.9435 267.255 70.3995 268.407 69.2475ZM272.799 78.1995C274.239 78.1995 275.503 77.5995 276.591 76.3995V71.3595C275.503 70.1595 274.239 69.5595 272.799 69.5595C271.615 69.5595 270.663 69.9355 269.943 70.6875C269.223 71.4395 268.863 72.5035 268.863 73.8795C268.863 75.2555 269.223 76.3195 269.943 77.0715C270.663 77.8235 271.615 78.1995 272.799 78.1995ZM298.23 67.7595H300.15V79.4715C300.15 81.4875 299.662 83.0395 298.686 84.1275C297.71 85.2155 296.294 85.7595 294.438 85.7595C292.598 85.7595 290.918 85.3515 289.398 84.5355V82.3755H289.518C290.878 83.2555 292.47 83.6955 294.294 83.6955C296.742 83.6955 297.966 82.3915 297.966 79.7835V78.2235H297.894C296.79 79.4075 295.47 79.9995 293.934 79.9995C292.398 79.9995 291.03 79.4555 289.83 78.3675C288.646 77.2635 288.054 75.7275 288.054 73.7595C288.054 71.7915 288.646 70.2635 289.83 69.1755C291.03 68.0715 292.398 67.5195 293.934 67.5195C295.47 67.5195 296.79 68.1115 297.894 69.2955H297.966L298.23 67.7595ZM297.966 76.2315V71.2875C296.814 70.1035 295.614 69.5115 294.366 69.5115C293.134 69.5115 292.134 69.8795 291.366 70.6155C290.614 71.3355 290.238 72.3835 290.238 73.7595C290.238 75.1355 290.614 76.1915 291.366 76.9275C292.134 77.6475 293.134 78.0075 294.366 78.0075C295.614 78.0075 296.814 77.4155 297.966 76.2315ZM310.683 67.5195H310.875V69.6075H310.683C309.739 69.6075 308.859 69.7915 308.043 70.1595C307.227 70.5275 306.587 71.0395 306.123 71.6955V79.9995H303.939V67.7595H305.859L306.123 69.2955V69.6555H306.171C307.323 68.2315 308.827 67.5195 310.683 67.5195ZM312.476 73.8795C312.476 71.9755 313.036 70.4395 314.156 69.2715C315.276 68.1035 316.756 67.5195 318.596 67.5195C320.452 67.5195 321.94 68.1035 323.06 69.2715C324.196 70.4395 324.764 71.9755 324.764 73.8795C324.764 75.7835 324.196 77.3195 323.06 78.4875C321.94 79.6555 320.452 80.2395 318.596 80.2395C316.756 80.2395 315.276 79.6555 314.156 78.4875C313.036 77.3195 312.476 75.7835 312.476 73.8795ZM315.836 77.1675C316.636 77.8875 317.564 78.2475 318.62 78.2475C319.676 78.2475 320.596 77.8875 321.38 77.1675C322.18 76.4315 322.58 75.3355 322.58 73.8795C322.58 72.4075 322.18 71.3115 321.38 70.5915C320.596 69.8715 319.676 69.5115 318.62 69.5115C317.564 69.5115 316.636 69.8715 315.836 70.5915C315.052 71.3115 314.66 72.4075 314.66 73.8795C314.66 75.3355 315.052 76.4315 315.836 77.1675ZM342.198 67.7595H344.502L340.302 79.9995H338.166L335.382 71.2395H335.31L332.526 79.9995H330.39L326.19 67.7595H328.494L331.398 77.3595H331.47L334.446 67.7595H336.246L339.222 77.3595H339.294L342.198 67.7595ZM346.762 79.9995V67.7595H348.946V79.9995H346.762ZM349.042 62.8155V65.1675H346.69V62.8155H349.042ZM359.478 67.5195C360.806 67.5195 361.854 67.9675 362.622 68.8635C363.39 69.7595 363.774 70.8795 363.774 72.2235V79.9995H361.59V72.4635C361.59 70.5115 360.71 69.5355 358.95 69.5355C357.558 69.5355 356.246 70.3035 355.014 71.8395V79.9995H352.83V67.7595H354.75L355.014 69.2955V69.6555H355.062C356.358 68.2315 357.83 67.5195 359.478 67.5195ZM376.887 67.7595H378.807V79.4715C378.807 81.4875 378.319 83.0395 377.343 84.1275C376.367 85.2155 374.951 85.7595 373.095 85.7595C371.255 85.7595 369.575 85.3515 368.055 84.5355V82.3755H368.175C369.535 83.2555 371.127 83.6955 372.951 83.6955C375.399 83.6955 376.623 82.3915 376.623 79.7835V78.2235H376.551C375.447 79.4075 374.127 79.9995 372.591 79.9995C371.055 79.9995 369.687 79.4555 368.487 78.3675C367.303 77.2635 366.711 75.7275 366.711 73.7595C366.711 71.7915 367.303 70.2635 368.487 69.1755C369.687 68.0715 371.055 67.5195 372.591 67.5195C374.127 67.5195 375.447 68.1115 376.551 69.2955H376.623L376.887 67.7595ZM376.623 76.2315V71.2875C375.471 70.1035 374.271 69.5115 373.023 69.5115C371.791 69.5115 370.791 69.8795 370.023 70.6155C369.271 71.3355 368.895 72.3835 368.895 73.7595C368.895 75.1355 369.271 76.1915 370.023 76.9275C370.791 77.6475 371.791 78.0075 373.023 78.0075C374.271 78.0075 375.471 77.4155 376.623 76.2315ZM44.82 104.88C44.82 102.976 45.38 101.44 46.5 100.272C47.62 99.1035 49.1 98.5195 50.94 98.5195C52.796 98.5195 54.284 99.1035 55.404 100.272C56.54 101.44 57.108 102.976 57.108 104.88C57.108 106.784 56.54 108.32 55.404 109.488C54.284 110.656 52.796 111.24 50.94 111.24C49.1 111.24 47.62 110.656 46.5 109.488C45.38 108.32 44.82 106.784 44.82 104.88ZM48.18 108.168C48.98 108.888 49.908 109.248 50.964 109.248C52.02 109.248 52.94 108.888 53.724 108.168C54.524 107.432 54.924 106.336 54.924 104.88C54.924 103.408 54.524 102.312 53.724 101.592C52.94 100.872 52.02 100.512 50.964 100.512C49.908 100.512 48.98 100.872 48.18 101.592C47.396 102.312 47.004 103.408 47.004 104.88C47.004 106.336 47.396 107.432 48.18 108.168ZM66.8135 98.5195C68.1415 98.5195 69.1895 98.9675 69.9575 99.8635C70.7255 100.76 71.1095 101.88 71.1095 103.224V111H68.9255V103.464C68.9255 101.512 68.0455 100.536 66.2855 100.536C64.8935 100.536 63.5815 101.304 62.3495 102.84V111H60.1655V98.7595H62.0855L62.3495 100.296V100.656H62.3975C63.6935 99.2315 65.1655 98.5195 66.8135 98.5195ZM90.4569 98.7595H92.3769V110.472C92.3769 112.488 91.8889 114.04 90.9129 115.128C89.9369 116.216 88.5209 116.76 86.6649 116.76C84.8249 116.76 83.1449 116.352 81.6249 115.536V113.376H81.7449C83.1049 114.256 84.6969 114.696 86.5209 114.696C88.9689 114.696 90.1929 113.392 90.1929 110.784V109.224H90.1209C89.0169 110.408 87.6969 111 86.1609 111C84.6249 111 83.2569 110.456 82.0569 109.368C80.8729 108.264 80.2809 106.728 80.2809 104.76C80.2809 102.792 80.8729 101.264 82.0569 100.176C83.2569 99.0715 84.6249 98.5195 86.1609 98.5195C87.6969 98.5195 89.0169 99.1115 90.1209 100.296H90.1929L90.4569 98.7595ZM90.1929 107.232V102.288C89.0409 101.104 87.8409 100.512 86.5929 100.512C85.3609 100.512 84.3609 100.88 83.5929 101.616C82.8409 102.336 82.4649 103.384 82.4649 104.76C82.4649 106.136 82.8409 107.192 83.5929 107.928C84.3609 108.648 85.3609 109.008 86.5929 109.008C87.8409 109.008 89.0409 108.416 90.1929 107.232ZM96.2615 111V98.7595H98.4455V111H96.2615ZM98.5415 93.8155V96.1675H96.1895V93.8155H98.5415ZM108.786 100.632H105.306V107.88C105.306 108.552 105.49 108.968 105.858 109.128C106.162 109.256 106.554 109.32 107.034 109.32C107.514 109.32 108.042 109.192 108.618 108.936H108.786V110.712C108.114 111.064 107.394 111.24 106.626 111.24C104.29 111.24 103.122 110.184 103.122 108.072V100.632H100.842V100.488L105.306 96.1195V98.7595H108.786V100.632ZM118.189 98.5195C119.517 98.5195 120.565 98.9675 121.333 99.8635C122.101 100.76 122.485 101.88 122.485 103.224V111H120.301V103.464C120.301 101.512 119.421 100.536 117.661 100.536C116.269 100.536 114.957 101.304 113.725 102.84V111H111.541V93.4795H113.725V100.656H113.797C115.093 99.2315 116.557 98.5195 118.189 98.5195ZM130.366 111.24C129.038 111.24 127.99 110.792 127.222 109.896C126.454 109 126.07 107.88 126.07 106.536V98.7595H128.254V106.296C128.254 108.248 129.134 109.224 130.894 109.224C132.286 109.224 133.598 108.456 134.83 106.92V98.7595H137.014V111H135.094L134.83 109.464V109.104H134.782C133.486 110.528 132.014 111.24 130.366 111.24ZM143.07 100.296C144.206 99.1115 145.55 98.5195 147.102 98.5195C148.654 98.5195 150.006 99.0955 151.158 100.248C152.326 101.4 152.91 102.944 152.91 104.88C152.91 106.816 152.326 108.36 151.158 109.512C150.006 110.664 148.654 111.24 147.102 111.24C145.55 111.24 144.206 110.648 143.07 109.464H142.998L142.734 111H140.814V93.4795H142.998V100.296H143.07ZM146.79 109.2C147.974 109.2 148.926 108.824 149.646 108.072C150.366 107.32 150.726 106.256 150.726 104.88C150.726 103.504 150.366 102.44 149.646 101.688C148.926 100.936 147.974 100.56 146.79 100.56C145.35 100.56 144.086 101.16 142.998 102.36V107.4C144.086 108.6 145.35 109.2 146.79 109.2ZM162.405 99.4315C163.797 98.8235 165.285 98.5195 166.869 98.5195C168.469 98.5195 169.693 98.9835 170.541 99.9115C171.389 100.84 171.813 101.952 171.813 103.248V111H169.893L169.629 109.464H169.557C168.405 110.648 166.925 111.24 165.117 111.24C164.029 111.24 163.101 110.912 162.333 110.256C161.581 109.6 161.205 108.704 161.205 107.568C161.205 106.432 161.669 105.512 162.597 104.808C163.541 104.104 164.917 103.752 166.725 103.752H169.629V103.56C169.629 102.504 169.365 101.744 168.837 101.28C168.325 100.816 167.429 100.584 166.149 100.584C164.869 100.584 163.669 100.856 162.549 101.4H162.405V99.4315ZM169.629 107.52V105.504H167.013C164.597 105.504 163.389 106.144 163.389 107.424C163.389 108.688 164.237 109.32 165.933 109.32C166.637 109.32 167.317 109.152 167.973 108.816C168.629 108.464 169.181 108.032 169.629 107.52ZM185.173 101.76C183.989 100.96 182.701 100.56 181.309 100.56C179.933 100.56 178.853 100.96 178.069 101.76C177.285 102.544 176.893 103.584 176.893 104.88C176.893 106.176 177.285 107.224 178.069 108.024C178.853 108.808 179.933 109.2 181.309 109.2C182.701 109.2 183.989 108.8 185.173 108H185.269V110.064C183.941 110.848 182.557 111.24 181.117 111.24C179.341 111.24 177.829 110.664 176.581 109.512C175.333 108.36 174.709 106.816 174.709 104.88C174.709 102.944 175.333 101.4 176.581 100.248C177.829 99.0955 179.341 98.5195 181.117 98.5195C182.557 98.5195 183.941 98.9115 185.269 99.6955V101.76H185.173ZM195.113 98.5195H195.305V100.608H195.113C194.169 100.608 193.289 100.792 192.473 101.16C191.657 101.528 191.017 102.04 190.553 102.696V111H188.369V98.7595H190.289L190.553 100.296V100.656H190.601C191.753 99.2315 193.257 98.5195 195.113 98.5195ZM196.906 104.88C196.906 102.976 197.466 101.44 198.586 100.272C199.706 99.1035 201.186 98.5195 203.026 98.5195C204.882 98.5195 206.37 99.1035 207.49 100.272C208.626 101.44 209.194 102.976 209.194 104.88C209.194 106.784 208.626 108.32 207.49 109.488C206.37 110.656 204.882 111.24 203.026 111.24C201.186 111.24 199.706 110.656 198.586 109.488C197.466 108.32 196.906 106.784 196.906 104.88ZM200.266 108.168C201.066 108.888 201.994 109.248 203.05 109.248C204.106 109.248 205.026 108.888 205.81 108.168C206.61 107.432 207.01 106.336 207.01 104.88C207.01 103.408 206.61 102.312 205.81 101.592C205.026 100.872 204.106 100.512 203.05 100.512C201.994 100.512 201.066 100.872 200.266 101.592C199.482 102.312 199.09 103.408 199.09 104.88C199.09 106.336 199.482 107.432 200.266 108.168ZM216.691 100.512C215.667 100.512 214.907 100.672 214.411 100.992C213.931 101.296 213.691 101.688 213.691 102.168C213.691 102.632 213.939 102.992 214.435 103.248C214.931 103.504 215.531 103.712 216.235 103.872C216.955 104.016 217.667 104.2 218.371 104.424C219.075 104.648 219.675 105.032 220.171 105.576C220.667 106.12 220.915 106.864 220.915 107.808C220.915 108.752 220.507 109.56 219.691 110.232C218.891 110.904 217.691 111.24 216.091 111.24C214.507 111.24 213.059 110.88 211.747 110.16V108.072H211.867C213.163 108.84 214.587 109.224 216.139 109.224C217.915 109.224 218.803 108.656 218.803 107.52C218.803 107.152 218.555 106.856 218.059 106.632C217.563 106.392 216.963 106.192 216.259 106.032C215.555 105.872 214.851 105.68 214.147 105.456C213.443 105.232 212.843 104.856 212.347 104.328C211.851 103.8 211.603 103.128 211.603 102.312C211.603 101.192 212.003 100.28 212.803 99.5755C213.619 98.8715 214.723 98.5195 216.115 98.5195C217.507 98.5195 218.803 98.7435 220.003 99.1915V101.184H219.835C218.763 100.736 217.715 100.512 216.691 100.512ZM228.223 100.512C227.199 100.512 226.439 100.672 225.943 100.992C225.463 101.296 225.223 101.688 225.223 102.168C225.223 102.632 225.471 102.992 225.967 103.248C226.463 103.504 227.063 103.712 227.767 103.872C228.487 104.016 229.199 104.2 229.903 104.424C230.607 104.648 231.207 105.032 231.703 105.576C232.199 106.12 232.447 106.864 232.447 107.808C232.447 108.752 232.039 109.56 231.223 110.232C230.423 110.904 229.223 111.24 227.623 111.24C226.039 111.24 224.591 110.88 223.279 110.16V108.072H223.399C224.695 108.84 226.119 109.224 227.671 109.224C229.447 109.224 230.335 108.656 230.335 107.52C230.335 107.152 230.087 106.856 229.591 106.632C229.095 106.392 228.495 106.192 227.791 106.032C227.087 105.872 226.383 105.68 225.679 105.456C224.975 105.232 224.375 104.856 223.879 104.328C223.383 103.8 223.135 103.128 223.135 102.312C223.135 101.192 223.535 100.28 224.335 99.5755C225.151 98.8715 226.255 98.5195 227.647 98.5195C229.039 98.5195 230.335 98.7435 231.535 99.1915V101.184H231.367C230.295 100.736 229.247 100.512 228.223 100.512ZM248.004 100.632H244.524V107.88C244.524 108.552 244.708 108.968 245.076 109.128C245.38 109.256 245.772 109.32 246.252 109.32C246.732 109.32 247.26 109.192 247.836 108.936H248.004V110.712C247.332 111.064 246.612 111.24 245.844 111.24C243.508 111.24 242.34 110.184 242.34 108.072V100.632H240.06V100.488L244.524 96.1195V98.7595H248.004V100.632ZM257.407 98.5195C258.735 98.5195 259.783 98.9675 260.551 99.8635C261.319 100.76 261.703 101.88 261.703 103.224V111H259.519V103.464C259.519 101.512 258.639 100.536 256.879 100.536C255.487 100.536 254.175 101.304 252.943 102.84V111H250.759V93.4795H252.943V100.656H253.015C254.311 99.2315 255.775 98.5195 257.407 98.5195ZM276.136 104.88V105.648H266.872C267 106.768 267.416 107.64 268.12 108.264C268.824 108.888 269.888 109.2 271.312 109.2C272.752 109.2 274.08 108.8 275.296 108H275.416V110.112C274.072 110.864 272.488 111.24 270.664 111.24C268.856 111.24 267.4 110.688 266.296 109.584C265.208 108.464 264.664 106.96 264.664 105.072C264.664 103.168 265.152 101.6 266.128 100.368C267.104 99.1355 268.528 98.5195 270.4 98.5195C272.272 98.5195 273.696 99.1355 274.672 100.368C275.648 101.6 276.136 103.104 276.136 104.88ZM266.872 103.872H273.952C273.888 102.72 273.496 101.848 272.776 101.256C272.072 100.664 271.28 100.368 270.4 100.368C269.52 100.368 268.728 100.664 268.024 101.256C267.32 101.848 266.936 102.72 266.872 103.872ZM294.738 98.7595H296.658V110.472C296.658 112.488 296.17 114.04 295.194 115.128C294.218 116.216 292.802 116.76 290.946 116.76C289.106 116.76 287.426 116.352 285.906 115.536V113.376H286.026C287.386 114.256 288.978 114.696 290.802 114.696C293.25 114.696 294.474 113.392 294.474 110.784V109.224H294.402C293.298 110.408 291.978 111 290.442 111C288.906 111 287.538 110.456 286.338 109.368C285.154 108.264 284.562 106.728 284.562 104.76C284.562 102.792 285.154 101.264 286.338 100.176C287.538 99.0715 288.906 98.5195 290.442 98.5195C291.978 98.5195 293.298 99.1115 294.402 100.296H294.474L294.738 98.7595ZM294.474 107.232V102.288C293.322 101.104 292.122 100.512 290.874 100.512C289.642 100.512 288.642 100.88 287.874 101.616C287.122 102.336 286.746 103.384 286.746 104.76C286.746 106.136 287.122 107.192 287.874 107.928C288.642 108.648 289.642 109.008 290.874 109.008C292.122 109.008 293.322 108.416 294.474 107.232ZM302.823 93.4795V111H300.639V93.4795H302.823ZM306.054 104.88C306.054 102.976 306.614 101.44 307.734 100.272C308.854 99.1035 310.334 98.5195 312.174 98.5195C314.03 98.5195 315.518 99.1035 316.638 100.272C317.774 101.44 318.342 102.976 318.342 104.88C318.342 106.784 317.774 108.32 316.638 109.488C315.518 110.656 314.03 111.24 312.174 111.24C310.334 111.24 308.854 110.656 307.734 109.488C306.614 108.32 306.054 106.784 306.054 104.88ZM309.414 108.168C310.214 108.888 311.142 109.248 312.198 109.248C313.254 109.248 314.174 108.888 314.958 108.168C315.758 107.432 316.158 106.336 316.158 104.88C316.158 103.408 315.758 102.312 314.958 101.592C314.174 100.872 313.254 100.512 312.198 100.512C311.142 100.512 310.214 100.872 309.414 101.592C308.63 102.312 308.238 103.408 308.238 104.88C308.238 106.336 308.63 107.432 309.414 108.168ZM323.656 100.296C324.792 99.1115 326.136 98.5195 327.688 98.5195C329.24 98.5195 330.592 99.0955 331.744 100.248C332.912 101.4 333.496 102.944 333.496 104.88C333.496 106.816 332.912 108.36 331.744 109.512C330.592 110.664 329.24 111.24 327.688 111.24C326.136 111.24 324.792 110.648 323.656 109.464H323.584L323.32 111H321.4V93.4795H323.584V100.296H323.656ZM327.376 109.2C328.56 109.2 329.512 108.824 330.232 108.072C330.952 107.32 331.312 106.256 331.312 104.88C331.312 103.504 330.952 102.44 330.232 101.688C329.512 100.936 328.56 100.56 327.376 100.56C325.936 100.56 324.672 101.16 323.584 102.36V107.4C324.672 108.6 325.936 109.2 327.376 109.2ZM347.293 104.88V105.648H338.029C338.157 106.768 338.573 107.64 339.277 108.264C339.981 108.888 341.045 109.2 342.469 109.2C343.909 109.2 345.237 108.8 346.453 108H346.573V110.112C345.229 110.864 343.645 111.24 341.821 111.24C340.013 111.24 338.557 110.688 337.453 109.584C336.365 108.464 335.821 106.96 335.821 105.072C335.821 103.168 336.309 101.6 337.285 100.368C338.261 99.1355 339.685 98.5195 341.557 98.5195C343.429 98.5195 344.853 99.1355 345.829 100.368C346.805 101.6 347.293 103.104 347.293 104.88ZM338.029 103.872H345.109C345.045 102.72 344.653 101.848 343.933 101.256C343.229 100.664 342.437 100.368 341.557 100.368C340.677 100.368 339.885 100.664 339.181 101.256C338.477 101.848 338.093 102.72 338.029 103.872ZM30.6276 130.432C32.0196 129.824 33.5076 129.52 35.0916 129.52C36.6916 129.52 37.9156 129.984 38.7636 130.912C39.6116 131.84 40.0356 132.952 40.0356 134.248V142H38.1156L37.8516 140.464H37.7796C36.6276 141.648 35.1476 142.24 33.3396 142.24C32.2516 142.24 31.3236 141.912 30.5556 141.256C29.8036 140.6 29.4276 139.704 29.4276 138.568C29.4276 137.432 29.8916 136.512 30.8196 135.808C31.7636 135.104 33.1396 134.752 34.9476 134.752H37.8516V134.56C37.8516 133.504 37.5876 132.744 37.0596 132.28C36.5476 131.816 35.6516 131.584 34.3716 131.584C33.0916 131.584 31.8916 131.856 30.7716 132.4H30.6276V130.432ZM37.8516 138.52V136.504H35.2356C32.8196 136.504 31.6116 137.144 31.6116 138.424C31.6116 139.688 32.4596 140.32 34.1556 140.32C34.8596 140.32 35.5396 140.152 36.1956 139.816C36.8516 139.464 37.4036 139.032 37.8516 138.52ZM53.3961 132.76C52.2121 131.96 50.9241 131.56 49.5321 131.56C48.1561 131.56 47.0761 131.96 46.2921 132.76C45.5081 133.544 45.1161 134.584 45.1161 135.88C45.1161 137.176 45.5081 138.224 46.2921 139.024C47.0761 139.808 48.1561 140.2 49.5321 140.2C50.9241 140.2 52.2121 139.8 53.3961 139H53.4921V141.064C52.1641 141.848 50.7801 142.24 49.3401 142.24C47.5641 142.24 46.0521 141.664 44.8041 140.512C43.5561 139.36 42.9321 137.816 42.9321 135.88C42.9321 133.944 43.5561 132.4 44.8041 131.248C46.0521 130.096 47.5641 129.52 49.3401 129.52C50.7801 129.52 52.1641 129.912 53.4921 130.696V132.76H53.3961ZM66.2633 132.76C65.0793 131.96 63.7913 131.56 62.3993 131.56C61.0233 131.56 59.9433 131.96 59.1593 132.76C58.3753 133.544 57.9833 134.584 57.9833 135.88C57.9833 137.176 58.3753 138.224 59.1593 139.024C59.9433 139.808 61.0233 140.2 62.3993 140.2C63.7913 140.2 65.0793 139.8 66.2633 139H66.3593V141.064C65.0313 141.848 63.6473 142.24 62.2073 142.24C60.4313 142.24 58.9193 141.664 57.6713 140.512C56.4233 139.36 55.7993 137.816 55.7993 135.88C55.7993 133.944 56.4233 132.4 57.6713 131.248C58.9193 130.096 60.4313 129.52 62.2073 129.52C63.6473 129.52 65.0313 129.912 66.3593 130.696V132.76H66.2633ZM80.2105 135.88V136.648H70.9465C71.0745 137.768 71.4905 138.64 72.1945 139.264C72.8985 139.888 73.9625 140.2 75.3865 140.2C76.8265 140.2 78.1545 139.8 79.3705 139H79.4905V141.112C78.1465 141.864 76.5625 142.24 74.7385 142.24C72.9305 142.24 71.4745 141.688 70.3705 140.584C69.2825 139.464 68.7385 137.96 68.7385 136.072C68.7385 134.168 69.2265 132.6 70.2025 131.368C71.1785 130.136 72.6025 129.52 74.4745 129.52C76.3465 129.52 77.7705 130.136 78.7465 131.368C79.7225 132.6 80.2105 134.104 80.2105 135.88ZM70.9465 134.872H78.0265C77.9625 133.72 77.5705 132.848 76.8505 132.256C76.1465 131.664 75.3545 131.368 74.4745 131.368C73.5945 131.368 72.8025 131.664 72.0985 132.256C71.3945 132.848 71.0105 133.72 70.9465 134.872ZM93.49 140.512C92.338 141.664 90.986 142.24 89.434 142.24C87.882 142.24 86.538 141.648 85.402 140.464H85.33V147.52H83.146V129.76H85.066L85.33 131.296H85.402C86.538 130.112 87.882 129.52 89.434 129.52C90.986 129.52 92.338 130.096 93.49 131.248C94.658 132.4 95.242 133.944 95.242 135.88C95.242 137.816 94.658 139.36 93.49 140.512ZM89.122 131.56C87.682 131.56 86.418 132.16 85.33 133.36V138.4C86.418 139.6 87.682 140.2 89.122 140.2C90.306 140.2 91.258 139.824 91.978 139.072C92.698 138.32 93.058 137.256 93.058 135.88C93.058 134.504 92.698 133.44 91.978 132.688C91.258 131.936 90.306 131.56 89.122 131.56ZM104.743 131.632H101.263V138.88C101.263 139.552 101.447 139.968 101.815 140.128C102.119 140.256 102.511 140.32 102.991 140.32C103.471 140.32 103.999 140.192 104.575 139.936H104.743V141.712C104.071 142.064 103.351 142.24 102.583 142.24C100.247 142.24 99.0786 141.184 99.0786 139.072V131.632H96.7986V131.488L101.263 127.12V129.76H104.743V131.632ZM107.594 142V129.76H109.778V142H107.594ZM109.874 124.816V127.168H107.522V124.816H109.874ZM120.31 129.52C121.638 129.52 122.686 129.968 123.454 130.864C124.222 131.76 124.606 132.88 124.606 134.224V142H122.422V134.464C122.422 132.512 121.542 131.536 119.782 131.536C118.39 131.536 117.078 132.304 115.846 133.84V142H113.662V129.76H115.582L115.846 131.296V131.656H115.894C117.19 130.232 118.662 129.52 120.31 129.52ZM137.719 129.76H139.639V141.472C139.639 143.488 139.151 145.04 138.175 146.128C137.199 147.216 135.783 147.76 133.927 147.76C132.087 147.76 130.407 147.352 128.887 146.536V144.376H129.007C130.367 145.256 131.959 145.696 133.783 145.696C136.231 145.696 137.455 144.392 137.455 141.784V140.224H137.383C136.279 141.408 134.959 142 133.423 142C131.887 142 130.519 141.456 129.319 140.368C128.135 139.264 127.543 137.728 127.543 135.76C127.543 133.792 128.135 132.264 129.319 131.176C130.519 130.072 131.887 129.52 133.423 129.52C134.959 129.52 136.279 130.112 137.383 131.296H137.455L137.719 129.76ZM137.455 138.232V133.288C136.303 132.104 135.103 131.512 133.855 131.512C132.623 131.512 131.623 131.88 130.855 132.616C130.103 133.336 129.727 134.384 129.727 135.76C129.727 137.136 130.103 138.192 130.855 138.928C131.623 139.648 132.623 140.008 133.855 140.008C135.103 140.008 136.303 139.416 137.455 138.232ZM149.878 130.432C151.27 129.824 152.758 129.52 154.342 129.52C155.942 129.52 157.166 129.984 158.014 130.912C158.862 131.84 159.286 132.952 159.286 134.248V142H157.366L157.102 140.464H157.03C155.878 141.648 154.398 142.24 152.59 142.24C151.502 142.24 150.574 141.912 149.806 141.256C149.054 140.6 148.678 139.704 148.678 138.568C148.678 137.432 149.142 136.512 150.07 135.808C151.014 135.104 152.39 134.752 154.198 134.752H157.102V134.56C157.102 133.504 156.838 132.744 156.31 132.28C155.798 131.816 154.902 131.584 153.622 131.584C152.342 131.584 151.142 131.856 150.022 132.4H149.878V130.432ZM157.102 138.52V136.504H154.486C152.07 136.504 150.862 137.144 150.862 138.424C150.862 139.688 151.71 140.32 153.406 140.32C154.11 140.32 154.79 140.152 155.446 139.816C156.102 139.464 156.654 139.032 157.102 138.52ZM173.648 131.512C172.625 131.512 171.865 131.672 171.369 131.992C170.889 132.296 170.649 132.688 170.649 133.168C170.649 133.632 170.897 133.992 171.393 134.248C171.889 134.504 172.489 134.712 173.193 134.872C173.913 135.016 174.625 135.2 175.329 135.424C176.033 135.648 176.633 136.032 177.129 136.576C177.625 137.12 177.873 137.864 177.873 138.808C177.873 139.752 177.465 140.56 176.649 141.232C175.849 141.904 174.649 142.24 173.049 142.24C171.465 142.24 170.017 141.88 168.705 141.16V139.072H168.825C170.121 139.84 171.545 140.224 173.097 140.224C174.873 140.224 175.761 139.656 175.761 138.52C175.761 138.152 175.513 137.856 175.017 137.632C174.521 137.392 173.921 137.192 173.217 137.032C172.513 136.872 171.809 136.68 171.105 136.456C170.401 136.232 169.801 135.856 169.305 135.328C168.809 134.8 168.561 134.128 168.561 133.312C168.561 132.192 168.961 131.28 169.761 130.576C170.577 129.872 171.681 129.52 173.073 129.52C174.465 129.52 175.761 129.744 176.961 130.192V132.184H176.793C175.721 131.736 174.673 131.512 173.648 131.512ZM179.996 135.88C179.996 133.976 180.556 132.44 181.676 131.272C182.796 130.104 184.276 129.52 186.116 129.52C187.972 129.52 189.46 130.104 190.58 131.272C191.716 132.44 192.284 133.976 192.284 135.88C192.284 137.784 191.716 139.32 190.58 140.488C189.46 141.656 187.972 142.24 186.116 142.24C184.276 142.24 182.796 141.656 181.676 140.488C180.556 139.32 179.996 137.784 179.996 135.88ZM183.356 139.168C184.156 139.888 185.084 140.248 186.14 140.248C187.196 140.248 188.116 139.888 188.9 139.168C189.7 138.432 190.1 137.336 190.1 135.88C190.1 134.408 189.7 133.312 188.9 132.592C188.116 131.872 187.196 131.512 186.14 131.512C185.084 131.512 184.156 131.872 183.356 132.592C182.572 133.312 182.18 134.408 182.18 135.88C182.18 137.336 182.572 138.432 183.356 139.168ZM199.541 142.24C198.213 142.24 197.165 141.792 196.397 140.896C195.629 140 195.245 138.88 195.245 137.536V129.76H197.429V137.296C197.429 139.248 198.309 140.224 200.069 140.224C201.461 140.224 202.773 139.456 204.005 137.92V129.76H206.189V142H204.269L204.005 140.464V140.104H203.957C202.661 141.528 201.189 142.24 199.541 142.24ZM216.638 129.52C217.966 129.52 219.014 129.968 219.782 130.864C220.55 131.76 220.934 132.88 220.934 134.224V142H218.75V134.464C218.75 132.512 217.87 131.536 216.11 131.536C214.718 131.536 213.406 132.304 212.174 133.84V142H209.99V129.76H211.91L212.174 131.296V131.656H212.222C213.518 130.232 214.99 129.52 216.638 129.52ZM225.599 131.248C226.767 130.096 228.127 129.52 229.679 129.52C231.231 129.52 232.575 130.112 233.711 131.296H233.783V124.48H235.967V142H234.047L233.783 140.464H233.711C232.575 141.648 231.231 142.24 229.679 142.24C228.127 142.24 226.767 141.664 225.599 140.512C224.447 139.36 223.871 137.816 223.871 135.88C223.871 133.944 224.447 132.4 225.599 131.248ZM229.991 140.2C231.431 140.2 232.695 139.6 233.783 138.4V133.36C232.695 132.16 231.431 131.56 229.991 131.56C228.807 131.56 227.855 131.936 227.135 132.688C226.415 133.44 226.055 134.504 226.055 135.88C226.055 137.256 226.415 138.32 227.135 139.072C227.855 139.824 228.807 140.2 229.991 140.2ZM252.638 129.52C253.966 129.52 255.014 129.968 255.782 130.864C256.55 131.76 256.934 132.88 256.934 134.224V142H254.75V134.464C254.75 132.512 253.87 131.536 252.11 131.536C250.718 131.536 249.406 132.304 248.174 133.84V142H245.99V129.76H247.91L248.174 131.296V131.656H248.222C249.518 130.232 250.99 129.52 252.638 129.52ZM264.815 142.24C263.487 142.24 262.439 141.792 261.671 140.896C260.903 140 260.519 138.88 260.519 137.536V129.76H262.703V137.296C262.703 139.248 263.583 140.224 265.343 140.224C266.735 140.224 268.047 139.456 269.279 137.92V129.76H271.463V142H269.543L269.279 140.464V140.104H269.231C267.935 141.528 266.463 142.24 264.815 142.24ZM289.615 129.52C290.927 129.52 291.919 129.984 292.591 130.912C293.279 131.84 293.623 132.912 293.623 134.128V142H291.439V134.56C291.439 133.52 291.247 132.76 290.863 132.28C290.495 131.784 289.871 131.536 288.991 131.536C287.615 131.536 286.463 132.304 285.535 133.84V142H283.351V134.56C283.351 133.52 283.167 132.76 282.799 132.28C282.431 131.784 281.799 131.536 280.903 131.536C279.527 131.536 278.375 132.304 277.447 133.84V142H275.263V129.76H277.183L277.447 131.296V131.656H277.495C278.519 130.232 279.863 129.52 281.527 129.52C282.423 129.52 283.183 129.752 283.807 130.216C284.447 130.68 284.903 131.256 285.175 131.944H285.247C286.223 130.328 287.679 129.52 289.615 129.52ZM299.574 131.296C300.71 130.112 302.054 129.52 303.606 129.52C305.158 129.52 306.51 130.096 307.662 131.248C308.83 132.4 309.414 133.944 309.414 135.88C309.414 137.816 308.83 139.36 307.662 140.512C306.51 141.664 305.158 142.24 303.606 142.24C302.054 142.24 300.71 141.648 299.574 140.464H299.502L299.238 142H297.318V124.48H299.502V131.296H299.574ZM303.294 140.2C304.478 140.2 305.43 139.824 306.15 139.072C306.87 138.32 307.23 137.256 307.23 135.88C307.23 134.504 306.87 133.44 306.15 132.688C305.43 131.936 304.478 131.56 303.294 131.56C301.854 131.56 300.59 132.16 299.502 133.36V138.4C300.59 139.6 301.854 140.2 303.294 140.2ZM323.211 135.88V136.648H313.947C314.075 137.768 314.491 138.64 315.195 139.264C315.899 139.888 316.963 140.2 318.387 140.2C319.827 140.2 321.155 139.8 322.371 139H322.491V141.112C321.147 141.864 319.563 142.24 317.739 142.24C315.931 142.24 314.475 141.688 313.371 140.584C312.283 139.464 311.739 137.96 311.739 136.072C311.739 134.168 312.227 132.6 313.203 131.368C314.179 130.136 315.603 129.52 317.475 129.52C319.347 129.52 320.771 130.136 321.747 131.368C322.723 132.6 323.211 134.104 323.211 135.88ZM313.947 134.872H321.027C320.963 133.72 320.571 132.848 319.851 132.256C319.147 131.664 318.355 131.368 317.475 131.368C316.595 131.368 315.803 131.664 315.099 132.256C314.395 132.848 314.011 133.72 313.947 134.872ZM332.89 129.52H333.082V131.608H332.89C331.946 131.608 331.066 131.792 330.25 132.16C329.434 132.528 328.794 133.04 328.33 133.696V142H326.146V129.76H328.066L328.33 131.296V131.656H328.378C329.53 130.232 331.034 129.52 332.89 129.52ZM340.918 135.88C340.918 133.976 341.478 132.44 342.598 131.272C343.718 130.104 345.198 129.52 347.038 129.52C348.894 129.52 350.382 130.104 351.502 131.272C352.638 132.44 353.206 133.976 353.206 135.88C353.206 137.784 352.638 139.32 351.502 140.488C350.382 141.656 348.894 142.24 347.038 142.24C345.198 142.24 343.718 141.656 342.598 140.488C341.478 139.32 340.918 137.784 340.918 135.88ZM344.278 139.168C345.078 139.888 346.006 140.248 347.062 140.248C348.118 140.248 349.038 139.888 349.822 139.168C350.622 138.432 351.022 137.336 351.022 135.88C351.022 134.408 350.622 133.312 349.822 132.592C349.038 131.872 348.118 131.512 347.062 131.512C346.006 131.512 345.078 131.872 344.278 132.592C343.494 133.312 343.102 134.408 343.102 135.88C343.102 137.336 343.494 138.432 344.278 139.168ZM362.935 126.64C362.343 126.432 361.759 126.328 361.183 126.328C360.623 126.328 360.175 126.48 359.839 126.784C359.519 127.088 359.359 127.64 359.359 128.44V129.76H363.103V131.632H359.359V142H357.175V131.632H354.943V129.76H357.175V128.368C357.175 126.976 357.527 125.944 358.231 125.272C358.951 124.584 359.759 124.24 360.655 124.24C361.567 124.24 362.383 124.44 363.103 124.84V126.64H362.935ZM129.228 163.76C128.044 162.96 126.756 162.56 125.364 162.56C123.988 162.56 122.908 162.96 122.124 163.76C121.34 164.544 120.948 165.584 120.948 166.88C120.948 168.176 121.34 169.224 122.124 170.024C122.908 170.808 123.988 171.2 125.364 171.2C126.756 171.2 128.044 170.8 129.228 170H129.324V172.064C127.996 172.848 126.612 173.24 125.172 173.24C123.396 173.24 121.884 172.664 120.636 171.512C119.388 170.36 118.764 168.816 118.764 166.88C118.764 164.944 119.388 163.4 120.636 162.248C121.884 161.096 123.396 160.52 125.172 160.52C126.612 160.52 127.996 160.912 129.324 161.696V163.76H129.228ZM131.679 166.88C131.679 164.976 132.239 163.44 133.359 162.272C134.479 161.104 135.959 160.52 137.799 160.52C139.655 160.52 141.143 161.104 142.263 162.272C143.399 163.44 143.967 164.976 143.967 166.88C143.967 168.784 143.399 170.32 142.263 171.488C141.143 172.656 139.655 173.24 137.799 173.24C135.959 173.24 134.479 172.656 133.359 171.488C132.239 170.32 131.679 168.784 131.679 166.88ZM135.039 170.168C135.839 170.888 136.767 171.248 137.823 171.248C138.879 171.248 139.799 170.888 140.583 170.168C141.383 169.432 141.783 168.336 141.783 166.88C141.783 165.408 141.383 164.312 140.583 163.592C139.799 162.872 138.879 162.512 137.823 162.512C136.767 162.512 135.839 162.872 135.039 163.592C134.255 164.312 133.863 165.408 133.863 166.88C133.863 168.336 134.255 169.432 135.039 170.168ZM149.401 155.48V173H147.217V155.48H149.401ZM155.752 155.48V173H153.568V155.48H155.752ZM159.944 161.432C161.336 160.824 162.824 160.52 164.408 160.52C166.008 160.52 167.232 160.984 168.08 161.912C168.928 162.84 169.352 163.952 169.352 165.248V173H167.432L167.168 171.464H167.096C165.944 172.648 164.464 173.24 162.656 173.24C161.568 173.24 160.64 172.912 159.872 172.256C159.12 171.6 158.744 170.704 158.744 169.568C158.744 168.432 159.208 167.512 160.136 166.808C161.08 166.104 162.456 165.752 164.264 165.752H167.168V165.56C167.168 164.504 166.904 163.744 166.376 163.28C165.864 162.816 164.968 162.584 163.688 162.584C162.408 162.584 161.208 162.856 160.088 163.4H159.944V161.432ZM167.168 169.52V167.504H164.552C162.136 167.504 160.928 168.144 160.928 169.424C160.928 170.688 161.776 171.32 163.472 171.32C164.176 171.32 164.856 171.152 165.512 170.816C166.168 170.464 166.72 170.032 167.168 169.52ZM175.297 162.296C176.433 161.112 177.777 160.52 179.329 160.52C180.881 160.52 182.233 161.096 183.385 162.248C184.553 163.4 185.137 164.944 185.137 166.88C185.137 168.816 184.553 170.36 183.385 171.512C182.233 172.664 180.881 173.24 179.329 173.24C177.777 173.24 176.433 172.648 175.297 171.464H175.225L174.961 173H173.041V155.48H175.225V162.296H175.297ZM179.017 171.2C180.201 171.2 181.153 170.824 181.873 170.072C182.593 169.32 182.953 168.256 182.953 166.88C182.953 165.504 182.593 164.44 181.873 163.688C181.153 162.936 180.201 162.56 179.017 162.56C177.577 162.56 176.313 163.16 175.225 164.36V169.4C176.313 170.6 177.577 171.2 179.017 171.2ZM187.437 166.88C187.437 164.976 187.997 163.44 189.117 162.272C190.237 161.104 191.717 160.52 193.557 160.52C195.413 160.52 196.901 161.104 198.021 162.272C199.157 163.44 199.725 164.976 199.725 166.88C199.725 168.784 199.157 170.32 198.021 171.488C196.901 172.656 195.413 173.24 193.557 173.24C191.717 173.24 190.237 172.656 189.117 171.488C187.997 170.32 187.437 168.784 187.437 166.88ZM190.797 170.168C191.597 170.888 192.525 171.248 193.581 171.248C194.637 171.248 195.557 170.888 196.341 170.168C197.141 169.432 197.541 168.336 197.541 166.88C197.541 165.408 197.141 164.312 196.341 163.592C195.557 162.872 194.637 162.512 193.581 162.512C192.525 162.512 191.597 162.872 190.797 163.592C190.013 164.312 189.621 165.408 189.621 166.88C189.621 168.336 190.013 169.432 190.797 170.168ZM209.527 160.52H209.719V162.608H209.527C208.583 162.608 207.703 162.792 206.887 163.16C206.071 163.528 205.431 164.04 204.967 164.696V173H202.783V160.76H204.703L204.967 162.296V162.656H205.015C206.167 161.232 207.671 160.52 209.527 160.52ZM212.28 161.432C213.672 160.824 215.16 160.52 216.744 160.52C218.344 160.52 219.568 160.984 220.416 161.912C221.264 162.84 221.688 163.952 221.688 165.248V173H219.768L219.504 171.464H219.432C218.28 172.648 216.8 173.24 214.992 173.24C213.904 173.24 212.976 172.912 212.208 172.256C211.456 171.6 211.08 170.704 211.08 169.568C211.08 168.432 211.544 167.512 212.472 166.808C213.416 166.104 214.792 165.752 216.6 165.752H219.504V165.56C219.504 164.504 219.24 163.744 218.712 163.28C218.2 162.816 217.304 162.584 216.024 162.584C214.744 162.584 213.544 162.856 212.424 163.4H212.28V161.432ZM219.504 169.52V167.504H216.888C214.472 167.504 213.264 168.144 213.264 169.424C213.264 170.688 214.112 171.32 215.808 171.32C216.512 171.32 217.192 171.152 217.848 170.816C218.504 170.464 219.056 170.032 219.504 169.52ZM231.832 162.632H228.352V169.88C228.352 170.552 228.536 170.968 228.904 171.128C229.208 171.256 229.6 171.32 230.08 171.32C230.56 171.32 231.088 171.192 231.664 170.936H231.832V172.712C231.16 173.064 230.44 173.24 229.672 173.24C227.336 173.24 226.168 172.184 226.168 170.072V162.632H223.888V162.488L228.352 158.12V160.76H231.832V162.632ZM233.843 166.88C233.843 164.976 234.403 163.44 235.523 162.272C236.643 161.104 238.123 160.52 239.963 160.52C241.819 160.52 243.307 161.104 244.427 162.272C245.563 163.44 246.131 164.976 246.131 166.88C246.131 168.784 245.563 170.32 244.427 171.488C243.307 172.656 241.819 173.24 239.963 173.24C238.123 173.24 236.643 172.656 235.523 171.488C234.403 170.32 233.843 168.784 233.843 166.88ZM237.203 170.168C238.003 170.888 238.931 171.248 239.987 171.248C241.043 171.248 241.963 170.888 242.747 170.168C243.547 169.432 243.947 168.336 243.947 166.88C243.947 165.408 243.547 164.312 242.747 163.592C241.963 162.872 241.043 162.512 239.987 162.512C238.931 162.512 238.003 162.872 237.203 163.592C236.419 164.312 236.027 165.408 236.027 166.88C236.027 168.336 236.419 169.432 237.203 170.168ZM255.933 160.52H256.125V162.608H255.933C254.989 162.608 254.109 162.792 253.293 163.16C252.477 163.528 251.837 164.04 251.373 164.696V173H249.189V160.76H251.109L251.373 162.296V162.656H251.421C252.573 161.232 254.077 160.52 255.933 160.52ZM262.91 162.512C261.886 162.512 261.126 162.672 260.63 162.992C260.15 163.296 259.91 163.688 259.91 164.168C259.91 164.632 260.158 164.992 260.654 165.248C261.15 165.504 261.75 165.712 262.454 165.872C263.174 166.016 263.886 166.2 264.59 166.424C265.294 166.648 265.894 167.032 266.39 167.576C266.886 168.12 267.134 168.864 267.134 169.808C267.134 170.752 266.726 171.56 265.91 172.232C265.11 172.904 263.91 173.24 262.31 173.24C260.726 173.24 259.278 172.88 257.966 172.16V170.072H258.086C259.382 170.84 260.806 171.224 262.358 171.224C264.134 171.224 265.022 170.656 265.022 169.52C265.022 169.152 264.774 168.856 264.278 168.632C263.782 168.392 263.182 168.192 262.478 168.032C261.774 167.872 261.07 167.68 260.366 167.456C259.662 167.232 259.062 166.856 258.566 166.328C258.07 165.8 257.822 165.128 257.822 164.312C257.822 163.192 258.222 162.28 259.022 161.576C259.838 160.872 260.942 160.52 262.334 160.52C263.726 160.52 265.022 160.744 266.222 161.192V163.184H266.054C264.982 162.736 263.934 162.512 262.91 162.512ZM269.881 173V170.312H272.569V173H269.881Z" fill="#C5C4C4"/>
</svg>
