<svg width="274" height="246" viewBox="0 0 274 246" fill="none" xmlns="http://www.w3.org/2000/svg">
<g clip-path="url(#clip0)">
<path d="M257.961 38.7458C236.951 9.33899 192.403 -6.91747 141.609 2.83245C90.5531 11.5986 47.119 42.2355 23.4978 70.8984C-0.810456 100.322 -5.30579 127.772 5.6337 147.739C16.6535 168.185 39.627 182.244 61.0336 198.352C83.0464 213.692 103.494 231.08 123.427 240.463C143.627 249.988 162.824 247.349 187.306 231.558C210.913 215.942 239.806 187.172 259.129 148.513C278.369 110.337 279.933 67.9664 257.961 38.7458Z" fill="#EBF3FA"/>
<path d="M234.994 16.0373H132.483V70.2863H234.994V16.0373Z" fill="white"/>
<path d="M234.994 8.99953H132.483V16.059H234.994V8.99953Z" fill="#3FBDED"/>
<path d="M144.718 13.1574H147.029C147.078 13.1589 147.126 13.1507 147.171 13.1333C147.216 13.1159 147.257 13.0898 147.292 13.0563C147.327 13.0229 147.354 12.9829 147.373 12.9387C147.392 12.8945 147.402 12.8469 147.402 12.7989C147.402 12.7509 147.392 12.7034 147.373 12.6592C147.354 12.615 147.327 12.5749 147.292 12.5415C147.257 12.5081 147.216 12.4819 147.171 12.4645C147.126 12.4472 147.078 12.439 147.029 12.4404H144.718C144.624 12.4432 144.535 12.4822 144.47 12.5491C144.404 12.6161 144.368 12.7057 144.368 12.7989C144.368 12.8922 144.404 12.9818 144.47 13.0487C144.535 13.1156 144.624 13.1546 144.718 13.1574Z" fill="white"/>
<path d="M136.635 14.0602C136.683 14.0604 136.73 14.0512 136.774 14.0332C136.818 14.0151 136.858 13.9887 136.891 13.9553L138.712 12.1496C138.78 12.0822 138.818 11.9909 138.818 11.8957C138.818 11.8005 138.78 11.7093 138.712 11.642C138.644 11.5747 138.552 11.537 138.456 11.537C138.36 11.5371 138.268 11.575 138.2 11.6423L136.379 13.448C136.328 13.4982 136.294 13.5622 136.28 13.6318C136.266 13.7014 136.273 13.7735 136.301 13.839C136.328 13.9046 136.375 13.9606 136.434 13.9999C136.494 14.0393 136.564 14.0603 136.635 14.0602H136.635Z" fill="white"/>
<path d="M138.455 14.06C138.527 14.0601 138.597 14.0391 138.656 13.9997C138.716 13.9603 138.762 13.9044 138.79 13.8388C138.817 13.7733 138.824 13.7012 138.811 13.6316C138.797 13.562 138.762 13.498 138.712 13.4478L136.89 11.6421C136.857 11.6076 136.817 11.58 136.773 11.5609C136.729 11.5419 136.681 11.5318 136.633 11.5313C136.585 11.5307 136.537 11.5397 136.492 11.5578C136.448 11.5758 136.407 11.6025 136.373 11.6362C136.339 11.67 136.312 11.7102 136.294 11.7545C136.276 11.7987 136.266 11.8461 136.267 11.8939C136.267 11.9417 136.277 11.9889 136.297 12.0328C136.316 12.0766 136.344 12.1163 136.378 12.1494L138.199 13.9551C138.233 13.9885 138.273 14.015 138.317 14.033C138.361 14.051 138.408 14.0602 138.455 14.06Z" fill="white"/>
<path d="M140.833 13.9046H142.341C142.389 13.9046 142.436 13.8954 142.48 13.8774C142.524 13.8594 142.564 13.833 142.597 13.7996C142.631 13.7663 142.657 13.7268 142.676 13.6832C142.694 13.6397 142.703 13.593 142.703 13.5459V12.051C142.703 12.0038 142.694 11.957 142.676 11.9134C142.658 11.8698 142.631 11.8301 142.597 11.7967C142.564 11.7633 142.524 11.7368 142.48 11.7187C142.436 11.7006 142.389 11.6913 142.341 11.6913H140.833C140.738 11.6913 140.646 11.7291 140.578 11.7964C140.51 11.8636 140.472 11.9549 140.472 12.05V13.5462C140.472 13.5933 140.481 13.64 140.499 13.6835C140.518 13.727 140.544 13.7665 140.578 13.7998C140.611 13.833 140.651 13.8594 140.695 13.8774C140.739 13.8954 140.786 13.9046 140.833 13.9046ZM141.98 13.1876H141.196V12.4106H141.98V13.1876Z" fill="white"/>
<path d="M230.034 12.7984C230.034 12.9926 230.093 13.1824 230.201 13.3439C230.31 13.5053 230.465 13.6312 230.646 13.7055C230.826 13.7798 231.026 13.7993 231.218 13.7614C231.41 13.7236 231.586 13.6301 231.725 13.4928C231.863 13.3555 231.957 13.1806 231.996 12.9902C232.034 12.7997 232.014 12.6023 231.939 12.4229C231.864 12.2435 231.738 12.0901 231.575 11.9822C231.412 11.8743 231.221 11.8166 231.025 11.8166C230.895 11.8165 230.766 11.8419 230.646 11.8912C230.526 11.9405 230.417 12.0129 230.325 12.104C230.233 12.1952 230.16 12.3035 230.11 12.4226C230.06 12.5418 230.034 12.6695 230.034 12.7984Z" fill="white"/>
<path d="M227.37 13.7803C227.917 13.7803 228.36 13.3407 228.36 12.7984C228.36 12.2562 227.917 11.8166 227.37 11.8166C226.823 11.8166 226.38 12.2562 226.38 12.7984C226.38 13.3407 226.823 13.7803 227.37 13.7803Z" fill="white"/>
<path d="M222.726 12.7984C222.726 12.9926 222.784 13.1825 222.892 13.3439C223.001 13.5054 223.156 13.6312 223.337 13.7055C223.518 13.7799 223.717 13.7993 223.909 13.7614C224.101 13.7235 224.277 13.63 224.416 13.4927C224.554 13.3554 224.648 13.1804 224.687 12.99C224.725 12.7995 224.705 12.6021 224.63 12.4227C224.555 12.2433 224.429 12.0899 224.266 11.982C224.103 11.8742 223.911 11.8166 223.716 11.8166C223.453 11.8166 223.201 11.92 223.016 12.1042C222.83 12.2883 222.726 12.538 222.726 12.7984Z" fill="white"/>
<path d="M227.585 23.3088H205.165V45.5419H227.585V23.3088Z" fill="#3FBDED"/>
<path d="M199.38 23.3088H140.8V63.1133H199.38V23.3088Z" fill="#B4EAFF"/>
<path d="M145.862 29.0465H194.678C194.726 29.0479 194.775 29.0397 194.82 29.0223C194.865 29.005 194.906 28.9788 194.941 28.9454C194.975 28.9119 195.003 28.8719 195.022 28.8277C195.041 28.7835 195.051 28.736 195.051 28.6879C195.051 28.6399 195.041 28.5924 195.022 28.5482C195.003 28.504 194.975 28.464 194.941 28.4305C194.906 28.3971 194.865 28.3709 194.82 28.3535C194.775 28.3362 194.726 28.328 194.678 28.3294H145.862C145.768 28.3322 145.679 28.3712 145.614 28.4382C145.548 28.5051 145.511 28.5947 145.511 28.6879C145.511 28.7812 145.548 28.8708 145.614 28.9377C145.679 29.0047 145.768 29.0437 145.862 29.0465Z" fill="white"/>
<path d="M145.862 33.196H194.678C194.726 33.1974 194.775 33.1892 194.82 33.1718C194.865 33.1545 194.906 33.1283 194.941 33.0948C194.975 33.0614 195.003 33.0214 195.022 32.9772C195.041 32.933 195.051 32.8854 195.051 32.8374C195.051 32.7894 195.041 32.7419 195.022 32.6977C195.003 32.6535 194.975 32.6135 194.941 32.58C194.906 32.5466 194.865 32.5204 194.82 32.503C194.775 32.4857 194.726 32.4775 194.678 32.4789H145.862C145.768 32.4817 145.679 32.5207 145.614 32.5876C145.548 32.6546 145.511 32.7442 145.511 32.8374C145.511 32.9307 145.548 33.0203 145.614 33.0872C145.679 33.1542 145.768 33.1932 145.862 33.196Z" fill="white"/>
<path d="M145.862 37.3455H194.678C194.726 37.3469 194.775 37.3387 194.82 37.3213C194.865 37.304 194.906 37.2778 194.941 37.2444C194.975 37.2109 195.003 37.1709 195.022 37.1267C195.041 37.0825 195.051 37.035 195.051 36.9869C195.051 36.9389 195.041 36.8914 195.022 36.8472C195.003 36.803 194.975 36.763 194.941 36.7295C194.906 36.6961 194.865 36.6699 194.82 36.6525C194.775 36.6352 194.726 36.627 194.678 36.6284H145.862C145.768 36.6312 145.679 36.6702 145.614 36.7371C145.548 36.8041 145.511 36.8937 145.511 36.9869C145.511 37.0802 145.548 37.1698 145.614 37.2367C145.679 37.3037 145.768 37.3427 145.862 37.3455Z" fill="white"/>
<path d="M145.862 45.6448H194.678C194.726 45.6462 194.775 45.638 194.82 45.6206C194.865 45.6033 194.906 45.5771 194.941 45.5437C194.975 45.5102 195.003 45.4702 195.022 45.426C195.041 45.3818 195.051 45.3343 195.051 45.2863C195.051 45.2382 195.041 45.1907 195.022 45.1465C195.003 45.1023 194.975 45.0623 194.941 45.0288C194.906 44.9954 194.865 44.9692 194.82 44.9519C194.775 44.9345 194.726 44.9263 194.678 44.9277H145.862C145.768 44.9305 145.679 44.9695 145.614 45.0365C145.548 45.1034 145.511 45.193 145.511 45.2863C145.511 45.3795 145.548 45.4691 145.614 45.536C145.679 45.603 145.768 45.642 145.862 45.6448Z" fill="white"/>
<path d="M145.862 41.4946H194.678C194.726 41.4961 194.775 41.4879 194.82 41.4705C194.865 41.4531 194.906 41.427 194.941 41.3935C194.975 41.3601 195.003 41.3201 195.022 41.2759C195.041 41.2316 195.051 41.1841 195.051 41.1361C195.051 41.0881 195.041 41.0406 195.022 40.9964C195.003 40.9521 194.975 40.9121 194.941 40.8787C194.906 40.8453 194.865 40.8191 194.82 40.8017C194.775 40.7843 194.726 40.7761 194.678 40.7776H145.862C145.768 40.7804 145.679 40.8194 145.614 40.8863C145.548 40.9532 145.511 41.0428 145.511 41.1361C145.511 41.2294 145.548 41.319 145.614 41.3859C145.679 41.4528 145.768 41.4918 145.862 41.4946Z" fill="white"/>
<path d="M145.862 49.7943H194.678C194.726 49.7957 194.775 49.7875 194.82 49.7701C194.865 49.7528 194.906 49.7266 194.941 49.6932C194.975 49.6597 195.003 49.6197 195.022 49.5755C195.041 49.5313 195.051 49.4838 195.051 49.4358C195.051 49.3877 195.041 49.3402 195.022 49.296C195.003 49.2518 194.975 49.2118 194.941 49.1783C194.906 49.1449 194.865 49.1187 194.82 49.1014C194.775 49.084 194.726 49.0758 194.678 49.0772H145.862C145.768 49.08 145.679 49.119 145.614 49.186C145.548 49.2529 145.511 49.3425 145.511 49.4358C145.511 49.529 145.548 49.6186 145.614 49.6855C145.679 49.7525 145.768 49.7915 145.862 49.7943Z" fill="white"/>
<path d="M145.862 53.9438H194.678C194.726 53.9452 194.775 53.937 194.82 53.9196C194.865 53.9023 194.906 53.8761 194.941 53.8427C194.975 53.8092 195.003 53.7692 195.022 53.725C195.041 53.6808 195.051 53.6333 195.051 53.5853C195.051 53.5372 195.041 53.4897 195.022 53.4455C195.003 53.4013 194.975 53.3613 194.941 53.3278C194.906 53.2944 194.865 53.2682 194.82 53.2509C194.775 53.2335 194.726 53.2253 194.678 53.2267H145.862C145.768 53.2295 145.679 53.2685 145.614 53.3355C145.548 53.4024 145.511 53.492 145.511 53.5853C145.511 53.6785 145.548 53.7681 145.614 53.835C145.679 53.902 145.768 53.941 145.862 53.9438Z" fill="white"/>
<path d="M145.862 58.093H194.678C194.726 58.0944 194.775 58.0862 194.82 58.0688C194.865 58.0515 194.906 58.0253 194.941 57.9918C194.975 57.9584 195.003 57.9184 195.022 57.8742C195.041 57.83 195.051 57.7824 195.051 57.7344C195.051 57.6864 195.041 57.6389 195.022 57.5947C195.003 57.5505 194.975 57.5105 194.941 57.477C194.906 57.4436 194.865 57.4174 194.82 57.4C194.775 57.3827 194.726 57.3745 194.678 57.3759H145.862C145.768 57.3787 145.679 57.4177 145.614 57.4846C145.548 57.5516 145.511 57.6412 145.511 57.7344C145.511 57.8277 145.548 57.9173 145.614 57.9842C145.679 58.0512 145.768 58.0901 145.862 58.093Z" fill="white"/>
<path d="M151.896 80.3264H26.5336V131.248H151.896V80.3264Z" fill="white"/>
<path d="M151.896 56.3002H26.5336V64.9329H151.896V56.3002Z" fill="#3FBDED"/>
<path d="M41.4971 61.3046H44.3224C44.3707 61.3061 44.4189 61.2979 44.4641 61.2805C44.5092 61.2631 44.5504 61.237 44.5851 61.2035C44.6198 61.1701 44.6475 61.1301 44.6663 61.0859C44.6852 61.0416 44.6949 60.9941 44.6949 60.9461C44.6949 60.8981 44.6852 60.8506 44.6663 60.8064C44.6475 60.7621 44.6198 60.7221 44.5851 60.6887C44.5504 60.6553 44.5092 60.6291 44.4641 60.6117C44.4189 60.5943 44.3707 60.5861 44.3224 60.5876H41.4971C41.4487 60.5861 41.4005 60.5943 41.3554 60.6117C41.3102 60.6291 41.2691 60.6553 41.2343 60.6887C41.1996 60.7221 41.172 60.7621 41.1531 60.8064C41.1342 60.8506 41.1245 60.8981 41.1245 60.9461C41.1245 60.9941 41.1342 61.0416 41.1531 61.0859C41.172 61.1301 41.1996 61.1701 41.2343 61.2035C41.2691 61.237 41.3102 61.2631 41.3554 61.2805C41.4005 61.2979 41.4487 61.3061 41.4971 61.3046Z" fill="white"/>
<path d="M31.61 62.409C31.6576 62.4091 31.7047 62.3999 31.7487 62.3819C31.7926 62.3639 31.8326 62.3375 31.8662 62.3041L34.0925 60.0957C34.1604 60.0284 34.1985 59.9372 34.1985 59.842C34.1985 59.7469 34.1604 59.6557 34.0925 59.5884C34.0247 59.5211 33.9327 59.4833 33.8368 59.4833C33.7408 59.4833 33.6488 59.5211 33.581 59.5884L31.3541 61.7975C31.3036 61.8476 31.2693 61.9115 31.2554 61.9809C31.2415 62.0504 31.2487 62.1224 31.276 62.1879C31.3034 62.2533 31.3497 62.3092 31.409 62.3486C31.4684 62.3879 31.5382 62.409 31.6097 62.409H31.61Z" fill="white"/>
<path d="M33.8384 62.4085C33.9098 62.4085 33.9796 62.3875 34.039 62.3481C34.0984 62.3088 34.1447 62.2528 34.172 62.1874C34.1994 62.122 34.2066 62.05 34.1927 61.9805C34.1788 61.911 34.1445 61.8472 34.094 61.797L31.8677 59.5879C31.8341 59.5546 31.7942 59.5281 31.7503 59.51C31.7064 59.492 31.6594 59.4827 31.6119 59.4826C31.5643 59.4826 31.5173 59.4919 31.4733 59.5099C31.4294 59.5279 31.3895 59.5543 31.3559 59.5876C31.3222 59.6209 31.2956 59.6605 31.2773 59.704C31.2591 59.7475 31.2497 59.7942 31.2497 59.8413C31.2497 59.8885 31.259 59.9351 31.2772 59.9787C31.2953 60.0223 31.322 60.0619 31.3555 60.0952L33.5825 62.3036C33.616 62.3371 33.6559 62.3635 33.6998 62.3815C33.7438 62.3995 33.7909 62.4087 33.8384 62.4085Z" fill="white"/>
<path d="M36.7452 62.2188H38.5895C38.637 62.2189 38.6841 62.2096 38.728 62.1916C38.7719 62.1736 38.8118 62.1472 38.8454 62.1139C38.879 62.0806 38.9056 62.041 38.9238 61.9975C38.9419 61.9539 38.9513 61.9073 38.9512 61.8602V60.0314C38.9512 59.9363 38.9131 59.8451 38.8453 59.7778C38.7775 59.7105 38.6855 59.6727 38.5895 59.6727H36.7452C36.6493 59.6728 36.5573 59.7106 36.4895 59.7779C36.4217 59.8451 36.3836 59.9363 36.3835 60.0314V61.8602C36.3835 61.9553 36.4216 62.0465 36.4894 62.1138C36.5573 62.181 36.6492 62.2188 36.7452 62.2188ZM38.2282 61.5018H37.1072V60.3904H38.2285L38.2282 61.5018Z" fill="white"/>
<path d="M145.831 60.9463C145.831 61.1838 145.902 61.416 146.035 61.6135C146.168 61.811 146.357 61.965 146.578 62.0559C146.799 62.1468 147.043 62.1706 147.278 62.1242C147.513 62.0779 147.729 61.9635 147.898 61.7955C148.067 61.6276 148.183 61.4136 148.229 61.1806C148.276 60.9476 148.252 60.7061 148.161 60.4867C148.069 60.2672 147.914 60.0796 147.714 59.9477C147.515 59.8157 147.281 59.7453 147.042 59.7453C146.883 59.7452 146.725 59.7763 146.578 59.8366C146.431 59.8969 146.298 59.9854 146.185 60.0969C146.073 60.2085 145.984 60.3409 145.923 60.4866C145.862 60.6324 145.831 60.7886 145.831 60.9463Z" fill="white"/>
<path d="M141.362 60.9463C141.362 61.1837 141.433 61.4158 141.566 61.6132C141.699 61.8106 141.888 61.9645 142.11 62.0553C142.331 62.1461 142.574 62.1699 142.809 62.1236C143.044 62.0772 143.26 61.9629 143.429 61.795C143.598 61.6271 143.713 61.4132 143.76 61.1803C143.807 60.9474 143.783 60.706 143.691 60.4866C143.6 60.2672 143.445 60.0797 143.246 59.9478C143.047 59.8158 142.812 59.7453 142.573 59.7453C142.414 59.7452 142.256 59.7763 142.11 59.8366C141.963 59.8969 141.829 59.9854 141.717 60.0969C141.604 60.2085 141.515 60.3409 141.454 60.4866C141.393 60.6324 141.362 60.7886 141.362 60.9463Z" fill="white"/>
<path d="M136.892 60.9463C136.892 61.1838 136.963 61.416 137.097 61.6135C137.23 61.811 137.419 61.965 137.64 62.0559C137.861 62.1468 138.105 62.1706 138.34 62.1242C138.575 62.0779 138.79 61.9635 138.96 61.7955C139.129 61.6276 139.245 61.4136 139.291 61.1806C139.338 60.9476 139.314 60.7061 139.222 60.4867C139.131 60.2672 138.975 60.0796 138.776 59.9477C138.577 59.8157 138.343 59.7453 138.104 59.7453C137.944 59.7452 137.787 59.7763 137.64 59.8366C137.493 59.8969 137.36 59.9854 137.247 60.0969C137.135 60.2085 137.045 60.3409 136.985 60.4866C136.924 60.6324 136.892 60.7886 136.892 60.9463Z" fill="white"/>
<path d="M151.896 64.9333H26.5336V80.3267H151.896V64.9333Z" fill="#B4EAFF"/>
<path d="M142.317 70.2857H59.8711V74.9477H142.317V70.2857Z" fill="white"/>
<path d="M59.8711 70.2857H36.3668V74.9477H59.8711V70.2857Z" fill="#3FBDED"/>
<path d="M141.955 86.064H73.6118V125.868H141.955V86.064Z" fill="#B4EAFF"/>
<path d="M68.3685 86.064H36.1859V97.6993H68.3685V86.064Z" fill="#3FBDED"/>
<path d="M39.802 89.1783H64.7514C64.8454 89.1755 64.9346 89.1364 65.0001 89.0695C65.0656 89.0026 65.1022 88.913 65.1022 88.8197C65.1022 88.7265 65.0656 88.6369 65.0001 88.5699C64.9346 88.503 64.8454 88.464 64.7514 88.4612H39.802C39.708 88.464 39.6188 88.503 39.5533 88.5699C39.4878 88.6369 39.4512 88.7265 39.4512 88.8197C39.4512 88.913 39.4878 89.0026 39.5533 89.0695C39.6188 89.1364 39.708 89.1755 39.802 89.1783Z" fill="white"/>
<path d="M39.8021 92.3167H64.7515C64.8455 92.3139 64.9347 92.2749 65.0002 92.208C65.0657 92.1411 65.1024 92.0515 65.1024 91.9582C65.1024 91.865 65.0657 91.7754 65.0002 91.7084C64.9347 91.6415 64.8455 91.6025 64.7515 91.5997H39.8021C39.7537 91.5983 39.7055 91.6065 39.6604 91.6238C39.6153 91.6412 39.5741 91.6674 39.5394 91.7008C39.5046 91.7343 39.477 91.7743 39.4581 91.8185C39.4393 91.8627 39.4296 91.9102 39.4296 91.9582C39.4296 92.0062 39.4393 92.0538 39.4581 92.098C39.477 92.1422 39.5046 92.1822 39.5394 92.2156C39.5741 92.2491 39.6153 92.2752 39.6604 92.2926C39.7055 92.31 39.7537 92.3182 39.8021 92.3167Z" fill="white"/>
<path d="M39.8021 95.4553H64.7515C64.8455 95.4525 64.9347 95.4135 65.0002 95.3465C65.0657 95.2796 65.1024 95.19 65.1024 95.0967C65.1024 95.0035 65.0657 94.9139 65.0002 94.8469C64.9347 94.78 64.8455 94.741 64.7515 94.7382H39.8021C39.7537 94.7368 39.7055 94.745 39.6604 94.7623C39.6153 94.7797 39.5741 94.8059 39.5394 94.8393C39.5046 94.8728 39.477 94.9128 39.4581 94.957C39.4393 95.0012 39.4296 95.0487 39.4296 95.0967C39.4296 95.1447 39.4393 95.1923 39.4581 95.2365C39.477 95.2807 39.5046 95.3207 39.5394 95.3542C39.5741 95.3876 39.6153 95.4138 39.6604 95.4311C39.7055 95.4485 39.7537 95.4567 39.8021 95.4553Z" fill="white"/>
<path d="M68.3685 100.149H36.1859V111.784H68.3685V100.149Z" fill="#3FBDED"/>
<path d="M39.8021 103.263H64.7515C64.8455 103.26 64.9347 103.221 65.0002 103.154C65.0657 103.087 65.1024 102.998 65.1024 102.904C65.1024 102.811 65.0657 102.721 65.0002 102.655C64.9347 102.588 64.8455 102.549 64.7515 102.546H39.8021C39.7081 102.549 39.6189 102.588 39.5534 102.655C39.4879 102.721 39.4513 102.811 39.4513 102.904C39.4513 102.998 39.4879 103.087 39.5534 103.154C39.6189 103.221 39.7081 103.26 39.8021 103.263Z" fill="white"/>
<path d="M39.8021 106.401H64.7515C64.8455 106.399 64.9347 106.36 65.0002 106.293C65.0657 106.226 65.1024 106.136 65.1024 106.043C65.1024 105.95 65.0657 105.86 65.0002 105.793C64.9347 105.726 64.8455 105.687 64.7515 105.684H39.8021C39.7081 105.687 39.6189 105.726 39.5534 105.793C39.4879 105.86 39.4513 105.95 39.4513 106.043C39.4513 106.136 39.4879 106.226 39.5534 106.293C39.6189 106.36 39.7081 106.399 39.8021 106.401Z" fill="white"/>
<path d="M39.8021 109.54H64.7515C64.8455 109.537 64.9347 109.498 65.0002 109.431C65.0657 109.364 65.1024 109.275 65.1024 109.181C65.1024 109.088 65.0657 108.998 65.0002 108.932C64.9347 108.865 64.8455 108.826 64.7515 108.823H39.8021C39.7081 108.826 39.6189 108.865 39.5534 108.932C39.4879 108.998 39.4513 109.088 39.4513 109.181C39.4513 109.275 39.4879 109.364 39.5534 109.431C39.6189 109.498 39.7081 109.537 39.8021 109.54Z" fill="white"/>
<path d="M68.3685 114.234H36.1859V125.869H68.3685V114.234Z" fill="#3FBDED"/>
<path d="M39.8021 117.348H64.7515C64.8455 117.345 64.9347 117.306 65.0002 117.239C65.0657 117.172 65.1024 117.083 65.1024 116.989C65.1024 116.896 65.0657 116.806 65.0002 116.739C64.9347 116.673 64.8455 116.634 64.7515 116.631H39.8021C39.7537 116.629 39.7055 116.637 39.6604 116.655C39.6153 116.672 39.5741 116.698 39.5394 116.732C39.5046 116.765 39.477 116.805 39.4581 116.849C39.4393 116.894 39.4296 116.941 39.4296 116.989C39.4296 117.037 39.4393 117.085 39.4581 117.129C39.477 117.173 39.5046 117.213 39.5394 117.247C39.5741 117.28 39.6153 117.306 39.6604 117.324C39.7055 117.341 39.7537 117.349 39.8021 117.348Z" fill="white"/>
<path d="M39.8021 120.486H64.7515C64.8455 120.483 64.9347 120.444 65.0002 120.378C65.0657 120.311 65.1024 120.221 65.1024 120.128C65.1024 120.034 65.0657 119.945 65.0002 119.878C64.9347 119.811 64.8455 119.772 64.7515 119.769H39.8021C39.7537 119.768 39.7055 119.776 39.6604 119.793C39.6153 119.811 39.5741 119.837 39.5394 119.87C39.5046 119.904 39.477 119.944 39.4581 119.988C39.4393 120.032 39.4296 120.08 39.4296 120.128C39.4296 120.176 39.4393 120.223 39.4581 120.267C39.477 120.312 39.5046 120.352 39.5394 120.385C39.5741 120.419 39.6153 120.445 39.6604 120.462C39.7055 120.479 39.7537 120.488 39.8021 120.486Z" fill="white"/>
<path d="M39.8021 123.625H64.7515C64.8455 123.622 64.9347 123.583 65.0002 123.516C65.0657 123.449 65.1024 123.36 65.1024 123.266C65.1024 123.173 65.0657 123.083 65.0002 123.016C64.9347 122.95 64.8455 122.911 64.7515 122.908H39.8021C39.7537 122.906 39.7055 122.914 39.6604 122.932C39.6153 122.949 39.5741 122.975 39.5394 123.009C39.5046 123.042 39.477 123.082 39.4581 123.127C39.4393 123.171 39.4296 123.218 39.4296 123.266C39.4296 123.314 39.4393 123.362 39.4581 123.406C39.477 123.45 39.5046 123.49 39.5394 123.524C39.5741 123.557 39.6153 123.583 39.6604 123.601C39.7055 123.618 39.7537 123.626 39.8021 123.625Z" fill="white"/>
<path d="M107.784 122.821C111.073 122.821 114.289 121.854 117.025 120.041C119.76 118.228 121.892 115.652 123.151 112.638C124.41 109.624 124.74 106.307 124.098 103.107C123.456 99.9073 121.872 96.968 119.545 94.661C117.219 92.3541 114.255 90.783 111.029 90.1465C107.802 89.51 104.458 89.8367 101.418 91.0852C98.3787 92.3337 95.7808 94.448 93.9531 97.1607C92.1253 99.8734 91.1498 103.063 91.1498 106.325C91.1547 110.699 92.9088 114.892 96.0272 117.984C99.1455 121.077 103.374 122.816 107.784 122.821ZM107.784 90.5456C110.93 90.5456 114.007 91.471 116.623 93.2048C119.239 94.9385 121.279 97.4027 122.483 100.286C123.687 103.169 124.002 106.341 123.388 109.402C122.774 112.463 121.259 115.274 119.034 117.481C116.809 119.688 113.974 121.19 110.888 121.799C107.801 122.408 104.602 122.095 101.695 120.901C98.7877 119.707 96.3028 117.685 94.5546 115.09C92.8063 112.495 91.8732 109.445 91.8732 106.324C91.8783 102.141 93.5563 98.1306 96.5389 95.1727C99.5216 92.2148 103.565 90.5508 107.784 90.5456Z" fill="white"/>
<path d="M99.4667 106.325L112.665 112.869V99.7805L99.4667 106.325Z" fill="white"/>
<path d="M60.348 153.627H41.8806V162.322H60.348V153.627Z" fill="#FBFFFC"/>
<path d="M41.8807 160.507H60.3481C60.444 160.507 60.536 160.469 60.6038 160.402C60.6716 160.335 60.7098 160.243 60.7098 160.148C60.7098 160.053 60.6716 159.962 60.6038 159.895C60.536 159.827 60.444 159.79 60.3481 159.79H41.8807C41.7847 159.79 41.6927 159.827 41.6249 159.895C41.5571 159.962 41.519 160.053 41.519 160.148C41.519 160.243 41.5571 160.335 41.6249 160.402C41.6927 160.469 41.7847 160.507 41.8807 160.507Z" fill="#B5B9ED"/>
<path d="M41.8807 156.159H60.3481C60.3965 156.161 60.4446 156.152 60.4898 156.135C60.5349 156.118 60.5761 156.091 60.6108 156.058C60.6456 156.025 60.6732 155.985 60.692 155.94C60.7109 155.896 60.7206 155.849 60.7206 155.801C60.7206 155.753 60.7109 155.705 60.692 155.661C60.6732 155.617 60.6456 155.577 60.6108 155.543C60.5761 155.51 60.5349 155.484 60.4898 155.466C60.4446 155.449 60.3965 155.441 60.3481 155.442H41.8807C41.8323 155.441 41.7841 155.449 41.739 155.466C41.6938 155.484 41.6527 155.51 41.6179 155.543C41.5832 155.577 41.5556 155.617 41.5367 155.661C41.5178 155.705 41.5081 155.753 41.5081 155.801C41.5081 155.849 41.5178 155.896 41.5367 155.94C41.5556 155.985 41.5832 156.025 41.6179 156.058C41.6527 156.091 41.6938 156.118 41.739 156.135C41.7841 156.152 41.8323 156.161 41.8807 156.159Z" fill="#B5B9ED"/>
<path d="M41.8807 158.333H60.3481C60.3965 158.335 60.4446 158.326 60.4898 158.309C60.5349 158.292 60.5761 158.266 60.6108 158.232C60.6456 158.199 60.6732 158.159 60.692 158.114C60.7109 158.07 60.7206 158.023 60.7206 157.975C60.7206 157.927 60.7109 157.879 60.692 157.835C60.6732 157.791 60.6456 157.751 60.6108 157.717C60.5761 157.684 60.5349 157.658 60.4898 157.64C60.4446 157.623 60.3965 157.615 60.3481 157.616H41.8807C41.8323 157.615 41.7841 157.623 41.739 157.64C41.6938 157.658 41.6527 157.684 41.6179 157.717C41.5832 157.751 41.5556 157.791 41.5367 157.835C41.5178 157.879 41.5081 157.927 41.5081 157.975C41.5081 158.023 41.5178 158.07 41.5367 158.114C41.5556 158.159 41.5832 158.199 41.6179 158.232C41.6527 158.266 41.6938 158.292 41.739 158.309C41.7841 158.326 41.8323 158.335 41.8807 158.333Z" fill="#B5B9ED"/>
<path d="M61.027 162.322H17.6432V163.544H61.027V162.322Z" fill="#FFF70E"/>
<path d="M61.0273 152.405H17.6434V153.627H61.0273V152.405Z" fill="#FFF70E"/>
<path d="M41.8807 153.627H17.6432V162.322H41.8807V153.627Z" fill="#CEC82C"/>
<path d="M25.6056 163.574H21.2758V174.713H25.6056V163.574Z" fill="#007CE6"/>
<path d="M63.9101 164.796H33.3477V173.491H63.9101V164.796Z" fill="#FBFFFC"/>
<path d="M44.0916 171.675H56.6104C56.6588 171.677 56.707 171.668 56.7521 171.651C56.7972 171.634 56.8384 171.607 56.8731 171.574C56.9079 171.541 56.9355 171.501 56.9544 171.456C56.9732 171.412 56.983 171.365 56.983 171.317C56.983 171.269 56.9732 171.221 56.9544 171.177C56.9355 171.133 56.9079 171.093 56.8731 171.059C56.8384 171.026 56.7972 171 56.7521 170.982C56.707 170.965 56.6588 170.957 56.6104 170.958H44.0916C44.0432 170.957 43.995 170.965 43.9499 170.982C43.9048 171 43.8636 171.026 43.8289 171.059C43.7941 171.093 43.7665 171.133 43.7476 171.177C43.7288 171.221 43.7191 171.269 43.7191 171.317C43.7191 171.365 43.7288 171.412 43.7476 171.456C43.7665 171.501 43.7941 171.541 43.8289 171.574C43.8636 171.607 43.9048 171.634 43.9499 171.651C43.995 171.668 44.0432 171.677 44.0916 171.675Z" fill="#B4EAFF"/>
<path d="M44.0926 169.502H61.3656C61.414 169.504 61.4622 169.496 61.5073 169.478C61.5524 169.461 61.5936 169.435 61.6283 169.401C61.6631 169.368 61.6907 169.328 61.7095 169.284C61.7284 169.239 61.7381 169.192 61.7381 169.144C61.7381 169.096 61.7284 169.048 61.7095 169.004C61.6907 168.96 61.6631 168.92 61.6283 168.886C61.5936 168.853 61.5524 168.827 61.5073 168.809C61.4622 168.792 61.414 168.784 61.3656 168.785H44.0926C43.9986 168.788 43.9094 168.827 43.8439 168.894C43.7784 168.961 43.7418 169.051 43.7418 169.144C43.7418 169.237 43.7784 169.327 43.8439 169.394C43.9094 169.461 43.9986 169.5 44.0926 169.502Z" fill="#B4EAFF"/>
<path d="M44.0924 167.328H61.3654C61.4138 167.33 61.462 167.321 61.5071 167.304C61.5522 167.287 61.5934 167.261 61.6281 167.227C61.6629 167.194 61.6905 167.154 61.7094 167.109C61.7282 167.065 61.7379 167.018 61.7379 166.97C61.7379 166.922 61.7282 166.874 61.7094 166.83C61.6905 166.786 61.6629 166.746 61.6281 166.712C61.5934 166.679 61.5522 166.653 61.5071 166.635C61.462 166.618 61.4138 166.61 61.3654 166.611H44.0924C43.9984 166.614 43.9092 166.653 43.8437 166.72C43.7782 166.787 43.7416 166.876 43.7416 166.97C43.7416 167.063 43.7782 167.153 43.8437 167.219C43.9092 167.286 43.9984 167.325 44.0924 167.328Z" fill="#B4EAFF"/>
<path d="M44.0926 164.796H22.6978V173.491H44.0926V164.796Z" fill="#B4EAFF"/>
<path d="M26.9433 171.675H44.0926C44.1409 171.677 44.1891 171.668 44.2343 171.651C44.2794 171.634 44.3206 171.607 44.3553 171.574C44.39 171.541 44.4177 171.501 44.4365 171.456C44.4554 171.412 44.4651 171.365 44.4651 171.317C44.4651 171.269 44.4554 171.221 44.4365 171.177C44.4177 171.133 44.39 171.093 44.3553 171.059C44.3206 171.026 44.2794 171 44.2343 170.982C44.1891 170.965 44.1409 170.957 44.0926 170.958H26.9433C26.8949 170.957 26.8467 170.965 26.8016 170.982C26.7564 171 26.7153 171.026 26.6805 171.059C26.6458 171.093 26.6182 171.133 26.5993 171.177C26.5805 171.221 26.5707 171.269 26.5707 171.317C26.5707 171.365 26.5805 171.412 26.5993 171.456C26.6182 171.501 26.6458 171.541 26.6805 171.574C26.7153 171.607 26.7564 171.634 26.8016 171.651C26.8467 171.668 26.8949 171.677 26.9433 171.675Z" fill="#3FBDED"/>
<path d="M26.9433 167.328H44.0926C44.1409 167.33 44.1891 167.321 44.2343 167.304C44.2794 167.287 44.3206 167.261 44.3553 167.227C44.39 167.194 44.4177 167.154 44.4365 167.109C44.4554 167.065 44.4651 167.018 44.4651 166.97C44.4651 166.922 44.4554 166.874 44.4365 166.83C44.4177 166.786 44.39 166.746 44.3553 166.712C44.3206 166.679 44.2794 166.653 44.2343 166.635C44.1891 166.618 44.1409 166.61 44.0926 166.611H26.9433C26.8949 166.61 26.8467 166.618 26.8016 166.635C26.7564 166.653 26.7153 166.679 26.6805 166.712C26.6458 166.746 26.6182 166.786 26.5993 166.83C26.5805 166.874 26.5707 166.922 26.5707 166.97C26.5707 167.018 26.5805 167.065 26.5993 167.109C26.6182 167.154 26.6458 167.194 26.6805 167.227C26.7153 167.261 26.7564 167.287 26.8016 167.304C26.8467 167.321 26.8949 167.33 26.9433 167.328Z" fill="#3FBDED"/>
<path d="M24.5659 169.502H44.0925C44.1409 169.504 44.1891 169.496 44.2342 169.478C44.2794 169.461 44.3205 169.435 44.3553 169.401C44.39 169.368 44.4177 169.328 44.4365 169.284C44.4554 169.239 44.4651 169.192 44.4651 169.144C44.4651 169.096 44.4554 169.048 44.4365 169.004C44.4177 168.96 44.39 168.92 44.3553 168.886C44.3205 168.853 44.2794 168.827 44.2342 168.809C44.1891 168.792 44.1409 168.784 44.0925 168.785H24.5659C24.5175 168.784 24.4693 168.792 24.4241 168.809C24.379 168.827 24.3378 168.853 24.3031 168.886C24.2684 168.92 24.2407 168.96 24.2219 169.004C24.203 169.048 24.1933 169.096 24.1933 169.144C24.1933 169.192 24.203 169.239 24.2219 169.284C24.2407 169.328 24.2684 169.368 24.3031 169.401C24.3378 169.435 24.379 169.461 24.4241 169.478C24.4693 169.496 24.5175 169.504 24.5659 169.502Z" fill="#3FBDED"/>
<path d="M65.4026 173.491H22.0187V174.713H65.4026V173.491Z" fill="#0081B2"/>
<path d="M65.4026 163.574H22.0187V164.796H65.4026V163.574Z" fill="#007CE6"/>
<path d="M64.8688 196.948H60.5389V208.087H64.8688V196.948Z" fill="#FFF70E"/>
<path d="M52.7969 198.17H22.2344V206.866H52.7969V198.17Z" fill="#FBFFFC"/>
<path d="M29.5345 205.051H42.0517C42.1001 205.052 42.1483 205.044 42.1934 205.026C42.2385 205.009 42.2797 204.983 42.3144 204.949C42.3492 204.916 42.3768 204.876 42.3957 204.832C42.4145 204.788 42.4242 204.74 42.4242 204.692C42.4242 204.644 42.4145 204.596 42.3957 204.552C42.3768 204.508 42.3492 204.468 42.3144 204.435C42.2797 204.401 42.2385 204.375 42.1934 204.358C42.1483 204.34 42.1001 204.332 42.0517 204.333H29.5345C29.4862 204.332 29.438 204.34 29.3928 204.358C29.3477 204.375 29.3065 204.401 29.2718 204.435C29.2371 204.468 29.2094 204.508 29.1906 204.552C29.1717 204.596 29.162 204.644 29.162 204.692C29.162 204.74 29.1717 204.788 29.1906 204.832C29.2094 204.876 29.2371 204.916 29.2718 204.949C29.3065 204.983 29.3477 205.009 29.3928 205.026C29.438 205.044 29.4862 205.052 29.5345 205.051Z" fill="#B5B9ED"/>
<path d="M24.78 202.877H42.052C42.146 202.874 42.2352 202.835 42.3007 202.768C42.3662 202.701 42.4028 202.611 42.4028 202.518C42.4028 202.425 42.3662 202.335 42.3007 202.268C42.2352 202.201 42.146 202.162 42.052 202.16H24.78C24.7316 202.158 24.6834 202.166 24.6383 202.184C24.5931 202.201 24.552 202.227 24.5172 202.261C24.4825 202.294 24.4549 202.334 24.436 202.378C24.4171 202.423 24.4074 202.47 24.4074 202.518C24.4074 202.566 24.4171 202.614 24.436 202.658C24.4549 202.702 24.4825 202.742 24.5172 202.776C24.552 202.809 24.5931 202.835 24.6383 202.853C24.6834 202.87 24.7316 202.878 24.78 202.877Z" fill="#B5B9ED"/>
<path d="M24.78 200.703H42.052C42.146 200.7 42.2352 200.661 42.3007 200.594C42.3662 200.527 42.4028 200.437 42.4028 200.344C42.4028 200.251 42.3662 200.161 42.3007 200.094C42.2352 200.027 42.146 199.988 42.052 199.986H24.78C24.7316 199.984 24.6834 199.992 24.6383 200.01C24.5931 200.027 24.552 200.053 24.5172 200.087C24.4825 200.12 24.4549 200.16 24.436 200.204C24.4171 200.249 24.4074 200.296 24.4074 200.344C24.4074 200.392 24.4171 200.44 24.436 200.484C24.4549 200.528 24.4825 200.568 24.5172 200.601C24.552 200.635 24.5931 200.661 24.6383 200.678C24.6834 200.696 24.7316 200.704 24.78 200.703Z" fill="#B5B9ED"/>
<path d="M63.4469 198.17H42.052V206.866H63.4469V198.17Z" fill="#B4EAFF"/>
<path d="M42.052 205.051H59.2019C59.2959 205.048 59.3851 205.009 59.4506 204.942C59.5161 204.875 59.5527 204.785 59.5527 204.692C59.5527 204.599 59.5161 204.509 59.4506 204.442C59.3851 204.375 59.2959 204.336 59.2019 204.333H42.052C42.0036 204.332 41.9554 204.34 41.9103 204.358C41.8652 204.375 41.824 204.401 41.7893 204.435C41.7545 204.468 41.7269 204.508 41.708 204.552C41.6892 204.596 41.6794 204.644 41.6794 204.692C41.6794 204.74 41.6892 204.788 41.708 204.832C41.7269 204.876 41.7545 204.916 41.7893 204.949C41.824 204.983 41.8652 205.009 41.9103 205.026C41.9554 205.044 42.0036 205.052 42.052 205.051Z" fill="#9799ED"/>
<path d="M42.052 200.703H59.2019C59.2959 200.7 59.3851 200.661 59.4506 200.594C59.5161 200.527 59.5527 200.437 59.5527 200.344C59.5527 200.251 59.5161 200.161 59.4506 200.094C59.3851 200.027 59.2959 199.988 59.2019 199.986H42.052C42.0036 199.984 41.9554 199.992 41.9103 200.01C41.8652 200.027 41.824 200.053 41.7893 200.087C41.7545 200.12 41.7269 200.16 41.708 200.204C41.6892 200.249 41.6794 200.296 41.6794 200.344C41.6794 200.392 41.6892 200.44 41.708 200.484C41.7269 200.528 41.7545 200.568 41.7893 200.601C41.824 200.635 41.8652 200.661 41.9103 200.678C41.9554 200.696 42.0036 200.704 42.052 200.703Z" fill="#9799ED"/>
<path d="M42.052 202.876H61.5787C61.6271 202.878 61.6753 202.87 61.7204 202.852C61.7655 202.835 61.8067 202.809 61.8414 202.775C61.8762 202.742 61.9038 202.702 61.9226 202.658C61.9415 202.613 61.9512 202.566 61.9512 202.518C61.9512 202.47 61.9415 202.422 61.9226 202.378C61.9038 202.334 61.8762 202.294 61.8414 202.26C61.8067 202.227 61.7655 202.201 61.7204 202.183C61.6753 202.166 61.6271 202.158 61.5787 202.159H42.052C42.0036 202.158 41.9554 202.166 41.9103 202.183C41.8652 202.201 41.824 202.227 41.7893 202.26C41.7545 202.294 41.7269 202.334 41.708 202.378C41.6892 202.422 41.6794 202.47 41.6794 202.518C41.6794 202.566 41.6892 202.613 41.708 202.658C41.7269 202.702 41.7545 202.742 41.7893 202.775C41.824 202.809 41.8652 202.835 41.9103 202.852C41.9554 202.87 42.0036 202.878 42.052 202.876Z" fill="#9799ED"/>
<path d="M64.1259 206.866H20.742V208.087H64.1259V206.866Z" fill="#FFF70E"/>
<path d="M64.1259 196.948H20.742V198.17H64.1259V196.948Z" fill="#FFF70E"/>
<path d="M61.6087 174.691H57.2789V185.83H61.6087V174.691Z" fill="#FFF70E"/>
<path d="M51.0006 175.913H18.2272V184.608H51.0006V175.913Z" fill="#FBFFFC"/>
<path d="M29.1931 182.793H50.999C51.0474 182.794 51.0955 182.786 51.1407 182.768C51.1858 182.751 51.227 182.725 51.2617 182.691C51.2965 182.658 51.3241 182.618 51.3429 182.574C51.3618 182.53 51.3715 182.482 51.3715 182.434C51.3715 182.386 51.3618 182.338 51.3429 182.294C51.3241 182.25 51.2965 182.21 51.2617 182.177C51.227 182.143 51.1858 182.117 51.1407 182.1C51.0955 182.082 51.0474 182.074 50.999 182.075H29.1931C29.1447 182.074 29.0965 182.082 29.0514 182.1C29.0063 182.117 28.9651 182.143 28.9304 182.177C28.8956 182.21 28.868 182.25 28.8491 182.294C28.8303 182.338 28.8206 182.386 28.8206 182.434C28.8206 182.482 28.8303 182.53 28.8491 182.574C28.868 182.618 28.8956 182.658 28.9304 182.691C28.9651 182.725 29.0063 182.751 29.0514 182.768C29.0965 182.786 29.1447 182.794 29.1931 182.793Z" fill="#B4EAFF"/>
<path d="M20.9098 180.619H51.0006C51.049 180.621 51.0972 180.613 51.1423 180.595C51.1875 180.578 51.2286 180.552 51.2634 180.518C51.2981 180.485 51.3257 180.445 51.3446 180.401C51.3635 180.356 51.3732 180.309 51.3732 180.261C51.3732 180.213 51.3635 180.165 51.3446 180.121C51.3257 180.077 51.2981 180.037 51.2634 180.003C51.2286 179.97 51.1875 179.944 51.1423 179.926C51.0972 179.909 51.049 179.901 51.0006 179.902H20.9098C20.8158 179.905 20.7266 179.944 20.6611 180.011C20.5957 180.078 20.559 180.168 20.559 180.261C20.559 180.354 20.5957 180.444 20.6611 180.511C20.7266 180.578 20.8158 180.617 20.9098 180.619Z" fill="#B4EAFF"/>
<path d="M20.9098 178.445H51.0006C51.049 178.447 51.0972 178.438 51.1423 178.421C51.1875 178.404 51.2286 178.378 51.2634 178.344C51.2981 178.311 51.3257 178.271 51.3446 178.226C51.3635 178.182 51.3732 178.135 51.3732 178.087C51.3732 178.039 51.3635 177.991 51.3446 177.947C51.3257 177.903 51.2981 177.863 51.2634 177.829C51.2286 177.796 51.1875 177.77 51.1423 177.752C51.0972 177.735 51.049 177.727 51.0006 177.728H20.9098C20.8158 177.731 20.7266 177.77 20.6611 177.837C20.5957 177.904 20.559 177.993 20.559 178.087C20.559 178.18 20.5957 178.27 20.6611 178.336C20.7266 178.403 20.8158 178.442 20.9098 178.445Z" fill="#B4EAFF"/>
<path d="M60.1868 175.913H51.0231V184.608H60.1868V175.913Z" fill="#B4EAFF"/>
<path d="M51.0231 182.793H58.3679C58.4619 182.79 58.5511 182.751 58.6166 182.684C58.6821 182.617 58.7187 182.527 58.7187 182.434C58.7187 182.341 58.6821 182.251 58.6166 182.184C58.5511 182.117 58.4619 182.078 58.3679 182.075H51.0231C50.9747 182.074 50.9265 182.082 50.8814 182.1C50.8363 182.117 50.7951 182.143 50.7604 182.177C50.7256 182.21 50.698 182.25 50.6792 182.294C50.6603 182.338 50.6506 182.386 50.6506 182.434C50.6506 182.482 50.6603 182.53 50.6792 182.574C50.698 182.618 50.7256 182.658 50.7604 182.691C50.7951 182.725 50.8363 182.751 50.8814 182.768C50.9265 182.786 50.9747 182.794 51.0231 182.793Z" fill="#3FBDED"/>
<path d="M51.0231 178.445H55.9415C55.9899 178.447 56.0381 178.438 56.0832 178.421C56.1284 178.404 56.1695 178.378 56.2043 178.344C56.239 178.311 56.2666 178.271 56.2855 178.226C56.3044 178.182 56.3141 178.135 56.3141 178.087C56.3141 178.039 56.3044 177.991 56.2855 177.947C56.2666 177.903 56.239 177.863 56.2043 177.829C56.1695 177.796 56.1284 177.77 56.0832 177.752C56.0381 177.735 55.9899 177.727 55.9415 177.728H51.0231C50.9747 177.727 50.9265 177.735 50.8814 177.752C50.8363 177.77 50.7951 177.796 50.7604 177.829C50.7256 177.863 50.698 177.903 50.6792 177.947C50.6603 177.991 50.6506 178.039 50.6506 178.087C50.6506 178.135 50.6603 178.182 50.6792 178.226C50.698 178.271 50.7256 178.311 50.7604 178.344C50.7951 178.378 50.8363 178.404 50.8814 178.421C50.9265 178.438 50.9747 178.447 51.0231 178.445Z" fill="#3FBDED"/>
<path d="M51.0215 180.619H59.3847C59.4787 180.617 59.568 180.578 59.6334 180.511C59.6989 180.444 59.7356 180.354 59.7356 180.261C59.7356 180.168 59.6989 180.078 59.6334 180.011C59.568 179.944 59.4787 179.905 59.3847 179.902H51.0215C50.9731 179.901 50.9249 179.909 50.8798 179.926C50.8346 179.944 50.7935 179.97 50.7587 180.003C50.724 180.037 50.6964 180.077 50.6775 180.121C50.6586 180.165 50.6489 180.213 50.6489 180.261C50.6489 180.309 50.6586 180.356 50.6775 180.401C50.6964 180.445 50.724 180.485 50.7587 180.518C50.7935 180.552 50.8346 180.578 50.8798 180.595C50.9249 180.613 50.9731 180.621 51.0215 180.619Z" fill="#3FBDED"/>
<path d="M60.8658 184.608H17.4819V185.83H60.8658V184.608Z" fill="#FFF70E"/>
<path d="M60.8658 174.691H17.4819V175.913H60.8658V174.691Z" fill="#FFF70E"/>
<path d="M23.4586 185.847H19.1288V196.986H23.4586V185.847Z" fill="#0081B2"/>
<path d="M61.7632 187.069H31.2007V195.764H61.7632V187.069Z" fill="#FBFFFC"/>
<path d="M35.9552 193.949H54.4641C54.5125 193.95 54.5606 193.942 54.6058 193.925C54.6509 193.907 54.6921 193.881 54.7268 193.848C54.7616 193.814 54.7892 193.774 54.808 193.73C54.8269 193.686 54.8366 193.638 54.8366 193.59C54.8366 193.542 54.8269 193.495 54.808 193.45C54.7892 193.406 54.7616 193.366 54.7268 193.333C54.6921 193.299 54.6509 193.273 54.6058 193.256C54.5606 193.238 54.5125 193.23 54.4641 193.232H35.9552C35.9068 193.23 35.8586 193.238 35.8135 193.256C35.7683 193.273 35.7272 193.299 35.6924 193.333C35.6577 193.366 35.6301 193.406 35.6112 193.45C35.5924 193.495 35.5826 193.542 35.5826 193.59C35.5826 193.638 35.5924 193.686 35.6112 193.73C35.6301 193.774 35.6577 193.814 35.6924 193.848C35.7272 193.881 35.7683 193.907 35.8135 193.925C35.8586 193.942 35.9068 193.95 35.9552 193.949Z" fill="#B4EAFF"/>
<path d="M35.9562 191.775H59.2186C59.267 191.776 59.3152 191.768 59.3603 191.751C59.4054 191.733 59.4466 191.707 59.4813 191.674C59.5161 191.64 59.5437 191.6 59.5625 191.556C59.5814 191.512 59.5911 191.464 59.5911 191.416C59.5911 191.368 59.5814 191.321 59.5625 191.277C59.5437 191.232 59.5161 191.192 59.4813 191.159C59.4466 191.126 59.4054 191.099 59.3603 191.082C59.3152 191.065 59.267 191.056 59.2186 191.058H35.9562C35.8622 191.061 35.773 191.1 35.7075 191.167C35.642 191.233 35.6053 191.323 35.6053 191.416C35.6053 191.51 35.642 191.599 35.7075 191.666C35.773 191.733 35.8622 191.772 35.9562 191.775Z" fill="#B4EAFF"/>
<path d="M35.956 189.601H59.2184C59.2668 189.602 59.315 189.594 59.3601 189.577C59.4052 189.56 59.4464 189.533 59.4811 189.5C59.5159 189.467 59.5435 189.426 59.5624 189.382C59.5812 189.338 59.5909 189.291 59.5909 189.243C59.5909 189.195 59.5812 189.147 59.5624 189.103C59.5435 189.059 59.5159 189.019 59.4811 188.985C59.4464 188.952 59.4052 188.926 59.3601 188.908C59.315 188.891 59.2668 188.883 59.2184 188.884H35.956C35.862 188.887 35.7728 188.926 35.7073 188.993C35.6418 189.06 35.6052 189.149 35.6052 189.243C35.6052 189.336 35.6418 189.425 35.7073 189.492C35.7728 189.559 35.862 189.598 35.956 189.601Z" fill="#B4EAFF"/>
<path d="M35.9552 187.069H20.5508V195.764H35.9552V187.069Z" fill="#B4EAFF"/>
<path d="M24.0655 193.949H35.9539C36.0023 193.95 36.0505 193.942 36.0956 193.925C36.1408 193.908 36.1819 193.881 36.2167 193.848C36.2514 193.814 36.279 193.774 36.2979 193.73C36.3168 193.686 36.3265 193.638 36.3265 193.59C36.3265 193.542 36.3168 193.495 36.2979 193.451C36.279 193.407 36.2514 193.367 36.2167 193.333C36.1819 193.3 36.1408 193.273 36.0956 193.256C36.0505 193.239 36.0023 193.231 35.9539 193.232H24.0655C24.0171 193.231 23.9689 193.239 23.9238 193.256C23.8786 193.273 23.8375 193.3 23.8027 193.333C23.768 193.367 23.7404 193.407 23.7215 193.451C23.7027 193.495 23.6929 193.542 23.6929 193.59C23.6929 193.638 23.7027 193.686 23.7215 193.73C23.7404 193.774 23.768 193.814 23.8027 193.848C23.8375 193.881 23.8786 193.908 23.9238 193.925C23.9689 193.942 24.0171 193.95 24.0655 193.949Z" fill="#3FBDED"/>
<path d="M24.0655 189.601H35.9539C36.0023 189.602 36.0505 189.594 36.0956 189.577C36.1408 189.56 36.1819 189.533 36.2167 189.5C36.2514 189.467 36.279 189.426 36.2979 189.382C36.3168 189.338 36.3265 189.291 36.3265 189.243C36.3265 189.195 36.3168 189.147 36.2979 189.103C36.279 189.059 36.2514 189.019 36.2167 188.985C36.1819 188.952 36.1408 188.926 36.0956 188.908C36.0505 188.891 36.0023 188.883 35.9539 188.884H24.0655C24.0171 188.883 23.9689 188.891 23.9238 188.908C23.8786 188.926 23.8375 188.952 23.8027 188.985C23.768 189.019 23.7404 189.059 23.7215 189.103C23.7027 189.147 23.6929 189.195 23.6929 189.243C23.6929 189.291 23.7027 189.338 23.7215 189.382C23.7404 189.426 23.768 189.467 23.8027 189.5C23.8375 189.533 23.8786 189.56 23.9238 189.577C23.9689 189.594 24.0171 189.602 24.0655 189.601Z" fill="#3FBDED"/>
<path d="M22.4173 191.775H35.9539C36.0023 191.776 36.0505 191.768 36.0956 191.751C36.1407 191.733 36.1819 191.707 36.2166 191.674C36.2514 191.64 36.279 191.6 36.2979 191.556C36.3167 191.512 36.3265 191.464 36.3265 191.416C36.3265 191.368 36.3167 191.321 36.2979 191.277C36.279 191.232 36.2514 191.192 36.2166 191.159C36.1819 191.126 36.1407 191.099 36.0956 191.082C36.0505 191.065 36.0023 191.056 35.9539 191.058H22.4173C22.3689 191.056 22.3207 191.065 22.2756 191.082C22.2304 191.099 22.1893 191.126 22.1545 191.159C22.1198 191.192 22.0922 191.232 22.0733 191.277C22.0545 191.321 22.0447 191.368 22.0447 191.416C22.0447 191.464 22.0545 191.512 22.0733 191.556C22.0922 191.6 22.1198 191.64 22.1545 191.674C22.1893 191.707 22.2304 191.733 22.2756 191.751C22.3207 191.768 22.3689 191.776 22.4173 191.775Z" fill="#3FBDED"/>
<path d="M63.2556 195.764H19.8718V196.986H63.2556V195.764Z" fill="#0081B2"/>
<path d="M63.2556 185.847H19.8718V187.069H63.2556V185.847Z" fill="#0081B2"/>
<path d="M182.562 155.274C168.8 167.045 168.242 225.76 168.242 225.76L220.749 229.607C220.749 229.607 238.742 178.233 231.804 162.35C227.151 151.699 193.136 146.23 182.562 155.274Z" fill="#0081B2"/>
<path d="M174.379 155.329C160.616 167.1 158.886 224.716 158.886 224.716L211.393 228.563C211.393 228.563 232.287 178.295 224.508 160.294C221.254 152.764 184.954 146.285 174.379 155.329Z" fill="#3FBDED"/>
<path d="M178.575 175.685C172.378 198.37 161.59 206.554 158.336 208.705C155.893 210.32 155.264 213.822 161.591 212.649C169.286 211.225 180.394 199.74 183.895 177.113C184.123 175.622 178.972 174.229 178.575 175.685Z" fill="#CC521A"/>
<path d="M179.703 199.512C174.757 198.614 170.922 196.322 167.78 192.236C178.585 168.183 180.754 172.845 185.285 174.994C188.812 176.666 180.981 196.888 179.703 199.512Z" fill="#CEC82C"/>
<path d="M210.065 216.19L178.451 220.282C178.451 220.282 175.097 186.784 175.845 178.396C176.395 172.237 183.513 172.305 183.973 172.189C187.706 171.248 199.558 170.335 202.812 172.128C208.141 175.064 210.065 216.19 210.065 216.19Z" fill="#FFF70E"/>
<path d="M194.006 171.042C193.614 167.073 193.509 163.065 193.086 159.101C192.621 159.312 185.786 162.543 184.697 163.035C185.645 165.862 186.593 168.689 187.542 171.517C186.341 171.675 185.149 171.9 183.972 172.19C185.079 174.402 188.049 177.484 191.041 177.257C193.61 177.063 196.98 173.78 197.587 171.155C196.497 171.091 195.204 171.049 194.006 171.042Z" fill="#FF8846"/>
<path d="M193.274 161.123L192.456 159.778C189.833 161.027 187.391 162.619 185.194 164.511L187.065 170.087C188.79 169.317 190.276 168.106 191.372 166.577C192.467 165.048 193.132 163.258 193.298 161.389C193.289 161.299 193.282 161.212 193.274 161.123Z" fill="#CC521A"/>
<path d="M177.321 207.988C177.916 214.939 178.451 220.282 178.451 220.282L210.065 216.19C210.065 216.19 209.458 203.211 207.981 191.315C202.819 201.128 191.034 207.987 177.321 207.988Z" fill="#CEC82C"/>
<path d="M160.68 128.723C153.602 131.193 149.212 138.474 151.272 144.329C153.332 150.183 161.516 153.681 168.81 151.825L177.04 128.291C171.65 127.577 165.913 126.897 160.68 128.723Z" fill="#481200"/>
<path d="M153.933 142.32C152.587 142.315 151.115 142.608 150.271 143.647C149.344 144.79 149.516 146.566 150.423 147.726C151.329 148.886 152.812 149.49 154.283 149.652C155.753 149.814 157.237 149.584 158.698 149.355L160.434 144.24C158.496 142.997 156.24 142.33 153.933 142.32Z" fill="#CC521A"/>
<path d="M158.468 130.837C158.393 140.734 149.589 148.697 154.29 158.567C160.719 172.058 179.967 173.614 190.071 165.827C229.538 135.413 158.655 106.344 158.468 130.837Z" fill="#FF8846"/>
<path d="M209.747 145.552C208.699 144.413 207.214 143.803 205.74 143.455C202.035 142.577 198.132 143.154 194.847 145.067L196.259 150.443C199.47 151.916 203.032 152.474 206.545 152.052C208.164 151.85 209.933 151.292 210.646 149.81C211.299 148.451 210.795 146.69 209.747 145.552Z" fill="#FF8846"/>
<path d="M202.149 130.235C203.787 128.714 205.335 127.205 206.974 125.684C204.009 125.575 200.805 125.193 197.841 125.083C200.111 123.284 204.226 119.058 204.226 119.058C204.226 119.058 196.514 121.227 192.74 122.139C192.209 117.657 190.644 113.356 188.166 109.571C188.531 112.634 188.393 114.906 187.575 118.627C184.615 115.185 180.707 112.673 176.329 111.399C177.79 112.87 181.086 116.287 182.796 118.586C170.374 112.944 152.041 119 140.156 127.723C143.945 128.322 147.79 129.237 151.578 129.835C151.117 130.152 146.388 135.683 145.66 137.137C151.479 136.975 160.393 136.231 167.196 134.285C167.36 134.373 165.292 136.274 164.025 138.414C169.665 140.211 177.747 140.139 191.903 135.648C191.182 141.76 196.302 150.614 196.302 150.614L208.058 142.061C208.091 137.128 206.011 131.843 202.149 130.235Z" fill="#481200"/>
<path d="M163.375 121.743C169.881 121.134 175.337 121.383 180.019 122.317C177.543 124.203 175.064 128.883 175.064 128.883C175.064 128.883 179.871 125.112 183.662 124.101C183.582 125.387 184.267 128.024 184.267 128.024C184.267 128.024 185.851 125.023 188.31 123.717C188.207 122.698 180.97 115.804 163.375 121.743Z" fill="#882200"/>
<path d="M164.026 138.412C169.011 140 175.908 140.125 187.221 137.031C188.727 135.895 190.203 134.694 191.76 133.67C183.851 137.097 175.344 138.2 166.764 137.295C168.441 135.637 169.811 133.699 170.812 131.57C163.319 133.877 155.47 134.832 147.637 134.391C146.908 135.255 146.248 136.173 145.66 137.136C151.479 136.975 160.394 136.23 167.197 134.284C167.359 134.371 165.292 136.272 164.026 138.412Z" fill="#882200"/>
<path d="M162.493 151.329C163.592 151.329 164.482 150.206 164.482 148.819C164.482 147.433 163.592 146.309 162.493 146.309C161.395 146.309 160.504 147.433 160.504 148.819C160.504 150.206 161.395 151.329 162.493 151.329Z" fill="#481200"/>
<path d="M162.041 147.564C162.041 148.257 161.596 148.818 161.046 148.818C160.497 148.818 160.052 148.257 160.052 147.564C160.052 146.87 160.497 146.308 161.046 146.308C161.595 146.308 162.041 146.871 162.041 147.564Z" fill="white"/>
<path d="M179.489 150.971C180.587 150.971 181.478 149.847 181.478 148.461C181.478 147.074 180.587 145.95 179.489 145.95C178.39 145.95 177.5 147.074 177.5 148.461C177.5 149.847 178.39 150.971 179.489 150.971Z" fill="#481200"/>
<path d="M179.036 147.206C179.036 147.899 178.592 148.461 178.042 148.461C177.492 148.461 177.048 147.899 177.048 147.206C177.048 146.513 177.493 145.95 178.042 145.95C178.591 145.95 179.036 146.512 179.036 147.206Z" fill="white"/>
<path d="M169.037 154.906C168.517 154.926 168.008 154.76 167.601 154.438C167.046 153.976 166.835 153.208 167.023 152.33C168.137 147.118 167.124 144.534 166.078 143.285C166.023 143.212 165.998 143.12 166.009 143.028C166.019 142.937 166.065 142.853 166.136 142.795C166.208 142.736 166.299 142.707 166.391 142.713C166.484 142.719 166.57 142.76 166.633 142.827C167.782 144.197 168.904 146.985 167.728 152.48C167.598 153.099 167.716 153.599 168.064 153.89C168.551 154.295 169.435 154.286 170.495 153.866C170.539 153.848 170.586 153.84 170.634 153.84C170.681 153.841 170.728 153.851 170.772 153.869C170.815 153.888 170.855 153.915 170.888 153.948C170.921 153.982 170.947 154.022 170.965 154.066C170.982 154.109 170.991 154.156 170.991 154.203C170.99 154.25 170.98 154.297 170.961 154.34C170.943 154.383 170.915 154.422 170.882 154.455C170.848 154.488 170.807 154.514 170.763 154.531C170.217 154.763 169.631 154.891 169.037 154.906Z" fill="#CC521A"/>
<path d="M166.945 144.288C166.88 144.288 166.815 144.271 166.759 144.237C166.703 144.204 166.657 144.156 166.626 144.099C166.328 143.484 165.875 142.956 165.312 142.565C164.748 142.174 164.093 141.934 163.408 141.867C161.717 141.694 159.876 142.525 158.613 144.028C158.55 144.096 158.463 144.138 158.37 144.144C158.277 144.15 158.186 144.121 158.114 144.062C158.043 144.003 157.997 143.918 157.986 143.827C157.976 143.735 158.002 143.643 158.058 143.569C159.474 141.886 161.557 140.962 163.482 141.153C164.283 141.237 165.049 141.519 165.711 141.975C166.372 142.431 166.907 143.044 167.265 143.76C167.31 143.844 167.32 143.942 167.292 144.033C167.264 144.124 167.201 144.2 167.117 144.245C167.064 144.274 167.005 144.288 166.945 144.288Z" fill="#481200"/>
<path d="M185.869 144.289C185.8 144.289 185.732 144.27 185.674 144.233C185.616 144.196 185.569 144.143 185.541 144.08C184.556 141.956 182.694 140.687 180.557 140.684H180.549C178.437 140.684 176.597 141.923 175.627 144.001C175.586 144.088 175.513 144.155 175.423 144.188C175.333 144.22 175.233 144.216 175.146 144.176C175.059 144.137 174.992 144.064 174.959 143.975C174.926 143.885 174.93 143.787 174.97 143.7C176.047 141.397 178.184 139.967 180.55 139.967H180.558C182.984 139.97 185.093 141.397 186.198 143.781C186.223 143.836 186.234 143.896 186.23 143.955C186.226 144.015 186.207 144.073 186.174 144.124C186.142 144.174 186.097 144.216 186.044 144.245C185.991 144.274 185.932 144.289 185.871 144.289L185.869 144.289Z" fill="#481200"/>
<path d="M172.164 158.617C170.596 158.626 169.041 158.34 167.581 157.776C167.494 157.739 167.426 157.67 167.389 157.584C167.353 157.498 167.353 157.401 167.387 157.314C167.422 157.227 167.49 157.157 167.576 157.119C167.662 157.081 167.759 157.077 167.848 157.109C171.863 158.684 176.835 157.872 180.513 155.036C180.589 154.977 180.685 154.951 180.78 154.963C180.875 154.975 180.962 155.024 181.02 155.099C181.079 155.174 181.106 155.269 181.094 155.363C181.082 155.458 181.033 155.543 180.957 155.602C178.441 157.54 175.35 158.6 172.164 158.617Z" fill="#CC521A"/>
<path d="M204.258 150.253C204.195 150.253 204.133 150.237 204.079 150.206C202.952 149.568 202.475 148.582 202.804 147.571C203.181 146.409 204.681 145.355 206.821 145.572C206.911 145.588 206.991 145.638 207.046 145.71C207.101 145.783 207.126 145.873 207.117 145.963C207.107 146.054 207.064 146.137 206.995 146.196C206.926 146.256 206.836 146.287 206.745 146.285C205.017 146.103 203.774 146.925 203.492 147.79C203.273 148.464 203.618 149.117 204.439 149.582C204.508 149.621 204.563 149.682 204.593 149.755C204.624 149.828 204.63 149.909 204.609 149.986C204.589 150.062 204.543 150.13 204.48 150.178C204.417 150.226 204.339 150.252 204.259 150.252L204.258 150.253Z" fill="#CC521A"/>
<path d="M208.023 212.241C207.644 212.241 207.268 212.172 206.915 212.036C197.344 208.366 185.52 206.09 179.669 205.478C177.981 205.301 177.339 204.501 177.515 202.827C177.691 201.153 179.064 200.995 180.752 201.176C186.073 201.733 195.797 201.996 204.908 204.88C204.606 197.543 202.84 190.338 199.711 183.682C199.535 183.32 199.433 182.927 199.411 182.525C199.389 182.124 199.447 181.722 199.582 181.343C199.717 180.964 199.927 180.615 200.198 180.317C200.47 180.018 200.798 179.776 201.165 179.604C201.531 179.432 201.928 179.333 202.333 179.314C202.738 179.295 203.143 179.355 203.524 179.492C203.906 179.629 204.256 179.839 204.555 180.11C204.854 180.381 205.096 180.709 205.267 181.073C209.341 189.606 211.356 199.358 211.094 209.274C211.073 210.069 210.74 210.823 210.166 211.378C209.592 211.933 208.823 212.243 208.021 212.243L208.023 212.241Z" fill="#FF8846"/>
<path d="M213.316 194.558C208.725 196.765 204.57 197.546 199.136 197.812C191.378 175.26 201.199 169.713 203.623 172.862C206.027 175.984 212.859 191.59 213.316 194.558Z" fill="#FFF70E"/>
<path d="M176.168 201.534H167.26C166.325 201.534 165.567 202.286 165.567 203.213V206.31C165.567 207.237 166.325 207.989 167.26 207.989H176.168C177.103 207.989 177.861 207.237 177.861 206.31V203.213C177.861 202.286 177.103 201.534 176.168 201.534Z" fill="#A3A4E8"/>
<path d="M178.946 207.988H176.053C175.626 207.988 175.203 207.905 174.808 207.742C174.413 207.58 174.054 207.342 173.752 207.043C173.45 206.743 173.21 206.387 173.046 205.996C172.883 205.604 172.799 205.184 172.799 204.76C172.799 204.337 172.883 203.917 173.046 203.525C173.21 203.134 173.45 202.778 173.752 202.478C174.054 202.178 174.413 201.941 174.808 201.778C175.203 201.616 175.626 201.533 176.053 201.533H178.946C179.373 201.533 179.797 201.616 180.192 201.778C180.586 201.941 180.945 202.178 181.247 202.478C181.55 202.778 181.789 203.134 181.953 203.525C182.117 203.917 182.201 204.337 182.201 204.76C182.201 205.184 182.117 205.604 181.953 205.996C181.789 206.387 181.55 206.743 181.247 207.043C180.945 207.342 180.586 207.58 180.192 207.742C179.797 207.905 179.373 207.988 178.946 207.988Z" fill="#CECEFF"/>
<path d="M183.538 202.27C182.591 201.075 180.934 202.37 180.031 201.175C178.467 199.106 171.352 197.947 170.629 200.099C170.609 200.155 170.604 200.215 170.614 200.274C169.011 200.21 167.737 200.307 167.737 200.816C167.737 201.375 168.386 201.69 169.354 201.88C169.207 201.943 169.08 202.044 168.987 202.172C168.893 202.3 168.836 202.451 168.821 202.609C168.821 203.264 169.877 203.47 171.351 203.618C171.348 203.64 171.349 203.663 171.353 203.685C171.714 205.478 180.829 207.914 183.285 204.76C183.768 204.141 184.026 202.887 183.538 202.27Z" fill="#FF8846"/>
<path d="M139.538 201.894C139.267 198.939 147.416 196.156 151.829 201.894C152.401 202.635 140.013 207.082 139.538 201.894Z" fill="#A84516"/>
<path d="M161.776 201.892H139.531V208.347H162.46L161.776 201.892Z" fill="#B4EAFF"/>
<path d="M148.397 201.892H111.326V208.347H149.081L148.397 201.892Z" fill="#3FBDED"/>
<path d="M142.238 141.647H62.0795L67.9703 197.231H148.129L142.238 141.647Z" fill="#3FBDED"/>
<path d="M136.602 141.647H56.4432L62.3341 197.231H142.493L136.602 141.647Z" fill="white"/>
<path d="M60.9543 183.567L62.3341 197.23H142.493L60.9543 183.567Z" fill="#B4EAFF"/>
<path d="M125.256 201.892H103.009V208.347H125.938L125.256 201.892Z" fill="white"/>
<path d="M94.312 176.073L93.7548 208.348H114.368L106.97 176.073H94.312Z" fill="#B4EAFF"/>
<path d="M228.647 180.912L226.411 181.391L231.433 204.471L233.668 203.993L228.647 180.912Z" fill="#A3A4E8"/>
<path d="M228.645 180.913L226.411 181.391L227.028 178.531L228.645 180.913Z" fill="white"/>
<path d="M233.66 203.983L231.426 204.46L228.645 180.913L233.66 203.983Z" fill="#CECEFF"/>
<path d="M238.462 177.226L238.295 177.807L239.466 178.138L239.633 177.557L238.462 177.226Z" fill="#A3A4E8"/>
<path d="M234.51 204.358L232.311 203.737L237.856 184.431L240.054 185.052L239.327 187.584L234.51 204.358Z" fill="#CECEFF"/>
<path d="M243.233 175.906L240.013 174.997L237.345 184.287L240.565 185.197L243.233 175.906Z" fill="#A3A4E8"/>
<path d="M240.016 185.041L237.82 184.421L237.57 185.292L239.327 187.584L240.016 185.041Z" fill="#A3A4E8"/>
<path d="M238.378 176.418L236.21 183.967L236.795 184.132L238.963 176.584L238.378 176.418Z" fill="#A3A4E8"/>
<path d="M241.798 187.441H225.884V208.746H241.798V187.441Z" fill="#B4EAFF"/>
<path d="M238.997 187.441C240.055 202.609 239.332 206.554 225.882 205.067V208.746H241.798V187.441H238.997Z" fill="#3FBDED"/>
<path d="M264.284 208.114H26.5705V213.655H264.284V208.114Z" fill="#0081B2"/>
<path d="M256.5 232.732L256.518 213.655H34.8923V220.836L256.5 232.732Z" fill="#3FBDED"/>
<path d="M254.142 82.8365H203.781V111.462H220.472V121.565L235.754 111.462H254.142V82.8365Z" fill="white"/>
<path d="M223.443 96.5181C223.443 96.976 223.307 97.4236 223.05 97.8043C222.793 98.1851 222.429 98.4818 222.002 98.6571C221.576 98.8323 221.106 98.8782 220.653 98.7889C220.201 98.6996 219.785 98.4791 219.458 98.1553C219.131 97.8316 218.909 97.419 218.819 96.9699C218.729 96.5208 218.775 96.0553 218.952 95.6323C219.128 95.2092 219.428 94.8476 219.811 94.5931C220.195 94.3387 220.647 94.2028 221.108 94.2028C221.415 94.2027 221.719 94.2626 222.002 94.3789C222.285 94.4953 222.543 94.6658 222.759 94.8808C222.976 95.0958 223.148 95.351 223.266 95.632C223.383 95.9129 223.443 96.214 223.443 96.5181Z" fill="#B4EAFF"/>
<path d="M231.296 96.5181C231.296 96.976 231.159 97.4236 230.903 97.8044C230.646 98.1851 230.282 98.4819 229.855 98.6571C229.429 98.8323 228.959 98.8782 228.506 98.7889C228.053 98.6995 227.637 98.479 227.311 98.1552C226.984 97.8314 226.762 97.4189 226.672 96.9697C226.582 96.5206 226.628 96.0551 226.805 95.632C226.982 95.209 227.281 94.8474 227.665 94.593C228.049 94.3386 228.5 94.2028 228.962 94.2028C229.581 94.2028 230.175 94.4467 230.613 94.8809C231.05 95.3151 231.296 95.904 231.296 96.5181Z" fill="#B4EAFF"/>
<path d="M236.815 98.833C238.104 98.833 239.149 97.7964 239.149 96.5177C239.149 95.239 238.104 94.2025 236.815 94.2025C235.525 94.2025 234.48 95.239 234.48 96.5177C234.48 97.7964 235.525 98.833 236.815 98.833Z" fill="#B4EAFF"/>
</g>
<defs>
<clipPath id="clip0">
<rect width="274" height="246" fill="white"/>
</clipPath>
</defs>
</svg>
