<svg width="203" height="240" viewBox="0 0 203 240" fill="none" xmlns="http://www.w3.org/2000/svg">
<g opacity="0.8">
<path opacity="0.2" d="M63.0225 92.8709H5.9975C4.35605 92.8709 3.02539 94.1616 3.02539 95.7536V145.973C3.02539 147.566 4.35605 148.856 5.9975 148.856H63.0225C64.6639 148.856 65.9946 147.566 65.9946 145.973V95.7536C65.9946 94.1616 64.6639 92.8709 63.0225 92.8709Z" fill="white"/>
<path opacity="0.3" d="M63.5774 92.3692H5.43321C4.79299 92.3692 4.17914 92.6165 3.72732 93.0564C3.2755 93.4964 3.02293 94.0927 3.02541 94.7137V95.2063C3.02541 94.5869 3.2791 93.9929 3.73065 93.555C4.1822 93.117 4.79463 92.8709 5.43321 92.8709H63.5774C64.9072 92.8709 65.9852 93.9165 65.9852 95.2063V94.7137C65.9852 93.4224 64.9087 92.3742 63.5774 92.3692Z" fill="#00B3FF"/>
<path opacity="0.3" d="M63.5774 92.8709H5.43317C4.10339 92.8709 3.02539 93.9165 3.02539 95.2063V101.483H65.9852V95.2063C65.9852 93.9165 64.9072 92.8709 63.5774 92.8709Z" fill="#00B3FF"/>
<path opacity="0.4" d="M63.5774 92.8709H5.43317C4.10339 92.8709 3.02539 93.9165 3.02539 95.2063V95.2884C3.02539 94.669 3.27907 94.075 3.73061 93.637C4.18216 93.1991 4.79459 92.953 5.43317 92.953H63.5774C64.9072 92.953 65.9852 93.9986 65.9852 95.2884V95.2063C65.9852 93.9165 64.9072 92.8709 63.5774 92.8709Z" fill="#00E6FF"/>
<path opacity="0.4" d="M65.9946 101.136H3.02539V101.668H65.9946V101.136Z" fill="#00E6FF"/>
<path style="mix-blend-mode:multiply" opacity="0.81" d="M60.4924 104.073H8.71567C7.469 104.073 6.45837 105.054 6.45837 106.263V143.857C6.45837 145.066 7.469 146.046 8.71567 146.046H60.4924C61.7391 146.046 62.7497 145.066 62.7497 143.857V106.263C62.7497 105.054 61.7391 104.073 60.4924 104.073Z" fill="url(#paint0_linear)"/>
<path opacity="0.3" d="M7.77515 99.503C9.09974 99.503 10.1735 98.4615 10.1735 97.1768C10.1735 95.892 9.09974 94.8505 7.77515 94.8505C6.45056 94.8505 5.37677 95.892 5.37677 97.1768C5.37677 98.4615 6.45056 99.503 7.77515 99.503Z" fill="#0042C0"/>
<path opacity="0.4" d="M7.77514 99.4119C6.4703 99.412 5.40672 98.3967 5.38617 97.1312C5.38617 97.1312 5.38617 97.1312 5.38617 97.1768C5.46559 98.4076 6.51787 99.3663 7.78925 99.3663C9.06063 99.3663 10.1129 98.4076 10.1923 97.1768C10.1923 97.1768 10.1923 97.1768 10.1923 97.1312C10.1717 98.4074 9.09095 99.4271 7.77514 99.4119Z" fill="#00E6FF"/>
<path opacity="0.3" d="M7.77517 98.9831C8.80368 98.9831 9.63744 98.1744 9.63744 97.1768C9.63744 96.1792 8.80368 95.3705 7.77517 95.3705C6.74667 95.3705 5.9129 96.1792 5.9129 97.1768C5.9129 98.1744 6.74667 98.9831 7.77517 98.9831Z" fill="#00B3FF"/>
<path opacity="0.8" d="M7.77514 98.6547C8.61664 98.6547 9.29882 97.993 9.29882 97.1768C9.29882 96.3606 8.61664 95.699 7.77514 95.699C6.93364 95.699 6.25146 96.3606 6.25146 97.1768C6.25146 97.993 6.93364 98.6547 7.77514 98.6547Z" fill="#FF3D40"/>
<path opacity="0.8" d="M7.77514 95.7445C8.18651 95.7346 8.58434 95.8874 8.87708 96.1679C9.16982 96.4484 9.33227 96.8324 9.32703 97.2315C9.37201 96.6775 9.09273 96.1458 8.60419 95.8554C8.11565 95.565 7.50046 95.565 7.01192 95.8554C6.52338 96.1458 6.2441 96.6775 6.28908 97.2315C6.27859 96.4238 6.94249 95.7595 7.77514 95.7445Z" fill="#FF8D8E"/>
<path opacity="0.8" d="M7.77518 98.0617C8.27904 98.0617 8.6875 97.6655 8.6875 97.1768C8.6875 96.6881 8.27904 96.2919 7.77518 96.2919C7.27132 96.2919 6.86285 96.6881 6.86285 97.1768C6.86285 97.6655 7.27132 98.0617 7.77518 98.0617Z" fill="#C32717"/>
<path opacity="0.8" d="M7.77511 96.3193C8.29455 96.3193 8.71565 96.7277 8.71565 97.2315C8.80159 96.8658 8.64793 96.4863 8.32836 96.275C8.00879 96.0638 7.58845 96.0638 7.26888 96.275C6.94931 96.4863 6.79566 96.8658 6.88159 97.2315C6.88097 96.745 7.27411 96.3436 7.77511 96.3193Z" fill="#FF8D8E"/>
<path opacity="0.3" d="M14.7352 99.503C16.0598 99.503 17.1336 98.4615 17.1336 97.1768C17.1336 95.892 16.0598 94.8505 14.7352 94.8505C13.4106 94.8505 12.3368 95.892 12.3368 97.1768C12.3368 98.4615 13.4106 99.503 14.7352 99.503Z" fill="#0042C0"/>
<path opacity="0.4" d="M14.7352 99.4119C13.4267 99.417 12.3574 98.4002 12.3368 97.1312C12.3368 97.1312 12.3368 97.1312 12.3368 97.1768C12.4162 98.4076 13.4685 99.3663 14.7399 99.3663C16.0113 99.3663 17.0635 98.4076 17.143 97.1768C17.143 97.1768 17.143 97.1768 17.143 97.1312C17.1223 98.4038 16.0473 99.4221 14.7352 99.4119Z" fill="#00E6FF"/>
<path opacity="0.3" d="M14.7352 98.9831C15.7637 98.9831 16.5975 98.1744 16.5975 97.1768C16.5975 96.1792 15.7637 95.3705 14.7352 95.3705C13.7067 95.3705 12.8729 96.1792 12.8729 97.1768C12.8729 98.1744 13.7067 98.9831 14.7352 98.9831Z" fill="#00B3FF"/>
<path opacity="0.8" d="M14.7352 98.6547C15.5767 98.6547 16.2588 97.993 16.2588 97.1768C16.2588 96.3606 15.5767 95.699 14.7352 95.699C13.8937 95.699 13.2115 96.3606 13.2115 97.1768C13.2115 97.993 13.8937 98.6547 14.7352 98.6547Z" fill="#FFCD00"/>
<path opacity="0.8" d="M14.7352 95.7445C15.1401 95.7445 15.5281 95.9017 15.8126 96.1811C16.0972 96.4605 16.2545 96.8388 16.2495 97.2315C16.2944 96.6775 16.0152 96.1458 15.5266 95.8554C15.0381 95.565 14.4229 95.565 13.9343 95.8554C13.4458 96.1458 13.1665 96.6775 13.2115 97.2315C13.2064 96.8372 13.365 96.4575 13.6516 96.1779C13.9382 95.8982 14.3287 95.7421 14.7352 95.7445Z" fill="#FFEC00"/>
<path opacity="0.8" d="M14.7351 98.0617C15.239 98.0617 15.6475 97.6655 15.6475 97.1768C15.6475 96.6881 15.239 96.2919 14.7351 96.2919C14.2313 96.2919 13.8228 96.6881 13.8228 97.1768C13.8228 97.6655 14.2313 98.0617 14.7351 98.0617Z" fill="#FFA600"/>
<path opacity="0.8" d="M14.7352 96.3193C15.2546 96.3193 15.6757 96.7277 15.6757 97.2315C15.7617 96.8658 15.608 96.4863 15.2884 96.275C14.9689 96.0638 14.5485 96.0638 14.229 96.275C13.9094 96.4863 13.7557 96.8658 13.8417 97.2315C13.841 96.745 14.2342 96.3436 14.7352 96.3193Z" fill="#FFBC00"/>
<path opacity="0.3" d="M21.6857 99.503C23.0103 99.503 24.0841 98.4615 24.0841 97.1768C24.0841 95.892 23.0103 94.8505 21.6857 94.8505C20.3611 94.8505 19.2874 95.892 19.2874 97.1768C19.2874 98.4615 20.3611 99.503 21.6857 99.503Z" fill="#0042C0"/>
<path opacity="0.4" d="M21.6857 99.4119C20.3772 99.417 19.3079 98.4002 19.2874 97.1312C19.2874 97.1312 19.2874 97.1312 19.2874 97.1768C19.3668 98.4076 20.4191 99.3663 21.6904 99.3663C22.9618 99.3663 24.0141 98.4076 24.0935 97.1768C24.0935 97.1768 24.0935 97.1768 24.0935 97.1312C24.0729 98.4038 22.9979 99.4221 21.6857 99.4119Z" fill="#00E6FF"/>
<path opacity="0.3" d="M21.6858 98.9831C22.7143 98.9831 23.548 98.1744 23.548 97.1768C23.548 96.1792 22.7143 95.3705 21.6858 95.3705C20.6573 95.3705 19.8235 96.1792 19.8235 97.1768C19.8235 98.1744 20.6573 98.9831 21.6858 98.9831Z" fill="#00B3FF"/>
<path opacity="0.8" d="M21.6857 98.6547C22.5272 98.6547 23.2094 97.993 23.2094 97.1768C23.2094 96.3606 22.5272 95.699 21.6857 95.699C20.8442 95.699 20.162 96.3606 20.162 97.1768C20.162 97.993 20.8442 98.6547 21.6857 98.6547Z" fill="#45D788"/>
<path opacity="0.8" d="M21.6857 95.7445C22.0906 95.7445 22.4787 95.9017 22.7632 96.1811C23.0477 96.4605 23.205 96.8388 23.2 97.2315C23.245 96.6775 22.9657 96.1458 22.4772 95.8554C21.9886 95.565 21.3734 95.565 20.8849 95.8554C20.3964 96.1458 20.1171 96.6775 20.1621 97.2315C20.157 96.8372 20.3156 96.4575 20.6022 96.1779C20.8888 95.8982 21.2792 95.7421 21.6857 95.7445Z" fill="#91F6AB"/>
<path opacity="0.8" d="M21.6858 98.0617C22.1896 98.0617 22.5981 97.6655 22.5981 97.1768C22.5981 96.6881 22.1896 96.2919 21.6858 96.2919C21.1819 96.2919 20.7734 96.6881 20.7734 97.1768C20.7734 97.6655 21.1819 98.0617 21.6858 98.0617Z" fill="#11AB6B"/>
<path opacity="0.8" d="M21.6858 96.3193C22.2052 96.3193 22.6263 96.7277 22.6263 97.2315C22.7122 96.8658 22.5586 96.4863 22.239 96.275C21.9194 96.0638 21.4991 96.0638 21.1795 96.275C20.86 96.4863 20.7063 96.8658 20.7922 97.2315C20.7916 96.745 21.1848 96.3436 21.6858 96.3193Z" fill="#91F6AB"/>
<path opacity="0.8" d="M48.6793 114.482H9.63744C9.51107 114.482 9.39001 114.433 9.30154 114.346C9.21307 114.258 9.16465 114.14 9.16708 114.017C9.16708 113.765 9.37772 113.561 9.63744 113.561H48.6793C48.8056 113.558 48.9277 113.605 49.0179 113.691C49.1082 113.777 49.159 113.894 49.159 114.017C49.159 114.274 48.9442 114.482 48.6793 114.482Z" fill="#00DA8F"/>
<path opacity="0.8" d="M54.9809 114.482H52.084C51.8191 114.482 51.6044 114.274 51.6044 114.017C51.6044 113.894 51.6552 113.777 51.7454 113.691C51.8357 113.605 51.9577 113.558 52.084 113.561H54.9809C55.2406 113.561 55.4512 113.765 55.4512 114.017C55.4537 114.14 55.4053 114.258 55.3168 114.346C55.2283 114.433 55.1073 114.482 54.9809 114.482Z" fill="#00DA8F"/>
<path opacity="0.8" d="M59.5895 114.482H57.4075C57.1426 114.482 56.9278 114.274 56.9278 114.017C56.9278 113.894 56.9786 113.777 57.0688 113.691C57.1591 113.605 57.2811 113.558 57.4075 113.561H59.5895C59.7159 113.558 59.8379 113.605 59.9281 113.691C60.0184 113.777 60.0692 113.894 60.0692 114.017C60.0692 114.274 59.8544 114.482 59.5895 114.482Z" fill="#00DA8F"/>
<path opacity="0.8" d="M31.5708 118.761H9.63744C9.51107 118.761 9.39001 118.712 9.30154 118.624C9.21307 118.537 9.16465 118.418 9.16708 118.296C9.16708 118.044 9.37772 117.839 9.63744 117.839H31.5708C31.8306 117.839 32.0412 118.044 32.0412 118.296C32.0436 118.418 31.9952 118.537 31.9067 118.624C31.8183 118.712 31.6972 118.761 31.5708 118.761Z" fill="#00FCFF"/>
<path opacity="0.8" d="M39.1892 118.761H32.897C32.7706 118.761 32.6496 118.712 32.5611 118.624C32.4726 118.537 32.4242 118.418 32.4267 118.296C32.4267 118.044 32.6373 117.84 32.897 117.84H39.1892C39.3156 117.837 39.4376 117.884 39.5278 117.97C39.6181 118.056 39.6689 118.173 39.6689 118.296C39.6689 118.553 39.4541 118.761 39.1892 118.761Z" fill="#00FCFF"/>
<path opacity="0.8" d="M39.1892 121.224H35.2766C35.1502 121.224 35.0291 121.175 34.9407 121.087C34.8522 121 34.8038 120.881 34.8063 120.759C34.8063 120.507 35.0169 120.303 35.2766 120.303H39.1892C39.3156 120.3 39.4376 120.347 39.5279 120.433C39.6181 120.519 39.6689 120.636 39.6689 120.759C39.6689 121.016 39.4541 121.224 39.1892 121.224Z" fill="#00FCFF"/>
<path opacity="0.8" d="M33.3861 121.224H32.9346C32.6697 121.224 32.455 121.016 32.455 120.759C32.4549 120.636 32.5058 120.519 32.596 120.433C32.6862 120.347 32.8083 120.3 32.9346 120.303H33.3861C33.6458 120.303 33.8564 120.507 33.8564 120.759C33.8589 120.881 33.8105 121 33.722 121.087C33.6335 121.175 33.5125 121.224 33.3861 121.224Z" fill="#00FCFF"/>
<path opacity="0.8" d="M30.6491 121.224H27.1973C27.0709 121.224 26.9499 121.175 26.8614 121.087C26.7729 121 26.7245 120.881 26.727 120.759C26.727 120.507 26.9376 120.303 27.1973 120.303H30.6397C30.766 120.3 30.8881 120.347 30.9783 120.433C31.0685 120.519 31.1193 120.636 31.1193 120.759C31.1194 121.012 30.9103 121.219 30.6491 121.224Z" fill="#00FCFF"/>
<path opacity="0.8" d="M24.4698 121.224H21.0368C20.7719 121.224 20.5571 121.016 20.5571 120.759C20.5571 120.636 20.6079 120.519 20.6982 120.433C20.7884 120.347 20.9105 120.3 21.0368 120.303H24.4698C24.5961 120.3 24.7182 120.347 24.8084 120.433C24.8986 120.519 24.9495 120.636 24.9495 120.759C24.9495 121.016 24.7347 121.224 24.4698 121.224Z" fill="#00FCFF"/>
<path opacity="0.8" d="M18.2998 121.224H14.8574C14.5925 121.224 14.3777 121.016 14.3777 120.759C14.3777 120.636 14.4286 120.519 14.5188 120.433C14.609 120.347 14.7311 120.3 14.8574 120.303H18.2998C18.5595 120.303 18.7701 120.507 18.7701 120.759C18.7726 120.881 18.7242 121 18.6357 121.087C18.5472 121.175 18.4262 121.224 18.2998 121.224Z" fill="#00FCFF"/>
<path opacity="0.8" d="M51.0212 124.216H14.8574C14.5925 124.216 14.3777 124.008 14.3777 123.751C14.3777 123.628 14.4286 123.511 14.5188 123.425C14.609 123.339 14.7311 123.292 14.8574 123.295H51.0212C51.2809 123.295 51.4916 123.499 51.4916 123.751C51.494 123.873 51.4456 123.992 51.3571 124.079C51.2686 124.167 51.1476 124.216 51.0212 124.216Z" fill="#FF4F92"/>
<path opacity="0.8" d="M10.8789 121.224H9.63742C9.51105 121.224 9.38998 121.175 9.30152 121.087C9.21305 121 9.16462 120.881 9.16715 120.759C9.16715 120.507 9.37769 120.303 9.63742 120.303H10.8789C11.0053 120.3 11.1273 120.347 11.2176 120.433C11.3078 120.519 11.3586 120.636 11.3586 120.759C11.3586 121.016 11.1438 121.224 10.8789 121.224Z" fill="#00FCFF"/>
<path opacity="0.8" d="M10.8789 124.216H9.63742C9.51105 124.216 9.38998 124.167 9.30152 124.079C9.21305 123.992 9.16462 123.873 9.16715 123.751C9.16715 123.499 9.37769 123.295 9.63742 123.295H10.8789C11.0053 123.292 11.1273 123.339 11.2176 123.425C11.3078 123.511 11.3586 123.628 11.3586 123.751C11.3586 123.874 11.3081 123.993 11.2181 124.08C11.1282 124.167 11.0061 124.216 10.8789 124.216Z" fill="#00FCFF"/>
<path opacity="0.8" d="M10.8789 127.208H9.63741C9.41341 127.165 9.25226 126.974 9.25226 126.752C9.25226 126.531 9.41341 126.34 9.63741 126.296H10.8789C11.0694 126.259 11.2641 126.337 11.3721 126.493C11.4801 126.65 11.4801 126.854 11.3721 127.011C11.2641 127.168 11.0694 127.245 10.8789 127.208Z" fill="#00FCFF"/>
<path opacity="0.8" d="M58.7336 124.216H54.2473C53.9823 124.216 53.7676 124.008 53.7676 123.751C53.7676 123.628 53.8184 123.511 53.9086 123.425C53.9989 123.339 54.1209 123.292 54.2473 123.295H58.7336C58.86 123.292 58.982 123.339 59.0723 123.425C59.1625 123.511 59.2133 123.628 59.2133 123.751C59.2133 124.008 58.9985 124.216 58.7336 124.216Z" fill="#FF4F92"/>
<path opacity="0.8" d="M29.4546 127.208H14.7351C14.5447 127.245 14.35 127.168 14.242 127.011C14.1339 126.854 14.1339 126.65 14.242 126.493C14.35 126.337 14.5447 126.259 14.7351 126.296H29.4546C29.645 126.259 29.8398 126.337 29.9478 126.493C30.0558 126.65 30.0558 126.854 29.9478 127.011C29.8398 127.168 29.645 127.245 29.4546 127.208Z" fill="#FF4F92"/>
<path opacity="0.8" d="M52.084 131.122H35.2765C35.0168 131.122 34.8062 130.918 34.8062 130.666C34.8037 130.543 34.8522 130.425 34.9406 130.337C35.0291 130.25 35.1502 130.201 35.2765 130.201H52.084C52.2104 130.201 52.3314 130.25 52.4199 130.337C52.5084 130.425 52.5568 130.543 52.5544 130.666C52.5544 130.918 52.3437 131.122 52.084 131.122Z" fill="#FFD600"/>
<path opacity="0.8" d="M52.084 129.051H47.2402C46.9753 129.051 46.7606 128.843 46.7606 128.586C46.7606 128.463 46.8114 128.346 46.9016 128.26C46.9918 128.174 47.1139 128.127 47.2402 128.13H52.084C52.3437 128.13 52.5543 128.334 52.5543 128.586C52.5568 128.708 52.5084 128.827 52.4199 128.914C52.3315 129.002 52.2104 129.051 52.084 129.051Z" fill="#FFD600"/>
<path opacity="0.8" d="M27.1973 110.313H9.63744C9.37772 110.313 9.16708 110.109 9.16708 109.857C9.16465 109.735 9.21307 109.616 9.30154 109.529C9.39001 109.441 9.51107 109.392 9.63744 109.392H27.1973C27.4623 109.392 27.677 109.6 27.677 109.857C27.677 109.98 27.6262 110.097 27.536 110.183C27.4457 110.269 27.3237 110.316 27.1973 110.313Z" fill="#FF4F92"/>
<path opacity="0.8" d="M38.6061 139.496H9.63744C9.37772 139.496 9.16708 139.292 9.16708 139.04C9.16465 138.918 9.21307 138.799 9.30154 138.712C9.39001 138.624 9.51107 138.575 9.63744 138.575H38.6061C38.871 138.575 39.0858 138.783 39.0858 139.04C39.0858 139.163 39.035 139.28 38.9447 139.366C38.8545 139.452 38.7324 139.499 38.6061 139.496Z" fill="#FFD600"/>
<path opacity="0.8" d="M44.7948 134.132H36.8849C36.62 134.132 36.4052 133.924 36.4052 133.667C36.4052 133.545 36.456 133.427 36.5463 133.341C36.6365 133.255 36.7585 133.209 36.8849 133.211H44.7948C44.9212 133.209 45.0432 133.255 45.1335 133.341C45.2237 133.427 45.2745 133.545 45.2745 133.667C45.2745 133.924 45.0597 134.132 44.7948 134.132Z" fill="#00DA8F"/>
<path opacity="0.8" d="M59.5895 134.132H48.6793C48.4143 134.132 48.1996 133.924 48.1996 133.667C48.1996 133.545 48.2504 133.427 48.3406 133.341C48.4309 133.255 48.5529 133.209 48.6793 133.211H59.5895C59.7159 133.209 59.8379 133.255 59.9282 133.341C60.0184 133.427 60.0692 133.545 60.0692 133.667C60.0692 133.924 59.8544 134.132 59.5895 134.132Z" fill="#00DA8F"/>
<path opacity="0.8" d="M59.5895 138.411H48.6793C48.5529 138.413 48.4309 138.366 48.3406 138.281C48.2504 138.195 48.1996 138.077 48.1996 137.955C48.1996 137.698 48.4143 137.49 48.6793 137.49H59.5895C59.8544 137.49 60.0692 137.698 60.0692 137.955C60.0692 138.077 60.0184 138.195 59.9282 138.281C59.8379 138.366 59.7159 138.413 59.5895 138.411Z" fill="#00DA8F"/>
<path opacity="0.8" d="M13.2115 142.452H9.63742C9.37769 142.452 9.16715 142.248 9.16715 141.996C9.16462 141.874 9.21305 141.755 9.30152 141.668C9.38998 141.58 9.51105 141.531 9.63742 141.531H13.2115C13.3378 141.531 13.4589 141.58 13.5474 141.668C13.6358 141.755 13.6843 141.874 13.6817 141.996C13.6817 142.248 13.4712 142.452 13.2115 142.452Z" fill="#00DA8F"/>
<path opacity="0.8" d="M42.246 142.452H15.3465C15.2202 142.455 15.0981 142.408 15.0079 142.322C14.9176 142.236 14.8668 142.119 14.8668 141.996C14.8668 141.739 15.0816 141.531 15.3465 141.531H42.246C42.5109 141.531 42.7256 141.739 42.7256 141.996C42.7256 142.119 42.6748 142.236 42.5846 142.322C42.4943 142.408 42.3723 142.455 42.246 142.452Z" fill="#00DA8F"/>
</g>
<g opacity="0.8">
<path opacity="0.2" d="M128.295 1.57211H8.47984C5.84625 1.57211 3.7113 3.64286 3.7113 6.19726V78.3934C3.7113 80.9478 5.84625 83.0186 8.47984 83.0186H128.295C130.929 83.0186 133.064 80.9478 133.064 78.3934V6.19726C133.064 3.64286 130.929 1.57211 128.295 1.57211Z" fill="white"/>
<path opacity="0.53" d="M129.886 82.6354H6.89109C6.03816 82.6428 5.21796 82.3174 4.61483 81.7324C4.0117 81.1474 3.67624 80.3519 3.68372 79.5246V79.8986C3.68372 81.6015 5.10714 82.982 6.86287 82.982H129.886C131.641 82.982 133.065 81.6015 133.065 79.8986V79.4881C133.085 80.3176 132.759 81.1199 132.16 81.7126C131.561 82.3053 130.741 82.6381 129.886 82.6354Z" fill="white"/>
<path opacity="0.3" d="M129.387 0.814924H7.38981C6.40959 0.80763 5.46694 1.18021 4.77116 1.84993C4.07538 2.51965 3.68408 3.43109 3.68408 4.38186V5.13903C3.68408 3.16907 5.33056 1.5721 7.3616 1.5721H129.387C131.418 1.5721 133.065 3.16907 133.065 5.13903V4.38186C133.065 3.43585 132.677 2.52858 131.988 1.85965C131.298 1.19072 130.363 0.814924 129.387 0.814924Z" fill="#00B3FF"/>
<path opacity="0.3" d="M129.387 1.572H7.38957C6.40935 1.56481 5.4667 1.93739 4.77091 2.60711C4.07513 3.27683 3.68384 4.18827 3.68384 5.13904V14.7086H133.065V5.13904C133.065 3.16908 131.418 1.572 129.387 1.572Z" fill="#00B3FF"/>
<path opacity="0.4" d="M129.387 1.5721H7.38957C6.40935 1.5648 5.4667 1.93738 4.77091 2.6071C4.07513 3.27682 3.68384 4.18826 3.68384 5.13903V5.26674C3.68384 3.29678 5.33032 1.69981 7.36135 1.69981H129.387C131.418 1.69981 133.065 3.29678 133.065 5.26674V5.13903C133.065 4.19302 132.677 3.28576 131.987 2.61683C131.298 1.9479 130.362 1.5721 129.387 1.5721Z" fill="#00E6FF"/>
<path opacity="0.4" d="M133.064 14.1795H3.7113V14.7117H133.064V14.1795Z" fill="#00E6FF"/>
<path style="mix-blend-mode:multiply" opacity="0.81" d="M124.186 18.6587H12.8823C10.711 18.6587 8.95087 20.366 8.95087 22.472V74.9086C8.95087 77.0146 10.711 78.7218 12.8823 78.7218H124.186C126.357 78.7218 128.117 77.0146 128.117 74.9086V22.472C128.117 20.366 126.357 18.6587 124.186 18.6587Z" fill="url(#paint1_linear)"/>
<path opacity="0.3" d="M10.973 11.689C12.9937 11.689 14.6317 10.1002 14.6317 8.14036C14.6317 6.18048 12.9937 4.59167 10.973 4.59167C8.95239 4.59167 7.31433 6.18048 7.31433 8.14036C7.31433 10.1002 8.95239 11.689 10.973 11.689Z" fill="#0042C0"/>
<path opacity="0.4" d="M10.973 11.5613C8.98148 11.5567 7.35957 10.0078 7.32374 8.07648C7.31917 8.09753 7.31917 8.11928 7.32374 8.14034C7.32374 10.1002 8.9618 11.689 10.9824 11.689C13.0031 11.689 14.6411 10.1002 14.6411 8.14034C14.6457 8.11928 14.6457 8.09753 14.6411 8.07648C14.6052 10.0149 12.9719 11.5666 10.973 11.5613Z" fill="#00E6FF"/>
<path opacity="0.3" d="M10.9731 10.8954C12.5418 10.8954 13.8135 9.66192 13.8135 8.14037C13.8135 6.61881 12.5418 5.38535 10.9731 5.38535C9.40433 5.38535 8.13263 6.61881 8.13263 8.14037C8.13263 9.66192 9.40433 10.8954 10.9731 10.8954Z" fill="#00B3FF"/>
<path opacity="0.8" d="M10.973 10.3936C12.2561 10.3936 13.2962 9.38481 13.2962 8.14036C13.2962 6.89591 12.2561 5.88708 10.973 5.88708C9.69001 5.88708 8.6499 6.89591 8.6499 8.14036C8.6499 9.38481 9.69001 10.3936 10.973 10.3936Z" fill="#FF3D40"/>
<path opacity="0.8" d="M10.973 5.95092C12.2415 5.95581 13.2714 6.94663 13.2868 8.17683C13.2868 6.93238 12.2467 5.92355 10.9636 5.92355C9.68061 5.92355 8.6405 6.93238 8.6405 8.17683C8.65599 6.93952 9.69729 5.94582 10.973 5.95092Z" fill="#FF8D8E"/>
<path opacity="0.8" d="M10.9731 9.49963C11.747 9.49963 12.3745 8.89106 12.3745 8.14036C12.3745 7.38966 11.747 6.7811 10.9731 6.7811C10.1991 6.7811 9.57166 7.38966 9.57166 8.14036C9.57166 8.89106 10.1991 9.49963 10.9731 9.49963Z" fill="#C32717"/>
<path opacity="0.8" d="M10.973 6.85408C11.7309 6.85393 12.3497 7.44191 12.365 8.17686C12.365 7.42112 11.7334 6.80847 10.9542 6.80847C10.175 6.80847 9.5434 7.42112 9.5434 8.17686C9.55078 7.81714 9.70589 7.47515 9.97429 7.2268C10.2427 6.97845 10.6022 6.84429 10.973 6.85408Z" fill="#FF8D8E"/>
<path opacity="0.3" d="M21.5823 11.689C23.603 11.689 25.2411 10.1002 25.2411 8.14036C25.2411 6.18048 23.603 4.59167 21.5823 4.59167C19.5617 4.59167 17.9236 6.18048 17.9236 8.14036C17.9236 10.1002 19.5617 11.689 21.5823 11.689Z" fill="#0042C0"/>
<path opacity="0.4" d="M21.5541 11.5613C19.5589 11.5616 17.9313 10.0114 17.8954 8.07648C17.8954 8.07648 17.8954 8.12209 17.8954 8.14034C17.9943 10.0328 19.6051 11.518 21.5588 11.518C23.5125 11.518 25.1233 10.0328 25.2222 8.14034C25.2222 8.14034 25.2222 8.09472 25.2222 8.07648C25.1862 10.0149 23.553 11.5666 21.5541 11.5613Z" fill="#00E6FF"/>
<path opacity="0.3" d="M21.5823 10.8954C23.151 10.8954 24.4227 9.66192 24.4227 8.14037C24.4227 6.61881 23.151 5.38535 21.5823 5.38535C20.0136 5.38535 18.7419 6.61881 18.7419 8.14037C18.7419 9.66192 20.0136 10.8954 21.5823 10.8954Z" fill="#00B3FF"/>
<path opacity="0.8" d="M21.5824 10.3936C22.8654 10.3936 23.9055 9.38481 23.9055 8.14036C23.9055 6.89591 22.8654 5.88708 21.5824 5.88708C20.2993 5.88708 19.2592 6.89591 19.2592 8.14036C19.2592 9.38481 20.2993 10.3936 21.5824 10.3936Z" fill="#FFCD00"/>
<path opacity="0.8" d="M21.5541 5.95096C22.8225 5.95585 23.8524 6.94666 23.8678 8.17687C23.7899 6.99046 22.7751 6.06689 21.5494 6.06689C20.3237 6.06689 19.3089 6.99046 19.231 8.17687C19.2514 6.94519 20.2841 5.95577 21.5541 5.95096Z" fill="#FFEC00"/>
<path opacity="0.8" d="M21.5823 9.49963C22.3563 9.49963 22.9837 8.89106 22.9837 8.14036C22.9837 7.38966 22.3563 6.7811 21.5823 6.7811C20.8083 6.7811 20.1809 7.38966 20.1809 8.14036C20.1809 8.89106 20.8083 9.49963 21.5823 9.49963Z" fill="#FFA600"/>
<path opacity="0.8" d="M21.5541 6.85408C22.31 6.85874 22.9259 7.44397 22.9461 8.17686C22.9461 7.42112 22.3145 6.80847 21.5353 6.80847C20.7562 6.80847 20.1245 7.42112 20.1245 8.17686C20.145 7.42968 20.7837 6.83877 21.5541 6.85408Z" fill="#FFBC00"/>
<path opacity="0.3" d="M32.1823 11.689C34.2029 11.689 35.841 10.1002 35.841 8.14036C35.841 6.18048 34.2029 4.59167 32.1823 4.59167C30.1616 4.59167 28.5236 6.18048 28.5236 8.14036C28.5236 10.1002 30.1616 11.689 32.1823 11.689Z" fill="#0042C0"/>
<path opacity="0.4" d="M32.1823 11.5613C30.1907 11.5567 28.5688 10.0078 28.533 8.07648C28.533 8.07648 28.533 8.12209 28.533 8.14034C28.533 10.1002 30.171 11.689 32.1917 11.689C34.2123 11.689 35.8504 10.1002 35.8504 8.14034V8.07648C35.8144 10.0149 34.1811 11.5666 32.1823 11.5613Z" fill="#00E6FF"/>
<path opacity="0.3" d="M32.1822 10.8954C33.751 10.8954 35.0227 9.66192 35.0227 8.14037C35.0227 6.61881 33.751 5.38535 32.1822 5.38535C30.6135 5.38535 29.3418 6.61881 29.3418 8.14037C29.3418 9.66192 30.6135 10.8954 32.1822 10.8954Z" fill="#00B3FF"/>
<path opacity="0.8" d="M32.1822 10.3936C33.4652 10.3936 34.5053 9.38481 34.5053 8.14036C34.5053 6.89591 33.4652 5.88708 32.1822 5.88708C30.8992 5.88708 29.8591 6.89591 29.8591 8.14036C29.8591 9.38481 30.8992 10.3936 32.1822 10.3936Z" fill="#45D788"/>
<path opacity="0.8" d="M32.1822 5.95096C33.4522 5.95577 34.4849 6.94519 34.5053 8.17687C34.4274 6.99046 33.4126 6.06689 32.1869 6.06689C30.9612 6.06689 29.9464 6.99046 29.8685 8.17687C29.8839 6.94666 30.9138 5.95585 32.1822 5.95096Z" fill="#91F6AB"/>
<path opacity="0.8" d="M32.1822 9.49963C32.9562 9.49963 33.5836 8.89106 33.5836 8.14036C33.5836 7.38966 32.9562 6.7811 32.1822 6.7811C31.4083 6.7811 30.7808 7.38966 30.7808 8.14036C30.7808 8.89106 31.4083 9.49963 32.1822 9.49963Z" fill="#11AB6B"/>
<path opacity="0.8" d="M32.1822 6.85408C32.9418 6.85382 33.5633 7.44045 33.5837 8.17686C33.5837 7.42112 32.952 6.80847 32.1728 6.80847C31.3937 6.80847 30.762 7.42112 30.762 8.17686C30.7694 7.81875 30.9232 7.47818 31.1896 7.2301C31.456 6.98201 31.813 6.84675 32.1822 6.85408Z" fill="#91F6AB"/>
<path opacity="0.8" d="M15.2337 22.18L12.3932 24.9442L15.2337 27.6992" stroke="#00DA8F" stroke-width="3.42857" stroke-linecap="round" stroke-linejoin="round"/>
<path opacity="0.8" d="M22.3912 22.18L25.241 24.9442L22.3912 27.6992" stroke="#00DA8F" stroke-width="3.42857" stroke-linecap="round" stroke-linejoin="round"/>
<path opacity="0.8" d="M17.6132 28.1736L19.8705 22.18" stroke="#00DA8F" stroke-width="3.42857" stroke-linecap="round" stroke-linejoin="round"/>
<path opacity="0.8" d="M28.2602 29.0037C28.7017 29.0037 29.0596 28.6566 29.0596 28.2283C29.0596 27.8 28.7017 27.4529 28.2602 27.4529C27.8186 27.4529 27.4607 27.8 27.4607 28.2283C27.4607 28.6566 27.8186 29.0037 28.2602 29.0037Z" fill="#00DA8F"/>
<path opacity="0.8" d="M31.5897 29.0037C32.0312 29.0037 32.3891 28.6566 32.3891 28.2283C32.3891 27.8 32.0312 27.4529 31.5897 27.4529C31.1482 27.4529 30.7902 27.8 30.7902 28.2283C30.7902 28.6566 31.1482 29.0037 31.5897 29.0037Z" fill="#00DA8F"/>
<path opacity="0.8" d="M34.9098 29.0037C35.3513 29.0037 35.7093 28.6566 35.7093 28.2283C35.7093 27.8 35.3513 27.4529 34.9098 27.4529C34.4683 27.4529 34.1104 27.8 34.1104 28.2283C34.1104 28.6566 34.4683 29.0037 34.9098 29.0037Z" fill="#00DA8F"/>
<path opacity="0.8" d="M13.8135 33.8387H99.4027" stroke="#00DA8F" stroke-width="3.42857" stroke-linecap="round" stroke-linejoin="round"/>
<path opacity="0.8" d="M104.594 33.8387H111.188" stroke="#00DA8F" stroke-width="3.42857" stroke-linecap="round" stroke-linejoin="round"/>
<path opacity="0.8" d="M114.893 33.8387H123.311" stroke="#00DA8F" stroke-width="3.42857" stroke-linecap="round" stroke-linejoin="round"/>
<path opacity="0.8" d="M13.8135 40.3705H67.3584" stroke="#00FCFF" stroke-width="3.42857" stroke-linecap="round" stroke-linejoin="round"/>
<path opacity="0.8" d="M75.3248 40.3705H84.9183" stroke="#00FCFF" stroke-width="3.42857" stroke-linecap="round" stroke-linejoin="round"/>
<path opacity="0.8" d="M84.9183 44.129H58.8654" stroke="#00FCFF" stroke-width="3.42857" stroke-linecap="round" stroke-linejoin="round"/>
<path opacity="0.8" d="M55.2913 44.129H50.0337" stroke="#00FCFF" stroke-width="3.42857" stroke-linecap="round" stroke-linejoin="round"/>
<path opacity="0.8" d="M45.8671 44.129H40.6189" stroke="#00FCFF" stroke-width="3.42857" stroke-linecap="round" stroke-linejoin="round"/>
<path opacity="0.8" d="M36.4429 44.129H31.1946" stroke="#00FCFF" stroke-width="3.42857" stroke-linecap="round" stroke-linejoin="round"/>
<path opacity="0.8" d="M27.0281 44.129H21.7704" stroke="#00FCFF" stroke-width="3.42857" stroke-linecap="round" stroke-linejoin="round"/>
<path opacity="0.8" d="M102.967 48.6902H21.7704" stroke="#FF4F92" stroke-width="3.42857" stroke-linecap="round" stroke-linejoin="round"/>
<path opacity="0.8" d="M15.704 44.129H13.8135" stroke="#00FCFF" stroke-width="3.42857" stroke-linecap="round" stroke-linejoin="round"/>
<path opacity="0.8" d="M15.704 48.6902H13.8135" stroke="#00FCFF" stroke-width="3.42857" stroke-linecap="round" stroke-linejoin="round"/>
<path opacity="0.8" d="M15.704 53.2607H13.8135" stroke="#00FCFF" stroke-width="3.42857" stroke-linecap="round" stroke-linejoin="round"/>
<path opacity="0.8" d="M15.704 57.8311H13.8135" stroke="#00FCFF" stroke-width="3.42857" stroke-linecap="round" stroke-linejoin="round"/>
<path opacity="0.8" d="M107.886 48.6902H119.098" stroke="#FF4F92" stroke-width="3.42857" stroke-linecap="round" stroke-linejoin="round"/>
<path opacity="0.8" d="M21.5823 53.2607H44.0424" stroke="#FF4F92" stroke-width="3.42857" stroke-linecap="round" stroke-linejoin="round"/>
<path opacity="0.8" d="M21.5823 57.9406H44.0424" stroke="#FF4F92" stroke-width="3.42857" stroke-linecap="round" stroke-linejoin="round"/>
<path opacity="0.8" d="M21.5823 62.6204H44.0424" stroke="#FF4F92" stroke-width="3.42857" stroke-linecap="round" stroke-linejoin="round"/>
<path opacity="0.8" d="M21.5823 67.3004H44.0424" stroke="#FF4F92" stroke-width="3.42857" stroke-linecap="round" stroke-linejoin="round"/>
<path opacity="0.8" d="M58.8654 67.3004H104.594" stroke="#FFD600" stroke-width="3.42857" stroke-linecap="round" stroke-linejoin="round"/>
<path opacity="0.8" d="M85.9717 62.6204H104.594" stroke="#FFD600" stroke-width="3.42857" stroke-linecap="round" stroke-linejoin="round"/>
<path opacity="0.8" d="M97.2018 57.8311H104.594" stroke="#FFD600" stroke-width="3.42857" stroke-linecap="round" stroke-linejoin="round"/>
</g>
<path opacity="0.2" d="M194.914 45.0163H144.605C141.914 45.0163 139.733 47.1319 139.733 49.7418V130.951C139.733 133.561 141.914 135.677 144.605 135.677H194.914C197.605 135.677 199.786 133.561 199.786 130.951V49.7418C199.786 47.1319 197.605 45.0163 194.914 45.0163Z" fill="white"/>
<path opacity="0.28" d="M196.805 135.339H142.724C141.931 135.339 141.17 135.033 140.609 134.489C140.048 133.945 139.733 133.207 139.733 132.438V132.776C139.733 133.545 140.048 134.283 140.609 134.827C141.17 135.371 141.931 135.676 142.724 135.676H196.805C198.457 135.676 199.796 134.378 199.796 132.776V132.438C199.796 134.04 198.457 135.339 196.805 135.339Z" fill="white"/>
<path opacity="0.3" d="M197.492 44.5419H142C140.731 44.5419 139.701 45.537 139.695 46.7678V47.2422C139.701 46.0113 140.731 45.0162 142 45.0162H197.492C198.761 45.0162 199.791 46.0113 199.796 47.2422V46.7678C199.791 45.537 198.761 44.5419 197.492 44.5419Z" fill="#00B3FF"/>
<path opacity="0.3" d="M197.492 45.0163H142C140.731 45.0163 139.701 46.0114 139.695 47.2422V53.2266H199.758V47.2422C199.753 46.0255 198.746 45.0361 197.492 45.0163Z" fill="#00B3FF"/>
<path opacity="0.4" d="M197.492 45.0163H142C140.731 45.0163 139.701 46.0114 139.695 47.2422V47.3243C139.695 46.0899 140.727 45.0892 142 45.0892H197.492C198.764 45.0892 199.796 46.0899 199.796 47.3243V47.2422C199.791 46.0114 198.761 45.0163 197.492 45.0163Z" fill="#00E6FF"/>
<path opacity="0.4" d="M199.786 52.8981H139.733V53.4303H199.786V52.8981Z" fill="#00E6FF"/>
<path style="mix-blend-mode:multiply" opacity="0.6" d="M192.77 55.6988H146.938C144.766 55.6988 143.006 57.406 143.006 59.512V129.181C143.006 131.287 144.766 132.994 146.938 132.994H192.77C194.941 132.994 196.702 131.287 196.702 129.181V59.512C196.702 57.406 194.941 55.6988 192.77 55.6988Z" fill="url(#paint2_linear)"/>
<path opacity="0.3" d="M144.276 51.3382C145.538 51.3382 146.561 50.3457 146.561 49.1214C146.561 47.8971 145.538 46.9046 144.276 46.9046C143.014 46.9046 141.99 47.8971 141.99 49.1214C141.99 50.3457 143.014 51.3382 144.276 51.3382Z" fill="#0042C0"/>
<path opacity="0.4" d="M144.276 51.2561C143.026 51.2612 142.006 50.2879 141.99 49.0758C142.068 50.2474 143.07 51.1593 144.281 51.1593C145.491 51.1593 146.493 50.2474 146.571 49.0758C146.555 50.2915 145.529 51.2662 144.276 51.2561Z" fill="#00E6FF"/>
<path opacity="0.3" d="M144.276 50.8456C145.258 50.8456 146.053 50.0736 146.053 49.1214C146.053 48.1692 145.258 47.3972 144.276 47.3972C143.294 47.3972 142.498 48.1692 142.498 49.1214C142.498 50.0736 143.294 50.8456 144.276 50.8456Z" fill="#00B3FF"/>
<path d="M144.276 50.5263C145.076 50.5263 145.724 49.8973 145.724 49.1214C145.724 48.3455 145.076 47.7166 144.276 47.7166C143.476 47.7166 142.827 48.3455 142.827 49.1214C142.827 49.8973 143.476 50.5263 144.276 50.5263Z" fill="#FF3D40"/>
<path d="M144.276 47.753C145.059 47.7676 145.69 48.38 145.705 49.1397C145.644 48.4051 145.012 47.8391 144.252 47.8391C143.492 47.8391 142.86 48.4051 142.799 49.1397C142.804 48.7654 142.963 48.4086 143.24 48.1483C143.517 47.888 143.89 47.7457 144.276 47.753Z" fill="#FF8D8E"/>
<path d="M144.276 49.9698C144.759 49.9698 145.151 49.59 145.151 49.1214C145.151 48.6529 144.759 48.273 144.276 48.273C143.793 48.273 143.401 48.6529 143.401 49.1214C143.401 49.59 143.793 49.9698 144.276 49.9698Z" fill="#C32717"/>
<path d="M144.276 48.3186C144.746 48.3185 145.131 48.6833 145.141 49.1397C145.141 48.6711 144.749 48.2913 144.266 48.2913C143.783 48.2913 143.392 48.6711 143.392 49.1397C143.397 48.9171 143.493 48.7055 143.658 48.5515C143.824 48.3975 144.046 48.3137 144.276 48.3186Z" fill="#FF8D8E"/>
<path opacity="0.3" d="M150.907 51.3382C152.169 51.3382 153.192 50.3457 153.192 49.1214C153.192 47.8971 152.169 46.9046 150.907 46.9046C149.644 46.9046 148.621 47.8971 148.621 49.1214C148.621 50.3457 149.644 51.3382 150.907 51.3382Z" fill="#0042C0"/>
<path opacity="0.4" d="M150.907 51.2561C149.657 51.2612 148.637 50.2879 148.621 49.0758C148.699 50.2474 149.701 51.1593 150.911 51.1593C152.122 51.1593 153.124 50.2474 153.202 49.0758C153.186 50.2915 152.16 51.2662 150.907 51.2561Z" fill="#00E6FF"/>
<path opacity="0.3" d="M150.907 50.8456C151.888 50.8456 152.684 50.0736 152.684 49.1214C152.684 48.1692 151.888 47.3972 150.907 47.3972C149.925 47.3972 149.129 48.1692 149.129 49.1214C149.129 50.0736 149.925 50.8456 150.907 50.8456Z" fill="#00B3FF"/>
<path d="M150.907 50.5263C151.707 50.5263 152.355 49.8973 152.355 49.1214C152.355 48.3455 151.707 47.7166 150.907 47.7166C150.107 47.7166 149.458 48.3455 149.458 49.1214C149.458 49.8973 150.107 50.5263 150.907 50.5263Z" fill="#FFCD00"/>
<path d="M150.907 47.753C151.698 47.753 152.34 48.3724 152.346 49.1396C152.285 48.4051 151.652 47.8391 150.892 47.8391C150.133 47.8391 149.5 48.4051 149.439 49.1396C149.444 48.767 149.602 48.4116 149.877 48.1516C150.152 47.8915 150.522 47.7481 150.907 47.753Z" fill="#FFEC00"/>
<path d="M150.907 49.9698C151.39 49.9698 151.781 49.59 151.781 49.1214C151.781 48.6529 151.39 48.273 150.907 48.273C150.424 48.273 150.032 48.6529 150.032 49.1214C150.032 49.59 150.424 49.9698 150.907 49.9698Z" fill="#FFA600"/>
<path d="M150.907 48.3186C151.377 48.3185 151.762 48.6833 151.772 49.1397C151.772 48.6711 151.38 48.2913 150.897 48.2913C150.414 48.2913 150.023 48.6711 150.023 49.1397C150.027 48.9171 150.123 48.7055 150.289 48.5515C150.455 48.3975 150.677 48.3137 150.907 48.3186Z" fill="#FFBC00"/>
<path opacity="0.3" d="M157.528 51.3382C158.79 51.3382 159.814 50.3457 159.814 49.1214C159.814 47.8971 158.79 46.9046 157.528 46.9046C156.266 46.9046 155.242 47.8971 155.242 49.1214C155.242 50.3457 156.266 51.3382 157.528 51.3382Z" fill="#0042C0"/>
<path opacity="0.4" d="M157.528 51.2561C156.282 51.2562 155.267 50.2843 155.252 49.0758C155.329 50.2474 156.332 51.1593 157.542 51.1593C158.753 51.1593 159.755 50.2474 159.832 49.0758C159.825 49.6613 159.578 50.22 159.146 50.6289C158.714 51.0378 158.132 51.2634 157.528 51.2561Z" fill="#00E6FF"/>
<path opacity="0.3" d="M157.528 50.8456C158.51 50.8456 159.306 50.0736 159.306 49.1214C159.306 48.1692 158.51 47.3972 157.528 47.3972C156.546 47.3972 155.75 48.1692 155.75 49.1214C155.75 50.0736 156.546 50.8456 157.528 50.8456Z" fill="#00B3FF"/>
<path d="M157.528 50.5263C158.328 50.5263 158.976 49.8973 158.976 49.1214C158.976 48.3455 158.328 47.7166 157.528 47.7166C156.728 47.7166 156.08 48.3455 156.08 49.1214C156.08 49.8973 156.728 50.5263 157.528 50.5263Z" fill="#45D788"/>
<path d="M157.528 47.753C158.321 47.753 158.966 48.3709 158.976 49.1396C158.915 48.4051 158.283 47.8391 157.523 47.8391C156.764 47.8391 156.131 48.4051 156.07 49.1396C156.073 48.7679 156.228 48.4124 156.502 48.1521C156.775 47.8918 157.145 47.7482 157.528 47.753Z" fill="#91F6AB"/>
<path d="M157.528 49.9698C158.011 49.9698 158.403 49.59 158.403 49.1214C158.403 48.6529 158.011 48.273 157.528 48.273C157.045 48.273 156.653 48.6529 156.653 49.1214C156.653 49.59 157.045 49.9698 157.528 49.9698Z" fill="#11AB6B"/>
<path d="M157.528 48.3186C158.002 48.3135 158.392 48.6797 158.403 49.1397C158.403 48.6711 158.011 48.2913 157.528 48.2913C157.045 48.2913 156.653 48.6711 156.653 49.1397C156.664 48.6797 157.054 48.3135 157.528 48.3186Z" fill="#91F6AB"/>
<path d="M183.327 65.6242H146.044C145.784 65.6242 145.574 65.42 145.574 65.168C145.574 64.9161 145.784 64.7119 146.044 64.7119H183.327C183.587 64.7119 183.797 64.9161 183.797 65.168C183.797 65.42 183.587 65.6242 183.327 65.6242Z" fill="#00DA8F"/>
<path d="M189.29 65.6242H186.525C186.265 65.6242 186.055 65.42 186.055 65.168C186.055 64.9161 186.265 64.7119 186.525 64.7119H189.29C189.55 64.7119 189.76 64.9161 189.76 65.168C189.76 65.42 189.55 65.6242 189.29 65.6242Z" fill="#00DA8F"/>
<path d="M193.673 65.6242H191.604C191.344 65.6242 191.134 65.42 191.134 65.168C191.134 64.9161 191.344 64.7119 191.604 64.7119H193.673C193.933 64.7119 194.143 64.9161 194.143 65.168C194.143 65.42 193.933 65.6242 193.673 65.6242Z" fill="#00DA8F"/>
<path d="M166.962 69.7111H146.044C145.784 69.7111 145.574 69.5068 145.574 69.2549C145.574 69.003 145.784 68.7988 146.044 68.7988H166.962C167.221 68.7988 167.432 69.003 167.432 69.2549C167.432 69.5068 167.221 69.7111 166.962 69.7111Z" fill="#00FCFF"/>
<path d="M174.232 69.7111H168.278C168.019 69.7111 167.808 69.5068 167.808 69.2549C167.808 69.003 168.019 68.7988 168.278 68.7988H174.279C174.539 68.7988 174.749 69.003 174.749 69.2549C174.749 69.5068 174.539 69.7111 174.279 69.7111H174.232Z" fill="#00FCFF"/>
<path d="M174.232 72.0556H170.47C170.21 72.0556 170 71.8513 170 71.5994C170 71.3475 170.21 71.1433 170.47 71.1433H174.232C174.492 71.1433 174.702 71.3475 174.702 71.5994C174.702 71.8513 174.492 72.0556 174.232 72.0556Z" fill="#00FCFF"/>
<path d="M168.692 72.0556H168.278C168.019 72.0556 167.808 71.8513 167.808 71.5994C167.808 71.3475 168.019 71.1433 168.278 71.1433H168.711C168.971 71.1433 169.181 71.3475 169.181 71.5994C169.181 71.8513 168.971 72.0556 168.711 72.0556H168.692Z" fill="#00FCFF"/>
<path d="M166.087 72.0556H162.804C162.545 72.0556 162.334 71.8513 162.334 71.5994C162.334 71.3475 162.545 71.1433 162.804 71.1433H166.087C166.347 71.1433 166.557 71.3475 166.557 71.5994C166.557 71.8513 166.347 72.0556 166.087 72.0556Z" fill="#00FCFF"/>
<path d="M160.199 72.0556H156.917C156.657 72.0556 156.446 71.8513 156.446 71.5994C156.446 71.3475 156.657 71.1433 156.917 71.1433H160.199C160.459 71.1433 160.669 71.3475 160.669 71.5994C160.669 71.8513 160.459 72.0556 160.199 72.0556Z" fill="#00FCFF"/>
<path d="M154.302 72.0556H151.019C150.76 72.0556 150.549 71.8513 150.549 71.5994C150.549 71.3475 150.76 71.1433 151.019 71.1433H154.302C154.562 71.1433 154.772 71.3475 154.772 71.5994C154.772 71.8513 154.562 72.0556 154.302 72.0556Z" fill="#00FCFF"/>
<path d="M185.518 74.911H151.019C150.76 74.911 150.549 74.7067 150.549 74.4548C150.549 74.2029 150.76 73.9987 151.019 73.9987H185.518C185.778 73.9987 185.989 74.2029 185.989 74.4548C185.989 74.7067 185.778 74.911 185.518 74.911Z" fill="#FF4F92"/>
<path d="M147.229 72.0556H146.044C145.784 72.0556 145.574 71.8513 145.574 71.5994C145.574 71.3475 145.784 71.1433 146.044 71.1433H147.229C147.489 71.1433 147.699 71.3475 147.699 71.5994C147.699 71.8513 147.489 72.0556 147.229 72.0556Z" fill="#00FCFF"/>
<path d="M147.229 74.911H146.044C145.784 74.911 145.574 74.7067 145.574 74.4548C145.574 74.2029 145.784 73.9987 146.044 73.9987H147.229C147.489 73.9987 147.699 74.2029 147.699 74.4548C147.699 74.7067 147.489 74.911 147.229 74.911Z" fill="#00FCFF"/>
<path d="M147.229 77.7663H146.044C145.784 77.7663 145.574 77.5621 145.574 77.3102C145.574 77.0583 145.784 76.8541 146.044 76.8541H147.229C147.489 76.8541 147.699 77.0583 147.699 77.3102C147.699 77.5621 147.489 77.7663 147.229 77.7663Z" fill="#00FCFF"/>
<path d="M147.229 80.6217H146.044C145.784 80.6217 145.574 80.4175 145.574 80.1656C145.574 79.9137 145.784 79.7095 146.044 79.7095H147.229C147.489 79.7095 147.699 79.9137 147.699 80.1656C147.699 80.4175 147.489 80.6217 147.229 80.6217Z" fill="#00FCFF"/>
<path d="M192.874 74.911H188.594C188.334 74.911 188.124 74.7067 188.124 74.4548C188.124 74.2029 188.334 73.9987 188.594 73.9987H192.874C193.133 73.9987 193.344 74.2029 193.344 74.4548C193.344 74.7067 193.133 74.911 192.874 74.911Z" fill="#FF4F92"/>
<path d="M164.949 77.7663H150.907C150.647 77.7663 150.436 77.5621 150.436 77.3102C150.436 77.0583 150.647 76.8541 150.907 76.8541H164.949C165.209 76.8541 165.419 77.0583 165.419 77.3102C165.419 77.5621 165.209 77.7663 164.949 77.7663Z" fill="#FF4F92"/>
<path d="M186.525 86.5423H170.536C170.276 86.5423 170.065 86.3381 170.065 86.0861C170.065 85.8342 170.276 85.63 170.536 85.63H186.525C186.785 85.63 186.995 85.8342 186.995 86.0861C186.995 86.3381 186.785 86.5423 186.525 86.5423Z" fill="#FFD600"/>
<path d="M186.525 83.5956H174.862C174.602 83.5956 174.392 83.3914 174.392 83.1395C174.392 82.8876 174.602 82.6834 174.862 82.6834H186.525C186.785 82.6834 186.995 82.8876 186.995 83.1395C186.995 83.3914 186.785 83.5956 186.525 83.5956Z" fill="#FFD600"/>
<path d="M186.525 80.6217H181.907C181.647 80.6217 181.437 80.4175 181.437 80.1656C181.437 79.9137 181.647 79.7095 181.907 79.7095H186.525C186.785 79.7095 186.995 79.9137 186.995 80.1656C186.995 80.4175 186.785 80.6217 186.525 80.6217Z" fill="#FFD600"/>
<path d="M162.804 61.7015H146.044C145.784 61.7015 145.574 61.4972 145.574 61.2453C145.574 60.9934 145.784 60.7892 146.044 60.7892H162.804C163.064 60.7892 163.275 60.9934 163.275 61.2453C163.275 61.4972 163.064 61.7015 162.804 61.7015Z" fill="#FF4F92"/>
<path d="M173.677 93.4937H146.044C145.784 93.4937 145.574 93.2895 145.574 93.0376C145.574 92.7856 145.784 92.5814 146.044 92.5814H173.677C173.937 92.5814 174.147 92.7856 174.147 93.0376C174.147 93.2895 173.937 93.4937 173.677 93.4937Z" fill="#FFD600"/>
<path d="M173.677 97.015H146.044C145.797 97.0101 145.598 96.8169 145.593 96.5771C145.593 96.3353 145.795 96.1392 146.044 96.1392H173.677C173.798 96.1367 173.914 96.182 173.999 96.2647C174.084 96.3474 174.131 96.4602 174.129 96.5771C174.129 96.6932 174.081 96.8046 173.996 96.8867C173.912 96.9688 173.797 97.015 173.677 97.015Z" fill="#FFD600"/>
<path d="M173.677 100.536H146.044C145.784 100.536 145.574 100.332 145.574 100.08C145.574 99.8282 145.784 99.624 146.044 99.624H173.677C173.937 99.624 174.147 99.8282 174.147 100.08C174.147 100.332 173.937 100.536 173.677 100.536Z" fill="#FFD600"/>
<path d="M173.677 121.555H146.044C145.784 121.555 145.574 121.351 145.574 121.099C145.574 120.847 145.784 120.642 146.044 120.642H173.677C173.937 120.642 174.147 120.847 174.147 121.099C174.147 121.351 173.937 121.555 173.677 121.555Z" fill="#FFD600"/>
<path d="M179.565 89.4068H172.041C171.92 89.4093 171.804 89.364 171.718 89.2813C171.633 89.1986 171.586 89.0858 171.589 88.9689C171.589 88.7271 171.791 88.531 172.041 88.531H179.565C179.812 88.5359 180.011 88.7291 180.016 88.9689C180.016 89.2107 179.814 89.4068 179.565 89.4068Z" fill="#00DA8F"/>
<path d="M193.673 89.4068H183.327C183.078 89.4068 182.876 89.2107 182.876 88.9689C182.881 88.7291 183.08 88.5359 183.327 88.531H193.673C193.924 88.531 194.129 88.7256 194.134 88.9689C194.134 89.0866 194.085 89.1994 193.998 89.2818C193.912 89.3642 193.794 89.4092 193.673 89.4068Z" fill="#00DA8F"/>
<path d="M193.673 93.4937H183.327C183.067 93.4937 182.857 93.2895 182.857 93.0376C182.857 92.7856 183.067 92.5814 183.327 92.5814H193.673C193.933 92.5814 194.143 92.7856 194.143 93.0376C194.143 93.2895 193.933 93.4937 193.673 93.4937Z" fill="#00DA8F"/>
<path d="M149.468 126.901H146.063C145.803 126.901 145.593 126.696 145.593 126.444C145.593 126.193 145.803 125.988 146.063 125.988H149.468C149.727 125.988 149.938 126.193 149.938 126.444C149.938 126.696 149.727 126.901 149.468 126.901Z" fill="#00DA8F"/>
<path d="M149.468 129.573H146.063C145.803 129.573 145.593 129.369 145.593 129.117C145.593 128.865 145.803 128.661 146.063 128.661H149.468C149.727 128.661 149.938 128.865 149.938 129.117C149.938 129.369 149.727 129.573 149.468 129.573Z" fill="#00DA8F"/>
<path d="M177.129 129.573H151.49C151.23 129.573 151.019 129.369 151.019 129.117C151.019 128.865 151.23 128.661 151.49 128.661H177.129C177.389 128.661 177.599 128.865 177.599 129.117C177.599 129.369 177.389 129.573 177.129 129.573Z" fill="#00DA8F"/>
<path d="M156.127 126.901H152.722C152.462 126.901 152.252 126.696 152.252 126.444C152.252 126.193 152.462 125.988 152.722 125.988H156.127C156.386 125.988 156.597 126.193 156.597 126.444C156.597 126.696 156.386 126.901 156.127 126.901Z" fill="#00DA8F"/>
<path d="M162.804 126.901H159.4C159.14 126.901 158.929 126.696 158.929 126.444C158.929 126.193 159.14 125.988 159.4 125.988H162.804C163.064 125.988 163.275 126.193 163.275 126.444C163.275 126.696 163.064 126.901 162.804 126.901Z" fill="#00DA8F"/>
<path d="M169.482 126.901H166.078C165.818 126.901 165.607 126.696 165.607 126.444C165.607 126.193 165.818 125.988 166.078 125.988H169.482C169.742 125.988 169.953 126.193 169.953 126.444C169.953 126.696 169.742 126.901 169.482 126.901Z" fill="#00DA8F"/>
<path d="M176.151 126.901H172.746C172.486 126.901 172.276 126.696 172.276 126.444C172.276 126.193 172.486 125.988 172.746 125.988H176.151C176.41 125.988 176.621 126.193 176.621 126.444C176.621 126.696 176.41 126.901 176.151 126.901Z" fill="#00DA8F"/>
<path d="M182.829 126.901H179.424C179.164 126.901 178.953 126.696 178.953 126.444C178.953 126.193 179.164 125.988 179.424 125.988H182.829C183.088 125.988 183.299 126.193 183.299 126.444C183.299 126.696 183.088 126.901 182.829 126.901Z" fill="#00DA8F"/>
<path d="M188.143 126.901H186.149C185.889 126.901 185.678 126.696 185.678 126.444C185.678 126.193 185.889 125.988 186.149 125.988H188.19C188.449 125.988 188.66 126.193 188.66 126.444C188.66 126.696 188.449 126.901 188.19 126.901H188.143Z" fill="#00DA8F"/>
<path d="M107.137 131.804C107.137 131.804 92.6334 130.397 79.9222 143.379C65.5327 158.089 51.1329 190.655 83.0301 199.327H107.137V131.804Z" fill="#F4CB1C"/>
<path d="M107.137 131.874C107.137 131.874 118.47 130.427 133.409 140.917C150.336 152.814 161.918 184.767 132.207 198.965L107.137 199.307V131.874Z" fill="#F4CB1C"/>
<path d="M113.218 199.246L132.207 198.985C142.805 193.961 148.15 186.606 149.87 178.738C142.311 174.515 133.006 174.518 125.45 178.746C117.894 182.973 113.233 190.786 113.218 199.246Z" fill="#F2A51D"/>
<path d="M135.791 142.826C135.791 142.826 128.985 150.483 130.539 167.223" stroke="#F2A51D" stroke-width="1.8882"/>
<path d="M94.8918 136.968C94.8918 136.968 87.4847 133.813 90.893 131.804L94.3013 129.794C94.3013 129.794 89.4116 127.784 92.4469 126.398C95.4823 125.011 114.72 125.072 120.169 128.468C125.618 131.864 117.155 130.628 117.155 130.628C117.155 130.628 126.395 132.447 123.277 136.124L104.029 150.925L94.8918 136.968Z" fill="#F4CB1C"/>
<path d="M107.396 125.765C100.838 125.313 94.1252 125.624 92.4469 126.408C89.4116 127.795 94.3013 129.804 94.3013 129.804L90.893 131.814C89.2147 132.819 90.1575 134.065 91.5456 135.1C87.1753 137.141 83.2339 139.952 79.9222 143.389C75.2334 148.264 71.3604 153.821 68.4438 159.858C87.5365 156.663 102.807 143.178 107.396 125.765Z" fill="#FFE471"/>
<path d="M101.408 128.89C101.408 128.89 101.253 136.546 106.785 140.365C106.785 140.365 111.633 137.421 111.726 128.89H101.408Z" fill="white"/>
<path d="M79.9222 143.379C79.9222 143.379 87.0392 150.764 86.1379 167.555" stroke="#F2A51D" stroke-width="1.8882"/>
<path d="M106.785 140.365C105.909 144.324 105.561 148.377 105.749 152.422C106.111 158.843 106.122 173.172 104.847 175.533" stroke="#F2A51D" stroke-width="1.8882" stroke-linecap="round"/>
<path d="M111.809 120.359C111.809 117.573 109.481 115.315 106.608 115.315C103.736 115.315 101.408 117.573 101.408 120.359V127.714C101.408 130.5 103.736 132.758 106.608 132.758C109.481 132.758 111.809 130.5 111.809 127.714V120.359Z" fill="#FF8992"/>
<path d="M124.955 195.659H83.0301V216.027H124.955V195.659Z" fill="#0A1223"/>
<path opacity="0.5" d="M102.081 237.781C156.452 237.781 200.528 236.125 200.528 234.083C200.528 232.041 156.452 230.385 102.081 230.385C47.7105 230.385 3.63428 232.041 3.63428 234.083C3.63428 236.125 47.7105 237.781 102.081 237.781Z" fill="#1A2952"/>
<path d="M138.14 157.561H73.0882C72.3542 157.546 71.6496 157.839 71.1568 158.366C70.6641 158.892 70.4317 159.599 70.5198 160.303L75.6567 202.261H132.781L140.685 160.574C140.825 159.837 140.624 159.078 140.134 158.498C139.644 157.918 138.914 157.575 138.14 157.561Z" fill="#B6FFFF"/>
<path d="M76.6541 225.378C76.6541 225.378 74.7946 225.781 71.2024 223.394C67.6102 221.007 63.3418 220.024 61.1442 221.209C58.9466 222.394 57.4167 226.001 58.8705 228.133C60.3243 230.266 61.7781 231.223 66.2409 232.223C73.1971 233.794 79.4771 231.881 82.4016 231.846L76.6541 225.378Z" fill="#FF8992"/>
<path d="M116.947 202.823C131.813 197.568 143.52 190.103 154.915 190.766V190.876C158.344 190.876 164.156 192.193 163.389 200.924C162.871 206.782 158.21 211.605 152.128 215.313H152.056C150.482 216.267 148.856 217.139 147.187 217.926C139.935 221.654 125.753 228.275 112.192 230.858C92.8613 234.535 85.5785 234.585 82.8851 233.681C82.8851 233.681 76.7315 232.867 77.3427 222.628C77.322 222.638 102.071 208.089 116.947 202.823Z" fill="#1A2952"/>
<path d="M84.9259 98.7054C84.9259 98.7054 79.1141 88.1148 81.5486 83.4022C82.8445 80.6939 85.4634 78.8039 88.5103 78.3782C88.5103 78.3782 85.506 70.7919 89.9399 71.8972L93.0478 73.7963C93.0478 73.7963 87.0185 59.1161 97.606 60.7338C108.193 62.3515 120.905 74.0575 120.905 74.0575C120.905 74.0575 128.55 69.1641 130.021 73.9068C131.492 78.6495 123.546 107.307 123.546 107.307L84.9259 98.7054Z" fill="black"/>
<path d="M111.819 124.489V120.359C111.819 117.584 109.5 115.335 106.64 115.335C103.779 115.335 101.46 117.584 101.46 120.359V125.142C104.91 125.842 108.492 125.616 111.819 124.489Z" fill="#D65C70"/>
<path d="M121.982 93.5508C121.982 93.5508 126.354 105.176 121.982 111.929C117.666 118.933 109.178 122.43 100.983 120.58C92.2294 118.691 84.4079 113.828 86.542 101.117L89.6499 89.4914C91.3531 89.6792 93.0559 89.136 94.3117 88.0043C94.3117 88.0043 90.5201 96.6557 94.4567 94.3647C97.0428 92.7852 99.3982 90.8757 101.46 88.6875C101.46 88.6875 98.3519 93.8221 101.315 92.7068C104.278 91.5914 107.147 87.9741 107.147 87.9741C107.147 87.9741 114.689 96.9269 121.982 93.5508Z" fill="#FF8992"/>
<path d="M85.9929 106.292C88.2014 106.292 89.9917 103.7 89.9917 100.504C89.9917 97.3076 88.2014 94.7164 85.9929 94.7164C83.7845 94.7164 81.9941 97.3076 81.9941 100.504C81.9941 103.7 83.7845 106.292 85.9929 106.292Z" fill="#FF8992"/>
<path d="M124.955 106.965C127.164 106.965 128.954 104.374 128.954 101.177C128.954 97.9808 127.164 95.3896 124.955 95.3896C122.747 95.3896 120.956 97.9808 120.956 101.177C120.956 104.374 122.747 106.965 124.955 106.965Z" fill="#FF8992"/>
<path d="M111.446 109.718L104.847 111.276C104.847 111.276 105.334 117.385 109.126 116.239C112.917 115.094 111.446 109.718 111.446 109.718Z" fill="white"/>
<path d="M117.584 96.2665C117.584 96.2665 111.689 94.1222 110.587 94.4914C109.486 94.8606 110.045 96.9263 110.045 96.9263L116.774 98.1045L117.584 96.2665Z" fill="#1A2952"/>
<path d="M92.0976 97.901C92.0976 97.901 96.8019 95.028 97.812 95.1717C98.8221 95.3153 98.6738 97.2689 98.6738 97.2689L93.1006 99.4237L92.0976 97.901Z" fill="#1A2952"/>
<path d="M113.208 103.147C113.797 103.147 114.275 102.323 114.275 101.308C114.275 100.292 113.797 99.4691 113.208 99.4691C112.618 99.4691 112.141 100.292 112.141 101.308C112.141 102.323 112.618 103.147 113.208 103.147Z" fill="#1A2952"/>
<path d="M96.6529 104.151C97.2422 104.151 97.7199 103.328 97.7199 102.313C97.7199 101.297 97.2422 100.474 96.6529 100.474C96.0636 100.474 95.5859 101.297 95.5859 102.313C95.5859 103.328 96.0636 104.151 96.6529 104.151Z" fill="#1A2952"/>
<path d="M104.609 101.248C104.609 101.248 106.049 107.276 103.905 106.955C103.348 106.898 102.847 106.602 102.54 106.149C102.233 105.695 102.152 105.131 102.32 104.614L104.609 101.248Z" fill="#D65C70"/>
<path d="M90.2921 133.854C90.2921 133.854 90.0228 132.778 91.4109 133.341C92.7991 133.904 94.322 134.627 94.322 134.627L91.5456 135.089C91.0425 134.768 90.6153 134.347 90.2921 133.854Z" fill="#F2A51D"/>
<path d="M94.3013 129.804C95.2169 130.19 96.1822 130.454 97.1709 130.588C97.1709 130.588 94.467 129.03 93.8869 128.116C93.3068 127.202 92.0325 126.297 91.4627 127.342C91.4627 127.342 90.7894 128.87 94.3013 129.804Z" fill="#F2A51D"/>
<path d="M137.963 157.56H73.3169C72.5108 157.561 71.7437 157.897 71.2095 158.482C70.6752 159.068 70.425 159.847 70.522 160.624L74.65 194.448C77.1292 194.675 79.6552 194.811 82.2162 194.811C110.89 194.811 134.84 180.242 140.687 160.771C140.827 159.984 140.607 159.177 140.083 158.56C139.56 157.943 138.786 157.578 137.963 157.56Z" fill="white"/>
<path d="M77.3219 222.638C76.7107 232.827 82.8643 233.691 82.8643 233.691C85.3195 234.515 91.5767 234.545 107.282 231.772L77.3219 222.638Z" fill="#0A1223"/>
<path d="M128.156 223.78C128.156 223.78 130.149 224.275 134.116 221.945C138.083 219.614 142.714 218.779 145.034 220.11C147.354 221.44 148.837 225.285 147.191 227.45C145.544 229.616 143.924 230.543 139.084 231.396C131.541 232.717 124.862 230.478 121.723 230.286L128.156 223.78Z" fill="#FF8992"/>
<path d="M89.6291 200.623C74.9911 194.775 63.6162 186.897 52.1896 187.008V187.118C48.7606 187.008 42.866 188.073 43.3115 196.785C43.5808 202.663 48.0562 207.677 53.9508 211.615L54.0129 211.666C55.55 212.68 57.1407 213.616 58.7783 214.469C65.8746 218.488 79.7461 225.663 93.1928 228.778C112.358 233.219 119.63 233.56 122.355 232.797C122.355 232.797 128.571 232.234 128.364 222.025C128.343 221.985 104.257 206.461 89.6291 200.623Z" fill="#1A2952"/>
<path d="M99.3879 175.808L93.1721 178.169L99.3879 180.541V183.133L89.4219 179.355V176.944L99.3879 173.166V175.808Z" fill="black"/>
<path d="M106.785 169.448L109.033 170.111L103.128 184.982L100.9 184.319L106.785 169.448Z" fill="black"/>
<path d="M110.545 180.571L116.761 178.2L110.545 175.838V173.236L120.511 177.014V179.426L110.545 183.204V180.571Z" fill="black"/>
<path d="M128.343 221.985C128.343 221.985 109.002 210.058 86.4798 199.327C86.4798 199.327 64.7247 187.038 52.1585 187.008" stroke="#627DDD" stroke-width="3.7764" stroke-linecap="round"/>
<path d="M103.987 208.37C103.987 208.37 129.451 198 141.282 193.057C153.113 188.113 162.333 190.484 162.83 195.659" stroke="#627DDD" stroke-width="3.7764" stroke-linecap="round"/>
<defs>
<linearGradient id="paint0_linear" x1="6.45837" y1="125.055" x2="62.7403" y2="125.055" gradientUnits="userSpaceOnUse">
<stop stop-color="#22115B"/>
<stop offset="1" stop-color="#401B89"/>
</linearGradient>
<linearGradient id="paint1_linear" x1="8.95087" y1="48.6903" x2="128.117" y2="48.6903" gradientUnits="userSpaceOnUse">
<stop stop-color="#22115B"/>
<stop offset="1" stop-color="#401B89"/>
</linearGradient>
<linearGradient id="paint2_linear" x1="143.006" y1="94.3466" x2="196.702" y2="94.3466" gradientUnits="userSpaceOnUse">
<stop stop-color="#22115B"/>
<stop offset="1" stop-color="#401B89"/>
</linearGradient>
</defs>
</svg>
