<svg width="40" height="40" fill="none" xmlns="http://www.w3.org/2000/svg"><path d="M20 3.333C10.792 3.333 3.333 10.792 3.333 20A16.657 16.657 0 0 0 14.73 35.813c.833.145 1.145-.355 1.145-.793 0-.395-.022-1.707-.022-3.103-4.186.771-5.27-1.02-5.603-1.959-.188-.48-1-1.958-1.708-2.355-.584-.311-1.417-1.083-.022-1.103 1.313-.022 2.25 1.208 2.563 1.708 1.5 2.52 3.897 1.812 4.854 1.375.146-1.083.583-1.811 1.063-2.228-3.708-.417-7.583-1.855-7.583-8.23 0-1.813.645-3.312 1.708-4.48-.167-.417-.75-2.125.167-4.417 0 0 1.395-.436 4.583 1.71a15.468 15.468 0 0 1 4.167-.563c1.416 0 2.833.187 4.166.562 3.187-2.167 4.584-1.707 4.584-1.707.916 2.292.333 4 .166 4.417 1.062 1.166 1.709 2.645 1.709 4.478 0 6.397-3.895 7.813-7.604 8.23.604.52 1.125 1.52 1.125 3.083 0 2.229-.021 4.02-.021 4.584 0 .436.313.956 1.146.79A16.693 16.693 0 0 0 36.667 20c0-9.208-7.459-16.667-16.667-16.667Z" fill="#FFF"/></svg>
