<svg width="40" height="40" fill="none" xmlns="http://www.w3.org/2000/svg"><path d="M25.5 9.25a4.834 4.834 0 0 0-4.833 4.745l-.047 2.625a1.001 1.001 0 0 1-1.133.972l-2.602-.354c-3.423-.466-6.703-2.043-9.85-4.665-.997 5.517.95 9.339 5.638 12.287l2.912 1.83a1 1 0 0 1 .057 1.655l-2.654 1.938c1.579.099 3.077.029 4.32-.218 7.864-1.57 13.092-7.487 13.092-17.247 0-.796-1.687-3.568-4.9-3.568Zm-8.167 4.683a8.167 8.167 0 0 1 13.975-5.591c1.185-.009 2.194.291 4.449-1.075-.559 2.733-.834 3.92-2.024 5.551 0 12.737-7.828 18.93-15.771 20.515-5.447 1.087-13.367-.698-15.637-3.068 1.157-.09 5.857-.595 8.573-2.583C8.6 26.167-.548 20.783 5.463 6.31c2.822 3.295 5.684 5.538 8.584 6.728 1.93.792 2.403.775 3.288.897l-.002-.002Z" fill="#00A3FF"/></svg>
