<svg xmlns="http://www.w3.org/2000/svg" width="318.007" height="464" viewBox="0 0 318.007 464"><g id="_person" transform="translate(-72.997)"><path id="Path_246" fill="#ffdfba" d="M386,416.74V456a8,8,0,0,1-8,8H86a8,8,0,0,1-8-8V416.74a74.6,74.6,0,0,1,43.76-67.93c-10.531-8.379-26.582-19.641-38.26-43.87a105.734,105.734,0,0,1,7.24-104.57A102.852,102.852,0,0,0,108,143.33V100A100,100,0,0,1,208,0h48A100,100,0,0,1,356,100c0,45.887-1.121,54.873,4.41,73.12,7.8,25.8,18.114,28.993,26.06,55.25A105.8,105.8,0,0,1,351.1,341.76l-8.86,7.05A74.6,74.6,0,0,1,386,416.74Z" data-name="Path 246"/><path id="Path_247" fill="#ffaa64" d="M386,416.74V456a8,8,0,0,1-8,8H86a8,8,0,0,1-8-8V416.74a74.573,74.573,0,0,1,74.57-74.57,41.383,41.383,0,0,0,17.18-3.71l.25.54,57.1,44.208a8,8,0,0,0,9.795,0L294,339l.25-.54a41.383,41.383,0,0,0,17.18,3.71A74.574,74.574,0,0,1,386,416.74Z" data-name="Path 247"/><path id="Path_248" fill="#ffebd2" d="M323.429,146.258A8.005,8.005,0,0,1,331,154.244V202.13a99.011,99.011,0,0,1-61.15,91.5C204.934,320.577,133,272.706,133,202.13V154.94a7.989,7.989,0,0,1,8.686-7.971,206.978,206.978,0,0,0,134.923-34.5,7.973,7.973,0,0,1,12.152,4.464c4.936,18.194,18.4,28.4,34.667,29.324Z" data-name="Path 248"/><path id="Path_249" fill="#42434d" d="M351.1,341.76l-8.86,7.05a74.383,74.383,0,0,0-30.81-6.64A41.371,41.371,0,0,1,270,300.83V294l-.15-.37A99.011,99.011,0,0,0,331,202.13V154.244a8.005,8.005,0,0,0-7.572-7.986c-16.168-.921-29.7-11.013-34.667-29.323a7.973,7.973,0,0,0-12.152-4.464,206.989,206.989,0,0,1-134.923,34.5A7.989,7.989,0,0,0,133,154.941v47.19a99.011,99.011,0,0,0,61.15,91.5L194,294v6.83a41.371,41.371,0,0,1-41.43,41.34,74.383,74.383,0,0,0-30.81,6.64l-8.86-7.05a105.8,105.8,0,0,1-22.16-141.39A102.852,102.852,0,0,0,108,143.331V100A100,100,0,0,1,208,0h48A100,100,0,0,1,356,100v43.33a102.911,102.911,0,0,0,17.26,57.04A105.8,105.8,0,0,1,351.1,341.76Z" data-name="Path 249"/><path id="Path_250" fill="#ffd6a6" d="M271.131,310.42a99.271,99.271,0,0,1-78.26,0c1.356-5.626,1.13-9.27,1.13-16.42l.15-.37a99.2,99.2,0,0,0,75.7,0l.15.37C270,301.153,269.775,304.8,271.131,310.42Z" data-name="Path 250"/><path id="Path_251" fill="#4d4e59" d="M301.176,10.762c10.212,5.18,5.774,20.767-5.626,19.688Q290.835,30,286,30H238A100,100,0,0,0,138,130v12.168c0,7.184-5,6.952-5,12.772,0,52.822.214,49.478-.561,51.757-7.845,23.078-17.266,26.418-24.909,51.673a105.707,105.707,0,0,0-3.951,41.669c1.177,11.22-14.446,16.587-20.079,4.9a105.753,105.753,0,0,1,7.24-104.57A102.852,102.852,0,0,0,108,143.33V100A100,100,0,0,1,208,0h48a99.576,99.576,0,0,1,45.176,10.762Z" data-name="Path 251"/><path id="Path_252" fill="#fff3e4" d="M213.022,268.449c14.939,10,3.553,33.13-13.41,27.177C162.326,282.542,133,247.743,133,202.129v-47.19a7.993,7.993,0,0,1,8.69-7.97c3.832.348,8.04.622,12.581.761A15.241,15.241,0,0,1,169,162.99v23.14a98.649,98.649,0,0,0,44.021,82.319Z" data-name="Path 252"/><path id="Path_253" fill="#ffbd7b" d="M186.494,351.769c4.746,3.674,2.238,11.378-3.764,11.4A74.556,74.556,0,0,0,108,437.74V464H86a8,8,0,0,1-8-8V416.74a74.573,74.573,0,0,1,74.57-74.57,41.383,41.383,0,0,0,17.18-3.71l.25.54Z" data-name="Path 253"/><path id="Path_254" fill="#faa157" d="M277.507,351.769c-4.746,3.674-2.238,11.378,3.764,11.4A74.556,74.556,0,0,1,356,437.74V464h22a8,8,0,0,0,8-8V416.74a74.573,74.573,0,0,0-74.57-74.57,41.383,41.383,0,0,1-17.18-3.71L294,339Z" data-name="Path 254"/></g></svg>