<svg xmlns="http://www.w3.org/2000/svg" width="131.104" height="125.644" viewBox="0 0 131.104 125.644">
  <path id="github_" d="M65.552.5C29.335.5,0,29.343,0,64.916c0,28.466,18.781,52.606,44.821,61.117,3.278.606,4.479-1.388,4.479-3.1,0-1.53-.055-5.583-.082-10.953-18.234,3.884-22.08-8.642-22.08-8.642-2.983-7.435-7.293-9.423-7.293-9.423-5.938-3.993.459-3.911.459-3.911,6.583.448,10.04,6.637,10.04,6.637,5.845,9.849,15.345,7,19.092,5.359.59-4.168,2.278-7,4.152-8.615C39.031,91.776,23.73,86.237,23.73,61.556a24.611,24.611,0,0,1,6.746-17.284c-.737-1.628-2.95-8.178.574-17.049,0,0,5.49-1.726,18.027,6.6a62.851,62.851,0,0,1,32.776,0c12.455-8.331,17.945-6.6,17.945-6.6,3.523,8.871,1.311,15.421.656,17.049a24.71,24.71,0,0,1,6.719,17.284c0,24.746-15.323,30.192-29.908,31.776,2.294,1.934,4.425,5.883,4.425,11.92,0,8.62-.082,15.547-.082,17.639,0,1.688,1.147,3.7,4.507,3.059C112.34,117.494,131.1,93.338,131.1,64.916,131.1,29.343,101.753.5,65.552.5Z" transform="translate(0 -0.5)" fill="#212121"/>
</svg>
