<svg xmlns="http://www.w3.org/2000/svg" width="115.713" height="115.713" viewBox="0 0 115.713 115.713"><path id="linkedin" fill="#0077b7" d="M105.246,0H10.467A10.467,10.467,0,0,0,0,10.467v94.779a10.467,10.467,0,0,0,10.467,10.468h94.779a10.467,10.467,0,0,0,10.468-10.468V10.467A10.467,10.467,0,0,0,105.246,0ZM35.807,99.915a3.046,3.046,0,0,1-3.046,3.046H19.794a3.046,3.046,0,0,1-3.046-3.046V45.559a3.046,3.046,0,0,1,3.046-3.046H32.761a3.046,3.046,0,0,1,3.046,3.046ZM26.277,37.389A12.318,12.318,0,1,1,38.6,25.071,12.318,12.318,0,0,1,26.277,37.389ZM103.57,100.16a2.8,2.8,0,0,1-2.8,2.8H86.855a2.8,2.8,0,0,1-2.8-2.8v-25.5c0-3.8,1.116-16.667-9.94-16.667C65.539,58,63.8,66.8,63.451,70.753V100.16a2.8,2.8,0,0,1-2.8,2.8H47.193a2.8,2.8,0,0,1-2.8-2.8V45.314a2.8,2.8,0,0,1,2.8-2.8H60.65a2.8,2.8,0,0,1,2.8,2.8v4.742c3.18-4.772,7.905-8.455,17.966-8.455,22.28,0,22.152,20.815,22.152,32.252V100.16Z"/></svg>