<svg xmlns="http://www.w3.org/2000/svg" width="1600" height="1600" preserveAspectRatio="xMidYMid meet" version="1.0" viewBox="0 0 1200 1200"><metadata>Created by potrace 1.16, written by Peter Selinger 2001-2019</metadata><g fill="#000" stroke="none"><path d="M0 6000 l0 -6000 6000 0 6000 0 0 6000 0 6000 -6000 0 -6000 0 0 -6000z m4364 3253 c10 -21 414 -906 898 -1968 484 -1062 883 -1933 887 -1938 4 -4 363 880 798 1965 l791 1973 1116 3 1116 2 0 -67 0 -68 -341 -325 c-187 -179 -348 -338 -357 -355 -16 -28 -17 -211 -20 -2360 -2 -1727 0 -2341 9 -2372 10 -36 49 -79 273 -300 143 -143 296 -292 339 -333 l77 -73 0 -74 0 -73 -1580 0 -1580 0 0 68 0 69 341 329 c187 181 348 343 357 359 16 28 17 177 19 1905 2 1068 -1 1869 -6 1860 -5 -8 -397 -1000 -871 -2205 -474 -1204 -878 -2230 -897 -2278 l-35 -88 -125 3 -124 3 -1046 2282 c-576 1256 -1048 2282 -1049 2280 -2 -2 -4 -723 -4 -1603 -1 -1588 -1 -1600 19 -1654 11 -30 31 -69 43 -87 13 -17 220 -270 461 -562 l437 -529 0 -66 0 -66 -1200 0 -1200 0 0 68 0 68 421 509 c493 597 483 584 509 654 21 55 21 56 20 1970 l-1 1915 -23 51 c-13 27 -42 71 -66 98 -23 26 -203 242 -401 480 l-359 432 0 68 0 67 1168 0 1168 0 18 -37z" transform="translate(0.000000,1200.000000) scale(0.100000,-0.100000)"/></g></svg>