<svg xmlns="http://www.w3.org/2000/svg" width="323.999" height="480.063" viewBox="0 0 323.999 480.063"><g id="person" transform="translate(-78.033)"><path id="Path_255" fill="#ffdfba" d="M394.032,424.8v39.26a8,8,0,0,1-8,8h-292a8,8,0,0,1-8-8V424.8a74.579,74.579,0,0,1,74.59-74.57,41.406,41.406,0,0,0,34.76-18.86c7.414-11.394,6.65-21.3,6.65-29.31l.15-.37a99.011,99.011,0,0,1-61.15-91.5v-3.13a24.665,24.665,0,0,1-25-24.54v-41.56c-.32-14.47.34-65.5,37.2-101.03C196.092-1.377,264.012,2,313.212,24.1a2.006,2.006,0,0,1-.07,3.68l-12.83,5.28a2,2,0,0,0,.55,3.84l6.23.67a100.938,100.938,0,0,1,74.72,46.35,2.147,2.147,0,0,1-.26,2.47,60.5,60.5,0,0,0-16.52,41.56v54.57a24.544,24.544,0,0,1-24.54,24.54h-1.46v3.13a99.011,99.011,0,0,1-61.15,91.5l.15.37c0,7.777-.827,17.82,6.65,29.31a41.406,41.406,0,0,0,34.76,18.86,74.579,74.579,0,0,1,74.59,74.57Z" data-name="Path 255"/><path id="Path_256" fill="#fe4f60" d="M394.032,424.8v39.26a8,8,0,0,1-8,8h-292a8,8,0,0,1-8-8V424.8a74.585,74.585,0,0,1,74.585-74.57,41.4,41.4,0,0,0,34.765-18.86,68.643,68.643,0,0,0,89.3,0,41.4,41.4,0,0,0,34.765,18.86,74.585,74.585,0,0,1,74.585,74.57Z" data-name="Path 256"/><path id="Path_257" fill="#42434d" d="M381.807,83.928a2.122,2.122,0,0,1-.259,2.461,60.537,60.537,0,0,0-16.517,41.564v54.57c0,12.388-9.333,24.54-26,24.54v-61.77a48,48,0,0,0-48-48h-102a48,48,0,0,0-48,48v61.77a24.665,24.665,0,0,1-25-24.54v-41.56c-.32-14.47.34-65.5,37.2-101.03C196.089-1.378,264.015,2,313.208,24.106a2,2,0,0,1-.065,3.678l-12.831,5.282a2,2,0,0,0,.548,3.838l6.232.669a100.892,100.892,0,0,1,74.715,46.355Z" data-name="Path 257"/><path id="Path_258" fill="#ffebd2" d="M339.032,210.193a99,99,0,0,1-99,99c-51.492,0-99-40.031-99-102.13v-61.77a48,48,0,0,1,48-48h102a48,48,0,0,1,48,48Z" data-name="Path 258"/><path id="Path_259" fill="#fff3e4" d="M217.616,274.121c16.277,10.183,3.442,35.156-14.376,28a99.016,99.016,0,0,1-62.208-91.932v-64.9a47.783,47.783,0,0,1,8.423-27.168c6.514-9.473,21.577-5.288,21.577,7.168v64.9a98.278,98.278,0,0,0,46.584,83.928Z" data-name="Path 259"/><path id="Path_260" fill="#ffd6a6" d="M279.162,318.483a99.271,99.271,0,0,1-78.26,0c1.356-5.626,1.13-9.27,1.13-16.42l.15-.37a99.2,99.2,0,0,0,75.7,0l.15.37c0,7.153-.226,10.8,1.13,16.42Z" data-name="Path 260"/><path id="Path_261" fill="#ff6d7a" d="M200.913,374.39A40.675,40.675,0,0,1,189,376.231c-41.3.364-74.966,33.017-74.966,74.315v7.517a14,14,0,0,1-14,14h-6a8,8,0,0,1-8-8V424.8a74.584,74.584,0,0,1,74.585-74.57,41.4,41.4,0,0,0,34.765-18.86,69.21,69.21,0,0,0,9.512,6.822c14.753,8.791,12.4,31.044-3.98,36.2Z" data-name="Path 261"/><path id="Path_262" fill="#e84857" d="M279.15,374.39a40.675,40.675,0,0,0,11.916,1.841c41.3.364,74.966,33.017,74.966,74.315v7.517a14,14,0,0,0,14,14h6a8,8,0,0,0,8-8V424.8a74.584,74.584,0,0,0-74.585-74.57,41.4,41.4,0,0,1-34.765-18.86,69.209,69.209,0,0,1-9.512,6.822c-14.753,8.791-12.4,31.044,3.98,36.2Z" data-name="Path 262"/><path id="Path_263" fill="#4d4e59" d="M313.142,27.783c-11.758,4.839-13.434,5.906-17.508,5.274C229.96,22.877,172.34,50.05,152.772,113.843v.01a47.761,47.761,0,0,0-11.74,31.44v37.523c0,16.188-25,17.315-25-.293v-41.56c-.32-14.47.34-65.5,37.2-101.03C196.092-1.377,264.012,2,313.212,24.1a2.006,2.006,0,0,1-.07,3.68Z" data-name="Path 263"/><path id="Path_264" d="M402.032,424.806v47.257a8,8,0,0,1-16,0V424.806a66.533,66.533,0,0,0-66.573-66.571A49.121,49.121,0,0,1,277.2,334.507a8,8,0,0,1,13.665-8.323,33.234,33.234,0,0,0,28.594,16.051,82.525,82.525,0,0,1,82.573,82.571ZM262.426,344.613a8,8,0,0,1-6.113,9.52A76.569,76.569,0,0,1,196.8,342.491c-16.878,18.087-39.176,15.744-36.191,15.744a66.533,66.533,0,0,0-66.573,66.571v47.257a8,8,0,0,1-16,0V424.806A82.525,82.525,0,0,1,160.6,342.235a33.352,33.352,0,0,0,33.429-33.342v-2.107a107.173,107.173,0,0,1-60.923-92.643,32.645,32.645,0,0,1-25.077-31.62V141.05c-.437-20.3,2.577-71.143,39.648-106.877C193.456-9.953,266.864-7.15,320.842,18.835a8.019,8.019,0,0,1,1.691,13.324A107.976,107.976,0,0,1,388.607,79.7a8.836,8.836,0,0,1,1.84,6.287,8.091,8.091,0,0,1-2.3,5.075,52.234,52.234,0,0,0-15.119,36.9v54.57a8,8,0,1,1-16,0v-54.57a68.1,68.1,0,0,1,15.542-43.487,92.411,92.411,0,0,0-66.332-38.942L292.182,44.02c-8.222-.88-9.835-12.207-2.194-15.352l6.395-2.633C213.1-3,124.032,29.261,124.032,140.963v41.56a16.517,16.517,0,0,0,9,14.636V145.3a56.064,56.064,0,0,1,56-56h102a56.062,56.062,0,0,1,56,56v65.5c0,69.574-67.988,122.42-137.17,102.053a48.914,48.914,0,0,1-4.186,16.336,60.582,60.582,0,0,0,47.23,9.314,8,8,0,0,1,9.52,6.114Zm-22.394-43.425a91.1,91.1,0,0,0,91-91V145.293a40.044,40.044,0,0,0-40-40h-102a40.045,40.045,0,0,0-40,40v64.892a91.1,91.1,0,0,0,91,91Zm81,137.875h-24a8,8,0,1,0,0,16h24a8,8,0,0,0,0-16Z" data-name="Path 264"/></g></svg>