<svg width="48" height="48" viewBox="0 0 48 48" fill="none" xmlns="http://www.w3.org/2000/svg">
<ellipse cx="24" cy="23.6539" rx="23.7319" ry="23.3817" transform="rotate(-0.660871 24 23.6539)" fill="#ED654B"/>
<path fill-rule="evenodd" clip-rule="evenodd" d="M14.1056 31.5071C15.4506 31.4915 16.5304 30.5622 16.5173 29.4313C16.5043 28.3004 15.4034 27.3962 14.0584 27.4117C12.7134 27.4272 11.6336 28.3566 11.6467 29.4875C11.6597 30.6184 12.7606 31.5226 14.1056 31.5071ZM14.0957 30.6383C14.8701 30.6294 15.4918 30.0943 15.4843 29.4432C15.4767 28.7921 14.8429 28.2714 14.0685 28.2804C13.2941 28.2893 12.6724 28.8244 12.6799 29.4755C12.6874 30.1267 13.3213 30.6473 14.0957 30.6383Z" fill="black"/>
<path d="M13.7346 27.7663C15.1264 22.3528 9.21414 17.4496 13.5644 13.008C18.6807 7.78406 28.7898 7.66745 34.0253 12.7719C38.4768 17.1121 31.8725 22.0054 34.1956 27.5303" stroke="black"/>
<path fill-rule="evenodd" clip-rule="evenodd" d="M33.8991 31.2788C35.2441 31.2632 36.3238 30.3339 36.3108 29.203C36.2978 28.0721 35.1968 27.1679 33.8518 27.1834C32.5068 27.1989 31.4271 28.1282 31.4401 29.2592C31.4532 30.3901 32.5541 31.2943 33.8991 31.2788ZM33.8891 30.41C34.6635 30.4011 35.2852 29.866 35.2777 29.2149C35.2702 28.5638 34.6363 28.0432 33.8619 28.0521C33.0875 28.061 32.4658 28.5961 32.4733 29.2472C32.4809 29.8984 33.1147 30.419 33.8891 30.41Z" fill="black"/>
<path fill-rule="evenodd" clip-rule="evenodd" d="M18.8656 21.851C20.2106 21.8355 21.2904 20.9061 21.2774 19.7752C21.2643 18.6443 20.1634 17.7401 18.8184 17.7556C17.4734 17.7711 16.3936 18.7005 16.4067 19.8314C16.4197 20.9623 17.5206 21.8665 18.8656 21.851ZM18.8556 20.9822C19.63 20.9733 20.2516 20.4382 20.2441 19.7871C20.2366 19.136 19.6028 18.6154 18.8284 18.6243C18.054 18.6332 17.4323 19.1683 17.4398 19.8194C17.4473 20.4706 18.0812 20.9912 18.8556 20.9822Z" fill="black"/>
<path fill-rule="evenodd" clip-rule="evenodd" d="M28.9179 21.735C30.2629 21.7195 31.3426 20.7902 31.3296 19.6592C31.3166 18.5283 30.2156 17.6241 28.8706 17.6396C27.5256 17.6552 26.4459 18.5845 26.4589 19.7154C26.472 20.8463 27.5729 21.7505 28.9179 21.735ZM28.9078 20.8663C29.6822 20.8574 30.3039 20.3223 30.2964 19.6712C30.2888 19.02 29.655 18.4994 28.8806 18.5084C28.1062 18.5173 27.4845 19.0524 27.492 19.7035C27.4995 20.3546 28.1334 20.8752 28.9078 20.8663Z" fill="black"/>
<path fill-rule="evenodd" clip-rule="evenodd" d="M24.2079 37.7876C25.5529 37.7721 26.6327 36.8427 26.6196 35.7118C26.6066 34.5809 25.5057 33.6767 24.1607 33.6922C22.8157 33.7077 21.7359 34.6371 21.749 35.768C21.762 36.8989 22.8629 37.8031 24.2079 37.7876ZM24.198 36.9188C24.9724 36.9099 25.5941 36.3748 25.5866 35.7237C25.5791 35.0726 24.9452 34.552 24.1708 34.5609C23.3964 34.5698 22.7747 35.1049 22.7823 35.756C22.7898 36.4072 23.4236 36.9278 24.198 36.9188Z" fill="black"/>
<path d="M23.9947 25.0801L24.0998 34.1885M23.9947 25.0801L20.1543 21.3488M23.9947 25.0801L27.8506 21.26" stroke="black"/>
</svg>
