<svg width="307" height="172" viewBox="0 0 307 172" fill="none" xmlns="http://www.w3.org/2000/svg">
<ellipse cx="196.57" cy="137.41" rx="21.2588" ry="21.0387" transform="rotate(-0.660871 196.57 137.41)" fill="#ED654B"/>
<path fill-rule="evenodd" clip-rule="evenodd" d="M187.708 144.476C188.913 144.462 189.88 143.626 189.868 142.609C189.856 141.591 188.87 140.777 187.665 140.791C186.461 140.805 185.493 141.641 185.505 142.659C185.517 143.676 186.503 144.49 187.708 144.476ZM187.699 143.695C188.393 143.687 188.949 143.205 188.943 142.619C188.936 142.033 188.368 141.565 187.674 141.573C186.981 141.581 186.424 142.062 186.431 142.648C186.437 143.234 187.005 143.703 187.699 143.695Z" fill="black"/>
<path d="M187.375 141.11C188.622 136.239 183.325 131.827 187.222 127.831C191.805 123.131 200.861 123.026 205.551 127.619C209.539 131.525 203.623 135.928 205.704 140.899" stroke="black"/>
<path fill-rule="evenodd" clip-rule="evenodd" d="M205.438 144.272C206.643 144.258 207.61 143.422 207.599 142.404C207.587 141.386 206.601 140.573 205.396 140.587C204.191 140.601 203.224 141.437 203.236 142.454C203.247 143.472 204.234 144.286 205.438 144.272ZM205.429 143.49C206.123 143.482 206.68 143.001 206.673 142.415C206.666 141.829 206.098 141.36 205.405 141.368C204.711 141.376 204.154 141.858 204.161 142.444C204.168 143.03 204.736 143.498 205.429 143.49Z" fill="black"/>
<path fill-rule="evenodd" clip-rule="evenodd" d="M191.971 135.788C193.175 135.774 194.143 134.938 194.131 133.92C194.119 132.903 193.133 132.089 191.928 132.103C190.723 132.117 189.756 132.953 189.768 133.971C189.78 134.988 190.766 135.802 191.971 135.788ZM191.962 135.006C192.655 134.998 193.212 134.517 193.205 133.931C193.199 133.345 192.631 132.877 191.937 132.885C191.243 132.893 190.687 133.374 190.693 133.96C190.7 134.546 191.268 135.014 191.962 135.006Z" fill="black"/>
<path fill-rule="evenodd" clip-rule="evenodd" d="M200.976 135.684C202.181 135.67 203.148 134.834 203.136 133.816C203.125 132.799 202.138 131.985 200.934 131.999C199.729 132.013 198.761 132.849 198.773 133.867C198.785 134.884 199.771 135.698 200.976 135.684ZM200.967 134.902C201.661 134.894 202.218 134.413 202.211 133.827C202.204 133.241 201.636 132.773 200.943 132.781C200.249 132.789 199.692 133.27 199.699 133.856C199.706 134.442 200.273 134.91 200.967 134.902Z" fill="black"/>
<path fill-rule="evenodd" clip-rule="evenodd" d="M196.758 150.128C197.963 150.114 198.93 149.278 198.918 148.26C198.906 147.242 197.92 146.429 196.715 146.443C195.51 146.457 194.543 147.293 194.555 148.31C194.567 149.328 195.553 150.142 196.758 150.128ZM196.749 149.346C197.442 149.338 197.999 148.857 197.993 148.271C197.986 147.685 197.418 147.216 196.724 147.224C196.031 147.232 195.474 147.714 195.48 148.3C195.487 148.886 196.055 149.354 196.749 149.346Z" fill="black"/>
<path d="M196.566 138.694L196.66 146.889M196.566 138.694L193.125 135.336M196.566 138.694L200.02 135.257" stroke="black"/>
<path d="M122.531 30.9104L109.656 30.8671L109.527 69.3669L102.089 69.3419L102.219 30.8421L89.3749 30.7989L89.3962 24.4864L122.552 24.598L122.531 30.9104ZM149.042 55.4685L127.23 55.3951C127.303 58.3537 128.202 60.638 129.926 62.248C131.67 63.858 134.063 64.6682 137.105 64.6784C140.522 64.6899 143.66 63.6796 146.521 61.6476L146.502 67.4913C143.579 69.3148 139.722 70.2185 134.93 70.2024C130.222 70.1865 126.529 68.7262 123.851 65.8213C121.194 62.8957 119.875 58.7975 119.892 53.5267C119.909 48.5476 121.392 44.5004 124.34 41.3853C127.308 38.2495 130.98 36.6889 135.355 36.7036C139.73 36.7183 143.111 38.136 145.497 40.9565C147.884 43.7771 149.068 47.6873 149.052 52.6873L149.042 55.4685ZM142.06 50.32C142.047 47.7158 141.44 45.6929 140.236 44.2513C139.033 42.7889 137.369 42.0542 135.244 42.047C133.16 42.04 131.387 42.7945 129.923 44.3104C128.481 45.8264 127.589 47.813 127.247 50.2702L142.06 50.32ZM178.812 68.1312C176.245 69.6018 173.211 70.3312 169.711 70.3194C164.961 70.3034 161.133 68.8113 158.226 65.8432C155.32 62.8543 153.874 58.9952 153.89 54.2661C153.908 48.9953 155.485 44.7714 158.62 41.5944C161.777 38.3967 165.98 36.8066 171.23 36.8243C174.147 36.8341 176.718 37.3532 178.944 38.3815L178.921 45.1315C176.697 43.4573 174.325 42.616 171.804 42.6075C168.742 42.5972 166.228 43.6304 164.263 45.7072C162.297 47.7631 161.309 50.4681 161.298 53.8222C161.287 57.1347 162.195 59.7524 164.021 61.6752C165.869 63.5981 168.345 64.5648 171.449 64.5752C174.053 64.584 176.515 63.6651 178.834 61.8188L178.812 68.1312ZM214.463 69.7199L207.213 69.6955L207.272 52.1956C207.294 45.8623 205.19 42.6886 200.961 42.6743C198.836 42.6672 197.041 43.5778 195.576 45.4062C194.112 47.2347 193.375 49.5759 193.365 52.4301L193.307 69.6488L186.026 69.6243L186.185 22.2495L193.467 22.274L193.397 42.9614L193.522 42.9618C195.952 38.9283 199.417 36.9191 203.917 36.9343C211.022 36.9582 214.559 41.3138 214.53 50.0013L214.463 69.7199ZM13.1396 137.793L13.0849 154.043L5.67869 154.018L5.82944 109.206L19.4231 109.252C24.5689 109.269 28.5544 110.48 31.3797 112.886C34.205 115.291 35.6103 118.671 35.5956 123.025C35.581 127.379 34.0898 130.936 31.1222 133.697C28.1546 136.458 24.1499 137.83 19.1083 137.813L13.1396 137.793ZM13.215 115.356L13.16 131.731L17.9724 131.747C21.1599 131.758 23.5895 131.026 25.2611 129.553C26.9327 128.079 27.7731 125.998 27.7821 123.311C27.7998 118.04 24.7462 115.394 18.6213 115.374L13.215 115.356ZM70.7408 154.237L63.4909 154.213L63.5497 136.713C63.571 130.379 61.4671 127.206 57.238 127.191C55.113 127.184 53.3183 128.095 51.8538 129.923C50.3893 131.752 49.6522 134.093 49.6426 136.947L49.5847 154.166L42.3035 154.141L42.4629 106.767L49.7441 106.791L49.6745 127.478L49.7995 127.479C52.2297 123.445 55.6948 121.436 60.1948 121.451C67.2989 121.475 70.8364 125.831 70.8072 134.518L70.7408 154.237ZM104.116 154.349L97.0844 154.326L97.1012 149.326L96.9762 149.325C94.755 153.151 91.509 155.057 87.2382 155.042C84.0924 155.032 81.6265 154.169 79.8406 152.455C78.0755 150.741 77.1977 148.477 77.2072 145.665C77.2275 139.623 80.7185 136.114 87.6802 135.138L97.1846 133.826C97.2 129.263 95.041 126.975 90.7077 126.96C86.8952 126.947 83.4533 128.248 80.382 130.863L80.4033 124.519C83.7851 122.531 87.6842 121.544 92.1009 121.559C100.184 121.586 104.212 125.579 104.186 133.537L104.116 154.349ZM97.1686 138.607L90.4467 139.522C88.3625 139.786 86.7878 140.291 85.7228 141.037C84.6787 141.763 84.1535 143.053 84.1473 144.907C84.1427 146.261 84.6181 147.377 85.5735 148.256C86.5498 149.113 87.8505 149.544 89.4754 149.55C91.6838 149.557 93.5093 148.793 94.9519 147.256C96.4155 145.698 97.1513 143.742 97.1592 141.388L97.1686 138.607ZM141.49 154.475L134.24 154.451L134.301 136.419C134.321 130.44 132.217 127.444 127.988 127.429C125.779 127.422 123.954 128.249 122.51 129.911C121.067 131.552 120.342 133.633 120.333 136.154L120.272 154.404L112.991 154.379L113.098 122.379L120.379 122.404L120.362 127.716L120.487 127.717C122.896 123.683 126.361 121.674 130.882 121.689C134.361 121.701 137.013 122.845 138.839 125.122C140.665 127.378 141.571 130.642 141.556 134.913L141.49 154.475ZM167.241 154.218C165.822 154.921 163.957 155.269 161.644 155.261C155.436 155.241 152.342 152.251 152.362 146.293L152.423 128.199L147.079 128.181L147.098 122.494L152.442 122.512L152.467 115.105L159.724 113.067L159.692 122.536L167.348 122.562L167.329 128.249L159.673 128.223L159.619 144.223C159.612 146.119 159.952 147.474 160.636 148.289C161.321 149.104 162.466 149.514 164.07 149.52C165.299 149.524 166.363 149.173 167.261 148.468L167.241 154.218ZM274.208 154.921L266.958 154.897L267.017 137.46C267.028 134.105 266.557 131.677 265.604 130.174C264.672 128.67 263.08 127.915 260.83 127.907C258.935 127.901 257.317 128.844 255.977 130.735C254.658 132.626 253.994 134.895 253.986 137.541L253.927 154.853L246.646 154.829L246.707 136.798C246.727 130.839 244.633 127.853 240.424 127.839C238.466 127.832 236.848 128.723 235.572 130.51C234.316 132.297 233.683 134.618 233.673 137.472L233.615 154.785L226.365 154.76L226.473 122.761L233.723 122.785L233.706 127.847L233.831 127.848C236.156 123.981 239.527 122.055 243.944 122.069C246.152 122.077 248.077 122.698 249.719 123.933C251.381 125.147 252.511 126.744 253.109 128.725C255.499 124.317 259.048 122.12 263.756 122.136C270.798 122.16 274.304 126.515 274.275 135.203L274.208 154.921ZM281.055 153.944L281.078 147.226C283.779 149.297 286.766 150.339 290.036 150.35C294.411 150.364 296.603 149.08 296.612 146.497C296.614 145.768 296.429 145.152 296.056 144.651C295.682 144.129 295.173 143.669 294.529 143.271C293.905 142.873 293.157 142.516 292.283 142.201C291.429 141.885 290.472 141.528 289.411 141.129C288.1 140.603 286.915 140.047 285.854 139.46C284.815 138.874 283.942 138.214 283.236 137.483C282.551 136.731 282.033 135.885 281.682 134.946C281.331 134.008 281.157 132.913 281.162 131.663C281.167 130.122 281.536 128.769 282.269 127.605C283.002 126.42 283.985 125.433 285.217 124.646C286.448 123.837 287.846 123.238 289.41 122.847C290.974 122.436 292.589 122.233 294.256 122.239C297.214 122.249 299.859 122.705 302.189 123.609L302.168 129.953C299.923 128.404 297.342 127.624 294.425 127.614C293.509 127.611 292.675 127.702 291.924 127.887C291.195 128.072 290.569 128.33 290.047 128.662C289.525 128.994 289.117 129.398 288.824 129.877C288.531 130.334 288.383 130.844 288.381 131.406C288.379 132.094 288.523 132.678 288.813 133.158C289.103 133.638 289.529 134.067 290.09 134.443C290.672 134.8 291.358 135.135 292.149 135.45C292.961 135.745 293.887 136.071 294.927 136.428C296.3 136.996 297.527 137.573 298.609 138.16C299.711 138.747 300.646 139.416 301.414 140.169C302.183 140.901 302.774 141.757 303.187 142.738C303.601 143.697 303.805 144.844 303.801 146.177C303.795 147.802 303.415 149.218 302.661 150.423C301.907 151.629 300.904 152.626 299.651 153.413C298.398 154.201 296.949 154.779 295.302 155.149C293.675 155.539 291.956 155.731 290.143 155.725C286.643 155.713 283.614 155.12 281.055 153.944Z" fill="#ED654B"/>
<path d="M122.531 30.9104L122.528 31.9104L123.528 31.9138L123.531 30.9138L122.531 30.9104ZM109.656 30.8671L109.659 29.8671L108.659 29.8638L108.656 30.8638L109.656 30.8671ZM109.527 69.3669L109.523 70.3669L110.523 70.3703L110.527 69.3703L109.527 69.3669ZM102.089 69.3419L101.089 69.3385L101.086 70.3385L102.086 70.3419L102.089 69.3419ZM102.219 30.8421L103.219 30.8455L103.222 29.8455L102.222 29.8421L102.219 30.8421ZM89.3749 30.7989L88.3749 30.7955L88.3716 31.7955L89.3716 31.7989L89.3749 30.7989ZM89.3962 24.4864L89.3995 23.4864L88.3995 23.4831L88.3962 24.4831L89.3962 24.4864ZM122.552 24.598L123.552 24.6013L123.556 23.6013L122.556 23.598L122.552 24.598ZM122.534 29.9104L109.659 29.8671L109.653 31.8671L122.528 31.9104L122.534 29.9104ZM108.656 30.8638L108.527 69.3635L110.527 69.3703L110.656 30.8705L108.656 30.8638ZM109.53 68.3669L102.092 68.3419L102.086 70.3419L109.523 70.3669L109.53 68.3669ZM103.089 69.3453L103.219 30.8455L101.219 30.8387L101.089 69.3385L103.089 69.3453ZM102.222 29.8421L89.3783 29.7989L89.3716 31.7989L102.215 31.8421L102.222 29.8421ZM90.3749 30.8023L90.3962 24.4898L88.3962 24.4831L88.3749 30.7955L90.3749 30.8023ZM89.3928 25.4864L122.549 25.598L122.556 23.598L89.3995 23.4864L89.3928 25.4864ZM121.552 24.5946L121.531 30.9071L123.531 30.9138L123.552 24.6013L121.552 24.5946ZM149.042 55.4685L149.039 56.4685L150.039 56.4719L150.042 55.4719L149.042 55.4685ZM127.23 55.3951L127.233 54.3951L126.205 54.3917L126.23 55.4199L127.23 55.3951ZM129.926 62.248L129.243 62.9788L129.247 62.9829L129.926 62.248ZM146.521 61.6476L147.521 61.6509L147.528 59.7061L145.942 60.8323L146.521 61.6476ZM146.502 67.4913L147.031 68.3397L147.5 68.0472L147.502 67.4947L146.502 67.4913ZM123.851 65.8213L123.111 66.4936L123.116 66.4991L123.851 65.8213ZM124.34 41.3853L123.613 40.6978L123.613 40.698L124.34 41.3853ZM142.06 50.32L142.056 51.32L143.064 51.3234L143.06 50.3154L142.06 50.32ZM140.236 44.2513L139.464 44.8868L139.469 44.8922L140.236 44.2513ZM129.923 44.3104L129.204 43.6158L129.199 43.621L129.923 44.3104ZM127.247 50.2702L126.257 50.1325L126.099 51.2663L127.244 51.2702L127.247 50.2702ZM149.046 54.4685L127.233 54.3951L127.227 56.3951L149.039 56.4685L149.046 54.4685ZM126.23 55.4199C126.308 58.5746 127.276 61.1415 129.243 62.9788L130.608 61.5172C129.128 60.1345 128.298 58.1329 128.23 55.3703L126.23 55.4199ZM129.247 62.9829C131.223 64.8062 133.883 65.6676 137.102 65.6784L137.108 63.6784C134.244 63.6688 132.117 62.9099 130.604 61.5131L129.247 62.9829ZM137.102 65.6784C140.733 65.6906 144.074 64.6122 147.101 62.4629L145.942 60.8323C143.247 62.747 140.31 63.6892 137.108 63.6784L137.102 65.6784ZM145.521 61.6442L145.502 67.4879L147.502 67.4947L147.521 61.6509L145.521 61.6442ZM145.972 66.6429C143.26 68.335 139.607 69.2181 134.933 69.2024L134.927 71.2024C139.836 71.2189 143.898 70.2946 147.031 68.3397L145.972 66.6429ZM134.933 69.2024C130.445 69.1873 127.04 67.8049 124.586 65.1435L123.116 66.4991C126.018 69.6475 129.998 71.1858 134.927 71.2024L134.933 69.2024ZM124.591 65.1491C122.152 62.4628 120.875 58.6361 120.892 53.5301L118.892 53.5233C118.874 58.9589 120.237 63.3286 123.111 66.4936L124.591 65.1491ZM120.892 53.5301C120.908 48.7616 122.321 44.9733 125.066 42.0727L123.613 40.698C120.462 44.0275 118.91 48.3336 118.892 53.5233L120.892 53.5301ZM125.066 42.0728C127.842 39.1403 131.249 37.6898 135.352 37.7036L135.359 35.7036C130.712 35.688 126.775 37.3587 123.613 40.6978L125.066 42.0728ZM135.352 37.7036C139.493 37.7175 142.572 39.0473 144.734 41.6024L146.261 40.3106C143.65 37.2246 139.967 35.7191 135.359 35.7036L135.352 37.7036ZM144.734 41.6024C146.92 44.1861 148.068 47.8373 148.052 52.6839L150.052 52.6906C150.069 47.5373 148.847 43.368 146.261 40.3106L144.734 41.6024ZM148.052 52.6839L148.042 55.4652L150.042 55.4719L150.052 52.6906L148.052 52.6839ZM143.06 50.3154C143.047 47.5677 142.405 45.2888 141.004 43.6105L139.469 44.8922C140.474 46.0969 141.048 47.8639 141.06 50.3246L143.06 50.3154ZM141.008 43.6159C139.591 41.8937 137.629 41.055 135.247 41.047L135.24 43.047C137.108 43.0533 138.474 43.6841 139.464 44.8868L141.008 43.6159ZM135.247 41.047C132.888 41.0391 130.854 41.9064 129.204 43.6158L130.643 45.0049C131.92 43.6825 133.433 43.0409 135.24 43.047L135.247 41.047ZM129.199 43.621C127.587 45.3151 126.622 47.5076 126.257 50.1325L128.238 50.4079C128.556 48.1184 129.375 46.3377 130.648 44.9997L129.199 43.621ZM127.244 51.2702L142.056 51.32L142.063 49.32L127.25 49.2702L127.244 51.2702ZM178.812 68.1312L179.309 68.999L179.81 68.712L179.812 68.1346L178.812 68.1312ZM158.226 65.8432L157.509 66.5404L157.512 66.5429L158.226 65.8432ZM158.62 41.5944L157.909 40.8919L157.909 40.8919L158.62 41.5944ZM178.944 38.3815L179.944 38.3849L179.946 37.7429L179.363 37.4737L178.944 38.3815ZM178.921 45.1315L178.319 45.9303L179.914 47.1311L179.921 45.1348L178.921 45.1315ZM164.263 45.7072L164.986 46.3982L164.989 46.3945L164.263 45.7072ZM164.021 61.6752L163.297 62.364L163.3 62.3681L164.021 61.6752ZM178.834 61.8188L179.834 61.8221L179.841 59.7386L178.211 61.0365L178.834 61.8188ZM178.315 67.2635C175.926 68.632 173.071 69.3307 169.715 69.3194L169.708 71.3194C173.351 71.3316 176.564 70.5715 179.309 68.999L178.315 67.2635ZM169.715 69.3194C165.19 69.3042 161.633 67.8925 158.941 65.1435L157.512 66.5429C160.633 69.7302 164.732 71.3026 169.708 71.3194L169.715 69.3194ZM158.943 65.1461C156.244 62.3703 154.875 58.7751 154.89 54.2694L152.89 54.2627C152.873 59.2153 154.395 63.3383 157.509 66.5404L158.943 65.1461ZM154.89 54.2694C154.907 49.2097 156.413 45.2543 159.332 42.2969L157.909 40.8919C154.556 44.2885 152.909 48.7809 152.89 54.2627L154.89 54.2694ZM159.332 42.2969C162.268 39.3226 166.196 37.8074 171.227 37.8243L171.233 35.8243C165.764 35.8059 161.286 37.4707 157.909 40.8919L159.332 42.2969ZM171.227 37.8243C174.027 37.8337 176.451 38.3316 178.524 39.2893L179.363 37.4737C176.985 36.3748 174.267 35.8345 171.233 35.8243L171.227 37.8243ZM177.944 38.3781L177.921 45.1281L179.921 45.1348L179.944 38.3849L177.944 38.3781ZM179.522 44.3326C177.145 42.5428 174.567 41.6168 171.808 41.6075L171.801 43.6075C174.083 43.6152 176.249 44.3718 178.319 45.9303L179.522 44.3326ZM171.808 41.6075C168.491 41.5964 165.706 42.7273 163.536 45.0198L164.989 46.3945C166.75 44.5336 168.993 43.5981 171.801 43.6075L171.808 41.6075ZM163.54 45.0162C161.366 47.29 160.31 50.2575 160.298 53.8189L162.298 53.8256C162.308 50.6786 163.229 48.2362 164.986 46.3982L163.54 45.0162ZM160.298 53.8189C160.286 57.3216 161.251 60.2108 163.297 62.364L164.746 60.9864C163.138 59.2939 162.287 56.9478 162.298 53.8256L160.298 53.8189ZM163.3 62.3681C165.367 64.5186 168.119 65.564 171.446 65.5752L171.453 63.5752C168.571 63.5655 166.371 62.6776 164.743 60.9823L163.3 62.3681ZM171.446 65.5752C174.309 65.5848 176.986 64.5685 179.456 62.6011L178.211 61.0365C176.044 62.7618 173.798 63.5831 171.453 63.5752L171.446 65.5752ZM177.834 61.8154L177.812 68.1279L179.812 68.1346L179.834 61.8221L177.834 61.8154ZM214.463 69.7199L214.46 70.7199L215.46 70.7233L215.463 69.7233L214.463 69.7199ZM207.213 69.6955L206.213 69.6922L206.21 70.6922L207.21 70.6955L207.213 69.6955ZM193.307 69.6488L193.304 70.6487L194.304 70.6521L194.307 69.6521L193.307 69.6488ZM186.026 69.6243L185.026 69.6209L185.023 70.6209L186.023 70.6243L186.026 69.6243ZM186.185 22.2495L186.189 21.2495L185.189 21.2462L185.185 22.2462L186.185 22.2495ZM193.467 22.274L194.467 22.2774L194.47 21.2774L193.47 21.274L193.467 22.274ZM193.397 42.9614L192.397 42.958L192.394 43.958L193.394 43.9614L193.397 42.9614ZM193.522 42.9618L193.519 43.9618L194.086 43.9637L194.379 43.4779L193.522 42.9618ZM214.467 68.7199L207.217 68.6955L207.21 70.6955L214.46 70.7199L214.467 68.7199ZM208.213 69.6989L208.272 52.199L206.272 52.1923L206.213 69.6922L208.213 69.6989ZM208.272 52.199C208.283 48.9526 207.756 46.341 206.544 44.5128C205.285 42.6131 203.369 41.6824 200.964 41.6744L200.957 43.6743C202.781 43.6805 204.032 44.3438 204.877 45.6179C205.769 46.9634 206.283 49.1054 206.272 52.1923L208.272 52.199ZM200.964 41.6744C198.5 41.6661 196.429 42.7426 194.796 44.7811L196.357 46.0314C197.653 44.413 199.171 43.6683 200.957 43.6743L200.964 41.6744ZM194.796 44.7811C193.161 46.822 192.375 49.3974 192.365 52.4267L194.365 52.4335C194.374 49.7545 195.063 47.6473 196.357 46.0314L194.796 44.7811ZM192.365 52.4267L192.307 69.6454L194.307 69.6521L194.365 52.4335L192.365 52.4267ZM193.311 68.6488L186.029 68.6243L186.023 70.6243L193.304 70.6487L193.311 68.6488ZM187.026 69.6276L187.185 22.2529L185.185 22.2462L185.026 69.6209L187.026 69.6276ZM186.182 23.2495L193.463 23.274L193.47 21.274L186.189 21.2495L186.182 23.2495ZM192.467 22.2707L192.397 42.958L194.397 42.9648L194.467 22.2774L192.467 22.2707ZM193.394 43.9614L193.519 43.9618L193.525 41.9618L193.4 41.9614L193.394 43.9614ZM194.379 43.4779C196.638 39.7286 199.785 37.9204 203.914 37.9343L203.921 35.9343C199.049 35.9179 195.267 38.128 192.666 42.4457L194.379 43.4779ZM203.914 37.9343C207.253 37.9455 209.591 38.9643 211.122 40.8494C212.685 42.773 213.544 45.7649 213.53 49.9979L215.53 50.0046C215.545 45.5502 214.65 42.0205 212.675 39.5885C210.668 37.1179 207.686 35.9469 203.921 35.9343L203.914 37.9343ZM213.53 49.9979L213.463 69.7166L215.463 69.7233L215.53 50.0046L213.53 49.9979ZM13.1396 137.793L13.1429 136.793L12.1429 136.79L12.1396 137.79L13.1396 137.793ZM13.0849 154.043L13.0815 155.043L14.0815 155.046L14.0849 154.046L13.0849 154.043ZM5.67869 154.018L4.6787 154.015L4.67533 155.015L5.67533 155.018L5.67869 154.018ZM5.82944 109.206L5.83281 108.206L4.83281 108.202L4.82945 109.202L5.82944 109.206ZM31.3797 112.886L30.7315 113.647L31.3797 112.886ZM31.1222 133.697L30.4411 132.965L31.1222 133.697ZM13.215 115.356L13.2184 114.356L12.2184 114.352L12.2151 115.352L13.215 115.356ZM13.16 131.731L12.16 131.727L12.1566 132.727L13.1566 132.731L13.16 131.731ZM12.1396 137.79L12.0849 154.04L14.0849 154.046L14.1396 137.796L12.1396 137.79ZM13.0883 153.043L5.68206 153.018L5.67533 155.018L13.0815 155.043L13.0883 153.043ZM6.67869 154.021L6.82944 109.209L4.82945 109.202L4.6787 154.015L6.67869 154.021ZM5.82608 110.206L19.4198 110.252L19.4265 108.252L5.83281 108.206L5.82608 110.206ZM19.4198 110.252C24.4201 110.268 28.1451 111.445 30.7315 113.647L32.028 112.124C28.9638 109.515 24.7178 108.269 19.4265 108.252L19.4198 110.252ZM30.7315 113.647C33.2929 115.828 34.6095 118.905 34.5956 123.021L36.5956 123.028C36.6111 118.436 35.117 114.754 32.028 112.124L30.7315 113.647ZM34.5956 123.021C34.5818 127.122 33.19 130.408 30.4411 132.965L31.8033 134.429C34.9897 131.465 36.5801 127.636 36.5956 123.028L34.5956 123.021ZM30.4411 132.965C27.7019 135.513 23.9642 136.829 19.1116 136.813L19.1049 138.813C24.3356 138.831 28.6072 137.403 31.8033 134.429L30.4411 132.965ZM19.1116 136.813L13.1429 136.793L13.1362 138.793L19.1049 138.813L19.1116 136.813ZM12.2151 115.352L12.16 131.727L14.16 131.734L14.215 115.359L12.2151 115.352ZM13.1566 132.731L17.9691 132.747L17.9758 130.747L13.1633 130.731L13.1566 132.731ZM17.9691 132.747C21.297 132.758 24.0018 131.996 25.9224 130.303L24.5998 128.802C23.1772 130.056 21.0228 130.757 17.9758 130.747L17.9691 132.747ZM25.9224 130.303C27.8523 128.601 28.7723 126.224 28.7821 123.314L26.7821 123.308C26.7738 125.773 26.0131 127.557 24.5998 128.802L25.9224 130.303ZM28.7821 123.314C28.7916 120.482 27.9696 118.186 26.16 116.618C24.3791 115.075 21.8075 114.385 18.6246 114.374L18.6179 116.374C21.5599 116.384 23.5777 117.027 24.8504 118.129C26.0944 119.207 26.7903 120.869 26.7821 123.308L28.7821 123.314ZM18.6246 114.374L13.2184 114.356L13.2117 116.356L18.6179 116.374L18.6246 114.374ZM70.7408 154.237L70.7375 155.237L71.7375 155.24L71.7408 154.24L70.7408 154.237ZM63.4909 154.213L62.4909 154.209L62.4875 155.209L63.4875 155.213L63.4909 154.213ZM49.5847 154.166L49.5813 155.166L50.5813 155.169L50.5847 154.169L49.5847 154.166ZM42.3035 154.141L41.3035 154.138L41.3001 155.138L42.3001 155.141L42.3035 154.141ZM42.4629 106.767L42.4662 105.767L41.4662 105.763L41.4629 106.763L42.4629 106.767ZM49.7441 106.791L50.7441 106.794L50.7474 105.794L49.7474 105.791L49.7441 106.791ZM49.6745 127.478L48.6745 127.475L48.6711 128.475L49.6711 128.478L49.6745 127.478ZM49.7995 127.479L49.7961 128.479L50.3633 128.481L50.656 127.995L49.7995 127.479ZM70.7442 153.237L63.4942 153.213L63.4875 155.213L70.7375 155.237L70.7442 153.237ZM64.4909 154.216L64.5497 136.716L62.5497 136.709L62.4909 154.209L64.4909 154.216ZM64.5497 136.716C64.5607 133.47 64.0332 130.858 62.8213 129.03C61.5619 127.13 59.6465 126.199 57.2413 126.191L57.2346 128.191C59.0586 128.197 60.3097 128.861 61.1543 130.135C62.0463 131.48 62.5601 133.622 62.5497 136.709L64.5497 136.716ZM57.2413 126.191C54.7777 126.183 52.706 127.26 51.0733 129.298L52.6343 130.548C53.9305 128.93 55.4483 128.185 57.2346 128.191L57.2413 126.191ZM51.0733 129.298C49.4386 131.339 48.6528 133.914 48.6426 136.944L50.6426 136.95C50.6516 134.272 51.34 132.164 52.6343 130.548L51.0733 129.298ZM48.6426 136.944L48.5847 154.162L50.5847 154.169L50.6426 136.95L48.6426 136.944ZM49.5881 153.166L42.3068 153.141L42.3001 155.141L49.5813 155.166L49.5881 153.166ZM43.3035 154.145L43.4628 106.77L41.4629 106.763L41.3035 154.138L43.3035 154.145ZM42.4595 107.767L49.7407 107.791L49.7474 105.791L42.4662 105.767L42.4595 107.767ZM48.7441 106.788L48.6745 127.475L50.6745 127.482L50.7441 106.794L48.7441 106.788ZM49.6711 128.478L49.7961 128.479L49.8028 126.479L49.6778 126.478L49.6711 128.478ZM50.656 127.995C52.915 124.246 56.0628 122.437 60.1914 122.451L60.1982 120.451C55.3269 120.435 51.5444 122.645 48.9429 126.963L50.656 127.995ZM60.1914 122.451C63.5303 122.462 65.8688 123.481 67.3997 125.366C68.962 127.29 69.8214 130.282 69.8072 134.515L71.8072 134.522C71.8221 130.067 70.9274 126.538 68.9522 124.106C66.9457 121.635 63.9634 120.464 60.1982 120.451L60.1914 122.451ZM69.8072 134.515L69.7408 154.234L71.7408 154.24L71.8072 134.522L69.8072 134.515ZM104.116 154.349L104.112 155.349L105.112 155.353L105.116 154.353L104.116 154.349ZM97.0844 154.326L96.0844 154.322L96.0811 155.322L97.0811 155.326L97.0844 154.326ZM97.1012 149.326L98.1012 149.329L98.1046 148.329L97.1046 148.326L97.1012 149.326ZM96.9762 149.325L96.9796 148.325L96.4016 148.323L96.1114 148.823L96.9762 149.325ZM79.8406 152.455L79.1439 153.172L79.1481 153.176L79.8406 152.455ZM87.6802 135.138L87.5434 134.147L87.5413 134.147L87.6802 135.138ZM97.1846 133.826L97.3214 134.816L98.1817 134.698L98.1846 133.829L97.1846 133.826ZM80.382 130.863L79.382 130.86L79.3747 133.034L81.0302 131.624L80.382 130.863ZM80.4033 124.519L79.8964 123.657L79.4053 123.946L79.4034 124.516L80.4033 124.519ZM97.1686 138.607L98.1685 138.61L98.1724 137.461L97.0337 137.616L97.1686 138.607ZM90.4467 139.522L90.5723 140.514L90.5816 140.513L90.4467 139.522ZM85.7228 141.037L86.2935 141.858L86.2967 141.856L85.7228 141.037ZM85.5735 148.256L84.8968 148.992L84.9051 148.999L84.9136 149.007L85.5735 148.256ZM94.9519 147.256L94.2232 146.571L94.2229 146.571L94.9519 147.256ZM104.119 153.349L97.0878 153.326L97.0811 155.326L104.112 155.349L104.119 153.349ZM98.0844 154.329L98.1012 149.329L96.1013 149.322L96.0844 154.322L98.0844 154.329ZM97.1046 148.326L96.9796 148.325L96.9729 150.325L97.0979 150.326L97.1046 148.326ZM96.1114 148.823C94.0618 152.353 91.1392 154.056 87.2416 154.042L87.2348 156.042C91.8788 156.058 95.4482 153.949 97.8411 149.827L96.1114 148.823ZM87.2416 154.042C84.2802 154.032 82.0872 153.225 80.5331 151.734L79.1481 153.176C81.1659 155.113 83.9046 156.031 87.2348 156.042L87.2416 154.042ZM80.5373 151.738C78.9954 150.24 78.1985 148.252 78.2072 145.668L76.2072 145.662C76.197 148.703 77.1556 151.241 79.1439 153.172L80.5373 151.738ZM78.2072 145.668C78.2167 142.849 79.0291 140.736 80.5496 139.207C82.0885 137.66 84.4661 136.598 87.8191 136.128L87.5413 134.147C83.9326 134.653 81.0839 135.834 79.1317 137.797C77.1613 139.777 76.218 142.439 76.2072 145.662L78.2072 145.668ZM87.8169 136.128L97.3214 134.816L97.0479 132.835L87.5434 134.147L87.8169 136.128ZM98.1846 133.829C98.1928 131.406 97.6251 129.401 96.3043 128.001C94.9743 126.592 93.0454 125.968 90.7111 125.96L90.7043 127.96C92.7033 127.967 94.0205 128.495 94.8495 129.374C95.6877 130.262 96.1918 131.683 96.1846 133.822L98.1846 133.829ZM90.7111 125.96C86.6453 125.947 82.9754 127.342 79.7338 130.102L81.0302 131.624C83.9312 129.155 87.1452 127.948 90.7043 127.96L90.7111 125.96ZM81.382 130.866L81.4033 124.523L79.4034 124.516L79.382 130.86L81.382 130.866ZM80.9103 125.381C84.1186 123.495 87.8372 122.544 92.0975 122.559L92.1042 120.559C87.5313 120.543 83.4515 121.567 79.8964 123.657L80.9103 125.381ZM92.0975 122.559C95.9889 122.572 98.7198 123.539 100.481 125.284C102.238 127.026 103.199 129.712 103.186 133.533L105.186 133.54C105.2 129.403 104.159 126.114 101.889 123.863C99.621 121.616 96.2961 120.573 92.1042 120.559L92.0975 122.559ZM103.186 133.533L103.116 154.346L105.116 154.353L105.186 133.54L103.186 133.533ZM97.0337 137.616L90.3118 138.531L90.5816 140.513L97.3034 139.598L97.0337 137.616ZM90.3211 138.53C88.1641 138.803 86.4048 139.338 85.1489 140.218L86.2967 141.856C87.1709 141.244 88.5608 140.769 90.5723 140.514L90.3211 138.53ZM85.1521 140.216C83.7319 141.203 83.1541 142.882 83.1473 144.904L85.1473 144.91C85.153 143.224 85.6255 142.323 86.2935 141.858L85.1521 140.216ZM83.1473 144.904C83.1418 146.525 83.7246 147.914 84.8968 148.992L86.2503 147.519C85.5117 146.84 85.1436 145.997 85.1473 144.91L83.1473 144.904ZM84.9136 149.007C86.1137 150.061 87.6681 150.544 89.4721 150.55L89.4788 148.55C88.0328 148.545 86.986 148.165 86.2334 147.504L84.9136 149.007ZM89.4721 150.55C91.9429 150.558 94.0386 149.69 95.681 147.94L94.2229 146.571C92.98 147.895 91.4247 148.556 89.4788 148.55L89.4721 150.55ZM95.6807 147.941C97.336 146.179 98.1505 143.971 98.1592 141.392L96.1592 141.385C96.152 143.514 95.4951 145.217 94.2232 146.571L95.6807 147.941ZM98.1592 141.392L98.1685 138.61L96.1686 138.604L96.1592 141.385L98.1592 141.392ZM141.49 154.475L141.487 155.475L142.487 155.478L142.49 154.478L141.49 154.475ZM134.24 154.451L133.24 154.447L133.237 155.447L134.237 155.451L134.24 154.451ZM122.51 129.911L123.261 130.571L123.265 130.567L122.51 129.911ZM120.272 154.404L120.268 155.404L121.268 155.407L121.272 154.407L120.272 154.404ZM112.991 154.379L111.991 154.376L111.987 155.376L112.987 155.379L112.991 154.379ZM113.098 122.379L113.102 121.379L112.102 121.376L112.098 122.376L113.098 122.379ZM120.379 122.404L121.379 122.407L121.383 121.407L120.383 121.404L120.379 122.404ZM120.362 127.716L119.362 127.713L119.358 128.713L120.358 128.716L120.362 127.716ZM120.487 127.717L120.483 128.717L121.053 128.719L121.345 128.229L120.487 127.717ZM138.839 125.122L138.059 125.748L138.062 125.751L138.839 125.122ZM141.494 153.475L134.244 153.451L134.237 155.451L141.487 155.475L141.494 153.475ZM135.24 154.454L135.301 136.423L133.301 136.416L133.24 154.447L135.24 154.454ZM135.301 136.423C135.311 133.346 134.781 130.857 133.556 129.113C132.286 127.305 130.372 126.437 127.991 126.429L127.984 128.429C129.832 128.436 131.085 129.074 131.919 130.262C132.799 131.515 133.311 133.514 133.301 136.416L135.301 136.423ZM127.991 126.429C125.493 126.421 123.39 127.373 121.755 129.255L123.265 130.567C124.517 129.125 126.066 128.423 127.984 128.429L127.991 126.429ZM121.76 129.251C120.132 131.101 119.342 133.427 119.333 136.15L121.333 136.157C121.341 133.839 122.002 132.003 123.261 130.571L121.76 129.251ZM119.333 136.15L119.272 154.4L121.272 154.407L121.333 136.157L119.333 136.15ZM120.275 153.404L112.994 153.379L112.987 155.379L120.268 155.404L120.275 153.404ZM113.991 154.382L114.098 122.383L112.098 122.376L111.991 154.376L113.991 154.382ZM113.095 123.379L120.376 123.404L120.383 121.404L113.102 121.379L113.095 123.379ZM119.379 122.4L119.362 127.713L121.362 127.72L121.379 122.407L119.379 122.4ZM120.358 128.716L120.483 128.717L120.49 126.717L120.365 126.716L120.358 128.716ZM121.345 128.229C123.582 124.484 126.728 122.675 130.879 122.689L130.885 120.689C125.995 120.673 122.21 122.882 119.628 127.204L121.345 128.229ZM130.879 122.689C134.12 122.7 136.459 123.753 138.059 125.748L139.619 124.497C137.568 121.938 134.602 120.702 130.885 120.689L130.879 122.689ZM138.062 125.751C139.688 127.761 140.57 130.764 140.556 134.909L142.556 134.916C142.571 130.52 141.642 126.995 139.617 124.493L138.062 125.751ZM140.556 134.909L140.49 154.472L142.49 154.478L142.556 134.916L140.556 134.909ZM167.241 154.218L167.686 155.114L168.239 154.839L168.241 154.221L167.241 154.218ZM152.423 128.199L153.423 128.202L153.426 127.202L152.426 127.199L152.423 128.199ZM147.079 128.181L146.079 128.178L146.076 129.178L147.076 129.181L147.079 128.181ZM147.098 122.494L147.101 121.494L146.101 121.49L146.098 122.49L147.098 122.494ZM152.442 122.512L152.438 123.512L153.438 123.515L153.442 122.515L152.442 122.512ZM152.467 115.105L152.196 114.143L151.469 114.347L151.467 115.102L152.467 115.105ZM159.724 113.067L160.724 113.071L160.728 111.746L159.453 112.105L159.724 113.067ZM159.692 122.536L158.692 122.533L158.688 123.533L159.688 123.536L159.692 122.536ZM167.348 122.562L168.348 122.565L168.351 121.565L167.351 121.562L167.348 122.562ZM167.329 128.249L167.325 129.249L168.325 129.253L168.329 128.253L167.329 128.249ZM159.673 128.223L159.676 127.223L158.676 127.22L158.673 128.22L159.673 128.223ZM167.261 148.468L168.261 148.471L168.268 146.406L166.643 147.681L167.261 148.468ZM166.797 153.322C165.566 153.932 163.871 154.269 161.648 154.261L161.641 156.261C164.042 156.27 166.078 155.911 167.686 155.114L166.797 153.322ZM161.648 154.261C158.687 154.252 156.655 153.534 155.362 152.284C154.077 151.042 153.352 149.11 153.362 146.296L151.362 146.289C151.351 149.433 152.164 151.975 153.972 153.723C155.774 155.463 158.393 156.251 161.641 156.261L161.648 154.261ZM153.362 146.296L153.423 128.202L151.423 128.196L151.362 146.289L153.362 146.296ZM152.426 127.199L147.082 127.181L147.076 129.181L152.419 129.199L152.426 127.199ZM148.079 128.184L148.098 122.497L146.098 122.49L146.079 128.178L148.079 128.184ZM147.095 123.494L152.438 123.512L152.445 121.512L147.101 121.494L147.095 123.494ZM153.442 122.515L153.467 115.109L151.467 115.102L151.442 122.508L153.442 122.515ZM152.737 116.068L159.994 114.03L159.453 112.105L152.196 114.143L152.737 116.068ZM158.724 113.064L158.692 122.533L160.692 122.539L160.724 113.071L158.724 113.064ZM159.688 123.536L167.345 123.562L167.351 121.562L159.695 121.536L159.688 123.536ZM166.348 122.558L166.329 128.246L168.329 128.253L168.348 122.565L166.348 122.558ZM167.332 127.249L159.676 127.223L159.669 129.223L167.325 129.249L167.332 127.249ZM158.673 128.22L158.619 144.22L160.619 144.227L160.673 128.227L158.673 128.22ZM158.619 144.22C158.612 146.187 158.953 147.841 159.871 148.933L161.402 147.646C160.95 147.108 160.613 146.052 160.619 144.227L158.619 144.22ZM159.871 148.933C160.824 150.067 162.319 150.514 164.066 150.52L164.073 148.52C162.612 148.515 161.818 148.141 161.402 147.646L159.871 148.933ZM164.066 150.52C165.502 150.524 166.789 150.11 167.878 149.254L166.643 147.681C165.936 148.237 165.095 148.523 164.073 148.52L164.066 150.52ZM166.261 148.464L166.241 154.214L168.241 154.221L168.261 148.471L166.261 148.464ZM274.208 154.921L274.205 155.921L275.205 155.925L275.208 154.925L274.208 154.921ZM266.958 154.897L265.958 154.894L265.955 155.894L266.955 155.897L266.958 154.897ZM265.604 130.174L264.754 130.701L264.76 130.709L265.604 130.174ZM255.977 130.735L255.161 130.157L255.157 130.163L255.977 130.735ZM253.927 154.853L253.924 155.853L254.924 155.857L254.927 154.857L253.927 154.853ZM246.646 154.829L245.646 154.825L245.643 155.825L246.643 155.829L246.646 154.829ZM235.572 130.51L234.758 129.929L234.753 129.935L235.572 130.51ZM233.615 154.785L233.612 155.785L234.612 155.788L234.615 154.788L233.615 154.785ZM226.365 154.76L225.365 154.757L225.362 155.757L226.362 155.76L226.365 154.76ZM226.473 122.761L226.476 121.761L225.476 121.757L225.473 122.757L226.473 122.761ZM233.723 122.785L234.723 122.788L234.726 121.788L233.726 121.785L233.723 122.785ZM233.706 127.847L232.706 127.844L232.702 128.844L233.702 128.847L233.706 127.847ZM233.831 127.848L233.827 128.848L234.395 128.85L234.688 128.363L233.831 127.848ZM249.719 123.933L249.118 124.732L249.123 124.736L249.129 124.74L249.719 123.933ZM253.109 128.725L252.152 129.014L252.844 131.312L253.988 129.202L253.109 128.725ZM274.212 153.921L266.962 153.897L266.955 155.897L274.205 155.921L274.212 153.921ZM267.958 154.9L268.017 137.463L266.017 137.456L265.958 154.894L267.958 154.9ZM268.017 137.463C268.029 134.061 267.56 131.391 266.449 129.638L264.76 130.709C265.554 131.963 266.028 134.15 266.017 137.456L268.017 137.463ZM266.454 129.646C265.29 127.77 263.322 126.916 260.834 126.907L260.827 128.907C262.839 128.914 264.054 129.571 264.754 130.701L266.454 129.646ZM260.834 126.907C258.538 126.9 256.642 128.067 255.161 130.157L256.793 131.313C257.992 129.62 259.331 128.902 260.827 128.907L260.834 126.907ZM255.157 130.163C253.705 132.245 252.995 134.719 252.986 137.537L254.986 137.544C254.994 135.071 255.611 133.008 256.797 131.307L255.157 130.163ZM252.986 137.537L252.927 154.85L254.927 154.857L254.986 137.544L252.986 137.537ZM253.931 153.853L246.649 153.829L246.643 155.829L253.924 155.853L253.931 153.853ZM247.646 154.832L247.707 136.801L245.707 136.794L245.646 154.825L247.646 154.832ZM247.707 136.801C247.717 133.734 247.189 131.254 245.97 129.515C244.706 127.712 242.799 126.847 240.428 126.839L240.421 128.839C242.258 128.845 243.503 129.48 244.332 130.663C245.207 131.91 245.716 133.902 245.707 136.794L247.707 136.801ZM240.428 126.839C238.102 126.831 236.197 127.915 234.758 129.929L236.385 131.091C237.5 129.53 238.83 128.833 240.421 128.839L240.428 126.839ZM234.753 129.935C233.348 131.935 232.683 134.472 232.673 137.469L234.673 137.476C234.682 134.764 235.283 132.66 236.39 131.085L234.753 129.935ZM232.673 137.469L232.615 154.781L234.615 154.788L234.673 137.476L232.673 137.469ZM233.618 153.785L226.368 153.76L226.362 155.76L233.612 155.785L233.618 153.785ZM227.365 154.764L227.473 122.764L225.473 122.757L225.365 154.757L227.365 154.764ZM226.469 123.761L233.719 123.785L233.726 121.785L226.476 121.761L226.469 123.761ZM232.723 122.782L232.706 127.844L234.706 127.851L234.723 122.788L232.723 122.782ZM233.702 128.847L233.827 128.848L233.834 126.848L233.709 126.847L233.702 128.847ZM234.688 128.363C236.836 124.79 239.885 123.056 243.94 123.069L243.947 121.069C239.169 121.053 235.476 123.172 232.974 127.333L234.688 128.363ZM243.94 123.069C245.95 123.076 247.662 123.637 249.118 124.732L250.32 123.133C248.493 121.759 246.354 121.077 243.947 121.069L243.94 123.069ZM249.129 124.74C250.615 125.825 251.617 127.24 252.152 129.014L254.066 128.437C253.406 126.248 252.148 124.468 250.308 123.125L249.129 124.74ZM253.988 129.202C255.117 127.12 256.49 125.611 258.089 124.622C259.685 123.634 261.561 123.129 263.753 123.136L263.76 121.136C261.243 121.128 258.99 121.712 257.037 122.921C255.087 124.128 253.491 125.922 252.23 128.249L253.988 129.202ZM263.753 123.136C267.057 123.147 269.372 124.164 270.888 126.048C272.437 127.971 273.289 130.965 273.275 135.199L275.275 135.206C275.29 130.753 274.403 127.225 272.446 124.793C270.456 122.321 267.497 121.149 263.76 121.136L263.753 123.136ZM273.275 135.199L273.208 154.918L275.208 154.925L275.275 135.206L273.275 135.199ZM281.055 153.944L280.056 153.941L280.053 154.585L280.638 154.853L281.055 153.944ZM281.078 147.226L281.687 146.432L280.085 145.204L280.078 147.222L281.078 147.226ZM296.056 144.651L295.242 145.233L295.248 145.241L295.254 145.248L296.056 144.651ZM294.529 143.271L293.991 144.114L293.997 144.118L294.004 144.122L294.529 143.271ZM292.283 142.201L291.936 143.139L291.943 143.141L292.283 142.201ZM289.411 141.129L289.039 142.057L289.049 142.061L289.059 142.065L289.411 141.129ZM285.854 139.46L285.363 140.331L285.37 140.335L285.854 139.46ZM283.236 137.483L282.496 138.156L282.506 138.167L282.516 138.177L283.236 137.483ZM282.269 127.605L283.115 128.137L283.12 128.131L282.269 127.605ZM285.217 124.646L285.755 125.488L285.765 125.482L285.217 124.646ZM289.41 122.847L289.652 123.818L289.665 123.814L289.41 122.847ZM302.189 123.609L303.189 123.612L303.191 122.925L302.55 122.677L302.189 123.609ZM302.168 129.953L301.6 130.776L303.161 131.854L303.168 129.956L302.168 129.953ZM291.924 127.887L291.685 126.916L291.679 126.918L291.924 127.887ZM288.824 129.877L289.666 130.416L289.671 130.408L289.676 130.399L288.824 129.877ZM290.09 134.443L289.532 135.274L289.55 135.285L289.568 135.296L290.09 134.443ZM292.149 135.45L291.779 136.379L291.793 136.385L291.808 136.39L292.149 135.45ZM294.927 136.428L295.309 135.504L295.281 135.493L295.252 135.483L294.927 136.428ZM298.609 138.16L298.132 139.039L298.139 139.042L298.609 138.16ZM301.414 140.169L300.715 140.884L300.725 140.893L301.414 140.169ZM303.187 142.738L302.266 143.126L302.269 143.133L303.187 142.738ZM295.302 155.149L295.083 154.173L295.075 154.174L295.068 154.176L295.302 155.149ZM282.055 153.948L282.078 147.229L280.078 147.222L280.056 153.941L282.055 153.948ZM280.47 148.019C283.337 150.218 286.534 151.338 290.033 151.35L290.04 149.35C286.997 149.339 284.222 148.376 281.687 146.432L280.47 148.019ZM290.033 151.35C292.286 151.357 294.142 151.037 295.467 150.26C296.874 149.436 297.606 148.138 297.612 146.5L295.612 146.493C295.609 147.439 295.24 148.075 294.456 148.535C293.589 149.043 292.162 149.357 290.04 149.35L290.033 151.35ZM297.612 146.5C297.615 145.592 297.381 144.756 296.858 144.054L295.254 145.248C295.477 145.548 295.614 145.943 295.612 146.493L297.612 146.5ZM296.869 144.069C296.406 143.422 295.792 142.875 295.054 142.42L294.004 144.122C294.555 144.462 294.959 144.836 295.242 145.233L296.869 144.069ZM295.067 142.428C294.367 141.982 293.549 141.595 292.622 141.26L291.943 143.141C292.764 143.438 293.443 143.764 293.991 144.114L295.067 142.428ZM292.629 141.263C291.778 140.948 290.823 140.592 289.763 140.193L289.059 142.065C290.121 142.465 291.08 142.823 291.936 143.139L292.629 141.263ZM289.783 140.2C288.505 139.688 287.357 139.149 286.338 138.586L285.37 140.335C286.472 140.945 287.696 141.519 289.039 142.057L289.783 140.2ZM286.346 138.59C285.376 138.042 284.584 137.44 283.956 136.789L282.516 138.177C283.3 138.989 284.253 139.705 285.363 140.331L286.346 138.59ZM283.975 136.81C283.375 136.15 282.924 135.414 282.619 134.596L280.745 135.297C281.142 136.356 281.727 137.311 282.496 138.156L283.975 136.81ZM282.619 134.596C282.319 133.795 282.158 132.825 282.162 131.667L280.162 131.66C280.157 133.002 280.343 134.221 280.745 135.297L282.619 134.596ZM282.162 131.667C282.166 130.289 282.494 129.124 283.115 128.137L281.423 127.072C280.578 128.413 280.167 129.954 280.162 131.66L282.162 131.667ZM283.12 128.131C283.77 127.079 284.643 126.199 285.755 125.488L284.678 123.803C283.326 124.667 282.235 125.76 281.419 127.078L283.12 128.131ZM285.765 125.482C286.895 124.741 288.187 124.183 289.652 123.818L289.168 121.877C287.505 122.292 286.002 122.934 284.668 123.81L285.765 125.482ZM289.665 123.814C291.142 123.426 292.67 123.233 294.253 123.239L294.259 121.239C292.508 121.233 290.806 121.446 289.156 121.88L289.665 123.814ZM294.253 123.239C297.11 123.248 299.63 123.689 301.827 124.541L302.55 122.677C300.087 121.721 297.318 121.249 294.259 121.239L294.253 123.239ZM301.189 123.606L301.168 129.949L303.168 129.956L303.189 123.612L301.189 123.606ZM302.736 129.13C300.313 127.458 297.532 126.625 294.429 126.614L294.422 128.614C297.152 128.623 299.533 129.349 301.6 130.776L302.736 129.13ZM294.429 126.614C293.445 126.611 292.528 126.708 291.685 126.916L292.164 128.858C292.822 128.696 293.572 128.611 294.422 128.614L294.429 126.614ZM291.679 126.918C290.868 127.123 290.139 127.419 289.511 127.818L290.583 129.506C290.998 129.242 291.522 129.021 292.17 128.856L291.679 126.918ZM289.511 127.818C288.874 128.223 288.352 128.733 287.972 129.354L289.676 130.399C289.882 130.064 290.176 129.765 290.583 129.506L289.511 127.818ZM287.982 129.337C287.583 129.96 287.384 130.657 287.381 131.403L289.381 131.41C289.383 131.03 289.479 130.708 289.666 130.416L287.982 129.337ZM287.381 131.403C287.379 132.233 287.553 133.006 287.957 133.675L289.669 132.641C289.493 132.35 289.38 131.955 289.381 131.41L287.381 131.403ZM287.957 133.675C288.336 134.303 288.874 134.832 289.532 135.274L290.647 133.613C290.183 133.301 289.87 132.973 289.669 132.641L287.957 133.675ZM289.568 135.296C290.209 135.688 290.948 136.048 291.779 136.379L292.519 134.521C291.769 134.222 291.136 133.911 290.612 133.59L289.568 135.296ZM291.808 136.39C292.626 136.687 293.557 137.015 294.602 137.374L295.252 135.483C294.216 135.126 293.295 134.802 292.49 134.51L291.808 136.39ZM294.545 137.353C295.892 137.909 297.087 138.471 298.132 139.038L299.086 137.281C297.968 136.674 296.708 136.082 295.309 135.504L294.545 137.353ZM298.139 139.042C299.17 139.591 300.024 140.207 300.715 140.883L302.114 139.455C301.268 138.626 300.252 137.902 299.079 137.277L298.139 139.042ZM300.725 140.893C301.393 141.53 301.905 142.272 302.266 143.126L304.109 142.349C303.642 141.242 302.972 140.272 302.104 139.445L300.725 140.893ZM302.269 143.133C302.615 143.937 302.805 144.941 302.801 146.174L304.8 146.18C304.805 144.746 304.586 143.457 304.105 142.342L302.269 143.133ZM302.801 146.174C302.796 147.64 302.455 148.867 301.813 149.893L303.509 150.954C304.375 149.568 304.794 147.965 304.8 146.18L302.801 146.174ZM301.813 149.893C301.143 150.966 300.249 151.856 299.119 152.567L300.183 154.26C301.558 153.395 302.672 152.292 303.509 150.954L301.813 149.893ZM299.119 152.567C297.975 153.286 296.634 153.825 295.083 154.173L295.52 156.124C297.263 155.733 298.822 155.116 300.183 154.26L299.119 152.567ZM295.068 154.176C293.526 154.546 291.886 154.731 290.147 154.725L290.14 156.725C292.026 156.731 293.825 156.531 295.535 156.121L295.068 154.176ZM290.147 154.725C286.756 154.714 283.874 154.139 281.473 153.036L280.638 154.853C283.354 156.101 286.531 156.713 290.14 156.725L290.147 154.725Z" fill="#F0EBEB"/>
</svg>
