<?xml version="1.0" encoding="iso-8859-1"?>
<!-- Generator: Adobe Illustrator 19.0.0, SVG Export Plug-In . SVG Version: 6.00 Build 0)  -->
<svg version="1.1" id="Layer_1" xmlns="http://www.w3.org/2000/svg" xmlns:xlink="http://www.w3.org/1999/xlink" x="0px" y="0px"
	 viewBox="0 0 512 512" style="enable-background:new 0 0 512 512;" xml:space="preserve">
<circle style="fill:#273B7A;" cx="256" cy="256" r="256"/>
<path style="fill:#121149;" d="M154.721,355.837L305.99,507.106c101.283-20.051,181.067-99.837,201.118-201.119L357.136,156.015
	L154.721,355.837z"/>
<circle style="fill:#FFC61B;" cx="256" cy="256" r="142.222"/>
<path style="fill:#EAA22F;" d="M398.222,256c0-78.546-63.674-142.222-142.222-142.222v284.444
	C334.548,398.222,398.222,334.546,398.222,256z"/>
<g>
	<path style="fill:#272525;" d="M188.768,258.586c-4.284,0-7.758-3.474-7.758-7.758c0-8.556-6.959-15.515-15.515-15.515
		s-15.515,6.959-15.515,15.515c0,4.284-3.474,7.758-7.758,7.758s-7.758-3.474-7.758-7.758c0-17.11,13.921-31.03,31.03-31.03
		s31.03,13.921,31.03,31.03C196.525,255.112,193.053,258.586,188.768,258.586z"/>
	<path style="fill:#272525;" d="M307.717,258.586c-4.284,0-7.758-3.474-7.758-7.758c0-8.556-6.959-15.515-15.515-15.515
		c-8.556,0-15.515,6.959-15.515,15.515c0,4.284-3.474,7.758-7.758,7.758s-7.758-3.474-7.758-7.758c0-17.11,13.921-31.03,31.03-31.03
		s31.03,13.921,31.03,31.03C315.475,255.112,312.003,258.586,307.717,258.586z"/>
</g>
<path style="fill:#C92F00;" d="M271.512,320.59c-2.953,0-5.685-1.91-6.592-4.882c-4.992-16.341-21.423-27.757-39.952-27.757
	s-34.956,11.414-39.952,27.757c-1.114,3.641-4.967,5.694-8.609,4.579c-3.643-1.114-5.692-4.968-4.579-8.609
	c6.751-22.088,28.603-37.517,53.139-37.517c24.538,0,46.39,15.427,53.139,37.517c1.114,3.643-0.938,7.497-4.579,8.609
	C272.858,320.491,272.179,320.59,271.512,320.59z"/>
<path style="fill:#02B2B2;" d="M379.978,229.652c1.355,14.217-9.073,26.839-23.29,28.194s-26.839-9.073-28.194-23.29
	c-1.355-14.217,19.501-67.977,19.501-67.977S378.623,215.435,379.978,229.652z"/>
<g>
</g>
<g>
</g>
<g>
</g>
<g>
</g>
<g>
</g>
<g>
</g>
<g>
</g>
<g>
</g>
<g>
</g>
<g>
</g>
<g>
</g>
<g>
</g>
<g>
</g>
<g>
</g>
<g>
</g>
</svg>
