<svg width="72" height="76" viewBox="0 0 72 76" fill="none" xmlns="http://www.w3.org/2000/svg">
<ellipse cx="36" cy="38" rx="36" ry="38" fill="#FEC761"/>
<path fill-rule="evenodd" clip-rule="evenodd" d="M20.8542 50.5768C22.8946 50.5768 24.5487 49.0867 24.5487 47.2486C24.5487 45.4105 22.8946 43.9205 20.8542 43.9205C18.8138 43.9205 17.1597 45.4105 17.1597 47.2486C17.1597 49.0867 18.8138 50.5768 20.8542 50.5768ZM20.8542 49.1648C22.029 49.1648 22.9814 48.3069 22.9814 47.2486C22.9814 46.1903 22.029 45.3324 20.8542 45.3324C19.6794 45.3324 18.7271 46.1903 18.7271 47.2486C18.7271 48.3069 19.6794 49.1648 20.8542 49.1648Z" fill="black"/>
<path d="M20.3578 44.4907C22.5637 35.7194 13.6815 27.6404 20.3578 20.5038C28.21 12.1104 43.546 12.1104 51.3981 20.5038C58.0744 27.6404 47.9711 35.4688 51.3981 44.4907" stroke="black" stroke-width="4"/>
<path fill-rule="evenodd" clip-rule="evenodd" d="M50.8821 50.5768C52.9225 50.5768 54.5766 49.0867 54.5766 47.2486C54.5766 45.4105 52.9225 43.9205 50.8821 43.9205C48.8416 43.9205 47.1875 45.4105 47.1875 47.2486C47.1875 49.0867 48.8416 50.5768 50.8821 50.5768ZM50.882 49.1648C52.0568 49.1648 53.0092 48.3069 53.0092 47.2486C53.0092 46.1903 52.0568 45.3324 50.882 45.3324C49.7072 45.3324 48.7549 46.1903 48.7549 47.2486C48.7549 48.3069 49.7072 49.1648 50.882 49.1648Z" fill="black"/>
<path fill-rule="evenodd" clip-rule="evenodd" d="M28.2432 34.9739C30.2837 34.9739 31.9378 33.4838 31.9378 31.6457C31.9378 29.8076 30.2837 28.3176 28.2432 28.3176C26.2028 28.3176 24.5487 29.8076 24.5487 31.6457C24.5487 33.4838 26.2028 34.9739 28.2432 34.9739ZM28.2432 33.5619C29.418 33.5619 30.3704 32.704 30.3704 31.6457C30.3704 30.5874 29.418 29.7295 28.2432 29.7295C27.0684 29.7295 26.1161 30.5874 26.1161 31.6457C26.1161 32.704 27.0684 33.5619 28.2432 33.5619Z" fill="black"/>
<path fill-rule="evenodd" clip-rule="evenodd" d="M43.493 34.9739C45.5334 34.9739 47.1875 33.4838 47.1875 31.6457C47.1875 29.8076 45.5334 28.3176 43.493 28.3176C41.4526 28.3176 39.7985 29.8076 39.7985 31.6457C39.7985 33.4838 41.4526 34.9739 43.493 34.9739ZM43.493 33.5619C44.6678 33.5619 45.6202 32.704 45.6202 31.6457C45.6202 30.5874 44.6678 29.7295 43.493 29.7295C42.3182 29.7295 41.3659 30.5874 41.3659 31.6457C41.3659 32.704 42.3182 33.5619 43.493 33.5619Z" fill="black"/>
<path fill-rule="evenodd" clip-rule="evenodd" d="M36.068 60.9725C38.1084 60.9725 39.7625 59.4825 39.7625 57.6444C39.7625 55.8063 38.1084 54.3163 36.068 54.3163C34.0276 54.3163 32.3735 55.8063 32.3735 57.6444C32.3735 59.4825 34.0276 60.9725 36.068 60.9725ZM36.0679 59.5606C37.2427 59.5606 38.1951 58.7027 38.1951 57.6444C38.1951 56.5861 37.2427 55.7282 36.0679 55.7282C34.8932 55.7282 33.9408 56.5861 33.9408 57.6444C33.9408 58.7027 34.8932 59.5606 36.0679 59.5606Z" fill="black"/>
<path d="M35.9672 40.3176V55.1216M35.9672 40.3176L30.2072 34.182M35.9672 40.3176L41.8829 34.182" stroke="black" stroke-width="4"/>
</svg>
