<svg xmlns="http://www.w3.org/2000/svg" width="1440" height="1024" fill="none" viewBox="0 0 1440 1024"><rect width="1440" height="1024" fill="#203A61"/><path fill="#EF644D" d="M494.657 648.247C509.209 630.762 519.513 610.17 524.767 588.073C527.363 577.126 528.662 565.914 528.638 554.667H211.841C211.835 565.624 213.097 576.547 215.605 587.216C220.86 610.008 231.433 631.246 246.468 649.211C261.582 667.225 280.527 681.67 301.933 691.502C323.339 701.335 346.671 706.309 370.244 706.065C420.782 705.958 465.731 683.473 494.657 648.247ZM584.664 408.834C591.38 430.327 594.788 452.709 594.771 475.219V722.127C594.767 733.034 590.793 743.57 583.584 751.782C576.375 759.995 566.421 765.327 555.565 766.791C544.71 768.255 533.69 765.751 524.547 759.743C515.404 753.736 508.758 744.632 505.841 734.119C505.012 730.746 503.086 727.741 500.362 725.572C497.639 723.402 494.272 722.191 490.785 722.127H488.741C485.255 722.191 481.887 723.402 479.164 725.572C476.441 727.741 474.515 730.746 473.686 734.119C471.045 743.629 465.345 752.015 457.459 757.991C449.573 763.966 439.937 767.202 430.027 767.202C420.117 767.202 410.48 763.966 402.594 757.991C394.709 752.015 389.008 743.629 386.368 734.119C385.539 730.746 383.613 727.741 380.889 725.572C378.166 723.402 374.799 722.191 371.312 722.127H369.164C365.677 722.191 362.31 723.402 359.587 725.572C356.864 727.741 354.938 730.746 354.109 734.119C351.468 743.629 345.768 752.015 337.882 757.991C329.996 763.966 320.359 767.202 310.45 767.202C300.54 767.202 290.903 763.966 283.017 757.991C275.131 752.015 269.431 743.629 266.79 734.119C265.961 730.746 264.035 727.741 261.312 725.572C258.589 723.402 255.222 722.191 251.735 722.127H249.691C246.205 722.191 242.837 723.402 240.114 725.572C237.391 727.741 235.465 730.746 234.636 734.119C231.718 744.632 225.072 753.736 215.929 759.743C206.786 765.751 195.766 768.255 184.911 766.791C174.056 765.327 164.101 759.995 156.892 751.782C149.684 743.57 145.709 733.034 145.705 722.127V475.107C145.69 452.599 149.099 430.218 155.816 408.727L167.967 412.26C165.198 421.357 163.785 430.808 163.772 440.314C163.772 465.36 173.765 489.38 191.552 507.091C209.339 524.801 233.463 534.751 258.617 534.751C283.772 534.751 307.896 524.801 325.683 507.091C343.47 489.38 353.463 465.36 353.463 440.314H386.909C386.909 452.715 389.362 464.996 394.129 476.453C398.895 487.911 405.882 498.322 414.689 507.091C423.496 515.86 433.952 522.816 445.459 527.562C456.966 532.308 469.299 534.751 481.754 534.751C494.21 534.751 506.543 532.308 518.05 527.562C529.557 522.816 540.013 515.86 548.82 507.091C557.627 498.322 564.614 487.911 569.38 476.453C574.147 464.996 576.6 452.715 576.6 440.314C576.596 430.808 575.183 421.355 572.407 412.26L584.664 408.834Z"/><path fill="#ED654B" d="M584.668 408.834L572.517 412.367C565.764 390.803 551.476 372.361 532.242 360.383C513.008 348.406 490.101 343.686 467.673 347.078C445.244 350.47 424.778 361.75 409.983 378.874C395.189 395.998 387.045 417.832 387.027 440.421H353.581C353.577 417.823 345.439 395.975 330.644 378.84C315.849 361.704 295.376 350.416 272.938 347.022C250.501 343.627 227.584 348.352 208.346 360.34C189.107 372.327 174.82 390.783 168.076 412.359L155.924 408.826C170.146 363.287 198.622 323.471 237.19 295.196C275.759 266.92 322.399 251.668 370.295 251.668C418.19 251.668 464.831 266.92 503.399 295.196C541.968 323.471 570.444 363.287 584.665 408.826L584.668 408.834Z"/><path fill="#FEC761" d="M572.405 412.367C575.174 421.464 576.587 430.915 576.6 440.421C576.517 464.147 567.435 486.967 551.174 504.31C534.913 521.653 512.672 532.24 488.904 533.95C465.137 535.661 441.598 528.369 423.001 513.534C404.404 498.7 392.121 477.418 388.612 453.95C385.103 430.482 390.627 406.56 404.078 386.975C417.529 367.39 437.913 353.586 461.15 348.329C484.387 343.072 508.761 346.749 529.391 358.623C550.021 370.498 565.384 389.694 572.405 412.367ZM530.467 440.419C530.467 430.847 527.616 421.49 522.275 413.531C516.934 405.572 509.343 399.369 500.461 395.706C491.58 392.043 481.806 391.084 472.378 392.952C462.949 394.819 454.288 399.429 447.491 406.197C440.693 412.966 436.064 421.589 434.188 430.977C432.313 440.365 433.275 450.096 436.954 458.94C440.633 467.783 446.863 475.342 454.856 480.66C462.849 485.978 472.247 488.816 481.86 488.816C488.245 488.823 494.569 487.576 500.469 485.146C506.369 482.716 511.73 479.151 516.245 474.656C520.76 470.16 524.34 464.822 526.78 458.948C529.221 453.073 530.473 446.777 530.467 440.419Z"/><path fill="#fff" d="M211.842 554.558H528.638C528.669 565.806 527.369 577.019 524.767 587.965L520.896 587.108H215.6C213.088 576.439 211.827 565.516 211.842 554.558Z"/><path fill="#fff" d="M491.538 406.585C495.388 406.585 499.151 407.721 502.352 409.851C505.552 411.98 508.047 415.007 509.52 418.548C510.993 422.089 511.379 425.986 510.628 429.745C509.877 433.505 508.023 436.958 505.301 439.668C502.579 442.378 499.111 444.224 495.335 444.972C491.56 445.72 487.647 445.336 484.09 443.869C480.534 442.402 477.494 439.918 475.355 436.731C473.217 433.544 472.075 429.797 472.075 425.964C472.074 423.419 472.577 420.899 473.555 418.547C474.533 416.196 475.967 414.059 477.774 412.26C479.582 410.46 481.728 409.032 484.089 408.059C486.451 407.085 488.982 406.584 491.538 406.585Z"/><path fill="#fff" d="M457.558 450.055C459.467 450.076 461.328 450.66 462.905 451.731C464.483 452.803 465.706 454.315 466.422 456.078C467.138 457.84 467.315 459.774 466.929 461.636C466.544 463.499 465.614 465.206 464.256 466.543C462.898 467.88 461.174 468.787 459.3 469.15C457.425 469.513 455.485 469.316 453.723 468.584C451.96 467.851 450.455 466.616 449.397 465.034C448.338 463.452 447.773 461.593 447.773 459.692C447.804 457.127 448.849 454.679 450.68 452.875C452.512 451.072 454.982 450.059 457.558 450.055Z"/><path fill="#FEC758" d="M258.619 345.982C277.378 345.982 295.715 351.52 311.312 361.897C326.91 372.274 339.066 387.023 346.245 404.279C353.423 421.536 355.302 440.524 351.642 458.843C347.982 477.162 338.949 493.989 325.685 507.196C312.42 520.403 295.521 529.398 277.122 533.042C258.724 536.686 239.654 534.815 222.323 527.668C204.993 520.52 190.18 508.416 179.758 492.885C169.336 477.355 163.774 459.097 163.774 440.419C163.779 430.913 165.192 421.46 167.968 412.365C174.002 393.126 186.051 376.31 202.358 364.369C218.665 352.427 238.377 345.985 258.619 345.982ZM307.225 440.419C307.225 430.847 304.375 421.49 299.034 413.531C293.693 405.572 286.102 399.369 277.22 395.706C268.338 392.043 258.565 391.084 249.136 392.952C239.708 394.819 231.047 399.429 224.249 406.197C217.452 412.965 212.822 421.589 210.947 430.977C209.071 440.365 210.034 450.096 213.713 458.94C217.392 467.783 223.622 475.342 231.615 480.66C239.608 485.978 249.006 488.816 258.619 488.816C265.004 488.823 271.328 487.576 277.228 485.146C283.128 482.716 288.489 479.151 293.004 474.656C297.519 470.16 301.099 464.822 303.539 458.948C305.979 453.073 307.232 446.776 307.225 440.419Z"/><path fill="#fff" d="M268.404 406.585C272.254 406.585 276.017 407.721 279.218 409.851C282.418 411.98 284.913 415.007 286.386 418.548C287.859 422.089 288.245 425.986 287.494 429.745C286.743 433.505 284.889 436.958 282.167 439.668C279.445 442.378 275.977 444.224 272.202 444.972C268.426 445.72 264.513 445.336 260.956 443.869C257.4 442.402 254.36 439.918 252.221 436.731C250.083 433.544 248.941 429.797 248.941 425.964C248.94 423.419 249.443 420.899 250.421 418.547C251.399 416.196 252.833 414.059 254.64 412.26C256.448 410.46 258.594 409.032 260.955 408.059C263.317 407.085 265.848 406.584 268.404 406.585Z"/><path fill="#7FB8E3" d="M258.189 661.629C254.063 657.663 250.15 653.481 246.468 649.102L247.436 648.245H254.533C286.807 648.233 318.872 653.403 349.492 663.557L370.246 670.41L387.882 664.521C420.509 653.693 454.673 648.161 489.065 648.138H494.657C480.37 665.019 462.775 678.821 442.947 688.698C423.119 698.576 401.476 704.322 379.341 705.584C357.206 706.847 335.045 703.6 314.214 696.042C293.383 688.485 274.319 676.775 258.189 661.629Z"/><path fill="#fff" d="M234.424 450.055C236.333 450.076 238.194 450.66 239.771 451.731C241.349 452.803 242.572 454.315 243.288 456.078C244.004 457.84 244.181 459.774 243.795 461.636C243.41 463.499 242.48 465.206 241.122 466.543C239.764 467.88 238.04 468.787 236.166 469.15C234.291 469.513 232.351 469.316 230.589 468.584C228.826 467.851 227.321 466.616 226.263 465.034C225.204 463.452 224.639 461.593 224.639 459.692C224.633 458.416 224.883 457.151 225.375 455.973C225.866 454.794 226.588 453.725 227.499 452.828C228.41 451.93 229.492 451.223 230.681 450.747C231.87 450.271 233.143 450.036 234.424 450.055Z"/><path fill="#000" d="M481.862 392.023C472.248 392.023 462.851 394.862 454.858 400.18C446.864 405.498 440.634 413.056 436.955 421.9C433.277 430.743 432.314 440.474 434.19 449.862C436.065 459.251 440.694 467.874 447.492 474.643C454.29 481.411 462.951 486.02 472.379 487.888C481.808 489.755 491.581 488.797 500.463 485.134C509.344 481.471 516.936 475.267 522.277 467.309C527.617 459.35 530.468 449.993 530.468 440.421C530.475 434.063 529.222 427.767 526.782 421.892C524.341 416.017 520.761 410.679 516.247 406.184C511.732 401.688 506.371 398.124 500.471 395.694C494.57 393.264 488.247 392.017 481.862 392.023ZM457.559 469.437C455.645 469.437 453.774 468.871 452.183 467.813C450.591 466.754 449.351 465.249 448.618 463.488C447.886 461.727 447.694 459.79 448.067 457.92C448.441 456.051 449.363 454.334 450.716 452.986C452.07 451.639 453.794 450.721 455.671 450.349C457.549 449.977 459.495 450.168 461.263 450.897C463.032 451.627 464.543 452.862 465.606 454.447C466.67 456.031 467.237 457.894 467.237 459.8C467.224 462.352 466.2 464.795 464.387 466.6C462.575 468.404 460.121 469.423 457.558 469.437H457.559ZM491.54 445.239C487.69 445.239 483.927 444.102 480.727 441.973C477.526 439.843 475.031 436.817 473.558 433.275C472.085 429.734 471.699 425.838 472.45 422.078C473.201 418.319 475.055 414.866 477.777 412.156C480.499 409.445 483.967 407.6 487.743 406.852C491.518 406.104 495.432 406.488 498.988 407.955C502.545 409.421 505.584 411.905 507.723 415.092C509.862 418.279 511.003 422.026 511.003 425.859C511.004 428.404 510.501 430.925 509.523 433.276C508.545 435.628 507.111 437.764 505.304 439.564C503.496 441.364 501.351 442.791 498.989 443.765C496.627 444.738 494.096 445.239 491.54 445.239Z"/><path fill="#000" d="M258.62 488.816C268.234 488.816 277.631 485.978 285.625 480.66C293.618 475.342 299.848 467.783 303.527 458.94C307.206 450.096 308.168 440.365 306.293 430.977C304.417 421.589 299.788 412.965 292.99 406.197C286.193 399.429 277.532 394.819 268.103 392.952C258.674 391.084 248.901 392.043 240.02 395.706C231.138 399.369 223.547 405.572 218.206 413.531C212.865 421.49 210.014 430.847 210.014 440.419C210.008 446.776 211.26 453.073 213.701 458.948C216.141 464.822 219.721 470.16 224.236 474.656C228.751 479.151 234.112 482.716 240.012 485.146C245.912 487.575 252.236 488.823 258.62 488.816ZM268.406 406.585C272.255 406.585 276.018 407.721 279.219 409.851C282.42 411.98 284.915 415.007 286.388 418.548C287.861 422.089 288.246 425.986 287.495 429.745C286.744 433.505 284.891 436.958 282.169 439.668C279.447 442.378 275.979 444.224 272.203 444.972C268.427 445.719 264.514 445.336 260.958 443.869C257.401 442.402 254.361 439.918 252.223 436.731C250.084 433.544 248.943 429.797 248.943 425.964C248.942 423.419 249.445 420.899 250.423 418.547C251.401 416.196 252.834 414.059 254.642 412.26C256.449 410.46 258.595 409.032 260.957 408.059C263.319 407.085 265.85 406.584 268.406 406.585ZM234.424 450.057C236.333 450.078 238.194 450.661 239.771 451.733C241.349 452.804 242.572 454.316 243.288 456.079C244.004 457.842 244.181 459.776 243.795 461.638C243.41 463.5 242.48 465.207 241.122 466.544C239.764 467.881 238.04 468.788 236.166 469.151C234.291 469.515 232.351 469.318 230.589 468.585C228.826 467.853 227.321 466.618 226.262 465.036C225.204 463.453 224.639 461.595 224.639 459.693C224.633 458.417 224.883 457.153 225.374 455.974C225.866 454.796 226.588 453.726 227.499 452.829C228.41 451.932 229.492 451.225 230.681 450.749C231.87 450.272 233.143 450.037 234.424 450.057Z"/><path fill="#000" d="M525.856 312.525C485.85 272.743 432.798 248.632 376.403 244.602C320.008 240.571 264.041 256.891 218.739 290.576C179.008 320.21 149.63 361.522 134.754 408.679C127.619 431.158 123.992 454.594 124 478.169V725.073C124.024 738.574 128.953 751.611 137.878 761.775C146.802 771.94 159.119 778.546 172.554 780.373C185.988 782.2 199.633 779.125 210.969 771.716C222.304 764.307 230.564 753.064 234.223 740.064C234.466 738.988 235.064 738.024 235.922 737.325C236.779 736.627 237.847 736.234 238.955 736.21H240.998C242.115 736.259 243.184 736.674 244.04 737.39C244.895 738.106 245.49 739.084 245.73 740.171C249.022 751.906 256.081 762.245 265.828 769.611C275.575 776.977 287.476 780.964 299.712 780.964C311.949 780.964 323.849 776.977 333.596 769.611C343.344 762.245 350.402 751.906 353.694 740.171C353.933 739.083 354.527 738.105 355.383 737.388C356.239 736.671 357.309 736.257 358.426 736.21H360.574C361.692 736.254 362.764 736.667 363.621 737.384C364.477 738.101 365.07 739.082 365.306 740.171C368.598 751.906 375.656 762.245 385.404 769.611C395.151 776.977 407.051 780.964 419.288 780.964C431.524 780.964 443.425 776.977 453.172 769.611C462.919 762.245 469.978 751.906 473.27 740.171C473.494 739.076 474.084 738.089 474.943 737.37C475.802 736.651 476.88 736.242 478.002 736.21H480.045C481.165 736.254 482.237 736.668 483.094 737.386C483.951 738.105 484.543 739.087 484.777 740.177C488.439 753.186 496.707 764.435 508.054 771.844C519.4 779.252 533.057 782.319 546.499 780.478C559.941 778.637 572.259 772.012 581.175 761.828C590.091 751.644 595.002 738.59 595 725.08V478.165C595.008 454.591 591.381 431.155 584.246 408.676C572.864 372.402 552.83 339.412 525.856 312.525ZM555.212 443.474C555.191 464.568 547.166 484.875 532.745 500.328C518.324 515.78 498.572 525.237 477.446 526.804C456.319 528.371 435.378 521.932 418.817 508.778C402.256 495.623 391.298 476.724 388.138 455.866C384.977 435.008 389.849 413.732 401.776 396.298C413.703 378.865 431.804 366.562 452.455 361.853C473.106 357.145 494.78 360.38 513.138 370.909C531.495 381.438 545.179 398.484 551.449 418.633C553.95 426.678 555.219 435.053 555.214 443.474H555.212ZM505.316 579.883H213.676C213.031 575.606 212.602 572.389 212.279 568.105H506.717C506.393 572.389 505.963 575.601 505.317 579.883H505.316ZM266.806 546.692C312.615 539.198 348.21 500.651 352.941 454.611H365.953C370.685 500.652 406.279 539.198 452.088 546.692H266.806ZM231.642 307.702C272.793 277.102 323.636 262.284 374.863 265.962C426.09 269.64 474.272 291.567 510.588 327.73C521.388 338.54 531.012 350.455 539.299 363.278C537.687 361.886 535.965 360.494 534.246 359.21C515.997 345.637 493.792 338.38 471.015 338.544C444.825 338.511 419.56 348.185 400.139 365.681C380.718 383.178 368.532 407.244 365.953 433.195H352.941C351.049 414.681 344.263 396.996 333.275 381.942C322.287 366.888 307.488 355.003 290.387 347.495C273.285 339.987 254.49 337.126 235.917 339.203C217.343 341.279 199.654 348.22 184.65 359.317C182.97 360.516 181.355 361.802 179.811 363.171C193.635 341.757 211.188 322.973 231.642 307.702ZM167.551 418.633C173.827 398.446 187.533 381.365 205.922 370.812C224.311 360.26 246.025 357.016 266.714 361.73C287.404 366.444 305.54 378.768 317.49 396.233C329.44 413.698 334.321 435.014 331.155 455.91C327.99 476.807 317.011 495.74 300.418 508.918C283.826 522.096 262.845 528.544 241.68 526.972C220.514 525.399 200.727 515.921 186.283 500.438C171.838 484.954 163.803 464.607 163.788 443.474C163.794 435.054 165.063 426.681 167.551 418.633ZM333.04 734.282C331.024 741.5 326.695 747.864 320.712 752.406C314.728 756.948 307.418 759.419 299.894 759.444C292.37 759.468 285.044 757.044 279.031 752.54C273.018 748.037 268.648 741.701 266.585 734.496C265.159 728.848 261.875 723.838 257.256 720.266C252.636 716.694 246.948 714.766 241.099 714.789H239.056C233.235 714.826 227.589 716.778 222.999 720.343C218.409 723.907 215.132 728.883 213.678 734.496C211.38 742.503 206.255 749.413 199.246 753.957C192.237 758.5 183.816 760.371 175.533 759.224C167.249 758.078 159.66 753.991 154.162 747.716C148.664 741.441 145.626 733.401 145.608 725.073V478.165C145.608 475.703 145.823 473.133 145.93 470.564C151.235 489.74 161.857 507.041 176.579 520.486C191.301 533.931 209.527 542.976 229.172 546.585H190.672V557.507C190.612 569.286 191.911 581.034 194.543 592.519C200.157 616.923 211.466 639.667 227.555 658.907C231.456 663.599 235.62 668.067 240.029 672.29C268.199 699.19 304.797 715.633 343.693 718.867C338.486 722.65 334.729 728.088 333.04 734.282ZM359.494 698.306C323.448 698.529 288.525 685.835 261.1 662.544C286.384 664.064 311.362 668.851 335.406 676.785L359.494 684.816L380.571 677.749C405.511 669.43 431.427 664.355 457.673 662.651C430.298 685.866 395.459 698.519 359.502 698.306H359.494ZM573.488 725.073C573.458 733.38 570.419 741.397 564.931 747.653C559.442 753.909 551.871 757.983 543.608 759.129C535.345 760.274 526.945 758.414 519.948 753.889C512.952 749.364 507.83 742.478 505.521 734.496C504.015 728.892 500.709 723.933 496.108 720.375C491.506 716.817 485.862 714.855 480.036 714.789H477.993C472.161 714.785 466.495 716.722 461.897 720.293C457.298 723.864 454.031 728.863 452.615 734.496C450.576 741.715 446.221 748.072 440.214 752.596C434.207 757.12 426.878 759.563 419.346 759.55C411.814 759.538 404.493 757.072 398.501 752.529C392.509 747.986 388.174 741.615 386.159 734.389C384.487 728.188 380.681 722.769 375.406 719.077C397.998 717.188 419.985 710.826 440.076 700.364C460.166 689.903 477.957 675.552 492.404 658.154C507.904 639.356 518.867 617.268 524.449 593.589C527.176 581.828 528.511 569.79 528.428 557.72V546.692H490.156C509.799 543.081 528.023 534.035 542.743 520.591C557.463 507.146 568.083 489.846 573.387 470.671C573.494 473.133 573.709 475.703 573.709 478.272V725.073H573.488Z"/><path fill="#EF644D" d="M494.657 648.247C509.209 630.762 519.513 610.17 524.767 588.073C527.363 577.126 528.662 565.914 528.638 554.667H211.841C211.835 565.624 213.097 576.547 215.605 587.216C220.86 610.008 231.433 631.246 246.468 649.211C261.582 667.225 280.527 681.67 301.933 691.502C323.339 701.335 346.671 706.309 370.244 706.065C420.782 705.958 465.731 683.473 494.657 648.247ZM584.664 408.834C591.38 430.327 594.788 452.709 594.771 475.219V722.127C594.767 733.034 590.793 743.57 583.584 751.782C576.375 759.995 566.421 765.327 555.565 766.791C544.71 768.255 533.69 765.751 524.547 759.743C515.404 753.736 508.758 744.632 505.841 734.119C505.012 730.746 503.086 727.741 500.362 725.572C497.639 723.402 494.272 722.191 490.785 722.127H488.741C485.255 722.191 481.887 723.402 479.164 725.572C476.441 727.741 474.515 730.746 473.686 734.119C471.045 743.629 465.345 752.015 457.459 757.991C449.573 763.966 439.937 767.202 430.027 767.202C420.117 767.202 410.48 763.966 402.594 757.991C394.709 752.015 389.008 743.629 386.368 734.119C385.539 730.746 383.613 727.741 380.889 725.572C378.166 723.402 374.799 722.191 371.312 722.127H369.164C365.677 722.191 362.31 723.402 359.587 725.572C356.864 727.741 354.938 730.746 354.109 734.119C351.468 743.629 345.768 752.015 337.882 757.991C329.996 763.966 320.359 767.202 310.45 767.202C300.54 767.202 290.903 763.966 283.017 757.991C275.131 752.015 269.431 743.629 266.79 734.119C265.961 730.746 264.035 727.741 261.312 725.572C258.589 723.402 255.222 722.191 251.735 722.127H249.691C246.205 722.191 242.837 723.402 240.114 725.572C237.391 727.741 235.465 730.746 234.636 734.119C231.718 744.632 225.072 753.736 215.929 759.743C206.786 765.751 195.766 768.255 184.911 766.791C174.056 765.327 164.101 759.995 156.892 751.782C149.684 743.57 145.709 733.034 145.705 722.127V475.107C145.69 452.599 149.099 430.218 155.816 408.727L167.967 412.26C165.198 421.357 163.785 430.808 163.772 440.314C163.772 465.36 173.765 489.38 191.552 507.091C209.339 524.801 233.463 534.751 258.617 534.751C283.772 534.751 307.896 524.801 325.683 507.091C343.47 489.38 353.463 465.36 353.463 440.314H386.909C386.909 452.715 389.362 464.996 394.129 476.453C398.895 487.911 405.882 498.322 414.689 507.091C423.496 515.86 433.952 522.816 445.459 527.562C456.966 532.308 469.299 534.751 481.754 534.751C494.21 534.751 506.543 532.308 518.05 527.562C529.557 522.816 540.013 515.86 548.82 507.091C557.627 498.322 564.614 487.911 569.38 476.453C574.147 464.996 576.6 452.715 576.6 440.314C576.596 430.808 575.183 421.355 572.407 412.26L584.664 408.834Z"/><path fill="#ED654B" d="M584.668 408.834L572.517 412.367C565.764 390.803 551.476 372.361 532.242 360.383C513.008 348.406 490.101 343.686 467.673 347.078C445.244 350.47 424.778 361.75 409.983 378.874C395.189 395.998 387.045 417.832 387.027 440.421H353.581C353.577 417.823 345.439 395.975 330.644 378.84C315.849 361.704 295.376 350.416 272.938 347.022C250.501 343.627 227.584 348.352 208.346 360.34C189.107 372.327 174.82 390.783 168.076 412.359L155.924 408.826C170.146 363.287 198.622 323.471 237.19 295.196C275.759 266.92 322.399 251.668 370.295 251.668C418.19 251.668 464.831 266.92 503.399 295.196C541.968 323.471 570.444 363.287 584.665 408.826L584.668 408.834Z"/><path fill="#FEC761" d="M572.405 412.367C575.174 421.464 576.587 430.915 576.6 440.421C576.517 464.147 567.435 486.967 551.174 504.31C534.913 521.653 512.672 532.24 488.904 533.95C465.137 535.661 441.598 528.369 423.001 513.534C404.404 498.7 392.121 477.418 388.612 453.95C385.103 430.482 390.627 406.56 404.078 386.975C417.529 367.39 437.913 353.586 461.15 348.329C484.387 343.072 508.761 346.749 529.391 358.623C550.021 370.498 565.384 389.694 572.405 412.367ZM530.467 440.419C530.467 430.847 527.616 421.49 522.275 413.531C516.934 405.572 509.343 399.369 500.461 395.706C491.58 392.043 481.806 391.084 472.378 392.952C462.949 394.819 454.288 399.429 447.491 406.197C440.693 412.966 436.064 421.589 434.188 430.977C432.313 440.365 433.275 450.096 436.954 458.94C440.633 467.783 446.863 475.342 454.856 480.66C462.849 485.978 472.247 488.816 481.86 488.816C488.245 488.823 494.569 487.576 500.469 485.146C506.369 482.716 511.73 479.151 516.245 474.656C520.76 470.16 524.34 464.822 526.78 458.948C529.221 453.073 530.473 446.777 530.467 440.419Z"/><path fill="#fff" d="M211.842 554.558H528.638C528.669 565.806 527.369 577.019 524.767 587.965L520.896 587.108H215.6C213.088 576.439 211.827 565.516 211.842 554.558Z"/><path fill="#fff" d="M491.538 406.585C495.388 406.585 499.151 407.721 502.352 409.851C505.552 411.98 508.047 415.007 509.52 418.548C510.993 422.089 511.379 425.986 510.628 429.745C509.877 433.505 508.023 436.958 505.301 439.668C502.579 442.378 499.111 444.224 495.335 444.972C491.56 445.72 487.647 445.336 484.09 443.869C480.534 442.402 477.494 439.918 475.355 436.731C473.217 433.544 472.075 429.797 472.075 425.964C472.074 423.419 472.577 420.899 473.555 418.547C474.533 416.196 475.967 414.059 477.774 412.26C479.582 410.46 481.728 409.032 484.089 408.059C486.451 407.085 488.982 406.584 491.538 406.585Z"/><path fill="#fff" d="M457.558 450.055C459.467 450.076 461.328 450.66 462.905 451.731C464.483 452.803 465.706 454.315 466.422 456.078C467.138 457.84 467.315 459.774 466.929 461.636C466.544 463.499 465.614 465.206 464.256 466.543C462.898 467.88 461.174 468.787 459.3 469.15C457.425 469.513 455.485 469.316 453.723 468.584C451.96 467.851 450.455 466.616 449.397 465.034C448.338 463.452 447.773 461.593 447.773 459.692C447.804 457.127 448.849 454.679 450.68 452.875C452.512 451.072 454.982 450.059 457.558 450.055Z"/><path fill="#FEC758" d="M258.619 345.982C277.378 345.982 295.715 351.52 311.312 361.897C326.91 372.274 339.066 387.023 346.245 404.279C353.423 421.536 355.302 440.524 351.642 458.843C347.982 477.162 338.949 493.989 325.685 507.196C312.42 520.403 295.521 529.398 277.122 533.042C258.724 536.686 239.654 534.815 222.323 527.668C204.993 520.52 190.18 508.416 179.758 492.885C169.336 477.355 163.774 459.097 163.774 440.419C163.779 430.913 165.192 421.46 167.968 412.365C174.002 393.126 186.051 376.31 202.358 364.369C218.665 352.427 238.377 345.985 258.619 345.982ZM307.225 440.419C307.225 430.847 304.375 421.49 299.034 413.531C293.693 405.572 286.102 399.369 277.22 395.706C268.338 392.043 258.565 391.084 249.136 392.952C239.708 394.819 231.047 399.429 224.249 406.197C217.452 412.965 212.822 421.589 210.947 430.977C209.071 440.365 210.034 450.096 213.713 458.94C217.392 467.783 223.622 475.342 231.615 480.66C239.608 485.978 249.006 488.816 258.619 488.816C265.004 488.823 271.328 487.576 277.228 485.146C283.128 482.716 288.489 479.151 293.004 474.656C297.519 470.16 301.099 464.822 303.539 458.948C305.979 453.073 307.232 446.776 307.225 440.419Z"/><path fill="#fff" d="M268.404 406.585C272.254 406.585 276.017 407.721 279.218 409.851C282.418 411.98 284.913 415.007 286.386 418.548C287.859 422.089 288.245 425.986 287.494 429.745C286.743 433.505 284.889 436.958 282.167 439.668C279.445 442.378 275.977 444.224 272.202 444.972C268.426 445.72 264.513 445.336 260.956 443.869C257.4 442.402 254.36 439.918 252.221 436.731C250.083 433.544 248.941 429.797 248.941 425.964C248.94 423.419 249.443 420.899 250.421 418.547C251.399 416.196 252.833 414.059 254.64 412.26C256.448 410.46 258.594 409.032 260.955 408.059C263.317 407.085 265.848 406.584 268.404 406.585Z"/><path fill="#7FB8E3" d="M258.189 661.629C254.063 657.663 250.15 653.481 246.468 649.102L247.436 648.245H254.533C286.807 648.233 318.872 653.403 349.492 663.557L370.246 670.41L387.882 664.521C420.509 653.693 454.673 648.161 489.065 648.138H494.657C480.37 665.019 462.775 678.821 442.947 688.698C423.119 698.576 401.476 704.322 379.341 705.584C357.206 706.847 335.045 703.6 314.214 696.042C293.383 688.485 274.319 676.775 258.189 661.629Z"/><path fill="#fff" d="M234.424 450.055C236.333 450.076 238.194 450.66 239.771 451.731C241.349 452.803 242.572 454.315 243.288 456.078C244.004 457.84 244.181 459.774 243.795 461.636C243.41 463.499 242.48 465.206 241.122 466.543C239.764 467.88 238.04 468.787 236.166 469.15C234.291 469.513 232.351 469.316 230.589 468.584C228.826 467.851 227.321 466.616 226.263 465.034C225.204 463.452 224.639 461.593 224.639 459.692C224.633 458.416 224.883 457.151 225.375 455.973C225.866 454.794 226.588 453.725 227.499 452.828C228.41 451.93 229.492 451.223 230.681 450.747C231.87 450.271 233.143 450.036 234.424 450.055Z"/><path fill="#000" d="M481.862 392.023C472.248 392.023 462.851 394.862 454.858 400.18C446.864 405.498 440.634 413.056 436.955 421.9C433.277 430.743 432.314 440.474 434.19 449.862C436.065 459.251 440.694 467.874 447.492 474.643C454.29 481.411 462.951 486.02 472.379 487.888C481.808 489.755 491.581 488.797 500.463 485.134C509.344 481.471 516.936 475.267 522.277 467.309C527.617 459.35 530.468 449.993 530.468 440.421C530.475 434.063 529.222 427.767 526.782 421.892C524.341 416.017 520.761 410.679 516.247 406.184C511.732 401.688 506.371 398.124 500.471 395.694C494.57 393.264 488.247 392.017 481.862 392.023ZM457.559 469.437C455.645 469.437 453.774 468.871 452.183 467.813C450.591 466.754 449.351 465.249 448.618 463.488C447.886 461.727 447.694 459.79 448.067 457.92C448.441 456.051 449.363 454.334 450.716 452.986C452.07 451.639 453.794 450.721 455.671 450.349C457.549 449.977 459.495 450.168 461.263 450.897C463.032 451.627 464.543 452.862 465.606 454.447C466.67 456.031 467.237 457.894 467.237 459.8C467.224 462.352 466.2 464.795 464.387 466.6C462.575 468.404 460.121 469.423 457.558 469.437H457.559ZM491.54 445.239C487.69 445.239 483.927 444.102 480.727 441.973C477.526 439.843 475.031 436.817 473.558 433.275C472.085 429.734 471.699 425.838 472.45 422.078C473.201 418.319 475.055 414.866 477.777 412.156C480.499 409.445 483.967 407.6 487.743 406.852C491.518 406.104 495.432 406.488 498.988 407.955C502.545 409.421 505.584 411.905 507.723 415.092C509.862 418.279 511.003 422.026 511.003 425.859C511.004 428.404 510.501 430.925 509.523 433.276C508.545 435.628 507.111 437.764 505.304 439.564C503.496 441.364 501.351 442.791 498.989 443.765C496.627 444.738 494.096 445.239 491.54 445.239Z"/><path fill="#000" d="M258.62 488.816C268.234 488.816 277.631 485.978 285.625 480.66C293.618 475.342 299.848 467.783 303.527 458.94C307.206 450.096 308.168 440.365 306.293 430.977C304.417 421.589 299.788 412.965 292.99 406.197C286.193 399.429 277.532 394.819 268.103 392.952C258.674 391.084 248.901 392.043 240.02 395.706C231.138 399.369 223.547 405.572 218.206 413.531C212.865 421.49 210.014 430.847 210.014 440.419C210.008 446.776 211.26 453.073 213.701 458.948C216.141 464.822 219.721 470.16 224.236 474.656C228.751 479.151 234.112 482.716 240.012 485.146C245.912 487.575 252.236 488.823 258.62 488.816ZM268.406 406.585C272.255 406.585 276.018 407.721 279.219 409.851C282.42 411.98 284.915 415.007 286.388 418.548C287.861 422.089 288.246 425.986 287.495 429.745C286.744 433.505 284.891 436.958 282.169 439.668C279.447 442.378 275.979 444.224 272.203 444.972C268.427 445.719 264.514 445.336 260.958 443.869C257.401 442.402 254.361 439.918 252.223 436.731C250.084 433.544 248.943 429.797 248.943 425.964C248.942 423.419 249.445 420.899 250.423 418.547C251.401 416.196 252.834 414.059 254.642 412.26C256.449 410.46 258.595 409.032 260.957 408.059C263.319 407.085 265.85 406.584 268.406 406.585ZM234.424 450.057C236.333 450.078 238.194 450.661 239.771 451.733C241.349 452.804 242.572 454.316 243.288 456.079C244.004 457.842 244.181 459.776 243.795 461.638C243.41 463.5 242.48 465.207 241.122 466.544C239.764 467.881 238.04 468.788 236.166 469.151C234.291 469.515 232.351 469.318 230.589 468.585C228.826 467.853 227.321 466.618 226.262 465.036C225.204 463.453 224.639 461.595 224.639 459.693C224.633 458.417 224.883 457.153 225.374 455.974C225.866 454.796 226.588 453.726 227.499 452.829C228.41 451.932 229.492 451.225 230.681 450.749C231.87 450.272 233.143 450.037 234.424 450.057Z"/><path fill="#000" d="M525.856 312.525C485.85 272.743 432.798 248.632 376.403 244.602C320.008 240.571 264.041 256.891 218.739 290.576C179.008 320.21 149.63 361.522 134.754 408.679C127.619 431.158 123.992 454.594 124 478.169V725.073C124.024 738.574 128.953 751.611 137.878 761.775C146.802 771.94 159.119 778.546 172.554 780.373C185.988 782.2 199.633 779.125 210.969 771.716C222.304 764.307 230.564 753.064 234.223 740.064C234.466 738.988 235.064 738.024 235.922 737.325C236.779 736.627 237.847 736.234 238.955 736.21H240.998C242.115 736.259 243.184 736.674 244.04 737.39C244.895 738.106 245.49 739.084 245.73 740.171C249.022 751.906 256.081 762.245 265.828 769.611C275.575 776.977 287.476 780.964 299.712 780.964C311.949 780.964 323.849 776.977 333.596 769.611C343.344 762.245 350.402 751.906 353.694 740.171C353.933 739.083 354.527 738.105 355.383 737.388C356.239 736.671 357.309 736.257 358.426 736.21H360.574C361.692 736.254 362.764 736.667 363.621 737.384C364.477 738.101 365.07 739.082 365.306 740.171C368.598 751.906 375.656 762.245 385.404 769.611C395.151 776.977 407.051 780.964 419.288 780.964C431.524 780.964 443.425 776.977 453.172 769.611C462.919 762.245 469.978 751.906 473.27 740.171C473.494 739.076 474.084 738.089 474.943 737.37C475.802 736.651 476.88 736.242 478.002 736.21H480.045C481.165 736.254 482.237 736.668 483.094 737.386C483.951 738.105 484.543 739.087 484.777 740.177C488.439 753.186 496.707 764.435 508.054 771.844C519.4 779.252 533.057 782.319 546.499 780.478C559.941 778.637 572.259 772.012 581.175 761.828C590.091 751.644 595.002 738.59 595 725.08V478.165C595.008 454.591 591.381 431.155 584.246 408.676C572.864 372.402 552.83 339.412 525.856 312.525ZM555.212 443.474C555.191 464.568 547.166 484.875 532.745 500.328C518.324 515.78 498.572 525.237 477.446 526.804C456.319 528.371 435.378 521.932 418.817 508.778C402.256 495.623 391.298 476.724 388.138 455.866C384.977 435.008 389.849 413.732 401.776 396.298C413.703 378.865 431.804 366.562 452.455 361.853C473.106 357.145 494.78 360.38 513.138 370.909C531.495 381.438 545.179 398.484 551.449 418.633C553.95 426.678 555.219 435.053 555.214 443.474H555.212ZM505.316 579.883H213.676C213.031 575.606 212.602 572.389 212.279 568.105H506.717C506.393 572.389 505.963 575.601 505.317 579.883H505.316ZM266.806 546.692C312.615 539.198 348.21 500.651 352.941 454.611H365.953C370.685 500.652 406.279 539.198 452.088 546.692H266.806ZM231.642 307.702C272.793 277.102 323.636 262.284 374.863 265.962C426.09 269.64 474.272 291.567 510.588 327.73C521.388 338.54 531.012 350.455 539.299 363.278C537.687 361.886 535.965 360.494 534.246 359.21C515.997 345.637 493.792 338.38 471.015 338.544C444.825 338.511 419.56 348.185 400.139 365.681C380.718 383.178 368.532 407.244 365.953 433.195H352.941C351.049 414.681 344.263 396.996 333.275 381.942C322.287 366.888 307.488 355.003 290.387 347.495C273.285 339.987 254.49 337.126 235.917 339.203C217.343 341.279 199.654 348.22 184.65 359.317C182.97 360.516 181.355 361.802 179.811 363.171C193.635 341.757 211.188 322.973 231.642 307.702ZM167.551 418.633C173.827 398.446 187.533 381.365 205.922 370.812C224.311 360.26 246.025 357.016 266.714 361.73C287.404 366.444 305.54 378.768 317.49 396.233C329.44 413.698 334.321 435.014 331.155 455.91C327.99 476.807 317.011 495.74 300.418 508.918C283.826 522.096 262.845 528.544 241.68 526.972C220.514 525.399 200.727 515.921 186.283 500.438C171.838 484.954 163.803 464.607 163.788 443.474C163.794 435.054 165.063 426.681 167.551 418.633ZM333.04 734.282C331.024 741.5 326.695 747.864 320.712 752.406C314.728 756.948 307.418 759.419 299.894 759.444C292.37 759.468 285.044 757.044 279.031 752.54C273.018 748.037 268.648 741.701 266.585 734.496C265.159 728.848 261.875 723.838 257.256 720.266C252.636 716.694 246.948 714.766 241.099 714.789H239.056C233.235 714.826 227.589 716.778 222.999 720.343C218.409 723.907 215.132 728.883 213.678 734.496C211.38 742.503 206.255 749.413 199.246 753.957C192.237 758.5 183.816 760.371 175.533 759.224C167.249 758.078 159.66 753.991 154.162 747.716C148.664 741.441 145.626 733.401 145.608 725.073V478.165C145.608 475.703 145.823 473.133 145.93 470.564C151.235 489.74 161.857 507.041 176.579 520.486C191.301 533.931 209.527 542.976 229.172 546.585H190.672V557.507C190.612 569.286 191.911 581.034 194.543 592.519C200.157 616.923 211.466 639.667 227.555 658.907C231.456 663.599 235.62 668.067 240.029 672.29C268.199 699.19 304.797 715.633 343.693 718.867C338.486 722.65 334.729 728.088 333.04 734.282ZM359.494 698.306C323.448 698.529 288.525 685.835 261.1 662.544C286.384 664.064 311.362 668.851 335.406 676.785L359.494 684.816L380.571 677.749C405.511 669.43 431.427 664.355 457.673 662.651C430.298 685.866 395.459 698.519 359.502 698.306H359.494ZM573.488 725.073C573.458 733.38 570.419 741.397 564.931 747.653C559.442 753.909 551.871 757.983 543.608 759.129C535.345 760.274 526.945 758.414 519.948 753.889C512.952 749.364 507.83 742.478 505.521 734.496C504.015 728.892 500.709 723.933 496.108 720.375C491.506 716.817 485.862 714.855 480.036 714.789H477.993C472.161 714.785 466.495 716.722 461.897 720.293C457.298 723.864 454.031 728.863 452.615 734.496C450.576 741.715 446.221 748.072 440.214 752.596C434.207 757.12 426.878 759.563 419.346 759.55C411.814 759.538 404.493 757.072 398.501 752.529C392.509 747.986 388.174 741.615 386.159 734.389C384.487 728.188 380.681 722.769 375.406 719.077C397.998 717.188 419.985 710.826 440.076 700.364C460.166 689.903 477.957 675.552 492.404 658.154C507.904 639.356 518.867 617.268 524.449 593.589C527.176 581.828 528.511 569.79 528.428 557.72V546.692H490.156C509.799 543.081 528.023 534.035 542.743 520.591C557.463 507.146 568.083 489.846 573.387 470.671C573.494 473.133 573.709 475.703 573.709 478.272V725.073H573.488Z"/><path fill="#FEC761" d="M910.66 323.844H890.543V384H878.922V323.844H858.854V313.98H910.66V323.844ZM952.213 362.076H918.131C918.261 366.699 919.677 370.263 922.379 372.77C925.113 375.276 928.857 376.529 933.609 376.529C938.948 376.529 943.847 374.934 948.307 371.744V380.875C943.749 383.74 937.727 385.172 930.24 385.172C922.883 385.172 917.105 382.91 912.906 378.385C908.74 373.827 906.656 367.431 906.656 359.195C906.656 351.415 908.951 345.084 913.541 340.201C918.163 335.286 923.893 332.828 930.729 332.828C937.564 332.828 942.854 335.025 946.598 339.42C950.341 343.814 952.213 349.918 952.213 357.73V362.076ZM941.275 354.068C941.243 349.999 940.283 346.842 938.395 344.596C936.507 342.317 933.902 341.178 930.582 341.178C927.327 341.178 924.56 342.366 922.281 344.742C920.035 347.118 918.652 350.227 918.131 354.068H941.275ZM998.795 381.705C994.791 384.016 990.055 385.172 984.586 385.172C977.164 385.172 971.174 382.861 966.617 378.238C962.06 373.583 959.781 367.561 959.781 360.172C959.781 351.936 962.223 345.328 967.105 340.348C972.021 335.335 978.58 332.828 986.783 332.828C991.34 332.828 995.361 333.626 998.844 335.221V345.768C995.361 343.163 991.65 341.861 987.711 341.861C982.926 341.861 979.003 343.489 975.943 346.744C972.883 349.967 971.354 354.199 971.354 359.439C971.354 364.615 972.786 368.701 975.65 371.695C978.548 374.69 982.421 376.188 987.271 376.188C991.34 376.188 995.182 374.739 998.795 371.842V381.705ZM1054.51 384H1043.18V356.656C1043.18 346.76 1039.88 341.812 1033.27 341.812C1029.95 341.812 1027.15 343.245 1024.87 346.109C1022.59 348.974 1021.45 352.636 1021.45 357.096V384H1010.07V309.977H1021.45V342.301H1021.65C1025.42 335.986 1030.83 332.828 1037.86 332.828C1048.96 332.828 1054.51 339.615 1054.51 353.189V384ZM726.529 491.609V517H714.957V446.98H736.197C744.238 446.98 750.471 448.852 754.898 452.596C759.326 456.339 761.539 461.613 761.539 468.416C761.539 475.219 759.228 480.786 754.605 485.115C749.983 489.445 743.733 491.609 735.855 491.609H726.529ZM726.529 456.551V482.137H734.049C739.029 482.137 742.822 480.981 745.426 478.67C748.03 476.359 749.332 473.104 749.332 468.904C749.332 460.669 744.547 456.551 734.977 456.551H726.529ZM816.617 517H805.289V489.656C805.289 479.76 801.985 474.812 795.377 474.812C792.057 474.812 789.257 476.245 786.979 479.109C784.7 481.974 783.561 485.636 783.561 490.096V517H772.184V442.977H783.561V475.301H783.756C787.532 468.986 792.936 465.828 799.967 465.828C811.067 465.828 816.617 472.615 816.617 486.189V517ZM868.766 517H857.779V509.188H857.584C854.133 515.177 849.072 518.172 842.398 518.172C837.483 518.172 833.626 516.837 830.826 514.168C828.059 511.499 826.676 507.967 826.676 503.572C826.676 494.132 832.112 488.631 842.984 487.068L857.828 484.969C857.828 477.84 854.443 474.275 847.672 474.275C841.715 474.275 836.344 476.326 831.559 480.428V470.516C836.832 467.391 842.919 465.828 849.82 465.828C862.451 465.828 868.766 472.046 868.766 484.48V517ZM857.828 492.439L847.33 493.904C844.075 494.327 841.617 495.125 839.957 496.297C838.329 497.436 837.516 499.454 837.516 502.352C837.516 504.467 838.264 506.209 839.762 507.576C841.292 508.911 843.326 509.578 845.865 509.578C849.316 509.578 852.164 508.374 854.41 505.965C856.689 503.523 857.828 500.464 857.828 496.785V492.439ZM927.164 517H915.836V488.826C915.836 479.484 912.532 474.812 905.924 474.812C902.473 474.812 899.625 476.115 897.379 478.719C895.133 481.29 894.01 484.546 894.01 488.484V517H882.633V467H894.01V475.301H894.205C897.949 468.986 903.352 465.828 910.416 465.828C915.852 465.828 920.003 467.602 922.867 471.15C925.732 474.666 927.164 479.76 927.164 486.434V517ZM967.398 516.463C965.185 517.57 962.271 518.123 958.658 518.123C948.958 518.123 944.107 513.468 944.107 504.158V475.887H935.758V467H944.107V455.428L955.436 452.205V467H967.398V475.887H955.436V500.887C955.436 503.849 955.973 505.965 957.047 507.234C958.121 508.504 959.911 509.139 962.418 509.139C964.339 509.139 965.999 508.585 967.398 507.479V516.463ZM1162.08 517H1150.75V489.754C1150.75 484.513 1150 480.721 1148.5 478.377C1147.04 476.033 1144.55 474.861 1141.03 474.861C1138.07 474.861 1135.55 476.342 1133.46 479.305C1131.41 482.267 1130.39 485.815 1130.39 489.949V517H1119.01V488.826C1119.01 479.516 1115.72 474.861 1109.15 474.861C1106.09 474.861 1103.56 476.261 1101.58 479.061C1099.62 481.86 1098.65 485.49 1098.65 489.949V517H1087.32V467H1098.65V474.91H1098.84C1102.46 468.855 1107.71 465.828 1114.62 465.828C1118.07 465.828 1121.08 466.788 1123.65 468.709C1126.25 470.597 1128.03 473.087 1128.97 476.18C1132.68 469.279 1138.22 465.828 1145.57 465.828C1156.57 465.828 1162.08 472.615 1162.08 486.189V517ZM1172.77 515.438V504.939C1177 508.162 1181.67 509.773 1186.78 509.773C1193.62 509.773 1197.04 507.755 1197.04 503.719C1197.04 502.579 1196.74 501.619 1196.16 500.838C1195.57 500.024 1194.77 499.308 1193.77 498.689C1192.79 498.071 1191.62 497.518 1190.25 497.029C1188.92 496.541 1187.42 495.988 1185.76 495.369C1183.71 494.555 1181.85 493.693 1180.19 492.781C1178.56 491.87 1177.2 490.844 1176.09 489.705C1175.02 488.533 1174.2 487.215 1173.65 485.75C1173.1 484.285 1172.82 482.576 1172.82 480.623C1172.82 478.214 1173.39 476.098 1174.53 474.275C1175.67 472.42 1177.2 470.874 1179.12 469.637C1181.04 468.367 1183.22 467.423 1185.66 466.805C1188.1 466.154 1190.62 465.828 1193.23 465.828C1197.85 465.828 1201.99 466.528 1205.63 467.928V477.84C1202.12 475.431 1198.08 474.227 1193.52 474.227C1192.09 474.227 1190.79 474.373 1189.62 474.666C1188.48 474.959 1187.5 475.366 1186.69 475.887C1185.87 476.408 1185.24 477.042 1184.78 477.791C1184.33 478.507 1184.1 479.305 1184.1 480.184C1184.1 481.258 1184.33 482.169 1184.78 482.918C1185.24 483.667 1185.9 484.334 1186.78 484.92C1187.69 485.473 1188.77 485.994 1190.01 486.482C1191.28 486.938 1192.72 487.443 1194.35 487.996C1196.5 488.875 1198.42 489.77 1200.11 490.682C1201.84 491.593 1203.3 492.635 1204.51 493.807C1205.71 494.946 1206.64 496.281 1207.29 497.811C1207.94 499.308 1208.27 501.098 1208.27 503.182C1208.27 505.721 1207.68 507.934 1206.51 509.822C1205.34 511.71 1203.78 513.273 1201.82 514.51C1199.87 515.747 1197.61 516.658 1195.04 517.244C1192.5 517.863 1189.81 518.172 1186.98 518.172C1181.51 518.172 1176.77 517.26 1172.77 515.438Z"/><ellipse cx="1027" cy="487" fill="#FEC761" rx="36" ry="38"/><path fill="#000" fill-rule="evenodd" d="M1011.85 499.577C1013.89 499.577 1015.55 498.087 1015.55 496.249C1015.55 494.411 1013.89 492.92 1011.85 492.92C1009.81 492.92 1008.16 494.411 1008.16 496.249C1008.16 498.087 1009.81 499.577 1011.85 499.577ZM1011.85 498.165C1013.03 498.165 1013.98 497.307 1013.98 496.249C1013.98 495.19 1013.03 494.332 1011.85 494.332C1010.68 494.332 1009.73 495.19 1009.73 496.249C1009.73 497.307 1010.68 498.165 1011.85 498.165Z" clip-rule="evenodd"/><path stroke="#000" stroke-width="4" d="M1011.36 493.491C1013.56 484.719 1004.68 476.64 1011.36 469.504C1019.21 461.11 1034.55 461.11 1042.4 469.504C1049.07 476.64 1038.97 484.469 1042.4 493.491"/><path fill="#000" fill-rule="evenodd" d="M1041.88 499.577C1043.92 499.577 1045.58 498.087 1045.58 496.249C1045.58 494.411 1043.92 492.92 1041.88 492.92C1039.84 492.92 1038.19 494.411 1038.19 496.249C1038.19 498.087 1039.84 499.577 1041.88 499.577ZM1041.88 498.165C1043.06 498.165 1044.01 497.307 1044.01 496.249C1044.01 495.19 1043.06 494.332 1041.88 494.332C1040.71 494.332 1039.75 495.19 1039.75 496.249C1039.75 497.307 1040.71 498.165 1041.88 498.165Z" clip-rule="evenodd"/><path fill="#000" fill-rule="evenodd" d="M1019.24 483.974C1021.28 483.974 1022.94 482.484 1022.94 480.646C1022.94 478.808 1021.28 477.318 1019.24 477.318C1017.2 477.318 1015.55 478.808 1015.55 480.646C1015.55 482.484 1017.2 483.974 1019.24 483.974ZM1019.24 482.562C1020.42 482.562 1021.37 481.704 1021.37 480.646C1021.37 479.587 1020.42 478.73 1019.24 478.73C1018.07 478.73 1017.12 479.587 1017.12 480.646C1017.12 481.704 1018.07 482.562 1019.24 482.562Z" clip-rule="evenodd"/><path fill="#000" fill-rule="evenodd" d="M1034.49 483.974C1036.53 483.974 1038.19 482.484 1038.19 480.646C1038.19 478.808 1036.53 477.318 1034.49 477.318C1032.45 477.318 1030.8 478.808 1030.8 480.646C1030.8 482.484 1032.45 483.974 1034.49 483.974ZM1034.49 482.562C1035.67 482.562 1036.62 481.704 1036.62 480.646C1036.62 479.587 1035.67 478.73 1034.49 478.73C1033.32 478.73 1032.37 479.587 1032.37 480.646C1032.37 481.704 1033.32 482.562 1034.49 482.562Z" clip-rule="evenodd"/><path fill="#000" fill-rule="evenodd" d="M1027.07 509.973C1029.11 509.973 1030.76 508.482 1030.76 506.644C1030.76 504.806 1029.11 503.316 1027.07 503.316C1025.03 503.316 1023.37 504.806 1023.37 506.644C1023.37 508.482 1025.03 509.973 1027.07 509.973ZM1027.07 508.561C1028.24 508.561 1029.2 507.703 1029.2 506.644C1029.2 505.586 1028.24 504.728 1027.07 504.728C1025.89 504.728 1024.94 505.586 1024.94 506.644C1024.94 507.703 1025.89 508.561 1027.07 508.561Z" clip-rule="evenodd"/><path stroke="#000" stroke-width="4" d="M1026.97 489.318V504.122M1026.97 489.318L1021.21 483.182M1026.97 489.318L1032.88 483.182"/><rect width="202" height="64" x="858.668" y="659.084" fill="#fff" stroke="#fff" stroke-width="3"/><path fill="#000" d="M885.258 684.584H883.184V676.428C883.184 675.76 883.225 674.943 883.307 673.976H883.272C883.143 674.527 883.029 674.922 882.929 675.163L879.168 684.584H877.726L873.956 675.233C873.85 674.957 873.739 674.539 873.622 673.976H873.587C873.633 674.48 873.657 675.303 873.657 676.446V684.584H871.723V671.981H874.668L877.981 680.374C878.233 681.019 878.397 681.499 878.473 681.816H878.517C878.734 681.154 878.91 680.662 879.045 680.339L882.42 671.981H885.258V684.584ZM889.17 673.695C888.836 673.695 888.549 673.586 888.308 673.37C888.074 673.153 887.957 672.877 887.957 672.543C887.957 672.209 888.074 671.931 888.308 671.708C888.549 671.486 888.836 671.374 889.17 671.374C889.515 671.374 889.808 671.486 890.049 671.708C890.289 671.931 890.409 672.209 890.409 672.543C890.409 672.86 890.289 673.132 890.049 673.361C889.808 673.583 889.515 673.695 889.17 673.695ZM890.18 684.584H888.141V675.584H890.18V684.584ZM899.295 684.171C898.574 684.587 897.721 684.795 896.737 684.795C895.401 684.795 894.323 684.379 893.503 683.547C892.682 682.709 892.272 681.625 892.272 680.295C892.272 678.813 892.712 677.623 893.591 676.727C894.475 675.825 895.656 675.373 897.133 675.373C897.953 675.373 898.676 675.517 899.303 675.804V677.703C898.676 677.234 898.008 676.999 897.299 676.999C896.438 676.999 895.732 677.292 895.181 677.878C894.631 678.458 894.355 679.22 894.355 680.164C894.355 681.095 894.613 681.831 895.129 682.37C895.65 682.909 896.347 683.178 897.22 683.178C897.953 683.178 898.644 682.917 899.295 682.396V684.171ZM906.546 677.527C906.299 677.333 905.945 677.237 905.482 677.237C904.879 677.237 904.375 677.509 903.97 678.054C903.566 678.599 903.364 679.34 903.364 680.278V684.584H901.325V675.584H903.364V677.439H903.399C903.598 676.806 903.903 676.314 904.313 675.962C904.729 675.605 905.192 675.426 905.702 675.426C906.071 675.426 906.352 675.482 906.546 675.593V677.527ZM911.819 684.795C910.43 684.795 909.32 684.376 908.488 683.539C907.662 682.695 907.249 681.579 907.249 680.19C907.249 678.678 907.679 677.498 908.541 676.648C909.408 675.798 910.574 675.373 912.039 675.373C913.445 675.373 914.541 675.787 915.326 676.613C916.111 677.439 916.504 678.584 916.504 680.049C916.504 681.485 916.079 682.636 915.229 683.503C914.385 684.365 913.249 684.795 911.819 684.795ZM911.916 676.999C911.119 676.999 910.489 677.278 910.026 677.834C909.563 678.391 909.332 679.159 909.332 680.137C909.332 681.081 909.566 681.825 910.035 682.37C910.504 682.909 911.131 683.178 911.916 683.178C912.718 683.178 913.334 682.912 913.761 682.378C914.195 681.845 914.412 681.086 914.412 680.102C914.412 679.112 914.195 678.347 913.761 677.808C913.334 677.269 912.718 676.999 911.916 676.999ZM918.024 684.303V682.414C918.786 682.994 919.627 683.284 920.547 683.284C921.777 683.284 922.392 682.92 922.392 682.194C922.392 681.989 922.34 681.816 922.234 681.675C922.129 681.529 921.985 681.4 921.803 681.289C921.628 681.177 921.417 681.078 921.171 680.99C920.93 680.902 920.661 680.802 920.362 680.691C919.993 680.544 919.659 680.389 919.36 680.225C919.067 680.061 918.821 679.876 918.622 679.671C918.428 679.46 918.282 679.223 918.182 678.959C918.083 678.696 918.033 678.388 918.033 678.037C918.033 677.603 918.135 677.222 918.341 676.894C918.546 676.56 918.821 676.282 919.167 676.059C919.512 675.831 919.905 675.661 920.344 675.549C920.784 675.432 921.238 675.373 921.707 675.373C922.539 675.373 923.283 675.499 923.939 675.751V677.536C923.306 677.102 922.58 676.885 921.759 676.885C921.502 676.885 921.267 676.912 921.056 676.964C920.851 677.017 920.675 677.09 920.529 677.184C920.383 677.278 920.268 677.392 920.186 677.527C920.104 677.656 920.063 677.799 920.063 677.957C920.063 678.151 920.104 678.315 920.186 678.45C920.268 678.584 920.388 678.705 920.547 678.81C920.711 678.91 920.904 679.003 921.127 679.091C921.355 679.173 921.616 679.264 921.909 679.364C922.296 679.522 922.641 679.683 922.946 679.847C923.257 680.011 923.52 680.199 923.737 680.41C923.954 680.615 924.121 680.855 924.238 681.13C924.355 681.4 924.414 681.722 924.414 682.097C924.414 682.554 924.308 682.953 924.097 683.292C923.886 683.632 923.605 683.914 923.254 684.136C922.902 684.359 922.495 684.523 922.032 684.628C921.575 684.74 921.091 684.795 920.582 684.795C919.597 684.795 918.745 684.631 918.024 684.303ZM930.346 684.795C928.958 684.795 927.847 684.376 927.015 683.539C926.189 682.695 925.776 681.579 925.776 680.19C925.776 678.678 926.207 677.498 927.068 676.648C927.935 675.798 929.101 675.373 930.566 675.373C931.972 675.373 933.068 675.787 933.853 676.613C934.638 677.439 935.031 678.584 935.031 680.049C935.031 681.485 934.606 682.636 933.757 683.503C932.913 684.365 931.776 684.795 930.346 684.795ZM930.443 676.999C929.646 676.999 929.016 677.278 928.553 677.834C928.091 678.391 927.859 679.159 927.859 680.137C927.859 681.081 928.093 681.825 928.562 682.37C929.031 682.909 929.658 683.178 930.443 683.178C931.246 683.178 931.861 682.912 932.289 682.378C932.722 681.845 932.939 681.086 932.939 680.102C932.939 679.112 932.722 678.347 932.289 677.808C931.861 677.269 931.246 676.999 930.443 676.999ZM941.904 672.921C941.629 672.763 941.315 672.684 940.964 672.684C939.973 672.684 939.478 673.244 939.478 674.363V675.584H941.57V677.184H939.487V684.584H937.448V677.184H935.91V675.584H937.448V674.125C937.448 673.176 937.758 672.429 938.38 671.884C939.001 671.333 939.777 671.058 940.709 671.058C941.213 671.058 941.611 671.114 941.904 671.225V672.921ZM948.1 684.488C947.702 684.687 947.177 684.787 946.527 684.787C944.781 684.787 943.908 683.949 943.908 682.273V677.184H942.405V675.584H943.908V673.501L945.947 672.921V675.584H948.1V677.184H945.947V681.684C945.947 682.217 946.044 682.598 946.237 682.827C946.43 683.055 946.753 683.169 947.204 683.169C947.549 683.169 947.848 683.07 948.1 682.871V684.488ZM962.022 684.584H955.044V671.981H957.135V682.818H962.022V684.584ZM971.242 680.638H965.107C965.131 681.47 965.385 682.112 965.872 682.563C966.364 683.014 967.038 683.24 967.893 683.24C968.854 683.24 969.736 682.953 970.539 682.378V684.022C969.718 684.538 968.634 684.795 967.287 684.795C965.963 684.795 964.923 684.388 964.167 683.574C963.417 682.753 963.042 681.602 963.042 680.12C963.042 678.719 963.455 677.58 964.281 676.701C965.113 675.816 966.144 675.373 967.375 675.373C968.605 675.373 969.557 675.769 970.231 676.56C970.905 677.351 971.242 678.45 971.242 679.856V680.638ZM969.273 679.197C969.267 678.464 969.094 677.896 968.755 677.492C968.415 677.081 967.946 676.876 967.348 676.876C966.762 676.876 966.264 677.09 965.854 677.518C965.45 677.946 965.201 678.505 965.107 679.197H969.273ZM980.092 684.584H978.115V683.178H978.08C977.459 684.256 976.548 684.795 975.346 684.795C974.462 684.795 973.767 684.555 973.263 684.075C972.765 683.594 972.516 682.958 972.516 682.167C972.516 680.468 973.495 679.478 975.452 679.197L978.124 678.819C978.124 677.536 977.514 676.894 976.296 676.894C975.223 676.894 974.257 677.263 973.395 678.001V676.217C974.344 675.655 975.44 675.373 976.682 675.373C978.956 675.373 980.092 676.493 980.092 678.731V684.584ZM978.124 680.164L976.234 680.427C975.648 680.503 975.206 680.647 974.907 680.858C974.614 681.063 974.467 681.426 974.467 681.948C974.467 682.329 974.602 682.642 974.872 682.888C975.147 683.128 975.513 683.248 975.97 683.248C976.591 683.248 977.104 683.032 977.508 682.598C977.919 682.159 978.124 681.608 978.124 680.946V680.164ZM987.809 677.527C987.563 677.333 987.209 677.237 986.746 677.237C986.142 677.237 985.638 677.509 985.234 678.054C984.83 678.599 984.628 679.34 984.628 680.278V684.584H982.589V675.584H984.628V677.439H984.663C984.862 676.806 985.167 676.314 985.577 675.962C985.993 675.605 986.456 675.426 986.966 675.426C987.335 675.426 987.616 675.482 987.809 675.593V677.527ZM997.266 684.584H995.227V679.513C995.227 677.831 994.633 676.991 993.443 676.991C992.822 676.991 992.309 677.225 991.905 677.694C991.501 678.157 991.299 678.743 991.299 679.452V684.584H989.251V675.584H991.299V677.079H991.334C992.008 675.942 992.98 675.373 994.252 675.373C995.23 675.373 995.977 675.693 996.493 676.331C997.008 676.964 997.266 677.881 997.266 679.082V684.584ZM871.143 708.083V705.93C871.337 706.106 871.565 706.264 871.829 706.405C872.098 706.545 872.383 706.665 872.681 706.765C872.98 706.859 873.279 706.932 873.578 706.985C873.877 707.038 874.152 707.064 874.404 707.064C875.283 707.064 875.936 706.917 876.364 706.624C876.798 706.331 877.014 705.907 877.014 705.35C877.014 705.051 876.941 704.793 876.795 704.577C876.654 704.354 876.455 704.152 876.197 703.97C875.939 703.789 875.634 703.616 875.283 703.452C874.937 703.282 874.565 703.106 874.167 702.924C873.739 702.696 873.341 702.464 872.971 702.23C872.602 701.996 872.28 701.738 872.005 701.456C871.735 701.169 871.521 700.847 871.363 700.49C871.211 700.132 871.134 699.713 871.134 699.233C871.134 698.641 871.266 698.128 871.53 697.695C871.799 697.255 872.151 696.895 872.585 696.614C873.024 696.327 873.522 696.116 874.079 695.981C874.635 695.84 875.204 695.77 875.784 695.77C877.102 695.77 878.063 695.919 878.667 696.218V698.284C877.952 697.768 877.032 697.51 875.907 697.51C875.596 697.51 875.286 697.54 874.975 697.598C874.671 697.657 874.395 697.753 874.149 697.888C873.909 698.023 873.713 698.196 873.56 698.407C873.408 698.618 873.332 698.873 873.332 699.171C873.332 699.453 873.39 699.696 873.508 699.901C873.625 700.106 873.795 700.293 874.017 700.463C874.246 700.633 874.521 700.8 874.843 700.964C875.172 701.123 875.549 701.295 875.977 701.483C876.417 701.711 876.83 701.952 877.216 702.204C877.609 702.456 877.952 702.734 878.245 703.039C878.544 703.343 878.778 703.683 878.948 704.058C879.124 704.427 879.212 704.849 879.212 705.324C879.212 705.962 879.083 706.501 878.825 706.941C878.567 707.38 878.218 707.738 877.779 708.013C877.345 708.289 876.844 708.488 876.276 708.611C875.708 708.734 875.107 708.795 874.474 708.795C874.263 708.795 874.003 708.778 873.692 708.743C873.387 708.713 873.074 708.666 872.752 708.602C872.429 708.543 872.125 708.47 871.838 708.382C871.55 708.294 871.319 708.195 871.143 708.083ZM885.522 708.488C885.124 708.687 884.599 708.787 883.949 708.787C882.203 708.787 881.33 707.949 881.33 706.273V701.184H879.827V699.584H881.33V697.501L883.369 696.921V699.584H885.522V701.184H883.369V705.684C883.369 706.217 883.466 706.598 883.659 706.827C883.852 707.055 884.174 707.169 884.626 707.169C884.971 707.169 885.27 707.07 885.522 706.871V708.488ZM895.129 708.584H893.09V707.161H893.054C892.463 708.25 891.543 708.795 890.295 708.795C888.168 708.795 887.104 707.518 887.104 704.963V699.584H889.143V704.752C889.143 706.37 889.767 707.178 891.015 707.178C891.619 707.178 892.114 706.956 892.501 706.51C892.893 706.065 893.09 705.482 893.09 704.761V699.584H895.129V708.584ZM905.974 708.584H903.935V707.055H903.9C903.244 708.215 902.233 708.795 900.868 708.795C899.76 708.795 898.873 708.394 898.205 707.591C897.543 706.783 897.212 705.684 897.212 704.295C897.212 702.807 897.578 701.615 898.31 700.718C899.049 699.822 900.03 699.373 901.255 699.373C902.467 699.373 903.349 699.86 903.9 700.832H903.935V695.26H905.974V708.584ZM903.962 704.471V703.293C903.962 702.655 903.754 702.113 903.338 701.667C902.922 701.222 902.391 700.999 901.747 700.999C900.985 700.999 900.384 701.284 899.945 701.852C899.511 702.42 899.295 703.208 899.295 704.216C899.295 705.13 899.503 705.854 899.919 706.387C900.341 706.915 900.906 707.178 901.615 707.178C902.312 707.178 902.878 706.923 903.311 706.414C903.745 705.898 903.962 705.25 903.962 704.471ZM916.258 704.638H910.123C910.146 705.47 910.401 706.112 910.887 706.563C911.38 707.014 912.053 707.24 912.909 707.24C913.87 707.24 914.752 706.953 915.554 706.378V708.022C914.734 708.538 913.65 708.795 912.302 708.795C910.978 708.795 909.938 708.388 909.182 707.574C908.432 706.753 908.057 705.602 908.057 704.12C908.057 702.719 908.47 701.58 909.297 700.701C910.129 699.816 911.16 699.373 912.39 699.373C913.621 699.373 914.573 699.769 915.247 700.56C915.921 701.351 916.258 702.45 916.258 703.856V704.638ZM914.289 703.197C914.283 702.464 914.11 701.896 913.77 701.492C913.43 701.081 912.962 700.876 912.364 700.876C911.778 700.876 911.28 701.09 910.87 701.518C910.466 701.946 910.216 702.505 910.123 703.197H914.289ZM926.216 708.584H924.176V703.513C924.176 701.831 923.582 700.991 922.392 700.991C921.771 700.991 921.258 701.225 920.854 701.694C920.45 702.157 920.248 702.743 920.248 703.452V708.584H918.2V699.584H920.248V701.079H920.283C920.957 699.942 921.929 699.373 923.201 699.373C924.179 699.373 924.926 699.693 925.442 700.331C925.958 700.964 926.216 701.881 926.216 703.082V708.584ZM933.458 708.488C933.059 708.687 932.535 708.787 931.884 708.787C930.138 708.787 929.265 707.949 929.265 706.273V701.184H927.762V699.584H929.265V697.501L931.304 696.921V699.584H933.458V701.184H931.304V705.684C931.304 706.217 931.401 706.598 931.594 706.827C931.788 707.055 932.11 707.169 932.561 707.169C932.907 707.169 933.206 707.07 933.458 706.871V708.488ZM950.755 708.584H948.461L947.327 705.376H942.37L941.28 708.584H938.995L943.715 695.981H946.07L950.755 708.584ZM946.773 703.671L945.024 698.644C944.971 698.48 944.916 698.216 944.857 697.853H944.822C944.769 698.187 944.711 698.451 944.646 698.644L942.915 703.671H946.773ZM965.722 708.584H963.683V703.68C963.683 702.737 963.549 702.054 963.279 701.632C963.015 701.21 962.567 700.999 961.934 700.999C961.401 700.999 960.947 701.266 960.572 701.799C960.203 702.332 960.018 702.971 960.018 703.715V708.584H957.97V703.513C957.97 701.837 957.379 700.999 956.195 700.999C955.644 700.999 955.19 701.251 954.833 701.755C954.481 702.259 954.305 702.913 954.305 703.715V708.584H952.266V699.584H954.305V701.008H954.341C954.991 699.918 955.937 699.373 957.179 699.373C957.8 699.373 958.342 699.546 958.805 699.892C959.274 700.232 959.593 700.68 959.763 701.237C960.431 699.995 961.427 699.373 962.752 699.373C964.732 699.373 965.722 700.595 965.722 703.039V708.584ZM970.284 707.284H970.249V708.584H968.21V695.26H970.249V701.166H970.284C970.981 699.971 972.001 699.373 973.342 699.373C974.479 699.373 975.367 699.778 976.006 700.586C976.65 701.389 976.972 702.467 976.972 703.821C976.972 705.327 976.612 706.534 975.891 707.442C975.171 708.344 974.186 708.795 972.938 708.795C971.766 708.795 970.882 708.291 970.284 707.284ZM970.231 703.706V704.823C970.231 705.479 970.439 706.036 970.855 706.493C971.277 706.95 971.81 707.178 972.455 707.178C973.211 707.178 973.802 706.885 974.23 706.299C974.664 705.707 974.881 704.884 974.881 703.83C974.881 702.945 974.678 702.253 974.274 701.755C973.876 701.251 973.334 700.999 972.648 700.999C971.922 700.999 971.336 701.257 970.89 701.773C970.451 702.289 970.231 702.933 970.231 703.706ZM985.753 708.584H983.775V707.178H983.74C983.119 708.256 982.208 708.795 981.007 708.795C980.122 708.795 979.427 708.555 978.924 708.075C978.425 707.594 978.176 706.958 978.176 706.167C978.176 704.468 979.155 703.478 981.112 703.197L983.784 702.819C983.784 701.536 983.174 700.894 981.956 700.894C980.883 700.894 979.917 701.263 979.055 702.001V700.217C980.005 699.655 981.1 699.373 982.342 699.373C984.616 699.373 985.753 700.493 985.753 702.731V708.584ZM983.784 704.164L981.894 704.427C981.308 704.503 980.866 704.647 980.567 704.858C980.274 705.063 980.128 705.426 980.128 705.948C980.128 706.329 980.262 706.642 980.532 706.888C980.807 707.128 981.174 707.248 981.631 707.248C982.252 707.248 982.764 707.032 983.169 706.598C983.579 706.159 983.784 705.608 983.784 704.946V704.164ZM987.686 708.303V706.414C988.448 706.994 989.289 707.284 990.209 707.284C991.439 707.284 992.054 706.92 992.054 706.194C992.054 705.989 992.002 705.816 991.896 705.675C991.791 705.529 991.647 705.4 991.466 705.289C991.29 705.177 991.079 705.078 990.833 704.99C990.592 704.902 990.323 704.802 990.024 704.691C989.655 704.544 989.321 704.389 989.022 704.225C988.729 704.061 988.483 703.876 988.284 703.671C988.091 703.46 987.944 703.223 987.844 702.959C987.745 702.696 987.695 702.388 987.695 702.037C987.695 701.603 987.798 701.222 988.003 700.894C988.208 700.56 988.483 700.282 988.829 700.059C989.174 699.831 989.567 699.661 990.007 699.549C990.446 699.432 990.9 699.373 991.369 699.373C992.201 699.373 992.945 699.499 993.601 699.751V701.536C992.968 701.102 992.242 700.885 991.422 700.885C991.164 700.885 990.929 700.912 990.718 700.964C990.513 701.017 990.338 701.09 990.191 701.184C990.045 701.278 989.93 701.392 989.848 701.527C989.766 701.656 989.725 701.799 989.725 701.957C989.725 702.151 989.766 702.315 989.848 702.45C989.93 702.584 990.05 702.705 990.209 702.81C990.373 702.91 990.566 703.003 990.789 703.091C991.017 703.173 991.278 703.264 991.571 703.364C991.958 703.522 992.303 703.683 992.608 703.847C992.919 704.011 993.182 704.199 993.399 704.41C993.616 704.615 993.783 704.855 993.9 705.13C994.017 705.4 994.076 705.722 994.076 706.097C994.076 706.554 993.97 706.953 993.759 707.292C993.549 707.632 993.267 707.914 992.916 708.136C992.564 708.359 992.157 708.523 991.694 708.628C991.237 708.74 990.754 708.795 990.244 708.795C989.259 708.795 988.407 708.631 987.686 708.303ZM995.456 708.303V706.414C996.217 706.994 997.058 707.284 997.978 707.284C999.209 707.284 999.824 706.92 999.824 706.194C999.824 705.989 999.771 705.816 999.666 705.675C999.56 705.529 999.417 705.4 999.235 705.289C999.059 705.177 998.848 705.078 998.602 704.99C998.362 704.902 998.092 704.802 997.794 704.691C997.424 704.544 997.091 704.389 996.792 704.225C996.499 704.061 996.253 703.876 996.053 703.671C995.86 703.46 995.714 703.223 995.614 702.959C995.514 702.696 995.465 702.388 995.465 702.037C995.465 701.603 995.567 701.222 995.772 700.894C995.977 700.56 996.253 700.282 996.598 700.059C996.944 699.831 997.337 699.661 997.776 699.549C998.216 699.432 998.67 699.373 999.138 699.373C999.97 699.373 1000.71 699.499 1001.37 699.751V701.536C1000.74 701.102 1000.01 700.885 999.191 700.885C998.933 700.885 998.699 700.912 998.488 700.964C998.283 701.017 998.107 701.09 997.961 701.184C997.814 701.278 997.7 701.392 997.618 701.527C997.536 701.656 997.495 701.799 997.495 701.957C997.495 702.151 997.536 702.315 997.618 702.45C997.7 702.584 997.82 702.705 997.978 702.81C998.142 702.91 998.336 703.003 998.558 703.091C998.787 703.173 999.048 703.264 999.341 703.364C999.727 703.522 1000.07 703.683 1000.38 703.847C1000.69 704.011 1000.95 704.199 1001.17 704.41C1001.39 704.615 1001.55 704.855 1001.67 705.13C1001.79 705.4 1001.85 705.722 1001.85 706.097C1001.85 706.554 1001.74 706.953 1001.53 707.292C1001.32 707.632 1001.04 707.914 1000.69 708.136C1000.33 708.359 999.926 708.523 999.464 708.628C999.007 708.74 998.523 708.795 998.013 708.795C997.029 708.795 996.176 708.631 995.456 708.303ZM1010.7 708.584H1008.72V707.178H1008.68C1008.06 708.256 1007.15 708.795 1005.95 708.795C1005.07 708.795 1004.37 708.555 1003.87 708.075C1003.37 707.594 1003.12 706.958 1003.12 706.167C1003.12 704.468 1004.1 703.478 1006.06 703.197L1008.73 702.819C1008.73 701.536 1008.12 700.894 1006.9 700.894C1005.83 700.894 1004.86 701.263 1004 702.001V700.217C1004.95 699.655 1006.04 699.373 1007.29 699.373C1009.56 699.373 1010.7 700.493 1010.7 702.731V708.584ZM1008.73 704.164L1006.84 704.427C1006.25 704.503 1005.81 704.647 1005.51 704.858C1005.22 705.063 1005.07 705.426 1005.07 705.948C1005.07 706.329 1005.21 706.642 1005.48 706.888C1005.75 707.128 1006.12 707.248 1006.57 707.248C1007.2 707.248 1007.71 707.032 1008.11 706.598C1008.52 706.159 1008.73 705.608 1008.73 704.946V704.164ZM1021.37 708.584H1019.34V707.055H1019.3C1018.64 708.215 1017.63 708.795 1016.27 708.795C1015.16 708.795 1014.27 708.394 1013.61 707.591C1012.94 706.783 1012.61 705.684 1012.61 704.295C1012.61 702.807 1012.98 701.615 1013.71 700.718C1014.45 699.822 1015.43 699.373 1016.65 699.373C1017.87 699.373 1018.75 699.86 1019.3 700.832H1019.34V695.26H1021.37V708.584ZM1019.36 704.471V703.293C1019.36 702.655 1019.15 702.113 1018.74 701.667C1018.32 701.222 1017.79 700.999 1017.15 700.999C1016.39 700.999 1015.78 701.284 1015.35 701.852C1014.91 702.42 1014.7 703.208 1014.7 704.216C1014.7 705.13 1014.9 705.854 1015.32 706.387C1015.74 706.915 1016.31 707.178 1017.02 707.178C1017.71 707.178 1018.28 706.923 1018.71 706.414C1019.15 705.898 1019.36 705.25 1019.36 704.471ZM1028.03 708.795C1026.64 708.795 1025.53 708.376 1024.7 707.539C1023.87 706.695 1023.46 705.579 1023.46 704.19C1023.46 702.678 1023.89 701.498 1024.75 700.648C1025.62 699.798 1026.78 699.373 1028.25 699.373C1029.65 699.373 1030.75 699.787 1031.53 700.613C1032.32 701.439 1032.71 702.584 1032.71 704.049C1032.71 705.485 1032.29 706.636 1031.44 707.503C1030.59 708.365 1029.46 708.795 1028.03 708.795ZM1028.12 700.999C1027.33 700.999 1026.7 701.278 1026.24 701.834C1025.77 702.391 1025.54 703.159 1025.54 704.137C1025.54 705.081 1025.78 705.825 1026.24 706.37C1026.71 706.909 1027.34 707.178 1028.12 707.178C1028.93 707.178 1029.54 706.912 1029.97 706.378C1030.4 705.845 1030.62 705.086 1030.62 704.102C1030.62 703.112 1030.4 702.347 1029.97 701.808C1029.54 701.269 1028.93 700.999 1028.12 700.999ZM1040.02 701.527C1039.77 701.333 1039.42 701.237 1038.95 701.237C1038.35 701.237 1037.85 701.509 1037.44 702.054C1037.04 702.599 1036.83 703.34 1036.83 704.278V708.584H1034.8V699.584H1036.83V701.439H1036.87C1037.07 700.806 1037.37 700.314 1037.78 699.962C1038.2 699.605 1038.66 699.426 1039.17 699.426C1039.54 699.426 1039.82 699.482 1040.02 699.593V701.527ZM1041.02 708.303V706.414C1041.78 706.994 1042.62 707.284 1043.54 707.284C1044.77 707.284 1045.39 706.92 1045.39 706.194C1045.39 705.989 1045.33 705.816 1045.23 705.675C1045.12 705.529 1044.98 705.4 1044.8 705.289C1044.62 705.177 1044.41 705.078 1044.16 704.99C1043.92 704.902 1043.65 704.802 1043.36 704.691C1042.99 704.544 1042.65 704.389 1042.35 704.225C1042.06 704.061 1041.82 703.876 1041.62 703.671C1041.42 703.46 1041.28 703.223 1041.18 702.959C1041.08 702.696 1041.03 702.388 1041.03 702.037C1041.03 701.603 1041.13 701.222 1041.33 700.894C1041.54 700.56 1041.82 700.282 1042.16 700.059C1042.51 699.831 1042.9 699.661 1043.34 699.549C1043.78 699.432 1044.23 699.373 1044.7 699.373C1045.53 699.373 1046.28 699.499 1046.93 699.751V701.536C1046.3 701.102 1045.57 700.885 1044.75 700.885C1044.5 700.885 1044.26 700.912 1044.05 700.964C1043.85 701.017 1043.67 701.09 1043.52 701.184C1043.38 701.278 1043.26 701.392 1043.18 701.527C1043.1 701.656 1043.06 701.799 1043.06 701.957C1043.06 702.151 1043.1 702.315 1043.18 702.45C1043.26 702.584 1043.38 702.705 1043.54 702.81C1043.7 702.91 1043.9 703.003 1044.12 703.091C1044.35 703.173 1044.61 703.264 1044.9 703.364C1045.29 703.522 1045.64 703.683 1045.94 703.847C1046.25 704.011 1046.51 704.199 1046.73 704.41C1046.95 704.615 1047.11 704.855 1047.23 705.13C1047.35 705.4 1047.41 705.722 1047.41 706.097C1047.41 706.554 1047.3 706.953 1047.09 707.292C1046.88 707.632 1046.6 707.914 1046.25 708.136C1045.9 708.359 1045.49 708.523 1045.03 708.628C1044.57 708.74 1044.09 708.795 1043.58 708.795C1042.59 708.795 1041.74 708.631 1041.02 708.303Z"/><path fill="#fff" d="M962.214 657.58L962.207 659.655L954.051 659.63C953.383 659.628 952.566 659.584 951.599 659.499L951.599 659.534C952.15 659.665 952.545 659.78 952.785 659.881L962.195 663.671L962.191 665.112L952.828 668.855C952.552 668.959 952.133 669.069 951.57 669.185L951.57 669.22C952.074 669.174 952.897 669.154 954.04 669.157L962.178 669.182L962.172 671.115L949.569 671.077L949.578 668.133L957.981 664.845C958.627 664.595 959.108 664.432 959.424 664.357L959.424 664.313C958.763 664.094 958.271 663.917 957.949 663.781L949.601 660.381L949.61 657.542L962.214 657.58Z"/><path fill="#fff" d="M871.295 696.584L869.221 696.588L869.205 688.432C869.204 687.764 869.243 686.947 869.323 685.98L869.288 685.98C869.16 686.531 869.047 686.926 868.948 687.167L865.204 696.596L863.763 696.599L859.974 687.254C859.868 686.979 859.756 686.56 859.638 685.998L859.603 685.998C859.651 686.502 859.676 687.325 859.678 688.468L859.693 696.606L857.76 696.61L857.736 684.007L860.68 684.001L864.01 692.388C864.263 693.032 864.428 693.512 864.505 693.829L864.548 693.829C864.764 693.166 864.939 692.674 865.073 692.351L868.432 683.986L871.271 683.981L871.295 696.584Z"/><path fill="#fff" d="M1061.29 710.585L1059.22 710.588L1059.2 702.432C1059.2 701.764 1059.24 700.947 1059.32 699.98L1059.29 699.98C1059.16 700.531 1059.05 700.927 1058.95 701.167L1055.2 710.596L1053.76 710.599L1049.97 701.255C1049.87 700.979 1049.76 700.561 1049.64 699.998L1049.6 699.998C1049.65 700.502 1049.68 701.326 1049.68 702.468L1049.69 710.607L1047.76 710.61L1047.74 698.007L1050.68 698.001L1054.01 706.389C1054.26 707.033 1054.43 707.513 1054.5 707.829L1054.55 707.829C1054.76 707.166 1054.94 706.674 1055.07 706.351L1058.43 697.986L1061.27 697.981L1061.29 710.585Z"/><path fill="#fff" d="M962.167 709.547L962.179 711.622L954.023 711.67C953.355 711.674 952.538 711.638 951.57 711.562L951.571 711.597C952.122 711.723 952.518 711.834 952.759 711.933L962.203 715.638L962.212 717.079L952.883 720.906C952.608 721.013 952.19 721.127 951.628 721.247L951.628 721.282C952.132 721.232 952.955 721.204 954.097 721.197L962.236 721.149L962.248 723.082L949.644 723.157L949.627 720.213L958 716.85C958.643 716.594 959.123 716.427 959.439 716.349L959.439 716.305C958.775 716.092 958.282 715.919 957.959 715.786L949.581 712.461L949.564 709.623L962.167 709.547Z"/><path fill="#BF9549" d="M871.068 607H868.774L867.641 603.792H862.684L861.594 607H859.309L864.028 594.396H866.384L871.068 607ZM867.087 602.087L865.338 597.06C865.285 596.896 865.229 596.632 865.171 596.269H865.136C865.083 596.603 865.024 596.866 864.96 597.06L863.229 602.087H867.087ZM885.852 596.172H882.23V607H880.139V596.172H876.526V594.396H885.852V596.172ZM893.331 603.054H887.196C887.22 603.886 887.475 604.527 887.961 604.979C888.453 605.43 889.127 605.655 889.982 605.655C890.943 605.655 891.825 605.368 892.628 604.794V606.438C891.808 606.953 890.724 607.211 889.376 607.211C888.052 607.211 887.012 606.804 886.256 605.989C885.506 605.169 885.131 604.018 885.131 602.535C885.131 601.135 885.544 599.995 886.37 599.116C887.202 598.231 888.233 597.789 889.464 597.789C890.694 597.789 891.646 598.185 892.32 598.976C892.994 599.767 893.331 600.865 893.331 602.271V603.054ZM891.362 601.612C891.356 600.88 891.184 600.312 890.844 599.907C890.504 599.497 890.035 599.292 889.438 599.292C888.852 599.292 888.354 599.506 887.943 599.934C887.539 600.361 887.29 600.921 887.196 601.612H891.362ZM901.716 606.587C900.995 607.003 900.143 607.211 899.158 607.211C897.822 607.211 896.744 606.795 895.924 605.963C895.104 605.125 894.693 604.041 894.693 602.711C894.693 601.229 895.133 600.039 896.012 599.143C896.896 598.24 898.077 597.789 899.554 597.789C900.374 597.789 901.098 597.933 901.725 598.22V600.118C901.098 599.649 900.43 599.415 899.721 599.415C898.859 599.415 898.153 599.708 897.603 600.294C897.052 600.874 896.776 601.636 896.776 602.579C896.776 603.511 897.034 604.246 897.55 604.785C898.071 605.324 898.769 605.594 899.642 605.594C900.374 605.594 901.065 605.333 901.716 604.812V606.587ZM911.744 607H909.705V602.078C909.705 600.297 909.11 599.406 907.921 599.406C907.323 599.406 906.819 599.664 906.409 600.18C905.999 600.695 905.794 601.354 905.794 602.157V607H903.746V593.676H905.794V599.494H905.829C906.509 598.357 907.481 597.789 908.747 597.789C910.745 597.789 911.744 599.011 911.744 601.454V607ZM915.251 596.11C914.917 596.11 914.63 596.002 914.39 595.785C914.155 595.568 914.038 595.293 914.038 594.959C914.038 594.625 914.155 594.347 914.39 594.124C914.63 593.901 914.917 593.79 915.251 593.79C915.597 593.79 915.89 593.901 916.13 594.124C916.37 594.347 916.49 594.625 916.49 594.959C916.49 595.275 916.37 595.548 916.13 595.776C915.89 595.999 915.597 596.11 915.251 596.11ZM916.262 607H914.223V598H916.262V607ZM926.949 607H924.91V601.929C924.91 600.247 924.315 599.406 923.126 599.406C922.505 599.406 921.992 599.641 921.588 600.109C921.184 600.572 920.981 601.158 920.981 601.867V607H918.934V598H920.981V599.494H921.017C921.69 598.357 922.663 597.789 923.935 597.789C924.913 597.789 925.66 598.108 926.176 598.747C926.691 599.38 926.949 600.297 926.949 601.498V607ZM935.888 606.587C935.167 607.003 934.314 607.211 933.33 607.211C931.994 607.211 930.916 606.795 930.096 605.963C929.275 605.125 928.865 604.041 928.865 602.711C928.865 601.229 929.305 600.039 930.184 599.143C931.068 598.24 932.249 597.789 933.726 597.789C934.546 597.789 935.27 597.933 935.896 598.22V600.118C935.27 599.649 934.602 599.415 933.893 599.415C933.031 599.415 932.325 599.708 931.774 600.294C931.224 600.874 930.948 601.636 930.948 602.579C930.948 603.511 931.206 604.246 931.722 604.785C932.243 605.324 932.94 605.594 933.813 605.594C934.546 605.594 935.237 605.333 935.888 604.812V606.587ZM944.826 607H942.849V605.594H942.813C942.192 606.672 941.281 607.211 940.08 607.211C939.195 607.211 938.501 606.971 937.997 606.49C937.499 606.01 937.25 605.374 937.25 604.583C937.25 602.884 938.229 601.894 940.186 601.612L942.857 601.234C942.857 599.951 942.248 599.31 941.029 599.31C939.957 599.31 938.99 599.679 938.129 600.417V598.633C939.078 598.07 940.174 597.789 941.416 597.789C943.689 597.789 944.826 598.908 944.826 601.146V607ZM942.857 602.579L940.968 602.843C940.382 602.919 939.939 603.062 939.641 603.273C939.348 603.479 939.201 603.842 939.201 604.363C939.201 604.744 939.336 605.058 939.605 605.304C939.881 605.544 940.247 605.664 940.704 605.664C941.325 605.664 941.838 605.447 942.242 605.014C942.652 604.574 942.857 604.023 942.857 603.361V602.579ZM949.37 607H947.322V593.676H949.37V607ZM966.008 606.473C965.059 606.965 963.878 607.211 962.466 607.211C960.638 607.211 959.173 606.634 958.071 605.479C956.97 604.325 956.419 602.811 956.419 600.936C956.419 598.92 957.037 597.291 958.273 596.049C959.516 594.807 961.083 594.186 962.976 594.186C964.194 594.186 965.205 594.358 966.008 594.704V596.778C965.158 596.274 964.221 596.022 963.195 596.022C961.83 596.022 960.723 596.459 959.873 597.332C959.029 598.205 958.607 599.371 958.607 600.83C958.607 602.219 959.003 603.326 959.794 604.152C960.585 604.973 961.625 605.383 962.914 605.383C964.104 605.383 965.135 605.102 966.008 604.539V606.473ZM972.16 607.211C970.771 607.211 969.661 606.792 968.829 605.954C968.003 605.11 967.59 603.994 967.59 602.605C967.59 601.094 968.021 599.913 968.882 599.063C969.749 598.214 970.915 597.789 972.38 597.789C973.786 597.789 974.882 598.202 975.667 599.028C976.452 599.854 976.845 601 976.845 602.465C976.845 603.9 976.42 605.052 975.57 605.919C974.727 606.78 973.59 607.211 972.16 607.211ZM972.257 599.415C971.46 599.415 970.83 599.693 970.367 600.25C969.904 600.807 969.673 601.574 969.673 602.553C969.673 603.496 969.907 604.24 970.376 604.785C970.845 605.324 971.472 605.594 972.257 605.594C973.06 605.594 973.675 605.327 974.103 604.794C974.536 604.261 974.753 603.502 974.753 602.518C974.753 601.527 974.536 600.763 974.103 600.224C973.675 599.685 973.06 599.415 972.257 599.415ZM992.384 607H990.345V602.096C990.345 601.152 990.21 600.47 989.94 600.048C989.677 599.626 989.229 599.415 988.596 599.415C988.062 599.415 987.608 599.682 987.233 600.215C986.864 600.748 986.68 601.387 986.68 602.131V607H984.632V601.929C984.632 600.253 984.04 599.415 982.856 599.415C982.306 599.415 981.852 599.667 981.494 600.171C981.143 600.675 980.967 601.328 980.967 602.131V607H978.928V598H980.967V599.424H981.002C981.652 598.334 982.599 597.789 983.841 597.789C984.462 597.789 985.004 597.962 985.467 598.308C985.936 598.647 986.255 599.096 986.425 599.652C987.093 598.41 988.089 597.789 989.413 597.789C991.394 597.789 992.384 599.011 992.384 601.454V607ZM1008.33 607H1006.29V602.096C1006.29 601.152 1006.15 600.47 1005.88 600.048C1005.62 599.626 1005.17 599.415 1004.54 599.415C1004.01 599.415 1003.55 599.682 1003.18 600.215C1002.81 600.748 1002.62 601.387 1002.62 602.131V607H1000.58V601.929C1000.58 600.253 999.983 599.415 998.8 599.415C998.249 599.415 997.795 599.667 997.438 600.171C997.086 600.675 996.91 601.328 996.91 602.131V607H994.871V598H996.91V599.424H996.945C997.596 598.334 998.542 597.789 999.784 597.789C1000.41 597.789 1000.95 597.962 1001.41 598.308C1001.88 598.647 1002.2 599.096 1002.37 599.652C1003.04 598.41 1004.03 597.789 1005.36 597.789C1007.34 597.789 1008.33 599.011 1008.33 601.454V607ZM1018.66 607H1016.62V605.576H1016.59C1016 606.666 1015.08 607.211 1013.83 607.211C1011.7 607.211 1010.64 605.934 1010.64 603.379V598H1012.68V603.168C1012.68 604.785 1013.3 605.594 1014.55 605.594C1015.15 605.594 1015.65 605.371 1016.04 604.926C1016.43 604.48 1016.62 603.897 1016.62 603.177V598H1018.66V607ZM1029.34 607H1027.3V601.929C1027.3 600.247 1026.71 599.406 1025.52 599.406C1024.9 599.406 1024.38 599.641 1023.98 600.109C1023.58 600.572 1023.37 601.158 1023.37 601.867V607H1021.33V598H1023.37V599.494H1023.41C1024.08 598.357 1025.06 597.789 1026.33 597.789C1027.31 597.789 1028.05 598.108 1028.57 598.747C1029.08 599.38 1029.34 600.297 1029.34 601.498V607ZM1032.87 596.11C1032.53 596.11 1032.25 596.002 1032 595.785C1031.77 595.568 1031.65 595.293 1031.65 594.959C1031.65 594.625 1031.77 594.347 1032 594.124C1032.25 593.901 1032.53 593.79 1032.87 593.79C1033.21 593.79 1033.5 593.901 1033.75 594.124C1033.99 594.347 1034.11 594.625 1034.11 594.959C1034.11 595.275 1033.99 595.548 1033.75 595.776C1033.5 595.999 1033.21 596.11 1032.87 596.11ZM1033.88 607H1031.84V598H1033.88V607ZM1041.29 606.903C1040.9 607.103 1040.37 607.202 1039.72 607.202C1037.98 607.202 1037.1 606.364 1037.1 604.688V599.6H1035.6V598H1037.1V595.917L1039.14 595.337V598H1041.29V599.6H1039.14V604.1C1039.14 604.633 1039.24 605.014 1039.43 605.242C1039.62 605.471 1039.95 605.585 1040.4 605.585C1040.74 605.585 1041.04 605.485 1041.29 605.286V606.903ZM1050.85 598L1046.79 608.441C1045.94 610.305 1044.76 611.236 1043.24 611.236C1042.81 611.236 1042.45 611.198 1042.17 611.122V609.426C1042.49 609.531 1042.78 609.584 1043.04 609.584C1043.81 609.584 1044.37 609.209 1044.75 608.459L1045.36 606.982L1041.78 598H1044.04L1046.18 604.539C1046.21 604.621 1046.26 604.838 1046.34 605.189H1046.38C1046.41 605.055 1046.47 604.844 1046.54 604.557L1048.79 598H1050.85ZM949.036 631V618.396H953.035C954.254 618.396 955.218 618.663 955.927 619.196C956.642 619.729 956.999 620.424 956.999 621.279C956.999 621.994 956.797 622.615 956.393 623.143C955.988 623.67 955.429 624.045 954.714 624.268V624.303C955.581 624.402 956.272 624.725 956.788 625.27C957.31 625.809 957.57 626.512 957.57 627.379C957.57 628.457 957.146 629.33 956.296 629.998C955.446 630.666 954.374 631 953.079 631H949.036ZM951.119 620.075V623.661H952.473C953.199 623.661 953.768 623.491 954.178 623.151C954.594 622.806 954.802 622.319 954.802 621.692C954.802 620.614 954.081 620.075 952.64 620.075H951.119ZM951.119 625.34V629.33H952.903C953.683 629.33 954.283 629.151 954.705 628.794C955.133 628.431 955.347 627.933 955.347 627.3C955.347 625.993 954.441 625.34 952.631 625.34H951.119ZM967.484 622L963.424 632.441C962.58 634.305 961.396 635.236 959.873 635.236C959.445 635.236 959.088 635.198 958.801 635.122V633.426C959.123 633.531 959.416 633.584 959.68 633.584C960.441 633.584 961.01 633.209 961.385 632.459L961.991 630.982L958.414 622H960.673L962.817 628.539C962.841 628.621 962.894 628.838 962.976 629.189H963.02C963.049 629.055 963.102 628.844 963.178 628.557L965.428 622H967.484Z"/></svg>