<svg width="493" height="223" viewBox="0 0 493 223" fill="none" xmlns="http://www.w3.org/2000/svg">
<path d="M195.703 13.8672H175.586V74.0234H163.965V13.8672H143.897V4.0039H195.703V13.8672ZM237.256 52.0996H203.174C203.304 56.722 204.72 60.2864 207.422 62.7929C210.156 65.2994 213.9 66.5524 218.652 66.5524C223.991 66.5524 228.89 64.9576 233.35 61.7675V70.8984C228.792 73.7634 222.77 75.1954 215.283 75.1954C207.926 75.1954 202.148 72.9334 197.949 68.4084C193.783 63.8509 191.699 57.4544 191.699 49.2187C191.699 41.4388 193.994 35.1074 198.584 30.2246C203.206 25.3092 208.936 22.8515 215.772 22.8515C222.607 22.8515 227.897 25.0488 231.641 29.4433C235.384 33.8379 237.256 39.9414 237.256 47.7539V52.0996ZM226.318 44.0918C226.286 40.0227 225.326 36.8652 223.438 34.6191C221.55 32.3405 218.945 31.2011 215.625 31.2011C212.37 31.2011 209.603 32.3893 207.324 34.7656C205.078 37.1419 203.695 40.2506 203.174 44.0918H226.318ZM283.838 71.7284C279.834 74.0394 275.098 75.1954 269.629 75.1954C262.207 75.1954 256.217 72.8844 251.66 68.2614C247.103 63.6067 244.824 57.5846 244.824 50.1953C244.824 41.9596 247.266 35.3515 252.148 30.3711C257.064 25.358 263.623 22.8515 271.826 22.8515C276.383 22.8515 280.404 23.6491 283.887 25.2441V35.791C280.404 33.1868 276.693 31.8847 272.754 31.8847C267.969 31.8847 264.046 33.5123 260.986 36.7675C257.926 39.9902 256.397 44.222 256.397 49.4629C256.397 54.6386 257.829 58.7239 260.693 61.7187C263.591 64.7135 267.464 66.2114 272.314 66.2114C276.383 66.2114 280.225 64.7623 283.838 61.8652V71.7284ZM339.551 74.0234H328.223V46.6796C328.223 36.7838 324.919 31.8359 318.311 31.8359C314.99 31.8359 312.191 33.2682 309.912 36.1328C307.633 38.9974 306.494 42.6595 306.494 47.1191V74.0234H295.117V0H306.494V32.3242H306.689C310.466 26.0091 315.869 22.8515 322.9 22.8515C334.001 22.8515 339.551 29.6386 339.551 43.2129V74.0234ZM11.5723 181.632V207.023H0V137.003H21.2403C29.2806 137.003 35.5144 138.875 39.9414 142.619C44.3685 146.362 46.5821 151.636 46.5821 158.439C46.5821 165.242 44.2709 170.809 39.6485 175.138C35.0261 179.468 28.7761 181.632 20.8985 181.632H11.5723ZM11.5723 146.574V172.16H19.0918C24.0723 172.16 27.8646 171.004 30.4688 168.693C33.0729 166.382 34.375 163.127 34.375 158.927C34.375 150.692 29.5899 146.574 20.0196 146.574H11.5723ZM101.66 207.023H90.3321V179.679C90.3321 169.783 87.028 164.835 80.42 164.835C77.0996 164.835 74.3002 166.268 72.0215 169.132C69.7429 171.997 68.6035 175.659 68.6035 180.119V207.023H57.2266V133H68.6035V165.324H68.7989C72.5749 159.009 77.9785 155.851 85.0098 155.851C96.11 155.851 101.66 162.638 101.66 176.212V207.023ZM153.809 207.023H142.822V199.211H142.627C139.176 205.2 134.115 208.195 127.441 208.195C122.526 208.195 118.669 206.86 115.869 204.191C113.102 201.522 111.719 197.99 111.719 193.595C111.719 184.155 117.155 178.654 128.027 177.091L142.871 174.992C142.871 167.863 139.486 164.298 132.715 164.298C126.758 164.298 121.387 166.349 116.602 170.451V160.539C121.875 157.414 127.962 155.851 134.863 155.851C147.494 155.851 153.809 162.069 153.809 174.503V207.023ZM142.871 182.462L132.373 183.927C129.118 184.35 126.66 185.148 125 186.32C123.372 187.459 122.559 189.477 122.559 192.375C122.559 194.49 123.307 196.232 124.805 197.599C126.335 198.934 128.369 199.601 130.908 199.601C134.359 199.601 137.207 198.397 139.453 195.988C141.732 193.546 142.871 190.487 142.871 186.808V182.462ZM212.207 207.023H200.879V178.849C200.879 169.507 197.575 164.835 190.967 164.835C187.516 164.835 184.668 166.138 182.422 168.742C180.176 171.313 179.053 174.569 179.053 178.507V207.023H167.676V157.023H179.053V165.324H179.248C182.992 159.009 188.395 155.851 195.459 155.851C200.895 155.851 205.046 157.625 207.91 161.173C210.775 164.689 212.207 169.783 212.207 176.457V207.023ZM252.441 206.486C250.228 207.593 247.314 208.146 243.701 208.146C234.001 208.146 229.15 203.491 229.15 194.181V165.91H220.801V157.023H229.15V145.451L240.479 142.228V157.023H252.441V165.91H240.479V190.91C240.479 193.872 241.016 195.988 242.09 197.257C243.164 198.527 244.954 199.162 247.461 199.162C249.382 199.162 251.042 198.608 252.441 197.502V206.486ZM447.119 207.023H435.791V179.777C435.791 174.536 435.042 170.744 433.545 168.4C432.08 166.056 429.59 164.884 426.074 164.884C423.112 164.884 420.589 166.365 418.506 169.328C416.455 172.29 415.43 175.838 415.43 179.972V207.023H404.053V178.849C404.053 169.539 400.765 164.884 394.189 164.884C391.13 164.884 388.607 166.284 386.621 169.084C384.668 171.883 383.691 175.513 383.691 179.972V207.023H372.363V157.023H383.691V164.933H383.887C387.5 158.878 392.757 155.851 399.658 155.851C403.109 155.851 406.12 156.811 408.691 158.732C411.296 160.62 413.07 163.11 414.014 166.203C417.725 159.302 423.258 155.851 430.615 155.851C441.618 155.851 447.119 162.638 447.119 176.212V207.023ZM457.813 205.461V194.962C462.044 198.185 466.716 199.796 471.826 199.796C478.662 199.796 482.08 197.778 482.08 193.742C482.08 192.602 481.787 191.642 481.201 190.861C480.615 190.047 479.818 189.331 478.809 188.712C477.832 188.094 476.66 187.541 475.293 187.052C473.958 186.564 472.461 186.011 470.801 185.392C468.75 184.578 466.895 183.716 465.234 182.804C463.607 181.893 462.24 180.867 461.133 179.728C460.059 178.556 459.245 177.238 458.691 175.773C458.138 174.308 457.861 172.599 457.861 170.646C457.861 168.237 458.431 166.121 459.57 164.298C460.71 162.443 462.24 160.897 464.16 159.66C466.081 158.39 468.262 157.446 470.703 156.828C473.145 156.177 475.667 155.851 478.272 155.851C482.894 155.851 487.028 156.551 490.674 157.951V167.863C487.158 165.454 483.122 164.25 478.564 164.25C477.132 164.25 475.83 164.396 474.658 164.689C473.519 164.982 472.542 165.389 471.729 165.91C470.915 166.431 470.28 167.065 469.824 167.814C469.369 168.53 469.141 169.328 469.141 170.207C469.141 171.281 469.369 172.192 469.824 172.941C470.28 173.69 470.947 174.357 471.826 174.943C472.738 175.496 473.812 176.017 475.049 176.505C476.318 176.961 477.767 177.466 479.395 178.019C481.543 178.898 483.464 179.793 485.156 180.705C486.882 181.616 488.346 182.658 489.551 183.83C490.755 184.969 491.683 186.304 492.334 187.834C492.985 189.331 493.311 191.121 493.311 193.205C493.311 195.744 492.725 197.957 491.553 199.845C490.381 201.733 488.818 203.296 486.865 204.533C484.912 205.77 482.65 206.681 480.078 207.267C477.539 207.886 474.854 208.195 472.022 208.195C466.553 208.195 461.816 207.283 457.813 205.461Z" fill="#FEC761"/>
<path d="M308 223C327.882 223 344 205.987 344 185C344 164.013 327.882 147 308 147C288.118 147 272 164.013 272 185C272 205.987 288.118 223 308 223Z" fill="#FEC761"/>
<path fill-rule="evenodd" clip-rule="evenodd" d="M292.854 197.577C294.895 197.577 296.549 196.087 296.549 194.249C296.549 192.411 294.895 190.92 292.854 190.92C290.814 190.92 289.16 192.411 289.16 194.249C289.16 196.087 290.814 197.577 292.854 197.577ZM292.854 196.165C294.029 196.165 294.981 195.307 294.981 194.249C294.981 193.19 294.029 192.332 292.854 192.332C291.679 192.332 290.727 193.19 290.727 194.249C290.727 195.307 291.679 196.165 292.854 196.165Z" fill="black"/>
<path d="M292.358 191.491C294.564 182.719 285.682 174.64 292.358 167.504C300.21 159.11 315.546 159.11 323.398 167.504C330.074 174.64 319.971 182.469 323.398 191.491" stroke="black" stroke-width="4"/>
<path fill-rule="evenodd" clip-rule="evenodd" d="M322.882 197.577C324.922 197.577 326.577 196.087 326.577 194.249C326.577 192.411 324.922 190.92 322.882 190.92C320.842 190.92 319.188 192.411 319.188 194.249C319.188 196.087 320.842 197.577 322.882 197.577ZM322.882 196.165C324.057 196.165 325.009 195.307 325.009 194.249C325.009 193.19 324.057 192.332 322.882 192.332C321.707 192.332 320.755 193.19 320.755 194.249C320.755 195.307 321.707 196.165 322.882 196.165Z" fill="black"/>
<path fill-rule="evenodd" clip-rule="evenodd" d="M300.243 181.974C302.284 181.974 303.938 180.484 303.938 178.646C303.938 176.808 302.284 175.318 300.243 175.318C298.203 175.318 296.549 176.808 296.549 178.646C296.549 180.484 298.203 181.974 300.243 181.974ZM300.243 180.562C301.418 180.562 302.37 179.704 302.37 178.646C302.37 177.587 301.418 176.73 300.243 176.73C299.068 176.73 298.116 177.587 298.116 178.646C298.116 179.704 299.068 180.562 300.243 180.562Z" fill="black"/>
<path fill-rule="evenodd" clip-rule="evenodd" d="M315.493 181.974C317.533 181.974 319.188 180.484 319.188 178.646C319.188 176.808 317.533 175.318 315.493 175.318C313.453 175.318 311.798 176.808 311.798 178.646C311.798 180.484 313.453 181.974 315.493 181.974ZM315.493 180.562C316.668 180.562 317.62 179.704 317.62 178.646C317.62 177.587 316.668 176.73 315.493 176.73C314.318 176.73 313.366 177.587 313.366 178.646C313.366 179.704 314.318 180.562 315.493 180.562Z" fill="black"/>
<path fill-rule="evenodd" clip-rule="evenodd" d="M308.068 207.973C310.108 207.973 311.763 206.482 311.763 204.644C311.763 202.806 310.108 201.316 308.068 201.316C306.028 201.316 304.373 202.806 304.373 204.644C304.373 206.482 306.028 207.973 308.068 207.973ZM308.068 206.561C309.243 206.561 310.195 205.703 310.195 204.644C310.195 203.586 309.243 202.728 308.068 202.728C306.893 202.728 305.941 203.586 305.941 204.644C305.941 205.703 306.893 206.561 308.068 206.561Z" fill="black"/>
<path d="M307.967 187.318L313.883 181.182M307.967 187.318V202.122V187.318ZM307.967 187.318L302.207 181.182L307.967 187.318Z" stroke="black" stroke-width="4"/>
</svg>
