<svg width="40" height="40" fill="none" xmlns="http://www.w3.org/2000/svg"><path d="M23.19 24.3c-.267.065-.536.123-.807.173-1.467.277-2.974.27-4.44-.016-.256-.05-.62-.139-1.088-.264l-1.535 1.995c-3.788-.121-5.228-2.66-5.228-2.66 0-5.635 2.468-10.203 2.468-10.203 2.468-1.888 4.817-1.837 4.817-1.837l.671.875c.062-.008.125-.014.187-.016 1.28-.17 2.578-.165 3.857.016l.736-.875s2.35-.051 4.817 1.839c0 0 2.47 4.566 2.47 10.201 0 0-1.458 2.537-5.247 2.66l-1.678-1.89v.002Zm-6.397-5.967c-1.001 0-1.793.75-1.793 1.667s.808 1.667 1.793 1.667c1 0 1.792-.75 1.792-1.667.017-.917-.79-1.667-1.792-1.667Zm6.414 0c-1 0-1.792.75-1.792 1.667s.808 1.667 1.792 1.667c1.001 0 1.793-.75 1.793-1.667s-.792-1.667-1.793-1.667Zm11.793 20L26.683 30h4.984V6.667H8.333V30h18.339l.95 3.333H8.333A3.333 3.333 0 0 1 5 30V6.667a3.333 3.333 0 0 1 3.333-3.334h23.334A3.333 3.333 0 0 1 35 6.667v31.666Z" fill="#4A51FF"/></svg>
