<svg xmlns="http://www.w3.org/2000/svg" width="47.87" height="46.699" viewBox="0 0 47.87 46.699"><g id="_25231" data-name="25231" transform="translate(0 -5.365)"><path id="Path_26" fill="#fff" d="M44.66,17.286a23.831,23.831,0,0,0-8.711-8.711,23.411,23.411,0,0,0-12.014-3.21,23.414,23.414,0,0,0-12.014,3.21A23.828,23.828,0,0,0,3.21,17.286,23.413,23.413,0,0,0,0,29.3,23.261,23.261,0,0,0,4.566,43.37a23.442,23.442,0,0,0,11.8,8.648,1.4,1.4,0,0,0,1.246-.218,1.219,1.219,0,0,0,.405-.935q0-.093-.016-1.683t-.016-2.773l-.717.124a9.144,9.144,0,0,1-1.73.109,13.178,13.178,0,0,1-2.166-.218,4.84,4.84,0,0,1-2.088-.934A3.954,3.954,0,0,1,9.91,43.574L9.6,42.857a7.787,7.787,0,0,0-.982-1.589,3.761,3.761,0,0,0-1.356-1.184l-.218-.156a2.288,2.288,0,0,1-.405-.374,1.71,1.71,0,0,1-.28-.436q-.094-.219.156-.359a2.021,2.021,0,0,1,.9-.139l.623.093a4.549,4.549,0,0,1,1.543.748,5.03,5.03,0,0,1,1.511,1.62,5.494,5.494,0,0,0,1.73,1.948,3.669,3.669,0,0,0,2.041.67,8.863,8.863,0,0,0,1.776-.155,6.2,6.2,0,0,0,1.4-.468,5.05,5.05,0,0,1,1.527-3.21,21.339,21.339,0,0,1-3.194-.561,12.719,12.719,0,0,1-2.929-1.216A8.39,8.39,0,0,1,10.938,36,10.034,10.034,0,0,1,9.3,32.727a15.561,15.561,0,0,1-.639-4.675,9.09,9.09,0,0,1,2.462-6.42,8.378,8.378,0,0,1,.218-6.357,4.367,4.367,0,0,1,2.68.421,18.739,18.739,0,0,1,2.6,1.2q.826.5,1.325.841a22.508,22.508,0,0,1,11.968,0l1.184-.748a16.772,16.772,0,0,1,2.867-1.372,4.084,4.084,0,0,1,2.525-.343,8.3,8.3,0,0,1,.249,6.357,9.092,9.092,0,0,1,2.462,6.42,15.735,15.735,0,0,1-.639,4.69,9.645,9.645,0,0,1-1.651,3.272,8.713,8.713,0,0,1-2.525,2.072,12.743,12.743,0,0,1-2.93,1.216,21.317,21.317,0,0,1-3.194.562,5.551,5.551,0,0,1,1.62,4.425v6.575a1.241,1.241,0,0,0,.39.935,1.354,1.354,0,0,0,1.231.218,23.439,23.439,0,0,0,11.8-8.648A23.266,23.266,0,0,0,47.87,29.3,23.432,23.432,0,0,0,44.66,17.286Z" data-name="Path 26"/></g></svg>