<svg width="1440" height="1024" viewBox="0 0 1440 1024" fill="none" xmlns="http://www.w3.org/2000/svg">
<rect width="1440" height="1024" fill="#F7F7F7"/>
<g clip-path="url(#clip0)">
<path d="M486.275 649.019C500.518 631.761 510.602 611.436 515.745 589.626C518.286 578.821 519.558 567.755 519.534 556.653H209.465C209.458 567.468 210.694 578.249 213.148 588.78C218.291 611.276 228.64 632.239 243.356 649.97C258.149 667.75 276.691 682.008 297.643 691.713C318.594 701.418 341.432 706.328 364.504 706.087C413.969 705.981 457.963 683.788 486.275 649.019ZM574.37 412.711C580.944 433.926 584.279 456.018 584.263 478.235V721.94C584.259 732.706 580.369 743.105 573.313 751.211C566.257 759.317 556.514 764.58 545.89 766.025C535.265 767.47 524.479 764.999 515.53 759.069C506.581 753.139 500.076 744.154 497.221 733.777C496.409 730.448 494.524 727.482 491.859 725.341C489.193 723.2 485.898 722.004 482.485 721.94H480.485C477.072 722.004 473.776 723.2 471.111 725.341C468.445 727.482 466.56 730.448 465.749 733.777C463.164 743.164 457.585 751.441 449.867 757.339C442.148 763.237 432.716 766.431 423.017 766.431C413.317 766.431 403.885 763.237 396.167 757.339C388.449 751.441 382.869 743.164 380.285 733.777C379.473 730.448 377.588 727.482 374.923 725.341C372.257 723.2 368.962 722.004 365.549 721.94H363.447C360.034 722.004 356.738 723.2 354.073 725.341C351.407 727.482 349.522 730.448 348.711 733.777C346.126 743.164 340.547 751.441 332.829 757.339C325.11 763.237 315.678 766.431 305.979 766.431C296.279 766.431 286.847 763.237 279.129 757.339C271.41 751.441 265.831 743.164 263.247 733.777C262.435 730.448 260.55 727.482 257.885 725.341C255.219 723.2 251.924 722.004 248.511 721.94H246.511C243.098 722.004 239.802 723.2 237.137 725.341C234.471 727.482 232.586 730.448 231.775 733.777C228.919 744.154 222.414 753.139 213.466 759.069C204.517 764.999 193.731 767.47 183.106 766.025C172.481 764.58 162.738 759.317 155.682 751.211C148.627 743.105 144.736 732.706 144.732 721.94V478.125C144.718 455.909 148.054 433.819 154.628 412.606L166.522 416.093C163.812 425.072 162.428 434.401 162.416 443.783C162.416 468.504 172.196 492.213 189.606 509.694C207.015 527.175 230.627 536.995 255.247 536.995C279.868 536.995 303.48 527.175 320.889 509.694C338.298 492.213 348.079 468.504 348.079 443.783H380.815C380.815 456.024 383.216 468.145 387.881 479.454C392.546 490.763 399.384 501.038 408.004 509.694C416.625 518.35 426.858 525.215 438.121 529.9C449.384 534.584 461.455 536.995 473.646 536.995C485.837 536.995 497.908 534.584 509.171 529.9C520.434 525.215 530.668 518.35 539.288 509.694C547.908 501.038 554.746 490.763 559.411 479.454C564.076 468.145 566.477 456.024 566.477 443.783C566.473 434.401 565.09 425.07 562.373 416.093L574.37 412.711Z" fill="#ED654B"/>
<path d="M574.375 412.711L562.482 416.199C555.872 394.914 541.887 376.712 523.062 364.89C504.236 353.068 481.816 348.409 459.863 351.757C437.911 355.105 417.88 366.239 403.399 383.14C388.919 400.042 380.948 421.593 380.93 443.889H348.194C348.19 421.584 340.226 400.02 325.745 383.107C311.264 366.193 291.225 355.051 269.264 351.701C247.303 348.351 224.873 353.015 206.043 364.847C187.213 376.678 173.229 394.895 166.628 416.191L154.735 412.704C168.654 367.756 196.525 328.456 234.275 300.547C272.025 272.639 317.675 257.585 364.553 257.585C411.432 257.585 457.082 272.639 494.831 300.547C532.581 328.456 560.452 367.756 574.372 412.704L574.375 412.711Z" fill="#ED654B"/>
<path d="M562.372 416.199C565.082 425.178 566.465 434.507 566.478 443.889C566.396 467.307 557.508 489.831 541.592 506.949C525.675 524.067 503.907 534.517 480.644 536.205C457.382 537.893 434.343 530.696 416.14 516.054C397.938 501.412 385.916 480.406 382.482 457.242C379.047 434.079 384.454 410.467 397.619 391.136C410.784 371.805 430.736 358.181 453.479 352.992C476.223 347.803 500.079 351.432 520.271 363.152C540.463 374.873 555.5 393.82 562.372 416.199ZM521.324 443.887C521.324 434.439 518.534 425.203 513.306 417.348C508.079 409.492 500.649 403.369 491.956 399.754C483.263 396.138 473.697 395.192 464.469 397.036C455.24 398.879 446.763 403.428 440.11 410.109C433.456 416.79 428.925 425.301 427.09 434.568C425.254 443.834 426.196 453.439 429.797 462.168C433.398 470.896 439.496 478.357 447.319 483.606C455.143 488.855 464.341 491.656 473.75 491.656C479.999 491.663 486.188 490.432 491.963 488.034C497.738 485.635 502.985 482.117 507.404 477.68C511.823 473.243 515.327 467.974 517.716 462.175C520.104 456.377 521.331 450.162 521.324 443.887Z" fill="#FEC758"/>
<path d="M209.465 556.546H519.534C519.564 567.648 518.292 578.715 515.745 589.519L511.957 588.673H213.144C210.685 578.143 209.45 567.361 209.465 556.546Z" fill="white"/>
<path d="M483.222 410.492C486.99 410.492 490.673 411.614 493.806 413.716C496.939 415.817 499.38 418.805 500.822 422.3C502.264 425.795 502.641 429.641 501.906 433.352C501.171 437.062 499.357 440.471 496.693 443.146C494.028 445.821 490.634 447.643 486.939 448.381C483.243 449.119 479.413 448.74 475.932 447.292C472.451 445.845 469.476 443.393 467.383 440.247C465.289 437.102 464.172 433.403 464.172 429.62C464.172 427.108 464.664 424.62 465.621 422.299C466.578 419.978 467.981 417.869 469.75 416.093C471.52 414.317 473.62 412.908 475.931 411.947C478.243 410.986 480.72 410.491 483.222 410.492Z" fill="white"/>
<path d="M449.963 453.398C451.832 453.419 453.653 453.995 455.197 455.052C456.741 456.11 457.939 457.603 458.64 459.342C459.34 461.082 459.513 462.991 459.136 464.829C458.759 466.667 457.848 468.352 456.519 469.672C455.191 470.991 453.503 471.887 451.668 472.245C449.833 472.604 447.934 472.409 446.21 471.687C444.485 470.964 443.012 469.745 441.975 468.183C440.939 466.621 440.386 464.786 440.386 462.91C440.417 460.379 441.439 457.962 443.232 456.182C445.024 454.402 447.442 453.402 449.963 453.398Z" fill="white"/>
<path d="M255.249 350.675C273.609 350.675 291.557 356.142 306.823 366.384C322.089 376.626 333.988 391.184 341.014 408.216C348.04 425.249 349.878 443.99 346.296 462.072C342.714 480.153 333.873 496.762 320.89 509.798C307.908 522.834 291.367 531.712 273.359 535.308C255.352 538.905 236.686 537.059 219.724 530.004C202.761 522.949 188.263 511.002 178.062 495.673C167.862 480.344 162.417 462.323 162.417 443.887C162.422 434.505 163.806 425.174 166.523 416.197C172.429 397.208 184.222 380.61 200.182 368.823C216.143 357.037 235.436 350.678 255.249 350.675ZM302.823 443.887C302.823 434.439 300.033 425.203 294.805 417.348C289.578 409.492 282.148 403.369 273.455 399.754C264.762 396.138 255.196 395.192 245.968 397.036C236.739 398.879 228.262 403.428 221.609 410.109C214.955 416.79 210.424 425.301 208.589 434.568C206.753 443.834 207.695 453.439 211.296 462.168C214.897 470.896 220.994 478.357 228.818 483.606C236.642 488.855 245.839 491.656 255.249 491.656C261.498 491.663 267.687 490.432 273.462 488.034C279.237 485.635 284.484 482.117 288.903 477.68C293.322 473.243 296.826 467.974 299.215 462.175C301.603 456.377 302.829 450.162 302.823 443.887Z" fill="#FEC758"/>
<path d="M264.826 410.492C268.594 410.492 272.277 411.614 275.41 413.715C278.543 415.817 280.985 418.805 282.426 422.3C283.868 425.795 284.246 429.641 283.51 433.352C282.775 437.062 280.961 440.471 278.297 443.146C275.633 445.821 272.238 447.643 268.543 448.381C264.848 449.119 261.017 448.74 257.536 447.292C254.055 445.845 251.08 443.393 248.987 440.247C246.894 437.102 245.776 433.403 245.776 429.62C245.776 427.108 246.268 424.62 247.225 422.299C248.182 419.978 249.586 417.869 251.355 416.093C253.124 414.317 255.224 412.908 257.536 411.947C259.847 410.986 262.325 410.491 264.826 410.492Z" fill="white"/>
<path d="M254.828 662.228C250.789 658.313 246.959 654.185 243.356 649.863L244.303 649.017H251.25C282.838 649.005 314.222 654.108 344.192 664.13L364.505 670.894L381.767 665.082C413.701 654.394 447.14 648.934 480.802 648.912H486.275C472.291 665.574 455.069 679.196 435.663 688.946C416.256 698.695 395.072 704.366 373.407 705.613C351.743 706.859 330.052 703.654 309.663 696.195C289.275 688.735 270.616 677.177 254.828 662.228Z" fill="#7FB8E3"/>
<path d="M231.568 453.398C233.436 453.419 235.257 453.995 236.801 455.052C238.345 456.11 239.543 457.603 240.244 459.342C240.945 461.082 241.117 462.991 240.74 464.829C240.363 466.667 239.452 468.352 238.123 469.672C236.795 470.991 235.107 471.887 233.272 472.245C231.438 472.604 229.538 472.409 227.814 471.687C226.089 470.964 224.616 469.745 223.579 468.183C222.543 466.621 221.99 464.786 221.99 462.91C221.985 461.65 222.229 460.402 222.71 459.239C223.191 458.076 223.898 457.02 224.79 456.135C225.682 455.249 226.74 454.551 227.904 454.081C229.068 453.611 230.313 453.379 231.568 453.398Z" fill="white"/>
<path d="M473.751 396.119C464.342 396.119 455.144 398.921 447.32 404.17C439.497 409.419 433.399 416.879 429.798 425.608C426.198 434.337 425.255 443.942 427.091 453.208C428.927 462.474 433.458 470.986 440.111 477.667C446.765 484.347 455.241 488.897 464.47 490.74C473.698 492.583 483.264 491.637 491.957 488.022C500.65 484.406 508.08 478.283 513.308 470.428C518.535 462.572 521.325 453.336 521.325 443.889C521.332 437.614 520.106 431.399 517.717 425.6C515.329 419.802 511.825 414.533 507.406 410.096C502.987 405.659 497.74 402.14 491.965 399.742C486.19 397.344 480.001 396.113 473.751 396.119ZM449.965 472.528C448.091 472.528 446.26 471.97 444.702 470.925C443.144 469.88 441.93 468.395 441.213 466.657C440.496 464.919 440.309 463.006 440.674 461.161C441.04 459.316 441.942 457.622 443.267 456.291C444.592 454.961 446.279 454.055 448.117 453.688C449.954 453.321 451.859 453.51 453.59 454.23C455.321 454.949 456.8 456.168 457.841 457.733C458.882 459.297 459.437 461.136 459.437 463.017C459.424 465.536 458.421 467.947 456.648 469.728C454.874 471.509 452.472 472.515 449.963 472.528H449.965ZM483.224 448.644C479.456 448.644 475.773 447.522 472.64 445.421C469.507 443.319 467.066 440.331 465.624 436.836C464.182 433.341 463.805 429.495 464.54 425.784C465.275 422.074 467.089 418.665 469.753 415.99C472.417 413.315 475.812 411.493 479.507 410.755C483.203 410.017 487.033 410.396 490.514 411.844C493.995 413.292 496.97 415.743 499.063 418.889C501.157 422.035 502.274 425.733 502.274 429.516C502.274 432.028 501.782 434.516 500.825 436.837C499.868 439.158 498.465 441.267 496.695 443.043C494.926 444.819 492.826 446.228 490.515 447.189C488.203 448.151 485.726 448.645 483.224 448.644Z" fill="black"/>
<path d="M255.25 491.656C264.66 491.656 273.858 488.855 281.681 483.606C289.505 478.357 295.602 470.896 299.203 462.168C302.804 453.439 303.746 443.834 301.91 434.568C300.075 425.301 295.544 416.79 288.89 410.109C282.237 403.428 273.76 398.879 264.532 397.036C255.303 395.192 245.737 396.138 237.044 399.754C228.351 403.369 220.921 409.492 215.694 417.348C210.466 425.203 207.676 434.439 207.676 443.887C207.67 450.162 208.896 456.377 211.284 462.175C213.673 467.974 217.177 473.243 221.596 477.68C226.015 482.117 231.262 485.635 237.037 488.034C242.812 490.432 249.001 491.663 255.25 491.656ZM264.828 410.492C268.596 410.492 272.279 411.614 275.412 413.715C278.544 415.817 280.986 418.805 282.428 422.3C283.87 425.795 284.247 429.641 283.512 433.352C282.777 437.062 280.963 440.471 278.298 443.146C275.634 445.821 272.24 447.643 268.544 448.381C264.849 449.119 261.019 448.74 257.538 447.292C254.057 445.844 251.082 443.393 248.988 440.247C246.895 437.102 245.778 433.403 245.778 429.62C245.777 427.108 246.27 424.62 247.227 422.299C248.184 419.978 249.587 417.869 251.356 416.093C253.125 414.317 255.226 412.908 257.537 411.947C259.849 410.986 262.326 410.491 264.828 410.492ZM231.568 453.4C233.436 453.421 235.257 453.996 236.801 455.054C238.345 456.112 239.543 457.604 240.244 459.344C240.945 461.084 241.117 462.993 240.74 464.831C240.363 466.669 239.452 468.354 238.123 469.673C236.795 470.993 235.107 471.888 233.272 472.247C231.438 472.605 229.538 472.411 227.814 471.688C226.089 470.965 224.616 469.746 223.579 468.184C222.543 466.623 221.99 464.788 221.99 462.911C221.985 461.652 222.229 460.404 222.71 459.241C223.191 458.077 223.898 457.022 224.79 456.136C225.682 455.251 226.74 454.552 227.904 454.083C229.068 453.613 230.313 453.381 231.568 453.4Z" fill="black"/>
<path d="M527.323 314.636C488.167 275.371 436.241 251.572 381.044 247.594C325.846 243.616 271.068 259.724 226.728 292.972C187.84 322.221 159.086 362.998 144.525 409.543C137.542 431.73 133.992 454.862 134 478.131V721.833C134.023 735.159 138.848 748.026 147.583 758.059C156.318 768.092 168.373 774.612 181.523 776.415C194.672 778.219 208.027 775.184 219.122 767.871C230.216 760.558 238.301 749.461 241.882 736.629C242.121 735.567 242.706 734.616 243.545 733.926C244.385 733.237 245.429 732.849 246.514 732.825H248.514C249.607 732.874 250.653 733.283 251.491 733.99C252.328 734.697 252.91 735.662 253.145 736.735C256.367 748.317 263.276 758.523 272.816 765.793C282.356 773.063 294.004 776.999 305.981 776.999C317.958 776.999 329.605 773.063 339.146 765.793C348.686 758.523 355.595 748.317 358.817 736.735C359.051 735.661 359.631 734.695 360.469 733.988C361.307 733.281 362.355 732.872 363.448 732.825H365.55C366.645 732.868 367.694 733.276 368.533 733.984C369.371 734.692 369.951 735.66 370.182 736.735C373.404 748.317 380.312 758.523 389.853 765.793C399.393 773.063 411.041 776.999 423.018 776.999C434.994 776.999 446.642 773.063 456.182 765.793C465.723 758.523 472.631 748.317 475.854 736.735C476.073 735.654 476.65 734.68 477.491 733.97C478.332 733.26 479.387 732.857 480.485 732.825H482.485C483.58 732.869 484.63 733.277 485.469 733.986C486.307 734.695 486.887 735.665 487.116 736.741C490.7 749.581 498.793 760.684 509.899 767.997C521.004 775.309 534.371 778.337 547.528 776.519C560.684 774.702 572.741 768.163 581.467 758.111C590.194 748.059 595.001 735.174 594.998 721.839V478.128C595.007 454.859 591.457 431.727 584.473 409.54C573.333 373.737 553.724 341.174 527.323 314.636ZM556.056 443.887C556.035 464.707 548.18 484.751 534.066 500.003C519.951 515.255 500.618 524.589 479.94 526.136C459.262 527.682 438.766 521.327 422.556 508.343C406.347 495.36 395.622 476.706 392.529 456.118C389.436 435.531 394.204 414.53 405.877 397.323C417.551 380.115 435.268 367.972 455.48 363.325C475.693 358.678 496.907 361.87 514.875 372.263C532.842 382.655 546.235 399.481 552.372 419.368C554.82 427.309 556.062 435.575 556.057 443.887H556.056ZM507.219 578.527H221.772C221.14 574.305 220.721 571.129 220.404 566.901H508.59C508.273 571.129 507.853 574.3 507.22 578.527H507.219ZM273.773 545.766C318.61 538.369 353.449 500.322 358.08 454.879H370.815C375.446 500.323 410.285 538.369 455.122 545.766H273.773ZM239.357 309.876C279.633 279.673 329.397 265.047 379.536 268.677C429.675 272.307 476.834 293.95 512.379 329.644C522.949 340.314 532.369 352.075 540.481 364.731C538.902 363.357 537.217 361.983 535.534 360.715C517.673 347.319 495.939 340.156 473.646 340.318C448.012 340.286 423.284 349.834 404.275 367.103C385.267 384.372 373.34 408.127 370.815 433.741H358.08C356.228 415.467 349.586 398.012 338.831 383.153C328.076 368.295 313.592 356.563 296.853 349.153C280.115 341.743 261.719 338.919 243.54 340.968C225.361 343.018 208.047 349.868 193.362 360.821C191.718 362.004 190.137 363.274 188.626 364.625C202.156 343.489 219.336 324.949 239.357 309.876ZM176.626 419.368C182.769 399.442 196.184 382.583 214.182 372.168C232.18 361.752 253.434 358.55 273.684 363.203C293.934 367.856 311.685 380.02 323.382 397.258C335.078 414.497 339.855 435.536 336.757 456.162C333.658 476.787 322.912 495.475 306.672 508.482C290.432 521.489 269.897 527.853 249.181 526.301C228.465 524.749 209.098 515.394 194.96 500.111C180.823 484.828 172.958 464.746 172.943 443.887C172.949 435.576 174.191 427.312 176.626 419.368ZM338.602 730.922C336.628 738.046 332.391 744.328 326.535 748.811C320.678 753.294 313.523 755.734 306.159 755.758C298.795 755.781 291.624 753.389 285.739 748.944C279.854 744.499 275.576 738.245 273.557 731.133C272.162 725.559 268.947 720.614 264.426 717.088C259.905 713.563 254.337 711.659 248.613 711.682H246.613C240.915 711.718 235.39 713.646 230.897 717.164C226.404 720.682 223.196 725.594 221.774 731.133C219.524 739.036 214.508 745.857 207.648 750.342C200.788 754.827 192.546 756.673 184.438 755.541C176.331 754.409 168.903 750.376 163.521 744.182C158.14 737.989 155.167 730.052 155.149 721.833V478.128C155.149 475.697 155.36 473.161 155.465 470.625C160.657 489.553 171.053 506.63 185.462 519.9C199.871 533.17 217.711 542.098 236.939 545.661H199.256V556.44C199.198 568.067 200.469 579.662 203.045 590.998C208.54 615.085 219.609 637.534 235.356 656.525C239.174 661.156 243.25 665.566 247.565 669.735C275.137 696.285 310.958 712.515 349.028 715.707C343.931 719.442 340.254 724.808 338.602 730.922ZM364.493 695.413C329.213 695.633 295.031 683.104 268.189 660.115C292.936 661.615 317.383 666.34 340.917 674.171L364.493 682.097L385.123 675.122C409.534 666.911 434.898 661.903 460.588 660.22C433.794 683.134 399.695 695.623 364.501 695.413H364.493ZM573.944 721.833C573.914 730.032 570.94 737.945 565.568 744.12C560.196 750.294 552.786 754.316 544.698 755.447C536.611 756.578 528.388 754.741 521.541 750.275C514.693 745.809 509.679 739.012 507.42 731.133C505.946 725.602 502.71 720.707 498.206 717.195C493.702 713.684 488.178 711.747 482.476 711.682H480.476C474.768 711.678 469.222 713.59 464.721 717.114C460.221 720.639 457.023 725.574 455.637 731.133C453.641 738.259 449.379 744.534 443.499 748.999C437.62 753.464 430.446 755.875 423.075 755.863C415.703 755.851 408.537 753.417 402.672 748.933C396.807 744.448 392.564 738.16 390.592 731.028C388.956 724.907 385.231 719.559 380.067 715.915C402.18 714.05 423.7 707.771 443.364 697.445C463.028 687.119 480.441 672.954 494.581 655.781C509.752 637.227 520.482 615.426 525.946 592.055C528.614 580.446 529.921 568.564 529.84 556.651V545.766H492.381C511.607 542.202 529.444 533.273 543.851 520.003C558.259 506.733 568.653 489.657 573.845 470.731C573.95 473.161 574.16 475.698 574.16 478.234V721.833H573.944Z" fill="black"/>
</g>
<g filter="url(#filter0_i)">
<g filter="url(#filter1_i)">
<rect x="857.168" y="653.584" width="205" height="67" fill="black"/>
</g>
<rect x="858.668" y="655.084" width="202" height="64" stroke="black" stroke-width="3"/>
<path d="M885.258 680.584H883.184V672.428C883.184 671.76 883.225 670.943 883.307 669.976H883.272C883.143 670.527 883.029 670.922 882.929 671.163L879.168 680.584H877.726L873.956 671.233C873.85 670.957 873.739 670.539 873.622 669.976H873.587C873.633 670.48 873.657 671.303 873.657 672.446V680.584H871.723V667.981H874.668L877.981 676.374C878.233 677.019 878.397 677.499 878.473 677.816H878.517C878.734 677.154 878.91 676.662 879.045 676.339L882.42 667.981H885.258V680.584ZM889.17 669.695C888.836 669.695 888.548 669.586 888.308 669.37C888.074 669.153 887.957 668.877 887.957 668.543C887.957 668.209 888.074 667.931 888.308 667.708C888.548 667.486 888.836 667.374 889.17 667.374C889.515 667.374 889.808 667.486 890.048 667.708C890.289 667.931 890.409 668.209 890.409 668.543C890.409 668.86 890.289 669.132 890.048 669.361C889.808 669.583 889.515 669.695 889.17 669.695ZM890.18 680.584H888.141V671.584H890.18V680.584ZM899.295 680.171C898.574 680.587 897.721 680.795 896.737 680.795C895.401 680.795 894.323 680.379 893.503 679.547C892.682 678.709 892.272 677.625 892.272 676.295C892.272 674.813 892.712 673.623 893.59 672.727C894.475 671.825 895.656 671.373 897.132 671.373C897.953 671.373 898.676 671.517 899.303 671.804V673.703C898.676 673.234 898.008 672.999 897.299 672.999C896.438 672.999 895.732 673.292 895.181 673.878C894.63 674.458 894.355 675.22 894.355 676.164C894.355 677.095 894.613 677.831 895.129 678.37C895.65 678.909 896.347 679.178 897.22 679.178C897.953 679.178 898.644 678.917 899.295 678.396V680.171ZM906.546 673.527C906.299 673.333 905.945 673.237 905.482 673.237C904.879 673.237 904.375 673.509 903.97 674.054C903.566 674.599 903.364 675.34 903.364 676.278V680.584H901.325V671.584H903.364V673.439H903.399C903.598 672.806 903.903 672.314 904.313 671.962C904.729 671.605 905.192 671.426 905.702 671.426C906.071 671.426 906.352 671.482 906.546 671.593V673.527ZM911.819 680.795C910.43 680.795 909.32 680.376 908.488 679.539C907.662 678.695 907.249 677.579 907.249 676.19C907.249 674.678 907.679 673.498 908.541 672.648C909.408 671.798 910.574 671.373 912.039 671.373C913.445 671.373 914.541 671.787 915.326 672.613C916.111 673.439 916.504 674.584 916.504 676.049C916.504 677.485 916.079 678.636 915.229 679.503C914.385 680.365 913.249 680.795 911.819 680.795ZM911.916 672.999C911.119 672.999 910.489 673.278 910.026 673.834C909.563 674.391 909.332 675.159 909.332 676.137C909.332 677.081 909.566 677.825 910.035 678.37C910.504 678.909 911.13 679.178 911.916 679.178C912.718 679.178 913.334 678.912 913.761 678.378C914.195 677.845 914.412 677.086 914.412 676.102C914.412 675.112 914.195 674.347 913.761 673.808C913.334 673.269 912.718 672.999 911.916 672.999ZM918.024 680.303V678.414C918.786 678.994 919.627 679.284 920.547 679.284C921.777 679.284 922.392 678.92 922.392 678.194C922.392 677.989 922.339 677.816 922.234 677.675C922.129 677.529 921.985 677.4 921.803 677.289C921.628 677.177 921.417 677.078 921.171 676.99C920.93 676.902 920.661 676.802 920.362 676.691C919.993 676.544 919.659 676.389 919.36 676.225C919.067 676.061 918.821 675.876 918.622 675.671C918.428 675.46 918.282 675.223 918.182 674.959C918.083 674.696 918.033 674.388 918.033 674.037C918.033 673.603 918.135 673.222 918.34 672.894C918.546 672.56 918.821 672.282 919.167 672.059C919.512 671.831 919.905 671.661 920.344 671.549C920.784 671.432 921.238 671.373 921.707 671.373C922.539 671.373 923.283 671.499 923.939 671.751V673.536C923.306 673.102 922.58 672.885 921.759 672.885C921.502 672.885 921.267 672.912 921.056 672.964C920.851 673.017 920.675 673.09 920.529 673.184C920.382 673.278 920.268 673.392 920.186 673.527C920.104 673.656 920.063 673.799 920.063 673.957C920.063 674.151 920.104 674.315 920.186 674.45C920.268 674.584 920.388 674.705 920.547 674.81C920.711 674.91 920.904 675.003 921.127 675.091C921.355 675.173 921.616 675.264 921.909 675.364C922.296 675.522 922.641 675.683 922.946 675.847C923.256 676.011 923.52 676.199 923.737 676.41C923.954 676.615 924.121 676.855 924.238 677.13C924.355 677.4 924.414 677.722 924.414 678.097C924.414 678.554 924.308 678.953 924.097 679.292C923.886 679.632 923.605 679.914 923.254 680.136C922.902 680.359 922.495 680.523 922.032 680.628C921.575 680.74 921.091 680.795 920.582 680.795C919.597 680.795 918.745 680.631 918.024 680.303ZM930.346 680.795C928.958 680.795 927.847 680.376 927.015 679.539C926.189 678.695 925.776 677.579 925.776 676.19C925.776 674.678 926.207 673.498 927.068 672.648C927.935 671.798 929.101 671.373 930.566 671.373C931.972 671.373 933.068 671.787 933.853 672.613C934.638 673.439 935.031 674.584 935.031 676.049C935.031 677.485 934.606 678.636 933.756 679.503C932.913 680.365 931.776 680.795 930.346 680.795ZM930.443 672.999C929.646 672.999 929.016 673.278 928.553 673.834C928.09 674.391 927.859 675.159 927.859 676.137C927.859 677.081 928.093 677.825 928.562 678.37C929.031 678.909 929.658 679.178 930.443 679.178C931.246 679.178 931.861 678.912 932.289 678.378C932.722 677.845 932.939 677.086 932.939 676.102C932.939 675.112 932.722 674.347 932.289 673.808C931.861 673.269 931.246 672.999 930.443 672.999ZM941.904 668.921C941.629 668.763 941.315 668.684 940.964 668.684C939.973 668.684 939.478 669.244 939.478 670.363V671.584H941.57V673.184H939.487V680.584H937.448V673.184H935.91V671.584H937.448V670.125C937.448 669.176 937.758 668.429 938.38 667.884C939.001 667.333 939.777 667.058 940.709 667.058C941.213 667.058 941.611 667.114 941.904 667.225V668.921ZM948.1 680.488C947.702 680.687 947.177 680.787 946.527 680.787C944.781 680.787 943.908 679.949 943.908 678.273V673.184H942.405V671.584H943.908V669.501L945.947 668.921V671.584H948.1V673.184H945.947V677.684C945.947 678.217 946.044 678.598 946.237 678.827C946.43 679.055 946.753 679.169 947.204 679.169C947.549 679.169 947.848 679.07 948.1 678.871V680.488ZM962.022 680.584H955.044V667.981H957.135V678.818H962.022V680.584ZM971.242 676.638H965.107C965.13 677.47 965.385 678.112 965.872 678.563C966.364 679.014 967.038 679.24 967.893 679.24C968.854 679.24 969.736 678.953 970.539 678.378V680.022C969.718 680.538 968.634 680.795 967.287 680.795C965.963 680.795 964.922 680.388 964.167 679.574C963.417 678.753 963.042 677.602 963.042 676.12C963.042 674.719 963.455 673.58 964.281 672.701C965.113 671.816 966.144 671.373 967.375 671.373C968.605 671.373 969.557 671.769 970.231 672.56C970.905 673.351 971.242 674.45 971.242 675.856V676.638ZM969.273 675.197C969.267 674.464 969.094 673.896 968.755 673.492C968.415 673.081 967.946 672.876 967.348 672.876C966.762 672.876 966.264 673.09 965.854 673.518C965.45 673.946 965.201 674.505 965.107 675.197H969.273ZM980.092 680.584H978.115V679.178H978.08C977.459 680.256 976.547 680.795 975.346 680.795C974.462 680.795 973.767 680.555 973.263 680.075C972.765 679.594 972.516 678.958 972.516 678.167C972.516 676.468 973.495 675.478 975.452 675.197L978.124 674.819C978.124 673.536 977.514 672.894 976.296 672.894C975.223 672.894 974.256 673.263 973.395 674.001V672.217C974.344 671.655 975.44 671.373 976.682 671.373C978.956 671.373 980.092 672.493 980.092 674.731V680.584ZM978.124 676.164L976.234 676.427C975.648 676.503 975.206 676.647 974.907 676.858C974.614 677.063 974.467 677.426 974.467 677.948C974.467 678.329 974.602 678.642 974.872 678.888C975.147 679.128 975.513 679.248 975.97 679.248C976.591 679.248 977.104 679.032 977.508 678.598C977.919 678.159 978.124 677.608 978.124 676.946V676.164ZM987.809 673.527C987.563 673.333 987.209 673.237 986.746 673.237C986.142 673.237 985.638 673.509 985.234 674.054C984.83 674.599 984.628 675.34 984.628 676.278V680.584H982.589V671.584H984.628V673.439H984.663C984.862 672.806 985.167 672.314 985.577 671.962C985.993 671.605 986.456 671.426 986.965 671.426C987.335 671.426 987.616 671.482 987.809 671.593V673.527ZM997.266 680.584H995.227V675.513C995.227 673.831 994.632 672.991 993.443 672.991C992.822 672.991 992.309 673.225 991.905 673.694C991.501 674.157 991.298 674.743 991.298 675.452V680.584H989.251V671.584H991.298V673.079H991.334C992.007 671.942 992.98 671.373 994.252 671.373C995.23 671.373 995.977 671.693 996.493 672.331C997.008 672.964 997.266 673.881 997.266 675.082V680.584ZM871.143 704.083V701.93C871.337 702.106 871.565 702.264 871.829 702.405C872.098 702.545 872.382 702.665 872.681 702.765C872.98 702.859 873.279 702.932 873.578 702.985C873.877 703.038 874.152 703.064 874.404 703.064C875.283 703.064 875.936 702.917 876.364 702.624C876.797 702.331 877.014 701.907 877.014 701.35C877.014 701.051 876.941 700.793 876.795 700.577C876.654 700.354 876.455 700.152 876.197 699.97C875.939 699.789 875.634 699.616 875.283 699.452C874.937 699.282 874.565 699.106 874.167 698.924C873.739 698.696 873.34 698.464 872.971 698.23C872.602 697.996 872.28 697.738 872.005 697.456C871.735 697.169 871.521 696.847 871.363 696.49C871.211 696.132 871.134 695.713 871.134 695.233C871.134 694.641 871.266 694.128 871.53 693.695C871.799 693.255 872.151 692.895 872.585 692.614C873.024 692.327 873.522 692.116 874.079 691.981C874.635 691.84 875.204 691.77 875.784 691.77C877.102 691.77 878.063 691.919 878.667 692.218V694.284C877.952 693.768 877.032 693.51 875.907 693.51C875.596 693.51 875.286 693.54 874.975 693.598C874.671 693.657 874.395 693.753 874.149 693.888C873.909 694.023 873.713 694.196 873.56 694.407C873.408 694.618 873.332 694.873 873.332 695.171C873.332 695.453 873.39 695.696 873.507 695.901C873.625 696.106 873.795 696.293 874.017 696.463C874.246 696.633 874.521 696.8 874.843 696.964C875.172 697.123 875.549 697.295 875.977 697.483C876.417 697.711 876.83 697.952 877.216 698.204C877.609 698.456 877.952 698.734 878.245 699.039C878.544 699.343 878.778 699.683 878.948 700.058C879.124 700.427 879.212 700.849 879.212 701.324C879.212 701.962 879.083 702.501 878.825 702.941C878.567 703.38 878.218 703.738 877.779 704.013C877.345 704.289 876.844 704.488 876.276 704.611C875.708 704.734 875.107 704.795 874.474 704.795C874.263 704.795 874.003 704.778 873.692 704.743C873.387 704.713 873.074 704.666 872.752 704.602C872.429 704.543 872.125 704.47 871.838 704.382C871.55 704.294 871.319 704.195 871.143 704.083ZM885.522 704.488C885.124 704.687 884.599 704.787 883.949 704.787C882.203 704.787 881.33 703.949 881.33 702.273V697.184H879.827V695.584H881.33V693.501L883.369 692.921V695.584H885.522V697.184H883.369V701.684C883.369 702.217 883.465 702.598 883.659 702.827C883.852 703.055 884.174 703.169 884.626 703.169C884.971 703.169 885.27 703.07 885.522 702.871V704.488ZM895.129 704.584H893.089V703.161H893.054C892.463 704.25 891.543 704.795 890.295 704.795C888.168 704.795 887.104 703.518 887.104 700.963V695.584H889.143V700.752C889.143 702.37 889.767 703.178 891.015 703.178C891.619 703.178 892.114 702.956 892.501 702.51C892.893 702.065 893.089 701.482 893.089 700.761V695.584H895.129V704.584ZM905.974 704.584H903.935V703.055H903.9C903.244 704.215 902.233 704.795 900.868 704.795C899.76 704.795 898.873 704.394 898.205 703.591C897.543 702.783 897.212 701.684 897.212 700.295C897.212 698.807 897.578 697.615 898.31 696.718C899.048 695.822 900.03 695.373 901.255 695.373C902.467 695.373 903.349 695.86 903.9 696.832H903.935V691.26H905.974V704.584ZM903.962 700.471V699.293C903.962 698.655 903.754 698.113 903.338 697.667C902.922 697.222 902.391 696.999 901.747 696.999C900.985 696.999 900.384 697.284 899.945 697.852C899.511 698.42 899.295 699.208 899.295 700.216C899.295 701.13 899.503 701.854 899.919 702.387C900.34 702.915 900.906 703.178 901.615 703.178C902.312 703.178 902.878 702.923 903.311 702.414C903.745 701.898 903.962 701.25 903.962 700.471ZM916.257 700.638H910.123C910.146 701.47 910.401 702.112 910.887 702.563C911.38 703.014 912.053 703.24 912.909 703.24C913.87 703.24 914.752 702.953 915.554 702.378V704.022C914.734 704.538 913.65 704.795 912.302 704.795C910.978 704.795 909.938 704.388 909.182 703.574C908.432 702.753 908.057 701.602 908.057 700.12C908.057 698.719 908.47 697.58 909.297 696.701C910.129 695.816 911.16 695.373 912.39 695.373C913.621 695.373 914.573 695.769 915.247 696.56C915.921 697.351 916.257 698.45 916.257 699.856V700.638ZM914.289 699.197C914.283 698.464 914.11 697.896 913.77 697.492C913.43 697.081 912.962 696.876 912.364 696.876C911.778 696.876 911.28 697.09 910.87 697.518C910.465 697.946 910.216 698.505 910.123 699.197H914.289ZM926.215 704.584H924.176V699.513C924.176 697.831 923.582 696.991 922.392 696.991C921.771 696.991 921.258 697.225 920.854 697.694C920.45 698.157 920.248 698.743 920.248 699.452V704.584H918.2V695.584H920.248V697.079H920.283C920.957 695.942 921.929 695.373 923.201 695.373C924.179 695.373 924.926 695.693 925.442 696.331C925.958 696.964 926.215 697.881 926.215 699.082V704.584ZM933.458 704.488C933.059 704.687 932.535 704.787 931.884 704.787C930.138 704.787 929.265 703.949 929.265 702.273V697.184H927.762V695.584H929.265V693.501L931.304 692.921V695.584H933.458V697.184H931.304V701.684C931.304 702.217 931.401 702.598 931.594 702.827C931.788 703.055 932.11 703.169 932.561 703.169C932.907 703.169 933.206 703.07 933.458 702.871V704.488ZM950.755 704.584H948.461L947.327 701.376H942.37L941.28 704.584H938.995L943.714 691.981H946.07L950.755 704.584ZM946.773 699.671L945.024 694.644C944.971 694.48 944.916 694.216 944.857 693.853H944.822C944.769 694.187 944.711 694.451 944.646 694.644L942.915 699.671H946.773ZM965.722 704.584H963.683V699.68C963.683 698.737 963.548 698.054 963.279 697.632C963.015 697.21 962.567 696.999 961.934 696.999C961.401 696.999 960.947 697.266 960.572 697.799C960.203 698.332 960.018 698.971 960.018 699.715V704.584H957.97V699.513C957.97 697.837 957.379 696.999 956.195 696.999C955.644 696.999 955.19 697.251 954.833 697.755C954.481 698.259 954.305 698.913 954.305 699.715V704.584H952.266V695.584H954.305V697.008H954.34C954.991 695.918 955.937 695.373 957.179 695.373C957.8 695.373 958.342 695.546 958.805 695.892C959.274 696.232 959.593 696.68 959.763 697.237C960.431 695.995 961.427 695.373 962.752 695.373C964.732 695.373 965.722 696.595 965.722 699.039V704.584ZM970.284 703.284H970.249V704.584H968.21V691.26H970.249V697.166H970.284C970.981 695.971 972.001 695.373 973.342 695.373C974.479 695.373 975.367 695.778 976.005 696.586C976.65 697.389 976.972 698.467 976.972 699.821C976.972 701.327 976.612 702.534 975.891 703.442C975.171 704.344 974.186 704.795 972.938 704.795C971.766 704.795 970.881 704.291 970.284 703.284ZM970.231 699.706V700.823C970.231 701.479 970.439 702.036 970.855 702.493C971.277 702.95 971.81 703.178 972.455 703.178C973.211 703.178 973.802 702.885 974.23 702.299C974.664 701.707 974.88 700.884 974.88 699.83C974.88 698.945 974.678 698.253 974.274 697.755C973.876 697.251 973.334 696.999 972.648 696.999C971.922 696.999 971.336 697.257 970.89 697.773C970.451 698.289 970.231 698.933 970.231 699.706ZM985.753 704.584H983.775V703.178H983.74C983.119 704.256 982.208 704.795 981.006 704.795C980.122 704.795 979.427 704.555 978.923 704.075C978.425 703.594 978.176 702.958 978.176 702.167C978.176 700.468 979.155 699.478 981.112 699.197L983.784 698.819C983.784 697.536 983.174 696.894 981.956 696.894C980.883 696.894 979.917 697.263 979.055 698.001V696.217C980.005 695.655 981.1 695.373 982.342 695.373C984.616 695.373 985.753 696.493 985.753 698.731V704.584ZM983.784 700.164L981.894 700.427C981.308 700.503 980.866 700.647 980.567 700.858C980.274 701.063 980.128 701.426 980.128 701.948C980.128 702.329 980.262 702.642 980.532 702.888C980.807 703.128 981.173 703.248 981.63 703.248C982.252 703.248 982.764 703.032 983.169 702.598C983.579 702.159 983.784 701.608 983.784 700.946V700.164ZM987.686 704.303V702.414C988.448 702.994 989.289 703.284 990.209 703.284C991.439 703.284 992.054 702.92 992.054 702.194C992.054 701.989 992.002 701.816 991.896 701.675C991.791 701.529 991.647 701.4 991.465 701.289C991.29 701.177 991.079 701.078 990.833 700.99C990.592 700.902 990.323 700.802 990.024 700.691C989.655 700.544 989.321 700.389 989.022 700.225C988.729 700.061 988.483 699.876 988.284 699.671C988.09 699.46 987.944 699.223 987.844 698.959C987.745 698.696 987.695 698.388 987.695 698.037C987.695 697.603 987.797 697.222 988.003 696.894C988.208 696.56 988.483 696.282 988.829 696.059C989.174 695.831 989.567 695.661 990.006 695.549C990.446 695.432 990.9 695.373 991.369 695.373C992.201 695.373 992.945 695.499 993.601 695.751V697.536C992.968 697.102 992.242 696.885 991.422 696.885C991.164 696.885 990.929 696.912 990.718 696.964C990.513 697.017 990.338 697.09 990.191 697.184C990.045 697.278 989.93 697.392 989.848 697.527C989.766 697.656 989.725 697.799 989.725 697.957C989.725 698.151 989.766 698.315 989.848 698.45C989.93 698.584 990.05 698.705 990.209 698.81C990.373 698.91 990.566 699.003 990.789 699.091C991.017 699.173 991.278 699.264 991.571 699.364C991.958 699.522 992.303 699.683 992.608 699.847C992.919 700.011 993.182 700.199 993.399 700.41C993.616 700.615 993.783 700.855 993.9 701.13C994.017 701.4 994.076 701.722 994.076 702.097C994.076 702.554 993.97 702.953 993.759 703.292C993.548 703.632 993.267 703.914 992.916 704.136C992.564 704.359 992.157 704.523 991.694 704.628C991.237 704.74 990.754 704.795 990.244 704.795C989.259 704.795 988.407 704.631 987.686 704.303ZM995.456 704.303V702.414C996.217 702.994 997.058 703.284 997.978 703.284C999.209 703.284 999.824 702.92 999.824 702.194C999.824 701.989 999.771 701.816 999.666 701.675C999.56 701.529 999.417 701.4 999.235 701.289C999.059 701.177 998.848 701.078 998.602 700.99C998.362 700.902 998.092 700.802 997.794 700.691C997.424 700.544 997.09 700.389 996.792 700.225C996.499 700.061 996.253 699.876 996.053 699.671C995.86 699.46 995.714 699.223 995.614 698.959C995.514 698.696 995.464 698.388 995.464 698.037C995.464 697.603 995.567 697.222 995.772 696.894C995.977 696.56 996.253 696.282 996.598 696.059C996.944 695.831 997.337 695.661 997.776 695.549C998.215 695.432 998.67 695.373 999.138 695.373C999.97 695.373 1000.71 695.499 1001.37 695.751V697.536C1000.74 697.102 1000.01 696.885 999.191 696.885C998.933 696.885 998.699 696.912 998.488 696.964C998.283 697.017 998.107 697.09 997.961 697.184C997.814 697.278 997.7 697.392 997.618 697.527C997.536 697.656 997.495 697.799 997.495 697.957C997.495 698.151 997.536 698.315 997.618 698.45C997.7 698.584 997.82 698.705 997.978 698.81C998.142 698.91 998.336 699.003 998.558 699.091C998.787 699.173 999.047 699.264 999.34 699.364C999.727 699.522 1000.07 699.683 1000.38 699.847C1000.69 700.011 1000.95 700.199 1001.17 700.41C1001.39 700.615 1001.55 700.855 1001.67 701.13C1001.79 701.4 1001.85 701.722 1001.85 702.097C1001.85 702.554 1001.74 702.953 1001.53 703.292C1001.32 703.632 1001.04 703.914 1000.69 704.136C1000.33 704.359 999.926 704.523 999.464 704.628C999.006 704.74 998.523 704.795 998.013 704.795C997.029 704.795 996.176 704.631 995.456 704.303ZM1010.7 704.584H1008.72V703.178H1008.68C1008.06 704.256 1007.15 704.795 1005.95 704.795C1005.07 704.795 1004.37 704.555 1003.87 704.075C1003.37 703.594 1003.12 702.958 1003.12 702.167C1003.12 700.468 1004.1 699.478 1006.06 699.197L1008.73 698.819C1008.73 697.536 1008.12 696.894 1006.9 696.894C1005.83 696.894 1004.86 697.263 1004 698.001V696.217C1004.95 695.655 1006.04 695.373 1007.29 695.373C1009.56 695.373 1010.7 696.493 1010.7 698.731V704.584ZM1008.73 700.164L1006.84 700.427C1006.25 700.503 1005.81 700.647 1005.51 700.858C1005.22 701.063 1005.07 701.426 1005.07 701.948C1005.07 702.329 1005.21 702.642 1005.48 702.888C1005.75 703.128 1006.12 703.248 1006.57 703.248C1007.19 703.248 1007.71 703.032 1008.11 702.598C1008.52 702.159 1008.73 701.608 1008.73 700.946V700.164ZM1021.37 704.584H1019.34V703.055H1019.3C1018.64 704.215 1017.63 704.795 1016.27 704.795C1015.16 704.795 1014.27 704.394 1013.61 703.591C1012.94 702.783 1012.61 701.684 1012.61 700.295C1012.61 698.807 1012.98 697.615 1013.71 696.718C1014.45 695.822 1015.43 695.373 1016.65 695.373C1017.87 695.373 1018.75 695.86 1019.3 696.832H1019.34V691.26H1021.37V704.584ZM1019.36 700.471V699.293C1019.36 698.655 1019.15 698.113 1018.74 697.667C1018.32 697.222 1017.79 696.999 1017.15 696.999C1016.39 696.999 1015.78 697.284 1015.35 697.852C1014.91 698.42 1014.69 699.208 1014.69 700.216C1014.69 701.13 1014.9 701.854 1015.32 702.387C1015.74 702.915 1016.31 703.178 1017.02 703.178C1017.71 703.178 1018.28 702.923 1018.71 702.414C1019.15 701.898 1019.36 701.25 1019.36 700.471ZM1028.03 704.795C1026.64 704.795 1025.53 704.376 1024.7 703.539C1023.87 702.695 1023.46 701.579 1023.46 700.19C1023.46 698.678 1023.89 697.498 1024.75 696.648C1025.62 695.798 1026.78 695.373 1028.25 695.373C1029.65 695.373 1030.75 695.787 1031.53 696.613C1032.32 697.439 1032.71 698.584 1032.71 700.049C1032.71 701.485 1032.29 702.636 1031.44 703.503C1030.59 704.365 1029.46 704.795 1028.03 704.795ZM1028.12 696.999C1027.33 696.999 1026.7 697.278 1026.23 697.834C1025.77 698.391 1025.54 699.159 1025.54 700.137C1025.54 701.081 1025.78 701.825 1026.24 702.37C1026.71 702.909 1027.34 703.178 1028.12 703.178C1028.93 703.178 1029.54 702.912 1029.97 702.378C1030.4 701.845 1030.62 701.086 1030.62 700.102C1030.62 699.112 1030.4 698.347 1029.97 697.808C1029.54 697.269 1028.93 696.999 1028.12 696.999ZM1040.02 697.527C1039.77 697.333 1039.42 697.237 1038.95 697.237C1038.35 697.237 1037.85 697.509 1037.44 698.054C1037.04 698.599 1036.83 699.34 1036.83 700.278V704.584H1034.8V695.584H1036.83V697.439H1036.87C1037.07 696.806 1037.37 696.314 1037.78 695.962C1038.2 695.605 1038.66 695.426 1039.17 695.426C1039.54 695.426 1039.82 695.482 1040.02 695.593V697.527ZM1041.02 704.303V702.414C1041.78 702.994 1042.62 703.284 1043.54 703.284C1044.77 703.284 1045.39 702.92 1045.39 702.194C1045.39 701.989 1045.33 701.816 1045.23 701.675C1045.12 701.529 1044.98 701.4 1044.8 701.289C1044.62 701.177 1044.41 701.078 1044.16 700.99C1043.92 700.902 1043.65 700.802 1043.36 700.691C1042.99 700.544 1042.65 700.389 1042.35 700.225C1042.06 700.061 1041.82 699.876 1041.62 699.671C1041.42 699.46 1041.28 699.223 1041.18 698.959C1041.08 698.696 1041.03 698.388 1041.03 698.037C1041.03 697.603 1041.13 697.222 1041.33 696.894C1041.54 696.56 1041.82 696.282 1042.16 696.059C1042.51 695.831 1042.9 695.661 1043.34 695.549C1043.78 695.432 1044.23 695.373 1044.7 695.373C1045.53 695.373 1046.28 695.499 1046.93 695.751V697.536C1046.3 697.102 1045.57 696.885 1044.75 696.885C1044.5 696.885 1044.26 696.912 1044.05 696.964C1043.85 697.017 1043.67 697.09 1043.52 697.184C1043.38 697.278 1043.26 697.392 1043.18 697.527C1043.1 697.656 1043.06 697.799 1043.06 697.957C1043.06 698.151 1043.1 698.315 1043.18 698.45C1043.26 698.584 1043.38 698.705 1043.54 698.81C1043.7 698.91 1043.9 699.003 1044.12 699.091C1044.35 699.173 1044.61 699.264 1044.9 699.364C1045.29 699.522 1045.64 699.683 1045.94 699.847C1046.25 700.011 1046.51 700.199 1046.73 700.41C1046.95 700.615 1047.11 700.855 1047.23 701.13C1047.35 701.4 1047.41 701.722 1047.41 702.097C1047.41 702.554 1047.3 702.953 1047.09 703.292C1046.88 703.632 1046.6 703.914 1046.25 704.136C1045.9 704.359 1045.49 704.523 1045.03 704.628C1044.57 704.74 1044.09 704.795 1043.58 704.795C1042.59 704.795 1041.74 704.631 1041.02 704.303Z" fill="white"/>
<path d="M962.213 653.58L962.207 655.655L954.051 655.63C953.383 655.628 952.566 655.584 951.599 655.499L951.599 655.534C952.149 655.665 952.545 655.78 952.785 655.881L962.195 659.671L962.191 661.112L952.828 664.855C952.552 664.959 952.133 665.069 951.57 665.185L951.57 665.22C952.074 665.174 952.897 665.154 954.04 665.157L962.178 665.182L962.172 667.115L949.569 667.077L949.578 664.133L957.981 660.845C958.627 660.595 959.108 660.432 959.424 660.357L959.424 660.313C958.763 660.094 958.271 659.917 957.949 659.781L949.601 656.381L949.61 653.542L962.213 653.58Z" fill="black"/>
<path d="M871.295 692.584L869.221 692.588L869.205 684.432C869.204 683.764 869.243 682.947 869.323 681.98L869.288 681.98C869.16 682.531 869.047 682.926 868.948 683.167L865.204 692.596L863.763 692.599L859.974 683.254C859.868 682.979 859.756 682.56 859.638 681.998L859.603 681.998C859.651 682.502 859.676 683.325 859.678 684.468L859.693 692.606L857.76 692.61L857.736 680.007L860.68 680.001L864.01 688.388C864.263 689.032 864.428 689.512 864.504 689.829L864.548 689.829C864.764 689.166 864.939 688.674 865.073 688.351L868.432 679.986L871.271 679.981L871.295 692.584Z" fill="#0E0303"/>
<path d="M1061.29 706.585L1059.22 706.588L1059.2 698.432C1059.2 697.764 1059.24 696.947 1059.32 695.98L1059.29 695.98C1059.16 696.531 1059.05 696.927 1058.95 697.167L1055.2 706.596L1053.76 706.599L1049.97 697.255C1049.87 696.979 1049.76 696.561 1049.64 695.998L1049.6 695.998C1049.65 696.502 1049.68 697.326 1049.68 698.468L1049.69 706.607L1047.76 706.61L1047.74 694.007L1050.68 694.001L1054.01 702.389C1054.26 703.033 1054.43 703.513 1054.5 703.829L1054.55 703.829C1054.76 703.166 1054.94 702.674 1055.07 702.351L1058.43 693.986L1061.27 693.981L1061.29 706.585Z" fill="black"/>
<path d="M962.167 705.547L962.179 707.622L954.023 707.67C953.355 707.674 952.538 707.638 951.57 707.562L951.57 707.597C952.122 707.723 952.518 707.834 952.759 707.933L962.203 711.638L962.212 713.079L952.883 716.906C952.608 717.013 952.19 717.127 951.628 717.247L951.628 717.282C952.132 717.232 952.955 717.204 954.097 717.197L962.236 717.149L962.247 719.082L949.644 719.157L949.627 716.213L958 712.85C958.643 712.594 959.123 712.427 959.439 712.349L959.438 712.305C958.775 712.092 958.282 711.919 957.959 711.786L949.58 708.461L949.564 705.623L962.167 705.547Z" fill="#0E0303"/>
</g>
<path d="M873.068 601H870.774L869.641 597.792H864.684L863.594 601H861.309L866.028 588.396H868.384L873.068 601ZM869.087 596.087L867.338 591.06C867.285 590.896 867.229 590.632 867.171 590.269H867.136C867.083 590.603 867.024 590.866 866.96 591.06L865.229 596.087H869.087ZM887.852 590.172H884.23V601H882.139V590.172H878.526V588.396H887.852V590.172ZM895.331 597.054H889.196C889.22 597.886 889.475 598.527 889.961 598.979C890.453 599.43 891.127 599.655 891.982 599.655C892.943 599.655 893.825 599.368 894.628 598.794V600.438C893.808 600.953 892.724 601.211 891.376 601.211C890.052 601.211 889.012 600.804 888.256 599.989C887.506 599.169 887.131 598.018 887.131 596.535C887.131 595.135 887.544 593.995 888.37 593.116C889.202 592.231 890.233 591.789 891.464 591.789C892.694 591.789 893.646 592.185 894.32 592.976C894.994 593.767 895.331 594.865 895.331 596.271V597.054ZM893.362 595.612C893.356 594.88 893.184 594.312 892.844 593.907C892.504 593.497 892.035 593.292 891.438 593.292C890.852 593.292 890.354 593.506 889.943 593.934C889.539 594.361 889.29 594.921 889.196 595.612H893.362ZM903.716 600.587C902.995 601.003 902.143 601.211 901.158 601.211C899.822 601.211 898.744 600.795 897.924 599.963C897.104 599.125 896.693 598.041 896.693 596.711C896.693 595.229 897.133 594.039 898.012 593.143C898.896 592.24 900.077 591.789 901.554 591.789C902.374 591.789 903.098 591.933 903.725 592.22V594.118C903.098 593.649 902.43 593.415 901.721 593.415C900.859 593.415 900.153 593.708 899.603 594.294C899.052 594.874 898.776 595.636 898.776 596.579C898.776 597.511 899.034 598.246 899.55 598.785C900.071 599.324 900.769 599.594 901.642 599.594C902.374 599.594 903.065 599.333 903.716 598.812V600.587ZM913.744 601H911.705V596.078C911.705 594.297 911.11 593.406 909.921 593.406C909.323 593.406 908.819 593.664 908.409 594.18C907.999 594.695 907.794 595.354 907.794 596.157V601H905.746V587.676H907.794V593.494H907.829C908.509 592.357 909.481 591.789 910.747 591.789C912.745 591.789 913.744 593.011 913.744 595.454V601ZM917.251 590.11C916.917 590.11 916.63 590.002 916.39 589.785C916.155 589.568 916.038 589.293 916.038 588.959C916.038 588.625 916.155 588.347 916.39 588.124C916.63 587.901 916.917 587.79 917.251 587.79C917.597 587.79 917.89 587.901 918.13 588.124C918.37 588.347 918.49 588.625 918.49 588.959C918.49 589.275 918.37 589.548 918.13 589.776C917.89 589.999 917.597 590.11 917.251 590.11ZM918.262 601H916.223V592H918.262V601ZM928.949 601H926.91V595.929C926.91 594.247 926.315 593.406 925.126 593.406C924.505 593.406 923.992 593.641 923.588 594.109C923.184 594.572 922.981 595.158 922.981 595.867V601H920.934V592H922.981V593.494H923.017C923.69 592.357 924.663 591.789 925.935 591.789C926.913 591.789 927.66 592.108 928.176 592.747C928.691 593.38 928.949 594.297 928.949 595.498V601ZM937.888 600.587C937.167 601.003 936.314 601.211 935.33 601.211C933.994 601.211 932.916 600.795 932.096 599.963C931.275 599.125 930.865 598.041 930.865 596.711C930.865 595.229 931.305 594.039 932.184 593.143C933.068 592.24 934.249 591.789 935.726 591.789C936.546 591.789 937.27 591.933 937.896 592.22V594.118C937.27 593.649 936.602 593.415 935.893 593.415C935.031 593.415 934.325 593.708 933.774 594.294C933.224 594.874 932.948 595.636 932.948 596.579C932.948 597.511 933.206 598.246 933.722 598.785C934.243 599.324 934.94 599.594 935.813 599.594C936.546 599.594 937.237 599.333 937.888 598.812V600.587ZM946.826 601H944.849V599.594H944.813C944.192 600.672 943.281 601.211 942.08 601.211C941.195 601.211 940.501 600.971 939.997 600.49C939.499 600.01 939.25 599.374 939.25 598.583C939.25 596.884 940.229 595.894 942.186 595.612L944.857 595.234C944.857 593.951 944.248 593.31 943.029 593.31C941.957 593.31 940.99 593.679 940.129 594.417V592.633C941.078 592.07 942.174 591.789 943.416 591.789C945.689 591.789 946.826 592.908 946.826 595.146V601ZM944.857 596.579L942.968 596.843C942.382 596.919 941.939 597.062 941.641 597.273C941.348 597.479 941.201 597.842 941.201 598.363C941.201 598.744 941.336 599.058 941.605 599.304C941.881 599.544 942.247 599.664 942.704 599.664C943.325 599.664 943.838 599.447 944.242 599.014C944.652 598.574 944.857 598.023 944.857 597.361V596.579ZM951.37 601H949.322V587.676H951.37V601ZM968.008 600.473C967.059 600.965 965.878 601.211 964.466 601.211C962.638 601.211 961.173 600.634 960.071 599.479C958.97 598.325 958.419 596.811 958.419 594.936C958.419 592.92 959.037 591.291 960.273 590.049C961.516 588.807 963.083 588.186 964.976 588.186C966.194 588.186 967.205 588.358 968.008 588.704V590.778C967.158 590.274 966.221 590.022 965.195 590.022C963.83 590.022 962.723 590.459 961.873 591.332C961.029 592.205 960.607 593.371 960.607 594.83C960.607 596.219 961.003 597.326 961.794 598.152C962.585 598.973 963.625 599.383 964.914 599.383C966.104 599.383 967.135 599.102 968.008 598.539V600.473ZM974.16 601.211C972.771 601.211 971.661 600.792 970.829 599.954C970.003 599.11 969.59 597.994 969.59 596.605C969.59 595.094 970.021 593.913 970.882 593.063C971.749 592.214 972.915 591.789 974.38 591.789C975.786 591.789 976.882 592.202 977.667 593.028C978.452 593.854 978.845 595 978.845 596.465C978.845 597.9 978.42 599.052 977.57 599.919C976.727 600.78 975.59 601.211 974.16 601.211ZM974.257 593.415C973.46 593.415 972.83 593.693 972.367 594.25C971.904 594.807 971.673 595.574 971.673 596.553C971.673 597.496 971.907 598.24 972.376 598.785C972.845 599.324 973.472 599.594 974.257 599.594C975.06 599.594 975.675 599.327 976.103 598.794C976.536 598.261 976.753 597.502 976.753 596.518C976.753 595.527 976.536 594.763 976.103 594.224C975.675 593.685 975.06 593.415 974.257 593.415ZM994.384 601H992.345V596.096C992.345 595.152 992.21 594.47 991.94 594.048C991.677 593.626 991.229 593.415 990.596 593.415C990.062 593.415 989.608 593.682 989.233 594.215C988.864 594.748 988.68 595.387 988.68 596.131V601H986.632V595.929C986.632 594.253 986.04 593.415 984.856 593.415C984.306 593.415 983.852 593.667 983.494 594.171C983.143 594.675 982.967 595.328 982.967 596.131V601H980.928V592H982.967V593.424H983.002C983.652 592.334 984.599 591.789 985.841 591.789C986.462 591.789 987.004 591.962 987.467 592.308C987.936 592.647 988.255 593.096 988.425 593.652C989.093 592.41 990.089 591.789 991.413 591.789C993.394 591.789 994.384 593.011 994.384 595.454V601ZM1010.33 601H1008.29V596.096C1008.29 595.152 1008.15 594.47 1007.88 594.048C1007.62 593.626 1007.17 593.415 1006.54 593.415C1006.01 593.415 1005.55 593.682 1005.18 594.215C1004.81 594.748 1004.62 595.387 1004.62 596.131V601H1002.58V595.929C1002.58 594.253 1001.98 593.415 1000.8 593.415C1000.25 593.415 999.795 593.667 999.438 594.171C999.086 594.675 998.91 595.328 998.91 596.131V601H996.871V592H998.91V593.424H998.945C999.596 592.334 1000.54 591.789 1001.78 591.789C1002.41 591.789 1002.95 591.962 1003.41 592.308C1003.88 592.647 1004.2 593.096 1004.37 593.652C1005.04 592.41 1006.03 591.789 1007.36 591.789C1009.34 591.789 1010.33 593.011 1010.33 595.454V601ZM1020.66 601H1018.62V599.576H1018.59C1018 600.666 1017.08 601.211 1015.83 601.211C1013.7 601.211 1012.64 599.934 1012.64 597.379V592H1014.68V597.168C1014.68 598.785 1015.3 599.594 1016.55 599.594C1017.15 599.594 1017.65 599.371 1018.04 598.926C1018.43 598.48 1018.62 597.897 1018.62 597.177V592H1020.66V601ZM1031.34 601H1029.3V595.929C1029.3 594.247 1028.71 593.406 1027.52 593.406C1026.9 593.406 1026.38 593.641 1025.98 594.109C1025.58 594.572 1025.37 595.158 1025.37 595.867V601H1023.33V592H1025.37V593.494H1025.41C1026.08 592.357 1027.06 591.789 1028.33 591.789C1029.31 591.789 1030.05 592.108 1030.57 592.747C1031.08 593.38 1031.34 594.297 1031.34 595.498V601ZM1034.87 590.11C1034.53 590.11 1034.25 590.002 1034 589.785C1033.77 589.568 1033.65 589.293 1033.65 588.959C1033.65 588.625 1033.77 588.347 1034 588.124C1034.25 587.901 1034.53 587.79 1034.87 587.79C1035.21 587.79 1035.5 587.901 1035.75 588.124C1035.99 588.347 1036.11 588.625 1036.11 588.959C1036.11 589.275 1035.99 589.548 1035.75 589.776C1035.5 589.999 1035.21 590.11 1034.87 590.11ZM1035.88 601H1033.84V592H1035.88V601ZM1043.29 600.903C1042.9 601.103 1042.37 601.202 1041.72 601.202C1039.98 601.202 1039.1 600.364 1039.1 598.688V593.6H1037.6V592H1039.1V589.917L1041.14 589.337V592H1043.29V593.6H1041.14V598.1C1041.14 598.633 1041.24 599.014 1041.43 599.242C1041.62 599.471 1041.95 599.585 1042.4 599.585C1042.74 599.585 1043.04 599.485 1043.29 599.286V600.903ZM1052.85 592L1048.79 602.441C1047.94 604.305 1046.76 605.236 1045.24 605.236C1044.81 605.236 1044.45 605.198 1044.17 605.122V603.426C1044.49 603.531 1044.78 603.584 1045.04 603.584C1045.81 603.584 1046.37 603.209 1046.75 602.459L1047.36 600.982L1043.78 592H1046.04L1048.18 598.539C1048.21 598.621 1048.26 598.838 1048.34 599.189H1048.38C1048.41 599.055 1048.47 598.844 1048.54 598.557L1050.79 592H1052.85ZM951.036 625V612.396H955.035C956.254 612.396 957.218 612.663 957.927 613.196C958.642 613.729 958.999 614.424 958.999 615.279C958.999 615.994 958.797 616.615 958.393 617.143C957.988 617.67 957.429 618.045 956.714 618.268V618.303C957.581 618.402 958.272 618.725 958.788 619.27C959.31 619.809 959.57 620.512 959.57 621.379C959.57 622.457 959.146 623.33 958.296 623.998C957.446 624.666 956.374 625 955.079 625H951.036ZM953.119 614.075V617.661H954.473C955.199 617.661 955.768 617.491 956.178 617.151C956.594 616.806 956.802 616.319 956.802 615.692C956.802 614.614 956.081 614.075 954.64 614.075H953.119ZM953.119 619.34V623.33H954.903C955.683 623.33 956.283 623.151 956.705 622.794C957.133 622.431 957.347 621.933 957.347 621.3C957.347 619.993 956.441 619.34 954.631 619.34H953.119ZM969.484 616L965.424 626.441C964.58 628.305 963.396 629.236 961.873 629.236C961.445 629.236 961.088 629.198 960.801 629.122V627.426C961.123 627.531 961.416 627.584 961.68 627.584C962.441 627.584 963.01 627.209 963.385 626.459L963.991 624.982L960.414 616H962.673L964.817 622.539C964.841 622.621 964.894 622.838 964.976 623.189H965.02C965.049 623.055 965.102 622.844 965.178 622.557L967.428 616H969.484Z" fill="#929292"/>
<ellipse cx="1027" cy="489" rx="36" ry="38" fill="#ED654B"/>
<path fill-rule="evenodd" clip-rule="evenodd" d="M1011.85 501.577C1013.89 501.577 1015.55 500.087 1015.55 498.249C1015.55 496.411 1013.89 494.92 1011.85 494.92C1009.81 494.92 1008.16 496.411 1008.16 498.249C1008.16 500.087 1009.81 501.577 1011.85 501.577ZM1011.85 500.165C1013.03 500.165 1013.98 499.307 1013.98 498.249C1013.98 497.19 1013.03 496.332 1011.85 496.332C1010.68 496.332 1009.73 497.19 1009.73 498.249C1009.73 499.307 1010.68 500.165 1011.85 500.165Z" fill="black"/>
<path d="M1011.36 495.491C1013.56 486.719 1004.68 478.64 1011.36 471.504C1019.21 463.11 1034.55 463.11 1042.4 471.504C1049.07 478.64 1038.97 486.469 1042.4 495.491" stroke="black" stroke-width="3"/>
<path fill-rule="evenodd" clip-rule="evenodd" d="M1041.88 501.577C1043.92 501.577 1045.58 500.087 1045.58 498.249C1045.58 496.411 1043.92 494.92 1041.88 494.92C1039.84 494.92 1038.19 496.411 1038.19 498.249C1038.19 500.087 1039.84 501.577 1041.88 501.577ZM1041.88 500.165C1043.06 500.165 1044.01 499.307 1044.01 498.249C1044.01 497.19 1043.06 496.332 1041.88 496.332C1040.71 496.332 1039.75 497.19 1039.75 498.249C1039.75 499.307 1040.71 500.165 1041.88 500.165Z" fill="black"/>
<path fill-rule="evenodd" clip-rule="evenodd" d="M1019.24 485.974C1021.28 485.974 1022.94 484.484 1022.94 482.646C1022.94 480.808 1021.28 479.318 1019.24 479.318C1017.2 479.318 1015.55 480.808 1015.55 482.646C1015.55 484.484 1017.2 485.974 1019.24 485.974ZM1019.24 484.562C1020.42 484.562 1021.37 483.704 1021.37 482.646C1021.37 481.587 1020.42 480.73 1019.24 480.73C1018.07 480.73 1017.12 481.587 1017.12 482.646C1017.12 483.704 1018.07 484.562 1019.24 484.562Z" fill="black"/>
<path fill-rule="evenodd" clip-rule="evenodd" d="M1034.49 485.974C1036.53 485.974 1038.19 484.484 1038.19 482.646C1038.19 480.808 1036.53 479.318 1034.49 479.318C1032.45 479.318 1030.8 480.808 1030.8 482.646C1030.8 484.484 1032.45 485.974 1034.49 485.974ZM1034.49 484.562C1035.67 484.562 1036.62 483.704 1036.62 482.646C1036.62 481.587 1035.67 480.73 1034.49 480.73C1033.32 480.73 1032.37 481.587 1032.37 482.646C1032.37 483.704 1033.32 484.562 1034.49 484.562Z" fill="black"/>
<path fill-rule="evenodd" clip-rule="evenodd" d="M1027.07 511.973C1029.11 511.973 1030.76 510.482 1030.76 508.644C1030.76 506.806 1029.11 505.316 1027.07 505.316C1025.03 505.316 1023.37 506.806 1023.37 508.644C1023.37 510.482 1025.03 511.973 1027.07 511.973ZM1027.07 510.561C1028.24 510.561 1029.2 509.703 1029.2 508.644C1029.2 507.586 1028.24 506.728 1027.07 506.728C1025.89 506.728 1024.94 507.586 1024.94 508.644C1024.94 509.703 1025.89 510.561 1027.07 510.561Z" fill="black"/>
<path d="M1026.97 491.318V506.122M1026.97 491.318L1021.21 485.182M1026.97 491.318L1032.88 485.182" stroke="black" stroke-width="3"/>
<path d="M912.66 324.844H892.543V385H880.922V324.844H860.854V314.98H912.66V324.844ZM954.213 363.076H920.131C920.261 367.699 921.677 371.263 924.379 373.77C927.113 376.276 930.857 377.529 935.609 377.529C940.948 377.529 945.847 375.934 950.307 372.744V381.875C945.749 384.74 939.727 386.172 932.24 386.172C924.883 386.172 919.105 383.91 914.906 379.385C910.74 374.827 908.656 368.431 908.656 360.195C908.656 352.415 910.951 346.084 915.541 341.201C920.163 336.286 925.893 333.828 932.729 333.828C939.564 333.828 944.854 336.025 948.598 340.42C952.341 344.814 954.213 350.918 954.213 358.73V363.076ZM943.275 355.068C943.243 350.999 942.283 347.842 940.395 345.596C938.507 343.317 935.902 342.178 932.582 342.178C929.327 342.178 926.56 343.366 924.281 345.742C922.035 348.118 920.652 351.227 920.131 355.068H943.275ZM1000.79 382.705C996.791 385.016 992.055 386.172 986.586 386.172C979.164 386.172 973.174 383.861 968.617 379.238C964.06 374.583 961.781 368.561 961.781 361.172C961.781 352.936 964.223 346.328 969.105 341.348C974.021 336.335 980.58 333.828 988.783 333.828C993.34 333.828 997.361 334.626 1000.84 336.221V346.768C997.361 344.163 993.65 342.861 989.711 342.861C984.926 342.861 981.003 344.489 977.943 347.744C974.883 350.967 973.354 355.199 973.354 360.439C973.354 365.615 974.786 369.701 977.65 372.695C980.548 375.69 984.421 377.188 989.271 377.188C993.34 377.188 997.182 375.739 1000.79 372.842V382.705ZM1056.51 385H1045.18V357.656C1045.18 347.76 1041.88 342.812 1035.27 342.812C1031.95 342.812 1029.15 344.245 1026.87 347.109C1024.59 349.974 1023.45 353.636 1023.45 358.096V385H1012.07V310.977H1023.45V343.301H1023.65C1027.42 336.986 1032.83 333.828 1039.86 333.828C1050.96 333.828 1056.51 340.615 1056.51 354.189V385ZM728.529 492.609V518H716.957V447.98H738.197C746.238 447.98 752.471 449.852 756.898 453.596C761.326 457.339 763.539 462.613 763.539 469.416C763.539 476.219 761.228 481.786 756.605 486.115C751.983 490.445 745.733 492.609 737.855 492.609H728.529ZM728.529 457.551V483.137H736.049C741.029 483.137 744.822 481.981 747.426 479.67C750.03 477.359 751.332 474.104 751.332 469.904C751.332 461.669 746.547 457.551 736.977 457.551H728.529ZM818.617 518H807.289V490.656C807.289 480.76 803.985 475.812 797.377 475.812C794.057 475.812 791.257 477.245 788.979 480.109C786.7 482.974 785.561 486.636 785.561 491.096V518H774.184V443.977H785.561V476.301H785.756C789.532 469.986 794.936 466.828 801.967 466.828C813.067 466.828 818.617 473.615 818.617 487.189V518ZM870.766 518H859.779V510.188H859.584C856.133 516.177 851.072 519.172 844.398 519.172C839.483 519.172 835.626 517.837 832.826 515.168C830.059 512.499 828.676 508.967 828.676 504.572C828.676 495.132 834.112 489.631 844.984 488.068L859.828 485.969C859.828 478.84 856.443 475.275 849.672 475.275C843.715 475.275 838.344 477.326 833.559 481.428V471.516C838.832 468.391 844.919 466.828 851.82 466.828C864.451 466.828 870.766 473.046 870.766 485.48V518ZM859.828 493.439L849.33 494.904C846.075 495.327 843.617 496.125 841.957 497.297C840.329 498.436 839.516 500.454 839.516 503.352C839.516 505.467 840.264 507.209 841.762 508.576C843.292 509.911 845.326 510.578 847.865 510.578C851.316 510.578 854.164 509.374 856.41 506.965C858.689 504.523 859.828 501.464 859.828 497.785V493.439ZM929.164 518H917.836V489.826C917.836 480.484 914.532 475.812 907.924 475.812C904.473 475.812 901.625 477.115 899.379 479.719C897.133 482.29 896.01 485.546 896.01 489.484V518H884.633V468H896.01V476.301H896.205C899.949 469.986 905.352 466.828 912.416 466.828C917.852 466.828 922.003 468.602 924.867 472.15C927.732 475.666 929.164 480.76 929.164 487.434V518ZM969.398 517.463C967.185 518.57 964.271 519.123 960.658 519.123C950.958 519.123 946.107 514.468 946.107 505.158V476.887H937.758V468H946.107V456.428L957.436 453.205V468H969.398V476.887H957.436V501.887C957.436 504.849 957.973 506.965 959.047 508.234C960.121 509.504 961.911 510.139 964.418 510.139C966.339 510.139 967.999 509.585 969.398 508.479V517.463ZM1164.08 518H1152.75V490.754C1152.75 485.513 1152 481.721 1150.5 479.377C1149.04 477.033 1146.55 475.861 1143.03 475.861C1140.07 475.861 1137.55 477.342 1135.46 480.305C1133.41 483.267 1132.39 486.815 1132.39 490.949V518H1121.01V489.826C1121.01 480.516 1117.72 475.861 1111.15 475.861C1108.09 475.861 1105.56 477.261 1103.58 480.061C1101.62 482.86 1100.65 486.49 1100.65 490.949V518H1089.32V468H1100.65V475.91H1100.84C1104.46 469.855 1109.71 466.828 1116.62 466.828C1120.07 466.828 1123.08 467.788 1125.65 469.709C1128.25 471.597 1130.03 474.087 1130.97 477.18C1134.68 470.279 1140.22 466.828 1147.57 466.828C1158.57 466.828 1164.08 473.615 1164.08 487.189V518ZM1174.77 516.438V505.939C1179 509.162 1183.67 510.773 1188.78 510.773C1195.62 510.773 1199.04 508.755 1199.04 504.719C1199.04 503.579 1198.74 502.619 1198.16 501.838C1197.57 501.024 1196.77 500.308 1195.77 499.689C1194.79 499.071 1193.62 498.518 1192.25 498.029C1190.92 497.541 1189.42 496.988 1187.76 496.369C1185.71 495.555 1183.85 494.693 1182.19 493.781C1180.56 492.87 1179.2 491.844 1178.09 490.705C1177.02 489.533 1176.2 488.215 1175.65 486.75C1175.1 485.285 1174.82 483.576 1174.82 481.623C1174.82 479.214 1175.39 477.098 1176.53 475.275C1177.67 473.42 1179.2 471.874 1181.12 470.637C1183.04 469.367 1185.22 468.423 1187.66 467.805C1190.1 467.154 1192.62 466.828 1195.23 466.828C1199.85 466.828 1203.99 467.528 1207.63 468.928V478.84C1204.12 476.431 1200.08 475.227 1195.52 475.227C1194.09 475.227 1192.79 475.373 1191.62 475.666C1190.48 475.959 1189.5 476.366 1188.69 476.887C1187.87 477.408 1187.24 478.042 1186.78 478.791C1186.33 479.507 1186.1 480.305 1186.1 481.184C1186.1 482.258 1186.33 483.169 1186.78 483.918C1187.24 484.667 1187.9 485.334 1188.78 485.92C1189.69 486.473 1190.77 486.994 1192.01 487.482C1193.28 487.938 1194.72 488.443 1196.35 488.996C1198.5 489.875 1200.42 490.77 1202.11 491.682C1203.84 492.593 1205.3 493.635 1206.51 494.807C1207.71 495.946 1208.64 497.281 1209.29 498.811C1209.94 500.308 1210.27 502.098 1210.27 504.182C1210.27 506.721 1209.68 508.934 1208.51 510.822C1207.34 512.71 1205.78 514.273 1203.82 515.51C1201.87 516.747 1199.61 517.658 1197.04 518.244C1194.5 518.863 1191.81 519.172 1188.98 519.172C1183.51 519.172 1178.77 518.26 1174.77 516.438Z" fill="#ED654B"/>
<defs>
<filter id="filter0_i" x="857.168" y="653.542" width="205" height="71.0425" filterUnits="userSpaceOnUse" color-interpolation-filters="sRGB">
<feFlood flood-opacity="0" result="BackgroundImageFix"/>
<feBlend mode="normal" in="SourceGraphic" in2="BackgroundImageFix" result="shape"/>
<feColorMatrix in="SourceAlpha" type="matrix" values="0 0 0 0 0 0 0 0 0 0 0 0 0 0 0 0 0 0 127 0" result="hardAlpha"/>
<feOffset dy="4"/>
<feGaussianBlur stdDeviation="2"/>
<feComposite in2="hardAlpha" operator="arithmetic" k2="-1" k3="1"/>
<feColorMatrix type="matrix" values="0 0 0 0 0 0 0 0 0 0 0 0 0 0 0 0 0 0 0.25 0"/>
<feBlend mode="normal" in2="shape" result="effect1_innerShadow"/>
</filter>
<filter id="filter1_i" x="857.168" y="653.584" width="205" height="71" filterUnits="userSpaceOnUse" color-interpolation-filters="sRGB">
<feFlood flood-opacity="0" result="BackgroundImageFix"/>
<feBlend mode="normal" in="SourceGraphic" in2="BackgroundImageFix" result="shape"/>
<feColorMatrix in="SourceAlpha" type="matrix" values="0 0 0 0 0 0 0 0 0 0 0 0 0 0 0 0 0 0 127 0" result="hardAlpha"/>
<feOffset dy="4"/>
<feGaussianBlur stdDeviation="2"/>
<feComposite in2="hardAlpha" operator="arithmetic" k2="-1" k3="1"/>
<feColorMatrix type="matrix" values="0 0 0 0 0 0 0 0 0 0 0 0 0 0 0 0 0 0 0.25 0"/>
<feBlend mode="normal" in2="shape" result="effect1_innerShadow"/>
</filter>
<clipPath id="clip0">
<rect width="461" height="530" fill="white" transform="translate(134 247)"/>
</clipPath>
</defs>
</svg>
