<svg width="495" height="217" viewBox="0 0 495 217" fill="none" xmlns="http://www.w3.org/2000/svg">
<ellipse cx="311" cy="179" rx="36" ry="38" fill="#ED654B"/>
<path fill-rule="evenodd" clip-rule="evenodd" d="M295.854 191.577C297.895 191.577 299.549 190.087 299.549 188.249C299.549 186.411 297.895 184.92 295.854 184.92C293.814 184.92 292.16 186.411 292.16 188.249C292.16 190.087 293.814 191.577 295.854 191.577ZM295.854 190.165C297.029 190.165 297.981 189.307 297.981 188.249C297.981 187.19 297.029 186.332 295.854 186.332C294.679 186.332 293.727 187.19 293.727 188.249C293.727 189.307 294.679 190.165 295.854 190.165Z" fill="black"/>
<path d="M295.358 185.491C297.564 176.719 288.681 168.64 295.358 161.504C303.21 153.11 318.546 153.11 326.398 161.504C333.074 168.64 322.971 176.469 326.398 185.491" stroke="black" stroke-width="3"/>
<path fill-rule="evenodd" clip-rule="evenodd" d="M325.882 191.577C327.922 191.577 329.577 190.087 329.577 188.249C329.577 186.411 327.922 184.92 325.882 184.92C323.842 184.92 322.188 186.411 322.188 188.249C322.188 190.087 323.842 191.577 325.882 191.577ZM325.882 190.165C327.057 190.165 328.009 189.307 328.009 188.249C328.009 187.19 327.057 186.332 325.882 186.332C324.707 186.332 323.755 187.19 323.755 188.249C323.755 189.307 324.707 190.165 325.882 190.165Z" fill="black"/>
<path fill-rule="evenodd" clip-rule="evenodd" d="M303.243 175.974C305.284 175.974 306.938 174.484 306.938 172.646C306.938 170.808 305.284 169.318 303.243 169.318C301.203 169.318 299.549 170.808 299.549 172.646C299.549 174.484 301.203 175.974 303.243 175.974ZM303.243 174.562C304.418 174.562 305.37 173.704 305.37 172.646C305.37 171.587 304.418 170.73 303.243 170.73C302.068 170.73 301.116 171.587 301.116 172.646C301.116 173.704 302.068 174.562 303.243 174.562Z" fill="black"/>
<path fill-rule="evenodd" clip-rule="evenodd" d="M318.493 175.974C320.533 175.974 322.188 174.484 322.188 172.646C322.188 170.808 320.533 169.318 318.493 169.318C316.453 169.318 314.798 170.808 314.798 172.646C314.798 174.484 316.453 175.974 318.493 175.974ZM318.493 174.562C319.668 174.562 320.62 173.704 320.62 172.646C320.62 171.587 319.668 170.73 318.493 170.73C317.318 170.73 316.366 171.587 316.366 172.646C316.366 173.704 317.318 174.562 318.493 174.562Z" fill="black"/>
<path fill-rule="evenodd" clip-rule="evenodd" d="M311.068 201.973C313.108 201.973 314.762 200.482 314.762 198.644C314.762 196.806 313.108 195.316 311.068 195.316C309.028 195.316 307.373 196.806 307.373 198.644C307.373 200.482 309.028 201.973 311.068 201.973ZM311.068 200.561C312.243 200.561 313.195 199.703 313.195 198.644C313.195 197.586 312.243 196.728 311.068 196.728C309.893 196.728 308.941 197.586 308.941 198.644C308.941 199.703 309.893 200.561 311.068 200.561Z" fill="black"/>
<path d="M310.967 181.318V196.122M310.967 181.318L305.207 175.182M310.967 181.318L316.883 175.182" stroke="black" stroke-width="3"/>
<path d="M196.66 14.8438H176.543V75H164.922V14.8438H144.854V4.98047H196.66V14.8438ZM238.213 53.0762H204.131C204.261 57.6986 205.677 61.263 208.379 63.7695C211.113 66.276 214.857 67.5293 219.609 67.5293C224.948 67.5293 229.847 65.9342 234.307 62.7441V71.875C229.749 74.7396 223.727 76.1719 216.24 76.1719C208.883 76.1719 203.105 73.9095 198.906 69.3848C194.74 64.8275 192.656 58.431 192.656 50.1953C192.656 42.4154 194.951 36.084 199.541 31.2012C204.163 26.2858 209.893 23.8281 216.729 23.8281C223.564 23.8281 228.854 26.0254 232.598 30.4199C236.341 34.8145 238.213 40.918 238.213 48.7305V53.0762ZM227.275 45.0684C227.243 40.9993 226.283 37.8418 224.395 35.5957C222.507 33.3171 219.902 32.1777 216.582 32.1777C213.327 32.1777 210.56 33.3659 208.281 35.7422C206.035 38.1185 204.652 41.2272 204.131 45.0684H227.275ZM284.795 72.7051C280.791 75.0163 276.055 76.1719 270.586 76.1719C263.164 76.1719 257.174 73.8607 252.617 69.2383C248.06 64.5833 245.781 58.5612 245.781 51.1719C245.781 42.9362 248.223 36.3281 253.105 31.3477C258.021 26.3346 264.58 23.8281 272.783 23.8281C277.34 23.8281 281.361 24.6257 284.844 26.2207V36.7676C281.361 34.1634 277.65 32.8613 273.711 32.8613C268.926 32.8613 265.003 34.4889 261.943 37.7441C258.883 40.9668 257.354 45.1986 257.354 50.4395C257.354 55.6152 258.786 59.7005 261.65 62.6953C264.548 65.6901 268.421 67.1875 273.271 67.1875C277.34 67.1875 281.182 65.7389 284.795 62.8418V72.7051ZM340.508 75H329.18V47.6562C329.18 37.7604 325.876 32.8125 319.268 32.8125C315.947 32.8125 313.148 34.2448 310.869 37.1094C308.59 39.974 307.451 43.6361 307.451 48.0957V75H296.074V0.976562H307.451V33.3008H307.646C311.423 26.9857 316.826 23.8281 323.857 23.8281C334.958 23.8281 340.508 30.6152 340.508 44.1895V75ZM12.5293 182.609V208H0.957031V137.98H22.1973C30.2376 137.98 36.4714 139.852 40.8984 143.596C45.3255 147.339 47.5391 152.613 47.5391 159.416C47.5391 166.219 45.2279 171.786 40.6055 176.115C35.9831 180.445 29.7331 182.609 21.8555 182.609H12.5293ZM12.5293 147.551V173.137H20.0488C25.0293 173.137 28.8216 171.981 31.4258 169.67C34.0299 167.359 35.332 164.104 35.332 159.904C35.332 151.669 30.5469 147.551 20.9766 147.551H12.5293ZM102.617 208H91.2891V180.656C91.2891 170.76 87.985 165.812 81.377 165.812C78.0566 165.812 75.2572 167.245 72.9785 170.109C70.6999 172.974 69.5605 176.636 69.5605 181.096V208H58.1836V133.977H69.5605V166.301H69.7559C73.5319 159.986 78.9355 156.828 85.9668 156.828C97.0671 156.828 102.617 163.615 102.617 177.189V208ZM154.766 208H143.779V200.188H143.584C140.133 206.177 135.072 209.172 128.398 209.172C123.483 209.172 119.626 207.837 116.826 205.168C114.059 202.499 112.676 198.967 112.676 194.572C112.676 185.132 118.112 179.631 128.984 178.068L143.828 175.969C143.828 168.84 140.443 165.275 133.672 165.275C127.715 165.275 122.344 167.326 117.559 171.428V161.516C122.832 158.391 128.919 156.828 135.82 156.828C148.451 156.828 154.766 163.046 154.766 175.48V208ZM143.828 183.439L133.33 184.904C130.075 185.327 127.617 186.125 125.957 187.297C124.329 188.436 123.516 190.454 123.516 193.352C123.516 195.467 124.264 197.209 125.762 198.576C127.292 199.911 129.326 200.578 131.865 200.578C135.316 200.578 138.164 199.374 140.41 196.965C142.689 194.523 143.828 191.464 143.828 187.785V183.439ZM213.164 208H201.836V179.826C201.836 170.484 198.532 165.812 191.924 165.812C188.473 165.812 185.625 167.115 183.379 169.719C181.133 172.29 180.01 175.546 180.01 179.484V208H168.633V158H180.01V166.301H180.205C183.949 159.986 189.352 156.828 196.416 156.828C201.852 156.828 206.003 158.602 208.867 162.15C211.732 165.666 213.164 170.76 213.164 177.434V208ZM253.398 207.463C251.185 208.57 248.271 209.123 244.658 209.123C234.958 209.123 230.107 204.468 230.107 195.158V166.887H221.758V158H230.107V146.428L241.436 143.205V158H253.398V166.887H241.436V191.887C241.436 194.849 241.973 196.965 243.047 198.234C244.121 199.504 245.911 200.139 248.418 200.139C250.339 200.139 251.999 199.585 253.398 198.479V207.463ZM448.076 208H436.748V180.754C436.748 175.513 435.999 171.721 434.502 169.377C433.037 167.033 430.547 165.861 427.031 165.861C424.069 165.861 421.546 167.342 419.463 170.305C417.412 173.267 416.387 176.815 416.387 180.949V208H405.01V179.826C405.01 170.516 401.722 165.861 395.146 165.861C392.087 165.861 389.564 167.261 387.578 170.061C385.625 172.86 384.648 176.49 384.648 180.949V208H373.32V158H384.648V165.91H384.844C388.457 159.855 393.714 156.828 400.615 156.828C404.066 156.828 407.077 157.788 409.648 159.709C412.253 161.597 414.027 164.087 414.971 167.18C418.682 160.279 424.215 156.828 431.572 156.828C442.575 156.828 448.076 163.615 448.076 177.189V208ZM458.77 206.438V195.939C463.001 199.162 467.673 200.773 472.783 200.773C479.619 200.773 483.037 198.755 483.037 194.719C483.037 193.579 482.744 192.619 482.158 191.838C481.572 191.024 480.775 190.308 479.766 189.689C478.789 189.071 477.617 188.518 476.25 188.029C474.915 187.541 473.418 186.988 471.758 186.369C469.707 185.555 467.852 184.693 466.191 183.781C464.564 182.87 463.197 181.844 462.09 180.705C461.016 179.533 460.202 178.215 459.648 176.75C459.095 175.285 458.818 173.576 458.818 171.623C458.818 169.214 459.388 167.098 460.527 165.275C461.667 163.42 463.197 161.874 465.117 160.637C467.038 159.367 469.219 158.423 471.66 157.805C474.102 157.154 476.624 156.828 479.229 156.828C483.851 156.828 487.985 157.528 491.631 158.928V168.84C488.115 166.431 484.079 165.227 479.521 165.227C478.089 165.227 476.787 165.373 475.615 165.666C474.476 165.959 473.499 166.366 472.686 166.887C471.872 167.408 471.237 168.042 470.781 168.791C470.326 169.507 470.098 170.305 470.098 171.184C470.098 172.258 470.326 173.169 470.781 173.918C471.237 174.667 471.904 175.334 472.783 175.92C473.695 176.473 474.769 176.994 476.006 177.482C477.275 177.938 478.724 178.443 480.352 178.996C482.5 179.875 484.421 180.77 486.113 181.682C487.839 182.593 489.303 183.635 490.508 184.807C491.712 185.946 492.64 187.281 493.291 188.811C493.942 190.308 494.268 192.098 494.268 194.182C494.268 196.721 493.682 198.934 492.51 200.822C491.338 202.71 489.775 204.273 487.822 205.51C485.869 206.747 483.607 207.658 481.035 208.244C478.496 208.863 475.811 209.172 472.979 209.172C467.51 209.172 462.773 208.26 458.77 206.438Z" fill="#ED654B"/>
</svg>
