<svg id="_87390" data-name="87390" xmlns="http://www.w3.org/2000/svg" width="44.7" height="44.7" viewBox="0 0 44.7 44.7">
  <path id="Path_27" data-name="Path 27" d="M32.364,0H12.335A12.35,12.35,0,0,0,0,12.336V32.365A12.349,12.349,0,0,0,12.335,44.7H32.364A12.35,12.35,0,0,0,44.7,32.365V12.336A12.35,12.35,0,0,0,32.364,0Zm8.37,32.365a8.379,8.379,0,0,1-8.37,8.37H12.335a8.379,8.379,0,0,1-8.369-8.37V12.336a8.379,8.379,0,0,1,8.369-8.37H32.364a8.379,8.379,0,0,1,8.37,8.37V32.365Z" fill="#fff"/>
  <path id="Path_28" data-name="Path 28" d="M52.486,40.97A11.518,11.518,0,1,0,64,52.488,11.531,11.531,0,0,0,52.486,40.97Zm0,19.069a7.552,7.552,0,1,1,7.552-7.552A7.56,7.56,0,0,1,52.486,60.039Z" transform="translate(-30.136 -30.137)" fill="#fff"/>
  <path id="Path_29" data-name="Path 29" d="M121.829,28.251a2.907,2.907,0,1,0,2.057.851A2.92,2.92,0,0,0,121.829,28.251Z" transform="translate(-87.478 -20.781)" fill="#fff"/>
</svg>
