<?xml version="1.0" encoding="iso-8859-1"?>
<!-- Generator: Adobe Illustrator 19.0.0, SVG Export Plug-In . SVG Version: 6.00 Build 0)  -->
<svg version="1.1" id="Capa_1" xmlns="http://www.w3.org/2000/svg" xmlns:xlink="http://www.w3.org/1999/xlink" x="0px" y="0px"
	 viewBox="0 0 409.6 409.6" style="enable-background:new 0 0 409.6 409.6;" xml:space="preserve">
<g>
	<g>
		<path d="M392.533,17.067H17.067C7.641,17.067,0,24.708,0,34.133S7.641,51.2,17.067,51.2h375.467
			c9.426,0,17.067-7.641,17.067-17.067S401.959,17.067,392.533,17.067z"/>
	</g>
</g>
<g>
	<g>
		<path d="M392.533,187.733H17.067C7.641,187.733,0,195.374,0,204.8s7.641,17.067,17.067,17.067h375.467
			c9.426,0,17.067-7.641,17.067-17.067S401.959,187.733,392.533,187.733z"/>
	</g>
</g>
<g>
	<g>
		<path d="M392.533,358.4H17.067C7.641,358.4,0,366.041,0,375.467s7.641,17.067,17.067,17.067h375.467
			c9.426,0,17.067-7.641,17.067-17.067S401.959,358.4,392.533,358.4z"/>
	</g>
</g>
<g>
</g>
<g>
</g>
<g>
</g>
<g>
</g>
<g>
</g>
<g>
</g>
<g>
</g>
<g>
</g>
<g>
</g>
<g>
</g>
<g>
</g>
<g>
</g>
<g>
</g>
<g>
</g>
<g>
</g>
</svg>
