<svg width="40" height="40" fill="none" xmlns="http://www.w3.org/2000/svg"><path d="M20 3.333c9.205 0 16.667 7.462 16.667 16.667 0 7.333-4.735 13.56-11.315 15.788l-.377.124-4.84-12.584c1.782-.078 3.198-1.571 3.198-3.328a3.332 3.332 0 1 0-6.666 0 3.332 3.332 0 0 0 3.195 3.33l-4.839 12.582-.375-.124C8.067 33.56 3.333 27.333 3.333 20c0-9.205 7.462-16.667 16.667-16.667Zm0 3.334c-7.363 0-13.333 5.97-13.333 13.333 0 4.867 2.606 9.125 6.501 11.453l2.467-6.415A6.644 6.644 0 0 1 13.333 20 6.665 6.665 0 0 1 20 13.333 6.665 6.665 0 0 1 26.667 20a6.654 6.654 0 0 1-2.3 5.038c.941 2.457 1.765 4.595 2.465 6.417 3.893-2.33 6.501-6.588 6.501-11.455 0-7.363-5.97-13.333-13.333-13.333Z" fill="#289A00"/></svg>
