<svg width="204" height="67" viewBox="0 0 204 67" fill="none" xmlns="http://www.w3.org/2000/svg">
<rect width="204" height="67" fill="#5D2173"/>
<path d="M64.704 33H60.06V8.52H67.728C69.504 8.52 71.124 8.784 72.588 9.312C74.052 9.84 75.216 10.68 76.08 11.832C76.968 12.984 77.412 14.496 77.412 16.368C77.412 18.216 76.932 19.74 75.972 20.94C75.036 22.14 73.8 23.028 72.264 23.604C70.752 24.18 69.132 24.468 67.404 24.468H64.704V33ZM67.584 12.408H64.704V20.616H67.656C69.048 20.616 70.176 20.304 71.04 19.68C71.904 19.032 72.384 18.024 72.48 16.656C72.48 15.072 72.048 13.968 71.184 13.344C70.32 12.72 69.12 12.408 67.584 12.408ZM81.3527 33H79.8647V21.36H80.8487L81.2807 23.208C81.5687 22.968 81.9287 22.704 82.3607 22.416C82.8087 22.128 83.2727 21.88 83.7527 21.672C84.2487 21.464 84.6967 21.36 85.0967 21.36L85.5047 22.536C85.0247 22.536 84.5127 22.648 83.9687 22.872C83.4407 23.096 82.9447 23.376 82.4807 23.712C82.0327 24.032 81.6567 24.36 81.3527 24.696V33ZM88.2544 23.112L87.7984 22.056C88.1024 21.848 88.4784 21.672 88.9264 21.528C89.3904 21.384 89.8544 21.272 90.3184 21.192C90.7984 21.096 91.1984 21.048 91.5184 21.048C92.8464 21.048 93.9024 21.4 94.6864 22.104C95.4704 22.792 95.8624 23.704 95.8624 24.84V33H94.6384L94.4464 31.752C94.0784 32.136 93.5664 32.496 92.9104 32.832C92.2544 33.152 91.5824 33.312 90.8944 33.312C89.5824 33.312 88.5984 32.968 87.9424 32.28C87.3024 31.592 86.9824 30.744 86.9824 29.736C86.9824 28.632 87.3664 27.776 88.1344 27.168C88.9184 26.544 89.9184 26.24 91.1344 26.256H94.3744V25.08C94.3744 24.28 94.1424 23.616 93.6784 23.088C93.2304 22.56 92.5344 22.296 91.5904 22.296C90.7424 22.296 90.0784 22.384 89.5984 22.56C89.1184 22.736 88.6704 22.92 88.2544 23.112ZM88.4464 29.736C88.4464 30.088 88.5264 30.448 88.6864 30.816C88.8464 31.184 89.1024 31.488 89.4544 31.728C89.8064 31.968 90.2704 32.088 90.8464 32.088C91.5984 32.088 92.2704 31.896 92.8624 31.512C93.4704 31.128 93.9744 30.688 94.3744 30.192V27.24H91.0864C90.2224 27.24 89.5664 27.488 89.1184 27.984C88.6704 28.48 88.4464 29.064 88.4464 29.736ZM103.36 33H101.776L97.5759 21.672L98.8239 21.048L102.568 31.104L106.168 21.36H107.608L103.36 33ZM118.851 27.264H110.211C110.227 28.192 110.371 29.024 110.643 29.76C110.931 30.48 111.387 31.056 112.011 31.488C112.651 31.904 113.491 32.112 114.531 32.112C115.203 32.112 115.827 32.024 116.403 31.848C116.995 31.656 117.587 31.408 118.179 31.104L118.683 32.208C118.123 32.512 117.531 32.776 116.907 33C116.283 33.208 115.515 33.312 114.603 33.312C113.259 33.312 112.147 33.048 111.267 32.52C110.403 31.992 109.755 31.264 109.323 30.336C108.907 29.392 108.699 28.32 108.699 27.12C108.715 25.952 108.923 24.912 109.323 24C109.723 23.088 110.315 22.368 111.099 21.84C111.883 21.312 112.843 21.048 113.979 21.048C115.115 21.048 116.035 21.312 116.739 21.84C117.459 22.368 117.987 23.096 118.323 24.024C118.675 24.936 118.851 25.976 118.851 27.144V27.264ZM110.259 26.232H117.339C117.227 25.096 116.915 24.16 116.403 23.424C115.891 22.672 115.059 22.296 113.907 22.296C112.755 22.296 111.883 22.672 111.291 23.424C110.715 24.16 110.371 25.096 110.259 26.232ZM130.687 27.264H122.047C122.063 28.192 122.207 29.024 122.479 29.76C122.767 30.48 123.223 31.056 123.847 31.488C124.487 31.904 125.327 32.112 126.367 32.112C127.039 32.112 127.663 32.024 128.239 31.848C128.831 31.656 129.423 31.408 130.015 31.104L130.519 32.208C129.959 32.512 129.367 32.776 128.743 33C128.119 33.208 127.351 33.312 126.439 33.312C125.095 33.312 123.983 33.048 123.103 32.52C122.239 31.992 121.591 31.264 121.159 30.336C120.743 29.392 120.535 28.32 120.535 27.12C120.551 25.952 120.759 24.912 121.159 24C121.559 23.088 122.151 22.368 122.935 21.84C123.719 21.312 124.679 21.048 125.815 21.048C126.951 21.048 127.871 21.312 128.575 21.84C129.295 22.368 129.823 23.096 130.159 24.024C130.511 24.936 130.687 25.976 130.687 27.144V27.264ZM122.095 26.232H129.175C129.063 25.096 128.751 24.16 128.239 23.424C127.727 22.672 126.895 22.296 125.743 22.296C124.591 22.296 123.719 22.672 123.127 23.424C122.551 24.16 122.207 25.096 122.095 26.232ZM134.579 33H133.091V21.36H134.315L134.555 23.136C134.891 22.752 135.299 22.4 135.779 22.08C136.275 21.76 136.795 21.512 137.339 21.336C137.883 21.144 138.395 21.048 138.875 21.048C140.123 21.048 141.027 21.416 141.587 22.152C142.163 22.872 142.451 23.792 142.451 24.912V32.976H140.963V25.2C140.963 24.4 140.795 23.72 140.459 23.16C140.139 22.6 139.555 22.32 138.707 22.32C138.307 22.32 137.851 22.424 137.339 22.632C136.843 22.84 136.347 23.12 135.851 23.472C135.371 23.824 134.947 24.232 134.579 24.696V33ZM146.402 33C145.906 33 145.482 32.832 145.13 32.496C144.794 32.16 144.626 31.744 144.626 31.248C144.626 30.752 144.794 30.336 145.13 30C145.482 29.664 145.906 29.496 146.402 29.496C146.898 29.496 147.306 29.664 147.626 30C147.962 30.336 148.13 30.752 148.13 31.248C148.13 31.744 147.962 32.16 147.626 32.496C147.306 32.832 146.898 33 146.402 33ZM64.5924 51.812L65.2764 49.58C65.9244 49.892 66.8004 50.216 67.9044 50.552C69.0084 50.888 70.1364 51.056 71.2884 51.056C73.1844 51.056 74.6364 50.684 75.6444 49.94C76.6524 49.196 77.1564 48.248 77.1564 47.096C77.1564 45.8 76.5924 44.756 75.4644 43.964C74.3364 43.148 72.7404 42.284 70.6764 41.372C68.5404 40.46 66.9204 39.44 65.8164 38.312C64.7364 37.184 64.1964 35.78 64.1964 34.1C64.1964 32.948 64.5084 31.904 65.1324 30.968C65.7804 30.032 66.6804 29.3 67.8324 28.772C69.0084 28.22 70.4004 27.944 72.0084 27.944C73.2324 27.944 74.3844 28.1 75.4644 28.412C76.5684 28.724 77.5044 29.072 78.2724 29.456L77.3004 31.652C76.6764 31.364 75.9564 31.088 75.1404 30.824C74.3484 30.536 73.3644 30.392 72.1884 30.392C70.6284 30.392 69.3684 30.716 68.4084 31.364C67.4484 32.012 66.9684 32.912 66.9684 34.064C66.9684 34.952 67.2084 35.708 67.6884 36.332C68.1924 36.956 68.9244 37.544 69.8844 38.096C70.8444 38.624 72.0444 39.212 73.4844 39.86C74.8764 40.508 76.0524 41.156 77.0124 41.804C77.9724 42.452 78.7044 43.196 79.2084 44.036C79.7124 44.852 79.9644 45.86 79.9644 47.06C79.9644 48.932 79.2084 50.468 77.6964 51.668C76.1844 52.868 74.0604 53.468 71.3244 53.468C70.6284 53.468 69.8364 53.384 68.9484 53.216C68.0604 53.072 67.2204 52.88 66.4284 52.64C65.6364 52.376 65.0244 52.1 64.5924 51.812ZM90.5855 51.248L91.0655 52.328C90.7455 52.52 90.3615 52.696 89.9135 52.856C89.4655 53 89.0175 53.112 88.5695 53.192C88.1215 53.272 87.7295 53.312 87.3935 53.312C86.2575 53.312 85.2815 53.048 84.4655 52.52C83.6495 51.992 83.0255 51.264 82.5935 50.336C82.1615 49.392 81.9455 48.32 81.9455 47.12C81.9615 45.952 82.1935 44.912 82.6415 44C83.1055 43.088 83.7535 42.368 84.5855 41.84C85.4335 41.312 86.4255 41.048 87.5615 41.048C87.8815 41.048 88.2655 41.096 88.7135 41.192C89.1615 41.272 89.6095 41.384 90.0575 41.528C90.5055 41.672 90.8815 41.848 91.1855 42.056L90.7055 43.112C90.3055 42.92 89.8735 42.736 89.4095 42.56C88.9615 42.384 88.3215 42.296 87.4895 42.296C86.6415 42.296 85.9135 42.512 85.3055 42.944C84.7135 43.36 84.2575 43.928 83.9375 44.648C83.6335 45.368 83.4735 46.184 83.4575 47.096C83.4575 48.04 83.6015 48.888 83.8895 49.64C84.1775 50.392 84.6095 50.984 85.1855 51.416C85.7775 51.848 86.5055 52.064 87.3695 52.064C88.2175 52.064 88.8575 51.984 89.2895 51.824C89.7375 51.648 90.1695 51.456 90.5855 51.248ZM94.2376 38.816C93.9016 38.816 93.6296 38.712 93.4216 38.504C93.2136 38.28 93.1096 38.008 93.1096 37.688C93.1096 37.368 93.2136 37.104 93.4216 36.896C93.6296 36.672 93.9016 36.56 94.2376 36.56C94.5416 36.56 94.8056 36.672 95.0296 36.896C95.2696 37.104 95.3896 37.368 95.3896 37.688C95.3896 38.008 95.2696 38.28 95.0296 38.504C94.8056 38.712 94.5416 38.816 94.2376 38.816ZM95.0056 53H93.4936V41.36H95.0056V53ZM107.566 47.264H98.9262C98.9422 48.192 99.0862 49.024 99.3582 49.76C99.6462 50.48 100.102 51.056 100.726 51.488C101.366 51.904 102.206 52.112 103.246 52.112C103.918 52.112 104.542 52.024 105.118 51.848C105.71 51.656 106.302 51.408 106.894 51.104L107.398 52.208C106.838 52.512 106.246 52.776 105.622 53C104.998 53.208 104.23 53.312 103.318 53.312C101.974 53.312 100.862 53.048 99.9822 52.52C99.1182 51.992 98.4702 51.264 98.0382 50.336C97.6222 49.392 97.4142 48.32 97.4142 47.12C97.4302 45.952 97.6382 44.912 98.0382 44C98.4382 43.088 99.0302 42.368 99.8142 41.84C100.598 41.312 101.558 41.048 102.694 41.048C103.83 41.048 104.75 41.312 105.454 41.84C106.174 42.368 106.702 43.096 107.038 44.024C107.39 44.936 107.566 45.976 107.566 47.144V47.264ZM98.9742 46.232H106.054C105.942 45.096 105.63 44.16 105.118 43.424C104.606 42.672 103.774 42.296 102.622 42.296C101.47 42.296 100.598 42.672 100.006 43.424C99.4302 44.16 99.0862 45.096 98.9742 46.232ZM111.458 53H109.97V41.36H111.194L111.434 43.136C111.77 42.752 112.178 42.4 112.658 42.08C113.154 41.76 113.674 41.512 114.218 41.336C114.762 41.144 115.274 41.048 115.754 41.048C117.002 41.048 117.906 41.416 118.466 42.152C119.042 42.872 119.33 43.792 119.33 44.912V52.976H117.842V45.2C117.842 44.4 117.674 43.72 117.338 43.16C117.018 42.6 116.434 42.32 115.586 42.32C115.186 42.32 114.73 42.424 114.218 42.632C113.722 42.84 113.226 43.12 112.73 43.472C112.25 43.824 111.826 44.232 111.458 44.696V53ZM130.265 51.248L130.745 52.328C130.425 52.52 130.041 52.696 129.593 52.856C129.145 53 128.697 53.112 128.249 53.192C127.801 53.272 127.409 53.312 127.073 53.312C125.937 53.312 124.961 53.048 124.145 52.52C123.329 51.992 122.705 51.264 122.273 50.336C121.841 49.392 121.625 48.32 121.625 47.12C121.641 45.952 121.873 44.912 122.321 44C122.785 43.088 123.433 42.368 124.265 41.84C125.113 41.312 126.105 41.048 127.241 41.048C127.561 41.048 127.945 41.096 128.393 41.192C128.841 41.272 129.289 41.384 129.737 41.528C130.185 41.672 130.561 41.848 130.865 42.056L130.385 43.112C129.985 42.92 129.553 42.736 129.089 42.56C128.641 42.384 128.001 42.296 127.169 42.296C126.321 42.296 125.593 42.512 124.985 42.944C124.393 43.36 123.937 43.928 123.617 44.648C123.313 45.368 123.153 46.184 123.137 47.096C123.137 48.04 123.281 48.888 123.569 49.64C123.857 50.392 124.289 50.984 124.865 51.416C125.457 51.848 126.185 52.064 127.049 52.064C127.897 52.064 128.537 51.984 128.969 51.824C129.417 51.648 129.849 51.456 130.265 51.248ZM142.605 47.264H133.965C133.981 48.192 134.125 49.024 134.397 49.76C134.685 50.48 135.141 51.056 135.765 51.488C136.405 51.904 137.245 52.112 138.285 52.112C138.957 52.112 139.581 52.024 140.157 51.848C140.749 51.656 141.341 51.408 141.933 51.104L142.437 52.208C141.877 52.512 141.285 52.776 140.661 53C140.037 53.208 139.269 53.312 138.357 53.312C137.013 53.312 135.901 53.048 135.021 52.52C134.157 51.992 133.509 51.264 133.077 50.336C132.661 49.392 132.453 48.32 132.453 47.12C132.469 45.952 132.677 44.912 133.077 44C133.477 43.088 134.069 42.368 134.853 41.84C135.637 41.312 136.597 41.048 137.733 41.048C138.869 41.048 139.789 41.312 140.493 41.84C141.213 42.368 141.741 43.096 142.077 44.024C142.429 44.936 142.605 45.976 142.605 47.144V47.264ZM134.013 46.232H141.093C140.981 45.096 140.669 44.16 140.157 43.424C139.645 42.672 138.813 42.296 137.661 42.296C136.509 42.296 135.637 42.672 135.045 43.424C134.469 44.16 134.125 45.096 134.013 46.232Z" fill="white"/>
</svg>
