<svg width="85" height="85" viewBox="0 0 85 85" fill="none" xmlns="http://www.w3.org/2000/svg">
<path d="M42.5 85C65.9721 85 85 65.9721 85 42.5C85 19.0279 65.9721 0 42.5 0C19.0279 0 0 19.0279 0 42.5C0 65.9721 19.0279 85 42.5 85Z" fill="#202122"/>
<path fill-rule="evenodd" clip-rule="evenodd" d="M42.5 19.29C36.8502 19.2953 31.3866 21.3102 27.0862 24.9745C22.7859 28.6388 19.9293 33.7134 19.0274 39.2907C18.1255 44.868 19.2371 50.5843 22.1634 55.4172C25.0897 60.2501 29.6398 63.8843 35 65.67C36.19 65.89 36.62 65.15 36.62 64.53C36.62 63.91 36.62 62.08 36.62 60.1C30 61.53 28.62 57.29 28.62 57.29C27.54 54.54 25.98 53.8 25.98 53.8C23.82 52.33 26.14 52.36 26.14 52.36C26.8948 52.4633 27.6161 52.7377 28.2487 53.1624C28.8813 53.587 29.4085 54.1505 29.79 54.81C31.91 58.45 35.36 57.4 36.72 56.81C36.8212 55.602 37.3578 54.4719 38.23 53.63C32.87 53 27.31 51 27.31 41.84C27.2768 39.4757 28.1581 37.19 29.77 35.46C29.0363 33.4082 29.1186 31.1529 30 29.16C30 29.16 32 28.52 36.54 31.6C40.4417 30.5333 44.5583 30.5333 48.46 31.6C53 28.52 55 29.16 55 29.16C55.8814 31.1529 55.9637 33.4082 55.23 35.46C56.8391 37.191 57.717 39.4769 57.68 41.84C57.68 51 52.12 53 46.82 53.59C47.3861 54.1686 47.8225 54.8612 48.1001 55.6216C48.3777 56.382 48.4902 57.1928 48.43 58C48.43 61.18 48.43 63.74 48.43 64.53C48.43 65.16 48.86 65.9 50.07 65.67C55.4359 63.8825 59.9899 60.2424 62.9157 55.4022C65.8416 50.562 66.9482 44.8381 66.0371 39.2561C65.1261 33.6742 62.2569 28.5991 57.9439 24.9404C53.6308 21.2817 48.1558 19.2786 42.5 19.29Z" fill="white"/>
<path d="M27.71 53.46C27.66 53.58 27.48 53.61 27.31 53.53C27.14 53.45 27.04 53.29 27.09 53.17C27.14 53.05 27.33 53.02 27.5 53.1C27.67 53.18 27.77 53.34 27.71 53.46Z" fill="white"/>
<path d="M28.68 54.53C28.57 54.64 28.34 54.59 28.19 54.42C28.1199 54.3614 28.0739 54.2789 28.061 54.1884C28.0481 54.098 28.0691 54.0059 28.12 53.93C28.24 53.82 28.45 53.87 28.61 54.04C28.77 54.21 28.8 54.43 28.68 54.53Z" fill="white"/>
<path d="M29.62 55.91C29.47 56.01 29.23 55.91 29.09 55.7C28.95 55.49 28.94 55.23 29.09 55.13C29.24 55.03 29.47 55.13 29.62 55.33C29.77 55.53 29.77 55.8 29.62 55.91Z" fill="white"/>
<path d="M30.9 57.23C30.77 57.37 30.49 57.33 30.29 57.14C30.09 56.95 30.02 56.67 30.16 56.53C30.3 56.39 30.57 56.43 30.77 56.62C30.97 56.81 31.04 57.09 30.9 57.23Z" fill="white"/>
<path d="M32.68 58C32.62 58.18 32.35 58.27 32.08 58.19C31.81 58.11 31.64 57.89 31.69 57.7C31.74 57.51 32.02 57.43 32.29 57.51C32.56 57.59 32.73 57.81 32.68 58Z" fill="white"/>
<path d="M34.62 58.14C34.62 58.34 34.4 58.5 34.12 58.5C33.84 58.5 33.6 58.35 33.6 58.16C33.6 57.97 33.82 57.8 34.11 57.79C34.4 57.78 34.62 57.95 34.62 58.14Z" fill="white"/>
<path d="M36.44 57.83C36.44 58.02 36.27 58.22 35.99 58.27C35.71 58.32 35.46 58.21 35.43 58.02C35.4 57.83 35.59 57.62 35.87 57.57C36.15 57.52 36.4 57.64 36.44 57.83Z" fill="white"/>
</svg>
