<svg width="85" height="85" viewBox="0 0 85 85" fill="none" xmlns="http://www.w3.org/2000/svg">
<path d="M42.5 85C65.9721 85 85 65.9721 85 42.5C85 19.0279 65.9721 0 42.5 0C19.0279 0 0 19.0279 0 42.5C0 65.9721 19.0279 85 42.5 85Z" fill="#D50060"/>
<path d="M42.5 23C48.85 23 49.61 23 52.12 23.14C53.6299 23.1532 55.1259 23.4307 56.54 23.96C57.5636 24.3575 58.4933 24.9638 59.2697 25.7403C60.0462 26.5168 60.6525 27.4464 61.05 28.47C61.5793 29.8842 61.8568 31.3801 61.87 32.89C61.99 35.4 62.01 36.16 62.01 42.51C62.01 48.86 62.01 49.62 61.87 52.13C61.8568 53.6399 61.5793 55.1359 61.05 56.55C60.6525 57.5736 60.0462 58.5033 59.2697 59.2797C58.4933 60.0562 57.5636 60.6625 56.54 61.06C55.1259 61.5893 53.6299 61.8669 52.12 61.88C49.61 62 48.86 62.02 42.5 62.02C36.14 62.02 35.39 62.02 32.88 61.88C31.3701 61.8669 29.8742 61.5893 28.46 61.06C27.4447 60.6556 26.5242 60.0452 25.7565 59.2672C24.9889 58.4892 24.3908 57.5607 24 56.54C23.4707 55.1259 23.1932 53.6299 23.18 52.12C23 49.61 23 48.85 23 42.5C23 36.15 23 35.39 23.14 32.88C23.1659 31.3677 23.457 29.8717 24 28.46C24.3977 27.4504 24.999 26.5335 25.7662 25.7662C26.5335 24.999 27.4504 24.3977 28.46 24C29.8742 23.4707 31.3701 23.1932 32.88 23.18C35.39 23 36.15 23 42.5 23ZM42.5 18.71C36.04 18.71 35.23 18.71 32.69 18.85C30.7122 18.9036 28.7578 19.2925 26.91 20C25.3157 20.6073 23.8678 21.545 22.6614 22.7514C21.455 23.9578 20.5173 25.4057 19.91 27C19.2162 28.8501 18.8408 30.8045 18.8 32.78C18.69 35.32 18.66 36.13 18.66 42.59C18.66 49.05 18.66 49.86 18.8 52.4C18.8797 54.3503 19.2853 56.2736 20 58.09C20.6073 59.6843 21.545 61.1322 22.7514 62.3386C23.9578 63.545 25.4057 64.4827 27 65.09C28.8501 65.7838 30.8045 66.1592 32.78 66.2C35.32 66.31 36.13 66.34 42.59 66.34C49.05 66.34 49.86 66.34 52.4 66.2C54.3755 66.1592 56.3299 65.7838 58.18 65.09C59.7743 64.4827 61.2222 63.545 62.4286 62.3386C63.635 61.1322 64.5727 59.6843 65.18 58.09C65.8738 56.2399 66.2492 54.2855 66.29 52.31C66.4 49.77 66.43 48.96 66.43 42.5C66.43 36.04 66.43 35.23 66.29 32.69C66.2492 30.7145 65.8738 28.7601 65.18 26.91C64.5727 25.3157 63.635 23.8678 62.4286 22.6614C61.2222 21.455 59.7743 20.5173 58.18 19.91C56.3299 19.2162 54.3755 18.8408 52.4 18.8C49.86 18.69 49.05 18.66 42.59 18.66L42.5 18.71Z" fill="white"/>
<path d="M42.5 30.28C40.0831 30.28 37.7205 30.9967 35.7109 32.3394C33.7014 33.6822 32.1351 35.5907 31.2102 37.8236C30.2853 40.0565 30.0433 42.5136 30.5148 44.884C30.9863 47.2544 32.1502 49.4318 33.8592 51.1408C35.5682 52.8498 37.7456 54.0137 40.116 54.4852C42.4865 54.9567 44.9435 54.7147 47.1764 53.7898C49.4093 52.8649 51.3178 51.2986 52.6606 49.2891C54.0033 47.2795 54.72 44.9169 54.72 42.5C54.72 39.2591 53.4325 36.1508 51.1409 33.8592C48.8492 31.5675 45.741 30.28 42.5 30.28ZM42.5 50.43C40.9316 50.43 39.3984 49.9649 38.0943 49.0936C36.7903 48.2222 35.7738 46.9837 35.1736 45.5347C34.5734 44.0857 34.4164 42.4912 34.7224 40.9529C35.0284 39.4147 35.7836 38.0017 36.8926 36.8926C38.0017 35.7836 39.4147 35.0284 40.9529 34.7224C42.4912 34.4164 44.0857 34.5734 45.5347 35.1736C46.9837 35.7738 48.2222 36.7902 49.0936 38.0943C49.9649 39.3984 50.43 40.9316 50.43 42.5C50.43 44.6032 49.5945 46.6202 48.1074 48.1074C46.6202 49.5945 44.6032 50.43 42.5 50.43Z" fill="white"/>
<path d="M55.2 32.66C56.7795 32.66 58.06 31.3795 58.06 29.8C58.06 28.2205 56.7795 26.94 55.2 26.94C53.6205 26.94 52.34 28.2205 52.34 29.8C52.34 31.3795 53.6205 32.66 55.2 32.66Z" fill="white"/>
</svg>
