<svg width="85" height="85" viewBox="0 0 85 85" fill="none" xmlns="http://www.w3.org/2000/svg">
<path d="M42.5 85C65.9721 85 85 65.9721 85 42.5C85 19.0279 65.9721 0 42.5 0C19.0279 0 0 19.0279 0 42.5C0 65.9721 19.0279 85 42.5 85Z" fill="#0076B2"/>
<path d="M19.78 29.77H29.65V61.51H19.78V29.77ZM24.72 14C25.8513 14 26.9572 14.3355 27.8979 14.964C28.8385 15.5925 29.5717 16.4859 30.0046 17.531C30.4375 18.5762 30.5508 19.7263 30.3301 20.8359C30.1094 21.9455 29.5646 22.9647 28.7647 23.7647C27.9647 24.5646 26.9455 25.1094 25.8359 25.3301C24.7263 25.5508 23.5762 25.4375 22.531 25.0046C21.4859 24.5717 20.5925 23.8385 19.964 22.8979C19.3355 21.9572 19 20.8513 19 19.72C19 18.203 19.6026 16.7481 20.6753 15.6753C21.7481 14.6026 23.203 14 24.72 14Z" fill="white"/>
<path d="M35.84 29.77H45.29V34.11H45.47C46.4166 32.4925 47.7843 31.162 49.4273 30.2604C51.0703 29.3588 52.9272 28.9197 54.8 28.99C64.8 28.99 66.63 35.56 66.63 44.1V61.51H56.73V46.08C56.73 42.4 56.67 37.66 51.61 37.66C46.55 37.66 45.69 41.66 45.69 45.81V61.51H35.84V29.77Z" fill="white"/>
</svg>
